M48
; DRILL file KiCad 10.0.6 date 2026-10-03T13:40:37
; FORMAT={-:-/ absolute / inch / decimal}
; #@! TF.CreationDate,2026-10-03T13:40:37+02:00
; #@! TF.GenerationSoftware,Kicad,Pcbnew,10.0.6
; #@! TF.FileFunction,Plated,1,4,PTH
FMAT,2
INCH
; #@! TA.AperFunction,Plated,PTH,ViaDrill
T1C0.0118
; #@! TA.AperFunction,Plated,PTH,ComponentDrill
T2C0.0320
; #@! TA.AperFunction,Plated,PTH,ComponentDrill
T3C0.0394
%
G90
G05
T1
X0.7126Y-1.9764
X0.7126Y-2.2283
X0.7146Y-2.6496
X0.7169Y-1.7913
X0.7252Y-1.2579
X0.7254Y-2.3809
X0.7283Y-1.0594
X0.7343Y-1.0276
X0.7402Y-2.439
X0.7569Y-0.9262
X0.7598Y-1.1087
X0.7608Y-1.7224
X0.7612Y-1.3169
X0.7618Y-1.4173
X0.7618Y-1.8031
X0.7618Y-1.9163
X0.7657Y-1.6122
X0.7677Y-2.0177
X0.7968Y-2.0269
X0.8169Y-1.2126
X0.8309Y-1.5157
X0.834Y-1.7672
X0.8504Y-1.3268
X0.8524Y-1.0157
X0.8559Y-2.7547
X0.8587Y-1.6827
X0.8632Y-1.7755
X0.872Y-1.3346
X0.8848Y-1.6337
X0.8848Y-1.8227
X0.8848Y-1.9802
X0.8848Y-2.0117
X0.8952Y-1.5841
X0.8968Y-2.6889
X0.8976Y-2.0578
X0.9134Y-2.7528
X0.9163Y-1.6652
X0.9163Y-1.8227
X0.9163Y-1.9802
X0.9165Y-1.4705
X0.9242Y-2.3297
X0.9252Y-1.0226
X0.9252Y-1.0635
X0.9281Y-2.0511
X0.9301Y-1.2449
X0.9339Y-1.213
X0.9343Y-1.1027
X0.94Y-2.7549
X0.9417Y-1.4626
X0.9417Y-2.1319
X0.9421Y-2.1961
X0.9476Y-1.6969
X0.9478Y-1.6652
X0.9478Y-1.7912
X0.9478Y-1.8227
X0.9478Y-1.8857
X0.9478Y-1.9487
X0.9478Y-1.9802
X0.9488Y-2.0648
X0.9606Y-1.3366
X0.9622Y-1.1457
X0.9681Y-1.4579
X0.9783Y-1.0748
X0.9787Y-1.1827
X0.9793Y-1.6652
X0.9793Y-1.6967
X0.9793Y-1.7282
X0.9793Y-1.8857
X0.9793Y-1.9172
X0.9793Y-1.9487
X0.9852Y-2.252
X0.9862Y-2.3415
X0.9902Y-2.565
X0.9945Y-1.4689
X0.9961Y-2.7057
X0.9965Y-1.4445
X0.998Y-2.751
X1.0028Y-1.587
X1.0035Y-2.1315
X1.0059Y-2.1965
X1.0079Y-1.0571
X1.0108Y-1.6652
X1.0108Y-1.6967
X1.0108Y-1.7282
X1.0108Y-1.7912
X1.0108Y-1.9487
X1.0108Y-2.0117
X1.0108Y-1.9802
X1.0167Y-2.3445
X1.0256Y-1.6059
X1.0276Y-1.1004
X1.0335Y-2.563
X1.0423Y-1.6337
X1.0423Y-1.6652
X1.0423Y-1.7912
X1.0423Y-1.9802
X1.0484Y-1.4693
X1.0508Y-1.2134
X1.0522Y-1.1241
X1.0581Y-2.3307
X1.064Y-2.3642
X1.064Y-1.5533
X1.0738Y-1.6652
X1.0738Y-1.6967
X1.0738Y-1.7597
X1.0738Y-1.9802
X1.0738Y-2.0117
X1.074Y-1.8228
X1.0749Y-2.2244
X1.0893Y-1.3753
X1.0896Y-1.5885
X1.0906Y-2.0646
X1.0935Y-1.0217
X1.0974Y-1.4557
X1.1047Y-1.6335
X1.1053Y-1.6652
X1.1053Y-1.9487
X1.1053Y-2.0837
X1.1067Y-1.2276
X1.1067Y-1.5528
X1.1083Y-2.2116
X1.1093Y-1.0768
X1.1128Y-1.3704
X1.1201Y-0.8189
X1.122Y-1.3268
X1.126Y-1.1722
X1.1335Y-1.4567
X1.1358Y-2.6693
X1.1368Y-1.6967
X1.1368Y-1.7282
X1.1368Y-1.9172
X1.1368Y-1.9487
X1.1368Y-1.9802
X1.137Y-1.3546
X1.1445Y-1.5524
X1.1457Y-2.2096
X1.153Y-1.6012
X1.1539Y-1.4681
X1.1565Y-1.3406
X1.1575Y-2.3297
X1.1614Y-1.2067
X1.1675Y-1.729
X1.1683Y-1.6652
X1.1683Y-1.9487
X1.1684Y-1.6943
X1.1689Y-1.6335
X1.1713Y-2.1289
X1.1713Y-2.5728
X1.1771Y-1.4713
X1.1861Y-1.074
X1.188Y-2.0461
X1.1925Y-1.4539
X1.1983Y-1.6652
X1.1992Y-1.7598
X1.1998Y-1.7912
X1.1998Y-1.9487
X1.2004Y-1.5535
X1.2037Y-2.25
X1.2057Y-2.3366
X1.2077Y-2.5557
X1.2153Y-2.1913
X1.2224Y-1.1472
X1.2301Y-1.5948
X1.2311Y-1.1008
X1.2313Y-1.6652
X1.2313Y-1.6967
X1.2313Y-1.8227
X1.2313Y-1.8542
X1.2313Y-1.8857
X1.2313Y-1.9172
X1.2313Y-1.9487
X1.2313Y-1.9802
X1.2334Y-2.1193
X1.2339Y-1.4421
X1.2358Y-1.2047
X1.2372Y-2.3563
X1.2378Y-2.0493
X1.2398Y-1.5535
X1.2433Y-1.0343
X1.2433Y-1.4697
X1.2449Y-2.1575
X1.2463Y-0.9734
X1.252Y-1.6075
X1.252Y-2.3297
X1.2628Y-1.6337
X1.263Y-1.7287
X1.263Y-1.7913
X1.2726Y-0.9469
X1.2783Y-1.5677
X1.2874Y-1.1685
X1.2898Y-1.5402
X1.2996Y-0.9902
X1.3024Y-1.0309
X1.3085Y-2.2514
X1.3091Y-2.4715
X1.3237Y-1.7322
X1.3244Y-1.126
X1.3283Y-2.7937
X1.3327Y-1.2067
X1.3366Y-2.7274
X1.38Y-1.3129
X1.3819Y-1.1083
X1.3925Y-0.9138
X1.405Y-1.3969
X1.4057Y-1.1311
X1.4587Y-2.7933
X1.4596Y-2.6457
X1.4787Y-1.0287
X1.4921Y-2.2524
T2
X0.7783Y-0.8642
X0.7783Y-0.9642
X0.7783Y-1.0642
X0.7783Y-1.1642
X0.7783Y-1.2642
X0.7783Y-1.3642
X0.7783Y-1.4642
X0.7783Y-1.5642
X0.7783Y-1.6642
X0.7783Y-1.7642
X0.7783Y-1.8642
X0.7783Y-1.9642
X0.7783Y-2.0642
X0.7783Y-2.1642
X0.7783Y-2.2642
X0.7783Y-2.3642
X0.7783Y-2.4642
X0.7783Y-2.5642
X0.7783Y-2.6642
X0.7783Y-2.7642
X1.3783Y-0.8642
X1.3783Y-0.9642
X1.3783Y-1.0642
X1.3783Y-1.1642
X1.3783Y-1.2642
X1.3783Y-1.3642
X1.3783Y-1.4642
X1.3783Y-1.5642
X1.3783Y-1.6642
X1.3783Y-1.7642
X1.3783Y-1.8642
X1.3783Y-1.9642
X1.3783Y-2.0642
X1.3783Y-2.1642
X1.3783Y-2.2642
X1.3783Y-2.3642
X1.3783Y-2.4642
X1.3783Y-2.5642
X1.3783Y-2.6642
X1.3783Y-2.7642
T3
X0.8659Y-0.8528
X0.8659Y-0.9528
X0.9659Y-0.8528
X0.9659Y-0.9528
X1.0659Y-0.8528
X1.0659Y-0.9528
X1.4622Y-1.2154
X1.4622Y-1.3154
X1.4622Y-1.4154
X1.4622Y-1.5154
X1.4622Y-1.6154
X1.4622Y-1.7154
X1.4622Y-1.8154
X1.4622Y-1.9154
X1.4622Y-2.0154
X1.4622Y-2.1154
X1.4622Y-2.2154
X1.4622Y-2.3154
X1.4622Y-2.4154
X1.4622Y-2.5154
M30
