%TF.GenerationSoftware,KiCad,Pcbnew,10.0.6*%
%TF.CreationDate,2026-10-03T13:40:37+02:00*%
%TF.ProjectId,pokeymax4_5,706f6b65-796d-4617-9834-5f352e6b6963,rev?*%
%TF.SameCoordinates,Original*%
%TF.FileFunction,Legend,Bot*%
%TF.FilePolarity,Positive*%
%FSLAX46Y46*%
G04 Gerber Fmt 4.6, Leading zero omitted, Abs format (unit mm)*
G04 Created by KiCad (PCBNEW 10.0.6) date 2026-10-03 13:40:37*
%MOMM*%
%LPD*%
G01*
G04 APERTURE LIST*
G04 Aperture macros list*
%AMOutline5P*
0 Free polygon, 5 corners , with rotation*
0 The origin of the aperture is its center*
0 number of corners: always 5*
0 $1 to $10 corner X, Y*
0 $11 Rotation angle, in degrees counterclockwise*
0 create outline with 5 corners*
4,1,5,$1,$2,$3,$4,$5,$6,$7,$8,$9,$10,$1,$2,$11*%
%AMOutline6P*
0 Free polygon, 6 corners , with rotation*
0 The origin of the aperture is its center*
0 number of corners: always 6*
0 $1 to $12 corner X, Y*
0 $13 Rotation angle, in degrees counterclockwise*
0 create outline with 6 corners*
4,1,6,$1,$2,$3,$4,$5,$6,$7,$8,$9,$10,$11,$12,$1,$2,$13*%
%AMOutline7P*
0 Free polygon, 7 corners , with rotation*
0 The origin of the aperture is its center*
0 number of corners: always 7*
0 $1 to $14 corner X, Y*
0 $15 Rotation angle, in degrees counterclockwise*
0 create outline with 7 corners*
4,1,7,$1,$2,$3,$4,$5,$6,$7,$8,$9,$10,$11,$12,$13,$14,$1,$2,$15*%
%AMOutline8P*
0 Free polygon, 8 corners , with rotation*
0 The origin of the aperture is its center*
0 number of corners: always 8*
0 $1 to $16 corner X, Y*
0 $17 Rotation angle, in degrees counterclockwise*
0 create outline with 8 corners*
4,1,8,$1,$2,$3,$4,$5,$6,$7,$8,$9,$10,$11,$12,$13,$14,$15,$16,$1,$2,$17*%
G04 Aperture macros list end*
%ADD10C,0.150000*%
%ADD11C,0.120000*%
%ADD12Outline8P,-0.670000X0.281400X-0.281400X0.670000X0.281400X0.670000X0.670000X0.281400X0.670000X-0.281400X0.281400X-0.670000X-0.281400X-0.670000X-0.670000X-0.281400X180.000000*%
%ADD13Outline8P,-0.800000X0.320000X-0.320000X0.800000X0.320000X0.800000X0.800000X0.320000X0.800000X-0.320000X0.320000X-0.800000X-0.320000X-0.800000X-0.800000X-0.320000X0.000000*%
%ADD14R,1.600000X1.600000*%
%ADD15R,1.700000X1.700000*%
%ADD16C,1.700000*%
G04 APERTURE END LIST*
D10*
X32723333Y-21184819D02*
X32723333Y-21899104D01*
X32723333Y-21899104D02*
X32770952Y-22041961D01*
X32770952Y-22041961D02*
X32866190Y-22137200D01*
X32866190Y-22137200D02*
X33009047Y-22184819D01*
X33009047Y-22184819D02*
X33104285Y-22184819D01*
X32342380Y-21184819D02*
X31723333Y-21184819D01*
X31723333Y-21184819D02*
X32056666Y-21565771D01*
X32056666Y-21565771D02*
X31913809Y-21565771D01*
X31913809Y-21565771D02*
X31818571Y-21613390D01*
X31818571Y-21613390D02*
X31770952Y-21661009D01*
X31770952Y-21661009D02*
X31723333Y-21756247D01*
X31723333Y-21756247D02*
X31723333Y-21994342D01*
X31723333Y-21994342D02*
X31770952Y-22089580D01*
X31770952Y-22089580D02*
X31818571Y-22137200D01*
X31818571Y-22137200D02*
X31913809Y-22184819D01*
X31913809Y-22184819D02*
X32199523Y-22184819D01*
X32199523Y-22184819D02*
X32294761Y-22137200D01*
X32294761Y-22137200D02*
X32342380Y-22089580D01*
X22593333Y-22454819D02*
X22593333Y-23169104D01*
X22593333Y-23169104D02*
X22640952Y-23311961D01*
X22640952Y-23311961D02*
X22736190Y-23407200D01*
X22736190Y-23407200D02*
X22879047Y-23454819D01*
X22879047Y-23454819D02*
X22974285Y-23454819D01*
X21688571Y-22788152D02*
X21688571Y-23454819D01*
X21926666Y-22407200D02*
X22164761Y-23121485D01*
X22164761Y-23121485D02*
X21545714Y-23121485D01*
%TO.C,J3*%
D11*
X36340000Y-23220000D02*
X36340000Y-71540000D01*
X36340000Y-23220000D02*
X33680000Y-23220000D01*
X36340000Y-71540000D02*
X33680000Y-71540000D01*
X35010000Y-20620000D02*
X33680000Y-20620000D01*
X33680000Y-20620000D02*
X33680000Y-21950000D01*
X33680000Y-23220000D02*
X33680000Y-71540000D01*
%TO.C,J4*%
X18440000Y-23220000D02*
X18440000Y-71540000D01*
X18440000Y-20620000D02*
X18440000Y-21950000D01*
X19770000Y-20620000D02*
X18440000Y-20620000D01*
X21100000Y-71540000D02*
X18440000Y-71540000D01*
X21100000Y-23220000D02*
X18440000Y-23220000D01*
X21100000Y-23220000D02*
X21100000Y-71540000D01*
%TD*%
%LPC*%
D12*
%TO.C,J3*%
X35010000Y-21950000D03*
X35010000Y-24490000D03*
X35010000Y-27030000D03*
X35010000Y-29570000D03*
X35010000Y-32110000D03*
X35010000Y-34650000D03*
X35010000Y-37190000D03*
X35010000Y-39730000D03*
X35010000Y-42270000D03*
X35010000Y-44810000D03*
X35010000Y-47350000D03*
X35010000Y-49890000D03*
X35010000Y-52430000D03*
X35010000Y-54970000D03*
X35010000Y-57510000D03*
X35010000Y-60050000D03*
X35010000Y-62590000D03*
X35010000Y-65130000D03*
X35010000Y-67670000D03*
X35010000Y-70210000D03*
%TD*%
D13*
%TO.C,J2*%
X37140000Y-63890000D03*
X37140000Y-61350000D03*
X37140000Y-58810000D03*
X37140000Y-56270000D03*
X37140000Y-53730000D03*
X37140000Y-51190000D03*
X37140000Y-48650000D03*
X37140000Y-46110000D03*
X37140000Y-43570000D03*
X37140000Y-41030000D03*
X37140000Y-38490000D03*
X37140000Y-35950000D03*
X37140000Y-33410000D03*
D14*
X37140000Y-30870000D03*
%TD*%
D12*
%TO.C,J4*%
X19770000Y-70210000D03*
X19770000Y-67670000D03*
X19770000Y-65130000D03*
X19770000Y-62590000D03*
X19770000Y-60050000D03*
X19770000Y-57510000D03*
X19770000Y-54970000D03*
X19770000Y-52430000D03*
X19770000Y-49890000D03*
X19770000Y-47350000D03*
X19770000Y-44810000D03*
X19770000Y-42270000D03*
X19770000Y-39730000D03*
X19770000Y-37190000D03*
X19770000Y-34650000D03*
X19770000Y-32110000D03*
X19770000Y-29570000D03*
X19770000Y-27030000D03*
X19770000Y-24490000D03*
X19770000Y-21950000D03*
%TD*%
D15*
%TO.C,J1*%
X21995000Y-24200000D03*
D16*
X21995000Y-21660000D03*
X24535000Y-24200000D03*
X24535000Y-21660000D03*
X27075000Y-24200000D03*
X27075000Y-21660000D03*
%TD*%
%LPD*%
M02*
