%TF.GenerationSoftware,KiCad,Pcbnew,10.0.6*%
%TF.CreationDate,2026-10-03T12:52:46+02:00*%
%TF.ProjectId,pokeymax4_5,706f6b65-796d-4617-9834-5f352e6b6963,rev?*%
%TF.SameCoordinates,Original*%
%TF.FileFunction,Copper,L4,Bot*%
%TF.FilePolarity,Positive*%
%FSLAX46Y46*%
G04 Gerber Fmt 4.6, Leading zero omitted, Abs format (unit mm)*
G04 Created by KiCad (PCBNEW 10.0.6) date 2026-10-03 12:52:46*
%MOMM*%
%LPD*%
G01*
G04 APERTURE LIST*
G04 Aperture macros list*
%AMOutline5P*
0 Free polygon, 5 corners , with rotation*
0 The origin of the aperture is its center*
0 number of corners: always 5*
0 $1 to $10 corner X, Y*
0 $11 Rotation angle, in degrees counterclockwise*
0 create outline with 5 corners*
4,1,5,$1,$2,$3,$4,$5,$6,$7,$8,$9,$10,$1,$2,$11*%
%AMOutline6P*
0 Free polygon, 6 corners , with rotation*
0 The origin of the aperture is its center*
0 number of corners: always 6*
0 $1 to $12 corner X, Y*
0 $13 Rotation angle, in degrees counterclockwise*
0 create outline with 6 corners*
4,1,6,$1,$2,$3,$4,$5,$6,$7,$8,$9,$10,$11,$12,$1,$2,$13*%
%AMOutline7P*
0 Free polygon, 7 corners , with rotation*
0 The origin of the aperture is its center*
0 number of corners: always 7*
0 $1 to $14 corner X, Y*
0 $15 Rotation angle, in degrees counterclockwise*
0 create outline with 7 corners*
4,1,7,$1,$2,$3,$4,$5,$6,$7,$8,$9,$10,$11,$12,$13,$14,$1,$2,$15*%
%AMOutline8P*
0 Free polygon, 8 corners , with rotation*
0 The origin of the aperture is its center*
0 number of corners: always 8*
0 $1 to $16 corner X, Y*
0 $17 Rotation angle, in degrees counterclockwise*
0 create outline with 8 corners*
4,1,8,$1,$2,$3,$4,$5,$6,$7,$8,$9,$10,$11,$12,$13,$14,$15,$16,$1,$2,$17*%
G04 Aperture macros list end*
%TA.AperFunction,ComponentPad*%
%ADD10Outline8P,-0.670000X0.281400X-0.281400X0.670000X0.281400X0.670000X0.670000X0.281400X0.670000X-0.281400X0.281400X-0.670000X-0.281400X-0.670000X-0.670000X-0.281400X180.000000*%
%TD*%
%TA.AperFunction,ComponentPad*%
%ADD11Outline8P,-0.800000X0.320000X-0.320000X0.800000X0.320000X0.800000X0.800000X0.320000X0.800000X-0.320000X0.320000X-0.800000X-0.320000X-0.800000X-0.800000X-0.320000X0.000000*%
%TD*%
%TA.AperFunction,ComponentPad*%
%ADD12R,1.600000X1.600000*%
%TD*%
%TA.AperFunction,ComponentPad*%
%ADD13R,1.700000X1.700000*%
%TD*%
%TA.AperFunction,ComponentPad*%
%ADD14C,1.700000*%
%TD*%
%TA.AperFunction,ViaPad*%
%ADD15C,0.500000*%
%TD*%
%TA.AperFunction,ViaPad*%
%ADD16C,0.450000*%
%TD*%
%TA.AperFunction,Conductor*%
%ADD17C,0.152400*%
%TD*%
%TA.AperFunction,Conductor*%
%ADD18C,0.304800*%
%TD*%
%TA.AperFunction,Conductor*%
%ADD19C,0.127000*%
%TD*%
G04 APERTURE END LIST*
D10*
%TO.P,J3,1,Pin_1_1*%
%TO.N,/Level shifter/LOUT1.B15*%
X35010000Y-21950000D03*
%TO.P,J3,2,Pin_2_2*%
%TO.N,/Level shifter/LOUT1.B13*%
X35010000Y-24490000D03*
%TO.P,J3,3,Pin_3_3*%
%TO.N,/Level shifter/LOUT1.B10*%
X35010000Y-27030000D03*
%TO.P,J3,4,Pin_4_4*%
%TO.N,/Audio output/AUD_INT_OUT*%
X35010000Y-29570000D03*
%TO.P,J3,5,Pin_5_5*%
%TO.N,/Level shifter/LOUT1.B24*%
X35010000Y-32110000D03*
%TO.P,J3,6,Pin_6_6*%
%TO.N,/Level shifter/LOUT1.B23*%
X35010000Y-34650000D03*
%TO.P,J3,7,Pin_7_7*%
%TO.N,/Level shifter/LOUT1.B19*%
X35010000Y-37190000D03*
%TO.P,J3,8,Pin_8_8*%
%TO.N,/Level shifter/LOUT1.B18*%
X35010000Y-39730000D03*
%TO.P,J3,9,Pin_9_9*%
%TO.N,/Level shifter/LOUT1.B17*%
X35010000Y-42270000D03*
%TO.P,J3,10,Pin_10_10*%
%TO.N,/Level shifter/LOUT1.B9*%
X35010000Y-44810000D03*
%TO.P,J3,11,Pin_11_11*%
%TO.N,/Level shifter/LOUT1.B8*%
X35010000Y-47350000D03*
%TO.P,J3,12,Pin_12_12*%
%TO.N,/Level shifter/LOUT1.B7*%
X35010000Y-49890000D03*
%TO.P,J3,13,Pin_13_13*%
%TO.N,/Level shifter/LOUT1.B11*%
X35010000Y-52430000D03*
%TO.P,J3,14,Pin_14_14*%
%TO.N,/Level shifter/LOUT2.B6*%
X35010000Y-54970000D03*
%TO.P,J3,15,Pin_15_15*%
%TO.N,/Level shifter/LOUT2.B5*%
X35010000Y-57510000D03*
%TO.P,J3,16,Pin_16_16*%
%TO.N,/Level shifter/LOUT2.B3*%
X35010000Y-60050000D03*
%TO.P,J3,17,Pin_17_17*%
%TO.N,/Level shifter/LOUT2.B7*%
X35010000Y-62590000D03*
%TO.P,J3,18,Pin_18_18*%
%TO.N,/Level shifter/LOUT2.B9*%
X35010000Y-65130000D03*
%TO.P,J3,19,Pin_19_19*%
%TO.N,/Level shifter/LOUT2.B19*%
X35010000Y-67670000D03*
%TO.P,J3,20,Pin_20_20*%
%TO.N,/Level shifter/LOUT2.B20*%
X35010000Y-70210000D03*
%TD*%
D11*
%TO.P,J2,14,Pin_14_14*%
%TO.N,/Level shifter/LOUT2.B8*%
X37140000Y-63890000D03*
%TO.P,J2,13,Pin_13_13*%
%TO.N,/Level shifter/LOUT2.B1*%
X37140000Y-61350000D03*
%TO.P,J2,12,Pin_12_12*%
%TO.N,/Level shifter/LOUT2.B2*%
X37140000Y-58810000D03*
%TO.P,J2,11,Pin_11_11*%
%TO.N,/Level shifter/LOUT2.B4*%
X37140000Y-56270000D03*
%TO.P,J2,10,Pin_10_10*%
%TO.N,/Level shifter/LOUT1.B12*%
X37140000Y-53730000D03*
%TO.P,J2,9,Pin_9_9*%
%TO.N,/Level shifter/LOUT1.B14*%
X37140000Y-51190000D03*
%TO.P,J2,8,Pin_8_8*%
%TO.N,/Level shifter/LOUT1.B16*%
X37140000Y-48650000D03*
%TO.P,J2,7,Pin_7_7*%
%TO.N,/Level shifter/LOUT1.B20*%
X37140000Y-46110000D03*
%TO.P,J2,6,Pin_6_6*%
%TO.N,/Level shifter/LOUT1.B21*%
X37140000Y-43570000D03*
%TO.P,J2,5,Pin_5_5*%
%TO.N,/Level shifter/LOUT1.B22*%
X37140000Y-41030000D03*
%TO.P,J2,4,Pin_4_4*%
%TO.N,/ADC/AUD_IN*%
X37140000Y-38490000D03*
%TO.P,J2,3,Pin_3_3*%
%TO.N,/Audio output/AUDROUT*%
X37140000Y-35950000D03*
%TO.P,J2,2,Pin_2_2*%
%TO.N,/Audio output/AUDLOUT*%
X37140000Y-33410000D03*
D12*
%TO.P,J2,1,Pin_1_1*%
%TO.N,GND*%
X37140000Y-30870000D03*
%TD*%
D10*
%TO.P,J4,20,Pin_20_20*%
%TO.N,/Level shifter/LOUT2.B21*%
X19770000Y-70210000D03*
%TO.P,J4,19,Pin_19_19*%
%TO.N,/Level shifter/LOUT2.B22*%
X19770000Y-67670000D03*
%TO.P,J4,18,Pin_18_18*%
%TO.N,/Level shifter/LOUT2.B23*%
X19770000Y-65130000D03*
%TO.P,J4,17,Pin_17_17*%
%TO.N,+5V*%
X19770000Y-62590000D03*
%TO.P,J4,16,Pin_16_16*%
%TO.N,/Level shifter/LOUT2.B24*%
X19770000Y-60050000D03*
%TO.P,J4,15,Pin_15_15*%
%TO.N,/Level shifter/LOUT2.B17*%
X19770000Y-57510000D03*
%TO.P,J4,14,Pin_14_14*%
%TO.N,/Level shifter/LOUT2.B16*%
X19770000Y-54970000D03*
%TO.P,J4,13,Pin_13_13*%
%TO.N,/Level shifter/LOUT2.B15*%
X19770000Y-52430000D03*
%TO.P,J4,12,Pin_12_12*%
%TO.N,/Level shifter/LOUT2.B18*%
X19770000Y-49890000D03*
%TO.P,J4,11,Pin_11_11*%
%TO.N,/Level shifter/LOUT2.B14*%
X19770000Y-47350000D03*
%TO.P,J4,10,Pin_10_10*%
%TO.N,/Level shifter/LOUT2.B13*%
X19770000Y-44810000D03*
%TO.P,J4,9,Pin_9_9*%
%TO.N,/Level shifter/LOUT2.B12*%
X19770000Y-42270000D03*
%TO.P,J4,8,Pin_8_8*%
%TO.N,/Level shifter/LOUT2.B11*%
X19770000Y-39730000D03*
%TO.P,J4,7,Pin_7_7*%
%TO.N,/Level shifter/LOUT1.B6*%
X19770000Y-37190000D03*
%TO.P,J4,6,Pin_6_6*%
%TO.N,/Level shifter/LOUT1.B5*%
X19770000Y-34650000D03*
%TO.P,J4,5,Pin_5_5*%
%TO.N,/Level shifter/LOUT1.B4*%
X19770000Y-32110000D03*
%TO.P,J4,4,Pin_4_4*%
%TO.N,/Level shifter/LOUT1.B3*%
X19770000Y-29570000D03*
%TO.P,J4,3,Pin_3_3*%
%TO.N,/Level shifter/LOUT1.B2*%
X19770000Y-27030000D03*
%TO.P,J4,2,Pin_2_2*%
%TO.N,/Level shifter/LOUT1.B1*%
X19770000Y-24490000D03*
%TO.P,J4,1,Pin_1_1*%
%TO.N,GND*%
X19770000Y-21950000D03*
%TD*%
D13*
%TO.P,J1,1,Pin_1_1*%
%TO.N,/FPGA/TMS*%
X21995000Y-24200000D03*
D14*
%TO.P,J1,2,Pin_2_2*%
%TO.N,+3.3V*%
X21995000Y-21660000D03*
%TO.P,J1,3,Pin_3_3*%
%TO.N,/FPGA/TDI*%
X24535000Y-24200000D03*
%TO.P,J1,4,Pin_4_4*%
%TO.N,/FPGA/TCK*%
X24535000Y-21660000D03*
%TO.P,J1,5,Pin_5_5*%
%TO.N,GND*%
X27075000Y-24200000D03*
%TO.P,J1,6,Pin_6_6*%
%TO.N,/FPGA/TDO*%
X27075000Y-21660000D03*
%TD*%
D15*
%TO.N,GND*%
X21740000Y-69970000D03*
X23200000Y-69920000D03*
D16*
%TO.N,/FPGA/LIN1.A10*%
X25260000Y-37310000D03*
X26474600Y-41497166D03*
%TO.N,/FPGA/LIN1.A11*%
X25310000Y-36690000D03*
%TO.N,GND*%
X26050000Y-40790000D03*
%TO.N,+3.3V*%
X27025056Y-39455056D03*
%TO.N,/FPGA/LIN1.A13*%
X27674600Y-40347166D03*
%TO.N,/FPGA/ADC_IN*%
X29750000Y-54075000D03*
X31274600Y-50297166D03*
D15*
%TO.N,+5VA*%
X23732279Y-28008340D03*
X19300000Y-28160000D03*
D16*
%TO.N,Net-(U2-IN4-)*%
X31580000Y-26270000D03*
X30128131Y-27280188D03*
%TO.N,/Level shifter/LOUT2.B11*%
X21924600Y-45097166D03*
%TO.N,/Level shifter/LOUT2.B3*%
X18150000Y-67300000D03*
X29750000Y-65350000D03*
%TO.N,/Level shifter/LOUT2.B18*%
X25150000Y-65150000D03*
X20238001Y-51482986D03*
%TO.N,/Level shifter/LOUT2.B12*%
X21184015Y-44886366D03*
%TO.N,/Level shifter/LOUT1.B16*%
X29375000Y-34050000D03*
%TO.N,/Level shifter/LOUT1.B15*%
X35705567Y-28730568D03*
%TO.N,/Level shifter/LOUT1.B1*%
X22150000Y-33900000D03*
%TO.N,/Level shifter/LOUT1.B10*%
X28110000Y-31180000D03*
X33640000Y-28600000D03*
%TO.N,/Level shifter/LOUT1.B11*%
X27668268Y-34931514D03*
%TO.N,/Level shifter/LOUT1.B14*%
X28880808Y-34406916D03*
%TO.N,/Level shifter/LOUT1.B12*%
X28265418Y-34808931D03*
%TO.N,/Level shifter/LOUT1.B13*%
X35100000Y-28150000D03*
%TO.N,/FPGA/LIN1.A17*%
X29286400Y-40670000D03*
X29674600Y-42297166D03*
%TO.N,/FPGA/LIN1.A3*%
X23274600Y-42297166D03*
X22736890Y-40234880D03*
%TO.N,/FPGA/LIN1.A11*%
X26474600Y-42297166D03*
%TO.N,/FPGA/LIN2.A4*%
X31800000Y-59175000D03*
X31274600Y-47897166D03*
%TO.N,/FPGA/LIN2.A19*%
X24099600Y-52447166D03*
X24074600Y-49497166D03*
%TO.N,/FPGA/LIN2.A7*%
X31274600Y-49497166D03*
X30575000Y-57150000D03*
%TO.N,/FPGA/LIN2.A21*%
X23274600Y-50297166D03*
X22798630Y-52267568D03*
%TO.N,/FPGA/LIN2.A16*%
X25674600Y-51097166D03*
X25825000Y-59550000D03*
%TO.N,/FPGA/LIN2.A13*%
X28874600Y-50297166D03*
X27303200Y-56500000D03*
%TO.N,/FPGA/LIN2.A15*%
X26875000Y-59200000D03*
X27274600Y-50297166D03*
%TO.N,/FPGA/LIN2.A20*%
X24074600Y-50297166D03*
X23574600Y-52097166D03*
%TO.N,/FPGA/LIN2.A1*%
X31274600Y-46297166D03*
X33025000Y-57125000D03*
%TO.N,/FPGA/LIN1.A21*%
X31244428Y-40507258D03*
X31274600Y-42297166D03*
%TO.N,/FPGA/LIN1.A24*%
X32760000Y-39120000D03*
X32080000Y-43910000D03*
%TO.N,/FPGA/LIN1.A14*%
X26630000Y-37320000D03*
X28060000Y-41490000D03*
%TO.N,/FPGA/LIN1.A23*%
X31340000Y-36630000D03*
X31274600Y-43097166D03*
%TO.N,/FPGA/LIN1.A7*%
X24874600Y-42297166D03*
X24590000Y-37030000D03*
%TO.N,/FPGA/LIN2.A18*%
X25025001Y-57200000D03*
X24874600Y-49497166D03*
%TO.N,/FPGA/LIN1.A19*%
X29897143Y-37371690D03*
X30436400Y-42297166D03*
%TO.N,/FPGA/LIN1.A9*%
X25674600Y-42297166D03*
X25470000Y-40310000D03*
%TO.N,/FPGA/LIN2.A22*%
X22474600Y-50297166D03*
X23475000Y-59175000D03*
%TO.N,/FPGA/LIN1.A5*%
X23278600Y-37351836D03*
X24074600Y-42297166D03*
%TO.N,/FPGA/LIN1.A20*%
X31800000Y-40830000D03*
X30290000Y-36930000D03*
%TO.N,/FPGA/LIN1.A22*%
X32470000Y-39820000D03*
X31580000Y-37330000D03*
%TO.N,/FPGA/LIN1.A16*%
X29310000Y-37290000D03*
X29690000Y-41490000D03*
%TO.N,/FPGA/LIN2.A9*%
X29400000Y-59175000D03*
X31274600Y-48697166D03*
%TO.N,/FPGA/LIN2.A17*%
X25050000Y-59475000D03*
X25674602Y-50297166D03*
%TO.N,/FPGA/LIN2.A11*%
X28150000Y-56175000D03*
X29674600Y-49497166D03*
%TO.N,/FPGA/LIN1.A13*%
X27274600Y-42297166D03*
%TO.N,/ADC/ADC_TX*%
X30174600Y-51972166D03*
X30474600Y-49497166D03*
%TO.N,/FPGA/PTHRES*%
X27700000Y-52440000D03*
X27274600Y-51097166D03*
X25674600Y-49497166D03*
%TO.N,/Audio output/AUDR*%
X28874600Y-43097166D03*
X30490000Y-39460000D03*
%TO.N,/Audio output/AUDL*%
X28874600Y-43897166D03*
X29070000Y-39430000D03*
%TO.N,/Audio output/AUDINT*%
X29677861Y-43036034D03*
X24850000Y-27300000D03*
%TO.N,/ADC/AUD_IN_BIAS*%
X27775000Y-25950000D03*
X28175000Y-27350000D03*
%TO.N,+3.3VA*%
X24874600Y-48697166D03*
X24874600Y-43897166D03*
X28874600Y-48697166D03*
D15*
X19500000Y-51250000D03*
X29655000Y-43917434D03*
D16*
%TO.N,+2V5*%
X28074600Y-49497164D03*
D15*
X28075000Y-52925000D03*
X32325002Y-24050000D03*
%TO.N,+5V*%
X18420000Y-31950000D03*
X18425000Y-60475000D03*
X23875000Y-69975000D03*
X22777760Y-68298704D03*
D16*
%TO.N,/FPGA/OSC_CLOCK*%
X32080000Y-45500000D03*
X28850000Y-67800000D03*
%TO.N,/Audio output/AUD_IN_AMP*%
X31270000Y-27960000D03*
X31425000Y-59850000D03*
X33621734Y-43997166D03*
%TO.N,Net-(U2-IN2-)*%
X23625109Y-31620000D03*
X24860000Y-30040000D03*
%TO.N,Net-(U4-NSTATUS)*%
X24874600Y-43097166D03*
X21810000Y-42740000D03*
%TO.N,Net-(U4-CONF_DONE)*%
X21104699Y-38500000D03*
X25674600Y-43097166D03*
%TO.N,/Audio output/AUD_INT_OUT*%
X31655135Y-24724567D03*
%TO.N,Net-(U2-IN3-)*%
X29500002Y-30650000D03*
X32700000Y-29679998D03*
%TO.N,/ADC/AUD_VBIAS*%
X30867612Y-55659269D03*
X35051363Y-33348637D03*
X33850000Y-30650000D03*
X33010000Y-25150000D03*
X37900000Y-57210000D03*
%TO.N,Net-(U2-IN1-)*%
X25600000Y-26850000D03*
X23500000Y-25975000D03*
%TO.N,Net-(C9-Pad1)*%
X28600000Y-29775000D03*
X31490000Y-39460000D03*
%TO.N,/FPGA/TMS*%
X19225000Y-23525000D03*
X22474600Y-46297166D03*
%TO.N,/FPGA/TCK*%
X18210000Y-45500000D03*
X19350000Y-45800000D03*
X23274600Y-46297166D03*
D15*
%TO.N,+3.3V*%
X19450000Y-40950000D03*
X27875000Y-36975000D03*
X18100000Y-50200000D03*
X19350000Y-36000000D03*
X33739528Y-70960472D03*
X18650000Y-26100000D03*
D16*
X24074600Y-46297166D03*
X30474600Y-45497166D03*
D15*
X37075000Y-67200000D03*
D16*
X27274600Y-43097166D03*
X24074600Y-47897166D03*
D15*
X25350000Y-69875000D03*
X25550000Y-55790000D03*
X23920000Y-54150000D03*
D16*
X27274600Y-44697166D03*
%TO.N,/FPGA/TDI*%
X25674600Y-45497166D03*
%TO.N,/Level shifter/LOUT1.B22*%
X35685995Y-35482386D03*
D15*
%TO.N,GND*%
X33950000Y-69275000D03*
X31620000Y-54800000D03*
X24400000Y-33950000D03*
X21650000Y-25800000D03*
%TO.N,+5V*%
X25300000Y-68725000D03*
%TO.N,GND*%
X28500000Y-33700000D03*
X21600000Y-33700000D03*
X29100000Y-56125000D03*
X27280000Y-46300000D03*
D16*
X32074600Y-41497166D03*
D15*
X30674999Y-64915315D03*
X18100000Y-56600000D03*
X33082185Y-26184534D03*
D16*
X22474600Y-51097166D03*
D15*
X33250000Y-62775000D03*
X31327237Y-53830712D03*
X19335000Y-33450000D03*
X26250000Y-65100000D03*
X23920000Y-37150000D03*
X27025000Y-60050000D03*
X25490000Y-54140000D03*
X18500000Y-26910000D03*
X20750000Y-30800000D03*
X23930000Y-55780000D03*
X30460000Y-44700000D03*
X28791200Y-37000000D03*
X19325000Y-43750000D03*
D16*
X26474600Y-50297166D03*
X31440000Y-52052566D03*
D15*
X28450000Y-20800000D03*
D16*
X22474600Y-41497166D03*
D15*
X30625000Y-59350000D03*
X19350000Y-48675000D03*
D16*
X25674600Y-43897166D03*
X24874600Y-47897166D03*
D15*
X37050000Y-70950000D03*
X24440000Y-29100000D03*
D16*
X28874600Y-49497166D03*
X28074600Y-42297166D03*
X31274600Y-47097166D03*
X24070000Y-43100000D03*
X24074600Y-45497166D03*
D15*
X26725000Y-28552200D03*
X18800000Y-61950000D03*
D16*
%TO.N,Net-(U2-IN+)*%
X23500715Y-27012334D03*
X26100000Y-27950000D03*
%TO.N,Net-(U2-OUT2)*%
X26690000Y-30820000D03*
X35370000Y-23210000D03*
%TO.N,/Audio output/AUDLOUT*%
X37559606Y-26129057D03*
%TO.N,Net-(C12-Pad1)*%
X23720000Y-30810000D03*
X28110002Y-39440000D03*
%TO.N,Net-(C28-Pad1)*%
X31390000Y-30599998D03*
X31050000Y-29140000D03*
%TO.N,/FPGA/TDO*%
X26474600Y-45497166D03*
%TD*%
%TO.N,/FPGA/TCK*%
D17*
X18000000Y-45290000D02*
X18210000Y-45500000D01*
X17980000Y-32350000D02*
X18000000Y-32370000D01*
X17980000Y-31530000D02*
X17980000Y-32350000D01*
X18000000Y-32370000D02*
X18000000Y-45290000D01*
X18000000Y-31510000D02*
X17980000Y-31530000D01*
X18000000Y-23690000D02*
X18000000Y-31510000D01*
X18813400Y-22876600D02*
X18000000Y-23690000D01*
X24540000Y-21510000D02*
X23173400Y-22876600D01*
X23173400Y-22876600D02*
X18813400Y-22876600D01*
%TO.N,/FPGA/TMS*%
X22167166Y-46297166D02*
X22474600Y-46297166D01*
X21260000Y-45390000D02*
X22167166Y-46297166D01*
X20730000Y-45170000D02*
X20930000Y-45370000D01*
X20730000Y-44405000D02*
X20730000Y-45170000D01*
X21260000Y-45370000D02*
X21260000Y-45390000D01*
X19521600Y-43196600D02*
X20730000Y-44405000D01*
X18860000Y-42760000D02*
X19296600Y-43196600D01*
X18860000Y-29135446D02*
X18860000Y-42760000D01*
X19300046Y-28695400D02*
X18860000Y-29135446D01*
X20930000Y-45370000D02*
X21260000Y-45370000D01*
X21201179Y-28695400D02*
X19300046Y-28695400D01*
X19296600Y-43196600D02*
X19521600Y-43196600D01*
X21650000Y-27585446D02*
X21650000Y-28246579D01*
X20147954Y-26083400D02*
X21650000Y-27585446D01*
X18823400Y-24867954D02*
X20038846Y-26083400D01*
X20038846Y-26083400D02*
X20147954Y-26083400D01*
X21650000Y-28246579D02*
X21201179Y-28695400D01*
X18823400Y-23926600D02*
X18823400Y-24867954D01*
X19225000Y-23525000D02*
X18823400Y-23926600D01*
%TO.N,/Level shifter/LOUT1.B16*%
X35725400Y-33775400D02*
X29649600Y-33775400D01*
X37610000Y-34700000D02*
X36650000Y-34700000D01*
X36650000Y-34700000D02*
X35725400Y-33775400D01*
X38135200Y-35225200D02*
X37610000Y-34700000D01*
X38135200Y-47644800D02*
X38135200Y-35225200D01*
X37150000Y-48630000D02*
X38135200Y-47644800D01*
X29649600Y-33775400D02*
X29375000Y-34050000D01*
%TO.N,/ADC/AUD_VBIAS*%
X37640000Y-57470000D02*
X37900000Y-57210000D01*
X35420000Y-58800000D02*
X36750000Y-57470000D01*
X34680000Y-58800000D02*
X35420000Y-58800000D01*
X36750000Y-57470000D02*
X37640000Y-57470000D01*
X29550000Y-60625000D02*
X32855000Y-60625000D01*
X29706266Y-56736266D02*
X29706266Y-57283734D01*
X28650000Y-59725000D02*
X29550000Y-60625000D01*
X30783263Y-55659269D02*
X29706266Y-56736266D01*
X32855000Y-60625000D02*
X34680000Y-58800000D01*
X30867612Y-55659269D02*
X30783263Y-55659269D01*
X28650000Y-58340000D02*
X28650000Y-59725000D01*
X29706266Y-57283734D02*
X28650000Y-58340000D01*
%TO.N,/FPGA/OSC_CLOCK*%
X30175000Y-66475000D02*
X28850000Y-67800000D01*
X30175000Y-63991800D02*
X30175000Y-66475000D01*
X28904100Y-62704100D02*
X28904100Y-62720900D01*
X27810000Y-61610000D02*
X28904100Y-62704100D01*
X28633200Y-54391800D02*
X28633200Y-57150000D01*
X27810000Y-57973200D02*
X27810000Y-61610000D01*
X28633200Y-57150000D02*
X27810000Y-57973200D01*
X29737034Y-53287966D02*
X28633200Y-54391800D01*
X29737034Y-51670000D02*
X29737034Y-53287966D01*
X28904100Y-62720900D02*
X30175000Y-63991800D01*
%TO.N,/Audio output/AUDLOUT*%
X37490000Y-26198663D02*
X37559606Y-26129057D01*
X37490000Y-28235000D02*
X37490000Y-26198663D01*
X36095800Y-32335800D02*
X36095800Y-29629200D01*
X36095800Y-29629200D02*
X37490000Y-28235000D01*
X37150000Y-33390000D02*
X36095800Y-32335800D01*
%TO.N,Net-(C9-Pad1)*%
X31490000Y-38510000D02*
X31490000Y-39460000D01*
X30770000Y-36690000D02*
X30770000Y-37790000D01*
X30770000Y-37790000D02*
X31490000Y-38510000D01*
X26525000Y-35645000D02*
X26525000Y-35650000D01*
X26340000Y-31850000D02*
X26340000Y-35460000D01*
X26525000Y-35650000D02*
X27150000Y-36275000D01*
X26970000Y-31220000D02*
X26340000Y-31850000D01*
X26970000Y-31140000D02*
X26970000Y-31220000D01*
X26340000Y-35460000D02*
X26525000Y-35645000D01*
X27150000Y-36275000D02*
X30355000Y-36275000D01*
X27180000Y-30930000D02*
X26970000Y-31140000D01*
X30355000Y-36275000D02*
X30770000Y-36690000D01*
X27180000Y-30660000D02*
X27180000Y-30930000D01*
X28065000Y-29775000D02*
X27180000Y-30660000D01*
X28600000Y-29775000D02*
X28065000Y-29775000D01*
%TO.N,/Audio output/AUDINT*%
X26850000Y-27300000D02*
X24850000Y-27300000D01*
X27650000Y-28770000D02*
X27650000Y-28100000D01*
X25790000Y-30630000D02*
X27650000Y-28770000D01*
X25790000Y-35890000D02*
X25790000Y-30630000D01*
X27650000Y-28100000D02*
X26850000Y-27300000D01*
X27590000Y-37690000D02*
X25790000Y-35890000D01*
X28310000Y-37690000D02*
X27590000Y-37690000D01*
X29480000Y-38860000D02*
X28310000Y-37690000D01*
X28850000Y-40440000D02*
X29480000Y-39810000D01*
X28850000Y-42272566D02*
X28850000Y-40440000D01*
X29613468Y-43036034D02*
X28850000Y-42272566D01*
X29677861Y-43036034D02*
X29613468Y-43036034D01*
X29480000Y-39810000D02*
X29480000Y-38860000D01*
%TO.N,+2V5*%
D18*
X28064600Y-47135653D02*
X28074600Y-47145653D01*
X29761284Y-45438969D02*
X28064600Y-47135653D01*
X28074600Y-47145653D02*
X28074600Y-49497164D01*
X29761284Y-44668716D02*
X29761284Y-45438969D01*
X30259400Y-44170600D02*
X29761284Y-44668716D01*
X30679285Y-44170600D02*
X30259400Y-44170600D01*
X32415570Y-44490000D02*
X30998685Y-44490000D01*
X33375000Y-43530570D02*
X32415570Y-44490000D01*
X30998685Y-44490000D02*
X30679285Y-44170600D01*
X33375000Y-38573026D02*
X33375000Y-43530570D01*
X32911600Y-38109626D02*
X33375000Y-38573026D01*
X32911600Y-37355844D02*
X32911600Y-38109626D01*
X31236356Y-35680600D02*
X32911600Y-37355844D01*
X27929332Y-35623732D02*
X27986200Y-35680600D01*
X27604730Y-35623732D02*
X27929332Y-35623732D01*
X27986200Y-35680600D02*
X31236356Y-35680600D01*
X26975000Y-34994002D02*
X27604730Y-35623732D01*
X27380000Y-31600000D02*
X27380000Y-33510000D01*
X27550000Y-31430000D02*
X27380000Y-31600000D01*
X27550000Y-31020000D02*
X27550000Y-31430000D01*
X27950000Y-30620000D02*
X27550000Y-31020000D01*
X30643330Y-24536670D02*
X29605000Y-25575000D01*
X30925000Y-24536670D02*
X30643330Y-24536670D01*
X29605000Y-29545000D02*
X28530000Y-30620000D01*
X28530000Y-30620000D02*
X27950000Y-30620000D01*
X26975000Y-33915000D02*
X26975000Y-34994002D01*
X31411670Y-24050000D02*
X30925000Y-24536670D01*
X29605000Y-25575000D02*
X29605000Y-29545000D01*
X27380000Y-33510000D02*
X26975000Y-33915000D01*
X32325002Y-24050000D02*
X31411670Y-24050000D01*
%TO.N,Net-(C12-Pad1)*%
D17*
X23120000Y-31410000D02*
X23720000Y-30810000D01*
X23120000Y-31880000D02*
X23120000Y-31410000D01*
X25010000Y-33770000D02*
X23120000Y-31880000D01*
X25010000Y-35760000D02*
X25010000Y-33770000D01*
X26148202Y-36898202D02*
X25010000Y-35760000D01*
X28110002Y-39440000D02*
X26148202Y-37478200D01*
X26148202Y-37478200D02*
X26148202Y-36898202D01*
%TO.N,/FPGA/LIN1.A20*%
X30325343Y-38125343D02*
X30325343Y-36965343D01*
X31000000Y-38800000D02*
X30325343Y-38125343D01*
X31000000Y-39600000D02*
X31000000Y-38800000D01*
X31800000Y-40400000D02*
X31000000Y-39600000D01*
X30325343Y-36965343D02*
X30290000Y-36930000D01*
X31800000Y-40830000D02*
X31800000Y-40400000D01*
%TO.N,/FPGA/LIN1.A23*%
X32020000Y-40020000D02*
X32516283Y-40516283D01*
X32020000Y-38530000D02*
X32020000Y-40020000D01*
X31151800Y-37661800D02*
X32020000Y-38530000D01*
X31151800Y-36818200D02*
X31151800Y-37661800D01*
X32516283Y-40516283D02*
X32543717Y-40516283D01*
X31340000Y-36630000D02*
X31151800Y-36818200D01*
%TO.N,/FPGA/LIN1.A22*%
X32340000Y-39690000D02*
X32470000Y-39820000D01*
X32340000Y-38360000D02*
X32340000Y-39690000D01*
X31580000Y-37600000D02*
X32340000Y-38360000D01*
X31580000Y-37330000D02*
X31580000Y-37600000D01*
%TO.N,/FPGA/LIN1.A19*%
X29897143Y-37947143D02*
X29897143Y-37371690D01*
X30265000Y-39905000D02*
X30050000Y-39690000D01*
X30440000Y-41010000D02*
X30265000Y-40835000D01*
X30265000Y-40835000D02*
X30265000Y-39905000D01*
X30440000Y-41770234D02*
X30440000Y-41010000D01*
X30436400Y-41773834D02*
X30440000Y-41770234D01*
X30050000Y-38100000D02*
X29897143Y-37947143D01*
X30050000Y-39690000D02*
X30050000Y-38100000D01*
X30436400Y-42297166D02*
X30436400Y-41773834D01*
%TO.N,/Audio output/AUD_IN_AMP*%
X33560000Y-44058900D02*
X33621734Y-43997166D01*
X33724600Y-57105400D02*
X34010000Y-56820000D01*
X34010000Y-56820000D02*
X34010000Y-52700000D01*
X32290000Y-59900000D02*
X33724600Y-58465400D01*
X34010000Y-52700000D02*
X33560000Y-52250000D01*
X33560000Y-52250000D02*
X33560000Y-44058900D01*
X31475000Y-59900000D02*
X32290000Y-59900000D01*
X31425000Y-59850000D02*
X31475000Y-59900000D01*
X33724600Y-58465400D02*
X33724600Y-57105400D01*
%TO.N,/FPGA/LIN2.A1*%
X33053717Y-52518380D02*
X33455337Y-52920000D01*
X33053717Y-48076283D02*
X33053717Y-52518380D01*
%TO.N,/FPGA/LIN2.A4*%
X32653717Y-48926283D02*
X32653717Y-52701317D01*
X32653717Y-52701317D02*
X33042400Y-53090000D01*
%TO.N,/FPGA/LIN2.A9*%
X32333717Y-52964917D02*
X32708800Y-53340000D01*
X32333717Y-49756283D02*
X32333717Y-52964917D01*
%TO.N,/FPGA/LIN2.A7*%
X31868717Y-53147193D02*
X32295600Y-53574076D01*
X31868717Y-50091283D02*
X31868717Y-53147193D01*
%TO.N,+5V*%
D18*
X23875000Y-69395944D02*
X22777760Y-68298704D01*
X23875000Y-69975000D02*
X23875000Y-69395944D01*
%TO.N,/FPGA/LIN1.A10*%
D17*
X25260000Y-37730000D02*
X25260000Y-37310000D01*
X26040000Y-40030000D02*
X26040000Y-38510000D01*
X26699600Y-41272166D02*
X26699600Y-40689600D01*
X26699600Y-40689600D02*
X26040000Y-40030000D01*
X26474600Y-41497166D02*
X26699600Y-41272166D01*
X26040000Y-38510000D02*
X25260000Y-37730000D01*
%TO.N,/FPGA/LIN1.A9*%
X25470000Y-40910000D02*
X25470000Y-40310000D01*
X25674600Y-41114600D02*
X25470000Y-40910000D01*
X25674600Y-42297166D02*
X25674600Y-41114600D01*
%TO.N,/FPGA/LIN1.A11*%
X25800000Y-37650000D02*
X25800000Y-37180000D01*
X26494979Y-38344979D02*
X25800000Y-37650000D01*
X25800000Y-37180000D02*
X25310000Y-36690000D01*
X27070000Y-40345021D02*
X26494979Y-39770000D01*
X26494979Y-39770000D02*
X26494979Y-38344979D01*
X27070000Y-41701766D02*
X27070000Y-40345021D01*
X26474600Y-42297166D02*
X27070000Y-41701766D01*
%TO.N,/FPGA/LIN1.A13*%
X27674600Y-41080000D02*
X27674600Y-40347166D01*
X27530000Y-42041766D02*
X27530000Y-41224600D01*
X27530000Y-41224600D02*
X27674600Y-41080000D01*
X27274600Y-42297166D02*
X27530000Y-42041766D01*
%TO.N,/FPGA/LIN1.A7*%
X24774600Y-42197166D02*
X24590000Y-42012566D01*
X24590000Y-42012566D02*
X24590000Y-37030000D01*
%TO.N,/FPGA/LIN1.A5*%
X23696445Y-37769681D02*
X23278600Y-37351836D01*
X23696445Y-41750000D02*
X23696445Y-37769681D01*
%TO.N,/Audio output/AUDL*%
X29070000Y-39710000D02*
X29070000Y-39430000D01*
X28506133Y-40273867D02*
X29070000Y-39710000D01*
X28389600Y-42790400D02*
X28506133Y-42673867D01*
X28506133Y-42673867D02*
X28506133Y-40273867D01*
X28389600Y-43412166D02*
X28389600Y-42790400D01*
X28874600Y-43897166D02*
X28389600Y-43412166D01*
%TO.N,/FPGA/LIN1.A14*%
X26700000Y-37320000D02*
X26630000Y-37320000D01*
X28110000Y-40100000D02*
X28560000Y-39650000D01*
X28110000Y-40660000D02*
X28110000Y-40100000D01*
X28050000Y-40720000D02*
X28110000Y-40660000D01*
X28050000Y-41480000D02*
X28050000Y-40720000D01*
X28560000Y-39180000D02*
X26700000Y-37320000D01*
X28060000Y-41490000D02*
X28050000Y-41480000D01*
X28560000Y-39650000D02*
X28560000Y-39180000D01*
%TO.N,/FPGA/LIN1.A17*%
X29276400Y-41898966D02*
X29276400Y-40680000D01*
X29674600Y-42297166D02*
X29276400Y-41898966D01*
X29276400Y-40680000D02*
X29286400Y-40670000D01*
%TO.N,/FPGA/LIN1.A16*%
X29788600Y-38508600D02*
X29788600Y-39798275D01*
X29510000Y-37609157D02*
X29510000Y-38230000D01*
X29788600Y-39798275D02*
X29820000Y-39829676D01*
X29310000Y-37409157D02*
X29510000Y-37609157D01*
X29310000Y-37290000D02*
X29310000Y-37409157D01*
X29510000Y-38230000D02*
X29788600Y-38508600D01*
X29820000Y-39829676D02*
X29820000Y-41360000D01*
X29820000Y-41360000D02*
X29690000Y-41490000D01*
%TO.N,+5V*%
D18*
X23046464Y-68030000D02*
X22777760Y-68298704D01*
X24900000Y-68030000D02*
X23046464Y-68030000D01*
X25300000Y-68430000D02*
X24900000Y-68030000D01*
X25300000Y-68725000D02*
X25300000Y-68430000D01*
%TO.N,/Level shifter/LOUT1.B12*%
D17*
X28322487Y-34866000D02*
X28265418Y-34808931D01*
X32541000Y-34866000D02*
X28322487Y-34866000D01*
X34525000Y-41100000D02*
X34110000Y-40685000D01*
X34110000Y-40685000D02*
X34110000Y-38410000D01*
X35190000Y-41100000D02*
X34525000Y-41100000D01*
X35970000Y-42740000D02*
X35970000Y-41880000D01*
X35690000Y-43975995D02*
X35690000Y-43020000D01*
X35866200Y-44152195D02*
X35690000Y-43975995D01*
X33546600Y-35871600D02*
X32541000Y-34866000D01*
X35866200Y-45487804D02*
X35866200Y-44152195D01*
X33546600Y-37846600D02*
X33546600Y-35871600D01*
X35816400Y-45537605D02*
X35866200Y-45487804D01*
X35816400Y-46642396D02*
X35816400Y-45537605D01*
X35690000Y-43020000D02*
X35970000Y-42740000D01*
X35866200Y-48027804D02*
X35866200Y-46692195D01*
X35816400Y-48077605D02*
X35866200Y-48027804D01*
X35816400Y-49182396D02*
X35816400Y-48077605D01*
X34110000Y-38410000D02*
X33546600Y-37846600D01*
X35866200Y-46692195D02*
X35816400Y-46642396D01*
X35866200Y-52426200D02*
X35866200Y-49232195D01*
X35866200Y-49232195D02*
X35816400Y-49182396D01*
X35970000Y-41880000D02*
X35190000Y-41100000D01*
X37150000Y-53710000D02*
X35866200Y-52426200D01*
%TO.N,/Level shifter/LOUT1.B14*%
X37150000Y-50120864D02*
X37150000Y-51170000D01*
X36095800Y-45653336D02*
X36095800Y-46526664D01*
X35695600Y-39192870D02*
X36095800Y-39593070D01*
X35695600Y-37924400D02*
X35695600Y-39192870D01*
X36350000Y-47939136D02*
X36095800Y-48193336D01*
X35864600Y-37755400D02*
X35695600Y-37924400D01*
X36400000Y-42809136D02*
X36127600Y-43081536D01*
X35695600Y-36525600D02*
X35990000Y-36820000D01*
X35864600Y-37548712D02*
X35864600Y-37755400D01*
X35695600Y-36097558D02*
X35695600Y-36525600D01*
X36095800Y-41515800D02*
X36400000Y-41820000D01*
X33661332Y-35591200D02*
X35189242Y-35591200D01*
X36200000Y-44090864D02*
X36200000Y-45549136D01*
X32655732Y-34585600D02*
X33661332Y-35591200D01*
X29017319Y-34585600D02*
X32655732Y-34585600D01*
X28880808Y-34449089D02*
X29017319Y-34585600D01*
X28880808Y-34406916D02*
X28880808Y-34449089D01*
X36127600Y-44018464D02*
X36200000Y-44090864D01*
X36095800Y-46526664D02*
X36350000Y-46780864D01*
X35990000Y-36820000D02*
X35990000Y-37423312D01*
X36095800Y-48193336D02*
X36095800Y-49066664D01*
X36095800Y-49066664D02*
X37150000Y-50120864D01*
X36127600Y-43081536D02*
X36127600Y-44018464D01*
X36200000Y-45549136D02*
X36095800Y-45653336D01*
X35189242Y-35591200D02*
X35695600Y-36097558D01*
X36095800Y-39593070D02*
X36095800Y-41515800D01*
X36400000Y-41820000D02*
X36400000Y-42809136D01*
X35990000Y-37423312D02*
X35864600Y-37548712D01*
X36350000Y-46780864D02*
X36350000Y-47939136D01*
%TO.N,/Level shifter/LOUT1.B22*%
X35975000Y-35771391D02*
X35685995Y-35482386D01*
X36000000Y-38129136D02*
X36310000Y-37819136D01*
X36310000Y-37819136D02*
X36310000Y-36660000D01*
X36000000Y-38950000D02*
X36000000Y-38129136D01*
X37150000Y-40100000D02*
X36000000Y-38950000D01*
X35975000Y-36325000D02*
X35975000Y-35771391D01*
X37150000Y-41010000D02*
X37150000Y-40100000D01*
X36310000Y-36660000D02*
X35975000Y-36325000D01*
%TO.N,+3.3VA*%
D18*
X20925166Y-50930000D02*
X20981800Y-50873366D01*
X19820000Y-50930000D02*
X20925166Y-50930000D01*
X19500000Y-51250000D02*
X19820000Y-50930000D01*
%TO.N,/Level shifter/LOUT2.B18*%
D17*
X24975000Y-65325000D02*
X25150000Y-65150000D01*
X23275000Y-65325000D02*
X24975000Y-65325000D01*
X21000000Y-63050000D02*
X23275000Y-65325000D01*
X21000000Y-52200000D02*
X21000000Y-63050000D01*
X20282986Y-51482986D02*
X21000000Y-52200000D01*
X20238001Y-51482986D02*
X20282986Y-51482986D01*
X20212764Y-51457749D02*
X20238001Y-51482986D01*
X20212764Y-51400000D02*
X20212764Y-51457749D01*
%TO.N,/Level shifter/LOUT2.B3*%
X19115000Y-66335000D02*
X20519600Y-66335000D01*
X20519600Y-66335000D02*
X20870000Y-65984600D01*
%TO.N,/ADC/AUD_VBIAS*%
X33850000Y-32340000D02*
X33850000Y-30650000D01*
X35051363Y-33348637D02*
X34858637Y-33348637D01*
X34858637Y-33348637D02*
X33850000Y-32340000D01*
%TO.N,/FPGA/ADC_IN*%
X30890000Y-50681766D02*
X31274600Y-50297166D01*
X30890000Y-51880000D02*
X30890000Y-50681766D01*
X30025000Y-52745000D02*
X30890000Y-51880000D01*
X30025000Y-53800000D02*
X30025000Y-52745000D01*
X29750000Y-54075000D02*
X30025000Y-53800000D01*
%TO.N,Net-(U2-IN4-)*%
X30128131Y-27001869D02*
X30128131Y-27280188D01*
X30860000Y-26270000D02*
X30128131Y-27001869D01*
X31580000Y-26270000D02*
X30860000Y-26270000D01*
%TO.N,/Level shifter/LOUT2.B11*%
X20326300Y-40286300D02*
X19760000Y-39720000D01*
X20680800Y-43350800D02*
X21256081Y-43926081D01*
X20326300Y-41373700D02*
X20326300Y-40286300D01*
X21256081Y-43926081D02*
X21266081Y-43926081D01*
X21924600Y-44584600D02*
X21924600Y-45097166D01*
X20655400Y-41702800D02*
X20501300Y-41548700D01*
X21266081Y-43926081D02*
X21924600Y-44584600D01*
X20680800Y-41728199D02*
X20680800Y-43350800D01*
X20501300Y-41548700D02*
X20326300Y-41373700D01*
X20501300Y-41548700D02*
X20680800Y-41728199D01*
%TO.N,/Level shifter/LOUT2.B3*%
X29750000Y-65350000D02*
X27125000Y-65350000D01*
X19115000Y-66335000D02*
X18150000Y-67300000D01*
X27125000Y-65350000D02*
X26490400Y-65984600D01*
X26490400Y-65984600D02*
X20870000Y-65984600D01*
%TO.N,/Level shifter/LOUT2.B12*%
X19760000Y-42260000D02*
X20230000Y-42730000D01*
X20230000Y-43360000D02*
X21080000Y-44210000D01*
X21080000Y-44210000D02*
X21080000Y-44782351D01*
X20230000Y-42730000D02*
X20230000Y-43360000D01*
X21080000Y-44782351D02*
X21184015Y-44886366D01*
%TO.N,/Level shifter/LOUT1.B16*%
X37250000Y-48530000D02*
X37250000Y-48380000D01*
X37150000Y-48630000D02*
X37250000Y-48530000D01*
%TO.N,/Level shifter/LOUT1.B15*%
X35000000Y-21940000D02*
X36275000Y-23215000D01*
X36275000Y-23215000D02*
X36275000Y-27700000D01*
X35705567Y-28269433D02*
X35705567Y-28730568D01*
X36275000Y-27700000D02*
X35705567Y-28269433D01*
%TO.N,/Level shifter/LOUT1.B1*%
X22150000Y-31075000D02*
X22150000Y-33900000D01*
X19760000Y-25264394D02*
X22375000Y-27879394D01*
X22375000Y-27879394D02*
X22375000Y-30850000D01*
X22375000Y-30850000D02*
X22150000Y-31075000D01*
X19760000Y-24480000D02*
X19760000Y-25264394D01*
%TO.N,/Level shifter/LOUT1.B11*%
X28575942Y-35146400D02*
X28455211Y-35267131D01*
X27807218Y-34931514D02*
X27668268Y-34931514D01*
X33846600Y-41145332D02*
X33846600Y-38541732D01*
X28075625Y-35267131D02*
X27807218Y-34998724D01*
X34049934Y-51542500D02*
X34049934Y-41348666D01*
X34059934Y-51479934D02*
X35000000Y-52420000D01*
X33267200Y-37962332D02*
X33267200Y-36017200D01*
X32396400Y-35146400D02*
X28575942Y-35146400D01*
X28455211Y-35267131D02*
X28075625Y-35267131D01*
X33846600Y-38541732D02*
X33267200Y-37962332D01*
X27807218Y-34998724D02*
X27807218Y-34931514D01*
X34049934Y-41348666D02*
X33846600Y-41145332D01*
X33267200Y-36017200D02*
X32396400Y-35146400D01*
%TO.N,/Level shifter/LOUT1.B13*%
X35100000Y-28150000D02*
X35225000Y-28150000D01*
X35225000Y-28150000D02*
X35950000Y-27425000D01*
X35950000Y-27425000D02*
X35950000Y-25430000D01*
X35950000Y-25430000D02*
X35000000Y-24480000D01*
%TO.N,/FPGA/LIN1.A3*%
X23274600Y-40792590D02*
X23274600Y-42297166D01*
X23264600Y-40782590D02*
X23274600Y-40772590D01*
X23264600Y-40782590D02*
X23274600Y-40792590D01*
X23274600Y-40772590D02*
X22736890Y-40234880D01*
%TO.N,/FPGA/LIN2.A4*%
X31825000Y-59150000D02*
X31825000Y-57155000D01*
X31624600Y-47897166D02*
X31274600Y-47897166D01*
X31800000Y-59175000D02*
X31825000Y-59150000D01*
X31825000Y-57155000D02*
X33042400Y-55937600D01*
X33042400Y-55937600D02*
X33042400Y-53090000D01*
X32653717Y-48926283D02*
X31624600Y-47897166D01*
%TO.N,/FPGA/LIN2.A19*%
X24480000Y-49912566D02*
X24480000Y-49902566D01*
X24099600Y-52447166D02*
X24099600Y-50962966D01*
X24570000Y-50492566D02*
X24570000Y-50002566D01*
X24570000Y-50002566D02*
X24480000Y-49912566D01*
X24099600Y-50962966D02*
X24570000Y-50492566D01*
X24480000Y-49902566D02*
X24074600Y-49497166D01*
%TO.N,/FPGA/LIN2.A7*%
X32295600Y-53574076D02*
X32295600Y-55429400D01*
X31868717Y-50091283D02*
X31274600Y-49497166D01*
X32295600Y-55429400D02*
X30575000Y-57150000D01*
%TO.N,/FPGA/LIN2.A21*%
X23274600Y-51507966D02*
X23274600Y-50297166D01*
X22798630Y-51983936D02*
X23274600Y-51507966D01*
X22798630Y-52267568D02*
X22798630Y-51983936D01*
%TO.N,/FPGA/LIN2.A16*%
X26125000Y-52020000D02*
X26125000Y-51547566D01*
X25825000Y-59550000D02*
X25825000Y-59050000D01*
X26125000Y-58750000D02*
X26125000Y-52020000D01*
X26125000Y-51547566D02*
X25674600Y-51097166D01*
X25825000Y-59050000D02*
X26125000Y-58750000D01*
%TO.N,/FPGA/LIN2.A13*%
X28874600Y-52915400D02*
X27200000Y-54590000D01*
X27200000Y-54590000D02*
X27200000Y-56396800D01*
X27200000Y-56396800D02*
X27303200Y-56500000D01*
X28874600Y-50297166D02*
X28874600Y-52915400D01*
%TO.N,/FPGA/LIN2.A15*%
X26660000Y-51320000D02*
X26660000Y-50911766D01*
X26875000Y-51535000D02*
X26660000Y-51320000D01*
X26875000Y-59200000D02*
X26875000Y-51535000D01*
X26660000Y-50911766D02*
X27274600Y-50297166D01*
%TO.N,/FPGA/LIN2.A20*%
X23574600Y-50797166D02*
X24074600Y-50297166D01*
X23574600Y-52097166D02*
X23574600Y-50797166D01*
%TO.N,/FPGA/LIN2.A1*%
X33025000Y-57125000D02*
X33455337Y-56694663D01*
X33053717Y-48076283D02*
X31274600Y-46297166D01*
X33455337Y-56694663D02*
X33455337Y-52920000D01*
%TO.N,/FPGA/LIN1.A21*%
X31260000Y-42299868D02*
X31260000Y-40540132D01*
%TO.N,/FPGA/LIN1.A24*%
X32760000Y-39120000D02*
X32974600Y-39334600D01*
X32974600Y-43105400D02*
X32170000Y-43910000D01*
X32974600Y-39334600D02*
X32974600Y-43105400D01*
X32170000Y-43910000D02*
X32080000Y-43910000D01*
%TO.N,/FPGA/LIN1.A23*%
X32639600Y-42540400D02*
X32082834Y-43097166D01*
X32639600Y-42530000D02*
X32639600Y-40612166D01*
X32082834Y-43097166D02*
X31274600Y-43097166D01*
X32639600Y-42530000D02*
X32639600Y-42540400D01*
X32639600Y-40612166D02*
X32543717Y-40516283D01*
X32649600Y-40622166D02*
X32543717Y-40516283D01*
%TO.N,/FPGA/LIN2.A18*%
X24685131Y-56094869D02*
X24557200Y-55966937D01*
X25025001Y-57200000D02*
X25000000Y-57174999D01*
X24547200Y-51002566D02*
X24547200Y-55956938D01*
X24547200Y-55956938D02*
X24685131Y-56094869D01*
X25000000Y-57174999D02*
X25000000Y-56409737D01*
X24874600Y-49497166D02*
X24874600Y-50675166D01*
X25000000Y-56409737D02*
X24685131Y-56094869D01*
X24874600Y-50675166D02*
X24547200Y-51002566D01*
%TO.N,/FPGA/LIN2.A22*%
X22042802Y-57742802D02*
X22042802Y-50728964D01*
X22042802Y-50728964D02*
X22474600Y-50297166D01*
X22042802Y-57742802D02*
X23475000Y-59175000D01*
%TO.N,/FPGA/LIN1.A5*%
X23696445Y-41750000D02*
X23696445Y-41944011D01*
X23696445Y-41919011D02*
X23696445Y-41750000D01*
X24074600Y-42297166D02*
X23696445Y-41919011D01*
%TO.N,/FPGA/LIN2.A9*%
X31033200Y-57541800D02*
X31033200Y-57336800D01*
X31033200Y-57336800D02*
X32708800Y-55661200D01*
X32333717Y-49756283D02*
X31274600Y-48697166D01*
X32708800Y-55661200D02*
X32708800Y-53340000D01*
X29400000Y-59175000D02*
X31033200Y-57541800D01*
%TO.N,/FPGA/LIN2.A17*%
X25475000Y-56405000D02*
X25475000Y-59050000D01*
X25475000Y-59050000D02*
X25050000Y-59475000D01*
X25040000Y-50931768D02*
X25674602Y-50297166D01*
X25050000Y-55980000D02*
X25475000Y-56405000D01*
X25050000Y-51080000D02*
X25050000Y-55980000D01*
X25040000Y-51142566D02*
X25040000Y-50931768D01*
%TO.N,/FPGA/LIN2.A11*%
X29364601Y-53010399D02*
X29364601Y-49807165D01*
X28150000Y-56175000D02*
X28150000Y-54225000D01*
X28150000Y-54225000D02*
X29364601Y-53010399D01*
X29364601Y-49807165D02*
X29674600Y-49497166D01*
%TO.N,/ADC/ADC_TX*%
X30474600Y-51672166D02*
X30174600Y-51972166D01*
X30474600Y-49497166D02*
X30474600Y-51672166D01*
%TO.N,/FPGA/PTHRES*%
X27097166Y-49497166D02*
X25674600Y-49497166D01*
X27274600Y-51097166D02*
X27789600Y-50582166D01*
X27700000Y-51522566D02*
X27274600Y-51097166D01*
X27789600Y-50189600D02*
X27097166Y-49497166D01*
X27700000Y-52440000D02*
X27700000Y-51522566D01*
X27789600Y-50582166D02*
X27789600Y-50189600D01*
%TO.N,/Audio output/AUDR*%
X28874600Y-43097166D02*
X29241668Y-43464234D01*
X30864600Y-40787400D02*
X30757200Y-40680000D01*
X30757200Y-39767200D02*
X30490000Y-39500000D01*
X30864600Y-42902034D02*
X30864600Y-40787400D01*
X30302400Y-43464234D02*
X30864600Y-42902034D01*
X29241668Y-43464234D02*
X30302400Y-43464234D01*
X30757200Y-40680000D02*
X30757200Y-39767200D01*
X30490000Y-39500000D02*
X30490000Y-39460000D01*
%TO.N,/ADC/AUD_IN_BIAS*%
X28170000Y-27345000D02*
X28170000Y-26345000D01*
X28170000Y-26345000D02*
X27775000Y-25950000D01*
X28175000Y-27350000D02*
X28170000Y-27345000D01*
%TO.N,+3.3VA*%
D18*
X27739600Y-45702034D02*
X27117966Y-45702034D01*
X25580389Y-47972177D02*
X24820000Y-48732566D01*
X26790000Y-43990000D02*
X27570000Y-43990000D01*
X28510817Y-44930817D02*
X27739600Y-45702034D01*
X28589600Y-44852034D02*
X28827966Y-44852034D01*
X23122600Y-48732566D02*
X20971800Y-50883366D01*
X25487434Y-44510000D02*
X26270000Y-44510000D01*
X24874600Y-43897166D02*
X25487434Y-44510000D01*
X26598193Y-46600020D02*
X25580389Y-47617823D01*
X24820000Y-48732566D02*
X23122600Y-48732566D01*
X27570000Y-43990000D02*
X28510817Y-44930817D01*
X29427966Y-44144468D02*
X29655000Y-43917434D01*
X29427966Y-44252034D02*
X29427966Y-44144468D01*
X28510817Y-44930817D02*
X28589600Y-44852034D01*
X28827966Y-44852034D02*
X29427966Y-44252034D01*
X26598193Y-46221807D02*
X26598193Y-46600020D01*
X27117966Y-45702034D02*
X26598193Y-46221807D01*
X26270000Y-44510000D02*
X26790000Y-43990000D01*
X25580389Y-47617823D02*
X25580389Y-47972177D01*
%TO.N,+2V5*%
X28315000Y-52737566D02*
X28315000Y-49737564D01*
X28315000Y-49737564D02*
X28074600Y-49497164D01*
X28315000Y-52737566D02*
X28065000Y-52987566D01*
%TO.N,+5V*%
X18411800Y-32011800D02*
X18350000Y-31950000D01*
X18474200Y-43772226D02*
X18474200Y-42913016D01*
X18700000Y-43998026D02*
X18474200Y-43772226D01*
X18474200Y-42913016D02*
X18411800Y-42850615D01*
X18411800Y-42850615D02*
X18411800Y-32011800D01*
X18425000Y-60475000D02*
X18700000Y-60200000D01*
X18700000Y-60200000D02*
X18700000Y-43998026D01*
%TO.N,/FPGA/OSC_CLOCK*%
D17*
X30064600Y-46715400D02*
X31160000Y-45620000D01*
X31160000Y-45620000D02*
X31960000Y-45620000D01*
D19*
X30075000Y-47034800D02*
X30075000Y-51325200D01*
D17*
X31960000Y-45620000D02*
X32080000Y-45500000D01*
X30064600Y-47052034D02*
X30064600Y-46715400D01*
D19*
X30064600Y-51342434D02*
X29737034Y-51670000D01*
%TO.N,Net-(U2-IN2-)*%
D17*
X24850000Y-30150000D02*
X24860000Y-30140000D01*
X24850000Y-30310000D02*
X24850000Y-30150000D01*
X23625109Y-31620000D02*
X23625109Y-31534891D01*
X24860000Y-30140000D02*
X24860000Y-30040000D01*
X23625109Y-31534891D02*
X24850000Y-30310000D01*
%TO.N,Net-(U4-NSTATUS)*%
X21819535Y-42740000D02*
X22620000Y-43540465D01*
X21865518Y-42795518D02*
X21810000Y-42740000D01*
X21810000Y-42740000D02*
X21819535Y-42740000D01*
X24431301Y-43540465D02*
X22620000Y-43540465D01*
X24874600Y-43097166D02*
X24431301Y-43540465D01*
%TO.N,Net-(U4-CONF_DONE)*%
D19*
X23760000Y-42700000D02*
X25277434Y-42700000D01*
D17*
X21758717Y-41931283D02*
X21760000Y-41930000D01*
X23612834Y-42847166D02*
X23760000Y-42700000D01*
X21760000Y-40930600D02*
X21519400Y-40690000D01*
X21519400Y-40690000D02*
X21519400Y-38914701D01*
X21519400Y-38914701D02*
X21104699Y-38500000D01*
X22674600Y-42847166D02*
X23612834Y-42847166D01*
D19*
X25277434Y-42700000D02*
X25674600Y-43097166D01*
D17*
X21760000Y-41930000D02*
X21760000Y-40930600D01*
X22674600Y-42847166D02*
X21758717Y-41931283D01*
%TO.N,/Audio output/AUD_INT_OUT*%
X34533026Y-28203026D02*
X34533026Y-29093026D01*
X34037500Y-27707500D02*
X34533026Y-28203026D01*
X34037500Y-25571933D02*
X34037500Y-27707500D01*
X31655135Y-24724567D02*
X33190134Y-24724567D01*
X34533026Y-29093026D02*
X35000000Y-29560000D01*
X33190134Y-24724567D02*
X34037500Y-25571933D01*
%TO.N,Net-(U2-IN3-)*%
X29500002Y-30650000D02*
X29990002Y-31140000D01*
X32700001Y-30549999D02*
X32700000Y-29679998D01*
X29990002Y-31140000D02*
X32110000Y-31140000D01*
X32110000Y-31140000D02*
X32700001Y-30549999D01*
%TO.N,/ADC/AUD_VBIAS*%
X34160000Y-29040000D02*
X33980000Y-29220000D01*
X33980000Y-30520000D02*
X33850000Y-30650000D01*
X33010000Y-25150000D02*
X33650000Y-25790000D01*
X33980000Y-29220000D02*
X33980000Y-30520000D01*
X34160000Y-28320000D02*
X34160000Y-29040000D01*
X33650000Y-25790000D02*
X33650000Y-27810000D01*
X33650000Y-27810000D02*
X34160000Y-28320000D01*
%TO.N,Net-(U2-IN1-)*%
X25591800Y-26841800D02*
X24366800Y-26841800D01*
X25600000Y-26850000D02*
X25591800Y-26841800D01*
X24366800Y-26841800D02*
X23500000Y-25975000D01*
%TO.N,/FPGA/TCK*%
X22003285Y-46797166D02*
X22774600Y-46797166D01*
X22774600Y-46797166D02*
X23274600Y-46297166D01*
X19400000Y-45750000D02*
X19350000Y-45800000D01*
X20260000Y-45750000D02*
X20956119Y-45750000D01*
X20260000Y-45750000D02*
X19400000Y-45750000D01*
X20956119Y-45750000D02*
X22003285Y-46797166D01*
%TO.N,/FPGA/TDI*%
X20896800Y-39572560D02*
X20241099Y-38916859D01*
X23352600Y-25237400D02*
X24540000Y-24050000D01*
X24000000Y-44500000D02*
X22380000Y-44500000D01*
X20960200Y-41300200D02*
X20896800Y-41236800D01*
X20241099Y-38916859D02*
X20241099Y-38142285D01*
X22440000Y-31214400D02*
X22654400Y-31000000D01*
X22645000Y-33545000D02*
X22440000Y-33340000D01*
X22645000Y-25786875D02*
X23194475Y-25237400D01*
X22654400Y-27763662D02*
X22645000Y-27754262D01*
X20241099Y-38142285D02*
X20746984Y-37636400D01*
X21086426Y-37636400D02*
X22645000Y-36077825D01*
X20960200Y-43080200D02*
X20960200Y-41300200D01*
X20746984Y-37636400D02*
X21086426Y-37636400D01*
X22645000Y-27754262D02*
X22645000Y-25786875D01*
X23194475Y-25237400D02*
X23352600Y-25237400D01*
X22645000Y-36077825D02*
X22645000Y-33545000D01*
X20896800Y-41236800D02*
X20896800Y-39572560D01*
X24997166Y-45497166D02*
X24000000Y-44500000D01*
X22380000Y-44500000D02*
X20960200Y-43080200D01*
X22440000Y-33340000D02*
X22440000Y-31214400D01*
X25674600Y-45497166D02*
X24997166Y-45497166D01*
X22654400Y-31000000D02*
X22654400Y-27763662D01*
%TO.N,Net-(U2-IN+)*%
X26100000Y-27950000D02*
X24438381Y-27950000D01*
X24438381Y-27950000D02*
X23500715Y-27012334D01*
%TO.N,Net-(U2-OUT2)*%
X26690000Y-30690000D02*
X26690000Y-30820000D01*
X31080000Y-23210000D02*
X28600000Y-25690000D01*
X28600000Y-25690000D02*
X28600000Y-28780000D01*
X35370000Y-23210000D02*
X31080000Y-23210000D01*
X28600000Y-28780000D02*
X26690000Y-30690000D01*
%TO.N,Net-(C28-Pad1)*%
X31050000Y-29140000D02*
X31389999Y-29479999D01*
X31389999Y-29479999D02*
X31390000Y-30599998D01*
%TO.N,/FPGA/TDO*%
X20873236Y-37941200D02*
X21289852Y-37941200D01*
X24850000Y-25800000D02*
X25953800Y-24696200D01*
X21267000Y-42877000D02*
X21267000Y-41093400D01*
X20545899Y-38268537D02*
X20873236Y-37941200D01*
X22950000Y-31080000D02*
X22950000Y-25877007D01*
X25953800Y-24696200D02*
X25953800Y-22636200D01*
X22710000Y-33200000D02*
X22710000Y-31320000D01*
X25953800Y-22636200D02*
X27080000Y-21510000D01*
X22950000Y-25877007D02*
X23310207Y-25516800D01*
X22430000Y-44040000D02*
X21267000Y-42877000D01*
X21267000Y-41093400D02*
X21203600Y-41030000D01*
X22710000Y-31320000D02*
X22950000Y-31080000D01*
X22950000Y-36281052D02*
X22950000Y-33440000D01*
X23310207Y-25516800D02*
X23689793Y-25516800D01*
X26474600Y-45497166D02*
X26007434Y-45030000D01*
X22950000Y-33440000D02*
X22710000Y-33200000D01*
X24090000Y-44040000D02*
X22430000Y-44040000D01*
X25080000Y-45030000D02*
X24090000Y-44040000D01*
X23689793Y-25516800D02*
X23972993Y-25800000D01*
X26007434Y-45030000D02*
X25080000Y-45030000D01*
X21203600Y-41030000D02*
X21203600Y-39446894D01*
X21289852Y-37941200D02*
X22950000Y-36281052D01*
X20545899Y-38789193D02*
X20545899Y-38268537D01*
X21203600Y-39446894D02*
X20545899Y-38789193D01*
X23972993Y-25800000D02*
X24850000Y-25800000D01*
%TO.N,/Level shifter/LOUT1.B10*%
X28470000Y-31540000D02*
X28110000Y-31180000D01*
X32230000Y-31540000D02*
X28470000Y-31540000D01*
X33640000Y-30130000D02*
X32230000Y-31540000D01*
X33640000Y-28600000D02*
X33640000Y-30130000D01*
%TD*%
M02*
