%TF.GenerationSoftware,KiCad,Pcbnew,10.0.6*%
%TF.CreationDate,2026-10-03T12:52:46+02:00*%
%TF.ProjectId,pokeymax4_5,706f6b65-796d-4617-9834-5f352e6b6963,rev?*%
%TF.SameCoordinates,Original*%
%TF.FileFunction,Legend,Top*%
%TF.FilePolarity,Positive*%
%FSLAX46Y46*%
G04 Gerber Fmt 4.6, Leading zero omitted, Abs format (unit mm)*
G04 Created by KiCad (PCBNEW 10.0.6) date 2026-10-03 12:52:46*
%MOMM*%
%LPD*%
G01*
G04 APERTURE LIST*
G04 Aperture macros list*
%AMRoundRect*
0 Rectangle with rounded corners*
0 $1 Rounding radius*
0 $2 $3 $4 $5 $6 $7 $8 $9 X,Y pos of 4 corners*
0 Add a 4 corners polygon primitive as box body*
4,1,4,$2,$3,$4,$5,$6,$7,$8,$9,$2,$3,0*
0 Add four circle primitives for the rounded corners*
1,1,$1+$1,$2,$3*
1,1,$1+$1,$4,$5*
1,1,$1+$1,$6,$7*
1,1,$1+$1,$8,$9*
0 Add four rect primitives between the rounded corners*
20,1,$1+$1,$2,$3,$4,$5,0*
20,1,$1+$1,$4,$5,$6,$7,0*
20,1,$1+$1,$6,$7,$8,$9,0*
20,1,$1+$1,$8,$9,$2,$3,0*%
%AMOutline5P*
0 Free polygon, 5 corners , with rotation*
0 The origin of the aperture is its center*
0 number of corners: always 5*
0 $1 to $10 corner X, Y*
0 $11 Rotation angle, in degrees counterclockwise*
0 create outline with 5 corners*
4,1,5,$1,$2,$3,$4,$5,$6,$7,$8,$9,$10,$1,$2,$11*%
%AMOutline6P*
0 Free polygon, 6 corners , with rotation*
0 The origin of the aperture is its center*
0 number of corners: always 6*
0 $1 to $12 corner X, Y*
0 $13 Rotation angle, in degrees counterclockwise*
0 create outline with 6 corners*
4,1,6,$1,$2,$3,$4,$5,$6,$7,$8,$9,$10,$11,$12,$1,$2,$13*%
%AMOutline7P*
0 Free polygon, 7 corners , with rotation*
0 The origin of the aperture is its center*
0 number of corners: always 7*
0 $1 to $14 corner X, Y*
0 $15 Rotation angle, in degrees counterclockwise*
0 create outline with 7 corners*
4,1,7,$1,$2,$3,$4,$5,$6,$7,$8,$9,$10,$11,$12,$13,$14,$1,$2,$15*%
%AMOutline8P*
0 Free polygon, 8 corners , with rotation*
0 The origin of the aperture is its center*
0 number of corners: always 8*
0 $1 to $16 corner X, Y*
0 $17 Rotation angle, in degrees counterclockwise*
0 create outline with 8 corners*
4,1,8,$1,$2,$3,$4,$5,$6,$7,$8,$9,$10,$11,$12,$13,$14,$15,$16,$1,$2,$17*%
G04 Aperture macros list end*
%ADD10C,0.200000*%
%ADD11C,0.080000*%
%ADD12C,0.150000*%
%ADD13C,0.100000*%
%ADD14C,0.120000*%
%ADD15C,0.800000*%
%ADD16C,0.152400*%
%ADD17C,0.000000*%
%ADD18RoundRect,0.200000X0.275000X-0.200000X0.275000X0.200000X-0.275000X0.200000X-0.275000X-0.200000X0*%
%ADD19RoundRect,0.200000X-0.275000X0.200000X-0.275000X-0.200000X0.275000X-0.200000X0.275000X0.200000X0*%
%ADD20RoundRect,0.225000X0.250000X-0.225000X0.250000X0.225000X-0.250000X0.225000X-0.250000X-0.225000X0*%
%ADD21RoundRect,0.225000X-0.250000X0.225000X-0.250000X-0.225000X0.250000X-0.225000X0.250000X0.225000X0*%
%ADD22RoundRect,0.218750X-0.256250X0.218750X-0.256250X-0.218750X0.256250X-0.218750X0.256250X0.218750X0*%
%ADD23RoundRect,0.140000X0.140000X0.170000X-0.140000X0.170000X-0.140000X-0.170000X0.140000X-0.170000X0*%
%ADD24Outline8P,-0.670000X0.281400X-0.281400X0.670000X0.281400X0.670000X0.670000X0.281400X0.670000X-0.281400X0.281400X-0.670000X-0.281400X-0.670000X-0.670000X-0.281400X180.000000*%
%ADD25Outline8P,-0.800000X0.320000X-0.320000X0.800000X0.320000X0.800000X0.800000X0.320000X0.800000X-0.320000X0.320000X-0.800000X-0.320000X-0.800000X-0.800000X-0.320000X0.000000*%
%ADD26R,1.600000X1.600000*%
%ADD27RoundRect,0.140000X-0.140000X-0.170000X0.140000X-0.170000X0.140000X0.170000X-0.140000X0.170000X0*%
%ADD28RoundRect,0.135000X0.185000X-0.135000X0.185000X0.135000X-0.185000X0.135000X-0.185000X-0.135000X0*%
%ADD29RoundRect,0.250001X-0.849999X0.462499X-0.849999X-0.462499X0.849999X-0.462499X0.849999X0.462499X0*%
%ADD30RoundRect,0.135000X-0.135000X-0.185000X0.135000X-0.185000X0.135000X0.185000X-0.135000X0.185000X0*%
%ADD31RoundRect,0.225000X0.225000X0.250000X-0.225000X0.250000X-0.225000X-0.250000X0.225000X-0.250000X0*%
%ADD32RoundRect,0.135000X-0.185000X0.135000X-0.185000X-0.135000X0.185000X-0.135000X0.185000X0.135000X0*%
%ADD33R,1.700000X1.700000*%
%ADD34C,1.700000*%
%ADD35R,0.812800X0.254000*%
%ADD36R,0.254000X0.812800*%
%ADD37RoundRect,0.135000X0.135000X0.185000X-0.135000X0.185000X-0.135000X-0.185000X0.135000X-0.185000X0*%
%ADD38R,1.100000X1.300000*%
%ADD39RoundRect,0.140000X0.170000X-0.140000X0.170000X0.140000X-0.170000X0.140000X-0.170000X-0.140000X0*%
%ADD40R,0.177800X1.168400*%
%ADD41RoundRect,0.140000X-0.170000X0.140000X-0.170000X-0.140000X0.170000X-0.140000X0.170000X0.140000X0*%
%ADD42RoundRect,0.050000X-0.127000X0.330200X-0.127000X-0.330200X0.127000X-0.330200X0.127000X0.330200X0*%
%ADD43RoundRect,0.010000X-0.431800X0.254000X-0.431800X-0.254000X0.431800X-0.254000X0.431800X0.254000X0*%
%ADD44RoundRect,0.040000X-0.150000X0.275000X-0.150000X-0.275000X0.150000X-0.275000X0.150000X0.275000X0*%
%ADD45RoundRect,0.040000X-0.150000X0.260000X-0.150000X-0.260000X0.150000X-0.260000X0.150000X0.260000X0*%
%ADD46RoundRect,0.040000X0.150000X-0.260000X0.150000X0.260000X-0.150000X0.260000X-0.150000X-0.260000X0*%
%ADD47C,0.400000*%
G04 APERTURE END LIST*
D10*
X21309673Y-66757219D02*
X21309673Y-65757219D01*
X21309673Y-65757219D02*
X21690625Y-65757219D01*
X21690625Y-65757219D02*
X21785863Y-65804838D01*
X21785863Y-65804838D02*
X21833482Y-65852457D01*
X21833482Y-65852457D02*
X21881101Y-65947695D01*
X21881101Y-65947695D02*
X21881101Y-66090552D01*
X21881101Y-66090552D02*
X21833482Y-66185790D01*
X21833482Y-66185790D02*
X21785863Y-66233409D01*
X21785863Y-66233409D02*
X21690625Y-66281028D01*
X21690625Y-66281028D02*
X21309673Y-66281028D01*
X22452530Y-66757219D02*
X22357292Y-66709600D01*
X22357292Y-66709600D02*
X22309673Y-66661980D01*
X22309673Y-66661980D02*
X22262054Y-66566742D01*
X22262054Y-66566742D02*
X22262054Y-66281028D01*
X22262054Y-66281028D02*
X22309673Y-66185790D01*
X22309673Y-66185790D02*
X22357292Y-66138171D01*
X22357292Y-66138171D02*
X22452530Y-66090552D01*
X22452530Y-66090552D02*
X22595387Y-66090552D01*
X22595387Y-66090552D02*
X22690625Y-66138171D01*
X22690625Y-66138171D02*
X22738244Y-66185790D01*
X22738244Y-66185790D02*
X22785863Y-66281028D01*
X22785863Y-66281028D02*
X22785863Y-66566742D01*
X22785863Y-66566742D02*
X22738244Y-66661980D01*
X22738244Y-66661980D02*
X22690625Y-66709600D01*
X22690625Y-66709600D02*
X22595387Y-66757219D01*
X22595387Y-66757219D02*
X22452530Y-66757219D01*
X23214435Y-66757219D02*
X23214435Y-65757219D01*
X23309673Y-66376266D02*
X23595387Y-66757219D01*
X23595387Y-66090552D02*
X23214435Y-66471504D01*
X24404911Y-66709600D02*
X24309673Y-66757219D01*
X24309673Y-66757219D02*
X24119197Y-66757219D01*
X24119197Y-66757219D02*
X24023959Y-66709600D01*
X24023959Y-66709600D02*
X23976340Y-66614361D01*
X23976340Y-66614361D02*
X23976340Y-66233409D01*
X23976340Y-66233409D02*
X24023959Y-66138171D01*
X24023959Y-66138171D02*
X24119197Y-66090552D01*
X24119197Y-66090552D02*
X24309673Y-66090552D01*
X24309673Y-66090552D02*
X24404911Y-66138171D01*
X24404911Y-66138171D02*
X24452530Y-66233409D01*
X24452530Y-66233409D02*
X24452530Y-66328647D01*
X24452530Y-66328647D02*
X23976340Y-66423885D01*
X24785864Y-66090552D02*
X25023959Y-66757219D01*
X25262054Y-66090552D02*
X25023959Y-66757219D01*
X25023959Y-66757219D02*
X24928721Y-66995314D01*
X24928721Y-66995314D02*
X24881102Y-67042933D01*
X24881102Y-67042933D02*
X24785864Y-67090552D01*
X25643007Y-66757219D02*
X25643007Y-66090552D01*
X25643007Y-66185790D02*
X25690626Y-66138171D01*
X25690626Y-66138171D02*
X25785864Y-66090552D01*
X25785864Y-66090552D02*
X25928721Y-66090552D01*
X25928721Y-66090552D02*
X26023959Y-66138171D01*
X26023959Y-66138171D02*
X26071578Y-66233409D01*
X26071578Y-66233409D02*
X26071578Y-66757219D01*
X26071578Y-66233409D02*
X26119197Y-66138171D01*
X26119197Y-66138171D02*
X26214435Y-66090552D01*
X26214435Y-66090552D02*
X26357292Y-66090552D01*
X26357292Y-66090552D02*
X26452531Y-66138171D01*
X26452531Y-66138171D02*
X26500150Y-66233409D01*
X26500150Y-66233409D02*
X26500150Y-66757219D01*
X27404911Y-66757219D02*
X27404911Y-66233409D01*
X27404911Y-66233409D02*
X27357292Y-66138171D01*
X27357292Y-66138171D02*
X27262054Y-66090552D01*
X27262054Y-66090552D02*
X27071578Y-66090552D01*
X27071578Y-66090552D02*
X26976340Y-66138171D01*
X27404911Y-66709600D02*
X27309673Y-66757219D01*
X27309673Y-66757219D02*
X27071578Y-66757219D01*
X27071578Y-66757219D02*
X26976340Y-66709600D01*
X26976340Y-66709600D02*
X26928721Y-66614361D01*
X26928721Y-66614361D02*
X26928721Y-66519123D01*
X26928721Y-66519123D02*
X26976340Y-66423885D01*
X26976340Y-66423885D02*
X27071578Y-66376266D01*
X27071578Y-66376266D02*
X27309673Y-66376266D01*
X27309673Y-66376266D02*
X27404911Y-66328647D01*
X27785864Y-66757219D02*
X28309673Y-66090552D01*
X27785864Y-66090552D02*
X28309673Y-66757219D01*
X29881102Y-66090552D02*
X29881102Y-66757219D01*
X29643007Y-65709600D02*
X29404912Y-66423885D01*
X29404912Y-66423885D02*
X30023959Y-66423885D01*
X30404912Y-66661980D02*
X30452531Y-66709600D01*
X30452531Y-66709600D02*
X30404912Y-66757219D01*
X30404912Y-66757219D02*
X30357293Y-66709600D01*
X30357293Y-66709600D02*
X30404912Y-66661980D01*
X30404912Y-66661980D02*
X30404912Y-66757219D01*
X31357292Y-65757219D02*
X30881102Y-65757219D01*
X30881102Y-65757219D02*
X30833483Y-66233409D01*
X30833483Y-66233409D02*
X30881102Y-66185790D01*
X30881102Y-66185790D02*
X30976340Y-66138171D01*
X30976340Y-66138171D02*
X31214435Y-66138171D01*
X31214435Y-66138171D02*
X31309673Y-66185790D01*
X31309673Y-66185790D02*
X31357292Y-66233409D01*
X31357292Y-66233409D02*
X31404911Y-66328647D01*
X31404911Y-66328647D02*
X31404911Y-66566742D01*
X31404911Y-66566742D02*
X31357292Y-66661980D01*
X31357292Y-66661980D02*
X31309673Y-66709600D01*
X31309673Y-66709600D02*
X31214435Y-66757219D01*
X31214435Y-66757219D02*
X30976340Y-66757219D01*
X30976340Y-66757219D02*
X30881102Y-66709600D01*
X30881102Y-66709600D02*
X30833483Y-66661980D01*
X32309673Y-65757219D02*
X31833483Y-65757219D01*
X31833483Y-65757219D02*
X31785864Y-66233409D01*
X31785864Y-66233409D02*
X31833483Y-66185790D01*
X31833483Y-66185790D02*
X31928721Y-66138171D01*
X31928721Y-66138171D02*
X32166816Y-66138171D01*
X32166816Y-66138171D02*
X32262054Y-66185790D01*
X32262054Y-66185790D02*
X32309673Y-66233409D01*
X32309673Y-66233409D02*
X32357292Y-66328647D01*
X32357292Y-66328647D02*
X32357292Y-66566742D01*
X32357292Y-66566742D02*
X32309673Y-66661980D01*
X32309673Y-66661980D02*
X32262054Y-66709600D01*
X32262054Y-66709600D02*
X32166816Y-66757219D01*
X32166816Y-66757219D02*
X31928721Y-66757219D01*
X31928721Y-66757219D02*
X31833483Y-66709600D01*
X31833483Y-66709600D02*
X31785864Y-66661980D01*
D11*
X18276666Y-25017149D02*
X18110000Y-24779054D01*
X17990952Y-25017149D02*
X17990952Y-24517149D01*
X17990952Y-24517149D02*
X18181428Y-24517149D01*
X18181428Y-24517149D02*
X18229047Y-24540959D01*
X18229047Y-24540959D02*
X18252857Y-24564768D01*
X18252857Y-24564768D02*
X18276666Y-24612387D01*
X18276666Y-24612387D02*
X18276666Y-24683816D01*
X18276666Y-24683816D02*
X18252857Y-24731435D01*
X18252857Y-24731435D02*
X18229047Y-24755244D01*
X18229047Y-24755244D02*
X18181428Y-24779054D01*
X18181428Y-24779054D02*
X17990952Y-24779054D01*
X18467143Y-24564768D02*
X18490952Y-24540959D01*
X18490952Y-24540959D02*
X18538571Y-24517149D01*
X18538571Y-24517149D02*
X18657619Y-24517149D01*
X18657619Y-24517149D02*
X18705238Y-24540959D01*
X18705238Y-24540959D02*
X18729047Y-24564768D01*
X18729047Y-24564768D02*
X18752857Y-24612387D01*
X18752857Y-24612387D02*
X18752857Y-24660006D01*
X18752857Y-24660006D02*
X18729047Y-24731435D01*
X18729047Y-24731435D02*
X18443333Y-25017149D01*
X18443333Y-25017149D02*
X18752857Y-25017149D01*
X18208571Y-41127149D02*
X18041905Y-40889054D01*
X17922857Y-41127149D02*
X17922857Y-40627149D01*
X17922857Y-40627149D02*
X18113333Y-40627149D01*
X18113333Y-40627149D02*
X18160952Y-40650959D01*
X18160952Y-40650959D02*
X18184762Y-40674768D01*
X18184762Y-40674768D02*
X18208571Y-40722387D01*
X18208571Y-40722387D02*
X18208571Y-40793816D01*
X18208571Y-40793816D02*
X18184762Y-40841435D01*
X18184762Y-40841435D02*
X18160952Y-40865244D01*
X18160952Y-40865244D02*
X18113333Y-40889054D01*
X18113333Y-40889054D02*
X17922857Y-40889054D01*
X18399048Y-40674768D02*
X18422857Y-40650959D01*
X18422857Y-40650959D02*
X18470476Y-40627149D01*
X18470476Y-40627149D02*
X18589524Y-40627149D01*
X18589524Y-40627149D02*
X18637143Y-40650959D01*
X18637143Y-40650959D02*
X18660952Y-40674768D01*
X18660952Y-40674768D02*
X18684762Y-40722387D01*
X18684762Y-40722387D02*
X18684762Y-40770006D01*
X18684762Y-40770006D02*
X18660952Y-40841435D01*
X18660952Y-40841435D02*
X18375238Y-41127149D01*
X18375238Y-41127149D02*
X18684762Y-41127149D01*
X18875238Y-40674768D02*
X18899047Y-40650959D01*
X18899047Y-40650959D02*
X18946666Y-40627149D01*
X18946666Y-40627149D02*
X19065714Y-40627149D01*
X19065714Y-40627149D02*
X19113333Y-40650959D01*
X19113333Y-40650959D02*
X19137142Y-40674768D01*
X19137142Y-40674768D02*
X19160952Y-40722387D01*
X19160952Y-40722387D02*
X19160952Y-40770006D01*
X19160952Y-40770006D02*
X19137142Y-40841435D01*
X19137142Y-40841435D02*
X18851428Y-41127149D01*
X18851428Y-41127149D02*
X19160952Y-41127149D01*
X19628571Y-48869530D02*
X19604762Y-48893340D01*
X19604762Y-48893340D02*
X19533333Y-48917149D01*
X19533333Y-48917149D02*
X19485714Y-48917149D01*
X19485714Y-48917149D02*
X19414286Y-48893340D01*
X19414286Y-48893340D02*
X19366667Y-48845720D01*
X19366667Y-48845720D02*
X19342857Y-48798101D01*
X19342857Y-48798101D02*
X19319048Y-48702863D01*
X19319048Y-48702863D02*
X19319048Y-48631435D01*
X19319048Y-48631435D02*
X19342857Y-48536197D01*
X19342857Y-48536197D02*
X19366667Y-48488578D01*
X19366667Y-48488578D02*
X19414286Y-48440959D01*
X19414286Y-48440959D02*
X19485714Y-48417149D01*
X19485714Y-48417149D02*
X19533333Y-48417149D01*
X19533333Y-48417149D02*
X19604762Y-48440959D01*
X19604762Y-48440959D02*
X19628571Y-48464768D01*
X20104762Y-48917149D02*
X19819048Y-48917149D01*
X19961905Y-48917149D02*
X19961905Y-48417149D01*
X19961905Y-48417149D02*
X19914286Y-48488578D01*
X19914286Y-48488578D02*
X19866667Y-48536197D01*
X19866667Y-48536197D02*
X19819048Y-48560006D01*
X20533333Y-48417149D02*
X20438095Y-48417149D01*
X20438095Y-48417149D02*
X20390476Y-48440959D01*
X20390476Y-48440959D02*
X20366666Y-48464768D01*
X20366666Y-48464768D02*
X20319047Y-48536197D01*
X20319047Y-48536197D02*
X20295238Y-48631435D01*
X20295238Y-48631435D02*
X20295238Y-48821911D01*
X20295238Y-48821911D02*
X20319047Y-48869530D01*
X20319047Y-48869530D02*
X20342857Y-48893340D01*
X20342857Y-48893340D02*
X20390476Y-48917149D01*
X20390476Y-48917149D02*
X20485714Y-48917149D01*
X20485714Y-48917149D02*
X20533333Y-48893340D01*
X20533333Y-48893340D02*
X20557142Y-48869530D01*
X20557142Y-48869530D02*
X20580952Y-48821911D01*
X20580952Y-48821911D02*
X20580952Y-48702863D01*
X20580952Y-48702863D02*
X20557142Y-48655244D01*
X20557142Y-48655244D02*
X20533333Y-48631435D01*
X20533333Y-48631435D02*
X20485714Y-48607625D01*
X20485714Y-48607625D02*
X20390476Y-48607625D01*
X20390476Y-48607625D02*
X20342857Y-48631435D01*
X20342857Y-48631435D02*
X20319047Y-48655244D01*
X20319047Y-48655244D02*
X20295238Y-48702863D01*
X19558571Y-59027149D02*
X19391905Y-58789054D01*
X19272857Y-59027149D02*
X19272857Y-58527149D01*
X19272857Y-58527149D02*
X19463333Y-58527149D01*
X19463333Y-58527149D02*
X19510952Y-58550959D01*
X19510952Y-58550959D02*
X19534762Y-58574768D01*
X19534762Y-58574768D02*
X19558571Y-58622387D01*
X19558571Y-58622387D02*
X19558571Y-58693816D01*
X19558571Y-58693816D02*
X19534762Y-58741435D01*
X19534762Y-58741435D02*
X19510952Y-58765244D01*
X19510952Y-58765244D02*
X19463333Y-58789054D01*
X19463333Y-58789054D02*
X19272857Y-58789054D01*
X19749048Y-58574768D02*
X19772857Y-58550959D01*
X19772857Y-58550959D02*
X19820476Y-58527149D01*
X19820476Y-58527149D02*
X19939524Y-58527149D01*
X19939524Y-58527149D02*
X19987143Y-58550959D01*
X19987143Y-58550959D02*
X20010952Y-58574768D01*
X20010952Y-58574768D02*
X20034762Y-58622387D01*
X20034762Y-58622387D02*
X20034762Y-58670006D01*
X20034762Y-58670006D02*
X20010952Y-58741435D01*
X20010952Y-58741435D02*
X19725238Y-59027149D01*
X19725238Y-59027149D02*
X20034762Y-59027149D01*
X20320476Y-58741435D02*
X20272857Y-58717625D01*
X20272857Y-58717625D02*
X20249047Y-58693816D01*
X20249047Y-58693816D02*
X20225238Y-58646197D01*
X20225238Y-58646197D02*
X20225238Y-58622387D01*
X20225238Y-58622387D02*
X20249047Y-58574768D01*
X20249047Y-58574768D02*
X20272857Y-58550959D01*
X20272857Y-58550959D02*
X20320476Y-58527149D01*
X20320476Y-58527149D02*
X20415714Y-58527149D01*
X20415714Y-58527149D02*
X20463333Y-58550959D01*
X20463333Y-58550959D02*
X20487142Y-58574768D01*
X20487142Y-58574768D02*
X20510952Y-58622387D01*
X20510952Y-58622387D02*
X20510952Y-58646197D01*
X20510952Y-58646197D02*
X20487142Y-58693816D01*
X20487142Y-58693816D02*
X20463333Y-58717625D01*
X20463333Y-58717625D02*
X20415714Y-58741435D01*
X20415714Y-58741435D02*
X20320476Y-58741435D01*
X20320476Y-58741435D02*
X20272857Y-58765244D01*
X20272857Y-58765244D02*
X20249047Y-58789054D01*
X20249047Y-58789054D02*
X20225238Y-58836673D01*
X20225238Y-58836673D02*
X20225238Y-58931911D01*
X20225238Y-58931911D02*
X20249047Y-58979530D01*
X20249047Y-58979530D02*
X20272857Y-59003340D01*
X20272857Y-59003340D02*
X20320476Y-59027149D01*
X20320476Y-59027149D02*
X20415714Y-59027149D01*
X20415714Y-59027149D02*
X20463333Y-59003340D01*
X20463333Y-59003340D02*
X20487142Y-58979530D01*
X20487142Y-58979530D02*
X20510952Y-58931911D01*
X20510952Y-58931911D02*
X20510952Y-58836673D01*
X20510952Y-58836673D02*
X20487142Y-58789054D01*
X20487142Y-58789054D02*
X20463333Y-58765244D01*
X20463333Y-58765244D02*
X20415714Y-58741435D01*
X19528571Y-56329530D02*
X19504762Y-56353340D01*
X19504762Y-56353340D02*
X19433333Y-56377149D01*
X19433333Y-56377149D02*
X19385714Y-56377149D01*
X19385714Y-56377149D02*
X19314286Y-56353340D01*
X19314286Y-56353340D02*
X19266667Y-56305720D01*
X19266667Y-56305720D02*
X19242857Y-56258101D01*
X19242857Y-56258101D02*
X19219048Y-56162863D01*
X19219048Y-56162863D02*
X19219048Y-56091435D01*
X19219048Y-56091435D02*
X19242857Y-55996197D01*
X19242857Y-55996197D02*
X19266667Y-55948578D01*
X19266667Y-55948578D02*
X19314286Y-55900959D01*
X19314286Y-55900959D02*
X19385714Y-55877149D01*
X19385714Y-55877149D02*
X19433333Y-55877149D01*
X19433333Y-55877149D02*
X19504762Y-55900959D01*
X19504762Y-55900959D02*
X19528571Y-55924768D01*
X20004762Y-56377149D02*
X19719048Y-56377149D01*
X19861905Y-56377149D02*
X19861905Y-55877149D01*
X19861905Y-55877149D02*
X19814286Y-55948578D01*
X19814286Y-55948578D02*
X19766667Y-55996197D01*
X19766667Y-55996197D02*
X19719048Y-56020006D01*
X20242857Y-56377149D02*
X20338095Y-56377149D01*
X20338095Y-56377149D02*
X20385714Y-56353340D01*
X20385714Y-56353340D02*
X20409523Y-56329530D01*
X20409523Y-56329530D02*
X20457142Y-56258101D01*
X20457142Y-56258101D02*
X20480952Y-56162863D01*
X20480952Y-56162863D02*
X20480952Y-55972387D01*
X20480952Y-55972387D02*
X20457142Y-55924768D01*
X20457142Y-55924768D02*
X20433333Y-55900959D01*
X20433333Y-55900959D02*
X20385714Y-55877149D01*
X20385714Y-55877149D02*
X20290476Y-55877149D01*
X20290476Y-55877149D02*
X20242857Y-55900959D01*
X20242857Y-55900959D02*
X20219047Y-55924768D01*
X20219047Y-55924768D02*
X20195238Y-55972387D01*
X20195238Y-55972387D02*
X20195238Y-56091435D01*
X20195238Y-56091435D02*
X20219047Y-56139054D01*
X20219047Y-56139054D02*
X20242857Y-56162863D01*
X20242857Y-56162863D02*
X20290476Y-56186673D01*
X20290476Y-56186673D02*
X20385714Y-56186673D01*
X20385714Y-56186673D02*
X20433333Y-56162863D01*
X20433333Y-56162863D02*
X20457142Y-56139054D01*
X20457142Y-56139054D02*
X20480952Y-56091435D01*
X19528571Y-61549530D02*
X19504762Y-61573340D01*
X19504762Y-61573340D02*
X19433333Y-61597149D01*
X19433333Y-61597149D02*
X19385714Y-61597149D01*
X19385714Y-61597149D02*
X19314286Y-61573340D01*
X19314286Y-61573340D02*
X19266667Y-61525720D01*
X19266667Y-61525720D02*
X19242857Y-61478101D01*
X19242857Y-61478101D02*
X19219048Y-61382863D01*
X19219048Y-61382863D02*
X19219048Y-61311435D01*
X19219048Y-61311435D02*
X19242857Y-61216197D01*
X19242857Y-61216197D02*
X19266667Y-61168578D01*
X19266667Y-61168578D02*
X19314286Y-61120959D01*
X19314286Y-61120959D02*
X19385714Y-61097149D01*
X19385714Y-61097149D02*
X19433333Y-61097149D01*
X19433333Y-61097149D02*
X19504762Y-61120959D01*
X19504762Y-61120959D02*
X19528571Y-61144768D01*
X19719048Y-61144768D02*
X19742857Y-61120959D01*
X19742857Y-61120959D02*
X19790476Y-61097149D01*
X19790476Y-61097149D02*
X19909524Y-61097149D01*
X19909524Y-61097149D02*
X19957143Y-61120959D01*
X19957143Y-61120959D02*
X19980952Y-61144768D01*
X19980952Y-61144768D02*
X20004762Y-61192387D01*
X20004762Y-61192387D02*
X20004762Y-61240006D01*
X20004762Y-61240006D02*
X19980952Y-61311435D01*
X19980952Y-61311435D02*
X19695238Y-61597149D01*
X19695238Y-61597149D02*
X20004762Y-61597149D01*
X20171428Y-61097149D02*
X20480952Y-61097149D01*
X20480952Y-61097149D02*
X20314285Y-61287625D01*
X20314285Y-61287625D02*
X20385714Y-61287625D01*
X20385714Y-61287625D02*
X20433333Y-61311435D01*
X20433333Y-61311435D02*
X20457142Y-61335244D01*
X20457142Y-61335244D02*
X20480952Y-61382863D01*
X20480952Y-61382863D02*
X20480952Y-61501911D01*
X20480952Y-61501911D02*
X20457142Y-61549530D01*
X20457142Y-61549530D02*
X20433333Y-61573340D01*
X20433333Y-61573340D02*
X20385714Y-61597149D01*
X20385714Y-61597149D02*
X20242857Y-61597149D01*
X20242857Y-61597149D02*
X20195238Y-61573340D01*
X20195238Y-61573340D02*
X20171428Y-61549530D01*
X18116666Y-23527149D02*
X17950000Y-23289054D01*
X17830952Y-23527149D02*
X17830952Y-23027149D01*
X17830952Y-23027149D02*
X18021428Y-23027149D01*
X18021428Y-23027149D02*
X18069047Y-23050959D01*
X18069047Y-23050959D02*
X18092857Y-23074768D01*
X18092857Y-23074768D02*
X18116666Y-23122387D01*
X18116666Y-23122387D02*
X18116666Y-23193816D01*
X18116666Y-23193816D02*
X18092857Y-23241435D01*
X18092857Y-23241435D02*
X18069047Y-23265244D01*
X18069047Y-23265244D02*
X18021428Y-23289054D01*
X18021428Y-23289054D02*
X17830952Y-23289054D01*
X18592857Y-23527149D02*
X18307143Y-23527149D01*
X18450000Y-23527149D02*
X18450000Y-23027149D01*
X18450000Y-23027149D02*
X18402381Y-23098578D01*
X18402381Y-23098578D02*
X18354762Y-23146197D01*
X18354762Y-23146197D02*
X18307143Y-23170006D01*
X19653334Y-50875244D02*
X19486667Y-50875244D01*
X19486667Y-51137149D02*
X19486667Y-50637149D01*
X19486667Y-50637149D02*
X19724762Y-50637149D01*
X20081905Y-50875244D02*
X20153333Y-50899054D01*
X20153333Y-50899054D02*
X20177143Y-50922863D01*
X20177143Y-50922863D02*
X20200952Y-50970482D01*
X20200952Y-50970482D02*
X20200952Y-51041911D01*
X20200952Y-51041911D02*
X20177143Y-51089530D01*
X20177143Y-51089530D02*
X20153333Y-51113340D01*
X20153333Y-51113340D02*
X20105714Y-51137149D01*
X20105714Y-51137149D02*
X19915238Y-51137149D01*
X19915238Y-51137149D02*
X19915238Y-50637149D01*
X19915238Y-50637149D02*
X20081905Y-50637149D01*
X20081905Y-50637149D02*
X20129524Y-50660959D01*
X20129524Y-50660959D02*
X20153333Y-50684768D01*
X20153333Y-50684768D02*
X20177143Y-50732387D01*
X20177143Y-50732387D02*
X20177143Y-50780006D01*
X20177143Y-50780006D02*
X20153333Y-50827625D01*
X20153333Y-50827625D02*
X20129524Y-50851435D01*
X20129524Y-50851435D02*
X20081905Y-50875244D01*
X20081905Y-50875244D02*
X19915238Y-50875244D01*
X20677143Y-51137149D02*
X20391429Y-51137149D01*
X20534286Y-51137149D02*
X20534286Y-50637149D01*
X20534286Y-50637149D02*
X20486667Y-50708578D01*
X20486667Y-50708578D02*
X20439048Y-50756197D01*
X20439048Y-50756197D02*
X20391429Y-50780006D01*
X19528571Y-33659530D02*
X19504762Y-33683340D01*
X19504762Y-33683340D02*
X19433333Y-33707149D01*
X19433333Y-33707149D02*
X19385714Y-33707149D01*
X19385714Y-33707149D02*
X19314286Y-33683340D01*
X19314286Y-33683340D02*
X19266667Y-33635720D01*
X19266667Y-33635720D02*
X19242857Y-33588101D01*
X19242857Y-33588101D02*
X19219048Y-33492863D01*
X19219048Y-33492863D02*
X19219048Y-33421435D01*
X19219048Y-33421435D02*
X19242857Y-33326197D01*
X19242857Y-33326197D02*
X19266667Y-33278578D01*
X19266667Y-33278578D02*
X19314286Y-33230959D01*
X19314286Y-33230959D02*
X19385714Y-33207149D01*
X19385714Y-33207149D02*
X19433333Y-33207149D01*
X19433333Y-33207149D02*
X19504762Y-33230959D01*
X19504762Y-33230959D02*
X19528571Y-33254768D01*
X20004762Y-33707149D02*
X19719048Y-33707149D01*
X19861905Y-33707149D02*
X19861905Y-33207149D01*
X19861905Y-33207149D02*
X19814286Y-33278578D01*
X19814286Y-33278578D02*
X19766667Y-33326197D01*
X19766667Y-33326197D02*
X19719048Y-33350006D01*
X20457142Y-33207149D02*
X20219047Y-33207149D01*
X20219047Y-33207149D02*
X20195238Y-33445244D01*
X20195238Y-33445244D02*
X20219047Y-33421435D01*
X20219047Y-33421435D02*
X20266666Y-33397625D01*
X20266666Y-33397625D02*
X20385714Y-33397625D01*
X20385714Y-33397625D02*
X20433333Y-33421435D01*
X20433333Y-33421435D02*
X20457142Y-33445244D01*
X20457142Y-33445244D02*
X20480952Y-33492863D01*
X20480952Y-33492863D02*
X20480952Y-33611911D01*
X20480952Y-33611911D02*
X20457142Y-33659530D01*
X20457142Y-33659530D02*
X20433333Y-33683340D01*
X20433333Y-33683340D02*
X20385714Y-33707149D01*
X20385714Y-33707149D02*
X20266666Y-33707149D01*
X20266666Y-33707149D02*
X20219047Y-33683340D01*
X20219047Y-33683340D02*
X20195238Y-33659530D01*
X19598571Y-28409530D02*
X19574762Y-28433340D01*
X19574762Y-28433340D02*
X19503333Y-28457149D01*
X19503333Y-28457149D02*
X19455714Y-28457149D01*
X19455714Y-28457149D02*
X19384286Y-28433340D01*
X19384286Y-28433340D02*
X19336667Y-28385720D01*
X19336667Y-28385720D02*
X19312857Y-28338101D01*
X19312857Y-28338101D02*
X19289048Y-28242863D01*
X19289048Y-28242863D02*
X19289048Y-28171435D01*
X19289048Y-28171435D02*
X19312857Y-28076197D01*
X19312857Y-28076197D02*
X19336667Y-28028578D01*
X19336667Y-28028578D02*
X19384286Y-27980959D01*
X19384286Y-27980959D02*
X19455714Y-27957149D01*
X19455714Y-27957149D02*
X19503333Y-27957149D01*
X19503333Y-27957149D02*
X19574762Y-27980959D01*
X19574762Y-27980959D02*
X19598571Y-28004768D01*
X20074762Y-28457149D02*
X19789048Y-28457149D01*
X19931905Y-28457149D02*
X19931905Y-27957149D01*
X19931905Y-27957149D02*
X19884286Y-28028578D01*
X19884286Y-28028578D02*
X19836667Y-28076197D01*
X19836667Y-28076197D02*
X19789048Y-28100006D01*
X20550952Y-28457149D02*
X20265238Y-28457149D01*
X20408095Y-28457149D02*
X20408095Y-27957149D01*
X20408095Y-27957149D02*
X20360476Y-28028578D01*
X20360476Y-28028578D02*
X20312857Y-28076197D01*
X20312857Y-28076197D02*
X20265238Y-28100006D01*
X19668571Y-30807149D02*
X19501905Y-30569054D01*
X19382857Y-30807149D02*
X19382857Y-30307149D01*
X19382857Y-30307149D02*
X19573333Y-30307149D01*
X19573333Y-30307149D02*
X19620952Y-30330959D01*
X19620952Y-30330959D02*
X19644762Y-30354768D01*
X19644762Y-30354768D02*
X19668571Y-30402387D01*
X19668571Y-30402387D02*
X19668571Y-30473816D01*
X19668571Y-30473816D02*
X19644762Y-30521435D01*
X19644762Y-30521435D02*
X19620952Y-30545244D01*
X19620952Y-30545244D02*
X19573333Y-30569054D01*
X19573333Y-30569054D02*
X19382857Y-30569054D01*
X20144762Y-30807149D02*
X19859048Y-30807149D01*
X20001905Y-30807149D02*
X20001905Y-30307149D01*
X20001905Y-30307149D02*
X19954286Y-30378578D01*
X19954286Y-30378578D02*
X19906667Y-30426197D01*
X19906667Y-30426197D02*
X19859048Y-30450006D01*
X20311428Y-30307149D02*
X20644761Y-30307149D01*
X20644761Y-30307149D02*
X20430476Y-30807149D01*
X18657149Y-69056428D02*
X18419054Y-69223094D01*
X18657149Y-69342142D02*
X18157149Y-69342142D01*
X18157149Y-69342142D02*
X18157149Y-69151666D01*
X18157149Y-69151666D02*
X18180959Y-69104047D01*
X18180959Y-69104047D02*
X18204768Y-69080237D01*
X18204768Y-69080237D02*
X18252387Y-69056428D01*
X18252387Y-69056428D02*
X18323816Y-69056428D01*
X18323816Y-69056428D02*
X18371435Y-69080237D01*
X18371435Y-69080237D02*
X18395244Y-69104047D01*
X18395244Y-69104047D02*
X18419054Y-69151666D01*
X18419054Y-69151666D02*
X18419054Y-69342142D01*
X18204768Y-68865951D02*
X18180959Y-68842142D01*
X18180959Y-68842142D02*
X18157149Y-68794523D01*
X18157149Y-68794523D02*
X18157149Y-68675475D01*
X18157149Y-68675475D02*
X18180959Y-68627856D01*
X18180959Y-68627856D02*
X18204768Y-68604047D01*
X18204768Y-68604047D02*
X18252387Y-68580237D01*
X18252387Y-68580237D02*
X18300006Y-68580237D01*
X18300006Y-68580237D02*
X18371435Y-68604047D01*
X18371435Y-68604047D02*
X18657149Y-68889761D01*
X18657149Y-68889761D02*
X18657149Y-68580237D01*
X18657149Y-68342142D02*
X18657149Y-68246904D01*
X18657149Y-68246904D02*
X18633340Y-68199285D01*
X18633340Y-68199285D02*
X18609530Y-68175476D01*
X18609530Y-68175476D02*
X18538101Y-68127857D01*
X18538101Y-68127857D02*
X18442863Y-68104047D01*
X18442863Y-68104047D02*
X18252387Y-68104047D01*
X18252387Y-68104047D02*
X18204768Y-68127857D01*
X18204768Y-68127857D02*
X18180959Y-68151666D01*
X18180959Y-68151666D02*
X18157149Y-68199285D01*
X18157149Y-68199285D02*
X18157149Y-68294523D01*
X18157149Y-68294523D02*
X18180959Y-68342142D01*
X18180959Y-68342142D02*
X18204768Y-68365952D01*
X18204768Y-68365952D02*
X18252387Y-68389761D01*
X18252387Y-68389761D02*
X18371435Y-68389761D01*
X18371435Y-68389761D02*
X18419054Y-68365952D01*
X18419054Y-68365952D02*
X18442863Y-68342142D01*
X18442863Y-68342142D02*
X18466673Y-68294523D01*
X18466673Y-68294523D02*
X18466673Y-68199285D01*
X18466673Y-68199285D02*
X18442863Y-68151666D01*
X18442863Y-68151666D02*
X18419054Y-68127857D01*
X18419054Y-68127857D02*
X18371435Y-68104047D01*
X18208571Y-37827149D02*
X18041905Y-37589054D01*
X17922857Y-37827149D02*
X17922857Y-37327149D01*
X17922857Y-37327149D02*
X18113333Y-37327149D01*
X18113333Y-37327149D02*
X18160952Y-37350959D01*
X18160952Y-37350959D02*
X18184762Y-37374768D01*
X18184762Y-37374768D02*
X18208571Y-37422387D01*
X18208571Y-37422387D02*
X18208571Y-37493816D01*
X18208571Y-37493816D02*
X18184762Y-37541435D01*
X18184762Y-37541435D02*
X18160952Y-37565244D01*
X18160952Y-37565244D02*
X18113333Y-37589054D01*
X18113333Y-37589054D02*
X17922857Y-37589054D01*
X18684762Y-37827149D02*
X18399048Y-37827149D01*
X18541905Y-37827149D02*
X18541905Y-37327149D01*
X18541905Y-37327149D02*
X18494286Y-37398578D01*
X18494286Y-37398578D02*
X18446667Y-37446197D01*
X18446667Y-37446197D02*
X18399048Y-37470006D01*
X18922857Y-37827149D02*
X19018095Y-37827149D01*
X19018095Y-37827149D02*
X19065714Y-37803340D01*
X19065714Y-37803340D02*
X19089523Y-37779530D01*
X19089523Y-37779530D02*
X19137142Y-37708101D01*
X19137142Y-37708101D02*
X19160952Y-37612863D01*
X19160952Y-37612863D02*
X19160952Y-37422387D01*
X19160952Y-37422387D02*
X19137142Y-37374768D01*
X19137142Y-37374768D02*
X19113333Y-37350959D01*
X19113333Y-37350959D02*
X19065714Y-37327149D01*
X19065714Y-37327149D02*
X18970476Y-37327149D01*
X18970476Y-37327149D02*
X18922857Y-37350959D01*
X18922857Y-37350959D02*
X18899047Y-37374768D01*
X18899047Y-37374768D02*
X18875238Y-37422387D01*
X18875238Y-37422387D02*
X18875238Y-37541435D01*
X18875238Y-37541435D02*
X18899047Y-37589054D01*
X18899047Y-37589054D02*
X18922857Y-37612863D01*
X18922857Y-37612863D02*
X18970476Y-37636673D01*
X18970476Y-37636673D02*
X19065714Y-37636673D01*
X19065714Y-37636673D02*
X19113333Y-37612863D01*
X19113333Y-37612863D02*
X19137142Y-37589054D01*
X19137142Y-37589054D02*
X19160952Y-37541435D01*
X18308571Y-44227149D02*
X18141905Y-43989054D01*
X18022857Y-44227149D02*
X18022857Y-43727149D01*
X18022857Y-43727149D02*
X18213333Y-43727149D01*
X18213333Y-43727149D02*
X18260952Y-43750959D01*
X18260952Y-43750959D02*
X18284762Y-43774768D01*
X18284762Y-43774768D02*
X18308571Y-43822387D01*
X18308571Y-43822387D02*
X18308571Y-43893816D01*
X18308571Y-43893816D02*
X18284762Y-43941435D01*
X18284762Y-43941435D02*
X18260952Y-43965244D01*
X18260952Y-43965244D02*
X18213333Y-43989054D01*
X18213333Y-43989054D02*
X18022857Y-43989054D01*
X18499048Y-43774768D02*
X18522857Y-43750959D01*
X18522857Y-43750959D02*
X18570476Y-43727149D01*
X18570476Y-43727149D02*
X18689524Y-43727149D01*
X18689524Y-43727149D02*
X18737143Y-43750959D01*
X18737143Y-43750959D02*
X18760952Y-43774768D01*
X18760952Y-43774768D02*
X18784762Y-43822387D01*
X18784762Y-43822387D02*
X18784762Y-43870006D01*
X18784762Y-43870006D02*
X18760952Y-43941435D01*
X18760952Y-43941435D02*
X18475238Y-44227149D01*
X18475238Y-44227149D02*
X18784762Y-44227149D01*
X18951428Y-43727149D02*
X19260952Y-43727149D01*
X19260952Y-43727149D02*
X19094285Y-43917625D01*
X19094285Y-43917625D02*
X19165714Y-43917625D01*
X19165714Y-43917625D02*
X19213333Y-43941435D01*
X19213333Y-43941435D02*
X19237142Y-43965244D01*
X19237142Y-43965244D02*
X19260952Y-44012863D01*
X19260952Y-44012863D02*
X19260952Y-44131911D01*
X19260952Y-44131911D02*
X19237142Y-44179530D01*
X19237142Y-44179530D02*
X19213333Y-44203340D01*
X19213333Y-44203340D02*
X19165714Y-44227149D01*
X19165714Y-44227149D02*
X19022857Y-44227149D01*
X19022857Y-44227149D02*
X18975238Y-44203340D01*
X18975238Y-44203340D02*
X18951428Y-44179530D01*
X26268571Y-40339530D02*
X26244762Y-40363340D01*
X26244762Y-40363340D02*
X26173333Y-40387149D01*
X26173333Y-40387149D02*
X26125714Y-40387149D01*
X26125714Y-40387149D02*
X26054286Y-40363340D01*
X26054286Y-40363340D02*
X26006667Y-40315720D01*
X26006667Y-40315720D02*
X25982857Y-40268101D01*
X25982857Y-40268101D02*
X25959048Y-40172863D01*
X25959048Y-40172863D02*
X25959048Y-40101435D01*
X25959048Y-40101435D02*
X25982857Y-40006197D01*
X25982857Y-40006197D02*
X26006667Y-39958578D01*
X26006667Y-39958578D02*
X26054286Y-39910959D01*
X26054286Y-39910959D02*
X26125714Y-39887149D01*
X26125714Y-39887149D02*
X26173333Y-39887149D01*
X26173333Y-39887149D02*
X26244762Y-39910959D01*
X26244762Y-39910959D02*
X26268571Y-39934768D01*
X26435238Y-39887149D02*
X26744762Y-39887149D01*
X26744762Y-39887149D02*
X26578095Y-40077625D01*
X26578095Y-40077625D02*
X26649524Y-40077625D01*
X26649524Y-40077625D02*
X26697143Y-40101435D01*
X26697143Y-40101435D02*
X26720952Y-40125244D01*
X26720952Y-40125244D02*
X26744762Y-40172863D01*
X26744762Y-40172863D02*
X26744762Y-40291911D01*
X26744762Y-40291911D02*
X26720952Y-40339530D01*
X26720952Y-40339530D02*
X26697143Y-40363340D01*
X26697143Y-40363340D02*
X26649524Y-40387149D01*
X26649524Y-40387149D02*
X26506667Y-40387149D01*
X26506667Y-40387149D02*
X26459048Y-40363340D01*
X26459048Y-40363340D02*
X26435238Y-40339530D01*
X27054285Y-39887149D02*
X27101904Y-39887149D01*
X27101904Y-39887149D02*
X27149523Y-39910959D01*
X27149523Y-39910959D02*
X27173333Y-39934768D01*
X27173333Y-39934768D02*
X27197142Y-39982387D01*
X27197142Y-39982387D02*
X27220952Y-40077625D01*
X27220952Y-40077625D02*
X27220952Y-40196673D01*
X27220952Y-40196673D02*
X27197142Y-40291911D01*
X27197142Y-40291911D02*
X27173333Y-40339530D01*
X27173333Y-40339530D02*
X27149523Y-40363340D01*
X27149523Y-40363340D02*
X27101904Y-40387149D01*
X27101904Y-40387149D02*
X27054285Y-40387149D01*
X27054285Y-40387149D02*
X27006666Y-40363340D01*
X27006666Y-40363340D02*
X26982857Y-40339530D01*
X26982857Y-40339530D02*
X26959047Y-40291911D01*
X26959047Y-40291911D02*
X26935238Y-40196673D01*
X26935238Y-40196673D02*
X26935238Y-40077625D01*
X26935238Y-40077625D02*
X26959047Y-39982387D01*
X26959047Y-39982387D02*
X26982857Y-39934768D01*
X26982857Y-39934768D02*
X27006666Y-39910959D01*
X27006666Y-39910959D02*
X27054285Y-39887149D01*
X37448333Y-29147149D02*
X37448333Y-29504292D01*
X37448333Y-29504292D02*
X37424524Y-29575720D01*
X37424524Y-29575720D02*
X37376905Y-29623340D01*
X37376905Y-29623340D02*
X37305476Y-29647149D01*
X37305476Y-29647149D02*
X37257857Y-29647149D01*
X37662619Y-29194768D02*
X37686428Y-29170959D01*
X37686428Y-29170959D02*
X37734047Y-29147149D01*
X37734047Y-29147149D02*
X37853095Y-29147149D01*
X37853095Y-29147149D02*
X37900714Y-29170959D01*
X37900714Y-29170959D02*
X37924523Y-29194768D01*
X37924523Y-29194768D02*
X37948333Y-29242387D01*
X37948333Y-29242387D02*
X37948333Y-29290006D01*
X37948333Y-29290006D02*
X37924523Y-29361435D01*
X37924523Y-29361435D02*
X37638809Y-29647149D01*
X37638809Y-29647149D02*
X37948333Y-29647149D01*
X23856666Y-35114530D02*
X23832857Y-35138340D01*
X23832857Y-35138340D02*
X23761428Y-35162149D01*
X23761428Y-35162149D02*
X23713809Y-35162149D01*
X23713809Y-35162149D02*
X23642381Y-35138340D01*
X23642381Y-35138340D02*
X23594762Y-35090720D01*
X23594762Y-35090720D02*
X23570952Y-35043101D01*
X23570952Y-35043101D02*
X23547143Y-34947863D01*
X23547143Y-34947863D02*
X23547143Y-34876435D01*
X23547143Y-34876435D02*
X23570952Y-34781197D01*
X23570952Y-34781197D02*
X23594762Y-34733578D01*
X23594762Y-34733578D02*
X23642381Y-34685959D01*
X23642381Y-34685959D02*
X23713809Y-34662149D01*
X23713809Y-34662149D02*
X23761428Y-34662149D01*
X23761428Y-34662149D02*
X23832857Y-34685959D01*
X23832857Y-34685959D02*
X23856666Y-34709768D01*
X24332857Y-35162149D02*
X24047143Y-35162149D01*
X24190000Y-35162149D02*
X24190000Y-34662149D01*
X24190000Y-34662149D02*
X24142381Y-34733578D01*
X24142381Y-34733578D02*
X24094762Y-34781197D01*
X24094762Y-34781197D02*
X24047143Y-34805006D01*
X24642380Y-34662149D02*
X24689999Y-34662149D01*
X24689999Y-34662149D02*
X24737618Y-34685959D01*
X24737618Y-34685959D02*
X24761428Y-34709768D01*
X24761428Y-34709768D02*
X24785237Y-34757387D01*
X24785237Y-34757387D02*
X24809047Y-34852625D01*
X24809047Y-34852625D02*
X24809047Y-34971673D01*
X24809047Y-34971673D02*
X24785237Y-35066911D01*
X24785237Y-35066911D02*
X24761428Y-35114530D01*
X24761428Y-35114530D02*
X24737618Y-35138340D01*
X24737618Y-35138340D02*
X24689999Y-35162149D01*
X24689999Y-35162149D02*
X24642380Y-35162149D01*
X24642380Y-35162149D02*
X24594761Y-35138340D01*
X24594761Y-35138340D02*
X24570952Y-35114530D01*
X24570952Y-35114530D02*
X24547142Y-35066911D01*
X24547142Y-35066911D02*
X24523333Y-34971673D01*
X24523333Y-34971673D02*
X24523333Y-34852625D01*
X24523333Y-34852625D02*
X24547142Y-34757387D01*
X24547142Y-34757387D02*
X24570952Y-34709768D01*
X24570952Y-34709768D02*
X24594761Y-34685959D01*
X24594761Y-34685959D02*
X24642380Y-34662149D01*
X31547149Y-35311428D02*
X31309054Y-35478094D01*
X31547149Y-35597142D02*
X31047149Y-35597142D01*
X31047149Y-35597142D02*
X31047149Y-35406666D01*
X31047149Y-35406666D02*
X31070959Y-35359047D01*
X31070959Y-35359047D02*
X31094768Y-35335237D01*
X31094768Y-35335237D02*
X31142387Y-35311428D01*
X31142387Y-35311428D02*
X31213816Y-35311428D01*
X31213816Y-35311428D02*
X31261435Y-35335237D01*
X31261435Y-35335237D02*
X31285244Y-35359047D01*
X31285244Y-35359047D02*
X31309054Y-35406666D01*
X31309054Y-35406666D02*
X31309054Y-35597142D01*
X31547149Y-34835237D02*
X31547149Y-35120951D01*
X31547149Y-34978094D02*
X31047149Y-34978094D01*
X31047149Y-34978094D02*
X31118578Y-35025713D01*
X31118578Y-35025713D02*
X31166197Y-35073332D01*
X31166197Y-35073332D02*
X31190006Y-35120951D01*
X31547149Y-34359047D02*
X31547149Y-34644761D01*
X31547149Y-34501904D02*
X31047149Y-34501904D01*
X31047149Y-34501904D02*
X31118578Y-34549523D01*
X31118578Y-34549523D02*
X31166197Y-34597142D01*
X31166197Y-34597142D02*
X31190006Y-34644761D01*
X34638571Y-31177149D02*
X34471905Y-30939054D01*
X34352857Y-31177149D02*
X34352857Y-30677149D01*
X34352857Y-30677149D02*
X34543333Y-30677149D01*
X34543333Y-30677149D02*
X34590952Y-30700959D01*
X34590952Y-30700959D02*
X34614762Y-30724768D01*
X34614762Y-30724768D02*
X34638571Y-30772387D01*
X34638571Y-30772387D02*
X34638571Y-30843816D01*
X34638571Y-30843816D02*
X34614762Y-30891435D01*
X34614762Y-30891435D02*
X34590952Y-30915244D01*
X34590952Y-30915244D02*
X34543333Y-30939054D01*
X34543333Y-30939054D02*
X34352857Y-30939054D01*
X35114762Y-31177149D02*
X34829048Y-31177149D01*
X34971905Y-31177149D02*
X34971905Y-30677149D01*
X34971905Y-30677149D02*
X34924286Y-30748578D01*
X34924286Y-30748578D02*
X34876667Y-30796197D01*
X34876667Y-30796197D02*
X34829048Y-30820006D01*
X35400476Y-30891435D02*
X35352857Y-30867625D01*
X35352857Y-30867625D02*
X35329047Y-30843816D01*
X35329047Y-30843816D02*
X35305238Y-30796197D01*
X35305238Y-30796197D02*
X35305238Y-30772387D01*
X35305238Y-30772387D02*
X35329047Y-30724768D01*
X35329047Y-30724768D02*
X35352857Y-30700959D01*
X35352857Y-30700959D02*
X35400476Y-30677149D01*
X35400476Y-30677149D02*
X35495714Y-30677149D01*
X35495714Y-30677149D02*
X35543333Y-30700959D01*
X35543333Y-30700959D02*
X35567142Y-30724768D01*
X35567142Y-30724768D02*
X35590952Y-30772387D01*
X35590952Y-30772387D02*
X35590952Y-30796197D01*
X35590952Y-30796197D02*
X35567142Y-30843816D01*
X35567142Y-30843816D02*
X35543333Y-30867625D01*
X35543333Y-30867625D02*
X35495714Y-30891435D01*
X35495714Y-30891435D02*
X35400476Y-30891435D01*
X35400476Y-30891435D02*
X35352857Y-30915244D01*
X35352857Y-30915244D02*
X35329047Y-30939054D01*
X35329047Y-30939054D02*
X35305238Y-30986673D01*
X35305238Y-30986673D02*
X35305238Y-31081911D01*
X35305238Y-31081911D02*
X35329047Y-31129530D01*
X35329047Y-31129530D02*
X35352857Y-31153340D01*
X35352857Y-31153340D02*
X35400476Y-31177149D01*
X35400476Y-31177149D02*
X35495714Y-31177149D01*
X35495714Y-31177149D02*
X35543333Y-31153340D01*
X35543333Y-31153340D02*
X35567142Y-31129530D01*
X35567142Y-31129530D02*
X35590952Y-31081911D01*
X35590952Y-31081911D02*
X35590952Y-30986673D01*
X35590952Y-30986673D02*
X35567142Y-30939054D01*
X35567142Y-30939054D02*
X35543333Y-30915244D01*
X35543333Y-30915244D02*
X35495714Y-30891435D01*
X26291666Y-69613353D02*
X26053571Y-69613353D01*
X26053571Y-69613353D02*
X26053571Y-69113353D01*
X26720238Y-69613353D02*
X26434524Y-69613353D01*
X26577381Y-69613353D02*
X26577381Y-69113353D01*
X26577381Y-69113353D02*
X26529762Y-69184782D01*
X26529762Y-69184782D02*
X26482143Y-69232401D01*
X26482143Y-69232401D02*
X26434524Y-69256210D01*
X32998571Y-39887149D02*
X32831905Y-39649054D01*
X32712857Y-39887149D02*
X32712857Y-39387149D01*
X32712857Y-39387149D02*
X32903333Y-39387149D01*
X32903333Y-39387149D02*
X32950952Y-39410959D01*
X32950952Y-39410959D02*
X32974762Y-39434768D01*
X32974762Y-39434768D02*
X32998571Y-39482387D01*
X32998571Y-39482387D02*
X32998571Y-39553816D01*
X32998571Y-39553816D02*
X32974762Y-39601435D01*
X32974762Y-39601435D02*
X32950952Y-39625244D01*
X32950952Y-39625244D02*
X32903333Y-39649054D01*
X32903333Y-39649054D02*
X32712857Y-39649054D01*
X33189048Y-39434768D02*
X33212857Y-39410959D01*
X33212857Y-39410959D02*
X33260476Y-39387149D01*
X33260476Y-39387149D02*
X33379524Y-39387149D01*
X33379524Y-39387149D02*
X33427143Y-39410959D01*
X33427143Y-39410959D02*
X33450952Y-39434768D01*
X33450952Y-39434768D02*
X33474762Y-39482387D01*
X33474762Y-39482387D02*
X33474762Y-39530006D01*
X33474762Y-39530006D02*
X33450952Y-39601435D01*
X33450952Y-39601435D02*
X33165238Y-39887149D01*
X33165238Y-39887149D02*
X33474762Y-39887149D01*
X33950952Y-39887149D02*
X33665238Y-39887149D01*
X33808095Y-39887149D02*
X33808095Y-39387149D01*
X33808095Y-39387149D02*
X33760476Y-39458578D01*
X33760476Y-39458578D02*
X33712857Y-39506197D01*
X33712857Y-39506197D02*
X33665238Y-39530006D01*
X35656666Y-28249530D02*
X35632857Y-28273340D01*
X35632857Y-28273340D02*
X35561428Y-28297149D01*
X35561428Y-28297149D02*
X35513809Y-28297149D01*
X35513809Y-28297149D02*
X35442381Y-28273340D01*
X35442381Y-28273340D02*
X35394762Y-28225720D01*
X35394762Y-28225720D02*
X35370952Y-28178101D01*
X35370952Y-28178101D02*
X35347143Y-28082863D01*
X35347143Y-28082863D02*
X35347143Y-28011435D01*
X35347143Y-28011435D02*
X35370952Y-27916197D01*
X35370952Y-27916197D02*
X35394762Y-27868578D01*
X35394762Y-27868578D02*
X35442381Y-27820959D01*
X35442381Y-27820959D02*
X35513809Y-27797149D01*
X35513809Y-27797149D02*
X35561428Y-27797149D01*
X35561428Y-27797149D02*
X35632857Y-27820959D01*
X35632857Y-27820959D02*
X35656666Y-27844768D01*
X35823333Y-27797149D02*
X36156666Y-27797149D01*
X36156666Y-27797149D02*
X35942381Y-28297149D01*
X22098571Y-66924530D02*
X22074762Y-66948340D01*
X22074762Y-66948340D02*
X22003333Y-66972149D01*
X22003333Y-66972149D02*
X21955714Y-66972149D01*
X21955714Y-66972149D02*
X21884286Y-66948340D01*
X21884286Y-66948340D02*
X21836667Y-66900720D01*
X21836667Y-66900720D02*
X21812857Y-66853101D01*
X21812857Y-66853101D02*
X21789048Y-66757863D01*
X21789048Y-66757863D02*
X21789048Y-66686435D01*
X21789048Y-66686435D02*
X21812857Y-66591197D01*
X21812857Y-66591197D02*
X21836667Y-66543578D01*
X21836667Y-66543578D02*
X21884286Y-66495959D01*
X21884286Y-66495959D02*
X21955714Y-66472149D01*
X21955714Y-66472149D02*
X22003333Y-66472149D01*
X22003333Y-66472149D02*
X22074762Y-66495959D01*
X22074762Y-66495959D02*
X22098571Y-66519768D01*
X22289048Y-66519768D02*
X22312857Y-66495959D01*
X22312857Y-66495959D02*
X22360476Y-66472149D01*
X22360476Y-66472149D02*
X22479524Y-66472149D01*
X22479524Y-66472149D02*
X22527143Y-66495959D01*
X22527143Y-66495959D02*
X22550952Y-66519768D01*
X22550952Y-66519768D02*
X22574762Y-66567387D01*
X22574762Y-66567387D02*
X22574762Y-66615006D01*
X22574762Y-66615006D02*
X22550952Y-66686435D01*
X22550952Y-66686435D02*
X22265238Y-66972149D01*
X22265238Y-66972149D02*
X22574762Y-66972149D01*
X23003333Y-66472149D02*
X22908095Y-66472149D01*
X22908095Y-66472149D02*
X22860476Y-66495959D01*
X22860476Y-66495959D02*
X22836666Y-66519768D01*
X22836666Y-66519768D02*
X22789047Y-66591197D01*
X22789047Y-66591197D02*
X22765238Y-66686435D01*
X22765238Y-66686435D02*
X22765238Y-66876911D01*
X22765238Y-66876911D02*
X22789047Y-66924530D01*
X22789047Y-66924530D02*
X22812857Y-66948340D01*
X22812857Y-66948340D02*
X22860476Y-66972149D01*
X22860476Y-66972149D02*
X22955714Y-66972149D01*
X22955714Y-66972149D02*
X23003333Y-66948340D01*
X23003333Y-66948340D02*
X23027142Y-66924530D01*
X23027142Y-66924530D02*
X23050952Y-66876911D01*
X23050952Y-66876911D02*
X23050952Y-66757863D01*
X23050952Y-66757863D02*
X23027142Y-66710244D01*
X23027142Y-66710244D02*
X23003333Y-66686435D01*
X23003333Y-66686435D02*
X22955714Y-66662625D01*
X22955714Y-66662625D02*
X22860476Y-66662625D01*
X22860476Y-66662625D02*
X22812857Y-66686435D01*
X22812857Y-66686435D02*
X22789047Y-66710244D01*
X22789047Y-66710244D02*
X22765238Y-66757863D01*
X22708571Y-70189530D02*
X22684762Y-70213340D01*
X22684762Y-70213340D02*
X22613333Y-70237149D01*
X22613333Y-70237149D02*
X22565714Y-70237149D01*
X22565714Y-70237149D02*
X22494286Y-70213340D01*
X22494286Y-70213340D02*
X22446667Y-70165720D01*
X22446667Y-70165720D02*
X22422857Y-70118101D01*
X22422857Y-70118101D02*
X22399048Y-70022863D01*
X22399048Y-70022863D02*
X22399048Y-69951435D01*
X22399048Y-69951435D02*
X22422857Y-69856197D01*
X22422857Y-69856197D02*
X22446667Y-69808578D01*
X22446667Y-69808578D02*
X22494286Y-69760959D01*
X22494286Y-69760959D02*
X22565714Y-69737149D01*
X22565714Y-69737149D02*
X22613333Y-69737149D01*
X22613333Y-69737149D02*
X22684762Y-69760959D01*
X22684762Y-69760959D02*
X22708571Y-69784768D01*
X22899048Y-69784768D02*
X22922857Y-69760959D01*
X22922857Y-69760959D02*
X22970476Y-69737149D01*
X22970476Y-69737149D02*
X23089524Y-69737149D01*
X23089524Y-69737149D02*
X23137143Y-69760959D01*
X23137143Y-69760959D02*
X23160952Y-69784768D01*
X23160952Y-69784768D02*
X23184762Y-69832387D01*
X23184762Y-69832387D02*
X23184762Y-69880006D01*
X23184762Y-69880006D02*
X23160952Y-69951435D01*
X23160952Y-69951435D02*
X22875238Y-70237149D01*
X22875238Y-70237149D02*
X23184762Y-70237149D01*
X23351428Y-69737149D02*
X23684761Y-69737149D01*
X23684761Y-69737149D02*
X23470476Y-70237149D01*
X30847149Y-35311428D02*
X30609054Y-35478094D01*
X30847149Y-35597142D02*
X30347149Y-35597142D01*
X30347149Y-35597142D02*
X30347149Y-35406666D01*
X30347149Y-35406666D02*
X30370959Y-35359047D01*
X30370959Y-35359047D02*
X30394768Y-35335237D01*
X30394768Y-35335237D02*
X30442387Y-35311428D01*
X30442387Y-35311428D02*
X30513816Y-35311428D01*
X30513816Y-35311428D02*
X30561435Y-35335237D01*
X30561435Y-35335237D02*
X30585244Y-35359047D01*
X30585244Y-35359047D02*
X30609054Y-35406666D01*
X30609054Y-35406666D02*
X30609054Y-35597142D01*
X30347149Y-35144761D02*
X30347149Y-34835237D01*
X30347149Y-34835237D02*
X30537625Y-35001904D01*
X30537625Y-35001904D02*
X30537625Y-34930475D01*
X30537625Y-34930475D02*
X30561435Y-34882856D01*
X30561435Y-34882856D02*
X30585244Y-34859047D01*
X30585244Y-34859047D02*
X30632863Y-34835237D01*
X30632863Y-34835237D02*
X30751911Y-34835237D01*
X30751911Y-34835237D02*
X30799530Y-34859047D01*
X30799530Y-34859047D02*
X30823340Y-34882856D01*
X30823340Y-34882856D02*
X30847149Y-34930475D01*
X30847149Y-34930475D02*
X30847149Y-35073332D01*
X30847149Y-35073332D02*
X30823340Y-35120951D01*
X30823340Y-35120951D02*
X30799530Y-35144761D01*
X30347149Y-34668571D02*
X30347149Y-34359047D01*
X30347149Y-34359047D02*
X30537625Y-34525714D01*
X30537625Y-34525714D02*
X30537625Y-34454285D01*
X30537625Y-34454285D02*
X30561435Y-34406666D01*
X30561435Y-34406666D02*
X30585244Y-34382857D01*
X30585244Y-34382857D02*
X30632863Y-34359047D01*
X30632863Y-34359047D02*
X30751911Y-34359047D01*
X30751911Y-34359047D02*
X30799530Y-34382857D01*
X30799530Y-34382857D02*
X30823340Y-34406666D01*
X30823340Y-34406666D02*
X30847149Y-34454285D01*
X30847149Y-34454285D02*
X30847149Y-34597142D01*
X30847149Y-34597142D02*
X30823340Y-34644761D01*
X30823340Y-34644761D02*
X30799530Y-34668571D01*
X25528333Y-22677149D02*
X25528333Y-23034292D01*
X25528333Y-23034292D02*
X25504524Y-23105720D01*
X25504524Y-23105720D02*
X25456905Y-23153340D01*
X25456905Y-23153340D02*
X25385476Y-23177149D01*
X25385476Y-23177149D02*
X25337857Y-23177149D01*
X26028333Y-23177149D02*
X25742619Y-23177149D01*
X25885476Y-23177149D02*
X25885476Y-22677149D01*
X25885476Y-22677149D02*
X25837857Y-22748578D01*
X25837857Y-22748578D02*
X25790238Y-22796197D01*
X25790238Y-22796197D02*
X25742619Y-22820006D01*
X36703571Y-66754530D02*
X36679762Y-66778340D01*
X36679762Y-66778340D02*
X36608333Y-66802149D01*
X36608333Y-66802149D02*
X36560714Y-66802149D01*
X36560714Y-66802149D02*
X36489286Y-66778340D01*
X36489286Y-66778340D02*
X36441667Y-66730720D01*
X36441667Y-66730720D02*
X36417857Y-66683101D01*
X36417857Y-66683101D02*
X36394048Y-66587863D01*
X36394048Y-66587863D02*
X36394048Y-66516435D01*
X36394048Y-66516435D02*
X36417857Y-66421197D01*
X36417857Y-66421197D02*
X36441667Y-66373578D01*
X36441667Y-66373578D02*
X36489286Y-66325959D01*
X36489286Y-66325959D02*
X36560714Y-66302149D01*
X36560714Y-66302149D02*
X36608333Y-66302149D01*
X36608333Y-66302149D02*
X36679762Y-66325959D01*
X36679762Y-66325959D02*
X36703571Y-66349768D01*
X36894048Y-66349768D02*
X36917857Y-66325959D01*
X36917857Y-66325959D02*
X36965476Y-66302149D01*
X36965476Y-66302149D02*
X37084524Y-66302149D01*
X37084524Y-66302149D02*
X37132143Y-66325959D01*
X37132143Y-66325959D02*
X37155952Y-66349768D01*
X37155952Y-66349768D02*
X37179762Y-66397387D01*
X37179762Y-66397387D02*
X37179762Y-66445006D01*
X37179762Y-66445006D02*
X37155952Y-66516435D01*
X37155952Y-66516435D02*
X36870238Y-66802149D01*
X36870238Y-66802149D02*
X37179762Y-66802149D01*
X37608333Y-66468816D02*
X37608333Y-66802149D01*
X37489285Y-66278340D02*
X37370238Y-66635482D01*
X37370238Y-66635482D02*
X37679761Y-66635482D01*
X26489047Y-27657149D02*
X26489047Y-28061911D01*
X26489047Y-28061911D02*
X26512857Y-28109530D01*
X26512857Y-28109530D02*
X26536666Y-28133340D01*
X26536666Y-28133340D02*
X26584285Y-28157149D01*
X26584285Y-28157149D02*
X26679523Y-28157149D01*
X26679523Y-28157149D02*
X26727142Y-28133340D01*
X26727142Y-28133340D02*
X26750952Y-28109530D01*
X26750952Y-28109530D02*
X26774761Y-28061911D01*
X26774761Y-28061911D02*
X26774761Y-27657149D01*
X26989048Y-27704768D02*
X27012857Y-27680959D01*
X27012857Y-27680959D02*
X27060476Y-27657149D01*
X27060476Y-27657149D02*
X27179524Y-27657149D01*
X27179524Y-27657149D02*
X27227143Y-27680959D01*
X27227143Y-27680959D02*
X27250952Y-27704768D01*
X27250952Y-27704768D02*
X27274762Y-27752387D01*
X27274762Y-27752387D02*
X27274762Y-27800006D01*
X27274762Y-27800006D02*
X27250952Y-27871435D01*
X27250952Y-27871435D02*
X26965238Y-28157149D01*
X26965238Y-28157149D02*
X27274762Y-28157149D01*
D12*
X24670000Y-27544819D02*
X24670000Y-27782914D01*
X24431905Y-27687676D02*
X24670000Y-27782914D01*
X24670000Y-27782914D02*
X24908095Y-27687676D01*
X24527143Y-27973390D02*
X24670000Y-27782914D01*
X24670000Y-27782914D02*
X24812857Y-27973390D01*
X24670000Y-27544819D02*
X24670000Y-27782914D01*
X24431905Y-27687676D02*
X24670000Y-27782914D01*
X24670000Y-27782914D02*
X24908095Y-27687676D01*
X24527143Y-27973390D02*
X24670000Y-27782914D01*
X24670000Y-27782914D02*
X24812857Y-27973390D01*
D11*
X22713571Y-56729530D02*
X22689762Y-56753340D01*
X22689762Y-56753340D02*
X22618333Y-56777149D01*
X22618333Y-56777149D02*
X22570714Y-56777149D01*
X22570714Y-56777149D02*
X22499286Y-56753340D01*
X22499286Y-56753340D02*
X22451667Y-56705720D01*
X22451667Y-56705720D02*
X22427857Y-56658101D01*
X22427857Y-56658101D02*
X22404048Y-56562863D01*
X22404048Y-56562863D02*
X22404048Y-56491435D01*
X22404048Y-56491435D02*
X22427857Y-56396197D01*
X22427857Y-56396197D02*
X22451667Y-56348578D01*
X22451667Y-56348578D02*
X22499286Y-56300959D01*
X22499286Y-56300959D02*
X22570714Y-56277149D01*
X22570714Y-56277149D02*
X22618333Y-56277149D01*
X22618333Y-56277149D02*
X22689762Y-56300959D01*
X22689762Y-56300959D02*
X22713571Y-56324768D01*
X22904048Y-56324768D02*
X22927857Y-56300959D01*
X22927857Y-56300959D02*
X22975476Y-56277149D01*
X22975476Y-56277149D02*
X23094524Y-56277149D01*
X23094524Y-56277149D02*
X23142143Y-56300959D01*
X23142143Y-56300959D02*
X23165952Y-56324768D01*
X23165952Y-56324768D02*
X23189762Y-56372387D01*
X23189762Y-56372387D02*
X23189762Y-56420006D01*
X23189762Y-56420006D02*
X23165952Y-56491435D01*
X23165952Y-56491435D02*
X22880238Y-56777149D01*
X22880238Y-56777149D02*
X23189762Y-56777149D01*
X23380238Y-56324768D02*
X23404047Y-56300959D01*
X23404047Y-56300959D02*
X23451666Y-56277149D01*
X23451666Y-56277149D02*
X23570714Y-56277149D01*
X23570714Y-56277149D02*
X23618333Y-56300959D01*
X23618333Y-56300959D02*
X23642142Y-56324768D01*
X23642142Y-56324768D02*
X23665952Y-56372387D01*
X23665952Y-56372387D02*
X23665952Y-56420006D01*
X23665952Y-56420006D02*
X23642142Y-56491435D01*
X23642142Y-56491435D02*
X23356428Y-56777149D01*
X23356428Y-56777149D02*
X23665952Y-56777149D01*
X32247149Y-35311428D02*
X32009054Y-35478094D01*
X32247149Y-35597142D02*
X31747149Y-35597142D01*
X31747149Y-35597142D02*
X31747149Y-35406666D01*
X31747149Y-35406666D02*
X31770959Y-35359047D01*
X31770959Y-35359047D02*
X31794768Y-35335237D01*
X31794768Y-35335237D02*
X31842387Y-35311428D01*
X31842387Y-35311428D02*
X31913816Y-35311428D01*
X31913816Y-35311428D02*
X31961435Y-35335237D01*
X31961435Y-35335237D02*
X31985244Y-35359047D01*
X31985244Y-35359047D02*
X32009054Y-35406666D01*
X32009054Y-35406666D02*
X32009054Y-35597142D01*
X32247149Y-34835237D02*
X32247149Y-35120951D01*
X32247149Y-34978094D02*
X31747149Y-34978094D01*
X31747149Y-34978094D02*
X31818578Y-35025713D01*
X31818578Y-35025713D02*
X31866197Y-35073332D01*
X31866197Y-35073332D02*
X31890006Y-35120951D01*
X31794768Y-34644761D02*
X31770959Y-34620952D01*
X31770959Y-34620952D02*
X31747149Y-34573333D01*
X31747149Y-34573333D02*
X31747149Y-34454285D01*
X31747149Y-34454285D02*
X31770959Y-34406666D01*
X31770959Y-34406666D02*
X31794768Y-34382857D01*
X31794768Y-34382857D02*
X31842387Y-34359047D01*
X31842387Y-34359047D02*
X31890006Y-34359047D01*
X31890006Y-34359047D02*
X31961435Y-34382857D01*
X31961435Y-34382857D02*
X32247149Y-34668571D01*
X32247149Y-34668571D02*
X32247149Y-34359047D01*
X27037149Y-55251428D02*
X26799054Y-55418094D01*
X27037149Y-55537142D02*
X26537149Y-55537142D01*
X26537149Y-55537142D02*
X26537149Y-55346666D01*
X26537149Y-55346666D02*
X26560959Y-55299047D01*
X26560959Y-55299047D02*
X26584768Y-55275237D01*
X26584768Y-55275237D02*
X26632387Y-55251428D01*
X26632387Y-55251428D02*
X26703816Y-55251428D01*
X26703816Y-55251428D02*
X26751435Y-55275237D01*
X26751435Y-55275237D02*
X26775244Y-55299047D01*
X26775244Y-55299047D02*
X26799054Y-55346666D01*
X26799054Y-55346666D02*
X26799054Y-55537142D01*
X26584768Y-55060951D02*
X26560959Y-55037142D01*
X26560959Y-55037142D02*
X26537149Y-54989523D01*
X26537149Y-54989523D02*
X26537149Y-54870475D01*
X26537149Y-54870475D02*
X26560959Y-54822856D01*
X26560959Y-54822856D02*
X26584768Y-54799047D01*
X26584768Y-54799047D02*
X26632387Y-54775237D01*
X26632387Y-54775237D02*
X26680006Y-54775237D01*
X26680006Y-54775237D02*
X26751435Y-54799047D01*
X26751435Y-54799047D02*
X27037149Y-55084761D01*
X27037149Y-55084761D02*
X27037149Y-54775237D01*
X26537149Y-54346666D02*
X26537149Y-54441904D01*
X26537149Y-54441904D02*
X26560959Y-54489523D01*
X26560959Y-54489523D02*
X26584768Y-54513333D01*
X26584768Y-54513333D02*
X26656197Y-54560952D01*
X26656197Y-54560952D02*
X26751435Y-54584761D01*
X26751435Y-54584761D02*
X26941911Y-54584761D01*
X26941911Y-54584761D02*
X26989530Y-54560952D01*
X26989530Y-54560952D02*
X27013340Y-54537142D01*
X27013340Y-54537142D02*
X27037149Y-54489523D01*
X27037149Y-54489523D02*
X27037149Y-54394285D01*
X27037149Y-54394285D02*
X27013340Y-54346666D01*
X27013340Y-54346666D02*
X26989530Y-54322857D01*
X26989530Y-54322857D02*
X26941911Y-54299047D01*
X26941911Y-54299047D02*
X26822863Y-54299047D01*
X26822863Y-54299047D02*
X26775244Y-54322857D01*
X26775244Y-54322857D02*
X26751435Y-54346666D01*
X26751435Y-54346666D02*
X26727625Y-54394285D01*
X26727625Y-54394285D02*
X26727625Y-54489523D01*
X26727625Y-54489523D02*
X26751435Y-54537142D01*
X26751435Y-54537142D02*
X26775244Y-54560952D01*
X26775244Y-54560952D02*
X26822863Y-54584761D01*
X22318571Y-39647149D02*
X22151905Y-39409054D01*
X22032857Y-39647149D02*
X22032857Y-39147149D01*
X22032857Y-39147149D02*
X22223333Y-39147149D01*
X22223333Y-39147149D02*
X22270952Y-39170959D01*
X22270952Y-39170959D02*
X22294762Y-39194768D01*
X22294762Y-39194768D02*
X22318571Y-39242387D01*
X22318571Y-39242387D02*
X22318571Y-39313816D01*
X22318571Y-39313816D02*
X22294762Y-39361435D01*
X22294762Y-39361435D02*
X22270952Y-39385244D01*
X22270952Y-39385244D02*
X22223333Y-39409054D01*
X22223333Y-39409054D02*
X22032857Y-39409054D01*
X22485238Y-39147149D02*
X22794762Y-39147149D01*
X22794762Y-39147149D02*
X22628095Y-39337625D01*
X22628095Y-39337625D02*
X22699524Y-39337625D01*
X22699524Y-39337625D02*
X22747143Y-39361435D01*
X22747143Y-39361435D02*
X22770952Y-39385244D01*
X22770952Y-39385244D02*
X22794762Y-39432863D01*
X22794762Y-39432863D02*
X22794762Y-39551911D01*
X22794762Y-39551911D02*
X22770952Y-39599530D01*
X22770952Y-39599530D02*
X22747143Y-39623340D01*
X22747143Y-39623340D02*
X22699524Y-39647149D01*
X22699524Y-39647149D02*
X22556667Y-39647149D01*
X22556667Y-39647149D02*
X22509048Y-39623340D01*
X22509048Y-39623340D02*
X22485238Y-39599530D01*
X23270952Y-39647149D02*
X22985238Y-39647149D01*
X23128095Y-39647149D02*
X23128095Y-39147149D01*
X23128095Y-39147149D02*
X23080476Y-39218578D01*
X23080476Y-39218578D02*
X23032857Y-39266197D01*
X23032857Y-39266197D02*
X22985238Y-39290006D01*
X29149530Y-53946428D02*
X29173340Y-53970237D01*
X29173340Y-53970237D02*
X29197149Y-54041666D01*
X29197149Y-54041666D02*
X29197149Y-54089285D01*
X29197149Y-54089285D02*
X29173340Y-54160713D01*
X29173340Y-54160713D02*
X29125720Y-54208332D01*
X29125720Y-54208332D02*
X29078101Y-54232142D01*
X29078101Y-54232142D02*
X28982863Y-54255951D01*
X28982863Y-54255951D02*
X28911435Y-54255951D01*
X28911435Y-54255951D02*
X28816197Y-54232142D01*
X28816197Y-54232142D02*
X28768578Y-54208332D01*
X28768578Y-54208332D02*
X28720959Y-54160713D01*
X28720959Y-54160713D02*
X28697149Y-54089285D01*
X28697149Y-54089285D02*
X28697149Y-54041666D01*
X28697149Y-54041666D02*
X28720959Y-53970237D01*
X28720959Y-53970237D02*
X28744768Y-53946428D01*
X29197149Y-53470237D02*
X29197149Y-53755951D01*
X29197149Y-53613094D02*
X28697149Y-53613094D01*
X28697149Y-53613094D02*
X28768578Y-53660713D01*
X28768578Y-53660713D02*
X28816197Y-53708332D01*
X28816197Y-53708332D02*
X28840006Y-53755951D01*
X28911435Y-53184523D02*
X28887625Y-53232142D01*
X28887625Y-53232142D02*
X28863816Y-53255952D01*
X28863816Y-53255952D02*
X28816197Y-53279761D01*
X28816197Y-53279761D02*
X28792387Y-53279761D01*
X28792387Y-53279761D02*
X28744768Y-53255952D01*
X28744768Y-53255952D02*
X28720959Y-53232142D01*
X28720959Y-53232142D02*
X28697149Y-53184523D01*
X28697149Y-53184523D02*
X28697149Y-53089285D01*
X28697149Y-53089285D02*
X28720959Y-53041666D01*
X28720959Y-53041666D02*
X28744768Y-53017857D01*
X28744768Y-53017857D02*
X28792387Y-52994047D01*
X28792387Y-52994047D02*
X28816197Y-52994047D01*
X28816197Y-52994047D02*
X28863816Y-53017857D01*
X28863816Y-53017857D02*
X28887625Y-53041666D01*
X28887625Y-53041666D02*
X28911435Y-53089285D01*
X28911435Y-53089285D02*
X28911435Y-53184523D01*
X28911435Y-53184523D02*
X28935244Y-53232142D01*
X28935244Y-53232142D02*
X28959054Y-53255952D01*
X28959054Y-53255952D02*
X29006673Y-53279761D01*
X29006673Y-53279761D02*
X29101911Y-53279761D01*
X29101911Y-53279761D02*
X29149530Y-53255952D01*
X29149530Y-53255952D02*
X29173340Y-53232142D01*
X29173340Y-53232142D02*
X29197149Y-53184523D01*
X29197149Y-53184523D02*
X29197149Y-53089285D01*
X29197149Y-53089285D02*
X29173340Y-53041666D01*
X29173340Y-53041666D02*
X29149530Y-53017857D01*
X29149530Y-53017857D02*
X29101911Y-52994047D01*
X29101911Y-52994047D02*
X29006673Y-52994047D01*
X29006673Y-52994047D02*
X28959054Y-53017857D01*
X28959054Y-53017857D02*
X28935244Y-53041666D01*
X28935244Y-53041666D02*
X28911435Y-53089285D01*
X28338571Y-40287149D02*
X28171905Y-40049054D01*
X28052857Y-40287149D02*
X28052857Y-39787149D01*
X28052857Y-39787149D02*
X28243333Y-39787149D01*
X28243333Y-39787149D02*
X28290952Y-39810959D01*
X28290952Y-39810959D02*
X28314762Y-39834768D01*
X28314762Y-39834768D02*
X28338571Y-39882387D01*
X28338571Y-39882387D02*
X28338571Y-39953816D01*
X28338571Y-39953816D02*
X28314762Y-40001435D01*
X28314762Y-40001435D02*
X28290952Y-40025244D01*
X28290952Y-40025244D02*
X28243333Y-40049054D01*
X28243333Y-40049054D02*
X28052857Y-40049054D01*
X28529048Y-39834768D02*
X28552857Y-39810959D01*
X28552857Y-39810959D02*
X28600476Y-39787149D01*
X28600476Y-39787149D02*
X28719524Y-39787149D01*
X28719524Y-39787149D02*
X28767143Y-39810959D01*
X28767143Y-39810959D02*
X28790952Y-39834768D01*
X28790952Y-39834768D02*
X28814762Y-39882387D01*
X28814762Y-39882387D02*
X28814762Y-39930006D01*
X28814762Y-39930006D02*
X28790952Y-40001435D01*
X28790952Y-40001435D02*
X28505238Y-40287149D01*
X28505238Y-40287149D02*
X28814762Y-40287149D01*
X29124285Y-39787149D02*
X29171904Y-39787149D01*
X29171904Y-39787149D02*
X29219523Y-39810959D01*
X29219523Y-39810959D02*
X29243333Y-39834768D01*
X29243333Y-39834768D02*
X29267142Y-39882387D01*
X29267142Y-39882387D02*
X29290952Y-39977625D01*
X29290952Y-39977625D02*
X29290952Y-40096673D01*
X29290952Y-40096673D02*
X29267142Y-40191911D01*
X29267142Y-40191911D02*
X29243333Y-40239530D01*
X29243333Y-40239530D02*
X29219523Y-40263340D01*
X29219523Y-40263340D02*
X29171904Y-40287149D01*
X29171904Y-40287149D02*
X29124285Y-40287149D01*
X29124285Y-40287149D02*
X29076666Y-40263340D01*
X29076666Y-40263340D02*
X29052857Y-40239530D01*
X29052857Y-40239530D02*
X29029047Y-40191911D01*
X29029047Y-40191911D02*
X29005238Y-40096673D01*
X29005238Y-40096673D02*
X29005238Y-39977625D01*
X29005238Y-39977625D02*
X29029047Y-39882387D01*
X29029047Y-39882387D02*
X29052857Y-39834768D01*
X29052857Y-39834768D02*
X29076666Y-39810959D01*
X29076666Y-39810959D02*
X29124285Y-39787149D01*
X23856666Y-34439649D02*
X23690000Y-34201554D01*
X23570952Y-34439649D02*
X23570952Y-33939649D01*
X23570952Y-33939649D02*
X23761428Y-33939649D01*
X23761428Y-33939649D02*
X23809047Y-33963459D01*
X23809047Y-33963459D02*
X23832857Y-33987268D01*
X23832857Y-33987268D02*
X23856666Y-34034887D01*
X23856666Y-34034887D02*
X23856666Y-34106316D01*
X23856666Y-34106316D02*
X23832857Y-34153935D01*
X23832857Y-34153935D02*
X23809047Y-34177744D01*
X23809047Y-34177744D02*
X23761428Y-34201554D01*
X23761428Y-34201554D02*
X23570952Y-34201554D01*
X24094762Y-34439649D02*
X24190000Y-34439649D01*
X24190000Y-34439649D02*
X24237619Y-34415840D01*
X24237619Y-34415840D02*
X24261428Y-34392030D01*
X24261428Y-34392030D02*
X24309047Y-34320601D01*
X24309047Y-34320601D02*
X24332857Y-34225363D01*
X24332857Y-34225363D02*
X24332857Y-34034887D01*
X24332857Y-34034887D02*
X24309047Y-33987268D01*
X24309047Y-33987268D02*
X24285238Y-33963459D01*
X24285238Y-33963459D02*
X24237619Y-33939649D01*
X24237619Y-33939649D02*
X24142381Y-33939649D01*
X24142381Y-33939649D02*
X24094762Y-33963459D01*
X24094762Y-33963459D02*
X24070952Y-33987268D01*
X24070952Y-33987268D02*
X24047143Y-34034887D01*
X24047143Y-34034887D02*
X24047143Y-34153935D01*
X24047143Y-34153935D02*
X24070952Y-34201554D01*
X24070952Y-34201554D02*
X24094762Y-34225363D01*
X24094762Y-34225363D02*
X24142381Y-34249173D01*
X24142381Y-34249173D02*
X24237619Y-34249173D01*
X24237619Y-34249173D02*
X24285238Y-34225363D01*
X24285238Y-34225363D02*
X24309047Y-34201554D01*
X24309047Y-34201554D02*
X24332857Y-34153935D01*
X22258571Y-37187149D02*
X22091905Y-36949054D01*
X21972857Y-37187149D02*
X21972857Y-36687149D01*
X21972857Y-36687149D02*
X22163333Y-36687149D01*
X22163333Y-36687149D02*
X22210952Y-36710959D01*
X22210952Y-36710959D02*
X22234762Y-36734768D01*
X22234762Y-36734768D02*
X22258571Y-36782387D01*
X22258571Y-36782387D02*
X22258571Y-36853816D01*
X22258571Y-36853816D02*
X22234762Y-36901435D01*
X22234762Y-36901435D02*
X22210952Y-36925244D01*
X22210952Y-36925244D02*
X22163333Y-36949054D01*
X22163333Y-36949054D02*
X21972857Y-36949054D01*
X22734762Y-37187149D02*
X22449048Y-37187149D01*
X22591905Y-37187149D02*
X22591905Y-36687149D01*
X22591905Y-36687149D02*
X22544286Y-36758578D01*
X22544286Y-36758578D02*
X22496667Y-36806197D01*
X22496667Y-36806197D02*
X22449048Y-36830006D01*
X23187142Y-36687149D02*
X22949047Y-36687149D01*
X22949047Y-36687149D02*
X22925238Y-36925244D01*
X22925238Y-36925244D02*
X22949047Y-36901435D01*
X22949047Y-36901435D02*
X22996666Y-36877625D01*
X22996666Y-36877625D02*
X23115714Y-36877625D01*
X23115714Y-36877625D02*
X23163333Y-36901435D01*
X23163333Y-36901435D02*
X23187142Y-36925244D01*
X23187142Y-36925244D02*
X23210952Y-36972863D01*
X23210952Y-36972863D02*
X23210952Y-37091911D01*
X23210952Y-37091911D02*
X23187142Y-37139530D01*
X23187142Y-37139530D02*
X23163333Y-37163340D01*
X23163333Y-37163340D02*
X23115714Y-37187149D01*
X23115714Y-37187149D02*
X22996666Y-37187149D01*
X22996666Y-37187149D02*
X22949047Y-37163340D01*
X22949047Y-37163340D02*
X22925238Y-37139530D01*
X30414665Y-67337758D02*
X30414665Y-67575853D01*
X30247999Y-67075853D02*
X30414665Y-67337758D01*
X30414665Y-67337758D02*
X30581332Y-67075853D01*
X31009903Y-67575853D02*
X30724189Y-67575853D01*
X30867046Y-67575853D02*
X30867046Y-67075853D01*
X30867046Y-67075853D02*
X30819427Y-67147282D01*
X30819427Y-67147282D02*
X30771808Y-67194901D01*
X30771808Y-67194901D02*
X30724189Y-67218710D01*
X30099530Y-35311428D02*
X30123340Y-35335237D01*
X30123340Y-35335237D02*
X30147149Y-35406666D01*
X30147149Y-35406666D02*
X30147149Y-35454285D01*
X30147149Y-35454285D02*
X30123340Y-35525713D01*
X30123340Y-35525713D02*
X30075720Y-35573332D01*
X30075720Y-35573332D02*
X30028101Y-35597142D01*
X30028101Y-35597142D02*
X29932863Y-35620951D01*
X29932863Y-35620951D02*
X29861435Y-35620951D01*
X29861435Y-35620951D02*
X29766197Y-35597142D01*
X29766197Y-35597142D02*
X29718578Y-35573332D01*
X29718578Y-35573332D02*
X29670959Y-35525713D01*
X29670959Y-35525713D02*
X29647149Y-35454285D01*
X29647149Y-35454285D02*
X29647149Y-35406666D01*
X29647149Y-35406666D02*
X29670959Y-35335237D01*
X29670959Y-35335237D02*
X29694768Y-35311428D01*
X30147149Y-34835237D02*
X30147149Y-35120951D01*
X30147149Y-34978094D02*
X29647149Y-34978094D01*
X29647149Y-34978094D02*
X29718578Y-35025713D01*
X29718578Y-35025713D02*
X29766197Y-35073332D01*
X29766197Y-35073332D02*
X29790006Y-35120951D01*
X29813816Y-34406666D02*
X30147149Y-34406666D01*
X29623340Y-34525714D02*
X29980482Y-34644761D01*
X29980482Y-34644761D02*
X29980482Y-34335238D01*
X26219047Y-60837149D02*
X26219047Y-61241911D01*
X26219047Y-61241911D02*
X26242857Y-61289530D01*
X26242857Y-61289530D02*
X26266666Y-61313340D01*
X26266666Y-61313340D02*
X26314285Y-61337149D01*
X26314285Y-61337149D02*
X26409523Y-61337149D01*
X26409523Y-61337149D02*
X26457142Y-61313340D01*
X26457142Y-61313340D02*
X26480952Y-61289530D01*
X26480952Y-61289530D02*
X26504761Y-61241911D01*
X26504761Y-61241911D02*
X26504761Y-60837149D01*
X26980952Y-60837149D02*
X26742857Y-60837149D01*
X26742857Y-60837149D02*
X26719048Y-61075244D01*
X26719048Y-61075244D02*
X26742857Y-61051435D01*
X26742857Y-61051435D02*
X26790476Y-61027625D01*
X26790476Y-61027625D02*
X26909524Y-61027625D01*
X26909524Y-61027625D02*
X26957143Y-61051435D01*
X26957143Y-61051435D02*
X26980952Y-61075244D01*
X26980952Y-61075244D02*
X27004762Y-61122863D01*
X27004762Y-61122863D02*
X27004762Y-61241911D01*
X27004762Y-61241911D02*
X26980952Y-61289530D01*
X26980952Y-61289530D02*
X26957143Y-61313340D01*
X26957143Y-61313340D02*
X26909524Y-61337149D01*
X26909524Y-61337149D02*
X26790476Y-61337149D01*
X26790476Y-61337149D02*
X26742857Y-61313340D01*
X26742857Y-61313340D02*
X26719048Y-61289530D01*
D12*
X33394819Y-57129999D02*
X33632914Y-57129999D01*
X33537676Y-57368094D02*
X33632914Y-57129999D01*
X33632914Y-57129999D02*
X33537676Y-56891904D01*
X33823390Y-57272856D02*
X33632914Y-57129999D01*
X33632914Y-57129999D02*
X33823390Y-56987142D01*
D11*
X32159530Y-60391428D02*
X32183340Y-60415237D01*
X32183340Y-60415237D02*
X32207149Y-60486666D01*
X32207149Y-60486666D02*
X32207149Y-60534285D01*
X32207149Y-60534285D02*
X32183340Y-60605713D01*
X32183340Y-60605713D02*
X32135720Y-60653332D01*
X32135720Y-60653332D02*
X32088101Y-60677142D01*
X32088101Y-60677142D02*
X31992863Y-60700951D01*
X31992863Y-60700951D02*
X31921435Y-60700951D01*
X31921435Y-60700951D02*
X31826197Y-60677142D01*
X31826197Y-60677142D02*
X31778578Y-60653332D01*
X31778578Y-60653332D02*
X31730959Y-60605713D01*
X31730959Y-60605713D02*
X31707149Y-60534285D01*
X31707149Y-60534285D02*
X31707149Y-60486666D01*
X31707149Y-60486666D02*
X31730959Y-60415237D01*
X31730959Y-60415237D02*
X31754768Y-60391428D01*
X32207149Y-59915237D02*
X32207149Y-60200951D01*
X32207149Y-60058094D02*
X31707149Y-60058094D01*
X31707149Y-60058094D02*
X31778578Y-60105713D01*
X31778578Y-60105713D02*
X31826197Y-60153332D01*
X31826197Y-60153332D02*
X31850006Y-60200951D01*
X31707149Y-59748571D02*
X31707149Y-59415238D01*
X31707149Y-59415238D02*
X32207149Y-59629523D01*
X32246666Y-25087149D02*
X32080000Y-24849054D01*
X31960952Y-25087149D02*
X31960952Y-24587149D01*
X31960952Y-24587149D02*
X32151428Y-24587149D01*
X32151428Y-24587149D02*
X32199047Y-24610959D01*
X32199047Y-24610959D02*
X32222857Y-24634768D01*
X32222857Y-24634768D02*
X32246666Y-24682387D01*
X32246666Y-24682387D02*
X32246666Y-24753816D01*
X32246666Y-24753816D02*
X32222857Y-24801435D01*
X32222857Y-24801435D02*
X32199047Y-24825244D01*
X32199047Y-24825244D02*
X32151428Y-24849054D01*
X32151428Y-24849054D02*
X31960952Y-24849054D01*
X32699047Y-24587149D02*
X32460952Y-24587149D01*
X32460952Y-24587149D02*
X32437143Y-24825244D01*
X32437143Y-24825244D02*
X32460952Y-24801435D01*
X32460952Y-24801435D02*
X32508571Y-24777625D01*
X32508571Y-24777625D02*
X32627619Y-24777625D01*
X32627619Y-24777625D02*
X32675238Y-24801435D01*
X32675238Y-24801435D02*
X32699047Y-24825244D01*
X32699047Y-24825244D02*
X32722857Y-24872863D01*
X32722857Y-24872863D02*
X32722857Y-24991911D01*
X32722857Y-24991911D02*
X32699047Y-25039530D01*
X32699047Y-25039530D02*
X32675238Y-25063340D01*
X32675238Y-25063340D02*
X32627619Y-25087149D01*
X32627619Y-25087149D02*
X32508571Y-25087149D01*
X32508571Y-25087149D02*
X32460952Y-25063340D01*
X32460952Y-25063340D02*
X32437143Y-25039530D01*
X31197149Y-60411428D02*
X30959054Y-60578094D01*
X31197149Y-60697142D02*
X30697149Y-60697142D01*
X30697149Y-60697142D02*
X30697149Y-60506666D01*
X30697149Y-60506666D02*
X30720959Y-60459047D01*
X30720959Y-60459047D02*
X30744768Y-60435237D01*
X30744768Y-60435237D02*
X30792387Y-60411428D01*
X30792387Y-60411428D02*
X30863816Y-60411428D01*
X30863816Y-60411428D02*
X30911435Y-60435237D01*
X30911435Y-60435237D02*
X30935244Y-60459047D01*
X30935244Y-60459047D02*
X30959054Y-60506666D01*
X30959054Y-60506666D02*
X30959054Y-60697142D01*
X30744768Y-60220951D02*
X30720959Y-60197142D01*
X30720959Y-60197142D02*
X30697149Y-60149523D01*
X30697149Y-60149523D02*
X30697149Y-60030475D01*
X30697149Y-60030475D02*
X30720959Y-59982856D01*
X30720959Y-59982856D02*
X30744768Y-59959047D01*
X30744768Y-59959047D02*
X30792387Y-59935237D01*
X30792387Y-59935237D02*
X30840006Y-59935237D01*
X30840006Y-59935237D02*
X30911435Y-59959047D01*
X30911435Y-59959047D02*
X31197149Y-60244761D01*
X31197149Y-60244761D02*
X31197149Y-59935237D01*
X30863816Y-59506666D02*
X31197149Y-59506666D01*
X30673340Y-59625714D02*
X31030482Y-59744761D01*
X31030482Y-59744761D02*
X31030482Y-59435238D01*
X31614930Y-34209530D02*
X31591121Y-34233340D01*
X31591121Y-34233340D02*
X31519692Y-34257149D01*
X31519692Y-34257149D02*
X31472073Y-34257149D01*
X31472073Y-34257149D02*
X31400645Y-34233340D01*
X31400645Y-34233340D02*
X31353026Y-34185720D01*
X31353026Y-34185720D02*
X31329216Y-34138101D01*
X31329216Y-34138101D02*
X31305407Y-34042863D01*
X31305407Y-34042863D02*
X31305407Y-33971435D01*
X31305407Y-33971435D02*
X31329216Y-33876197D01*
X31329216Y-33876197D02*
X31353026Y-33828578D01*
X31353026Y-33828578D02*
X31400645Y-33780959D01*
X31400645Y-33780959D02*
X31472073Y-33757149D01*
X31472073Y-33757149D02*
X31519692Y-33757149D01*
X31519692Y-33757149D02*
X31591121Y-33780959D01*
X31591121Y-33780959D02*
X31614930Y-33804768D01*
X31853026Y-34257149D02*
X31948264Y-34257149D01*
X31948264Y-34257149D02*
X31995883Y-34233340D01*
X31995883Y-34233340D02*
X32019692Y-34209530D01*
X32019692Y-34209530D02*
X32067311Y-34138101D01*
X32067311Y-34138101D02*
X32091121Y-34042863D01*
X32091121Y-34042863D02*
X32091121Y-33852387D01*
X32091121Y-33852387D02*
X32067311Y-33804768D01*
X32067311Y-33804768D02*
X32043502Y-33780959D01*
X32043502Y-33780959D02*
X31995883Y-33757149D01*
X31995883Y-33757149D02*
X31900645Y-33757149D01*
X31900645Y-33757149D02*
X31853026Y-33780959D01*
X31853026Y-33780959D02*
X31829216Y-33804768D01*
X31829216Y-33804768D02*
X31805407Y-33852387D01*
X31805407Y-33852387D02*
X31805407Y-33971435D01*
X31805407Y-33971435D02*
X31829216Y-34019054D01*
X31829216Y-34019054D02*
X31853026Y-34042863D01*
X31853026Y-34042863D02*
X31900645Y-34066673D01*
X31900645Y-34066673D02*
X31995883Y-34066673D01*
X31995883Y-34066673D02*
X32043502Y-34042863D01*
X32043502Y-34042863D02*
X32067311Y-34019054D01*
X32067311Y-34019054D02*
X32091121Y-33971435D01*
X31321678Y-23159649D02*
X31321678Y-23564411D01*
X31321678Y-23564411D02*
X31345488Y-23612030D01*
X31345488Y-23612030D02*
X31369297Y-23635840D01*
X31369297Y-23635840D02*
X31416916Y-23659649D01*
X31416916Y-23659649D02*
X31512154Y-23659649D01*
X31512154Y-23659649D02*
X31559773Y-23635840D01*
X31559773Y-23635840D02*
X31583583Y-23612030D01*
X31583583Y-23612030D02*
X31607392Y-23564411D01*
X31607392Y-23564411D02*
X31607392Y-23159649D01*
X32107393Y-23659649D02*
X31821679Y-23659649D01*
X31964536Y-23659649D02*
X31964536Y-23159649D01*
X31964536Y-23159649D02*
X31916917Y-23231078D01*
X31916917Y-23231078D02*
X31869298Y-23278697D01*
X31869298Y-23278697D02*
X31821679Y-23302506D01*
X35426666Y-20934530D02*
X35402857Y-20958340D01*
X35402857Y-20958340D02*
X35331428Y-20982149D01*
X35331428Y-20982149D02*
X35283809Y-20982149D01*
X35283809Y-20982149D02*
X35212381Y-20958340D01*
X35212381Y-20958340D02*
X35164762Y-20910720D01*
X35164762Y-20910720D02*
X35140952Y-20863101D01*
X35140952Y-20863101D02*
X35117143Y-20767863D01*
X35117143Y-20767863D02*
X35117143Y-20696435D01*
X35117143Y-20696435D02*
X35140952Y-20601197D01*
X35140952Y-20601197D02*
X35164762Y-20553578D01*
X35164762Y-20553578D02*
X35212381Y-20505959D01*
X35212381Y-20505959D02*
X35283809Y-20482149D01*
X35283809Y-20482149D02*
X35331428Y-20482149D01*
X35331428Y-20482149D02*
X35402857Y-20505959D01*
X35402857Y-20505959D02*
X35426666Y-20529768D01*
X35902857Y-20982149D02*
X35617143Y-20982149D01*
X35760000Y-20982149D02*
X35760000Y-20482149D01*
X35760000Y-20482149D02*
X35712381Y-20553578D01*
X35712381Y-20553578D02*
X35664762Y-20601197D01*
X35664762Y-20601197D02*
X35617143Y-20625006D01*
X29484930Y-36317149D02*
X29318264Y-36079054D01*
X29199216Y-36317149D02*
X29199216Y-35817149D01*
X29199216Y-35817149D02*
X29389692Y-35817149D01*
X29389692Y-35817149D02*
X29437311Y-35840959D01*
X29437311Y-35840959D02*
X29461121Y-35864768D01*
X29461121Y-35864768D02*
X29484930Y-35912387D01*
X29484930Y-35912387D02*
X29484930Y-35983816D01*
X29484930Y-35983816D02*
X29461121Y-36031435D01*
X29461121Y-36031435D02*
X29437311Y-36055244D01*
X29437311Y-36055244D02*
X29389692Y-36079054D01*
X29389692Y-36079054D02*
X29199216Y-36079054D01*
X29961121Y-36317149D02*
X29675407Y-36317149D01*
X29818264Y-36317149D02*
X29818264Y-35817149D01*
X29818264Y-35817149D02*
X29770645Y-35888578D01*
X29770645Y-35888578D02*
X29723026Y-35936197D01*
X29723026Y-35936197D02*
X29675407Y-35960006D01*
X30389692Y-35983816D02*
X30389692Y-36317149D01*
X30270644Y-35793340D02*
X30151597Y-36150482D01*
X30151597Y-36150482D02*
X30461120Y-36150482D01*
X22258571Y-35075530D02*
X22234762Y-35099340D01*
X22234762Y-35099340D02*
X22163333Y-35123149D01*
X22163333Y-35123149D02*
X22115714Y-35123149D01*
X22115714Y-35123149D02*
X22044286Y-35099340D01*
X22044286Y-35099340D02*
X21996667Y-35051720D01*
X21996667Y-35051720D02*
X21972857Y-35004101D01*
X21972857Y-35004101D02*
X21949048Y-34908863D01*
X21949048Y-34908863D02*
X21949048Y-34837435D01*
X21949048Y-34837435D02*
X21972857Y-34742197D01*
X21972857Y-34742197D02*
X21996667Y-34694578D01*
X21996667Y-34694578D02*
X22044286Y-34646959D01*
X22044286Y-34646959D02*
X22115714Y-34623149D01*
X22115714Y-34623149D02*
X22163333Y-34623149D01*
X22163333Y-34623149D02*
X22234762Y-34646959D01*
X22234762Y-34646959D02*
X22258571Y-34670768D01*
X22734762Y-35123149D02*
X22449048Y-35123149D01*
X22591905Y-35123149D02*
X22591905Y-34623149D01*
X22591905Y-34623149D02*
X22544286Y-34694578D01*
X22544286Y-34694578D02*
X22496667Y-34742197D01*
X22496667Y-34742197D02*
X22449048Y-34766006D01*
X22901428Y-34623149D02*
X23210952Y-34623149D01*
X23210952Y-34623149D02*
X23044285Y-34813625D01*
X23044285Y-34813625D02*
X23115714Y-34813625D01*
X23115714Y-34813625D02*
X23163333Y-34837435D01*
X23163333Y-34837435D02*
X23187142Y-34861244D01*
X23187142Y-34861244D02*
X23210952Y-34908863D01*
X23210952Y-34908863D02*
X23210952Y-35027911D01*
X23210952Y-35027911D02*
X23187142Y-35075530D01*
X23187142Y-35075530D02*
X23163333Y-35099340D01*
X23163333Y-35099340D02*
X23115714Y-35123149D01*
X23115714Y-35123149D02*
X22972857Y-35123149D01*
X22972857Y-35123149D02*
X22925238Y-35099340D01*
X22925238Y-35099340D02*
X22901428Y-35075530D01*
X22258571Y-35811149D02*
X22091905Y-35573054D01*
X21972857Y-35811149D02*
X21972857Y-35311149D01*
X21972857Y-35311149D02*
X22163333Y-35311149D01*
X22163333Y-35311149D02*
X22210952Y-35334959D01*
X22210952Y-35334959D02*
X22234762Y-35358768D01*
X22234762Y-35358768D02*
X22258571Y-35406387D01*
X22258571Y-35406387D02*
X22258571Y-35477816D01*
X22258571Y-35477816D02*
X22234762Y-35525435D01*
X22234762Y-35525435D02*
X22210952Y-35549244D01*
X22210952Y-35549244D02*
X22163333Y-35573054D01*
X22163333Y-35573054D02*
X21972857Y-35573054D01*
X22425238Y-35311149D02*
X22734762Y-35311149D01*
X22734762Y-35311149D02*
X22568095Y-35501625D01*
X22568095Y-35501625D02*
X22639524Y-35501625D01*
X22639524Y-35501625D02*
X22687143Y-35525435D01*
X22687143Y-35525435D02*
X22710952Y-35549244D01*
X22710952Y-35549244D02*
X22734762Y-35596863D01*
X22734762Y-35596863D02*
X22734762Y-35715911D01*
X22734762Y-35715911D02*
X22710952Y-35763530D01*
X22710952Y-35763530D02*
X22687143Y-35787340D01*
X22687143Y-35787340D02*
X22639524Y-35811149D01*
X22639524Y-35811149D02*
X22496667Y-35811149D01*
X22496667Y-35811149D02*
X22449048Y-35787340D01*
X22449048Y-35787340D02*
X22425238Y-35763530D01*
X22925238Y-35358768D02*
X22949047Y-35334959D01*
X22949047Y-35334959D02*
X22996666Y-35311149D01*
X22996666Y-35311149D02*
X23115714Y-35311149D01*
X23115714Y-35311149D02*
X23163333Y-35334959D01*
X23163333Y-35334959D02*
X23187142Y-35358768D01*
X23187142Y-35358768D02*
X23210952Y-35406387D01*
X23210952Y-35406387D02*
X23210952Y-35454006D01*
X23210952Y-35454006D02*
X23187142Y-35525435D01*
X23187142Y-35525435D02*
X22901428Y-35811149D01*
X22901428Y-35811149D02*
X23210952Y-35811149D01*
X23856666Y-35884649D02*
X23690000Y-35646554D01*
X23570952Y-35884649D02*
X23570952Y-35384649D01*
X23570952Y-35384649D02*
X23761428Y-35384649D01*
X23761428Y-35384649D02*
X23809047Y-35408459D01*
X23809047Y-35408459D02*
X23832857Y-35432268D01*
X23832857Y-35432268D02*
X23856666Y-35479887D01*
X23856666Y-35479887D02*
X23856666Y-35551316D01*
X23856666Y-35551316D02*
X23832857Y-35598935D01*
X23832857Y-35598935D02*
X23809047Y-35622744D01*
X23809047Y-35622744D02*
X23761428Y-35646554D01*
X23761428Y-35646554D02*
X23570952Y-35646554D01*
X24332857Y-35884649D02*
X24047143Y-35884649D01*
X24190000Y-35884649D02*
X24190000Y-35384649D01*
X24190000Y-35384649D02*
X24142381Y-35456078D01*
X24142381Y-35456078D02*
X24094762Y-35503697D01*
X24094762Y-35503697D02*
X24047143Y-35527506D01*
X24499523Y-35384649D02*
X24809047Y-35384649D01*
X24809047Y-35384649D02*
X24642380Y-35575125D01*
X24642380Y-35575125D02*
X24713809Y-35575125D01*
X24713809Y-35575125D02*
X24761428Y-35598935D01*
X24761428Y-35598935D02*
X24785237Y-35622744D01*
X24785237Y-35622744D02*
X24809047Y-35670363D01*
X24809047Y-35670363D02*
X24809047Y-35789411D01*
X24809047Y-35789411D02*
X24785237Y-35837030D01*
X24785237Y-35837030D02*
X24761428Y-35860840D01*
X24761428Y-35860840D02*
X24713809Y-35884649D01*
X24713809Y-35884649D02*
X24570952Y-35884649D01*
X24570952Y-35884649D02*
X24523333Y-35860840D01*
X24523333Y-35860840D02*
X24499523Y-35837030D01*
X29054530Y-22783333D02*
X29078340Y-22807142D01*
X29078340Y-22807142D02*
X29102149Y-22878571D01*
X29102149Y-22878571D02*
X29102149Y-22926190D01*
X29102149Y-22926190D02*
X29078340Y-22997618D01*
X29078340Y-22997618D02*
X29030720Y-23045237D01*
X29030720Y-23045237D02*
X28983101Y-23069047D01*
X28983101Y-23069047D02*
X28887863Y-23092856D01*
X28887863Y-23092856D02*
X28816435Y-23092856D01*
X28816435Y-23092856D02*
X28721197Y-23069047D01*
X28721197Y-23069047D02*
X28673578Y-23045237D01*
X28673578Y-23045237D02*
X28625959Y-22997618D01*
X28625959Y-22997618D02*
X28602149Y-22926190D01*
X28602149Y-22926190D02*
X28602149Y-22878571D01*
X28602149Y-22878571D02*
X28625959Y-22807142D01*
X28625959Y-22807142D02*
X28649768Y-22783333D01*
X28602149Y-22616666D02*
X28602149Y-22307142D01*
X28602149Y-22307142D02*
X28792625Y-22473809D01*
X28792625Y-22473809D02*
X28792625Y-22402380D01*
X28792625Y-22402380D02*
X28816435Y-22354761D01*
X28816435Y-22354761D02*
X28840244Y-22330952D01*
X28840244Y-22330952D02*
X28887863Y-22307142D01*
X28887863Y-22307142D02*
X29006911Y-22307142D01*
X29006911Y-22307142D02*
X29054530Y-22330952D01*
X29054530Y-22330952D02*
X29078340Y-22354761D01*
X29078340Y-22354761D02*
X29102149Y-22402380D01*
X29102149Y-22402380D02*
X29102149Y-22545237D01*
X29102149Y-22545237D02*
X29078340Y-22592856D01*
X29078340Y-22592856D02*
X29054530Y-22616666D01*
X26779047Y-33967149D02*
X26779047Y-34371911D01*
X26779047Y-34371911D02*
X26802857Y-34419530D01*
X26802857Y-34419530D02*
X26826666Y-34443340D01*
X26826666Y-34443340D02*
X26874285Y-34467149D01*
X26874285Y-34467149D02*
X26969523Y-34467149D01*
X26969523Y-34467149D02*
X27017142Y-34443340D01*
X27017142Y-34443340D02*
X27040952Y-34419530D01*
X27040952Y-34419530D02*
X27064761Y-34371911D01*
X27064761Y-34371911D02*
X27064761Y-33967149D01*
X27255238Y-33967149D02*
X27564762Y-33967149D01*
X27564762Y-33967149D02*
X27398095Y-34157625D01*
X27398095Y-34157625D02*
X27469524Y-34157625D01*
X27469524Y-34157625D02*
X27517143Y-34181435D01*
X27517143Y-34181435D02*
X27540952Y-34205244D01*
X27540952Y-34205244D02*
X27564762Y-34252863D01*
X27564762Y-34252863D02*
X27564762Y-34371911D01*
X27564762Y-34371911D02*
X27540952Y-34419530D01*
X27540952Y-34419530D02*
X27517143Y-34443340D01*
X27517143Y-34443340D02*
X27469524Y-34467149D01*
X27469524Y-34467149D02*
X27326667Y-34467149D01*
X27326667Y-34467149D02*
X27279048Y-34443340D01*
X27279048Y-34443340D02*
X27255238Y-34419530D01*
D12*
X20854819Y-39079999D02*
X21092914Y-39079999D01*
X20997676Y-39318094D02*
X21092914Y-39079999D01*
X21092914Y-39079999D02*
X20997676Y-38841904D01*
X21283390Y-39222856D02*
X21092914Y-39079999D01*
X21092914Y-39079999D02*
X21283390Y-38937142D01*
X20854819Y-39079999D02*
X21092914Y-39079999D01*
X20997676Y-39318094D02*
X21092914Y-39079999D01*
X21092914Y-39079999D02*
X20997676Y-38841904D01*
X21283390Y-39222856D02*
X21092914Y-39079999D01*
X21092914Y-39079999D02*
X21283390Y-38937142D01*
D11*
X33606666Y-24967149D02*
X33440000Y-24729054D01*
X33320952Y-24967149D02*
X33320952Y-24467149D01*
X33320952Y-24467149D02*
X33511428Y-24467149D01*
X33511428Y-24467149D02*
X33559047Y-24490959D01*
X33559047Y-24490959D02*
X33582857Y-24514768D01*
X33582857Y-24514768D02*
X33606666Y-24562387D01*
X33606666Y-24562387D02*
X33606666Y-24633816D01*
X33606666Y-24633816D02*
X33582857Y-24681435D01*
X33582857Y-24681435D02*
X33559047Y-24705244D01*
X33559047Y-24705244D02*
X33511428Y-24729054D01*
X33511428Y-24729054D02*
X33320952Y-24729054D01*
X33773333Y-24467149D02*
X34082857Y-24467149D01*
X34082857Y-24467149D02*
X33916190Y-24657625D01*
X33916190Y-24657625D02*
X33987619Y-24657625D01*
X33987619Y-24657625D02*
X34035238Y-24681435D01*
X34035238Y-24681435D02*
X34059047Y-24705244D01*
X34059047Y-24705244D02*
X34082857Y-24752863D01*
X34082857Y-24752863D02*
X34082857Y-24871911D01*
X34082857Y-24871911D02*
X34059047Y-24919530D01*
X34059047Y-24919530D02*
X34035238Y-24943340D01*
X34035238Y-24943340D02*
X33987619Y-24967149D01*
X33987619Y-24967149D02*
X33844762Y-24967149D01*
X33844762Y-24967149D02*
X33797143Y-24943340D01*
X33797143Y-24943340D02*
X33773333Y-24919530D01*
X23856666Y-33717149D02*
X23690000Y-33479054D01*
X23570952Y-33717149D02*
X23570952Y-33217149D01*
X23570952Y-33217149D02*
X23761428Y-33217149D01*
X23761428Y-33217149D02*
X23809047Y-33240959D01*
X23809047Y-33240959D02*
X23832857Y-33264768D01*
X23832857Y-33264768D02*
X23856666Y-33312387D01*
X23856666Y-33312387D02*
X23856666Y-33383816D01*
X23856666Y-33383816D02*
X23832857Y-33431435D01*
X23832857Y-33431435D02*
X23809047Y-33455244D01*
X23809047Y-33455244D02*
X23761428Y-33479054D01*
X23761428Y-33479054D02*
X23570952Y-33479054D01*
X24023333Y-33217149D02*
X24356666Y-33217149D01*
X24356666Y-33217149D02*
X24142381Y-33717149D01*
X30046666Y-33657149D02*
X29880000Y-33419054D01*
X29760952Y-33657149D02*
X29760952Y-33157149D01*
X29760952Y-33157149D02*
X29951428Y-33157149D01*
X29951428Y-33157149D02*
X29999047Y-33180959D01*
X29999047Y-33180959D02*
X30022857Y-33204768D01*
X30022857Y-33204768D02*
X30046666Y-33252387D01*
X30046666Y-33252387D02*
X30046666Y-33323816D01*
X30046666Y-33323816D02*
X30022857Y-33371435D01*
X30022857Y-33371435D02*
X29999047Y-33395244D01*
X29999047Y-33395244D02*
X29951428Y-33419054D01*
X29951428Y-33419054D02*
X29760952Y-33419054D01*
X30332381Y-33371435D02*
X30284762Y-33347625D01*
X30284762Y-33347625D02*
X30260952Y-33323816D01*
X30260952Y-33323816D02*
X30237143Y-33276197D01*
X30237143Y-33276197D02*
X30237143Y-33252387D01*
X30237143Y-33252387D02*
X30260952Y-33204768D01*
X30260952Y-33204768D02*
X30284762Y-33180959D01*
X30284762Y-33180959D02*
X30332381Y-33157149D01*
X30332381Y-33157149D02*
X30427619Y-33157149D01*
X30427619Y-33157149D02*
X30475238Y-33180959D01*
X30475238Y-33180959D02*
X30499047Y-33204768D01*
X30499047Y-33204768D02*
X30522857Y-33252387D01*
X30522857Y-33252387D02*
X30522857Y-33276197D01*
X30522857Y-33276197D02*
X30499047Y-33323816D01*
X30499047Y-33323816D02*
X30475238Y-33347625D01*
X30475238Y-33347625D02*
X30427619Y-33371435D01*
X30427619Y-33371435D02*
X30332381Y-33371435D01*
X30332381Y-33371435D02*
X30284762Y-33395244D01*
X30284762Y-33395244D02*
X30260952Y-33419054D01*
X30260952Y-33419054D02*
X30237143Y-33466673D01*
X30237143Y-33466673D02*
X30237143Y-33561911D01*
X30237143Y-33561911D02*
X30260952Y-33609530D01*
X30260952Y-33609530D02*
X30284762Y-33633340D01*
X30284762Y-33633340D02*
X30332381Y-33657149D01*
X30332381Y-33657149D02*
X30427619Y-33657149D01*
X30427619Y-33657149D02*
X30475238Y-33633340D01*
X30475238Y-33633340D02*
X30499047Y-33609530D01*
X30499047Y-33609530D02*
X30522857Y-33561911D01*
X30522857Y-33561911D02*
X30522857Y-33466673D01*
X30522857Y-33466673D02*
X30499047Y-33419054D01*
X30499047Y-33419054D02*
X30475238Y-33395244D01*
X30475238Y-33395244D02*
X30427619Y-33371435D01*
X31208571Y-36249530D02*
X31184762Y-36273340D01*
X31184762Y-36273340D02*
X31113333Y-36297149D01*
X31113333Y-36297149D02*
X31065714Y-36297149D01*
X31065714Y-36297149D02*
X30994286Y-36273340D01*
X30994286Y-36273340D02*
X30946667Y-36225720D01*
X30946667Y-36225720D02*
X30922857Y-36178101D01*
X30922857Y-36178101D02*
X30899048Y-36082863D01*
X30899048Y-36082863D02*
X30899048Y-36011435D01*
X30899048Y-36011435D02*
X30922857Y-35916197D01*
X30922857Y-35916197D02*
X30946667Y-35868578D01*
X30946667Y-35868578D02*
X30994286Y-35820959D01*
X30994286Y-35820959D02*
X31065714Y-35797149D01*
X31065714Y-35797149D02*
X31113333Y-35797149D01*
X31113333Y-35797149D02*
X31184762Y-35820959D01*
X31184762Y-35820959D02*
X31208571Y-35844768D01*
X31399048Y-35844768D02*
X31422857Y-35820959D01*
X31422857Y-35820959D02*
X31470476Y-35797149D01*
X31470476Y-35797149D02*
X31589524Y-35797149D01*
X31589524Y-35797149D02*
X31637143Y-35820959D01*
X31637143Y-35820959D02*
X31660952Y-35844768D01*
X31660952Y-35844768D02*
X31684762Y-35892387D01*
X31684762Y-35892387D02*
X31684762Y-35940006D01*
X31684762Y-35940006D02*
X31660952Y-36011435D01*
X31660952Y-36011435D02*
X31375238Y-36297149D01*
X31375238Y-36297149D02*
X31684762Y-36297149D01*
X31970476Y-36011435D02*
X31922857Y-35987625D01*
X31922857Y-35987625D02*
X31899047Y-35963816D01*
X31899047Y-35963816D02*
X31875238Y-35916197D01*
X31875238Y-35916197D02*
X31875238Y-35892387D01*
X31875238Y-35892387D02*
X31899047Y-35844768D01*
X31899047Y-35844768D02*
X31922857Y-35820959D01*
X31922857Y-35820959D02*
X31970476Y-35797149D01*
X31970476Y-35797149D02*
X32065714Y-35797149D01*
X32065714Y-35797149D02*
X32113333Y-35820959D01*
X32113333Y-35820959D02*
X32137142Y-35844768D01*
X32137142Y-35844768D02*
X32160952Y-35892387D01*
X32160952Y-35892387D02*
X32160952Y-35916197D01*
X32160952Y-35916197D02*
X32137142Y-35963816D01*
X32137142Y-35963816D02*
X32113333Y-35987625D01*
X32113333Y-35987625D02*
X32065714Y-36011435D01*
X32065714Y-36011435D02*
X31970476Y-36011435D01*
X31970476Y-36011435D02*
X31922857Y-36035244D01*
X31922857Y-36035244D02*
X31899047Y-36059054D01*
X31899047Y-36059054D02*
X31875238Y-36106673D01*
X31875238Y-36106673D02*
X31875238Y-36201911D01*
X31875238Y-36201911D02*
X31899047Y-36249530D01*
X31899047Y-36249530D02*
X31922857Y-36273340D01*
X31922857Y-36273340D02*
X31970476Y-36297149D01*
X31970476Y-36297149D02*
X32065714Y-36297149D01*
X32065714Y-36297149D02*
X32113333Y-36273340D01*
X32113333Y-36273340D02*
X32137142Y-36249530D01*
X32137142Y-36249530D02*
X32160952Y-36201911D01*
X32160952Y-36201911D02*
X32160952Y-36106673D01*
X32160952Y-36106673D02*
X32137142Y-36059054D01*
X32137142Y-36059054D02*
X32113333Y-36035244D01*
X32113333Y-36035244D02*
X32065714Y-36011435D01*
X23196678Y-67115953D02*
X23196678Y-67520715D01*
X23196678Y-67520715D02*
X23220488Y-67568334D01*
X23220488Y-67568334D02*
X23244297Y-67592144D01*
X23244297Y-67592144D02*
X23291916Y-67615953D01*
X23291916Y-67615953D02*
X23387154Y-67615953D01*
X23387154Y-67615953D02*
X23434773Y-67592144D01*
X23434773Y-67592144D02*
X23458583Y-67568334D01*
X23458583Y-67568334D02*
X23482392Y-67520715D01*
X23482392Y-67520715D02*
X23482392Y-67115953D01*
X23934774Y-67115953D02*
X23839536Y-67115953D01*
X23839536Y-67115953D02*
X23791917Y-67139763D01*
X23791917Y-67139763D02*
X23768107Y-67163572D01*
X23768107Y-67163572D02*
X23720488Y-67235001D01*
X23720488Y-67235001D02*
X23696679Y-67330239D01*
X23696679Y-67330239D02*
X23696679Y-67520715D01*
X23696679Y-67520715D02*
X23720488Y-67568334D01*
X23720488Y-67568334D02*
X23744298Y-67592144D01*
X23744298Y-67592144D02*
X23791917Y-67615953D01*
X23791917Y-67615953D02*
X23887155Y-67615953D01*
X23887155Y-67615953D02*
X23934774Y-67592144D01*
X23934774Y-67592144D02*
X23958583Y-67568334D01*
X23958583Y-67568334D02*
X23982393Y-67520715D01*
X23982393Y-67520715D02*
X23982393Y-67401667D01*
X23982393Y-67401667D02*
X23958583Y-67354048D01*
X23958583Y-67354048D02*
X23934774Y-67330239D01*
X23934774Y-67330239D02*
X23887155Y-67306429D01*
X23887155Y-67306429D02*
X23791917Y-67306429D01*
X23791917Y-67306429D02*
X23744298Y-67330239D01*
X23744298Y-67330239D02*
X23720488Y-67354048D01*
X23720488Y-67354048D02*
X23696679Y-67401667D01*
D13*
X24962819Y-67563884D02*
X24915200Y-67611503D01*
X24915200Y-67611503D02*
X24867580Y-67563884D01*
X24867580Y-67563884D02*
X24915200Y-67516265D01*
X24915200Y-67516265D02*
X24962819Y-67563884D01*
X24962819Y-67563884D02*
X24867580Y-67563884D01*
D11*
X22734761Y-34387530D02*
X22710952Y-34411340D01*
X22710952Y-34411340D02*
X22639523Y-34435149D01*
X22639523Y-34435149D02*
X22591904Y-34435149D01*
X22591904Y-34435149D02*
X22520476Y-34411340D01*
X22520476Y-34411340D02*
X22472857Y-34363720D01*
X22472857Y-34363720D02*
X22449047Y-34316101D01*
X22449047Y-34316101D02*
X22425238Y-34220863D01*
X22425238Y-34220863D02*
X22425238Y-34149435D01*
X22425238Y-34149435D02*
X22449047Y-34054197D01*
X22449047Y-34054197D02*
X22472857Y-34006578D01*
X22472857Y-34006578D02*
X22520476Y-33958959D01*
X22520476Y-33958959D02*
X22591904Y-33935149D01*
X22591904Y-33935149D02*
X22639523Y-33935149D01*
X22639523Y-33935149D02*
X22710952Y-33958959D01*
X22710952Y-33958959D02*
X22734761Y-33982768D01*
X23163333Y-33935149D02*
X23068095Y-33935149D01*
X23068095Y-33935149D02*
X23020476Y-33958959D01*
X23020476Y-33958959D02*
X22996666Y-33982768D01*
X22996666Y-33982768D02*
X22949047Y-34054197D01*
X22949047Y-34054197D02*
X22925238Y-34149435D01*
X22925238Y-34149435D02*
X22925238Y-34339911D01*
X22925238Y-34339911D02*
X22949047Y-34387530D01*
X22949047Y-34387530D02*
X22972857Y-34411340D01*
X22972857Y-34411340D02*
X23020476Y-34435149D01*
X23020476Y-34435149D02*
X23115714Y-34435149D01*
X23115714Y-34435149D02*
X23163333Y-34411340D01*
X23163333Y-34411340D02*
X23187142Y-34387530D01*
X23187142Y-34387530D02*
X23210952Y-34339911D01*
X23210952Y-34339911D02*
X23210952Y-34220863D01*
X23210952Y-34220863D02*
X23187142Y-34173244D01*
X23187142Y-34173244D02*
X23163333Y-34149435D01*
X23163333Y-34149435D02*
X23115714Y-34125625D01*
X23115714Y-34125625D02*
X23020476Y-34125625D01*
X23020476Y-34125625D02*
X22972857Y-34149435D01*
X22972857Y-34149435D02*
X22949047Y-34173244D01*
X22949047Y-34173244D02*
X22925238Y-34220863D01*
X30528571Y-62159530D02*
X30504762Y-62183340D01*
X30504762Y-62183340D02*
X30433333Y-62207149D01*
X30433333Y-62207149D02*
X30385714Y-62207149D01*
X30385714Y-62207149D02*
X30314286Y-62183340D01*
X30314286Y-62183340D02*
X30266667Y-62135720D01*
X30266667Y-62135720D02*
X30242857Y-62088101D01*
X30242857Y-62088101D02*
X30219048Y-61992863D01*
X30219048Y-61992863D02*
X30219048Y-61921435D01*
X30219048Y-61921435D02*
X30242857Y-61826197D01*
X30242857Y-61826197D02*
X30266667Y-61778578D01*
X30266667Y-61778578D02*
X30314286Y-61730959D01*
X30314286Y-61730959D02*
X30385714Y-61707149D01*
X30385714Y-61707149D02*
X30433333Y-61707149D01*
X30433333Y-61707149D02*
X30504762Y-61730959D01*
X30504762Y-61730959D02*
X30528571Y-61754768D01*
X30719048Y-61754768D02*
X30742857Y-61730959D01*
X30742857Y-61730959D02*
X30790476Y-61707149D01*
X30790476Y-61707149D02*
X30909524Y-61707149D01*
X30909524Y-61707149D02*
X30957143Y-61730959D01*
X30957143Y-61730959D02*
X30980952Y-61754768D01*
X30980952Y-61754768D02*
X31004762Y-61802387D01*
X31004762Y-61802387D02*
X31004762Y-61850006D01*
X31004762Y-61850006D02*
X30980952Y-61921435D01*
X30980952Y-61921435D02*
X30695238Y-62207149D01*
X30695238Y-62207149D02*
X31004762Y-62207149D01*
X31480952Y-62207149D02*
X31195238Y-62207149D01*
X31338095Y-62207149D02*
X31338095Y-61707149D01*
X31338095Y-61707149D02*
X31290476Y-61778578D01*
X31290476Y-61778578D02*
X31242857Y-61826197D01*
X31242857Y-61826197D02*
X31195238Y-61850006D01*
X22734761Y-33747149D02*
X22568095Y-33509054D01*
X22449047Y-33747149D02*
X22449047Y-33247149D01*
X22449047Y-33247149D02*
X22639523Y-33247149D01*
X22639523Y-33247149D02*
X22687142Y-33270959D01*
X22687142Y-33270959D02*
X22710952Y-33294768D01*
X22710952Y-33294768D02*
X22734761Y-33342387D01*
X22734761Y-33342387D02*
X22734761Y-33413816D01*
X22734761Y-33413816D02*
X22710952Y-33461435D01*
X22710952Y-33461435D02*
X22687142Y-33485244D01*
X22687142Y-33485244D02*
X22639523Y-33509054D01*
X22639523Y-33509054D02*
X22449047Y-33509054D01*
X23163333Y-33247149D02*
X23068095Y-33247149D01*
X23068095Y-33247149D02*
X23020476Y-33270959D01*
X23020476Y-33270959D02*
X22996666Y-33294768D01*
X22996666Y-33294768D02*
X22949047Y-33366197D01*
X22949047Y-33366197D02*
X22925238Y-33461435D01*
X22925238Y-33461435D02*
X22925238Y-33651911D01*
X22925238Y-33651911D02*
X22949047Y-33699530D01*
X22949047Y-33699530D02*
X22972857Y-33723340D01*
X22972857Y-33723340D02*
X23020476Y-33747149D01*
X23020476Y-33747149D02*
X23115714Y-33747149D01*
X23115714Y-33747149D02*
X23163333Y-33723340D01*
X23163333Y-33723340D02*
X23187142Y-33699530D01*
X23187142Y-33699530D02*
X23210952Y-33651911D01*
X23210952Y-33651911D02*
X23210952Y-33532863D01*
X23210952Y-33532863D02*
X23187142Y-33485244D01*
X23187142Y-33485244D02*
X23163333Y-33461435D01*
X23163333Y-33461435D02*
X23115714Y-33437625D01*
X23115714Y-33437625D02*
X23020476Y-33437625D01*
X23020476Y-33437625D02*
X22972857Y-33461435D01*
X22972857Y-33461435D02*
X22949047Y-33485244D01*
X22949047Y-33485244D02*
X22925238Y-33532863D01*
X35552610Y-23669530D02*
X35528801Y-23693340D01*
X35528801Y-23693340D02*
X35457372Y-23717149D01*
X35457372Y-23717149D02*
X35409753Y-23717149D01*
X35409753Y-23717149D02*
X35338325Y-23693340D01*
X35338325Y-23693340D02*
X35290706Y-23645720D01*
X35290706Y-23645720D02*
X35266896Y-23598101D01*
X35266896Y-23598101D02*
X35243087Y-23502863D01*
X35243087Y-23502863D02*
X35243087Y-23431435D01*
X35243087Y-23431435D02*
X35266896Y-23336197D01*
X35266896Y-23336197D02*
X35290706Y-23288578D01*
X35290706Y-23288578D02*
X35338325Y-23240959D01*
X35338325Y-23240959D02*
X35409753Y-23217149D01*
X35409753Y-23217149D02*
X35457372Y-23217149D01*
X35457372Y-23217149D02*
X35528801Y-23240959D01*
X35528801Y-23240959D02*
X35552610Y-23264768D01*
X35981182Y-23383816D02*
X35981182Y-23717149D01*
X35862134Y-23193340D02*
X35743087Y-23550482D01*
X35743087Y-23550482D02*
X36052610Y-23550482D01*
X30816666Y-25054530D02*
X30792857Y-25078340D01*
X30792857Y-25078340D02*
X30721428Y-25102149D01*
X30721428Y-25102149D02*
X30673809Y-25102149D01*
X30673809Y-25102149D02*
X30602381Y-25078340D01*
X30602381Y-25078340D02*
X30554762Y-25030720D01*
X30554762Y-25030720D02*
X30530952Y-24983101D01*
X30530952Y-24983101D02*
X30507143Y-24887863D01*
X30507143Y-24887863D02*
X30507143Y-24816435D01*
X30507143Y-24816435D02*
X30530952Y-24721197D01*
X30530952Y-24721197D02*
X30554762Y-24673578D01*
X30554762Y-24673578D02*
X30602381Y-24625959D01*
X30602381Y-24625959D02*
X30673809Y-24602149D01*
X30673809Y-24602149D02*
X30721428Y-24602149D01*
X30721428Y-24602149D02*
X30792857Y-24625959D01*
X30792857Y-24625959D02*
X30816666Y-24649768D01*
X31269047Y-24602149D02*
X31030952Y-24602149D01*
X31030952Y-24602149D02*
X31007143Y-24840244D01*
X31007143Y-24840244D02*
X31030952Y-24816435D01*
X31030952Y-24816435D02*
X31078571Y-24792625D01*
X31078571Y-24792625D02*
X31197619Y-24792625D01*
X31197619Y-24792625D02*
X31245238Y-24816435D01*
X31245238Y-24816435D02*
X31269047Y-24840244D01*
X31269047Y-24840244D02*
X31292857Y-24887863D01*
X31292857Y-24887863D02*
X31292857Y-25006911D01*
X31292857Y-25006911D02*
X31269047Y-25054530D01*
X31269047Y-25054530D02*
X31245238Y-25078340D01*
X31245238Y-25078340D02*
X31197619Y-25102149D01*
X31197619Y-25102149D02*
X31078571Y-25102149D01*
X31078571Y-25102149D02*
X31030952Y-25078340D01*
X31030952Y-25078340D02*
X31007143Y-25054530D01*
X33147149Y-60401428D02*
X32909054Y-60568094D01*
X33147149Y-60687142D02*
X32647149Y-60687142D01*
X32647149Y-60687142D02*
X32647149Y-60496666D01*
X32647149Y-60496666D02*
X32670959Y-60449047D01*
X32670959Y-60449047D02*
X32694768Y-60425237D01*
X32694768Y-60425237D02*
X32742387Y-60401428D01*
X32742387Y-60401428D02*
X32813816Y-60401428D01*
X32813816Y-60401428D02*
X32861435Y-60425237D01*
X32861435Y-60425237D02*
X32885244Y-60449047D01*
X32885244Y-60449047D02*
X32909054Y-60496666D01*
X32909054Y-60496666D02*
X32909054Y-60687142D01*
X32647149Y-60234761D02*
X32647149Y-59925237D01*
X32647149Y-59925237D02*
X32837625Y-60091904D01*
X32837625Y-60091904D02*
X32837625Y-60020475D01*
X32837625Y-60020475D02*
X32861435Y-59972856D01*
X32861435Y-59972856D02*
X32885244Y-59949047D01*
X32885244Y-59949047D02*
X32932863Y-59925237D01*
X32932863Y-59925237D02*
X33051911Y-59925237D01*
X33051911Y-59925237D02*
X33099530Y-59949047D01*
X33099530Y-59949047D02*
X33123340Y-59972856D01*
X33123340Y-59972856D02*
X33147149Y-60020475D01*
X33147149Y-60020475D02*
X33147149Y-60163332D01*
X33147149Y-60163332D02*
X33123340Y-60210951D01*
X33123340Y-60210951D02*
X33099530Y-60234761D01*
X32647149Y-59615714D02*
X32647149Y-59568095D01*
X32647149Y-59568095D02*
X32670959Y-59520476D01*
X32670959Y-59520476D02*
X32694768Y-59496666D01*
X32694768Y-59496666D02*
X32742387Y-59472857D01*
X32742387Y-59472857D02*
X32837625Y-59449047D01*
X32837625Y-59449047D02*
X32956673Y-59449047D01*
X32956673Y-59449047D02*
X33051911Y-59472857D01*
X33051911Y-59472857D02*
X33099530Y-59496666D01*
X33099530Y-59496666D02*
X33123340Y-59520476D01*
X33123340Y-59520476D02*
X33147149Y-59568095D01*
X33147149Y-59568095D02*
X33147149Y-59615714D01*
X33147149Y-59615714D02*
X33123340Y-59663333D01*
X33123340Y-59663333D02*
X33099530Y-59687142D01*
X33099530Y-59687142D02*
X33051911Y-59710952D01*
X33051911Y-59710952D02*
X32956673Y-59734761D01*
X32956673Y-59734761D02*
X32837625Y-59734761D01*
X32837625Y-59734761D02*
X32742387Y-59710952D01*
X32742387Y-59710952D02*
X32694768Y-59687142D01*
X32694768Y-59687142D02*
X32670959Y-59663333D01*
X32670959Y-59663333D02*
X32647149Y-59615714D01*
X33879530Y-22758333D02*
X33903340Y-22782142D01*
X33903340Y-22782142D02*
X33927149Y-22853571D01*
X33927149Y-22853571D02*
X33927149Y-22901190D01*
X33927149Y-22901190D02*
X33903340Y-22972618D01*
X33903340Y-22972618D02*
X33855720Y-23020237D01*
X33855720Y-23020237D02*
X33808101Y-23044047D01*
X33808101Y-23044047D02*
X33712863Y-23067856D01*
X33712863Y-23067856D02*
X33641435Y-23067856D01*
X33641435Y-23067856D02*
X33546197Y-23044047D01*
X33546197Y-23044047D02*
X33498578Y-23020237D01*
X33498578Y-23020237D02*
X33450959Y-22972618D01*
X33450959Y-22972618D02*
X33427149Y-22901190D01*
X33427149Y-22901190D02*
X33427149Y-22853571D01*
X33427149Y-22853571D02*
X33450959Y-22782142D01*
X33450959Y-22782142D02*
X33474768Y-22758333D01*
X33474768Y-22567856D02*
X33450959Y-22544047D01*
X33450959Y-22544047D02*
X33427149Y-22496428D01*
X33427149Y-22496428D02*
X33427149Y-22377380D01*
X33427149Y-22377380D02*
X33450959Y-22329761D01*
X33450959Y-22329761D02*
X33474768Y-22305952D01*
X33474768Y-22305952D02*
X33522387Y-22282142D01*
X33522387Y-22282142D02*
X33570006Y-22282142D01*
X33570006Y-22282142D02*
X33641435Y-22305952D01*
X33641435Y-22305952D02*
X33927149Y-22591666D01*
X33927149Y-22591666D02*
X33927149Y-22282142D01*
X23856666Y-36607149D02*
X23690000Y-36369054D01*
X23570952Y-36607149D02*
X23570952Y-36107149D01*
X23570952Y-36107149D02*
X23761428Y-36107149D01*
X23761428Y-36107149D02*
X23809047Y-36130959D01*
X23809047Y-36130959D02*
X23832857Y-36154768D01*
X23832857Y-36154768D02*
X23856666Y-36202387D01*
X23856666Y-36202387D02*
X23856666Y-36273816D01*
X23856666Y-36273816D02*
X23832857Y-36321435D01*
X23832857Y-36321435D02*
X23809047Y-36345244D01*
X23809047Y-36345244D02*
X23761428Y-36369054D01*
X23761428Y-36369054D02*
X23570952Y-36369054D01*
X24332857Y-36607149D02*
X24047143Y-36607149D01*
X24190000Y-36607149D02*
X24190000Y-36107149D01*
X24190000Y-36107149D02*
X24142381Y-36178578D01*
X24142381Y-36178578D02*
X24094762Y-36226197D01*
X24094762Y-36226197D02*
X24047143Y-36250006D01*
X24761428Y-36107149D02*
X24666190Y-36107149D01*
X24666190Y-36107149D02*
X24618571Y-36130959D01*
X24618571Y-36130959D02*
X24594761Y-36154768D01*
X24594761Y-36154768D02*
X24547142Y-36226197D01*
X24547142Y-36226197D02*
X24523333Y-36321435D01*
X24523333Y-36321435D02*
X24523333Y-36511911D01*
X24523333Y-36511911D02*
X24547142Y-36559530D01*
X24547142Y-36559530D02*
X24570952Y-36583340D01*
X24570952Y-36583340D02*
X24618571Y-36607149D01*
X24618571Y-36607149D02*
X24713809Y-36607149D01*
X24713809Y-36607149D02*
X24761428Y-36583340D01*
X24761428Y-36583340D02*
X24785237Y-36559530D01*
X24785237Y-36559530D02*
X24809047Y-36511911D01*
X24809047Y-36511911D02*
X24809047Y-36392863D01*
X24809047Y-36392863D02*
X24785237Y-36345244D01*
X24785237Y-36345244D02*
X24761428Y-36321435D01*
X24761428Y-36321435D02*
X24713809Y-36297625D01*
X24713809Y-36297625D02*
X24618571Y-36297625D01*
X24618571Y-36297625D02*
X24570952Y-36321435D01*
X24570952Y-36321435D02*
X24547142Y-36345244D01*
X24547142Y-36345244D02*
X24523333Y-36392863D01*
X31614930Y-33657149D02*
X31448264Y-33419054D01*
X31329216Y-33657149D02*
X31329216Y-33157149D01*
X31329216Y-33157149D02*
X31519692Y-33157149D01*
X31519692Y-33157149D02*
X31567311Y-33180959D01*
X31567311Y-33180959D02*
X31591121Y-33204768D01*
X31591121Y-33204768D02*
X31614930Y-33252387D01*
X31614930Y-33252387D02*
X31614930Y-33323816D01*
X31614930Y-33323816D02*
X31591121Y-33371435D01*
X31591121Y-33371435D02*
X31567311Y-33395244D01*
X31567311Y-33395244D02*
X31519692Y-33419054D01*
X31519692Y-33419054D02*
X31329216Y-33419054D01*
X32091121Y-33657149D02*
X31805407Y-33657149D01*
X31948264Y-33657149D02*
X31948264Y-33157149D01*
X31948264Y-33157149D02*
X31900645Y-33228578D01*
X31900645Y-33228578D02*
X31853026Y-33276197D01*
X31853026Y-33276197D02*
X31805407Y-33300006D01*
X32400644Y-33157149D02*
X32448263Y-33157149D01*
X32448263Y-33157149D02*
X32495882Y-33180959D01*
X32495882Y-33180959D02*
X32519692Y-33204768D01*
X32519692Y-33204768D02*
X32543501Y-33252387D01*
X32543501Y-33252387D02*
X32567311Y-33347625D01*
X32567311Y-33347625D02*
X32567311Y-33466673D01*
X32567311Y-33466673D02*
X32543501Y-33561911D01*
X32543501Y-33561911D02*
X32519692Y-33609530D01*
X32519692Y-33609530D02*
X32495882Y-33633340D01*
X32495882Y-33633340D02*
X32448263Y-33657149D01*
X32448263Y-33657149D02*
X32400644Y-33657149D01*
X32400644Y-33657149D02*
X32353025Y-33633340D01*
X32353025Y-33633340D02*
X32329216Y-33609530D01*
X32329216Y-33609530D02*
X32305406Y-33561911D01*
X32305406Y-33561911D02*
X32281597Y-33466673D01*
X32281597Y-33466673D02*
X32281597Y-33347625D01*
X32281597Y-33347625D02*
X32305406Y-33252387D01*
X32305406Y-33252387D02*
X32329216Y-33204768D01*
X32329216Y-33204768D02*
X32353025Y-33180959D01*
X32353025Y-33180959D02*
X32400644Y-33157149D01*
X31318571Y-61349530D02*
X31294762Y-61373340D01*
X31294762Y-61373340D02*
X31223333Y-61397149D01*
X31223333Y-61397149D02*
X31175714Y-61397149D01*
X31175714Y-61397149D02*
X31104286Y-61373340D01*
X31104286Y-61373340D02*
X31056667Y-61325720D01*
X31056667Y-61325720D02*
X31032857Y-61278101D01*
X31032857Y-61278101D02*
X31009048Y-61182863D01*
X31009048Y-61182863D02*
X31009048Y-61111435D01*
X31009048Y-61111435D02*
X31032857Y-61016197D01*
X31032857Y-61016197D02*
X31056667Y-60968578D01*
X31056667Y-60968578D02*
X31104286Y-60920959D01*
X31104286Y-60920959D02*
X31175714Y-60897149D01*
X31175714Y-60897149D02*
X31223333Y-60897149D01*
X31223333Y-60897149D02*
X31294762Y-60920959D01*
X31294762Y-60920959D02*
X31318571Y-60944768D01*
X31509048Y-60944768D02*
X31532857Y-60920959D01*
X31532857Y-60920959D02*
X31580476Y-60897149D01*
X31580476Y-60897149D02*
X31699524Y-60897149D01*
X31699524Y-60897149D02*
X31747143Y-60920959D01*
X31747143Y-60920959D02*
X31770952Y-60944768D01*
X31770952Y-60944768D02*
X31794762Y-60992387D01*
X31794762Y-60992387D02*
X31794762Y-61040006D01*
X31794762Y-61040006D02*
X31770952Y-61111435D01*
X31770952Y-61111435D02*
X31485238Y-61397149D01*
X31485238Y-61397149D02*
X31794762Y-61397149D01*
X32104285Y-60897149D02*
X32151904Y-60897149D01*
X32151904Y-60897149D02*
X32199523Y-60920959D01*
X32199523Y-60920959D02*
X32223333Y-60944768D01*
X32223333Y-60944768D02*
X32247142Y-60992387D01*
X32247142Y-60992387D02*
X32270952Y-61087625D01*
X32270952Y-61087625D02*
X32270952Y-61206673D01*
X32270952Y-61206673D02*
X32247142Y-61301911D01*
X32247142Y-61301911D02*
X32223333Y-61349530D01*
X32223333Y-61349530D02*
X32199523Y-61373340D01*
X32199523Y-61373340D02*
X32151904Y-61397149D01*
X32151904Y-61397149D02*
X32104285Y-61397149D01*
X32104285Y-61397149D02*
X32056666Y-61373340D01*
X32056666Y-61373340D02*
X32032857Y-61349530D01*
X32032857Y-61349530D02*
X32009047Y-61301911D01*
X32009047Y-61301911D02*
X31985238Y-61206673D01*
X31985238Y-61206673D02*
X31985238Y-61087625D01*
X31985238Y-61087625D02*
X32009047Y-60992387D01*
X32009047Y-60992387D02*
X32032857Y-60944768D01*
X32032857Y-60944768D02*
X32056666Y-60920959D01*
X32056666Y-60920959D02*
X32104285Y-60897149D01*
X25428571Y-36249530D02*
X25404762Y-36273340D01*
X25404762Y-36273340D02*
X25333333Y-36297149D01*
X25333333Y-36297149D02*
X25285714Y-36297149D01*
X25285714Y-36297149D02*
X25214286Y-36273340D01*
X25214286Y-36273340D02*
X25166667Y-36225720D01*
X25166667Y-36225720D02*
X25142857Y-36178101D01*
X25142857Y-36178101D02*
X25119048Y-36082863D01*
X25119048Y-36082863D02*
X25119048Y-36011435D01*
X25119048Y-36011435D02*
X25142857Y-35916197D01*
X25142857Y-35916197D02*
X25166667Y-35868578D01*
X25166667Y-35868578D02*
X25214286Y-35820959D01*
X25214286Y-35820959D02*
X25285714Y-35797149D01*
X25285714Y-35797149D02*
X25333333Y-35797149D01*
X25333333Y-35797149D02*
X25404762Y-35820959D01*
X25404762Y-35820959D02*
X25428571Y-35844768D01*
X25619048Y-35844768D02*
X25642857Y-35820959D01*
X25642857Y-35820959D02*
X25690476Y-35797149D01*
X25690476Y-35797149D02*
X25809524Y-35797149D01*
X25809524Y-35797149D02*
X25857143Y-35820959D01*
X25857143Y-35820959D02*
X25880952Y-35844768D01*
X25880952Y-35844768D02*
X25904762Y-35892387D01*
X25904762Y-35892387D02*
X25904762Y-35940006D01*
X25904762Y-35940006D02*
X25880952Y-36011435D01*
X25880952Y-36011435D02*
X25595238Y-36297149D01*
X25595238Y-36297149D02*
X25904762Y-36297149D01*
X26142857Y-36297149D02*
X26238095Y-36297149D01*
X26238095Y-36297149D02*
X26285714Y-36273340D01*
X26285714Y-36273340D02*
X26309523Y-36249530D01*
X26309523Y-36249530D02*
X26357142Y-36178101D01*
X26357142Y-36178101D02*
X26380952Y-36082863D01*
X26380952Y-36082863D02*
X26380952Y-35892387D01*
X26380952Y-35892387D02*
X26357142Y-35844768D01*
X26357142Y-35844768D02*
X26333333Y-35820959D01*
X26333333Y-35820959D02*
X26285714Y-35797149D01*
X26285714Y-35797149D02*
X26190476Y-35797149D01*
X26190476Y-35797149D02*
X26142857Y-35820959D01*
X26142857Y-35820959D02*
X26119047Y-35844768D01*
X26119047Y-35844768D02*
X26095238Y-35892387D01*
X26095238Y-35892387D02*
X26095238Y-36011435D01*
X26095238Y-36011435D02*
X26119047Y-36059054D01*
X26119047Y-36059054D02*
X26142857Y-36082863D01*
X26142857Y-36082863D02*
X26190476Y-36106673D01*
X26190476Y-36106673D02*
X26285714Y-36106673D01*
X26285714Y-36106673D02*
X26333333Y-36082863D01*
X26333333Y-36082863D02*
X26357142Y-36059054D01*
X26357142Y-36059054D02*
X26380952Y-36011435D01*
X32868571Y-67728234D02*
X32844762Y-67752044D01*
X32844762Y-67752044D02*
X32773333Y-67775853D01*
X32773333Y-67775853D02*
X32725714Y-67775853D01*
X32725714Y-67775853D02*
X32654286Y-67752044D01*
X32654286Y-67752044D02*
X32606667Y-67704424D01*
X32606667Y-67704424D02*
X32582857Y-67656805D01*
X32582857Y-67656805D02*
X32559048Y-67561567D01*
X32559048Y-67561567D02*
X32559048Y-67490139D01*
X32559048Y-67490139D02*
X32582857Y-67394901D01*
X32582857Y-67394901D02*
X32606667Y-67347282D01*
X32606667Y-67347282D02*
X32654286Y-67299663D01*
X32654286Y-67299663D02*
X32725714Y-67275853D01*
X32725714Y-67275853D02*
X32773333Y-67275853D01*
X32773333Y-67275853D02*
X32844762Y-67299663D01*
X32844762Y-67299663D02*
X32868571Y-67323472D01*
X33059048Y-67323472D02*
X33082857Y-67299663D01*
X33082857Y-67299663D02*
X33130476Y-67275853D01*
X33130476Y-67275853D02*
X33249524Y-67275853D01*
X33249524Y-67275853D02*
X33297143Y-67299663D01*
X33297143Y-67299663D02*
X33320952Y-67323472D01*
X33320952Y-67323472D02*
X33344762Y-67371091D01*
X33344762Y-67371091D02*
X33344762Y-67418710D01*
X33344762Y-67418710D02*
X33320952Y-67490139D01*
X33320952Y-67490139D02*
X33035238Y-67775853D01*
X33035238Y-67775853D02*
X33344762Y-67775853D01*
X33797142Y-67275853D02*
X33559047Y-67275853D01*
X33559047Y-67275853D02*
X33535238Y-67513948D01*
X33535238Y-67513948D02*
X33559047Y-67490139D01*
X33559047Y-67490139D02*
X33606666Y-67466329D01*
X33606666Y-67466329D02*
X33725714Y-67466329D01*
X33725714Y-67466329D02*
X33773333Y-67490139D01*
X33773333Y-67490139D02*
X33797142Y-67513948D01*
X33797142Y-67513948D02*
X33820952Y-67561567D01*
X33820952Y-67561567D02*
X33820952Y-67680615D01*
X33820952Y-67680615D02*
X33797142Y-67728234D01*
X33797142Y-67728234D02*
X33773333Y-67752044D01*
X33773333Y-67752044D02*
X33725714Y-67775853D01*
X33725714Y-67775853D02*
X33606666Y-67775853D01*
X33606666Y-67775853D02*
X33559047Y-67752044D01*
X33559047Y-67752044D02*
X33535238Y-67728234D01*
X29391666Y-25102149D02*
X29225000Y-24864054D01*
X29105952Y-25102149D02*
X29105952Y-24602149D01*
X29105952Y-24602149D02*
X29296428Y-24602149D01*
X29296428Y-24602149D02*
X29344047Y-24625959D01*
X29344047Y-24625959D02*
X29367857Y-24649768D01*
X29367857Y-24649768D02*
X29391666Y-24697387D01*
X29391666Y-24697387D02*
X29391666Y-24768816D01*
X29391666Y-24768816D02*
X29367857Y-24816435D01*
X29367857Y-24816435D02*
X29344047Y-24840244D01*
X29344047Y-24840244D02*
X29296428Y-24864054D01*
X29296428Y-24864054D02*
X29105952Y-24864054D01*
X29820238Y-24768816D02*
X29820238Y-25102149D01*
X29701190Y-24578340D02*
X29582143Y-24935482D01*
X29582143Y-24935482D02*
X29891666Y-24935482D01*
X30046666Y-34209530D02*
X30022857Y-34233340D01*
X30022857Y-34233340D02*
X29951428Y-34257149D01*
X29951428Y-34257149D02*
X29903809Y-34257149D01*
X29903809Y-34257149D02*
X29832381Y-34233340D01*
X29832381Y-34233340D02*
X29784762Y-34185720D01*
X29784762Y-34185720D02*
X29760952Y-34138101D01*
X29760952Y-34138101D02*
X29737143Y-34042863D01*
X29737143Y-34042863D02*
X29737143Y-33971435D01*
X29737143Y-33971435D02*
X29760952Y-33876197D01*
X29760952Y-33876197D02*
X29784762Y-33828578D01*
X29784762Y-33828578D02*
X29832381Y-33780959D01*
X29832381Y-33780959D02*
X29903809Y-33757149D01*
X29903809Y-33757149D02*
X29951428Y-33757149D01*
X29951428Y-33757149D02*
X30022857Y-33780959D01*
X30022857Y-33780959D02*
X30046666Y-33804768D01*
X30332381Y-33971435D02*
X30284762Y-33947625D01*
X30284762Y-33947625D02*
X30260952Y-33923816D01*
X30260952Y-33923816D02*
X30237143Y-33876197D01*
X30237143Y-33876197D02*
X30237143Y-33852387D01*
X30237143Y-33852387D02*
X30260952Y-33804768D01*
X30260952Y-33804768D02*
X30284762Y-33780959D01*
X30284762Y-33780959D02*
X30332381Y-33757149D01*
X30332381Y-33757149D02*
X30427619Y-33757149D01*
X30427619Y-33757149D02*
X30475238Y-33780959D01*
X30475238Y-33780959D02*
X30499047Y-33804768D01*
X30499047Y-33804768D02*
X30522857Y-33852387D01*
X30522857Y-33852387D02*
X30522857Y-33876197D01*
X30522857Y-33876197D02*
X30499047Y-33923816D01*
X30499047Y-33923816D02*
X30475238Y-33947625D01*
X30475238Y-33947625D02*
X30427619Y-33971435D01*
X30427619Y-33971435D02*
X30332381Y-33971435D01*
X30332381Y-33971435D02*
X30284762Y-33995244D01*
X30284762Y-33995244D02*
X30260952Y-34019054D01*
X30260952Y-34019054D02*
X30237143Y-34066673D01*
X30237143Y-34066673D02*
X30237143Y-34161911D01*
X30237143Y-34161911D02*
X30260952Y-34209530D01*
X30260952Y-34209530D02*
X30284762Y-34233340D01*
X30284762Y-34233340D02*
X30332381Y-34257149D01*
X30332381Y-34257149D02*
X30427619Y-34257149D01*
X30427619Y-34257149D02*
X30475238Y-34233340D01*
X30475238Y-34233340D02*
X30499047Y-34209530D01*
X30499047Y-34209530D02*
X30522857Y-34161911D01*
X30522857Y-34161911D02*
X30522857Y-34066673D01*
X30522857Y-34066673D02*
X30499047Y-34019054D01*
X30499047Y-34019054D02*
X30475238Y-33995244D01*
X30475238Y-33995244D02*
X30427619Y-33971435D01*
X21496278Y-52181815D02*
X21496278Y-52586577D01*
X21496278Y-52586577D02*
X21520088Y-52634196D01*
X21520088Y-52634196D02*
X21543897Y-52658006D01*
X21543897Y-52658006D02*
X21591516Y-52681815D01*
X21591516Y-52681815D02*
X21686754Y-52681815D01*
X21686754Y-52681815D02*
X21734373Y-52658006D01*
X21734373Y-52658006D02*
X21758183Y-52634196D01*
X21758183Y-52634196D02*
X21781992Y-52586577D01*
X21781992Y-52586577D02*
X21781992Y-52181815D01*
X22234374Y-52348482D02*
X22234374Y-52681815D01*
X22115326Y-52158006D02*
X21996279Y-52515148D01*
X21996279Y-52515148D02*
X22305802Y-52515148D01*
X22588571Y-55252149D02*
X22421905Y-55014054D01*
X22302857Y-55252149D02*
X22302857Y-54752149D01*
X22302857Y-54752149D02*
X22493333Y-54752149D01*
X22493333Y-54752149D02*
X22540952Y-54775959D01*
X22540952Y-54775959D02*
X22564762Y-54799768D01*
X22564762Y-54799768D02*
X22588571Y-54847387D01*
X22588571Y-54847387D02*
X22588571Y-54918816D01*
X22588571Y-54918816D02*
X22564762Y-54966435D01*
X22564762Y-54966435D02*
X22540952Y-54990244D01*
X22540952Y-54990244D02*
X22493333Y-55014054D01*
X22493333Y-55014054D02*
X22302857Y-55014054D01*
X22779048Y-54799768D02*
X22802857Y-54775959D01*
X22802857Y-54775959D02*
X22850476Y-54752149D01*
X22850476Y-54752149D02*
X22969524Y-54752149D01*
X22969524Y-54752149D02*
X23017143Y-54775959D01*
X23017143Y-54775959D02*
X23040952Y-54799768D01*
X23040952Y-54799768D02*
X23064762Y-54847387D01*
X23064762Y-54847387D02*
X23064762Y-54895006D01*
X23064762Y-54895006D02*
X23040952Y-54966435D01*
X23040952Y-54966435D02*
X22755238Y-55252149D01*
X22755238Y-55252149D02*
X23064762Y-55252149D01*
X23517142Y-54752149D02*
X23279047Y-54752149D01*
X23279047Y-54752149D02*
X23255238Y-54990244D01*
X23255238Y-54990244D02*
X23279047Y-54966435D01*
X23279047Y-54966435D02*
X23326666Y-54942625D01*
X23326666Y-54942625D02*
X23445714Y-54942625D01*
X23445714Y-54942625D02*
X23493333Y-54966435D01*
X23493333Y-54966435D02*
X23517142Y-54990244D01*
X23517142Y-54990244D02*
X23540952Y-55037863D01*
X23540952Y-55037863D02*
X23540952Y-55156911D01*
X23540952Y-55156911D02*
X23517142Y-55204530D01*
X23517142Y-55204530D02*
X23493333Y-55228340D01*
X23493333Y-55228340D02*
X23445714Y-55252149D01*
X23445714Y-55252149D02*
X23326666Y-55252149D01*
X23326666Y-55252149D02*
X23279047Y-55228340D01*
X23279047Y-55228340D02*
X23255238Y-55204530D01*
X22258571Y-36451530D02*
X22234762Y-36475340D01*
X22234762Y-36475340D02*
X22163333Y-36499149D01*
X22163333Y-36499149D02*
X22115714Y-36499149D01*
X22115714Y-36499149D02*
X22044286Y-36475340D01*
X22044286Y-36475340D02*
X21996667Y-36427720D01*
X21996667Y-36427720D02*
X21972857Y-36380101D01*
X21972857Y-36380101D02*
X21949048Y-36284863D01*
X21949048Y-36284863D02*
X21949048Y-36213435D01*
X21949048Y-36213435D02*
X21972857Y-36118197D01*
X21972857Y-36118197D02*
X21996667Y-36070578D01*
X21996667Y-36070578D02*
X22044286Y-36022959D01*
X22044286Y-36022959D02*
X22115714Y-35999149D01*
X22115714Y-35999149D02*
X22163333Y-35999149D01*
X22163333Y-35999149D02*
X22234762Y-36022959D01*
X22234762Y-36022959D02*
X22258571Y-36046768D01*
X22734762Y-36499149D02*
X22449048Y-36499149D01*
X22591905Y-36499149D02*
X22591905Y-35999149D01*
X22591905Y-35999149D02*
X22544286Y-36070578D01*
X22544286Y-36070578D02*
X22496667Y-36118197D01*
X22496667Y-36118197D02*
X22449048Y-36142006D01*
X22925238Y-36046768D02*
X22949047Y-36022959D01*
X22949047Y-36022959D02*
X22996666Y-35999149D01*
X22996666Y-35999149D02*
X23115714Y-35999149D01*
X23115714Y-35999149D02*
X23163333Y-36022959D01*
X23163333Y-36022959D02*
X23187142Y-36046768D01*
X23187142Y-36046768D02*
X23210952Y-36094387D01*
X23210952Y-36094387D02*
X23210952Y-36142006D01*
X23210952Y-36142006D02*
X23187142Y-36213435D01*
X23187142Y-36213435D02*
X22901428Y-36499149D01*
X22901428Y-36499149D02*
X23210952Y-36499149D01*
X29494930Y-61427149D02*
X29328264Y-61189054D01*
X29209216Y-61427149D02*
X29209216Y-60927149D01*
X29209216Y-60927149D02*
X29399692Y-60927149D01*
X29399692Y-60927149D02*
X29447311Y-60950959D01*
X29447311Y-60950959D02*
X29471121Y-60974768D01*
X29471121Y-60974768D02*
X29494930Y-61022387D01*
X29494930Y-61022387D02*
X29494930Y-61093816D01*
X29494930Y-61093816D02*
X29471121Y-61141435D01*
X29471121Y-61141435D02*
X29447311Y-61165244D01*
X29447311Y-61165244D02*
X29399692Y-61189054D01*
X29399692Y-61189054D02*
X29209216Y-61189054D01*
X29685407Y-60974768D02*
X29709216Y-60950959D01*
X29709216Y-60950959D02*
X29756835Y-60927149D01*
X29756835Y-60927149D02*
X29875883Y-60927149D01*
X29875883Y-60927149D02*
X29923502Y-60950959D01*
X29923502Y-60950959D02*
X29947311Y-60974768D01*
X29947311Y-60974768D02*
X29971121Y-61022387D01*
X29971121Y-61022387D02*
X29971121Y-61070006D01*
X29971121Y-61070006D02*
X29947311Y-61141435D01*
X29947311Y-61141435D02*
X29661597Y-61427149D01*
X29661597Y-61427149D02*
X29971121Y-61427149D01*
X30137787Y-60927149D02*
X30471120Y-60927149D01*
X30471120Y-60927149D02*
X30256835Y-61427149D01*
%TO.C,R2*%
D14*
X17837500Y-25027258D02*
X17837500Y-24552742D01*
X18882500Y-25027258D02*
X18882500Y-24552742D01*
%TO.C,R22*%
X17857500Y-42187742D02*
X17857500Y-42662258D01*
X18902500Y-42187742D02*
X18902500Y-42662258D01*
%TO.C,C16*%
X18890000Y-48790580D02*
X18890000Y-48509420D01*
X17870000Y-48790580D02*
X17870000Y-48509420D01*
%TO.C,R28*%
X18852500Y-58512742D02*
X18852500Y-58987258D01*
X17807500Y-58512742D02*
X17807500Y-58987258D01*
%TO.C,C19*%
X18890000Y-54684420D02*
X18890000Y-54965580D01*
X17870000Y-54684420D02*
X17870000Y-54965580D01*
%TO.C,C23*%
X18840000Y-62415580D02*
X18840000Y-62134420D01*
X17820000Y-62415580D02*
X17820000Y-62134420D01*
%TO.C,R1*%
X18922500Y-21532742D02*
X18922500Y-22007258D01*
X17877500Y-21532742D02*
X17877500Y-22007258D01*
%TO.C,FB1*%
X18890000Y-51637221D02*
X18890000Y-51962779D01*
X17870000Y-51637221D02*
X17870000Y-51962779D01*
%TO.C,C15*%
X17840000Y-35115580D02*
X17840000Y-34834420D01*
X18860000Y-35115580D02*
X18860000Y-34834420D01*
%TO.C,C11*%
X17840000Y-28990580D02*
X17840000Y-28709420D01*
X18860000Y-28990580D02*
X18860000Y-28709420D01*
%TO.C,R17*%
X17827500Y-32137258D02*
X17827500Y-31662742D01*
X18872500Y-32137258D02*
X18872500Y-31662742D01*
%TO.C,R29*%
X18852500Y-65747258D02*
X18852500Y-65272742D01*
X17807500Y-65747258D02*
X17807500Y-65272742D01*
%TO.C,R19*%
X17857500Y-39462258D02*
X17857500Y-38987742D01*
X18902500Y-39462258D02*
X18902500Y-38987742D01*
%TO.C,R23*%
X17857500Y-45762258D02*
X17857500Y-45287742D01*
X18902500Y-45762258D02*
X18902500Y-45287742D01*
%TO.C,C30*%
X26637836Y-39080000D02*
X26422164Y-39080000D01*
X26637836Y-39800000D02*
X26422164Y-39800000D01*
%TO.C,J2*%
X38520000Y-32140000D02*
X38520000Y-65270000D01*
X35760000Y-65270000D02*
X38520000Y-65270000D01*
X35760000Y-32140000D02*
X38520000Y-32140000D01*
X35760000Y-32140000D02*
X35760000Y-65270000D01*
X35760000Y-30870000D02*
X35760000Y-29490000D01*
X35760000Y-29490000D02*
X37140000Y-29490000D01*
%TO.C,J4*%
D15*
X21180000Y-21880000D02*
G75*
G02*
X18380000Y-21880000I-1400000J0D01*
G01*
X18380000Y-21880000D02*
G75*
G02*
X21180000Y-21880000I1400000J0D01*
G01*
%TO.C,C10*%
D14*
X23632164Y-28180000D02*
X23847836Y-28180000D01*
X23632164Y-28900000D02*
X23847836Y-28900000D01*
%TO.C,R11*%
X31280000Y-29323641D02*
X31280000Y-29016359D01*
X32040000Y-29323641D02*
X32040000Y-29016359D01*
%TO.C,R18*%
X33027500Y-32362258D02*
X33027500Y-31887742D01*
X34072500Y-32362258D02*
X34072500Y-31887742D01*
%TO.C,L1*%
X25715000Y-69124952D02*
X25715000Y-69647456D01*
X27935000Y-69124952D02*
X27935000Y-69647456D01*
%TO.C,R21*%
X30846359Y-39080000D02*
X31153641Y-39080000D01*
X30846359Y-39840000D02*
X31153641Y-39840000D01*
%TO.C,C7*%
X36419056Y-27454420D02*
X36419056Y-27735580D01*
X37439056Y-27454420D02*
X37439056Y-27735580D01*
%TO.C,C26*%
X21760000Y-68304420D02*
X21760000Y-68585580D01*
X22780000Y-68304420D02*
X22780000Y-68585580D01*
%TO.C,C27*%
X24115580Y-70188704D02*
X23834420Y-70188704D01*
X24115580Y-71208704D02*
X23834420Y-71208704D01*
%TO.C,R33*%
X30190000Y-29016359D02*
X30190000Y-29323641D01*
X30950000Y-29016359D02*
X30950000Y-29323641D01*
%TO.C,J1*%
X20615000Y-20280000D02*
X28455000Y-20280000D01*
X20615000Y-22930000D02*
X20615000Y-20280000D01*
X20615000Y-25580000D02*
X20615000Y-24200000D01*
X21995000Y-25580000D02*
X20615000Y-25580000D01*
X23265000Y-22930000D02*
X20615000Y-22930000D01*
X23265000Y-25580000D02*
X23265000Y-22930000D01*
X23265000Y-25580000D02*
X28455000Y-25580000D01*
X28455000Y-25580000D02*
X28455000Y-20280000D01*
%TO.C,C24*%
X36590000Y-68884420D02*
X36590000Y-69165580D01*
X37610000Y-68884420D02*
X37610000Y-69165580D01*
%TO.C,U2*%
D16*
X25173599Y-26875800D02*
X25173599Y-27342459D01*
X25173599Y-29761941D02*
X25173599Y-30228600D01*
X25173599Y-30228600D02*
X25640258Y-30228600D01*
X25640258Y-26875800D02*
X25173599Y-26875800D01*
X28059740Y-30228600D02*
X28526399Y-30228600D01*
X28526399Y-26875800D02*
X28059740Y-26875800D01*
X28526399Y-27342459D02*
X28526399Y-26875800D01*
X28526399Y-30228600D02*
X28526399Y-29761941D01*
D17*
G36*
X29212199Y-28992700D02*
G01*
X28958199Y-28992700D01*
X28958199Y-28611699D01*
X29212199Y-28611699D01*
X29212199Y-28992700D01*
G37*
%TO.C,C22*%
D14*
X25400580Y-55940000D02*
X25119420Y-55940000D01*
X25400580Y-56960000D02*
X25119420Y-56960000D01*
%TO.C,R12*%
X32320000Y-29323641D02*
X32320000Y-29016359D01*
X33080000Y-29323641D02*
X33080000Y-29016359D01*
%TO.C,R26*%
X25287500Y-53962742D02*
X25287500Y-54437258D01*
X26332500Y-53962742D02*
X26332500Y-54437258D01*
%TO.C,R31*%
X24089078Y-39820000D02*
X24396360Y-39820000D01*
X24089078Y-39060000D02*
X24396360Y-39060000D01*
%TO.C,C18*%
X27360000Y-54459420D02*
X27360000Y-54740580D01*
X28380000Y-54459420D02*
X28380000Y-54740580D01*
%TO.C,R20*%
X28773641Y-39060000D02*
X28466359Y-39060000D01*
X28773641Y-39820000D02*
X28466359Y-39820000D01*
%TO.C,R9*%
X23733641Y-27000000D02*
X23426359Y-27000000D01*
X23733641Y-27760000D02*
X23426359Y-27760000D01*
%TO.C,R15*%
X22023641Y-30840000D02*
X21716359Y-30840000D01*
X22023641Y-31600000D02*
X21716359Y-31600000D01*
%TO.C,Y1*%
X29002760Y-71348704D02*
X32152760Y-71348704D01*
X32152760Y-71348704D02*
X32152760Y-67548704D01*
%TO.C,C14*%
X29230000Y-29277836D02*
X29230000Y-29062164D01*
X29950000Y-29277836D02*
X29950000Y-29062164D01*
%TO.C,U5*%
D16*
X22195700Y-58700100D02*
X22195700Y-63449900D01*
X33854300Y-63449900D02*
X33854300Y-58700100D01*
D17*
G36*
X23215500Y-65037400D02*
G01*
X22834500Y-65037400D01*
X22834500Y-64783400D01*
X23215500Y-64783400D01*
X23215500Y-65037400D01*
G37*
G36*
X26015499Y-57366600D02*
G01*
X25634499Y-57366600D01*
X25634499Y-57112600D01*
X26015499Y-57112600D01*
X26015499Y-57366600D01*
G37*
G36*
X27215499Y-65037400D02*
G01*
X26834499Y-65037400D01*
X26834499Y-64783400D01*
X27215499Y-64783400D01*
X27215499Y-65037400D01*
G37*
G36*
X30015499Y-57366600D02*
G01*
X29634499Y-57366600D01*
X29634499Y-57112600D01*
X30015499Y-57112600D01*
X30015499Y-57366600D01*
G37*
G36*
X31215499Y-65037400D02*
G01*
X30834499Y-65037400D01*
X30834499Y-64783400D01*
X31215499Y-64783400D01*
X31215499Y-65037400D01*
G37*
%TO.C,C17*%
D14*
X31340000Y-53603988D02*
X31340000Y-53819660D01*
X32060000Y-53603988D02*
X32060000Y-53819660D01*
%TO.C,R5*%
X31802500Y-24637742D02*
X31802500Y-25112258D01*
X32847500Y-24637742D02*
X32847500Y-25112258D01*
%TO.C,R24*%
X30320000Y-53890465D02*
X30320000Y-53583183D01*
X31080000Y-53890465D02*
X31080000Y-53583183D01*
%TO.C,C9*%
X32392164Y-27420000D02*
X32607836Y-27420000D01*
X32392164Y-28140000D02*
X32607836Y-28140000D01*
%TO.C,U1*%
D16*
X30509800Y-20999561D02*
X30509800Y-21507561D01*
X30509800Y-22320361D02*
X30509800Y-22828361D01*
X31932200Y-21507561D02*
X31932200Y-20999561D01*
X31932200Y-22828361D02*
X31932200Y-22320361D01*
X31398800Y-20466161D02*
G75*
G02*
X31551200Y-20466162I76200J23296D01*
G01*
%TO.C,C1*%
D14*
X36450000Y-21820580D02*
X36450000Y-21539420D01*
X37470000Y-21820580D02*
X37470000Y-21539420D01*
%TO.C,R14*%
X30163641Y-30270000D02*
X29856359Y-30270000D01*
X30163641Y-31030000D02*
X29856359Y-31030000D01*
%TO.C,C13*%
X21777836Y-27950000D02*
X21562164Y-27950000D01*
X21777836Y-28670000D02*
X21562164Y-28670000D01*
%TO.C,R32*%
X21853641Y-28910000D02*
X21546359Y-28910000D01*
X21853641Y-29670000D02*
X21546359Y-29670000D01*
%TO.C,R13*%
X23486359Y-29870000D02*
X23793641Y-29870000D01*
X23486359Y-30630000D02*
X23793641Y-30630000D01*
%TO.C,C3*%
X29115000Y-21915580D02*
X29115000Y-21634420D01*
X30135000Y-21915580D02*
X30135000Y-21634420D01*
%TO.C,U3*%
D16*
X21170700Y-33044500D02*
X21170700Y-37794300D01*
X32829300Y-37794300D02*
X32829300Y-33044500D01*
D17*
G36*
X24190501Y-31711000D02*
G01*
X23809501Y-31711000D01*
X23809501Y-31457000D01*
X24190501Y-31457000D01*
X24190501Y-31711000D01*
G37*
G36*
X25390501Y-39381800D02*
G01*
X25009501Y-39381800D01*
X25009501Y-39127800D01*
X25390501Y-39127800D01*
X25390501Y-39381800D01*
G37*
G36*
X28190501Y-31711000D02*
G01*
X27809501Y-31711000D01*
X27809501Y-31457000D01*
X28190501Y-31457000D01*
X28190501Y-31711000D01*
G37*
G36*
X29390501Y-39381800D02*
G01*
X29009501Y-39381800D01*
X29009501Y-39127800D01*
X29390501Y-39127800D01*
X29390501Y-39381800D01*
G37*
G36*
X32190500Y-31711000D02*
G01*
X31809500Y-31711000D01*
X31809500Y-31457000D01*
X32190500Y-31457000D01*
X32190500Y-31711000D01*
G37*
%TO.C,R3*%
D14*
X33227500Y-24512742D02*
X33227500Y-24987258D01*
X34272500Y-24512742D02*
X34272500Y-24987258D01*
%TO.C,R7*%
X23763641Y-26060000D02*
X23456359Y-26060000D01*
X23763641Y-26820000D02*
X23456359Y-26820000D01*
%TO.C,R8*%
X30293641Y-26450000D02*
X29986359Y-26450000D01*
X30293641Y-27210000D02*
X29986359Y-27210000D01*
%TO.C,C28*%
X31762164Y-30240000D02*
X31977836Y-30240000D01*
X31762164Y-30960000D02*
X31977836Y-30960000D01*
%TO.C,U6*%
D16*
X23109000Y-67881304D02*
X23109000Y-69456104D01*
X25141000Y-69456104D02*
X25141000Y-67881304D01*
%TO.C,C6*%
D14*
X21777836Y-27010000D02*
X21562164Y-27010000D01*
X21777836Y-27730000D02*
X21562164Y-27730000D01*
%TO.C,C21*%
X30667164Y-55706824D02*
X30882836Y-55706824D01*
X30667164Y-56426824D02*
X30882836Y-56426824D01*
%TO.C,R6*%
X21843641Y-26060000D02*
X21536359Y-26060000D01*
X21843641Y-26820000D02*
X21536359Y-26820000D01*
%TO.C,C4*%
X36440000Y-24499420D02*
X36440000Y-24780580D01*
X37460000Y-24499420D02*
X37460000Y-24780580D01*
%TO.C,C5*%
X30390000Y-24734420D02*
X30390000Y-25015580D01*
X31410000Y-24734420D02*
X31410000Y-25015580D01*
%TO.C,R30*%
X32260000Y-53566359D02*
X32260000Y-53873641D01*
X33020000Y-53566359D02*
X33020000Y-53873641D01*
%TO.C,C2*%
X32340000Y-21609420D02*
X32340000Y-21890580D01*
X33360000Y-21609420D02*
X33360000Y-21890580D01*
%TO.C,R16*%
X23883641Y-30940000D02*
X23576359Y-30940000D01*
X23883641Y-31700000D02*
X23576359Y-31700000D01*
%TO.C,R10*%
X31936359Y-26450000D02*
X32243641Y-26450000D01*
X31936359Y-27210000D02*
X32243641Y-27210000D01*
%TO.C,C20*%
X31597836Y-54776824D02*
X31382164Y-54776824D01*
X31597836Y-55496824D02*
X31382164Y-55496824D01*
%TO.C,C29*%
X25472164Y-30760000D02*
X25687836Y-30760000D01*
X25472164Y-31480000D02*
X25687836Y-31480000D01*
%TO.C,C25*%
X32517760Y-69614284D02*
X32517760Y-69333124D01*
X33537760Y-69614284D02*
X33537760Y-69333124D01*
%TO.C,R4*%
X28952500Y-25112258D02*
X28952500Y-24637742D01*
X29997500Y-25112258D02*
X29997500Y-24637742D01*
%TO.C,C8*%
X30257836Y-27400000D02*
X30042164Y-27400000D01*
X30257836Y-28120000D02*
X30042164Y-28120000D01*
%TO.C,U4*%
D10*
X21774600Y-40797166D02*
X21774600Y-41297166D01*
X21774600Y-40797166D02*
X22274600Y-40797166D01*
X21774600Y-41297166D02*
X21774600Y-51797166D01*
X21774600Y-41297166D02*
X22274600Y-40797166D01*
X21774600Y-51797166D02*
X32774600Y-51797166D01*
X22274600Y-40797166D02*
X32774600Y-40797166D01*
X32774600Y-40797166D02*
X32774600Y-51797166D01*
X21574600Y-41497166D02*
G75*
G02*
X21374600Y-41497166I-100000J0D01*
G01*
X21374600Y-41497166D02*
G75*
G02*
X21574600Y-41497166I100000J0D01*
G01*
%TO.C,R25*%
D14*
X23787500Y-54437258D02*
X23787500Y-53962742D01*
X24832500Y-54437258D02*
X24832500Y-53962742D01*
%TO.C,C12*%
X21827836Y-29900000D02*
X21612164Y-29900000D01*
X21827836Y-30620000D02*
X21612164Y-30620000D01*
%TO.C,R27*%
X29386359Y-54756824D02*
X29693641Y-54756824D01*
X29386359Y-55516824D02*
X29693641Y-55516824D01*
%TD*%
%LPC*%
D18*
%TO.C,R2*%
X18360000Y-25615000D03*
X18360000Y-23965000D03*
%TD*%
D19*
%TO.C,R22*%
X18380000Y-41600000D03*
X18380000Y-43250000D03*
%TD*%
D20*
%TO.C,C16*%
X18380000Y-47875000D03*
X18380000Y-49425000D03*
%TD*%
D19*
%TO.C,R28*%
X18330000Y-59575000D03*
X18330000Y-57925000D03*
%TD*%
D21*
%TO.C,C19*%
X18380000Y-55600000D03*
X18380000Y-54050000D03*
%TD*%
D20*
%TO.C,C23*%
X18330000Y-61500000D03*
X18330000Y-63050000D03*
%TD*%
D19*
%TO.C,R1*%
X18400000Y-22595000D03*
X18400000Y-20945000D03*
%TD*%
D22*
%TO.C,FB1*%
X18380000Y-52587500D03*
X18380000Y-51012500D03*
%TD*%
D20*
%TO.C,C15*%
X18350000Y-35750000D03*
X18350000Y-34200000D03*
%TD*%
%TO.C,C11*%
X18350000Y-29625000D03*
X18350000Y-28075000D03*
%TD*%
D18*
%TO.C,R17*%
X18350000Y-32725000D03*
X18350000Y-31075000D03*
%TD*%
%TO.C,R29*%
X18330000Y-64685000D03*
X18330000Y-66335000D03*
%TD*%
%TO.C,R19*%
X18380000Y-40050000D03*
X18380000Y-38400000D03*
%TD*%
%TO.C,R23*%
X18380000Y-46350000D03*
X18380000Y-44700000D03*
%TD*%
D23*
%TO.C,C30*%
X26050000Y-39440000D03*
X27010000Y-39440000D03*
%TD*%
D24*
%TO.C,J3*%
X35010000Y-21950000D03*
X35010000Y-24490000D03*
X35010000Y-27030000D03*
X35010000Y-29570000D03*
X35010000Y-32110000D03*
X35010000Y-34650000D03*
X35010000Y-37190000D03*
X35010000Y-39730000D03*
X35010000Y-42270000D03*
X35010000Y-44810000D03*
X35010000Y-47350000D03*
X35010000Y-49890000D03*
X35010000Y-52430000D03*
X35010000Y-54970000D03*
X35010000Y-57510000D03*
X35010000Y-60050000D03*
X35010000Y-62590000D03*
X35010000Y-65130000D03*
X35010000Y-67670000D03*
X35010000Y-70210000D03*
%TD*%
D25*
%TO.C,J2*%
X37140000Y-63890000D03*
X37140000Y-61350000D03*
X37140000Y-58810000D03*
X37140000Y-56270000D03*
X37140000Y-53730000D03*
X37140000Y-51190000D03*
X37140000Y-48650000D03*
X37140000Y-46110000D03*
X37140000Y-43570000D03*
X37140000Y-41030000D03*
X37140000Y-38490000D03*
X37140000Y-35950000D03*
X37140000Y-33410000D03*
D26*
X37140000Y-30870000D03*
%TD*%
D24*
%TO.C,J4*%
X19770000Y-70210000D03*
X19770000Y-67670000D03*
X19770000Y-65130000D03*
X19770000Y-62590000D03*
X19770000Y-60050000D03*
X19770000Y-57510000D03*
X19770000Y-54970000D03*
X19770000Y-52430000D03*
X19770000Y-49890000D03*
X19770000Y-47350000D03*
X19770000Y-44810000D03*
X19770000Y-42270000D03*
X19770000Y-39730000D03*
X19770000Y-37190000D03*
X19770000Y-34650000D03*
X19770000Y-32110000D03*
X19770000Y-29570000D03*
X19770000Y-27030000D03*
X19770000Y-24490000D03*
X19770000Y-21950000D03*
%TD*%
D27*
%TO.C,C10*%
X23260000Y-28540000D03*
X24220000Y-28540000D03*
%TD*%
D28*
%TO.C,R11*%
X31660000Y-29680000D03*
X31660000Y-28660000D03*
%TD*%
D18*
%TO.C,R18*%
X33550000Y-32950000D03*
X33550000Y-31300000D03*
%TD*%
D29*
%TO.C,L1*%
X26825000Y-68223704D03*
X26825000Y-70548704D03*
%TD*%
D30*
%TO.C,R21*%
X30490000Y-39460000D03*
X31510000Y-39460000D03*
%TD*%
D21*
%TO.C,C7*%
X36929056Y-26820000D03*
X36929056Y-28370000D03*
%TD*%
%TO.C,C26*%
X22270000Y-67670000D03*
X22270000Y-69220000D03*
%TD*%
D31*
%TO.C,C27*%
X24750000Y-70698704D03*
X23200000Y-70698704D03*
%TD*%
D32*
%TO.C,R33*%
X30570000Y-28660000D03*
X30570000Y-29680000D03*
%TD*%
D33*
%TO.C,J1*%
X21995000Y-24200000D03*
D34*
X21995000Y-21660000D03*
X24535000Y-24200000D03*
X24535000Y-21660000D03*
X27075000Y-24200000D03*
X27075000Y-21660000D03*
%TD*%
D21*
%TO.C,C24*%
X37100000Y-68250000D03*
X37100000Y-69800000D03*
%TD*%
D35*
%TO.C,U2*%
X25402199Y-27802199D03*
X25402199Y-28302200D03*
X25402199Y-28802200D03*
X25402199Y-29302201D03*
D36*
X26099998Y-30000000D03*
X26599999Y-30000000D03*
X27099999Y-30000000D03*
X27600000Y-30000000D03*
D35*
X28297799Y-29302201D03*
X28297799Y-28802200D03*
X28297799Y-28302200D03*
X28297799Y-27802199D03*
D36*
X27600000Y-27104400D03*
X27099999Y-27104400D03*
X26599999Y-27104400D03*
X26099998Y-27104400D03*
%TD*%
D31*
%TO.C,C22*%
X26035000Y-56450000D03*
X24485000Y-56450000D03*
%TD*%
D28*
%TO.C,R12*%
X32700000Y-29680000D03*
X32700000Y-28660000D03*
%TD*%
D19*
%TO.C,R26*%
X25810000Y-53375000D03*
X25810000Y-55025000D03*
%TD*%
D30*
%TO.C,R31*%
X24752719Y-39440000D03*
X23732719Y-39440000D03*
%TD*%
D21*
%TO.C,C18*%
X27870000Y-53825000D03*
X27870000Y-55375000D03*
%TD*%
D37*
%TO.C,R20*%
X29130000Y-39440000D03*
X28110000Y-39440000D03*
%TD*%
%TO.C,R9*%
X24090000Y-27380000D03*
X23070000Y-27380000D03*
%TD*%
%TO.C,R15*%
X22380000Y-31220000D03*
X21360000Y-31220000D03*
%TD*%
D38*
%TO.C,Y1*%
X31402760Y-70498704D03*
X31402760Y-68398704D03*
X29752760Y-68398704D03*
X29752760Y-70498704D03*
%TD*%
D39*
%TO.C,C14*%
X29590000Y-29650000D03*
X29590000Y-28690000D03*
%TD*%
D40*
%TO.C,U5*%
X33424999Y-58204800D03*
X33025000Y-58204800D03*
X32624998Y-58204800D03*
X32224999Y-58204800D03*
X31825000Y-58204800D03*
X31425001Y-58204800D03*
X31024999Y-58204800D03*
X30625000Y-58204800D03*
X30225001Y-58204800D03*
X29824999Y-58204800D03*
X29425000Y-58204800D03*
X29025001Y-58204800D03*
X28624999Y-58204800D03*
X28225000Y-58204800D03*
X27825000Y-58204800D03*
X27425001Y-58204800D03*
X27024999Y-58204800D03*
X26625000Y-58204800D03*
X26225001Y-58204800D03*
X25824999Y-58204800D03*
X25425000Y-58204800D03*
X25025001Y-58204800D03*
X24624999Y-58204800D03*
X24225000Y-58204800D03*
X23825001Y-58204800D03*
X23425002Y-58204800D03*
X23025000Y-58204800D03*
X22625001Y-58204800D03*
X22625001Y-63945200D03*
X23025000Y-63945200D03*
X23425002Y-63945200D03*
X23825001Y-63945200D03*
X24225000Y-63945200D03*
X24624999Y-63945200D03*
X25025001Y-63945200D03*
X25425000Y-63945200D03*
X25824999Y-63945200D03*
X26225001Y-63945200D03*
X26625000Y-63945200D03*
X27024999Y-63945200D03*
X27425001Y-63945200D03*
X27825000Y-63945200D03*
X28225000Y-63945200D03*
X28624999Y-63945200D03*
X29025001Y-63945200D03*
X29425000Y-63945200D03*
X29824999Y-63945200D03*
X30225001Y-63945200D03*
X30625000Y-63945200D03*
X31024999Y-63945200D03*
X31424998Y-63945200D03*
X31825000Y-63945200D03*
X32224999Y-63945200D03*
X32624998Y-63945200D03*
X33025000Y-63945200D03*
X33424999Y-63945200D03*
%TD*%
D41*
%TO.C,C17*%
X31700000Y-53231824D03*
X31700000Y-54191824D03*
%TD*%
D19*
%TO.C,R5*%
X32325000Y-24050000D03*
X32325000Y-25700000D03*
%TD*%
D28*
%TO.C,R24*%
X30700000Y-54246824D03*
X30700000Y-53226824D03*
%TD*%
D27*
%TO.C,C9*%
X32020000Y-27780000D03*
X32980000Y-27780000D03*
%TD*%
D42*
%TO.C,U1*%
X31475000Y-21139261D03*
X30967000Y-21139261D03*
X30967000Y-22688661D03*
X31475000Y-22688661D03*
D43*
X31221000Y-21913961D03*
%TD*%
D20*
%TO.C,C1*%
X36960000Y-22455000D03*
X36960000Y-20905000D03*
%TD*%
D37*
%TO.C,R14*%
X30520000Y-30650000D03*
X29500000Y-30650000D03*
%TD*%
D23*
%TO.C,C13*%
X22150000Y-28310000D03*
X21190000Y-28310000D03*
%TD*%
D37*
%TO.C,R32*%
X22210000Y-29290000D03*
X21190000Y-29290000D03*
%TD*%
D30*
%TO.C,R13*%
X23130000Y-30250000D03*
X24150000Y-30250000D03*
%TD*%
D20*
%TO.C,C3*%
X29625000Y-22550000D03*
X29625000Y-21000000D03*
%TD*%
D40*
%TO.C,U3*%
X21600001Y-38289600D03*
X22000000Y-38289600D03*
X22400002Y-38289600D03*
X22800001Y-38289600D03*
X23200000Y-38289600D03*
X23599999Y-38289600D03*
X24000001Y-38289600D03*
X24400000Y-38289600D03*
X24799999Y-38289600D03*
X25200001Y-38289600D03*
X25600000Y-38289600D03*
X25999999Y-38289600D03*
X26400001Y-38289600D03*
X26800000Y-38289600D03*
X27200000Y-38289600D03*
X27599999Y-38289600D03*
X28000001Y-38289600D03*
X28400000Y-38289600D03*
X28799999Y-38289600D03*
X29200001Y-38289600D03*
X29600000Y-38289600D03*
X29999999Y-38289600D03*
X30400001Y-38289600D03*
X30800000Y-38289600D03*
X31199999Y-38289600D03*
X31599998Y-38289600D03*
X32000000Y-38289600D03*
X32399999Y-38289600D03*
X32399999Y-32549200D03*
X32000000Y-32549200D03*
X31599998Y-32549200D03*
X31199999Y-32549200D03*
X30800000Y-32549200D03*
X30400001Y-32549200D03*
X29999999Y-32549200D03*
X29600000Y-32549200D03*
X29200001Y-32549200D03*
X28799999Y-32549200D03*
X28400000Y-32549200D03*
X28000001Y-32549200D03*
X27599999Y-32549200D03*
X27200000Y-32549200D03*
X26800000Y-32549200D03*
X26400001Y-32549200D03*
X25999999Y-32549200D03*
X25600000Y-32549200D03*
X25200001Y-32549200D03*
X24799999Y-32549200D03*
X24400000Y-32549200D03*
X24000001Y-32549200D03*
X23600002Y-32549200D03*
X23200000Y-32549200D03*
X22800001Y-32549200D03*
X22400002Y-32549200D03*
X22000000Y-32549200D03*
X21600001Y-32549200D03*
%TD*%
D19*
%TO.C,R3*%
X33750000Y-23925000D03*
X33750000Y-25575000D03*
%TD*%
D37*
%TO.C,R7*%
X24120000Y-26440000D03*
X23100000Y-26440000D03*
%TD*%
%TO.C,R8*%
X30650000Y-26830000D03*
X29630000Y-26830000D03*
%TD*%
D27*
%TO.C,C28*%
X31390000Y-30600000D03*
X32350000Y-30600000D03*
%TD*%
D44*
%TO.C,U6*%
X24625000Y-68313692D03*
D45*
X24125000Y-68298704D03*
X23625000Y-68298704D03*
D46*
X23625000Y-69038704D03*
X24125000Y-69038704D03*
X24625000Y-69038704D03*
%TD*%
D23*
%TO.C,C6*%
X22150000Y-27370000D03*
X21190000Y-27370000D03*
%TD*%
D27*
%TO.C,C21*%
X30295000Y-56066824D03*
X31255000Y-56066824D03*
%TD*%
D37*
%TO.C,R6*%
X22200000Y-26440000D03*
X21180000Y-26440000D03*
%TD*%
D21*
%TO.C,C4*%
X36950000Y-23865000D03*
X36950000Y-25415000D03*
%TD*%
%TO.C,C5*%
X30900000Y-24100000D03*
X30900000Y-25650000D03*
%TD*%
D32*
%TO.C,R30*%
X32640000Y-53210000D03*
X32640000Y-54230000D03*
%TD*%
D21*
%TO.C,C2*%
X32850000Y-20975000D03*
X32850000Y-22525000D03*
%TD*%
D37*
%TO.C,R16*%
X24240000Y-31320000D03*
X23220000Y-31320000D03*
%TD*%
D30*
%TO.C,R10*%
X31580000Y-26830000D03*
X32600000Y-26830000D03*
%TD*%
D23*
%TO.C,C20*%
X31970000Y-55136824D03*
X31010000Y-55136824D03*
%TD*%
D27*
%TO.C,C29*%
X25100000Y-31120000D03*
X26060000Y-31120000D03*
%TD*%
D20*
%TO.C,C25*%
X33027760Y-70248704D03*
X33027760Y-68698704D03*
%TD*%
D18*
%TO.C,R4*%
X29475000Y-25700000D03*
X29475000Y-24050000D03*
%TD*%
D23*
%TO.C,C8*%
X30630000Y-27760000D03*
X29670000Y-27760000D03*
%TD*%
D47*
%TO.C,U4*%
X22474600Y-41497166D03*
X23274600Y-41497166D03*
X24074600Y-41497166D03*
X24874600Y-41497166D03*
X25674600Y-41497166D03*
X26474600Y-41497166D03*
X27274600Y-41497166D03*
X28074600Y-41497166D03*
X28874600Y-41497166D03*
X29674600Y-41497166D03*
X30474600Y-41497166D03*
X31274600Y-41497166D03*
X32074600Y-41497166D03*
X22474600Y-42297166D03*
X23274600Y-42297166D03*
X24074600Y-42297166D03*
X24874600Y-42297166D03*
X25674600Y-42297166D03*
X26474600Y-42297166D03*
X27274600Y-42297166D03*
X28074600Y-42297166D03*
X28874600Y-42297166D03*
X29674600Y-42297166D03*
X30474600Y-42297166D03*
X31274600Y-42297166D03*
X32074600Y-42297166D03*
X22474600Y-43097166D03*
X23274600Y-43097166D03*
X24074600Y-43097166D03*
X24874600Y-43097166D03*
X25674600Y-43097166D03*
X26474600Y-43097166D03*
X27274600Y-43097166D03*
X28074600Y-43097166D03*
X28874600Y-43097166D03*
X29674600Y-43097166D03*
X30474600Y-43097166D03*
X31274600Y-43097166D03*
X32074600Y-43097166D03*
X22474600Y-43897166D03*
X23274600Y-43897166D03*
X24074600Y-43897166D03*
X24874600Y-43897166D03*
X25674600Y-43897166D03*
X26474600Y-43897166D03*
X27274600Y-43897166D03*
X28074600Y-43897166D03*
X28874600Y-43897166D03*
X29674600Y-43897166D03*
X30474600Y-43897166D03*
X31274600Y-43897166D03*
X32074600Y-43897166D03*
X22474600Y-44697166D03*
X23274600Y-44697166D03*
X24074600Y-44697166D03*
X24874600Y-44697166D03*
X25674600Y-44697166D03*
X26474600Y-44697166D03*
X27274600Y-44697166D03*
X28074600Y-44697166D03*
X28874600Y-44697166D03*
X29674600Y-44697166D03*
X30474600Y-44697166D03*
X31274600Y-44697166D03*
X32074600Y-44697166D03*
X22474600Y-45497166D03*
X23274600Y-45497166D03*
X24074600Y-45497166D03*
X24874600Y-45497166D03*
X25674600Y-45497166D03*
X26474600Y-45497166D03*
X27274600Y-45497166D03*
X28074600Y-45497166D03*
X28874600Y-45497166D03*
X29674600Y-45497166D03*
X30474600Y-45497166D03*
X31274600Y-45497166D03*
X32074600Y-45497166D03*
X22474600Y-46297166D03*
X23274600Y-46297166D03*
X24074600Y-46297166D03*
X24874600Y-46297166D03*
X25674600Y-46297166D03*
X26474600Y-46297166D03*
X27274600Y-46297166D03*
X28074600Y-46297166D03*
X28874600Y-46297166D03*
X29674600Y-46297166D03*
X30474600Y-46297166D03*
X31274600Y-46297166D03*
X32074600Y-46297166D03*
X22474600Y-47097166D03*
X23274600Y-47097166D03*
X24074600Y-47097166D03*
X24874600Y-47097166D03*
X25674600Y-47097166D03*
X26474600Y-47097166D03*
X27274600Y-47097166D03*
X28074600Y-47097166D03*
X28874600Y-47097166D03*
X29674600Y-47097166D03*
X30474600Y-47097166D03*
X31274600Y-47097166D03*
X32074600Y-47097166D03*
X22474600Y-47897166D03*
X23274600Y-47897166D03*
X24074600Y-47897166D03*
X24874600Y-47897166D03*
X25674600Y-47897166D03*
X26474600Y-47897166D03*
X27274600Y-47897166D03*
X28074600Y-47897166D03*
X28874600Y-47897166D03*
X29674600Y-47897166D03*
X30474600Y-47897166D03*
X31274600Y-47897166D03*
X32074600Y-47897166D03*
X22474600Y-48697166D03*
X23274600Y-48697166D03*
X24074600Y-48697166D03*
X24874600Y-48697166D03*
X25674600Y-48697166D03*
X26474600Y-48697166D03*
X27274600Y-48697166D03*
X28074600Y-48697166D03*
X28874600Y-48697166D03*
X29674600Y-48697166D03*
X30474600Y-48697166D03*
X31274600Y-48697166D03*
X32074600Y-48697166D03*
X22474600Y-49497166D03*
X23274600Y-49497166D03*
X24074600Y-49497166D03*
X24874600Y-49497166D03*
X25674600Y-49497166D03*
X26474600Y-49497166D03*
X27274600Y-49497166D03*
X28074600Y-49497166D03*
X28874600Y-49497166D03*
X29674600Y-49497166D03*
X30474600Y-49497166D03*
X31274600Y-49497166D03*
X32074600Y-49497166D03*
X22474600Y-50297166D03*
X23274600Y-50297166D03*
X24074600Y-50297166D03*
X24874600Y-50297166D03*
X25674600Y-50297166D03*
X26474600Y-50297166D03*
X27274600Y-50297166D03*
X28074600Y-50297166D03*
X28874600Y-50297166D03*
X29674600Y-50297166D03*
X30474600Y-50297166D03*
X31274600Y-50297166D03*
X32074600Y-50297166D03*
X22474600Y-51097166D03*
X23274600Y-51097166D03*
X24074600Y-51097166D03*
X24874600Y-51097166D03*
X25674600Y-51097166D03*
X26474600Y-51097166D03*
X27274600Y-51097166D03*
X28074600Y-51097166D03*
X28874600Y-51097166D03*
X29674600Y-51097166D03*
X30474600Y-51097166D03*
X31274600Y-51097166D03*
X32074600Y-51097166D03*
%TD*%
D18*
%TO.C,R25*%
X24310000Y-55025000D03*
X24310000Y-53375000D03*
%TD*%
D23*
%TO.C,C12*%
X22200000Y-30260000D03*
X21240000Y-30260000D03*
%TD*%
D30*
%TO.C,R27*%
X29030000Y-55136824D03*
X30050000Y-55136824D03*
%TD*%
%LPD*%
M02*
