%TF.GenerationSoftware,KiCad,Pcbnew,10.0.6*%
%TF.CreationDate,2026-10-03T13:40:37+02:00*%
%TF.ProjectId,pokeymax4_5,706f6b65-796d-4617-9834-5f352e6b6963,rev?*%
%TF.SameCoordinates,Original*%
%TF.FileFunction,Copper,L1,Top*%
%TF.FilePolarity,Positive*%
%FSLAX46Y46*%
G04 Gerber Fmt 4.6, Leading zero omitted, Abs format (unit mm)*
G04 Created by KiCad (PCBNEW 10.0.6) date 2026-10-03 13:40:37*
%MOMM*%
%LPD*%
G01*
G04 APERTURE LIST*
G04 Aperture macros list*
%AMRoundRect*
0 Rectangle with rounded corners*
0 $1 Rounding radius*
0 $2 $3 $4 $5 $6 $7 $8 $9 X,Y pos of 4 corners*
0 Add a 4 corners polygon primitive as box body*
4,1,4,$2,$3,$4,$5,$6,$7,$8,$9,$2,$3,0*
0 Add four circle primitives for the rounded corners*
1,1,$1+$1,$2,$3*
1,1,$1+$1,$4,$5*
1,1,$1+$1,$6,$7*
1,1,$1+$1,$8,$9*
0 Add four rect primitives between the rounded corners*
20,1,$1+$1,$2,$3,$4,$5,0*
20,1,$1+$1,$4,$5,$6,$7,0*
20,1,$1+$1,$6,$7,$8,$9,0*
20,1,$1+$1,$8,$9,$2,$3,0*%
%AMOutline5P*
0 Free polygon, 5 corners , with rotation*
0 The origin of the aperture is its center*
0 number of corners: always 5*
0 $1 to $10 corner X, Y*
0 $11 Rotation angle, in degrees counterclockwise*
0 create outline with 5 corners*
4,1,5,$1,$2,$3,$4,$5,$6,$7,$8,$9,$10,$1,$2,$11*%
%AMOutline6P*
0 Free polygon, 6 corners , with rotation*
0 The origin of the aperture is its center*
0 number of corners: always 6*
0 $1 to $12 corner X, Y*
0 $13 Rotation angle, in degrees counterclockwise*
0 create outline with 6 corners*
4,1,6,$1,$2,$3,$4,$5,$6,$7,$8,$9,$10,$11,$12,$1,$2,$13*%
%AMOutline7P*
0 Free polygon, 7 corners , with rotation*
0 The origin of the aperture is its center*
0 number of corners: always 7*
0 $1 to $14 corner X, Y*
0 $15 Rotation angle, in degrees counterclockwise*
0 create outline with 7 corners*
4,1,7,$1,$2,$3,$4,$5,$6,$7,$8,$9,$10,$11,$12,$13,$14,$1,$2,$15*%
%AMOutline8P*
0 Free polygon, 8 corners , with rotation*
0 The origin of the aperture is its center*
0 number of corners: always 8*
0 $1 to $16 corner X, Y*
0 $17 Rotation angle, in degrees counterclockwise*
0 create outline with 8 corners*
4,1,8,$1,$2,$3,$4,$5,$6,$7,$8,$9,$10,$11,$12,$13,$14,$15,$16,$1,$2,$17*%
G04 Aperture macros list end*
%TA.AperFunction,SMDPad,CuDef*%
%ADD10RoundRect,0.200000X0.275000X-0.200000X0.275000X0.200000X-0.275000X0.200000X-0.275000X-0.200000X0*%
%TD*%
%TA.AperFunction,SMDPad,CuDef*%
%ADD11RoundRect,0.200000X-0.275000X0.200000X-0.275000X-0.200000X0.275000X-0.200000X0.275000X0.200000X0*%
%TD*%
%TA.AperFunction,SMDPad,CuDef*%
%ADD12RoundRect,0.225000X0.250000X-0.225000X0.250000X0.225000X-0.250000X0.225000X-0.250000X-0.225000X0*%
%TD*%
%TA.AperFunction,SMDPad,CuDef*%
%ADD13RoundRect,0.225000X-0.250000X0.225000X-0.250000X-0.225000X0.250000X-0.225000X0.250000X0.225000X0*%
%TD*%
%TA.AperFunction,SMDPad,CuDef*%
%ADD14RoundRect,0.218750X-0.256250X0.218750X-0.256250X-0.218750X0.256250X-0.218750X0.256250X0.218750X0*%
%TD*%
%TA.AperFunction,SMDPad,CuDef*%
%ADD15RoundRect,0.140000X0.140000X0.170000X-0.140000X0.170000X-0.140000X-0.170000X0.140000X-0.170000X0*%
%TD*%
%TA.AperFunction,ComponentPad*%
%ADD16Outline8P,-0.670000X0.281400X-0.281400X0.670000X0.281400X0.670000X0.670000X0.281400X0.670000X-0.281400X0.281400X-0.670000X-0.281400X-0.670000X-0.670000X-0.281400X180.000000*%
%TD*%
%TA.AperFunction,ComponentPad*%
%ADD17Outline8P,-0.800000X0.320000X-0.320000X0.800000X0.320000X0.800000X0.800000X0.320000X0.800000X-0.320000X0.320000X-0.800000X-0.320000X-0.800000X-0.800000X-0.320000X0.000000*%
%TD*%
%TA.AperFunction,ComponentPad*%
%ADD18R,1.600000X1.600000*%
%TD*%
%TA.AperFunction,SMDPad,CuDef*%
%ADD19RoundRect,0.140000X-0.140000X-0.170000X0.140000X-0.170000X0.140000X0.170000X-0.140000X0.170000X0*%
%TD*%
%TA.AperFunction,SMDPad,CuDef*%
%ADD20RoundRect,0.135000X0.185000X-0.135000X0.185000X0.135000X-0.185000X0.135000X-0.185000X-0.135000X0*%
%TD*%
%TA.AperFunction,SMDPad,CuDef*%
%ADD21RoundRect,0.250001X-0.849999X0.462499X-0.849999X-0.462499X0.849999X-0.462499X0.849999X0.462499X0*%
%TD*%
%TA.AperFunction,SMDPad,CuDef*%
%ADD22RoundRect,0.135000X-0.135000X-0.185000X0.135000X-0.185000X0.135000X0.185000X-0.135000X0.185000X0*%
%TD*%
%TA.AperFunction,SMDPad,CuDef*%
%ADD23RoundRect,0.225000X0.225000X0.250000X-0.225000X0.250000X-0.225000X-0.250000X0.225000X-0.250000X0*%
%TD*%
%TA.AperFunction,SMDPad,CuDef*%
%ADD24RoundRect,0.135000X-0.185000X0.135000X-0.185000X-0.135000X0.185000X-0.135000X0.185000X0.135000X0*%
%TD*%
%TA.AperFunction,ComponentPad*%
%ADD25R,1.700000X1.700000*%
%TD*%
%TA.AperFunction,ComponentPad*%
%ADD26C,1.700000*%
%TD*%
%TA.AperFunction,SMDPad,CuDef*%
%ADD27R,0.812800X0.254000*%
%TD*%
%TA.AperFunction,SMDPad,CuDef*%
%ADD28R,0.254000X0.812800*%
%TD*%
%TA.AperFunction,SMDPad,CuDef*%
%ADD29RoundRect,0.135000X0.135000X0.185000X-0.135000X0.185000X-0.135000X-0.185000X0.135000X-0.185000X0*%
%TD*%
%TA.AperFunction,SMDPad,CuDef*%
%ADD30R,1.100000X1.300000*%
%TD*%
%TA.AperFunction,SMDPad,CuDef*%
%ADD31RoundRect,0.140000X0.170000X-0.140000X0.170000X0.140000X-0.170000X0.140000X-0.170000X-0.140000X0*%
%TD*%
%TA.AperFunction,SMDPad,CuDef*%
%ADD32R,0.177800X1.168400*%
%TD*%
%TA.AperFunction,SMDPad,CuDef*%
%ADD33RoundRect,0.140000X-0.170000X0.140000X-0.170000X-0.140000X0.170000X-0.140000X0.170000X0.140000X0*%
%TD*%
%TA.AperFunction,SMDPad,CuDef*%
%ADD34R,0.254000X0.660400*%
%TD*%
%TA.AperFunction,SMDPad,CuDef*%
%ADD35R,0.863600X0.508000*%
%TD*%
%TA.AperFunction,SMDPad,CuDef*%
%ADD36R,0.300000X0.550000*%
%TD*%
%TA.AperFunction,SMDPad,CuDef*%
%ADD37R,0.300000X0.520000*%
%TD*%
%TA.AperFunction,SMDPad,CuDef*%
%ADD38C,0.450000*%
%TD*%
%TA.AperFunction,ViaPad*%
%ADD39C,0.450000*%
%TD*%
%TA.AperFunction,ViaPad*%
%ADD40C,0.500000*%
%TD*%
%TA.AperFunction,Conductor*%
%ADD41C,0.152400*%
%TD*%
%TA.AperFunction,Conductor*%
%ADD42C,0.304800*%
%TD*%
%TA.AperFunction,Conductor*%
%ADD43C,0.203200*%
%TD*%
G04 APERTURE END LIST*
D10*
%TO.P,R2,1*%
%TO.N,+3.3V*%
X18360000Y-25615000D03*
%TO.P,R2,2*%
%TO.N,/FPGA/TMS*%
X18360000Y-23965000D03*
%TD*%
D11*
%TO.P,R22,1*%
%TO.N,+3.3V*%
X18380000Y-41600000D03*
%TO.P,R22,2*%
%TO.N,Net-(U4-NSTATUS)*%
X18380000Y-43250000D03*
%TD*%
D12*
%TO.P,C16,2*%
%TO.N,GND*%
X18380000Y-47875000D03*
%TO.P,C16,1*%
%TO.N,+3.3V*%
X18380000Y-49425000D03*
%TD*%
D11*
%TO.P,R28,2*%
%TO.N,+5V*%
X18330000Y-59575000D03*
%TO.P,R28,1*%
%TO.N,/Level shifter/LOUT2.B24*%
X18330000Y-57925000D03*
%TD*%
D13*
%TO.P,C19,2*%
%TO.N,GND*%
X18380000Y-55600000D03*
%TO.P,C19,1*%
%TO.N,+3.3VA*%
X18380000Y-54050000D03*
%TD*%
D12*
%TO.P,C23,2*%
%TO.N,GND*%
X18330000Y-61500000D03*
%TO.P,C23,1*%
%TO.N,+5V*%
X18330000Y-63050000D03*
%TD*%
D11*
%TO.P,R1,2*%
%TO.N,/FPGA/TDI*%
X18400000Y-22595000D03*
%TO.P,R1,1*%
%TO.N,+3.3V*%
X18400000Y-20945000D03*
%TD*%
D14*
%TO.P,FB1,2*%
%TO.N,+3.3VA*%
X18380000Y-52587500D03*
%TO.P,FB1,1*%
%TO.N,+3.3V*%
X18380000Y-51012500D03*
%TD*%
D12*
%TO.P,C15,1*%
%TO.N,+3.3V*%
X18350000Y-35750000D03*
%TO.P,C15,2*%
%TO.N,GND*%
X18350000Y-34200000D03*
%TD*%
%TO.P,C11,1*%
%TO.N,+5VA*%
X18350000Y-29625000D03*
%TO.P,C11,2*%
%TO.N,GND*%
X18350000Y-28075000D03*
%TD*%
D10*
%TO.P,R17,1*%
%TO.N,+5V*%
X18350000Y-32725000D03*
%TO.P,R17,2*%
%TO.N,+5VA*%
X18350000Y-31075000D03*
%TD*%
%TO.P,R29,2*%
%TO.N,+5V*%
X18330000Y-64685000D03*
%TO.P,R29,1*%
%TO.N,/Level shifter/LOUT2.B3*%
X18330000Y-66335000D03*
%TD*%
%TO.P,R19,1*%
%TO.N,+3.3V*%
X18380000Y-40050000D03*
%TO.P,R19,2*%
%TO.N,Net-(U4-CONF_DONE)*%
X18380000Y-38400000D03*
%TD*%
%TO.P,R23,1*%
%TO.N,/FPGA/TCK*%
X18380000Y-46350000D03*
%TO.P,R23,2*%
%TO.N,GND*%
X18380000Y-44700000D03*
%TD*%
D15*
%TO.P,C30,2*%
%TO.N,GND*%
X26050000Y-39440000D03*
%TO.P,C30,1*%
%TO.N,+3.3V*%
X27010000Y-39440000D03*
%TD*%
D16*
%TO.P,J3,1,Pin_1_1*%
%TO.N,/Level shifter/LOUT1.B15*%
X35010000Y-21950000D03*
%TO.P,J3,2,Pin_2_2*%
%TO.N,/Level shifter/LOUT1.B13*%
X35010000Y-24490000D03*
%TO.P,J3,3,Pin_3_3*%
%TO.N,/Level shifter/LOUT1.B10*%
X35010000Y-27030000D03*
%TO.P,J3,4,Pin_4_4*%
%TO.N,/Audio output/AUD_INT_OUT*%
X35010000Y-29570000D03*
%TO.P,J3,5,Pin_5_5*%
%TO.N,/Level shifter/LOUT1.B24*%
X35010000Y-32110000D03*
%TO.P,J3,6,Pin_6_6*%
%TO.N,/Level shifter/LOUT1.B23*%
X35010000Y-34650000D03*
%TO.P,J3,7,Pin_7_7*%
%TO.N,/Level shifter/LOUT1.B19*%
X35010000Y-37190000D03*
%TO.P,J3,8,Pin_8_8*%
%TO.N,/Level shifter/LOUT1.B18*%
X35010000Y-39730000D03*
%TO.P,J3,9,Pin_9_9*%
%TO.N,/Level shifter/LOUT1.B17*%
X35010000Y-42270000D03*
%TO.P,J3,10,Pin_10_10*%
%TO.N,/Level shifter/LOUT1.B9*%
X35010000Y-44810000D03*
%TO.P,J3,11,Pin_11_11*%
%TO.N,/Level shifter/LOUT1.B8*%
X35010000Y-47350000D03*
%TO.P,J3,12,Pin_12_12*%
%TO.N,/Level shifter/LOUT1.B7*%
X35010000Y-49890000D03*
%TO.P,J3,13,Pin_13_13*%
%TO.N,/Level shifter/LOUT1.B11*%
X35010000Y-52430000D03*
%TO.P,J3,14,Pin_14_14*%
%TO.N,/Level shifter/LOUT2.B6*%
X35010000Y-54970000D03*
%TO.P,J3,15,Pin_15_15*%
%TO.N,/Level shifter/LOUT2.B5*%
X35010000Y-57510000D03*
%TO.P,J3,16,Pin_16_16*%
%TO.N,/Level shifter/LOUT2.B3*%
X35010000Y-60050000D03*
%TO.P,J3,17,Pin_17_17*%
%TO.N,/Level shifter/LOUT2.B7*%
X35010000Y-62590000D03*
%TO.P,J3,18,Pin_18_18*%
%TO.N,/Level shifter/LOUT2.B9*%
X35010000Y-65130000D03*
%TO.P,J3,19,Pin_19_19*%
%TO.N,/Level shifter/LOUT2.B19*%
X35010000Y-67670000D03*
%TO.P,J3,20,Pin_20_20*%
%TO.N,/Level shifter/LOUT2.B20*%
X35010000Y-70210000D03*
%TD*%
D17*
%TO.P,J2,14,Pin_14_14*%
%TO.N,/Level shifter/LOUT2.B8*%
X37140000Y-63890000D03*
%TO.P,J2,13,Pin_13_13*%
%TO.N,/Level shifter/LOUT2.B1*%
X37140000Y-61350000D03*
%TO.P,J2,12,Pin_12_12*%
%TO.N,/Level shifter/LOUT2.B2*%
X37140000Y-58810000D03*
%TO.P,J2,11,Pin_11_11*%
%TO.N,/Level shifter/LOUT2.B4*%
X37140000Y-56270000D03*
%TO.P,J2,10,Pin_10_10*%
%TO.N,/Level shifter/LOUT1.B12*%
X37140000Y-53730000D03*
%TO.P,J2,9,Pin_9_9*%
%TO.N,/Level shifter/LOUT1.B14*%
X37140000Y-51190000D03*
%TO.P,J2,8,Pin_8_8*%
%TO.N,/Level shifter/LOUT1.B16*%
X37140000Y-48650000D03*
%TO.P,J2,7,Pin_7_7*%
%TO.N,/Level shifter/LOUT1.B20*%
X37140000Y-46110000D03*
%TO.P,J2,6,Pin_6_6*%
%TO.N,/Level shifter/LOUT1.B21*%
X37140000Y-43570000D03*
%TO.P,J2,5,Pin_5_5*%
%TO.N,/Level shifter/LOUT1.B22*%
X37140000Y-41030000D03*
%TO.P,J2,4,Pin_4_4*%
%TO.N,/ADC/AUD_IN*%
X37140000Y-38490000D03*
%TO.P,J2,3,Pin_3_3*%
%TO.N,/Audio output/AUDROUT*%
X37140000Y-35950000D03*
%TO.P,J2,2,Pin_2_2*%
%TO.N,/Audio output/AUDLOUT*%
X37140000Y-33410000D03*
D18*
%TO.P,J2,1,Pin_1_1*%
%TO.N,GND*%
X37140000Y-30870000D03*
%TD*%
D16*
%TO.P,J4,20,Pin_20_20*%
%TO.N,/Level shifter/LOUT2.B21*%
X19770000Y-70210000D03*
%TO.P,J4,19,Pin_19_19*%
%TO.N,/Level shifter/LOUT2.B22*%
X19770000Y-67670000D03*
%TO.P,J4,18,Pin_18_18*%
%TO.N,/Level shifter/LOUT2.B23*%
X19770000Y-65130000D03*
%TO.P,J4,17,Pin_17_17*%
%TO.N,+5V*%
X19770000Y-62590000D03*
%TO.P,J4,16,Pin_16_16*%
%TO.N,/Level shifter/LOUT2.B24*%
X19770000Y-60050000D03*
%TO.P,J4,15,Pin_15_15*%
%TO.N,/Level shifter/LOUT2.B17*%
X19770000Y-57510000D03*
%TO.P,J4,14,Pin_14_14*%
%TO.N,/Level shifter/LOUT2.B16*%
X19770000Y-54970000D03*
%TO.P,J4,13,Pin_13_13*%
%TO.N,/Level shifter/LOUT2.B15*%
X19770000Y-52430000D03*
%TO.P,J4,12,Pin_12_12*%
%TO.N,/Level shifter/LOUT2.B18*%
X19770000Y-49890000D03*
%TO.P,J4,11,Pin_11_11*%
%TO.N,/Level shifter/LOUT2.B14*%
X19770000Y-47350000D03*
%TO.P,J4,10,Pin_10_10*%
%TO.N,/Level shifter/LOUT2.B13*%
X19770000Y-44810000D03*
%TO.P,J4,9,Pin_9_9*%
%TO.N,/Level shifter/LOUT2.B12*%
X19770000Y-42270000D03*
%TO.P,J4,8,Pin_8_8*%
%TO.N,/Level shifter/LOUT2.B11*%
X19770000Y-39730000D03*
%TO.P,J4,7,Pin_7_7*%
%TO.N,/Level shifter/LOUT1.B6*%
X19770000Y-37190000D03*
%TO.P,J4,6,Pin_6_6*%
%TO.N,/Level shifter/LOUT1.B5*%
X19770000Y-34650000D03*
%TO.P,J4,5,Pin_5_5*%
%TO.N,/Level shifter/LOUT1.B4*%
X19770000Y-32110000D03*
%TO.P,J4,4,Pin_4_4*%
%TO.N,/Level shifter/LOUT1.B3*%
X19770000Y-29570000D03*
%TO.P,J4,3,Pin_3_3*%
%TO.N,/Level shifter/LOUT1.B2*%
X19770000Y-27030000D03*
%TO.P,J4,2,Pin_2_2*%
%TO.N,/Level shifter/LOUT1.B1*%
X19770000Y-24490000D03*
%TO.P,J4,1,Pin_1_1*%
%TO.N,GND*%
X19770000Y-21950000D03*
%TD*%
D19*
%TO.P,C10,1*%
%TO.N,+5VA*%
X23260000Y-28540000D03*
%TO.P,C10,2*%
%TO.N,GND*%
X24220000Y-28540000D03*
%TD*%
D20*
%TO.P,R11,1*%
%TO.N,Net-(C9-Pad1)*%
X31660000Y-29680000D03*
%TO.P,R11,2*%
%TO.N,Net-(C28-Pad1)*%
X31660000Y-28660000D03*
%TD*%
D10*
%TO.P,R18,1*%
%TO.N,/ADC/AUD_IN*%
X33550000Y-32950000D03*
%TO.P,R18,2*%
%TO.N,/ADC/AUD_VBIAS*%
X33550000Y-31300000D03*
%TD*%
D21*
%TO.P,L1,1,1_1*%
%TO.N,Net-(U6-SW)*%
X26825000Y-68223704D03*
%TO.P,L1,2,2_2*%
%TO.N,+3.3V*%
X26825000Y-70548704D03*
%TD*%
D22*
%TO.P,R21,1*%
%TO.N,/Audio output/AUDR*%
X30490000Y-39460000D03*
%TO.P,R21,2*%
%TO.N,Net-(C9-Pad1)*%
X31510000Y-39460000D03*
%TD*%
D13*
%TO.P,C7,1*%
%TO.N,Net-(U2-OUT3)*%
X36929056Y-26820000D03*
%TO.P,C7,2*%
%TO.N,/Audio output/AUDROUT*%
X36929056Y-28370000D03*
%TD*%
%TO.P,C26,1*%
%TO.N,+5V*%
X22270000Y-67670000D03*
%TO.P,C26,2*%
%TO.N,GND*%
X22270000Y-69220000D03*
%TD*%
D23*
%TO.P,C27,1*%
%TO.N,+3.3V*%
X24750000Y-70698704D03*
%TO.P,C27,2*%
%TO.N,GND*%
X23200000Y-70698704D03*
%TD*%
D24*
%TO.P,R33,1*%
%TO.N,Net-(C28-Pad1)*%
X30570000Y-28660000D03*
%TO.P,R33,2*%
%TO.N,Net-(U2-IN3+)*%
X30570000Y-29680000D03*
%TD*%
D25*
%TO.P,J1,1,Pin_1_1*%
%TO.N,/FPGA/TMS*%
X21995000Y-24200000D03*
D26*
%TO.P,J1,2,Pin_2_2*%
%TO.N,+3.3V*%
X21995000Y-21660000D03*
%TO.P,J1,3,Pin_3_3*%
%TO.N,/FPGA/TDI*%
X24535000Y-24200000D03*
%TO.P,J1,4,Pin_4_4*%
%TO.N,/FPGA/TCK*%
X24535000Y-21660000D03*
%TO.P,J1,5,Pin_5_5*%
%TO.N,GND*%
X27075000Y-24200000D03*
%TO.P,J1,6,Pin_6_6*%
%TO.N,/FPGA/TDO*%
X27075000Y-21660000D03*
%TD*%
D13*
%TO.P,C24,1*%
%TO.N,+3.3V*%
X37100000Y-68250000D03*
%TO.P,C24,2*%
%TO.N,GND*%
X37100000Y-69800000D03*
%TD*%
D27*
%TO.P,U2,1,IN+_1*%
%TO.N,Net-(U2-IN+)*%
X25402199Y-27802199D03*
%TO.P,U2,2,VCC+_2*%
%TO.N,+5VA*%
X25402199Y-28302200D03*
%TO.P,U2,3,NC_3*%
%TO.N,unconnected-(U2-NC-Pad3)*%
X25402199Y-28802200D03*
%TO.P,U2,4,IN2+_4*%
%TO.N,Net-(U2-IN2+)*%
X25402199Y-29302201D03*
D28*
%TO.P,U2,5,IN2-_5*%
%TO.N,Net-(U2-IN2-)*%
X26099998Y-30000000D03*
%TO.P,U2,6,OUT2_6*%
%TO.N,Net-(U2-OUT2)*%
X26599999Y-30000000D03*
%TO.P,U2,7,OUT3_7*%
%TO.N,Net-(U2-OUT3)*%
X27099999Y-30000000D03*
%TO.P,U2,8,IN3-_8*%
%TO.N,Net-(U2-IN3-)*%
X27600000Y-30000000D03*
D27*
%TO.P,U2,9,IN3+_9*%
%TO.N,Net-(U2-IN3+)*%
X28297799Y-29302201D03*
%TO.P,U2,10,NC_10*%
%TO.N,unconnected-(U2-NC-Pad10)*%
X28297799Y-28802200D03*
%TO.P,U2,11,VCC-_11*%
%TO.N,GND*%
X28297799Y-28302200D03*
%TO.P,U2,12,IN4+_12*%
%TO.N,/ADC/AUD_IN_BIAS*%
X28297799Y-27802199D03*
D28*
%TO.P,U2,13,IN4-_13*%
%TO.N,Net-(U2-IN4-)*%
X27600000Y-27104400D03*
%TO.P,U2,14,OUT_14*%
%TO.N,/Audio output/AUD_IN_AMP*%
X27099999Y-27104400D03*
%TO.P,U2,15,OUT1_15*%
%TO.N,/Audio output/AUD_INT_OUT*%
X26599999Y-27104400D03*
%TO.P,U2,16,IN1-_16*%
%TO.N,Net-(U2-IN1-)*%
X26099998Y-27104400D03*
%TD*%
D23*
%TO.P,C22,1*%
%TO.N,+3.3V*%
X26035000Y-56450000D03*
%TO.P,C22,2*%
%TO.N,GND*%
X24485000Y-56450000D03*
%TD*%
D20*
%TO.P,R12,1*%
%TO.N,Net-(U2-IN3-)*%
X32700000Y-29680000D03*
%TO.P,R12,2*%
%TO.N,GND*%
X32700000Y-28660000D03*
%TD*%
D11*
%TO.P,R26,1*%
%TO.N,/FPGA/PTHRES*%
X25810000Y-53375000D03*
%TO.P,R26,2*%
%TO.N,GND*%
X25810000Y-55025000D03*
%TD*%
D22*
%TO.P,R31,2*%
%TO.N,Net-(U4-T$6)*%
X24752719Y-39440000D03*
%TO.P,R31,1*%
%TO.N,/FPGA/LIN1.A6*%
X23732719Y-39440000D03*
%TD*%
D13*
%TO.P,C18,1*%
%TO.N,+2V5*%
X27870000Y-53825000D03*
%TO.P,C18,2*%
%TO.N,GND*%
X27870000Y-55375000D03*
%TD*%
D29*
%TO.P,R20,1*%
%TO.N,/Audio output/AUDL*%
X29130000Y-39440000D03*
%TO.P,R20,2*%
%TO.N,Net-(C12-Pad1)*%
X28110000Y-39440000D03*
%TD*%
%TO.P,R9,1*%
%TO.N,/Audio output/AUDINT*%
X24090000Y-27380000D03*
%TO.P,R9,2*%
%TO.N,Net-(U2-IN+)*%
X23070000Y-27380000D03*
%TD*%
%TO.P,R15,1*%
%TO.N,Net-(U2-IN2-)*%
X22380000Y-31220000D03*
%TO.P,R15,2*%
%TO.N,GND*%
X21360000Y-31220000D03*
%TD*%
D30*
%TO.P,Y1,1,EN_1*%
%TO.N,+3.3V*%
X31402760Y-70498704D03*
%TO.P,Y1,2,GND_2*%
%TO.N,GND*%
X31402760Y-68398704D03*
%TO.P,Y1,3,OUT_3*%
%TO.N,/FPGA/OSC_CLOCK*%
X29752760Y-68398704D03*
%TO.P,Y1,4,Vdd_4*%
%TO.N,+3.3V*%
X29752760Y-70498704D03*
%TD*%
D31*
%TO.P,C14,1*%
%TO.N,Net-(U2-IN3+)*%
X29590000Y-29650000D03*
%TO.P,C14,2*%
%TO.N,GND*%
X29590000Y-28690000D03*
%TD*%
D32*
%TO.P,U5,1,NC_1*%
%TO.N,unconnected-(U5-NC-Pad1)*%
X33424999Y-58204800D03*
%TO.P,U5,2,1A1_2*%
%TO.N,/FPGA/LIN2.A1*%
X33025000Y-58204800D03*
%TO.P,U5,3,1A2_3*%
%TO.N,/FPGA/LIN2.A2*%
X32624998Y-58204800D03*
%TO.P,U5,4,1A3_4*%
%TO.N,/FPGA/LIN2.A3*%
X32224999Y-58204800D03*
%TO.P,U5,5,1A4_5*%
%TO.N,/FPGA/LIN2.A4*%
X31825000Y-58204800D03*
%TO.P,U5,6,1A5_6*%
%TO.N,/FPGA/LIN2.A5*%
X31425001Y-58204800D03*
%TO.P,U5,7,1A6_7*%
%TO.N,/FPGA/LIN2.A6*%
X31024999Y-58204800D03*
%TO.P,U5,8,GND_8*%
%TO.N,GND*%
X30625000Y-58204800D03*
%TO.P,U5,9,1A7_9*%
%TO.N,/FPGA/LIN2.A7*%
X30225001Y-58204800D03*
%TO.P,U5,10,1A8_10*%
%TO.N,/FPGA/LIN2.A8*%
X29824999Y-58204800D03*
%TO.P,U5,11,1A9_11*%
%TO.N,/FPGA/LIN2.A9*%
X29425000Y-58204800D03*
%TO.P,U5,12,1A10_12*%
%TO.N,/FPGA/LIN2.A10*%
X29025001Y-58204800D03*
%TO.P,U5,13,1A11_13*%
%TO.N,/FPGA/LIN2.A11*%
X28624999Y-58204800D03*
%TO.P,U5,14,1A12_14*%
%TO.N,/FPGA/LIN2.A12*%
X28225000Y-58204800D03*
%TO.P,U5,15,2A1_15*%
%TO.N,/FPGA/LIN2.A13*%
X27825000Y-58204800D03*
%TO.P,U5,16,2A2_16*%
%TO.N,/FPGA/LIN2.A14*%
X27425001Y-58204800D03*
%TO.P,U5,17,VCC_17*%
%TO.N,+3.3V*%
X27024999Y-58204800D03*
%TO.P,U5,18,2A3_18*%
%TO.N,/FPGA/LIN2.A15*%
X26625000Y-58204800D03*
%TO.P,U5,19,GND_19*%
%TO.N,GND*%
X26225001Y-58204800D03*
%TO.P,U5,20,2A4_20*%
%TO.N,/FPGA/LIN2.A16*%
X25824999Y-58204800D03*
%TO.P,U5,21,2A5_21*%
%TO.N,/FPGA/LIN2.A17*%
X25425000Y-58204800D03*
%TO.P,U5,22,2A6_22*%
%TO.N,/FPGA/LIN2.A18*%
X25025001Y-58204800D03*
%TO.P,U5,23,2A7_23*%
%TO.N,/FPGA/LIN2.A19*%
X24624999Y-58204800D03*
%TO.P,U5,24,2A8_24*%
%TO.N,/FPGA/LIN2.A20*%
X24225000Y-58204800D03*
%TO.P,U5,25,2A9_25*%
%TO.N,/FPGA/LIN2.A21*%
X23825001Y-58204800D03*
%TO.P,U5,26,2A10_26*%
%TO.N,/FPGA/LIN2.A22*%
X23425002Y-58204800D03*
%TO.P,U5,27,2A11_27*%
%TO.N,/FPGA/LIN2.A23*%
X23025000Y-58204800D03*
%TO.P,U5,28,2A12_28*%
%TO.N,/FPGA/LIN2.A24*%
X22625001Y-58204800D03*
%TO.P,U5,29,2B12_29*%
%TO.N,/Level shifter/LOUT2.B24*%
X22625001Y-63945200D03*
%TO.P,U5,30,2B11_30*%
%TO.N,/Level shifter/LOUT2.B23*%
X23025000Y-63945200D03*
%TO.P,U5,31,2B10_31*%
%TO.N,/Level shifter/LOUT2.B22*%
X23425002Y-63945200D03*
%TO.P,U5,32,2B9_32*%
%TO.N,/Level shifter/LOUT2.B21*%
X23825001Y-63945200D03*
%TO.P,U5,33,2B8_33*%
%TO.N,/Level shifter/LOUT2.B20*%
X24225000Y-63945200D03*
%TO.P,U5,34,2B7_34*%
%TO.N,/Level shifter/LOUT2.B19*%
X24624999Y-63945200D03*
%TO.P,U5,35,2B6_35*%
%TO.N,/Level shifter/LOUT2.B18*%
X25025001Y-63945200D03*
%TO.P,U5,36,2B5_36*%
%TO.N,/Level shifter/LOUT2.B17*%
X25425000Y-63945200D03*
%TO.P,U5,37,2B4_37*%
%TO.N,/Level shifter/LOUT2.B16*%
X25824999Y-63945200D03*
%TO.P,U5,38,GND_38*%
%TO.N,GND*%
X26225001Y-63945200D03*
%TO.P,U5,39,2B3_39*%
%TO.N,/Level shifter/LOUT2.B15*%
X26625000Y-63945200D03*
%TO.P,U5,40,2B2_40*%
%TO.N,/Level shifter/LOUT2.B14*%
X27024999Y-63945200D03*
%TO.P,U5,41,2B1_41*%
%TO.N,/Level shifter/LOUT2.B13*%
X27425001Y-63945200D03*
%TO.P,U5,42,1B12_42*%
%TO.N,/Level shifter/LOUT2.B12*%
X27825000Y-63945200D03*
%TO.P,U5,43,1B11_43*%
%TO.N,/Level shifter/LOUT2.B11*%
X28225000Y-63945200D03*
%TO.P,U5,44,1B10_44*%
%TO.N,/Audio output/AUD_IN_AMP*%
X28624999Y-63945200D03*
%TO.P,U5,45,1B9_45*%
%TO.N,/Level shifter/LOUT2.B9*%
X29025001Y-63945200D03*
%TO.P,U5,46,1B8_46*%
%TO.N,/Level shifter/LOUT2.B8*%
X29425000Y-63945200D03*
%TO.P,U5,47,1B7_47*%
%TO.N,/Level shifter/LOUT2.B7*%
X29824999Y-63945200D03*
%TO.P,U5,48,1B6_48*%
%TO.N,/Level shifter/LOUT2.B6*%
X30225001Y-63945200D03*
%TO.P,U5,49,GND_49*%
%TO.N,GND*%
X30625000Y-63945200D03*
%TO.P,U5,50,1B5_50*%
%TO.N,/Level shifter/LOUT2.B5*%
X31024999Y-63945200D03*
%TO.P,U5,51,1B4_51*%
%TO.N,/Level shifter/LOUT2.B4*%
X31424998Y-63945200D03*
%TO.P,U5,52,1B3_52*%
%TO.N,/Level shifter/LOUT2.B3*%
X31825000Y-63945200D03*
%TO.P,U5,53,1B2_53*%
%TO.N,/Level shifter/LOUT2.B2*%
X32224999Y-63945200D03*
%TO.P,U5,54,1B1_54*%
%TO.N,/Level shifter/LOUT2.B1*%
X32624998Y-63945200D03*
%TO.P,U5,55,\u002A2OE_55*%
%TO.N,GND*%
X33025000Y-63945200D03*
%TO.P,U5,56,\u002A1OE_56*%
X33424999Y-63945200D03*
%TD*%
D33*
%TO.P,C17,1*%
%TO.N,/ADC/ADC_RX*%
X31700000Y-53231824D03*
%TO.P,C17,2*%
%TO.N,GND*%
X31700000Y-54191824D03*
%TD*%
D11*
%TO.P,R5,1*%
%TO.N,+2V5*%
X32325000Y-24050000D03*
%TO.P,R5,2*%
%TO.N,/ADC/AUD_VBIAS*%
X32325000Y-25700000D03*
%TD*%
D20*
%TO.P,R24,1*%
%TO.N,/ADC/ADC_TX*%
X30700000Y-54246824D03*
%TO.P,R24,2*%
%TO.N,/ADC/ADC_RX*%
X30700000Y-53226824D03*
%TD*%
D19*
%TO.P,C9,1*%
%TO.N,Net-(C9-Pad1)*%
X32020000Y-27780000D03*
%TO.P,C9,2*%
%TO.N,GND*%
X32980000Y-27780000D03*
%TD*%
D34*
%TO.P,U1,1,VOUT_1*%
%TO.N,+2V5*%
X31475000Y-21139261D03*
%TO.P,U1,2,GND_2*%
%TO.N,GND*%
X30967000Y-21139261D03*
%TO.P,U1,3,EN_3*%
%TO.N,+3.3V*%
X30967000Y-22688661D03*
%TO.P,U1,4,VIN_4*%
X31475000Y-22688661D03*
D35*
%TO.P,U1,5,EPAD_5*%
%TO.N,GND*%
X31221000Y-21913961D03*
%TD*%
D12*
%TO.P,C1,1*%
%TO.N,/ADC/AUD_IN*%
X36960000Y-22455000D03*
%TO.P,C1,2*%
%TO.N,/ADC/AUD_IN_BIAS*%
X36960000Y-20905000D03*
%TD*%
D29*
%TO.P,R14,1*%
%TO.N,Net-(U2-OUT3)*%
X30520000Y-30650000D03*
%TO.P,R14,2*%
%TO.N,Net-(U2-IN3-)*%
X29500000Y-30650000D03*
%TD*%
D15*
%TO.P,C13,1*%
%TO.N,Net-(U2-IN2+)*%
X22150000Y-28310000D03*
%TO.P,C13,2*%
%TO.N,GND*%
X21190000Y-28310000D03*
%TD*%
D29*
%TO.P,R32,1*%
%TO.N,Net-(C29-Pad1)*%
X22210000Y-29290000D03*
%TO.P,R32,2*%
%TO.N,Net-(U2-IN2+)*%
X21190000Y-29290000D03*
%TD*%
D22*
%TO.P,R13,1*%
%TO.N,Net-(C12-Pad1)*%
X23130000Y-30250000D03*
%TO.P,R13,2*%
%TO.N,Net-(C29-Pad1)*%
X24150000Y-30250000D03*
%TD*%
D12*
%TO.P,C3,1*%
%TO.N,+3.3V*%
X29625000Y-22550000D03*
%TO.P,C3,2*%
%TO.N,GND*%
X29625000Y-21000000D03*
%TD*%
D32*
%TO.P,U3,1,NC_1*%
%TO.N,unconnected-(U3-NC-Pad1)*%
X21600001Y-38289600D03*
%TO.P,U3,2,1A1_2*%
%TO.N,/FPGA/LIN1.A1*%
X22000000Y-38289600D03*
%TO.P,U3,3,1A2_3*%
%TO.N,/FPGA/LIN1.A2*%
X22400002Y-38289600D03*
%TO.P,U3,4,1A3_4*%
%TO.N,/FPGA/LIN1.A3*%
X22800001Y-38289600D03*
%TO.P,U3,5,1A4_5*%
%TO.N,/FPGA/LIN1.A4*%
X23200000Y-38289600D03*
%TO.P,U3,6,1A5_6*%
%TO.N,/FPGA/LIN1.A5*%
X23599999Y-38289600D03*
%TO.P,U3,7,1A6_7*%
%TO.N,/FPGA/LIN1.A6*%
X24000001Y-38289600D03*
%TO.P,U3,8,GND_8*%
%TO.N,GND*%
X24400000Y-38289600D03*
%TO.P,U3,9,1A7_9*%
%TO.N,/FPGA/LIN1.A7*%
X24799999Y-38289600D03*
%TO.P,U3,10,1A8_10*%
%TO.N,/FPGA/LIN1.A8*%
X25200001Y-38289600D03*
%TO.P,U3,11,1A9_11*%
%TO.N,/FPGA/LIN1.A9*%
X25600000Y-38289600D03*
%TO.P,U3,12,1A10_12*%
%TO.N,/FPGA/LIN1.A10*%
X25999999Y-38289600D03*
%TO.P,U3,13,1A11_13*%
%TO.N,/FPGA/LIN1.A11*%
X26400001Y-38289600D03*
%TO.P,U3,14,1A12_14*%
%TO.N,/FPGA/LIN1.A12*%
X26800000Y-38289600D03*
%TO.P,U3,15,2A1_15*%
%TO.N,/FPGA/LIN1.A13*%
X27200000Y-38289600D03*
%TO.P,U3,16,2A2_16*%
%TO.N,/FPGA/LIN1.A14*%
X27599999Y-38289600D03*
%TO.P,U3,17,VCC_17*%
%TO.N,+3.3V*%
X28000001Y-38289600D03*
%TO.P,U3,18,2A3_18*%
%TO.N,/FPGA/LIN1.A15*%
X28400000Y-38289600D03*
%TO.P,U3,19,GND_19*%
%TO.N,GND*%
X28799999Y-38289600D03*
%TO.P,U3,20,2A4_20*%
%TO.N,/FPGA/LIN1.A16*%
X29200001Y-38289600D03*
%TO.P,U3,21,2A5_21*%
%TO.N,/FPGA/LIN1.A17*%
X29600000Y-38289600D03*
%TO.P,U3,22,2A6_22*%
%TO.N,/FPGA/LIN1.A18*%
X29999999Y-38289600D03*
%TO.P,U3,23,2A7_23*%
%TO.N,/FPGA/LIN1.A19*%
X30400001Y-38289600D03*
%TO.P,U3,24,2A8_24*%
%TO.N,/FPGA/LIN1.A20*%
X30800000Y-38289600D03*
%TO.P,U3,25,2A9_25*%
%TO.N,/FPGA/LIN1.A21*%
X31199999Y-38289600D03*
%TO.P,U3,26,2A10_26*%
%TO.N,/FPGA/LIN1.A22*%
X31599998Y-38289600D03*
%TO.P,U3,27,2A11_27*%
%TO.N,/FPGA/LIN1.A23*%
X32000000Y-38289600D03*
%TO.P,U3,28,2A12_28*%
%TO.N,/FPGA/LIN1.A24*%
X32399999Y-38289600D03*
%TO.P,U3,29,2B12_29*%
%TO.N,/Level shifter/LOUT1.B24*%
X32399999Y-32549200D03*
%TO.P,U3,30,2B11_30*%
%TO.N,/Level shifter/LOUT1.B23*%
X32000000Y-32549200D03*
%TO.P,U3,31,2B10_31*%
%TO.N,/Level shifter/LOUT1.B22*%
X31599998Y-32549200D03*
%TO.P,U3,32,2B9_32*%
%TO.N,/Level shifter/LOUT1.B21*%
X31199999Y-32549200D03*
%TO.P,U3,33,2B8_33*%
%TO.N,/Level shifter/LOUT1.B20*%
X30800000Y-32549200D03*
%TO.P,U3,34,2B7_34*%
%TO.N,/Level shifter/LOUT1.B19*%
X30400001Y-32549200D03*
%TO.P,U3,35,2B6_35*%
%TO.N,/Level shifter/LOUT1.B18*%
X29999999Y-32549200D03*
%TO.P,U3,36,2B5_36*%
%TO.N,/Level shifter/LOUT1.B17*%
X29600000Y-32549200D03*
%TO.P,U3,37,2B4_37*%
%TO.N,/Level shifter/LOUT1.B16*%
X29200001Y-32549200D03*
%TO.P,U3,38,GND_38*%
%TO.N,GND*%
X28799999Y-32549200D03*
%TO.P,U3,39,2B3_39*%
%TO.N,/Level shifter/LOUT1.B15*%
X28400000Y-32549200D03*
%TO.P,U3,40,2B2_40*%
%TO.N,/Level shifter/LOUT1.B14*%
X28000001Y-32549200D03*
%TO.P,U3,41,2B1_41*%
%TO.N,/Level shifter/LOUT1.B13*%
X27599999Y-32549200D03*
%TO.P,U3,42,1B12_42*%
%TO.N,/Level shifter/LOUT1.B12*%
X27200000Y-32549200D03*
%TO.P,U3,43,1B11_43*%
%TO.N,/Level shifter/LOUT1.B11*%
X26800000Y-32549200D03*
%TO.P,U3,44,1B10_44*%
%TO.N,/Level shifter/LOUT1.B10*%
X26400001Y-32549200D03*
%TO.P,U3,45,1B9_45*%
%TO.N,/Level shifter/LOUT1.B9*%
X25999999Y-32549200D03*
%TO.P,U3,46,1B8_46*%
%TO.N,/Level shifter/LOUT1.B8*%
X25600000Y-32549200D03*
%TO.P,U3,47,1B7_47*%
%TO.N,/Level shifter/LOUT1.B7*%
X25200001Y-32549200D03*
%TO.P,U3,48,1B6_48*%
%TO.N,/Level shifter/LOUT1.B6*%
X24799999Y-32549200D03*
%TO.P,U3,49,GND_49*%
%TO.N,GND*%
X24400000Y-32549200D03*
%TO.P,U3,50,1B5_50*%
%TO.N,/Level shifter/LOUT1.B5*%
X24000001Y-32549200D03*
%TO.P,U3,51,1B4_51*%
%TO.N,/Level shifter/LOUT1.B4*%
X23600002Y-32549200D03*
%TO.P,U3,52,1B3_52*%
%TO.N,/Level shifter/LOUT1.B3*%
X23200000Y-32549200D03*
%TO.P,U3,53,1B2_53*%
%TO.N,/Level shifter/LOUT1.B2*%
X22800001Y-32549200D03*
%TO.P,U3,54,1B1_54*%
%TO.N,/Level shifter/LOUT1.B1*%
X22400002Y-32549200D03*
%TO.P,U3,55,\u002A2OE_55*%
%TO.N,GND*%
X22000000Y-32549200D03*
%TO.P,U3,56,\u002A1OE_56*%
X21600001Y-32549200D03*
%TD*%
D11*
%TO.P,R3,1*%
%TO.N,/ADC/AUD_IN_BIAS*%
X33750000Y-23925000D03*
%TO.P,R3,2*%
%TO.N,/ADC/AUD_VBIAS*%
X33750000Y-25575000D03*
%TD*%
D29*
%TO.P,R7,1*%
%TO.N,/Audio output/AUD_INT_OUT*%
X24120000Y-26440000D03*
%TO.P,R7,2*%
%TO.N,Net-(U2-IN1-)*%
X23100000Y-26440000D03*
%TD*%
%TO.P,R8,1*%
%TO.N,/Audio output/AUD_IN_AMP*%
X30650000Y-26830000D03*
%TO.P,R8,2*%
%TO.N,Net-(U2-IN4-)*%
X29630000Y-26830000D03*
%TD*%
D19*
%TO.P,C28,1*%
%TO.N,Net-(C28-Pad1)*%
X31390000Y-30600000D03*
%TO.P,C28,2*%
%TO.N,Net-(U2-OUT3)*%
X32350000Y-30600000D03*
%TD*%
D36*
%TO.P,U6,1,MODE_1*%
%TO.N,+5V*%
X24625000Y-68313692D03*
D37*
%TO.P,U6,2,SW_2*%
%TO.N,Net-(U6-SW)*%
X24125000Y-68298704D03*
%TO.P,U6,3,VIN_3*%
%TO.N,+5V*%
X23625000Y-68298704D03*
%TO.P,U6,4,GND_4*%
%TO.N,GND*%
X23625000Y-69038704D03*
%TO.P,U6,5,EN_5*%
%TO.N,+5V*%
X24125000Y-69038704D03*
%TO.P,U6,6,FB_6*%
%TO.N,+3.3V*%
X24625000Y-69038704D03*
%TD*%
D15*
%TO.P,C6,1*%
%TO.N,Net-(U2-IN+)*%
X22150000Y-27370000D03*
%TO.P,C6,2*%
%TO.N,GND*%
X21190000Y-27370000D03*
%TD*%
D19*
%TO.P,C21,1*%
%TO.N,/FPGA/ADC_IN*%
X30295000Y-56066824D03*
%TO.P,C21,2*%
%TO.N,/ADC/AUD_VBIAS*%
X31255000Y-56066824D03*
%TD*%
D29*
%TO.P,R6,1*%
%TO.N,Net-(U2-IN1-)*%
X22200000Y-26440000D03*
%TO.P,R6,2*%
%TO.N,GND*%
X21180000Y-26440000D03*
%TD*%
D13*
%TO.P,C4,1*%
%TO.N,Net-(U2-OUT2)*%
X36950000Y-23865000D03*
%TO.P,C4,2*%
%TO.N,/Audio output/AUDLOUT*%
X36950000Y-25415000D03*
%TD*%
%TO.P,C5,1*%
%TO.N,GND*%
X30900000Y-24100000D03*
%TO.P,C5,2*%
%TO.N,/ADC/AUD_VBIAS*%
X30900000Y-25650000D03*
%TD*%
D24*
%TO.P,R30,1*%
%TO.N,Net-(U4-BB$19)*%
X32640000Y-53210000D03*
%TO.P,R30,2*%
%TO.N,/FPGA/LIN2.A8*%
X32640000Y-54230000D03*
%TD*%
D13*
%TO.P,C2,1*%
%TO.N,+2V5*%
X32850000Y-20975000D03*
%TO.P,C2,2*%
%TO.N,GND*%
X32850000Y-22525000D03*
%TD*%
D29*
%TO.P,R16,1*%
%TO.N,Net-(U2-OUT2)*%
X24240000Y-31320000D03*
%TO.P,R16,2*%
%TO.N,Net-(U2-IN2-)*%
X23220000Y-31320000D03*
%TD*%
D22*
%TO.P,R10,1*%
%TO.N,Net-(U2-IN4-)*%
X31580000Y-26830000D03*
%TO.P,R10,2*%
%TO.N,GND*%
X32600000Y-26830000D03*
%TD*%
D15*
%TO.P,C20,1*%
%TO.N,GND*%
X31970000Y-55136824D03*
%TO.P,C20,2*%
%TO.N,/ADC/AUD_VBIAS*%
X31010000Y-55136824D03*
%TD*%
D19*
%TO.P,C29,1*%
%TO.N,Net-(C29-Pad1)*%
X25100000Y-31120000D03*
%TO.P,C29,2*%
%TO.N,Net-(U2-OUT2)*%
X26060000Y-31120000D03*
%TD*%
D12*
%TO.P,C25,1*%
%TO.N,+3.3V*%
X33027760Y-70248704D03*
%TO.P,C25,2*%
%TO.N,GND*%
X33027760Y-68698704D03*
%TD*%
D10*
%TO.P,R4,1*%
%TO.N,/ADC/AUD_VBIAS*%
X29475000Y-25700000D03*
%TO.P,R4,2*%
%TO.N,GND*%
X29475000Y-24050000D03*
%TD*%
D15*
%TO.P,C8,1*%
%TO.N,/Audio output/AUD_IN_AMP*%
X30630000Y-27760000D03*
%TO.P,C8,2*%
%TO.N,Net-(U2-IN4-)*%
X29670000Y-27760000D03*
%TD*%
D38*
%TO.P,U4,A1,GND_A1*%
%TO.N,GND*%
X22474600Y-41497166D03*
%TO.P,U4,A2,T$2_A2*%
%TO.N,/FPGA/LIN1.A2*%
X23274600Y-41497166D03*
%TO.P,U4,A3,T$4_A3*%
%TO.N,/FPGA/LIN1.A4*%
X24074600Y-41497166D03*
%TO.P,U4,A4,T$6_A4*%
%TO.N,Net-(U4-T$6)*%
X24874600Y-41497166D03*
%TO.P,U4,A5,T$8_A5*%
%TO.N,/FPGA/LIN1.A8*%
X25674600Y-41497166D03*
%TO.P,U4,A6,T$10_A6*%
%TO.N,/FPGA/LIN1.A10*%
X26474600Y-41497166D03*
%TO.P,U4,A7,T$12_A7*%
%TO.N,/FPGA/LIN1.A12*%
X27274600Y-41497166D03*
%TO.P,U4,A8,T$14_A8*%
%TO.N,/FPGA/LIN1.A14*%
X28074600Y-41497166D03*
%TO.P,U4,A9,T$15_A9*%
%TO.N,/FPGA/LIN1.A15*%
X28874600Y-41497166D03*
%TO.P,U4,A10,T$16_A10*%
%TO.N,/FPGA/LIN1.A16*%
X29674600Y-41497166D03*
%TO.P,U4,A11,T$18_A11*%
%TO.N,/FPGA/LIN1.A18*%
X30474600Y-41497166D03*
%TO.P,U4,A12,T$20_A12*%
%TO.N,/FPGA/LIN1.A20*%
X31274600Y-41497166D03*
%TO.P,U4,A13,GND_A13*%
%TO.N,GND*%
X32074600Y-41497166D03*
%TO.P,U4,B1,T$1_B1*%
%TO.N,/FPGA/LIN1.A1*%
X22474600Y-42297166D03*
%TO.P,U4,B2,T$3_B2*%
%TO.N,/FPGA/LIN1.A3*%
X23274600Y-42297166D03*
%TO.P,U4,B3,T$5_B3*%
%TO.N,/FPGA/LIN1.A5*%
X24074600Y-42297166D03*
%TO.P,U4,B4,T$7_B4*%
%TO.N,/FPGA/LIN1.A7*%
X24874600Y-42297166D03*
%TO.P,U4,B5,T$9_B5*%
%TO.N,/FPGA/LIN1.A9*%
X25674600Y-42297166D03*
%TO.P,U4,B6,T$11_B6*%
%TO.N,/FPGA/LIN1.A11*%
X26474600Y-42297166D03*
%TO.P,U4,B7,T$13_B7*%
%TO.N,/FPGA/LIN1.A13*%
X27274600Y-42297166D03*
%TO.P,U4,B8,GND_B8*%
%TO.N,GND*%
X28074600Y-42297166D03*
%TO.P,U4,B9,DEV_CLRN_B9*%
%TO.N,+3.3V*%
X28874600Y-42297166D03*
%TO.P,U4,B10,T$17_B10*%
%TO.N,/FPGA/LIN1.A17*%
X29674600Y-42297166D03*
%TO.P,U4,B11,T$19_B11*%
%TO.N,/FPGA/LIN1.A19*%
X30474600Y-42297166D03*
%TO.P,U4,B12,T$21_B12*%
%TO.N,/FPGA/LIN1.A21*%
X31274600Y-42297166D03*
%TO.P,U4,B13,T$22_B13*%
%TO.N,/FPGA/LIN1.A22*%
X32074600Y-42297166D03*
%TO.P,U4,C1,TB$1_C1*%
%TO.N,unconnected-(U4-TB$1-PadC1)*%
X22474600Y-43097166D03*
%TO.P,U4,C2,TB$3_C2*%
%TO.N,unconnected-(U4-TB$3-PadC2)*%
X23274600Y-43097166D03*
%TO.P,U4,C3,GND_C3*%
%TO.N,GND*%
X24074600Y-43097166D03*
%TO.P,U4,C4,NSTATUS_C4*%
%TO.N,Net-(U4-NSTATUS)*%
X24874600Y-43097166D03*
%TO.P,U4,C5,CONF_DONE_C5*%
%TO.N,Net-(U4-CONF_DONE)*%
X25674600Y-43097166D03*
%TO.P,U4,C6,VCCIO_C6*%
%TO.N,+3.3V*%
X26474600Y-43097166D03*
%TO.P,U4,C7,VCCIO_C7*%
X27274600Y-43097166D03*
%TO.P,U4,C8,VCCIO_C8*%
X28074600Y-43097166D03*
%TO.P,U4,C9,TB$4_C9*%
%TO.N,/Audio output/AUDR*%
X28874600Y-43097166D03*
%TO.P,U4,C10,TB$6_C10*%
%TO.N,/Audio output/AUDINT*%
X29674600Y-43097166D03*
%TO.P,U4,C11,TB$7_C11*%
%TO.N,unconnected-(U4-TB$7-PadC11)*%
X30474600Y-43097166D03*
%TO.P,U4,C12,TB$9_C12*%
%TO.N,/FPGA/LIN1.A23*%
X31274600Y-43097166D03*
%TO.P,U4,C13,TB$11_C13*%
%TO.N,unconnected-(U4-TB$11-PadC13)*%
X32074600Y-43097166D03*
%TO.P,U4,D1,TB$2_D1*%
%TO.N,unconnected-(U4-TB$2-PadD1)*%
X22474600Y-43897166D03*
%TO.P,U4,D2,NC_D2*%
%TO.N,unconnected-(U4-NC-PadD2)*%
X23274600Y-43897166D03*
%TO.P,U4,D3,NC_D3*%
%TO.N,unconnected-(U4-NC-PadD3)*%
X24074600Y-43897166D03*
%TO.P,U4,D4,VCCA_D4*%
%TO.N,+3.3VA*%
X24874600Y-43897166D03*
%TO.P,U4,D5,GND_D5*%
%TO.N,GND*%
X25674600Y-43897166D03*
%TO.P,U4,D6,CRC_ERROR_D6*%
%TO.N,unconnected-(U4-CRC_ERROR-PadD6)*%
X26474600Y-43897166D03*
%TO.P,U4,D7,CONFIG_SEL_D7*%
%TO.N,unconnected-(U4-CONFIG_SEL-PadD7)*%
X27274600Y-43897166D03*
%TO.P,U4,D8,DEV_OE_D8*%
%TO.N,+3.3V*%
X28074600Y-43897166D03*
%TO.P,U4,D9,TB$5_D9*%
%TO.N,/Audio output/AUDL*%
X28874600Y-43897166D03*
%TO.P,U4,D10,VCCA_D10*%
%TO.N,+3.3VA*%
X29674600Y-43897166D03*
%TO.P,U4,D11,TB$8_D11*%
%TO.N,unconnected-(U4-TB$8-PadD11)*%
X30474600Y-43897166D03*
%TO.P,U4,D12,TB$10_D12*%
%TO.N,unconnected-(U4-TB$10-PadD12)*%
X31274600Y-43897166D03*
%TO.P,U4,D13,TB$12_D13*%
%TO.N,/FPGA/LIN1.A24*%
X32074600Y-43897166D03*
%TO.P,U4,E1,IO_UNUSED_E1*%
%TO.N,/FPGA/unconnected-(U4-IO_UNUSED-PadE1)_1_24*%
X22474600Y-44697166D03*
%TO.P,U4,E2,NC_E2*%
%TO.N,unconnected-(U4-NC-PadE2)*%
X23274600Y-44697166D03*
%TO.P,U4,E3,IO_UNUSED_E3*%
%TO.N,/FPGA/unconnected-(U4-IO_UNUSED-PadE1)_1_5*%
X24074600Y-44697166D03*
%TO.P,U4,E4,IO_UNUSED_E4*%
%TO.N,/FPGA/unconnected-(U4-IO_UNUSED-PadE1)_1_6*%
X24874600Y-44697166D03*
%TO.P,U4,E5,JTAG_EN_E5*%
%TO.N,unconnected-(U4-JTAG_EN-PadE5)*%
X25674600Y-44697166D03*
%TO.P,U4,E6,IO_UNUSED_E6*%
%TO.N,/FPGA/unconnected-(U4-IO_UNUSED-PadE1)_1_8*%
X26474600Y-44697166D03*
%TO.P,U4,E7,NCONFIG_E7*%
%TO.N,+3.3V*%
X27274600Y-44697166D03*
%TO.P,U4,E8,IO_UNUSED_E8*%
%TO.N,/FPGA/unconnected-(U4-IO_UNUSED-PadE1)_1_26*%
X28074600Y-44697166D03*
%TO.P,U4,E9,IO_UNUSED_E9*%
%TO.N,/FPGA/unconnected-(U4-IO_UNUSED-PadE1)_1_11*%
X28874600Y-44697166D03*
%TO.P,U4,E10,IO_UNUSED_E10*%
%TO.N,/FPGA/unconnected-(U4-IO_UNUSED-PadE1)_1_23*%
X29674600Y-44697166D03*
%TO.P,U4,E11,GND_E11*%
%TO.N,GND*%
X30474600Y-44697166D03*
%TO.P,U4,E12,IO_UNUSED_E12*%
%TO.N,/FPGA/unconnected-(U4-IO_UNUSED-PadE1)_1_1*%
X31274600Y-44697166D03*
%TO.P,U4,E13,CLK3_E13*%
%TO.N,/FPGA/OSC_CLOCK*%
X32074600Y-44697166D03*
%TO.P,U4,F1,IO_UNUSED_F1*%
%TO.N,/FPGA/unconnected-(U4-IO_UNUSED-PadE1)_1_4*%
X22474600Y-45497166D03*
%TO.P,U4,F2,VCCIO_F2*%
%TO.N,+3.3V*%
X23274600Y-45497166D03*
%TO.P,U4,F3,GND_F3*%
%TO.N,GND*%
X24074600Y-45497166D03*
%TO.P,U4,F4,IO_UNUSED_F4*%
%TO.N,/FPGA/unconnected-(U4-IO_UNUSED-PadE1)_1_17*%
X24874600Y-45497166D03*
%TO.P,U4,F5,JTAG_TDI_F5*%
%TO.N,/FPGA/TDI*%
X25674600Y-45497166D03*
%TO.P,U4,F6,JTAG_TDO_F6*%
%TO.N,/FPGA/TDO*%
X26474600Y-45497166D03*
%TO.P,U4,F7,VCCONE_F7*%
%TO.N,+3.3V*%
X27274600Y-45497166D03*
%TO.P,U4,F8,IO_UNUSED_F8*%
%TO.N,/FPGA/unconnected-(U4-IO_UNUSED-PadE1)_1_9*%
X28074600Y-45497166D03*
%TO.P,U4,F9,IO_UNUSED_F9*%
%TO.N,/FPGA/unconnected-(U4-IO_UNUSED-PadE1)_1_18*%
X28874600Y-45497166D03*
%TO.P,U4,F10,IO_UNUSED_F10*%
%TO.N,/FPGA/unconnected-(U4-IO_UNUSED-PadE1)_1_16*%
X29674600Y-45497166D03*
%TO.P,U4,F11,VCCIO_F11*%
%TO.N,+3.3V*%
X30474600Y-45497166D03*
%TO.P,U4,F12,IO_UNUSED_F12*%
%TO.N,/FPGA/unconnected-(U4-IO_UNUSED-PadE1)_1_22*%
X31274600Y-45497166D03*
%TO.P,U4,F13,CLK4_F13*%
%TO.N,/FPGA/OSC_CLOCK*%
X32074600Y-45497166D03*
%TO.P,U4,G1,JTAG_TMS_G1*%
%TO.N,/FPGA/TMS*%
X22474600Y-46297166D03*
%TO.P,U4,G2,JTAG_TCK_G2*%
%TO.N,/FPGA/TCK*%
X23274600Y-46297166D03*
%TO.P,U4,G3,VCCIO_G3*%
%TO.N,+3.3V*%
X24074600Y-46297166D03*
%TO.P,U4,G4,IO_UNUSED_G4*%
%TO.N,/FPGA/unconnected-(U4-IO_UNUSED-PadE1)_1_7*%
X24874600Y-46297166D03*
%TO.P,U4,G5,IO_UNUSED_G5*%
%TO.N,/FPGA/unconnected-(U4-IO_UNUSED-PadE1)_1_2*%
X25674600Y-46297166D03*
%TO.P,U4,G6,VCCONE_G6*%
%TO.N,+3.3V*%
X26474600Y-46297166D03*
%TO.P,U4,G7,GND_G7*%
%TO.N,GND*%
X27274600Y-46297166D03*
%TO.P,U4,G8,VCCONE_G8*%
%TO.N,+3.3V*%
X28074600Y-46297166D03*
%TO.P,U4,G9,CLK2_G9*%
%TO.N,Net-(U4-CLK2)*%
X28874600Y-46297166D03*
%TO.P,U4,G10,IO_UNUSED_G10*%
%TO.N,/FPGA/unconnected-(U4-IO_UNUSED-PadE1)_1_12*%
X29674600Y-46297166D03*
%TO.P,U4,G11,VCCIO_G11*%
%TO.N,+3.3V*%
X30474600Y-46297166D03*
%TO.P,U4,G12,BB$24_G12*%
%TO.N,/FPGA/LIN2.A1*%
X31274600Y-46297166D03*
%TO.P,U4,G13,BB$25_G13*%
%TO.N,/FPGA/LIN2.A2*%
X32074600Y-46297166D03*
%TO.P,U4,H1,IO_UNUSED_H1*%
%TO.N,/FPGA/unconnected-(U4-IO_UNUSED-PadE1)_1_20*%
X22474600Y-47097166D03*
%TO.P,U4,H2,IO_UNUSED_H2*%
%TO.N,/FPGA/unconnected-(U4-IO_UNUSED-PadE1)_1_21*%
X23274600Y-47097166D03*
%TO.P,U4,H3,IO_UNUSED_H3*%
%TO.N,/FPGA/unconnected-(U4-IO_UNUSED-PadE1)_1_15*%
X24074600Y-47097166D03*
%TO.P,U4,H4,CLK1_H4*%
%TO.N,unconnected-(U4-CLK1-PadH4)*%
X24874600Y-47097166D03*
%TO.P,U4,H5,IO_UNUSED_H5*%
%TO.N,/FPGA/unconnected-(U4-IO_UNUSED-PadE1)_1_14*%
X25674600Y-47097166D03*
%TO.P,U4,H6,CLK0_H6*%
%TO.N,unconnected-(U4-CLK0-PadH6)*%
X26474600Y-47097166D03*
%TO.P,U4,H7,VCCONE_H7*%
%TO.N,+3.3V*%
X27274600Y-47097166D03*
%TO.P,U4,H8,OUTBYCLK_H8*%
%TO.N,Net-(U4-CLK2)*%
X28074600Y-47097166D03*
%TO.P,U4,H9,IO_UNUSED_H9*%
%TO.N,/FPGA/unconnected-(U4-IO_UNUSED-PadE1)_1_19*%
X28874600Y-47097166D03*
%TO.P,U4,H10,IO_UNUSED_H10*%
%TO.N,/FPGA/unconnected-(U4-IO_UNUSED-PadE1)_1_25*%
X29674600Y-47097166D03*
%TO.P,U4,H11,VCCIO_H11*%
%TO.N,+3.3V*%
X30474600Y-47097166D03*
%TO.P,U4,H12,GND_H12*%
%TO.N,GND*%
X31274600Y-47097166D03*
%TO.P,U4,H13,BB$26_H13*%
%TO.N,/FPGA/LIN2.A3*%
X32074600Y-47097166D03*
%TO.P,U4,J1,IO_UNUSED_J1*%
%TO.N,/FPGA/unconnected-(U4-IO_UNUSED-PadE1)_1_13*%
X22474600Y-47897166D03*
%TO.P,U4,J2,IO_UNUSED_J2*%
%TO.N,/FPGA/unconnected-(U4-IO_UNUSED-PadE1)_1_10*%
X23274600Y-47897166D03*
%TO.P,U4,J3,VCCIO_J3*%
%TO.N,+3.3V*%
X24074600Y-47897166D03*
%TO.P,U4,J4,GND_J4*%
%TO.N,GND*%
X24874600Y-47897166D03*
%TO.P,U4,J5,BB$20_J5*%
%TO.N,unconnected-(U4-BB$20-PadJ5)*%
X25674600Y-47897166D03*
%TO.P,U4,J6,BB$21_J6*%
%TO.N,unconnected-(U4-BB$21-PadJ6)*%
X26474600Y-47897166D03*
%TO.P,U4,J7,BB$22_J7*%
%TO.N,unconnected-(U4-BB$22-PadJ7)*%
X27274600Y-47897166D03*
%TO.P,U4,J8,BB$23_J8*%
%TO.N,unconnected-(U4-BB$23-PadJ8)*%
X28074600Y-47897166D03*
%TO.P,U4,J9,IO_UNUSED_J9*%
%TO.N,/FPGA/unconnected-(U4-IO_UNUSED-PadE1)_1_3*%
X28874600Y-47897166D03*
%TO.P,U4,J10,IO_UNUSED_J10*%
%TO.N,/FPGA/unconnected-(U4-IO_UNUSED-PadE1)_1*%
X29674600Y-47897166D03*
%TO.P,U4,J11,VCCIO_J11*%
%TO.N,+3.3V*%
X30474600Y-47897166D03*
%TO.P,U4,J12,BB$27_J12*%
%TO.N,/FPGA/LIN2.A4*%
X31274600Y-47897166D03*
%TO.P,U4,J13,BB$28_J13*%
%TO.N,/FPGA/LIN2.A5*%
X32074600Y-47897166D03*
%TO.P,U4,K1,BB$1_K1*%
%TO.N,/FPGA/LIN2.A24*%
X22474600Y-48697166D03*
%TO.P,U4,K2,BB$3_K2*%
%TO.N,unconnected-(U4-BB$3-PadK2)*%
X23274600Y-48697166D03*
%TO.P,U4,K3,VCCIO_K3*%
%TO.N,+3.3V*%
X24074600Y-48697166D03*
%TO.P,U4,K4,VCCA_K4*%
%TO.N,+3.3VA*%
X24874600Y-48697166D03*
%TO.P,U4,K5,BB$7_K5*%
%TO.N,unconnected-(U4-BB$7-PadK5)*%
X25674600Y-48697166D03*
%TO.P,U4,K6,BB$9_K6*%
%TO.N,unconnected-(U4-BB$9-PadK6)*%
X26474600Y-48697166D03*
%TO.P,U4,K7,BB$10_K7*%
%TO.N,unconnected-(U4-BB$10-PadK7)*%
X27274600Y-48697166D03*
%TO.P,U4,K8,BB$11_K8*%
%TO.N,unconnected-(U4-BB$11-PadK8)*%
X28074600Y-48697166D03*
%TO.P,U4,K9,VCCA_K9*%
%TO.N,+3.3VA*%
X28874600Y-48697166D03*
%TO.P,U4,K10,BB$12_K10*%
%TO.N,unconnected-(U4-BB$12-PadK10)*%
X29674600Y-48697166D03*
%TO.P,U4,K11,BB$14_K11*%
%TO.N,unconnected-(U4-BB$14-PadK11)*%
X30474600Y-48697166D03*
%TO.P,U4,K12,BB$16_K12*%
%TO.N,/FPGA/LIN2.A9*%
X31274600Y-48697166D03*
%TO.P,U4,K13,BB$18_K13*%
%TO.N,/FPGA/LIN2.A6*%
X32074600Y-48697166D03*
%TO.P,U4,L1,BB$2_L1*%
%TO.N,/FPGA/LIN2.A23*%
X22474600Y-49497166D03*
%TO.P,U4,L2,BB$4_L2*%
%TO.N,unconnected-(U4-BB$4-PadL2)*%
X23274600Y-49497166D03*
%TO.P,U4,L3,BB$5_L3*%
%TO.N,/FPGA/LIN2.A19*%
X24074600Y-49497166D03*
%TO.P,U4,L4,BB$6_L4*%
%TO.N,/FPGA/LIN2.A18*%
X24874600Y-49497166D03*
%TO.P,U4,L5,BB$8_L5*%
%TO.N,/FPGA/PTHRES*%
X25674600Y-49497166D03*
%TO.P,U4,L6,VCCIOBANK3_L6*%
%TO.N,+2V5*%
X26474600Y-49497166D03*
%TO.P,U4,L7,VCCIOBANK3_L7*%
X27274600Y-49497166D03*
%TO.P,U4,L8,VCCIOBANK3_L8*%
X28074600Y-49497166D03*
%TO.P,U4,L9,GND_L9*%
%TO.N,GND*%
X28874600Y-49497166D03*
%TO.P,U4,L10,BB$13_L10*%
%TO.N,/FPGA/LIN2.A11*%
X29674600Y-49497166D03*
%TO.P,U4,L11,BB$15_L11*%
%TO.N,/ADC/ADC_TX*%
X30474600Y-49497166D03*
%TO.P,U4,L12,BB$17_L12*%
%TO.N,/FPGA/LIN2.A7*%
X31274600Y-49497166D03*
%TO.P,U4,L13,BB$19_L13*%
%TO.N,Net-(U4-BB$19)*%
X32074600Y-49497166D03*
%TO.P,U4,M1,B$1_M1*%
%TO.N,/FPGA/LIN2.A22*%
X22474600Y-50297166D03*
%TO.P,U4,M2,B$2_M2*%
%TO.N,/FPGA/LIN2.A21*%
X23274600Y-50297166D03*
%TO.P,U4,M3,B$4_M3*%
%TO.N,/FPGA/LIN2.A20*%
X24074600Y-50297166D03*
%TO.P,U4,M4,B$6_M4*%
%TO.N,/FPGA/PTHRES*%
X24874600Y-50297166D03*
%TO.P,U4,M5,B$8_M5*%
%TO.N,/FPGA/LIN2.A17*%
X25674600Y-50297166D03*
%TO.P,U4,M6,GND_M6*%
%TO.N,GND*%
X26474600Y-50297166D03*
%TO.P,U4,M7,B$11_M7*%
%TO.N,/FPGA/LIN2.A15*%
X27274600Y-50297166D03*
%TO.P,U4,M8,B$13_M8*%
%TO.N,/FPGA/PTHRES*%
X28074600Y-50297166D03*
%TO.P,U4,M9,B$15_M9*%
%TO.N,/FPGA/LIN2.A13*%
X28874600Y-50297166D03*
%TO.P,U4,M10,B$17_M10*%
%TO.N,/FPGA/PTHRES*%
X29674600Y-50297166D03*
%TO.P,U4,M11,B$19_M11*%
%TO.N,/FPGA/NC1*%
X30474600Y-50297166D03*
%TO.P,U4,M12,B$21_M12*%
%TO.N,/FPGA/ADC_IN*%
X31274600Y-50297166D03*
%TO.P,U4,M13,B$23_M13*%
%TO.N,/ADC/ADC_RX*%
X32074600Y-50297166D03*
%TO.P,U4,N1,GND_N1*%
%TO.N,GND*%
X22474600Y-51097166D03*
%TO.P,U4,N2,B$3_N2*%
%TO.N,unconnected-(U4-B$3-PadN2)*%
X23274600Y-51097166D03*
%TO.P,U4,N3,B$5_N3*%
%TO.N,unconnected-(U4-B$5-PadN3)*%
X24074600Y-51097166D03*
%TO.P,U4,N4,B$7_N4*%
%TO.N,/FPGA/PTHRES*%
X24874600Y-51097166D03*
%TO.P,U4,N5,B$9_N5*%
%TO.N,/FPGA/LIN2.A16*%
X25674600Y-51097166D03*
%TO.P,U4,N6,B$10_N6*%
%TO.N,/FPGA/PTHRES*%
X26474600Y-51097166D03*
%TO.P,U4,N7,B$12_N7*%
X27274600Y-51097166D03*
%TO.P,U4,N8,B$14_N8*%
%TO.N,/FPGA/LIN2.A14*%
X28074600Y-51097166D03*
%TO.P,U4,N9,B$16_N9*%
%TO.N,/FPGA/LIN2.A12*%
X28874600Y-51097166D03*
%TO.P,U4,N10,B$18_N10*%
%TO.N,/FPGA/PTHRES*%
X29674600Y-51097166D03*
%TO.P,U4,N11,B$20_N11*%
%TO.N,unconnected-(U4-B$20-PadN11)*%
X30474600Y-51097166D03*
%TO.P,U4,N12,B$22_N12*%
%TO.N,unconnected-(U4-B$22-PadN12)*%
X31274600Y-51097166D03*
%TO.P,U4,N13,GND_N13*%
%TO.N,GND*%
X32074600Y-51097166D03*
%TD*%
D10*
%TO.P,R25,1*%
%TO.N,+3.3V*%
X24310000Y-55025000D03*
%TO.P,R25,2*%
%TO.N,/FPGA/PTHRES*%
X24310000Y-53375000D03*
%TD*%
D15*
%TO.P,C12,1*%
%TO.N,Net-(C12-Pad1)*%
X22200000Y-30260000D03*
%TO.P,C12,2*%
%TO.N,GND*%
X21240000Y-30260000D03*
%TD*%
D22*
%TO.P,R27,1*%
%TO.N,/FPGA/LIN2.A10*%
X29030000Y-55136824D03*
%TO.P,R27,2*%
%TO.N,/FPGA/ADC_IN*%
X30050000Y-55136824D03*
%TD*%
D39*
%TO.N,GND*%
X31440000Y-52052566D03*
D40*
X21740000Y-69970000D03*
X23200000Y-69920000D03*
D39*
%TO.N,/FPGA/LIN1.A10*%
X25260000Y-37310000D03*
X26474600Y-41497166D03*
%TO.N,/FPGA/LIN1.A11*%
X25310000Y-36690000D03*
%TO.N,GND*%
X26050000Y-40790000D03*
%TO.N,+3.3V*%
X27025056Y-39455056D03*
%TO.N,/FPGA/LIN1.A13*%
X27674600Y-40347166D03*
%TO.N,/FPGA/ADC_IN*%
X29750000Y-54075000D03*
X31274600Y-50297166D03*
D40*
%TO.N,+5VA*%
X23732279Y-28008340D03*
X19300000Y-28160000D03*
D39*
%TO.N,Net-(U2-IN4-)*%
X31580000Y-26270000D03*
X30128131Y-27280188D03*
%TO.N,/Level shifter/LOUT2.B11*%
X21924600Y-45097166D03*
%TO.N,/Level shifter/LOUT2.B3*%
X18150000Y-67300000D03*
X29750000Y-65350000D03*
%TO.N,/Level shifter/LOUT2.B18*%
X25150000Y-65150000D03*
X20238001Y-51482986D03*
%TO.N,/Level shifter/LOUT2.B12*%
X21184015Y-44886366D03*
%TO.N,/Level shifter/LOUT1.B16*%
X29375000Y-34050000D03*
%TO.N,/Level shifter/LOUT1.B15*%
X35705567Y-28730568D03*
%TO.N,/Level shifter/LOUT1.B1*%
X22150000Y-33900000D03*
%TO.N,/Level shifter/LOUT1.B10*%
X28110000Y-31180000D03*
X33640000Y-28600000D03*
%TO.N,/Level shifter/LOUT1.B11*%
X27668268Y-34931514D03*
%TO.N,/Level shifter/LOUT1.B14*%
X28880808Y-34406916D03*
%TO.N,/Level shifter/LOUT1.B12*%
X28265418Y-34808931D03*
%TO.N,/Level shifter/LOUT1.B13*%
X35100000Y-28150000D03*
%TO.N,/FPGA/LIN1.A17*%
X29286400Y-40670000D03*
X29674600Y-42297166D03*
%TO.N,/FPGA/LIN1.A3*%
X23274600Y-42297166D03*
X22736890Y-40234880D03*
%TO.N,/FPGA/LIN1.A11*%
X26474600Y-42297166D03*
%TO.N,/FPGA/LIN2.A4*%
X31800000Y-59175000D03*
X31274600Y-47897166D03*
%TO.N,/FPGA/LIN2.A19*%
X24099600Y-52447166D03*
X24074600Y-49497166D03*
%TO.N,/FPGA/LIN2.A7*%
X31274600Y-49497166D03*
X30575000Y-57150000D03*
%TO.N,/FPGA/LIN2.A21*%
X23274600Y-50297166D03*
X22798630Y-52267568D03*
%TO.N,/FPGA/LIN2.A16*%
X25674600Y-51097166D03*
X25825000Y-59550000D03*
%TO.N,/FPGA/LIN2.A13*%
X28874600Y-50297166D03*
X27303200Y-56500000D03*
%TO.N,/FPGA/LIN2.A15*%
X26875000Y-59200000D03*
X27274600Y-50297166D03*
%TO.N,/FPGA/LIN2.A20*%
X24074600Y-50297166D03*
X23574600Y-52097166D03*
%TO.N,/FPGA/LIN2.A1*%
X31274600Y-46297166D03*
X33235284Y-57185284D03*
%TO.N,/FPGA/LIN1.A21*%
X31244428Y-40507258D03*
X31274600Y-42297166D03*
%TO.N,/FPGA/LIN1.A24*%
X32760000Y-39120000D03*
X32080000Y-43910000D03*
%TO.N,/FPGA/LIN1.A14*%
X26630000Y-37320000D03*
X28060000Y-41490000D03*
%TO.N,/FPGA/LIN1.A23*%
X31340000Y-36630000D03*
X31274600Y-43097166D03*
%TO.N,/FPGA/LIN1.A7*%
X24874600Y-42297166D03*
X24590000Y-37030000D03*
%TO.N,/FPGA/LIN2.A18*%
X25025001Y-57200000D03*
X24874600Y-49497166D03*
%TO.N,/FPGA/LIN1.A19*%
X29897143Y-37371690D03*
X30436400Y-42297166D03*
%TO.N,/FPGA/LIN1.A9*%
X25674600Y-42297166D03*
X25470000Y-40310000D03*
%TO.N,/FPGA/LIN2.A22*%
X22474600Y-50297166D03*
X23475000Y-59175000D03*
%TO.N,/FPGA/LIN1.A5*%
X23278600Y-37351836D03*
X24074600Y-42297166D03*
%TO.N,/FPGA/LIN1.A20*%
X31800000Y-40830000D03*
X30290000Y-36930000D03*
%TO.N,/FPGA/LIN1.A22*%
X32470000Y-39820000D03*
X31580000Y-37330000D03*
%TO.N,/FPGA/LIN1.A16*%
X29310000Y-37290000D03*
X29690000Y-41490000D03*
%TO.N,/FPGA/LIN2.A9*%
X29400000Y-59175000D03*
X31274600Y-48697166D03*
%TO.N,/FPGA/LIN2.A17*%
X25050000Y-59475000D03*
X25674602Y-50297166D03*
%TO.N,/FPGA/LIN2.A11*%
X28150000Y-56175000D03*
X29674600Y-49497166D03*
%TO.N,/FPGA/LIN1.A13*%
X27274600Y-42297166D03*
%TO.N,/ADC/ADC_TX*%
X30174600Y-51972166D03*
X30474600Y-49497166D03*
%TO.N,/FPGA/PTHRES*%
X27700000Y-52440000D03*
X27274600Y-51097166D03*
X25674600Y-49497166D03*
%TO.N,/Audio output/AUDR*%
X28874600Y-43097166D03*
X30490000Y-39460000D03*
%TO.N,/Audio output/AUDL*%
X28874600Y-43897166D03*
X29070000Y-39430000D03*
%TO.N,/Audio output/AUDINT*%
X29677861Y-43036034D03*
X24850000Y-27300000D03*
%TO.N,/ADC/AUD_IN_BIAS*%
X27775000Y-25950000D03*
X28175000Y-27350000D03*
%TO.N,+3.3VA*%
X24874600Y-48697166D03*
X24874600Y-43897166D03*
X28874600Y-48697166D03*
D40*
X19500000Y-51250000D03*
X29655000Y-43917434D03*
D39*
%TO.N,+2V5*%
X28074600Y-49497164D03*
D40*
X28075000Y-52925000D03*
X32325002Y-24050000D03*
%TO.N,+5V*%
X18420000Y-31950000D03*
X18425000Y-60475000D03*
X23875000Y-69975000D03*
X22777760Y-68298704D03*
D39*
%TO.N,/FPGA/OSC_CLOCK*%
X32080000Y-45500000D03*
X28850000Y-67800000D03*
%TO.N,/Audio output/AUD_IN_AMP*%
X31270000Y-27960000D03*
X31425000Y-59850000D03*
X33621734Y-43997166D03*
%TO.N,Net-(U2-IN2-)*%
X23625109Y-31620000D03*
X24860000Y-30040000D03*
%TO.N,Net-(U4-NSTATUS)*%
X24874600Y-43097166D03*
X21810000Y-42740000D03*
%TO.N,Net-(U4-CONF_DONE)*%
X21104699Y-38500000D03*
X25674600Y-43097166D03*
%TO.N,/Audio output/AUD_INT_OUT*%
X31655135Y-24724567D03*
%TO.N,Net-(U2-IN3-)*%
X29500002Y-30650000D03*
X32700000Y-29679998D03*
%TO.N,/ADC/AUD_VBIAS*%
X30867612Y-55659269D03*
X35051363Y-33348637D03*
X33850000Y-30650000D03*
X33010000Y-25150000D03*
X37900000Y-57210000D03*
%TO.N,Net-(U2-IN1-)*%
X25600000Y-26850000D03*
X23500000Y-25975000D03*
%TO.N,Net-(C9-Pad1)*%
X28600000Y-29775000D03*
X31490000Y-39460000D03*
%TO.N,/FPGA/TMS*%
X19225000Y-23525000D03*
X22474600Y-46297166D03*
%TO.N,/FPGA/TCK*%
X18210000Y-45500000D03*
X19350000Y-45800000D03*
X23274600Y-46297166D03*
D40*
%TO.N,+3.3V*%
X19450000Y-40950000D03*
X27875000Y-36975000D03*
X18100000Y-50200000D03*
X19350000Y-36000000D03*
X33739528Y-70960472D03*
X18650000Y-26100000D03*
D39*
X24074600Y-46297166D03*
X30474600Y-45497166D03*
D40*
X37075000Y-67200000D03*
D39*
X27274600Y-43097166D03*
X24074600Y-47897166D03*
D40*
X25350000Y-69875000D03*
X25550000Y-55790000D03*
X23920000Y-54150000D03*
D39*
X27274600Y-44697166D03*
%TO.N,/FPGA/TDI*%
X25674600Y-45497166D03*
%TO.N,/Level shifter/LOUT1.B22*%
X35685995Y-35482386D03*
D40*
%TO.N,GND*%
X33950000Y-69275000D03*
X31620000Y-54800000D03*
X24400000Y-33950000D03*
X21650000Y-25800000D03*
%TO.N,+5V*%
X25300000Y-68725000D03*
%TO.N,GND*%
X28500000Y-33700000D03*
X21600000Y-33700000D03*
X29100000Y-56125000D03*
X27280000Y-46300000D03*
D39*
X32074600Y-41497166D03*
D40*
X30674999Y-64915315D03*
X18100000Y-56600000D03*
X33082185Y-26184534D03*
D39*
X22474600Y-51097166D03*
D40*
X33250000Y-62775000D03*
X31327237Y-53830712D03*
X19335000Y-33450000D03*
X26250000Y-65100000D03*
X23920000Y-37150000D03*
X27025000Y-60050000D03*
X25490000Y-54140000D03*
X18500000Y-26910000D03*
X20750000Y-30800000D03*
X23930000Y-55780000D03*
X30460000Y-44700000D03*
X28791200Y-37000000D03*
X19325000Y-43750000D03*
D39*
X26474600Y-50297166D03*
D40*
X28450000Y-20800000D03*
D39*
X22474600Y-41497166D03*
D40*
X30625000Y-59350000D03*
X19350000Y-48675000D03*
D39*
X25674600Y-43897166D03*
X24874600Y-47897166D03*
D40*
X37050000Y-70950000D03*
X24440000Y-29100000D03*
D39*
X28874600Y-49497166D03*
X28074600Y-42297166D03*
X31274600Y-47097166D03*
X24070000Y-43100000D03*
X24074600Y-45497166D03*
D40*
X26725000Y-28552200D03*
X18800000Y-61950000D03*
D39*
%TO.N,Net-(U2-IN+)*%
X23500715Y-27012334D03*
X26100000Y-27950000D03*
%TO.N,Net-(U2-OUT2)*%
X26690000Y-30820000D03*
X35370000Y-23210000D03*
%TO.N,/Audio output/AUDLOUT*%
X37559606Y-26129057D03*
%TO.N,Net-(C12-Pad1)*%
X23720000Y-30810000D03*
X28110002Y-39440000D03*
%TO.N,Net-(C28-Pad1)*%
X31390000Y-30599998D03*
X31050000Y-29140000D03*
%TO.N,/FPGA/TDO*%
X26474600Y-45497166D03*
%TD*%
%TO.N,/ADC/ADC_RX*%
D41*
X31880000Y-52420000D02*
X31700000Y-52600000D01*
X31700000Y-52600000D02*
X31700000Y-53231824D01*
X32484800Y-51285200D02*
X31880000Y-51890000D01*
X32484800Y-50924800D02*
X32484800Y-51285200D01*
X31880000Y-51890000D02*
X31880000Y-52420000D01*
X32065604Y-50505604D02*
X32484800Y-50924800D01*
X32065604Y-50317434D02*
X32065604Y-50505604D01*
%TO.N,/FPGA/LIN2.A8*%
X30337007Y-56740000D02*
X29824999Y-57252008D01*
X29824999Y-57252008D02*
X29824999Y-58204800D01*
X31600000Y-56740000D02*
X30337007Y-56740000D01*
X32630000Y-55710000D02*
X31600000Y-56740000D01*
X32630000Y-54240000D02*
X32630000Y-55710000D01*
X32640000Y-54230000D02*
X32630000Y-54240000D01*
%TO.N,/FPGA/LIN2.A6*%
X31024999Y-57615001D02*
X31024999Y-58204800D01*
X31800000Y-57030000D02*
X31610000Y-57030000D01*
X31800000Y-57020000D02*
X31800000Y-57030000D01*
X33150000Y-55490000D02*
X33150000Y-55670000D01*
X33340000Y-52705000D02*
X33155000Y-52890000D01*
X33340000Y-50690000D02*
X33340000Y-52705000D01*
X33155000Y-52890000D02*
X33155000Y-55485000D01*
X33150000Y-55670000D02*
X31800000Y-57020000D01*
X33155000Y-50505000D02*
X33340000Y-50690000D01*
X33155000Y-49385000D02*
X33155000Y-50505000D01*
X33155000Y-55485000D02*
X33150000Y-55490000D01*
X32487434Y-48717434D02*
X33155000Y-49385000D01*
X31610000Y-57030000D02*
X31024999Y-57615001D01*
X32080000Y-48717434D02*
X32487434Y-48717434D01*
%TO.N,/FPGA/LIN2.A5*%
X31425001Y-57654999D02*
X31425001Y-58204800D01*
X31740000Y-57340000D02*
X31425001Y-57654999D01*
X33450000Y-55850000D02*
X31960000Y-57340000D01*
X31960000Y-57340000D02*
X31740000Y-57340000D01*
X33450000Y-55740000D02*
X33450000Y-55850000D01*
X33455000Y-55735000D02*
X33450000Y-55740000D01*
X33730000Y-53605000D02*
X33455000Y-53880000D01*
X33730000Y-50670000D02*
X33730000Y-53605000D01*
X33455000Y-50395000D02*
X33730000Y-50670000D01*
X33455000Y-48875000D02*
X33455000Y-50395000D01*
X32497434Y-47917434D02*
X33455000Y-48875000D01*
X33455000Y-53880000D02*
X33455000Y-55735000D01*
X32080000Y-47917434D02*
X32497434Y-47917434D01*
%TO.N,/FPGA/LIN2.A3*%
X32697434Y-47117434D02*
X32080000Y-47117434D01*
X33125608Y-47545608D02*
X32697434Y-47117434D01*
X33125608Y-47914392D02*
X33125608Y-47545608D01*
X33765000Y-48553783D02*
X33125608Y-47914392D01*
X33765000Y-50245000D02*
X33765000Y-48553783D01*
X34100000Y-50580000D02*
X33765000Y-50245000D01*
X34100000Y-53795000D02*
X34100000Y-50580000D01*
X33765000Y-56050000D02*
X33765000Y-54130000D01*
X32224999Y-57590001D02*
X33765000Y-56050000D01*
X32224999Y-58204800D02*
X32224999Y-57590001D01*
X33765000Y-54130000D02*
X34100000Y-53795000D01*
%TO.N,/FPGA/LIN2.A1*%
X33025000Y-58204800D02*
X33025000Y-57395568D01*
X33025000Y-57395568D02*
X33235284Y-57185284D01*
%TO.N,/FPGA/LIN2.A10*%
X29040000Y-55320000D02*
X29040000Y-55050000D01*
X29610000Y-55890000D02*
X29040000Y-55320000D01*
X29610000Y-56390000D02*
X29610000Y-55890000D01*
X29025001Y-56974999D02*
X29610000Y-56390000D01*
X29025001Y-58204800D02*
X29025001Y-56974999D01*
%TO.N,/ADC/ADC_TX*%
X30120000Y-51992600D02*
X30193800Y-51918800D01*
X30120000Y-53530000D02*
X30120000Y-51992600D01*
X30700000Y-54110000D02*
X30120000Y-53530000D01*
X30700000Y-54246824D02*
X30700000Y-54110000D01*
%TO.N,/FPGA/LIN2.A2*%
X32747166Y-46297166D02*
X32074600Y-46297166D01*
X33595000Y-47145000D02*
X32747166Y-46297166D01*
X33595000Y-47745000D02*
X33595000Y-47145000D01*
X34120000Y-48270000D02*
X33595000Y-47745000D01*
X34120000Y-50213312D02*
X34120000Y-48270000D01*
X35076688Y-51170000D02*
X34120000Y-50213312D01*
X35410000Y-51170000D02*
X35076688Y-51170000D01*
X36140000Y-51900000D02*
X35410000Y-51170000D01*
X35210000Y-53870000D02*
X36140000Y-52940000D01*
X36140000Y-52940000D02*
X36140000Y-51900000D01*
X34065000Y-54385000D02*
X34580000Y-53870000D01*
X34580000Y-53870000D02*
X35210000Y-53870000D01*
X34065000Y-56405000D02*
X34065000Y-54385000D01*
X33800000Y-58831876D02*
X33800000Y-56670000D01*
X33800000Y-56670000D02*
X34065000Y-56405000D01*
X32676798Y-58993200D02*
X33638676Y-58993200D01*
X33638676Y-58993200D02*
X33800000Y-58831876D01*
X32624998Y-58941400D02*
X32676798Y-58993200D01*
X32624998Y-58204800D02*
X32624998Y-58941400D01*
%TO.N,/Level shifter/LOUT2.B6*%
X34135400Y-56954600D02*
X35010000Y-56080000D01*
X35010000Y-56080000D02*
X35010000Y-54970000D01*
X34135400Y-57030000D02*
X34135400Y-56954600D01*
X34135400Y-57030000D02*
X34135400Y-58891606D01*
%TO.N,Net-(U4-BB$19)*%
X32207434Y-49390000D02*
X32080000Y-49517434D01*
X32460000Y-49390000D02*
X32207434Y-49390000D01*
X32850000Y-50700000D02*
X32850000Y-49780000D01*
X32980000Y-50830000D02*
X32850000Y-50700000D01*
X32850000Y-49780000D02*
X32460000Y-49390000D01*
X32640000Y-52200000D02*
X32980000Y-51860000D01*
X32640000Y-53210000D02*
X32640000Y-52200000D01*
X32980000Y-51860000D02*
X32980000Y-50830000D01*
%TO.N,/Level shifter/LOUT1.B20*%
X36235000Y-44510000D02*
X35885000Y-44160000D01*
X36235000Y-45175000D02*
X36235000Y-44510000D01*
%TO.N,/Level shifter/LOUT1.B7*%
X35000000Y-48660000D02*
X35000000Y-49880000D01*
X34125400Y-47785400D02*
X35000000Y-48660000D01*
X34125400Y-46625400D02*
X34125400Y-47785400D01*
X32790000Y-45290000D02*
X34125400Y-46625400D01*
X32790000Y-43540000D02*
X32790000Y-45290000D01*
X33000000Y-43330000D02*
X32790000Y-43540000D01*
X33000000Y-39485567D02*
X33000000Y-43330000D01*
X33188200Y-38942633D02*
X33188200Y-39297367D01*
X33188200Y-39297367D02*
X33000000Y-39485567D01*
X33000000Y-37477901D02*
X33000000Y-38754433D01*
X31678899Y-36156800D02*
X33000000Y-37477901D01*
X27788726Y-36241800D02*
X27873726Y-36156800D01*
X33000000Y-38754433D02*
X33188200Y-38942633D01*
X26661274Y-36241800D02*
X27788726Y-36241800D01*
X25200001Y-34780527D02*
X26661274Y-36241800D01*
X27873726Y-36156800D02*
X31678899Y-36156800D01*
X25200001Y-32600000D02*
X25200001Y-34780527D01*
%TO.N,/ADC/AUD_IN*%
X36784551Y-36935200D02*
X37150000Y-37300649D01*
X36743286Y-36935200D02*
X36784551Y-36935200D01*
X36114800Y-36306714D02*
X36743286Y-36935200D01*
X36114800Y-34541488D02*
X36114800Y-36306714D01*
X35350149Y-33776837D02*
X36114800Y-34541488D01*
%TO.N,/Level shifter/LOUT1.B21*%
X37150000Y-42500864D02*
X37150000Y-43550000D01*
X36095800Y-41446664D02*
X37150000Y-42500864D01*
X36166400Y-40502736D02*
X36095800Y-40573336D01*
X36166400Y-38977264D02*
X36166400Y-40502736D01*
X36095800Y-38906664D02*
X36166400Y-38977264D01*
X36240000Y-37889136D02*
X36095800Y-38033336D01*
%TO.N,/ADC/AUD_IN*%
X33972159Y-32875000D02*
X34873996Y-33776837D01*
%TO.N,/Level shifter/LOUT1.B21*%
X36095800Y-38033336D02*
X36095800Y-38906664D01*
X36240000Y-36801590D02*
X36240000Y-37889136D01*
X35830000Y-36190000D02*
X35830000Y-36391590D01*
%TO.N,/ADC/AUD_IN*%
X33625000Y-32875000D02*
X33972159Y-32875000D01*
X34873996Y-33776837D02*
X35350149Y-33776837D01*
%TO.N,/Level shifter/LOUT1.B21*%
X35570000Y-35930000D02*
X35830000Y-36190000D01*
%TO.N,/ADC/AUD_IN*%
X37150000Y-37300649D02*
X37150000Y-38470000D01*
%TO.N,/Level shifter/LOUT1.B21*%
X36095800Y-40573336D02*
X36095800Y-41446664D01*
X34634868Y-35930000D02*
X35570000Y-35930000D01*
X34395600Y-35690732D02*
X34634868Y-35930000D01*
X32940725Y-34200000D02*
X34395600Y-35654875D01*
X35830000Y-36391590D02*
X36240000Y-36801590D01*
X31199999Y-33580857D02*
X31819142Y-34200000D01*
X34395600Y-35654875D02*
X34395600Y-35690732D01*
X31199999Y-32600000D02*
X31199999Y-33580857D01*
X31819142Y-34200000D02*
X32940725Y-34200000D01*
%TO.N,GND*%
D42*
X18390000Y-26910000D02*
X18500000Y-26910000D01*
X18250000Y-28075000D02*
X18250000Y-27050000D01*
X18250000Y-27050000D02*
X18390000Y-26910000D01*
%TO.N,/Level shifter/LOUT1.B2*%
D41*
X19760000Y-28235446D02*
X19760000Y-27020000D01*
X20659476Y-30070524D02*
X20659476Y-29134922D01*
X20280000Y-30450000D02*
X20659476Y-30070524D01*
X21070000Y-31760000D02*
X20280000Y-30970000D01*
X22656302Y-31760000D02*
X21070000Y-31760000D01*
X20280000Y-30970000D02*
X20280000Y-30450000D01*
X22800001Y-31903699D02*
X22656302Y-31760000D01*
X20659476Y-29134922D02*
X19760000Y-28235446D01*
X22800001Y-32549200D02*
X22800001Y-31903699D01*
%TO.N,/ADC/AUD_IN*%
X37900000Y-37720000D02*
X37150000Y-38470000D01*
X37900000Y-36880000D02*
X37900000Y-37720000D01*
X38135200Y-36644800D02*
X37900000Y-36880000D01*
X38037500Y-24912500D02*
X38037500Y-29767100D01*
X37822500Y-24697500D02*
X38037500Y-24912500D01*
X38037500Y-29767100D02*
X38135200Y-29864800D01*
X37822500Y-23197500D02*
X37822500Y-24697500D01*
X37020000Y-22395000D02*
X37822500Y-23197500D01*
X37010000Y-22395000D02*
X37020000Y-22395000D01*
X38135200Y-29864800D02*
X38135200Y-36644800D01*
X36970000Y-22435000D02*
X37010000Y-22395000D01*
%TO.N,/Audio output/AUDLOUT*%
X37559606Y-25994606D02*
X37559606Y-26129057D01*
X36960000Y-25395000D02*
X37559606Y-25994606D01*
%TO.N,/ADC/AUD_IN*%
X37150000Y-38470000D02*
X37500000Y-38470000D01*
%TO.N,/ADC/AUD_IN_BIAS*%
X34125000Y-23400000D02*
X33525000Y-24000000D01*
X33525000Y-24000000D02*
X33525000Y-24100000D01*
X34125000Y-21150000D02*
X34125000Y-23400000D01*
X34475000Y-20800000D02*
X34125000Y-21150000D01*
X36930000Y-20800000D02*
X34475000Y-20800000D01*
X36970000Y-20840000D02*
X36930000Y-20800000D01*
X36970000Y-20885000D02*
X36970000Y-20840000D01*
%TO.N,Net-(U2-OUT2)*%
X35960000Y-23800000D02*
X36915000Y-23800000D01*
X35370000Y-23210000D02*
X35960000Y-23800000D01*
X36915000Y-23800000D02*
X36960000Y-23845000D01*
%TO.N,Net-(U2-OUT3)*%
X36079056Y-25940000D02*
X36939056Y-26800000D01*
X33550000Y-26980000D02*
X34590000Y-25940000D01*
X33220000Y-28320000D02*
X33550000Y-27990000D01*
X33550000Y-27990000D02*
X33550000Y-26980000D01*
X33220000Y-29977988D02*
X33220000Y-28320000D01*
X34590000Y-25940000D02*
X36079056Y-25940000D01*
X32360000Y-30690000D02*
X32507988Y-30690000D01*
X32507988Y-30690000D02*
X33220000Y-29977988D01*
X32350000Y-30680000D02*
X32360000Y-30690000D01*
X32350000Y-30600000D02*
X32350000Y-30680000D01*
X27099999Y-30403420D02*
X27099999Y-30000000D01*
X27406579Y-30710000D02*
X27099999Y-30403420D01*
X28340000Y-30710000D02*
X27406579Y-30710000D01*
X29771374Y-31155200D02*
X29075200Y-31155200D01*
X28900000Y-30980000D02*
X28610000Y-30980000D01*
X29831374Y-31095200D02*
X29771374Y-31155200D01*
X29075200Y-31155200D02*
X28900000Y-30980000D01*
X28610000Y-30980000D02*
X28340000Y-30710000D01*
X30074800Y-31095200D02*
X29831374Y-31095200D01*
X30520000Y-30650000D02*
X30074800Y-31095200D01*
X30074800Y-31095200D02*
X31854800Y-31095200D01*
X31854800Y-31095200D02*
X32350000Y-30600000D01*
%TO.N,/Level shifter/LOUT2.B24*%
X22625001Y-63826101D02*
X22625001Y-63945200D01*
X19760000Y-59355000D02*
X19760000Y-60961100D01*
X18292270Y-57887270D02*
X19760000Y-59355000D01*
X19760000Y-60961100D02*
X22625001Y-63826101D01*
X18150000Y-57887270D02*
X18292270Y-57887270D01*
%TO.N,+5V*%
D42*
X21370000Y-68570000D02*
X22270000Y-67670000D01*
X21370000Y-69078704D02*
X21370000Y-68570000D01*
X20969600Y-70510400D02*
X20969600Y-69479104D01*
X19310800Y-71180000D02*
X20300000Y-71180000D01*
X18760000Y-67240000D02*
X18760000Y-70629200D01*
X19170000Y-66030000D02*
X19170000Y-66830000D01*
X19170000Y-66830000D02*
X18760000Y-67240000D01*
X18330000Y-65190000D02*
X19170000Y-66030000D01*
X20300000Y-71180000D02*
X20969600Y-70510400D01*
X18330000Y-64685000D02*
X18330000Y-65190000D01*
X18760000Y-70629200D02*
X19310800Y-71180000D01*
X20969600Y-69479104D02*
X21370000Y-69078704D01*
X19760000Y-63109200D02*
X18419200Y-64450000D01*
X18419200Y-64450000D02*
X18150000Y-64450000D01*
X19760000Y-62580000D02*
X19760000Y-63109200D01*
X18615000Y-60475000D02*
X19760000Y-61620000D01*
X18425000Y-60475000D02*
X18615000Y-60475000D01*
X19760000Y-61620000D02*
X19760000Y-62580000D01*
%TO.N,/Audio output/AUD_IN_AMP*%
D41*
X30033800Y-61241200D02*
X31425000Y-59850000D01*
X30033800Y-61656200D02*
X30033800Y-61241200D01*
X28624999Y-63065001D02*
X30033800Y-61656200D01*
X28624999Y-63945200D02*
X28624999Y-63065001D01*
%TO.N,GND*%
D42*
X23200000Y-70698704D02*
X23200000Y-69920000D01*
X22270000Y-69440000D02*
X21740000Y-69970000D01*
X22270000Y-69220000D02*
X22270000Y-69440000D01*
X22451296Y-69038704D02*
X22270000Y-69220000D01*
X23625000Y-69038704D02*
X22451296Y-69038704D01*
%TO.N,+5V*%
X22777760Y-68177760D02*
X22270000Y-67670000D01*
X22777760Y-68298704D02*
X22777760Y-68177760D01*
%TO.N,/Level shifter/LOUT2.B21*%
D41*
X20879800Y-68419800D02*
X19760000Y-69539600D01*
X20879800Y-67390200D02*
X20879800Y-68419800D01*
X19760000Y-69539600D02*
X19760000Y-70200000D01*
X22729800Y-66569800D02*
X21700200Y-66569800D01*
X23825001Y-65474599D02*
X22729800Y-66569800D01*
X23825001Y-63945200D02*
X23825001Y-65474599D01*
X21700200Y-66569800D02*
X20879800Y-67390200D01*
%TO.N,/Level shifter/LOUT2.B22*%
X19770000Y-67100000D02*
X19770000Y-67670000D01*
X20850000Y-66020000D02*
X19770000Y-67100000D01*
X22460000Y-66020000D02*
X20850000Y-66020000D01*
X23425002Y-64681800D02*
X23425002Y-65054998D01*
X23425002Y-65054998D02*
X22460000Y-66020000D01*
%TO.N,GND*%
D42*
X26050000Y-39440000D02*
X26050000Y-40790000D01*
%TO.N,/FPGA/LIN1.A11*%
D41*
X25740000Y-36690000D02*
X25310000Y-36690000D01*
X26204945Y-37154945D02*
X25740000Y-36690000D01*
X26204945Y-37475055D02*
X26204945Y-37154945D01*
X26400001Y-37670112D02*
X26204945Y-37475055D01*
X26400001Y-38289600D02*
X26400001Y-37670112D01*
%TO.N,/FPGA/LIN1.A10*%
X25663900Y-37310000D02*
X25260000Y-37310000D01*
X25999999Y-37646099D02*
X25663900Y-37310000D01*
X25999999Y-38289600D02*
X25999999Y-37646099D01*
X26448153Y-41497166D02*
X26474600Y-41497166D01*
%TO.N,/FPGA/LIN1.A7*%
X24799999Y-37239999D02*
X24590000Y-37030000D01*
X24799999Y-38289600D02*
X24799999Y-37239999D01*
%TO.N,GND*%
D42*
X24400000Y-37630000D02*
X23920000Y-37150000D01*
X24400000Y-38238800D02*
X24400000Y-37630000D01*
%TO.N,/FPGA/LIN1.A5*%
D41*
X23398835Y-37351836D02*
X23278600Y-37351836D01*
X23599999Y-38289600D02*
X23599999Y-37553000D01*
X23599999Y-37553000D02*
X23398835Y-37351836D01*
%TO.N,/FPGA/LIN1.A12*%
X27274600Y-40994600D02*
X27274600Y-41497166D01*
X26530000Y-39100000D02*
X26530000Y-40250000D01*
X26800000Y-38830000D02*
X26530000Y-39100000D01*
X26530000Y-40250000D02*
X27274600Y-40994600D01*
X26800000Y-38289600D02*
X26800000Y-38830000D01*
%TO.N,Net-(C12-Pad1)*%
X28110002Y-39440000D02*
X28110000Y-39440000D01*
%TO.N,/FPGA/LIN1.A15*%
X28620000Y-40877254D02*
X28874600Y-41131854D01*
X28400000Y-38839000D02*
X28620000Y-39059000D01*
X28874600Y-41131854D02*
X28874600Y-41497166D01*
X28400000Y-38289600D02*
X28400000Y-38839000D01*
%TO.N,GND*%
D42*
X28799999Y-37008799D02*
X28791200Y-37000000D01*
X28799999Y-38209333D02*
X28799999Y-37008799D01*
X28814733Y-38224067D02*
X28799999Y-38209333D01*
%TO.N,/FPGA/LIN1.A15*%
D41*
X28620000Y-39059000D02*
X28620000Y-40877254D01*
%TO.N,/FPGA/LIN1.A17*%
X29600000Y-40356400D02*
X29286400Y-40670000D01*
X29600000Y-38289600D02*
X29600000Y-40356400D01*
%TO.N,/FPGA/LIN1.A18*%
X29861400Y-40883966D02*
X30474600Y-41497166D01*
X29861400Y-39828600D02*
X29861400Y-40883966D01*
X29989999Y-39700001D02*
X29861400Y-39828600D01*
X29989999Y-39467437D02*
X29989999Y-39700001D01*
%TO.N,/FPGA/LIN1.A13*%
X27200000Y-38850000D02*
X27200000Y-38289600D01*
X27484800Y-39134800D02*
X27200000Y-38850000D01*
X27484800Y-40157366D02*
X27484800Y-39134800D01*
X27674600Y-40347166D02*
X27484800Y-40157366D01*
%TO.N,/FPGA/LIN1.A8*%
X25207919Y-38246718D02*
X25200001Y-38238800D01*
X24920000Y-40049293D02*
X25207919Y-39761374D01*
X24920000Y-40540000D02*
X24920000Y-40049293D01*
X25674600Y-41294600D02*
X24920000Y-40540000D01*
X25674600Y-41497166D02*
X25674600Y-41294600D01*
X25207919Y-39761374D02*
X25207919Y-38246718D01*
%TO.N,/FPGA/LIN1.A9*%
X25500000Y-40280000D02*
X25470000Y-40310000D01*
X25600000Y-38840000D02*
X25500000Y-38940000D01*
X25500000Y-38940000D02*
X25500000Y-40280000D01*
X25600000Y-38289600D02*
X25600000Y-38840000D01*
X25550000Y-40230000D02*
X25470000Y-40310000D01*
%TO.N,Net-(U4-T$6)*%
X24460000Y-39732719D02*
X24752719Y-39440000D01*
X24460000Y-40660000D02*
X24460000Y-39732719D01*
X24874600Y-41074600D02*
X24460000Y-40660000D01*
X24874600Y-41497166D02*
X24874600Y-41074600D01*
%TO.N,/FPGA/TCK*%
X19050000Y-45500000D02*
X18210000Y-45500000D01*
X19350000Y-45800000D02*
X19050000Y-45500000D01*
%TO.N,/Level shifter/LOUT2.B14*%
X20658200Y-54108200D02*
X20658200Y-51725000D01*
X20960000Y-54410000D02*
X20658200Y-54108200D01*
X21355999Y-59230999D02*
X21356000Y-57080178D01*
X21356000Y-57080178D02*
X20960000Y-56684178D01*
X21852500Y-59952500D02*
X21852500Y-59727500D01*
X23090000Y-61190000D02*
X21852500Y-59952500D01*
X20960000Y-56684178D02*
X20960000Y-54410000D01*
X25560000Y-61190000D02*
X23090000Y-61190000D01*
X27024999Y-62654999D02*
X25560000Y-61190000D01*
X21852500Y-59727500D02*
X21355999Y-59230999D01*
X27024999Y-63945200D02*
X27024999Y-62654999D01*
%TO.N,/Level shifter/LOUT2.B12*%
X21184015Y-48836449D02*
X21184015Y-44886366D01*
X21247599Y-48900033D02*
X21184015Y-48836449D01*
X21247599Y-52701250D02*
X21247599Y-48900033D01*
X21579457Y-54000746D02*
X21390000Y-53811289D01*
X21390000Y-52843651D02*
X21247599Y-52701250D01*
X21914800Y-58924800D02*
X21914800Y-56845886D01*
X23330000Y-60340000D02*
X21914800Y-58924800D01*
X25750000Y-60340000D02*
X23330000Y-60340000D01*
X21579457Y-56510543D02*
X21579457Y-54000746D01*
X21390000Y-53811289D02*
X21390000Y-52843651D01*
X27825000Y-62415000D02*
X25750000Y-60340000D01*
X21914800Y-56845886D02*
X21579457Y-56510543D01*
X27825000Y-63945200D02*
X27825000Y-62415000D01*
%TO.N,/Level shifter/LOUT2.B11*%
X21601400Y-48819539D02*
X21601400Y-48753503D01*
X21930000Y-48424904D02*
X21930000Y-45117434D01*
X21526999Y-48893941D02*
X21601400Y-48819539D01*
X21601400Y-48753503D02*
X21930000Y-48424904D01*
X21526999Y-52437377D02*
X21526999Y-48893941D01*
X21779111Y-52689489D02*
X21526999Y-52437377D01*
X21779111Y-53649111D02*
X21779111Y-52689489D01*
X22194200Y-56728745D02*
X21857728Y-56392272D01*
X21857728Y-53727728D02*
X21779111Y-53649111D01*
X22194200Y-58764200D02*
X22194200Y-56728745D01*
X23416800Y-59986800D02*
X22194200Y-58764200D01*
X25916800Y-59986800D02*
X23416800Y-59986800D01*
X28225000Y-62295000D02*
X25916800Y-59986800D01*
X21857728Y-56392272D02*
X21857728Y-53727728D01*
X28225000Y-63945200D02*
X28225000Y-62295000D01*
%TO.N,/Level shifter/LOUT2.B15*%
X26625000Y-62935000D02*
X26625000Y-63945200D01*
X23136400Y-61856400D02*
X25546400Y-61856400D01*
X21440000Y-60160000D02*
X23136400Y-61856400D01*
X20960000Y-59225593D02*
X21440000Y-59705593D01*
X20650000Y-54570000D02*
X20650000Y-56772138D01*
X21440000Y-59705593D02*
X21440000Y-60160000D01*
X25546400Y-61856400D02*
X26625000Y-62935000D01*
X19760000Y-53680000D02*
X20650000Y-54570000D01*
X20960000Y-57082138D02*
X20960000Y-59225593D01*
X20650000Y-56772138D02*
X20960000Y-57082138D01*
X19760000Y-52420000D02*
X19760000Y-53680000D01*
%TO.N,/Level shifter/LOUT2.B13*%
X27425001Y-62529869D02*
X27425001Y-63945200D01*
X23260132Y-60740000D02*
X25635132Y-60740000D01*
X21635400Y-59115268D02*
X23260132Y-60740000D01*
X21635400Y-56961618D02*
X21635400Y-59115268D01*
X21335872Y-56662090D02*
X21635400Y-56961618D01*
X25635132Y-60740000D02*
X27425001Y-62529869D01*
%TO.N,/Level shifter/LOUT2.B17*%
X25425000Y-62808601D02*
X25425000Y-63945200D01*
X22613200Y-62613200D02*
X25229599Y-62613200D01*
X20710000Y-60710000D02*
X22613200Y-62613200D01*
X25229599Y-62613200D02*
X25425000Y-62808601D01*
X20216365Y-59273635D02*
X20710000Y-59767270D01*
X20216365Y-58936365D02*
X20216365Y-59273635D01*
X19760000Y-58480000D02*
X20216365Y-58936365D01*
X20710000Y-59767270D02*
X20710000Y-60710000D01*
X19760000Y-57500000D02*
X19760000Y-58480000D01*
%TO.N,/Level shifter/LOUT2.B16*%
X25824999Y-62697959D02*
X25824999Y-63945200D01*
X22876476Y-62216800D02*
X25343840Y-62216800D01*
X21100000Y-59760724D02*
X21100000Y-60440324D01*
X21100000Y-60440324D02*
X22876476Y-62216800D01*
X20640000Y-59300724D02*
X21100000Y-59760724D01*
X20640000Y-57157270D02*
X20640000Y-59300724D01*
X20256365Y-56486365D02*
X20256365Y-56773635D01*
X25343840Y-62216800D02*
X25824999Y-62697959D01*
X19760000Y-55990000D02*
X20256365Y-56486365D01*
X20256365Y-56773635D02*
X20640000Y-57157270D01*
X19760000Y-54960000D02*
X19760000Y-55990000D01*
%TO.N,/Level shifter/LOUT2.B13*%
X19760000Y-45101985D02*
X19760000Y-44800000D01*
X20918015Y-48990000D02*
X20918015Y-46260000D01*
X20978198Y-53968198D02*
X20978198Y-49050183D01*
X20978198Y-49050183D02*
X20918015Y-48990000D01*
X21280000Y-54270000D02*
X20978198Y-53968198D01*
X21280000Y-56606221D02*
X21280000Y-54270000D01*
X21288983Y-56615204D02*
X21280000Y-56606221D01*
X20918015Y-46260000D02*
X19760000Y-45101985D01*
%TO.N,/FPGA/LIN2.A24*%
X22170294Y-56309706D02*
X22170294Y-53041783D01*
X22170294Y-53041783D02*
X22058511Y-52930000D01*
%TO.N,/FPGA/LIN2.A23*%
X22502859Y-52743459D02*
X22359400Y-52600000D01*
X22502859Y-56247141D02*
X22502859Y-52743459D01*
%TO.N,/Level shifter/LOUT2.B18*%
X20226974Y-51373026D02*
X20226974Y-50346974D01*
X20226974Y-50346974D02*
X19760000Y-49880000D01*
X20238001Y-51384053D02*
X20226974Y-51373026D01*
X20238001Y-51482986D02*
X20238001Y-51384053D01*
%TO.N,/Level shifter/LOUT1.B20*%
X36235000Y-45175000D02*
X37150000Y-46090000D01*
X35885000Y-41630995D02*
X35885000Y-44160000D01*
X35885000Y-40389004D02*
X35816400Y-40457605D01*
X35885000Y-39090995D02*
X35885000Y-40389004D01*
X35816400Y-39022396D02*
X35885000Y-39090995D01*
X35816400Y-37917605D02*
X35816400Y-39022396D01*
X35910000Y-37824005D02*
X35816400Y-37917605D01*
X35816400Y-41562396D02*
X35885000Y-41630995D01*
X35910000Y-36876688D02*
X35910000Y-37824005D01*
X34116201Y-35806464D02*
X34529737Y-36220000D01*
X31703411Y-34479400D02*
X32814794Y-34479400D01*
X30800000Y-33575990D02*
X31703411Y-34479400D01*
X30800000Y-32600000D02*
X30800000Y-33575990D01*
X34529737Y-36220000D02*
X35253312Y-36220000D01*
X32814794Y-34479400D02*
X34116200Y-35780806D01*
X35816400Y-40457605D02*
X35816400Y-41562396D01*
X35253312Y-36220000D02*
X35910000Y-36876688D01*
X34116200Y-35780806D02*
X34116201Y-35806464D01*
%TO.N,/Level shifter/LOUT2.B2*%
X33855132Y-60990000D02*
X32225000Y-62620132D01*
X35430000Y-60990000D02*
X33855132Y-60990000D01*
X32225000Y-62620132D02*
X32224999Y-63945200D01*
X37250000Y-59170000D02*
X35430000Y-60990000D01*
X37250000Y-58890000D02*
X37250000Y-59170000D01*
X37150000Y-58790000D02*
X37250000Y-58890000D01*
%TO.N,/FPGA/ADC_IN*%
X29750000Y-54075000D02*
X30060000Y-54385000D01*
X30060000Y-54385000D02*
X30060000Y-55515000D01*
X30295000Y-55750000D02*
X30295000Y-56066824D01*
X30060000Y-55515000D02*
X30295000Y-55750000D01*
%TO.N,+5VA*%
D42*
X23832400Y-27967600D02*
X24607600Y-27967600D01*
X18150000Y-31075000D02*
X18150000Y-29625000D01*
X23773019Y-27967600D02*
X23732279Y-28008340D01*
X24607600Y-27967600D02*
X24942200Y-28302200D01*
X23832400Y-27967600D02*
X23773019Y-27967600D01*
X23260000Y-28540000D02*
X23832400Y-27967600D01*
X24942200Y-28302200D02*
X25402199Y-28302200D01*
%TO.N,Net-(U2-IN4-)*%
D41*
X28778200Y-26868200D02*
X29670000Y-27760000D01*
X29670000Y-27738319D02*
X30128131Y-27280188D01*
X29670000Y-27760000D02*
X29670000Y-27738319D01*
X29670000Y-27760000D02*
X29670000Y-26870000D01*
X31580000Y-26270000D02*
X31580000Y-26830000D01*
X27600000Y-27104400D02*
X27836200Y-26868200D01*
X27836200Y-26868200D02*
X28778200Y-26868200D01*
%TO.N,/Level shifter/LOUT2.B7*%
X29824999Y-64621833D02*
X29191200Y-65255632D01*
X29462222Y-65908800D02*
X30081463Y-65908800D01*
X30290264Y-65700000D02*
X33197270Y-65700000D01*
X29191200Y-65637778D02*
X29462222Y-65908800D01*
X33197270Y-65700000D02*
X33856000Y-65041270D01*
X33856000Y-63724000D02*
X35000000Y-62580000D01*
X30081463Y-65908800D02*
X30290264Y-65700000D01*
X29824999Y-63945200D02*
X29824999Y-64621833D01*
X29191200Y-65255632D02*
X29191200Y-65637778D01*
X33856000Y-65041270D02*
X33856000Y-63724000D01*
%TO.N,/Level shifter/LOUT2.B4*%
X37250000Y-56350000D02*
X37150000Y-56250000D01*
X34135400Y-59889600D02*
X34135400Y-59681870D01*
X31400000Y-62625000D02*
X34135400Y-59889600D01*
X36650000Y-57167270D02*
X36650000Y-57100000D01*
X37250000Y-56500000D02*
X37250000Y-56350000D01*
X34135400Y-59681870D02*
X36650000Y-57167270D01*
X31400000Y-63920202D02*
X31400000Y-62625000D01*
X31424998Y-63945200D02*
X31400000Y-63920202D01*
X36650000Y-57100000D02*
X37250000Y-56500000D01*
%TO.N,/Level shifter/LOUT2.B8*%
X34580000Y-63870000D02*
X37150000Y-63870000D01*
X29425000Y-64533291D02*
X28863401Y-65094890D01*
X30197195Y-66188200D02*
X30405995Y-65979400D01*
X34135400Y-64314600D02*
X34580000Y-63870000D01*
X34135400Y-65464600D02*
X34135400Y-64314600D01*
X28863401Y-65094890D02*
X28863401Y-65705111D01*
X29346490Y-66188200D02*
X30197195Y-66188200D01*
X29425000Y-63945200D02*
X29425000Y-64533291D01*
X30405995Y-65979400D02*
X33620600Y-65979400D01*
X33620600Y-65979400D02*
X34135400Y-65464600D01*
X28863401Y-65705111D02*
X29346490Y-66188200D01*
%TO.N,/Level shifter/LOUT2.B20*%
X24225000Y-63945200D02*
X24225000Y-66800000D01*
X32542270Y-67125000D02*
X35000000Y-69582730D01*
X24225000Y-66800000D02*
X24550000Y-67125000D01*
X35000000Y-69582730D02*
X35000000Y-70200000D01*
X24550000Y-67125000D02*
X32542270Y-67125000D01*
%TO.N,/Level shifter/LOUT2.B5*%
X33856000Y-59744000D02*
X33856000Y-59566138D01*
X31025000Y-62575000D02*
X33856000Y-59744000D01*
X35000000Y-58422138D02*
X35000000Y-57500000D01*
X31024999Y-63945200D02*
X31025000Y-63945199D01*
X33856000Y-59566138D02*
X35000000Y-58422138D01*
X31025000Y-63945199D02*
X31025000Y-62575000D01*
%TO.N,/Level shifter/LOUT2.B19*%
X24624999Y-66474999D02*
X24900000Y-66750000D01*
X24900000Y-66750000D02*
X34090000Y-66750000D01*
X34090000Y-66750000D02*
X35000000Y-67660000D01*
X24624999Y-63945200D02*
X24624999Y-66474999D01*
%TO.N,/Level shifter/LOUT2.B23*%
X23025000Y-64681800D02*
X23025000Y-63945200D01*
X22586800Y-65120000D02*
X23025000Y-64681800D01*
X19760000Y-65120000D02*
X22586800Y-65120000D01*
%TO.N,/Level shifter/LOUT2.B9*%
X29025001Y-63945200D02*
X29025001Y-64536743D01*
X29025001Y-64536743D02*
X28583000Y-64978745D01*
X29232344Y-66470600D02*
X33649400Y-66470600D01*
X33649400Y-66470600D02*
X35000000Y-65120000D01*
X28583001Y-65821257D02*
X29232344Y-66470600D01*
X28583000Y-64978745D02*
X28583001Y-65821257D01*
%TO.N,/Level shifter/LOUT2.B22*%
X23425002Y-63945200D02*
X23425002Y-64681800D01*
%TO.N,/Level shifter/LOUT2.B14*%
X20646200Y-51654359D02*
X20648200Y-51652359D01*
X20648200Y-51652359D02*
X20648200Y-51787566D01*
X20648200Y-51787566D02*
X20648200Y-49265897D01*
X19760000Y-48305132D02*
X20648200Y-49193332D01*
X20648200Y-49193332D02*
X20648200Y-49265897D01*
X19760000Y-47340000D02*
X19760000Y-48305132D01*
%TO.N,/Level shifter/LOUT2.B3*%
X31825000Y-64681800D02*
X31148601Y-65358199D01*
X29758199Y-65358199D02*
X29750000Y-65350000D01*
X31825000Y-62625000D02*
X33879400Y-60570600D01*
X30399179Y-65358199D02*
X29758199Y-65358199D01*
X31825000Y-63945200D02*
X31825000Y-64681800D01*
X33879400Y-60570600D02*
X34469400Y-60570600D01*
X30950819Y-65358199D02*
X30885503Y-65423515D01*
X30464495Y-65423515D02*
X30399179Y-65358199D01*
X34469400Y-60570600D02*
X35000000Y-60040000D01*
X18150000Y-67300000D02*
X18150000Y-66100000D01*
X31148601Y-65358199D02*
X30950819Y-65358199D01*
X31825000Y-63945200D02*
X31825000Y-62625000D01*
X30885503Y-65423515D02*
X30464495Y-65423515D01*
%TO.N,/Level shifter/LOUT2.B6*%
X33576600Y-59598400D02*
X30200000Y-62975000D01*
X33576600Y-59450407D02*
X33576600Y-59598400D01*
X30200000Y-63920199D02*
X30225001Y-63945200D01*
X34135400Y-58891606D02*
X33576600Y-59450407D01*
X30200000Y-62975000D02*
X30200000Y-63920199D01*
%TO.N,/Level shifter/LOUT2.B18*%
X25150000Y-65150000D02*
X25025001Y-65025001D01*
X25025001Y-65025001D02*
X25025001Y-63945200D01*
%TO.N,/Level shifter/LOUT2.B1*%
X32624998Y-63945200D02*
X32625000Y-63945198D01*
X32625000Y-62615264D02*
X33910264Y-61330000D01*
X32625000Y-63945198D02*
X32625000Y-62615264D01*
X33910264Y-61330000D02*
X37150000Y-61330000D01*
%TO.N,/Level shifter/LOUT1.B18*%
X29999999Y-33567665D02*
X31471534Y-35039200D01*
X34128400Y-37822874D02*
X35000000Y-38694475D01*
X29999999Y-32600000D02*
X29999999Y-33567665D01*
X31471534Y-35039200D02*
X32482917Y-35039200D01*
X35000000Y-38694475D02*
X35000000Y-39720000D01*
X34128400Y-36684683D02*
X34128400Y-37822874D01*
X32482917Y-35039200D02*
X34128400Y-36684683D01*
%TO.N,/Level shifter/LOUT1.B16*%
X29200001Y-33875001D02*
X29375000Y-34050000D01*
X29200001Y-32600000D02*
X29200001Y-33875001D01*
%TO.N,/Level shifter/LOUT1.B17*%
X29600000Y-32600000D02*
X29600000Y-33590600D01*
X35000000Y-42260000D02*
X34063200Y-41323200D01*
X29600000Y-33590600D02*
X30821200Y-34811800D01*
X30821200Y-34811800D02*
X30849001Y-34811800D01*
X34063200Y-38152806D02*
X33849000Y-37938605D01*
X33849000Y-37938605D02*
X33849000Y-36826000D01*
X34063200Y-41323200D02*
X34063200Y-38152806D01*
X32343600Y-35318600D02*
X32400000Y-35375000D01*
X33849000Y-36826000D02*
X32400000Y-35377000D01*
X30849001Y-34811800D02*
X31355804Y-35318600D01*
X31355804Y-35318600D02*
X32343600Y-35318600D01*
%TO.N,/Level shifter/LOUT1.B9*%
X33711000Y-39513919D02*
X33568600Y-39656318D01*
X34118200Y-43918200D02*
X35000000Y-44800000D01*
X33568600Y-38583683D02*
X33711000Y-38726083D01*
X31910363Y-35598000D02*
X33568600Y-37256239D01*
X34118200Y-43918200D02*
X34118200Y-43485199D01*
X33711000Y-38726083D02*
X33711000Y-39513919D01*
X27557263Y-35683000D02*
X27642266Y-35597999D01*
X25999999Y-34790262D02*
X26892737Y-35683000D01*
X33558600Y-42925599D02*
X34118200Y-43485199D01*
X25999999Y-32600000D02*
X25999999Y-34790262D01*
X27642266Y-35597999D02*
X31910363Y-35598000D01*
X33568600Y-39656318D02*
X33568600Y-42863033D01*
X33568600Y-37256239D02*
X33568600Y-38583683D01*
X26892737Y-35683000D02*
X27557263Y-35683000D01*
%TO.N,/Level shifter/LOUT1.B1*%
X22400002Y-32549200D02*
X22400002Y-33649998D01*
X22400002Y-33649998D02*
X22150000Y-33900000D01*
%TO.N,/Level shifter/LOUT1.B3*%
X19760000Y-29560000D02*
X19760000Y-30847664D01*
X23200000Y-33650000D02*
X23200000Y-32600000D01*
X20630000Y-31717664D02*
X20630000Y-32020000D01*
X22379400Y-34470600D02*
X23200000Y-33650000D01*
X21620600Y-34470600D02*
X22379400Y-34470600D01*
X19760000Y-30847664D02*
X20630000Y-31717664D01*
X21150000Y-32540000D02*
X21150000Y-34000000D01*
X20630000Y-32020000D02*
X21150000Y-32540000D01*
X21150000Y-34000000D02*
X21620600Y-34470600D01*
%TO.N,/Level shifter/LOUT1.B6*%
X21450000Y-35550000D02*
X23596579Y-35550000D01*
X24857200Y-32657201D02*
X24857200Y-34289380D01*
X24799999Y-32600000D02*
X24857200Y-32657201D01*
X19760000Y-37180000D02*
X21390000Y-35550000D01*
X23596579Y-35550000D02*
X24850000Y-34296579D01*
X21390000Y-35550000D02*
X21450000Y-35550000D01*
%TO.N,/Level shifter/LOUT1.B10*%
X33640000Y-28600000D02*
X33640000Y-28380000D01*
X35000000Y-27020000D02*
X33962327Y-28057673D01*
X26400001Y-31812600D02*
X27032601Y-31180000D01*
X26400001Y-32549200D02*
X26400001Y-31812600D01*
X33640000Y-28380000D02*
X33962327Y-28057673D01*
X27032601Y-31180000D02*
X28110000Y-31180000D01*
%TO.N,/Level shifter/LOUT1.B11*%
X26800000Y-34063246D02*
X27668268Y-34931514D01*
X26800000Y-32600000D02*
X26800000Y-34063246D01*
%TO.N,/Level shifter/LOUT1.B14*%
X27942516Y-32657485D02*
X28000001Y-32600000D01*
X28838635Y-34406916D02*
X28758676Y-34326957D01*
X28880808Y-34406916D02*
X28838635Y-34406916D01*
X28758676Y-34326957D02*
X28210923Y-34326957D01*
X27942516Y-34058550D02*
X27942516Y-32657485D01*
X28210923Y-34326957D02*
X27942516Y-34058550D01*
%TO.N,/Level shifter/LOUT1.B23*%
X32000000Y-32600000D02*
X32000000Y-33590600D01*
X32050600Y-33641200D02*
X34001200Y-33641200D01*
X34001200Y-33641200D02*
X35000000Y-34640000D01*
X32000000Y-33590600D02*
X32050600Y-33641200D01*
%TO.N,/Level shifter/LOUT1.B4*%
X21350000Y-34750000D02*
X22600000Y-34750000D01*
X22600000Y-34750000D02*
X23600002Y-33749998D01*
X19760000Y-33160000D02*
X21350000Y-34750000D01*
X19760000Y-32100000D02*
X19760000Y-33160000D01*
X23600002Y-33749998D02*
X23600002Y-32600000D01*
%TO.N,/Level shifter/LOUT1.B8*%
X33279400Y-39575843D02*
X33279400Y-43681367D01*
X27757995Y-35877400D02*
X31794631Y-35877400D01*
X27672995Y-35962400D02*
X27757995Y-35877400D01*
X25600000Y-32600000D02*
X25600000Y-34785395D01*
X26777005Y-35962400D02*
X27672995Y-35962400D01*
X25600000Y-34785395D02*
X26777005Y-35962400D01*
X33449600Y-39405643D02*
X33279400Y-39575843D01*
X35000000Y-47340000D02*
X35000000Y-46539026D01*
X35000000Y-46539026D02*
X33193534Y-44732560D01*
X33279400Y-37362171D02*
X33279400Y-38664157D01*
X33193534Y-43819799D02*
X33269400Y-43743933D01*
X33449600Y-38834358D02*
X33449600Y-39405643D01*
X31794631Y-35877400D02*
X33279400Y-37362171D01*
X33279400Y-38664157D02*
X33449600Y-38834358D01*
X33193534Y-44732560D02*
X33193534Y-43819799D01*
%TO.N,/Level shifter/LOUT1.B12*%
X27663116Y-34206629D02*
X28265418Y-34808931D01*
X27663116Y-33772853D02*
X27663116Y-34206629D01*
X27200000Y-32600000D02*
X27200000Y-33590600D01*
X27532663Y-33642400D02*
X27663116Y-33772853D01*
X27200000Y-33590600D02*
X27251800Y-33642400D01*
X27251800Y-33642400D02*
X27532663Y-33642400D01*
%TO.N,/Level shifter/LOUT1.B19*%
X31587264Y-34759800D02*
X32598648Y-34759800D01*
X34407800Y-36568952D02*
X34407800Y-36587800D01*
X32598648Y-34759800D02*
X34407800Y-36568952D01*
X34407800Y-36587800D02*
X35000000Y-37180000D01*
X30400001Y-33572537D02*
X31587264Y-34759800D01*
X30400001Y-32600000D02*
X30400001Y-33572537D01*
%TO.N,/Level shifter/LOUT1.B24*%
X34800000Y-32300000D02*
X35000000Y-32100000D01*
X33000000Y-32300000D02*
X34800000Y-32300000D01*
X32700000Y-32600000D02*
X33000000Y-32300000D01*
X32399999Y-32600000D02*
X32700000Y-32600000D01*
%TO.N,/Level shifter/LOUT1.B5*%
X20226974Y-35106974D02*
X19760000Y-34640000D01*
X24000001Y-32600000D02*
X23942800Y-32657201D01*
X22793026Y-35106974D02*
X20226974Y-35106974D01*
X23942800Y-33957200D02*
X22793026Y-35106974D01*
X23942800Y-32657201D02*
X23942800Y-33957200D01*
%TO.N,/Level shifter/LOUT1.B13*%
X32550000Y-31440000D02*
X32880000Y-31110000D01*
X33158276Y-30661724D02*
X33158276Y-30661400D01*
X33158276Y-30661400D02*
X33856000Y-29963676D01*
X32880000Y-31110000D02*
X32880000Y-31020000D01*
X27599999Y-31910001D02*
X27825000Y-31685000D01*
X27825000Y-31685000D02*
X28205000Y-31685000D01*
X34770000Y-28150000D02*
X35100000Y-28150000D01*
X27599999Y-32600000D02*
X27599999Y-31910001D01*
X28450000Y-31440000D02*
X32550000Y-31440000D01*
X32900000Y-31000000D02*
X32900000Y-30920000D01*
X28205000Y-31685000D02*
X28450000Y-31440000D01*
X32900000Y-30920000D02*
X33158276Y-30661724D01*
X32880000Y-31020000D02*
X32900000Y-31000000D01*
X33856000Y-29963676D02*
X33856000Y-29064000D01*
X33856000Y-29064000D02*
X34770000Y-28150000D01*
%TO.N,Net-(U6-SW)*%
D42*
X24125000Y-68298704D02*
X24125000Y-67850000D01*
X24125000Y-67850000D02*
X24400000Y-67575000D01*
X24400000Y-67575000D02*
X26176296Y-67575000D01*
X26176296Y-67575000D02*
X26825000Y-68223704D01*
%TO.N,/FPGA/LIN2.A12*%
D41*
X28225000Y-58204800D02*
X28225000Y-56875000D01*
X27480567Y-56071800D02*
X27421800Y-56071800D01*
X27388298Y-51991702D02*
X27668298Y-51991702D01*
X28024117Y-51635883D02*
X28335883Y-51635883D01*
X27165000Y-52802566D02*
X27165000Y-52215000D01*
X27175000Y-55825000D02*
X27175000Y-52740000D01*
X27165000Y-52215000D02*
X27388298Y-51991702D01*
X27731400Y-56381400D02*
X27731400Y-56322633D01*
X27421800Y-56071800D02*
X27175000Y-55825000D01*
X27668298Y-51991702D02*
X28024117Y-51635883D01*
X28335883Y-51635883D02*
X28874600Y-51097166D01*
X28225000Y-56875000D02*
X27731400Y-56381400D01*
X27731400Y-56322633D02*
X27480567Y-56071800D01*
%TO.N,/FPGA/LIN1.A3*%
X22800001Y-40149759D02*
X22800001Y-38238800D01*
X22736890Y-40234880D02*
X22714880Y-40234880D01*
X22714880Y-40234880D02*
X22800001Y-40149759D01*
X23280000Y-42317434D02*
X23280000Y-42303043D01*
%TO.N,/FPGA/LIN1.A11*%
X26480000Y-42317434D02*
X26480000Y-42303041D01*
%TO.N,/FPGA/LIN2.A24*%
X22040511Y-52435896D02*
X22040511Y-52456136D01*
X21790400Y-52185785D02*
X21790400Y-49407034D01*
X22040511Y-52435896D02*
X22058511Y-52453896D01*
X22625001Y-57195788D02*
X22625001Y-58204800D01*
X21790400Y-49407034D02*
X22480000Y-48717434D01*
X22473600Y-56613013D02*
X22473600Y-57044388D01*
X22473600Y-57044388D02*
X22625001Y-57195788D01*
X22040511Y-52435896D02*
X21790400Y-52185785D01*
X22058511Y-52453896D02*
X22058511Y-52930000D01*
X22170294Y-56309706D02*
X22473600Y-56613013D01*
X22040511Y-52456136D02*
X22048511Y-52464136D01*
%TO.N,/FPGA/LIN2.A4*%
X31800000Y-59175000D02*
X31800000Y-58229800D01*
X31280000Y-47917434D02*
X31294260Y-47917434D01*
X31800000Y-58229800D02*
X31825000Y-58204800D01*
%TO.N,unconnected-(U4-BB$3-PadK2)*%
X23280000Y-48717434D02*
X23280000Y-48703044D01*
%TO.N,/FPGA/LIN2.A19*%
X23391400Y-55950287D02*
X23591200Y-56150087D01*
X23591200Y-56621200D02*
X24624999Y-57654999D01*
X23591200Y-56150087D02*
X23591200Y-56621200D01*
X24624999Y-57654999D02*
X24624999Y-58204800D01*
X24109600Y-52384600D02*
X23391400Y-53102800D01*
X23391400Y-53102800D02*
X23391400Y-55950287D01*
%TO.N,/FPGA/LIN2.A7*%
X31280000Y-49503043D02*
X31280000Y-49517434D01*
X30575000Y-57150000D02*
X30225001Y-57499999D01*
X30225001Y-57499999D02*
X30225001Y-58204800D01*
%TO.N,/FPGA/LIN2.A21*%
X23825001Y-57645001D02*
X23032400Y-56852400D01*
X22801800Y-52270738D02*
X22798630Y-52267568D01*
X23825001Y-58204800D02*
X23825001Y-57645001D01*
X22811800Y-56160950D02*
X22811800Y-52208172D01*
X23032400Y-56852400D02*
X23032400Y-56381551D01*
X23032400Y-56381551D02*
X22811800Y-56160950D01*
%TO.N,Net-(U4-CLK2)*%
X28080000Y-47117434D02*
X28880000Y-46317434D01*
%TO.N,/FPGA/LIN2.A16*%
X25825000Y-59550000D02*
X25824999Y-58204800D01*
X25680000Y-51117434D02*
X25680000Y-51142434D01*
%TO.N,/FPGA/LIN2.A13*%
X27825000Y-57021800D02*
X27303200Y-56500000D01*
X27825000Y-58204800D02*
X27825000Y-57021800D01*
%TO.N,/FPGA/LIN2.A15*%
X26875000Y-59200000D02*
X26625000Y-58950000D01*
X26625000Y-58950000D02*
X26625000Y-58204800D01*
%TO.N,/FPGA/LIN2.A6*%
X31024999Y-58179800D02*
X31024999Y-58204800D01*
%TO.N,/FPGA/LIN2.A20*%
X23091200Y-52891366D02*
X23091200Y-56045219D01*
X24225000Y-57625000D02*
X24225000Y-58204800D01*
X23574600Y-52097166D02*
X23574600Y-52407966D01*
X23311800Y-56265819D02*
X23311800Y-56711800D01*
X23091200Y-56045219D02*
X23311800Y-56265819D01*
X23311800Y-56711800D02*
X24225000Y-57625000D01*
X23574600Y-52407966D02*
X23091200Y-52891366D01*
%TO.N,/FPGA/LIN1.A1*%
X22000000Y-39280000D02*
X22000000Y-38238800D01*
X22063717Y-41536283D02*
X21830000Y-41302566D01*
X22063717Y-41886283D02*
X22063717Y-41536283D01*
X22474600Y-42297166D02*
X22063717Y-41886283D01*
X21830000Y-41302566D02*
X21830000Y-39450000D01*
X21830000Y-39450000D02*
X22000000Y-39280000D01*
%TO.N,/FPGA/LIN1.A21*%
X31199999Y-38935101D02*
X31010000Y-39125100D01*
X31199999Y-38289600D02*
X31199999Y-38935101D01*
X31010000Y-40272830D02*
X31244428Y-40507258D01*
X31010000Y-39125100D02*
X31010000Y-40272830D01*
%TO.N,/FPGA/LIN1.A4*%
X23300400Y-40110000D02*
X23300400Y-40372966D01*
X23200000Y-40009600D02*
X23300400Y-40110000D01*
X24074600Y-41147166D02*
X24074600Y-41497166D01*
X23300400Y-40372966D02*
X24074600Y-41147166D01*
X23200000Y-38238800D02*
X23200000Y-40009600D01*
%TO.N,/FPGA/LIN1.A24*%
X32074600Y-43897166D02*
X32182834Y-43897166D01*
X32399999Y-38784900D02*
X32735099Y-39120000D01*
X32399999Y-38289600D02*
X32399999Y-38784900D01*
X32735099Y-39120000D02*
X32760000Y-39120000D01*
X32080000Y-43917434D02*
X32130000Y-43917434D01*
%TO.N,/FPGA/LIN1.A14*%
X27599999Y-37644099D02*
X27275900Y-37320000D01*
X28074600Y-41497166D02*
X28067166Y-41497166D01*
X28067166Y-41497166D02*
X28060000Y-41490000D01*
X27599999Y-38289600D02*
X27599999Y-37644099D01*
X27275900Y-37320000D02*
X26630000Y-37320000D01*
%TO.N,/FPGA/LIN2.A23*%
X22359400Y-51563491D02*
X22359400Y-52600000D01*
X22051800Y-49945634D02*
X22051800Y-51255891D01*
X22502859Y-56247141D02*
X22753000Y-56497282D01*
X22480000Y-49517434D02*
X22051800Y-49945634D01*
X22753000Y-56497282D02*
X22753000Y-56942676D01*
X23025000Y-57214676D02*
X23025000Y-58204800D01*
X22753000Y-56942676D02*
X23025000Y-57214676D01*
X22051800Y-51255891D02*
X22359400Y-51563491D01*
%TO.N,/FPGA/LIN1.A23*%
X31280000Y-43117434D02*
X31280000Y-43133434D01*
X32000000Y-38238800D02*
X32000000Y-37130000D01*
X31500000Y-36630000D02*
X31340000Y-36630000D01*
X32000000Y-37130000D02*
X31500000Y-36630000D01*
%TO.N,/FPGA/LIN1.A18*%
X29999999Y-38238800D02*
X29999999Y-39404871D01*
%TO.N,/FPGA/LIN1.A7*%
X24880000Y-42317434D02*
X24880000Y-42303043D01*
%TO.N,/FPGA/LIN1.A2*%
X22400002Y-39469998D02*
X22240000Y-39630000D01*
X22240000Y-39630000D02*
X22240000Y-40462566D01*
X22240000Y-40462566D02*
X23274600Y-41497166D01*
X22400002Y-38238800D02*
X22400002Y-39469998D01*
%TO.N,/FPGA/LIN1.A6*%
X24000001Y-38289600D02*
X24000001Y-39302398D01*
X24000001Y-39302398D02*
X23862399Y-39440000D01*
%TO.N,/FPGA/LIN2.A18*%
X24922125Y-49467633D02*
X24922125Y-49563069D01*
X25025001Y-57200000D02*
X25025001Y-58204800D01*
%TO.N,/FPGA/LIN1.A19*%
X29897143Y-37371690D02*
X30127589Y-37371690D01*
X30400001Y-37644102D02*
X30400001Y-38289600D01*
X30480000Y-42317434D02*
X30494390Y-42317434D01*
X30127589Y-37371690D02*
X30400001Y-37644102D01*
%TO.N,/FPGA/LIN1.A9*%
X25680000Y-42317434D02*
X25680000Y-42303041D01*
%TO.N,/FPGA/LIN2.A22*%
X23425002Y-59125002D02*
X23475000Y-59175000D01*
X23425002Y-58204800D02*
X23425002Y-59125002D01*
X23450002Y-58254800D02*
X23450002Y-58229800D01*
%TO.N,/FPGA/LIN1.A5*%
X24080000Y-42317434D02*
X24063426Y-42317434D01*
%TO.N,/FPGA/LIN1.A20*%
X30800000Y-37440000D02*
X30290000Y-36930000D01*
X30800000Y-38289600D02*
X30800000Y-37440000D01*
X31274600Y-41497166D02*
X31274600Y-41355400D01*
X31274600Y-41355400D02*
X31800000Y-40830000D01*
%TO.N,/FPGA/LIN1.A22*%
X31599998Y-38289600D02*
X31599998Y-37349998D01*
X31599998Y-37349998D02*
X31580000Y-37330000D01*
X32655000Y-40850000D02*
X32655000Y-41716766D01*
X32655000Y-40005000D02*
X32655000Y-40850000D01*
X32655000Y-41716766D02*
X32074600Y-42297166D01*
X32470000Y-39820000D02*
X32655000Y-40005000D01*
%TO.N,/FPGA/LIN2.A14*%
X26731800Y-52338200D02*
X26730000Y-52336400D01*
X26730000Y-52336400D02*
X26730000Y-51920000D01*
X26995000Y-51655000D02*
X27415000Y-51655000D01*
X26741800Y-52520000D02*
X26741800Y-56641800D01*
X26730000Y-51920000D02*
X26995000Y-51655000D01*
X28074600Y-51097166D02*
X27972834Y-51097166D01*
X27425001Y-57325001D02*
X27425001Y-58204800D01*
X27972834Y-51097166D02*
X27415000Y-51655000D01*
X26741800Y-56641800D02*
X27425001Y-57325001D01*
X26731800Y-52338200D02*
X26731800Y-52582566D01*
%TO.N,/FPGA/LIN1.A16*%
X29674600Y-41497166D02*
X29682834Y-41497166D01*
X29200001Y-37399999D02*
X29310000Y-37290000D01*
X29682834Y-41497166D02*
X29690000Y-41490000D01*
X29200001Y-38289600D02*
X29200001Y-37399999D01*
%TO.N,/FPGA/LIN2.A9*%
X29425000Y-58204800D02*
X29425000Y-59150000D01*
X29425000Y-59150000D02*
X29400000Y-59175000D01*
X31280000Y-48717434D02*
X31280000Y-48733434D01*
%TO.N,/FPGA/LIN2.A17*%
X25425000Y-58204800D02*
X25425000Y-59100000D01*
X25425000Y-59100000D02*
X25050000Y-59475000D01*
%TO.N,/FPGA/LIN2.A11*%
X28624999Y-56649999D02*
X28150000Y-56175000D01*
X28624999Y-58204800D02*
X28624999Y-56649999D01*
%TO.N,/FPGA/LIN1.A13*%
X27280000Y-42317434D02*
X27280000Y-42301434D01*
%TO.N,/ADC/ADC_TX*%
X30173800Y-51998634D02*
X30180000Y-51992434D01*
X30183800Y-51981366D02*
X30174600Y-51972166D01*
%TO.N,/FPGA/PTHRES*%
X25825000Y-53295000D02*
X25825000Y-52680000D01*
X28080000Y-50317434D02*
X27280000Y-51117434D01*
X25825000Y-52680000D02*
X25825000Y-51772434D01*
X28705000Y-52092434D02*
X28047566Y-52092434D01*
X24680001Y-50517433D02*
X24880000Y-50317434D01*
X28047566Y-52092434D02*
X27700000Y-52440000D01*
X25680000Y-49517434D02*
X24880000Y-50317434D01*
X29680000Y-51117434D02*
X29680000Y-50317434D01*
X29680000Y-51117434D02*
X28705000Y-52092434D01*
X25825000Y-53295000D02*
X24325000Y-53295000D01*
X24680001Y-50917435D02*
X24680001Y-50517433D01*
X24880000Y-51117434D02*
X24680001Y-50917435D01*
X26480000Y-51117434D02*
X27280000Y-51117434D01*
X26023717Y-51573717D02*
X26480000Y-51117434D01*
X26480000Y-51117434D02*
X26464000Y-51117434D01*
X25825000Y-51772434D02*
X26023717Y-51573717D01*
%TO.N,/Audio output/AUDINT*%
X29680000Y-43117434D02*
X29680000Y-43103174D01*
X24090000Y-27300000D02*
X24850000Y-27300000D01*
%TO.N,/ADC/AUD_IN_BIAS*%
X31838288Y-25160000D02*
X31490000Y-25160000D01*
X31490000Y-25160000D02*
X31340000Y-25010000D01*
X28715000Y-25010000D02*
X27775000Y-25950000D01*
X28297799Y-27802199D02*
X28297799Y-27472799D01*
X31340000Y-25010000D02*
X28715000Y-25010000D01*
X31973288Y-25025000D02*
X31838288Y-25160000D01*
X33450000Y-24050000D02*
X32475000Y-25025000D01*
X32475000Y-25025000D02*
X31973288Y-25025000D01*
X28297799Y-27472799D02*
X28175000Y-27350000D01*
%TO.N,/ADC/ADC_RX*%
X31695000Y-53226824D02*
X31700000Y-53231824D01*
X31700000Y-53231824D02*
X31661824Y-53231824D01*
X30700000Y-53226824D02*
X31695000Y-53226824D01*
X31670000Y-53002566D02*
X31690000Y-52982566D01*
%TO.N,+3.3VA*%
D42*
X18200000Y-54050000D02*
X18200000Y-52587500D01*
X18200000Y-52587500D02*
X18200000Y-52450000D01*
X29680000Y-43917434D02*
X29655000Y-43917434D01*
X19423152Y-51326848D02*
X19500000Y-51250000D01*
X29674600Y-43897166D02*
X29674600Y-43897834D01*
X18200000Y-52350000D02*
X19223152Y-51326848D01*
X28880000Y-48717434D02*
X28880000Y-48703043D01*
X19223152Y-51326848D02*
X19423152Y-51326848D01*
X29674600Y-43897834D02*
X29655000Y-43917434D01*
X18200000Y-52587500D02*
X18200000Y-52350000D01*
%TO.N,+2V5*%
X33300000Y-23245522D02*
X33625000Y-22920522D01*
X33125000Y-23250000D02*
X33300000Y-23250000D01*
X33300000Y-23250000D02*
X33300000Y-23245522D01*
X28075000Y-53825000D02*
X28075000Y-52925000D01*
X32325000Y-24050000D02*
X33125000Y-23250000D01*
X28080000Y-49517432D02*
X28080000Y-49517434D01*
X27280000Y-49517434D02*
X28080000Y-49517434D01*
X27280000Y-49517434D02*
X26480000Y-49517434D01*
X32475000Y-20850000D02*
X32185739Y-21139261D01*
X33625000Y-21625000D02*
X32850000Y-20850000D01*
X33625000Y-22920522D02*
X33625000Y-21625000D01*
X32850000Y-20850000D02*
X32475000Y-20850000D01*
X32185739Y-21139261D02*
X31475000Y-21139261D01*
%TO.N,+5V*%
X18150000Y-60200000D02*
X18150000Y-59575000D01*
X19290000Y-63050000D02*
X19760000Y-62580000D01*
X18150000Y-63050000D02*
X19290000Y-63050000D01*
X18150000Y-32725000D02*
X18150000Y-32150000D01*
X18150000Y-32150000D02*
X18350000Y-31950000D01*
X24125000Y-69725000D02*
X24125000Y-69038704D01*
X23625000Y-68298704D02*
X22777760Y-68298704D01*
X23875000Y-69975000D02*
X24125000Y-69725000D01*
X18425000Y-60475000D02*
X18150000Y-60200000D01*
%TO.N,/FPGA/OSC_CLOCK*%
D41*
X29448704Y-68398704D02*
X28850000Y-67800000D01*
X32080000Y-45517434D02*
X32080000Y-44717434D01*
X29752760Y-68398704D02*
X29448704Y-68398704D01*
X32080000Y-44717434D02*
X32065740Y-44717434D01*
%TO.N,/Audio output/AUD_IN_AMP*%
X30230003Y-26286200D02*
X30650000Y-26706197D01*
X27099999Y-26545600D02*
X27150799Y-26494800D01*
X30909999Y-27760000D02*
X31140000Y-27990001D01*
X31140000Y-27990001D02*
X31239999Y-27990001D01*
X27150799Y-26494800D02*
X29020351Y-26494800D01*
X30630000Y-27760000D02*
X30909999Y-27760000D01*
X27099999Y-27104400D02*
X27099999Y-26545600D01*
X29228951Y-26286200D02*
X30230003Y-26286200D01*
X30650000Y-26706197D02*
X30650000Y-26830000D01*
X29020351Y-26494800D02*
X29228951Y-26286200D01*
X30630000Y-26850000D02*
X30650000Y-26830000D01*
X30630000Y-27760000D02*
X30630000Y-26850000D01*
X31239999Y-27990001D02*
X31270000Y-27960000D01*
%TO.N,Net-(U2-IN2-)*%
X23625109Y-31620000D02*
X23325109Y-31320000D01*
D43*
X23120000Y-31220000D02*
X23220000Y-31320000D01*
D41*
X23325109Y-31320000D02*
X23220000Y-31320000D01*
D43*
X22380000Y-31220000D02*
X23120000Y-31220000D01*
D41*
X26099998Y-30000000D02*
X24900000Y-30000000D01*
X24900000Y-30000000D02*
X24860000Y-30040000D01*
%TO.N,Net-(U4-CONF_DONE)*%
X25680000Y-43117434D02*
X25664000Y-43117434D01*
%TO.N,/Audio output/AUD_INT_OUT*%
X28240000Y-24740000D02*
X31639702Y-24740000D01*
X26599999Y-27104400D02*
X26599999Y-26367313D01*
X28167312Y-24800000D02*
X28180000Y-24800000D01*
X26600000Y-27104399D02*
X26599999Y-27104400D01*
X26599999Y-26367313D02*
X28167312Y-24800000D01*
X24120000Y-26350000D02*
X26500000Y-26350000D01*
X28180000Y-24800000D02*
X28240000Y-24740000D01*
X31639702Y-24740000D02*
X31655135Y-24724567D01*
%TO.N,Net-(U2-IN3-)*%
X28800000Y-30650000D02*
X29500002Y-30650000D01*
X29500000Y-30650000D02*
X29500002Y-30650000D01*
X29540000Y-30650000D02*
X29597988Y-30592012D01*
X32700000Y-29680000D02*
X32700000Y-29679998D01*
X29500000Y-30650000D02*
X29540000Y-30650000D01*
X27600000Y-30000000D02*
X28150000Y-30000000D01*
X28150000Y-30000000D02*
X28800000Y-30650000D01*
X29597988Y-30592012D02*
X29597988Y-30590000D01*
%TO.N,/ADC/AUD_VBIAS*%
X33275000Y-25575000D02*
X33010000Y-25310000D01*
X32025000Y-25650000D02*
X32075000Y-25700000D01*
X33010000Y-25310000D02*
X33010000Y-25150000D01*
X30900000Y-25700000D02*
X29475000Y-25700000D01*
X32800000Y-25700000D02*
X33010000Y-25490000D01*
X32325000Y-25700000D02*
X32800000Y-25700000D01*
X30550000Y-25700000D02*
X30600000Y-25650000D01*
X30867612Y-55679436D02*
X31255000Y-56066824D01*
X30600000Y-25650000D02*
X32025000Y-25650000D01*
X30867612Y-55659269D02*
X30867612Y-55279212D01*
X33550000Y-30950000D02*
X33850000Y-30650000D01*
X33750000Y-25575000D02*
X33275000Y-25575000D01*
X33550000Y-31300000D02*
X33550000Y-30950000D01*
X30867612Y-55279212D02*
X31010000Y-55136824D01*
X33010000Y-25490000D02*
X33010000Y-25150000D01*
X30867612Y-55659269D02*
X30867612Y-55679436D01*
%TO.N,Net-(U2-IN1-)*%
X25845598Y-26850000D02*
X26099998Y-27104400D01*
X23154928Y-26350000D02*
X22200000Y-26350000D01*
X23500000Y-26004928D02*
X23154928Y-26350000D01*
X25600000Y-26850000D02*
X25845598Y-26850000D01*
X23500000Y-25975000D02*
X23500000Y-26004928D01*
%TO.N,Net-(C9-Pad1)*%
X32000000Y-27820000D02*
X31990000Y-27810000D01*
X31510000Y-39460000D02*
X31490000Y-39460000D01*
X31660000Y-29680000D02*
X31700000Y-29680000D01*
X32176200Y-29203800D02*
X32176200Y-27936200D01*
X31700000Y-29680000D02*
X32176200Y-29203800D01*
X28965000Y-30140000D02*
X30893800Y-30140000D01*
X30893800Y-30140000D02*
X31323800Y-29710000D01*
X31630000Y-29710000D02*
X31660000Y-29680000D01*
X31710000Y-29860000D02*
X31737860Y-29860000D01*
X28600000Y-29775000D02*
X28965000Y-30140000D01*
X32176200Y-27936200D02*
X32020000Y-27780000D01*
X31323800Y-29710000D02*
X31630000Y-29710000D01*
%TO.N,/FPGA/TMS*%
X21475000Y-23525000D02*
X22000000Y-24050000D01*
X22000000Y-24040000D02*
X21460000Y-23500000D01*
X19225000Y-23525000D02*
X21475000Y-23525000D01*
%TO.N,/FPGA/TCK*%
X23280000Y-46317434D02*
X23280000Y-46331826D01*
%TO.N,+3.3V*%
D42*
X24625000Y-70573704D02*
X24750000Y-70698704D01*
X26035000Y-56450000D02*
X26035000Y-56275000D01*
X31475000Y-22688661D02*
X30967000Y-22688661D01*
X27280000Y-45517434D02*
X27265608Y-45517434D01*
X28000001Y-37100001D02*
X27875000Y-36975000D01*
X31402760Y-70498704D02*
X32777760Y-70498704D01*
X24080000Y-48717434D02*
X24094394Y-48717434D01*
X28080000Y-43917434D02*
X27655000Y-43492434D01*
X30396539Y-22550000D02*
X29625000Y-22550000D01*
X23280000Y-45580764D02*
X23280000Y-45517434D01*
X23478294Y-22640400D02*
X23130400Y-22640400D01*
X24080000Y-46317434D02*
X24016670Y-46317434D01*
X25325000Y-69900000D02*
X25350000Y-69875000D01*
X24080000Y-47917434D02*
X24080000Y-48717434D01*
X30480000Y-47117434D02*
X30480000Y-46317434D01*
X28080000Y-43117434D02*
X28880000Y-42317434D01*
X30967000Y-22688661D02*
X30535200Y-22688661D01*
X28325000Y-22550000D02*
X28200000Y-22675000D01*
X23920000Y-54150000D02*
X24325000Y-54555000D01*
X24625000Y-69038704D02*
X24625000Y-70573704D01*
X37100000Y-68250000D02*
X37100000Y-67225000D01*
X24750000Y-70698704D02*
X24750000Y-70475000D01*
X18200000Y-25650000D02*
X18650000Y-26100000D01*
X27280000Y-43117434D02*
X26480000Y-43117434D01*
X27280000Y-44717434D02*
X27265604Y-44717434D01*
X27705000Y-43492434D02*
X28080000Y-43117434D01*
X24325000Y-54555000D02*
X24325000Y-54650000D01*
X18200000Y-25475000D02*
X18200000Y-25650000D01*
X24452760Y-70698704D02*
X26377760Y-70698704D01*
X27625000Y-22875000D02*
X23712894Y-22875000D01*
X26377760Y-70698704D02*
X26527760Y-70548704D01*
X28000000Y-22875000D02*
X28200000Y-22675000D01*
X27655000Y-43492434D02*
X27280000Y-43117434D01*
X27280000Y-44717434D02*
X27280000Y-45517434D01*
X30480000Y-45517434D02*
X30480000Y-46317434D01*
X24016670Y-46317434D02*
X23280000Y-45580764D01*
X21225000Y-20725000D02*
X22000000Y-21500000D01*
X19100000Y-35750000D02*
X19350000Y-36000000D01*
X31402760Y-70498704D02*
X29752760Y-70498704D01*
X23130400Y-22640400D02*
X22000000Y-21510000D01*
X32777760Y-70498704D02*
X33027760Y-70248704D01*
X27625000Y-22875000D02*
X28000000Y-22875000D01*
X24750000Y-70475000D02*
X25325000Y-69900000D01*
X27655000Y-43492434D02*
X27705000Y-43492434D01*
X23712894Y-22875000D02*
X23478294Y-22640400D01*
X27280000Y-47117434D02*
X28080000Y-46317434D01*
X28080000Y-46317434D02*
X27280000Y-45517434D01*
X28880000Y-42317434D02*
X28880000Y-42301434D01*
X18200000Y-20725000D02*
X21225000Y-20725000D01*
X33739528Y-70960472D02*
X33027760Y-70248704D01*
X27024999Y-57406899D02*
X27024999Y-58204800D01*
X29625000Y-22550000D02*
X28325000Y-22550000D01*
X26050000Y-56431900D02*
X27024999Y-57406899D01*
X28000001Y-38238800D02*
X28000001Y-37100001D01*
X26480000Y-46317434D02*
X27280000Y-45517434D01*
X37100000Y-67225000D02*
X37075000Y-67200000D01*
X18200000Y-51012500D02*
X18200000Y-50200000D01*
X30480000Y-47917434D02*
X30480000Y-47117434D01*
X18150000Y-35750000D02*
X19100000Y-35750000D01*
X18200000Y-49350000D02*
X18200000Y-50200000D01*
X30535200Y-22688661D02*
X30396539Y-22550000D01*
X26035000Y-56275000D02*
X25550000Y-55790000D01*
%TO.N,/FPGA/TDI*%
D41*
X19296000Y-22996000D02*
X23331000Y-22996000D01*
X23331000Y-22996000D02*
X24535000Y-24200000D01*
X18200000Y-22375000D02*
X18675000Y-22375000D01*
X18675000Y-22375000D02*
X19296000Y-22996000D01*
%TO.N,/Level shifter/LOUT1.B22*%
X31934874Y-33920600D02*
X33057870Y-33920600D01*
X33057870Y-33920600D02*
X34732870Y-35595600D01*
X31599998Y-32600000D02*
X31599998Y-33585724D01*
X31599998Y-33585724D02*
X31934874Y-33920600D01*
X34732870Y-35595600D02*
X35572781Y-35595600D01*
X35572781Y-35595600D02*
X35685995Y-35482386D01*
X37250000Y-40760000D02*
X37250000Y-40910000D01*
X37250000Y-40910000D02*
X37150000Y-41010000D01*
%TO.N,Net-(U2-IN2+)*%
D43*
X21190000Y-29270000D02*
X22150000Y-28310000D01*
X22960000Y-29120000D02*
X23640000Y-29120000D01*
X23640000Y-29120000D02*
X24120000Y-29600000D01*
X21190000Y-29290000D02*
X21190000Y-29270000D01*
X22150000Y-28310000D02*
X22960000Y-29120000D01*
D41*
X21220000Y-29390000D02*
X21330000Y-29390000D01*
D43*
X25104400Y-29600000D02*
X25402199Y-29302201D01*
X24120000Y-29600000D02*
X25104400Y-29600000D01*
%TO.N,Net-(U2-IN3+)*%
D41*
X29520000Y-29650000D02*
X29450000Y-29580000D01*
X29102201Y-29302201D02*
X28297799Y-29302201D01*
X29380000Y-29580000D02*
X29102201Y-29302201D01*
X29730000Y-29650000D02*
X29520000Y-29650000D01*
X29590000Y-29650000D02*
X30457600Y-29650000D01*
X29730000Y-29650000D02*
X29660000Y-29580000D01*
X30457600Y-29650000D02*
X30487600Y-29680000D01*
X29660000Y-29580000D02*
X29380000Y-29580000D01*
%TO.N,Net-(U2-OUT3)*%
X30500000Y-30670000D02*
X30520000Y-30650000D01*
X30500000Y-30690000D02*
X30500000Y-30670000D01*
%TO.N,GND*%
D42*
X26480000Y-50317434D02*
X26480000Y-50292434D01*
X23930000Y-55895000D02*
X24485000Y-56450000D01*
X22000000Y-32549200D02*
X22000000Y-33300000D01*
D43*
X21190000Y-28310000D02*
X21190000Y-27370000D01*
D42*
X31700000Y-54191824D02*
X31688349Y-54191824D01*
X30600000Y-23800000D02*
X30900000Y-24100000D01*
X30625000Y-58204800D02*
X30625000Y-59350000D01*
X27277166Y-46297166D02*
X27280000Y-46300000D01*
X28500000Y-33700000D02*
X28737300Y-33700000D01*
X31970000Y-55136824D02*
X31917600Y-55136824D01*
X29182200Y-28302200D02*
X29580000Y-28700000D01*
X28225000Y-23325000D02*
X27950000Y-23325000D01*
X25825000Y-54475000D02*
X25825000Y-54650000D01*
X33025000Y-63000000D02*
X33250000Y-62775000D01*
X33025000Y-63945200D02*
X33025000Y-63000000D01*
X31925000Y-23325000D02*
X30175000Y-23325000D01*
X32570000Y-26696719D02*
X33082185Y-26184534D01*
X33424999Y-62949999D02*
X33250000Y-62775000D01*
X30600000Y-23750000D02*
X30600000Y-23800000D01*
X27274600Y-46297166D02*
X27277166Y-46297166D01*
X24220000Y-28880000D02*
X24440000Y-29100000D01*
X25490000Y-54140000D02*
X25825000Y-54475000D01*
X31402760Y-68398704D02*
X31629056Y-68625000D01*
X32850000Y-22400000D02*
X31925000Y-23325000D01*
X21220000Y-31150000D02*
X21220000Y-30750000D01*
X24400000Y-32549200D02*
X24400000Y-33950000D01*
X28737300Y-33700000D02*
X28799999Y-33637301D01*
X30625000Y-64865316D02*
X30674999Y-64915315D01*
X30175000Y-23325000D02*
X28225000Y-23325000D01*
X23625000Y-69038704D02*
X23200000Y-69463704D01*
X32600000Y-26830000D02*
X32570000Y-26800000D01*
X21180000Y-26350000D02*
X21180000Y-27290000D01*
X23930000Y-55780000D02*
X23930000Y-55895000D01*
X21220000Y-30230000D02*
X21250000Y-30200000D01*
X30827739Y-21000000D02*
X30967000Y-21139261D01*
X31221000Y-21913961D02*
X31988961Y-21913961D01*
X21180000Y-27290000D02*
X21190000Y-27300000D01*
X18350000Y-61500000D02*
X18800000Y-61950000D01*
X23200000Y-69463704D02*
X23200000Y-70698704D01*
X18585000Y-34200000D02*
X19335000Y-33450000D01*
X28880000Y-49517434D02*
X28880000Y-49503040D01*
X37100000Y-69800000D02*
X37100000Y-70900000D01*
X28297799Y-28302200D02*
X29182200Y-28302200D01*
%TO.N,+5V*%
X24888692Y-68313692D02*
X25300000Y-68725000D01*
%TO.N,GND*%
X18550000Y-47875000D02*
X19350000Y-48675000D01*
X28075000Y-55375000D02*
X28350000Y-55375000D01*
X32700000Y-28660000D02*
X32700000Y-28060000D01*
X21180000Y-26270000D02*
X21650000Y-25800000D01*
X24072834Y-43097166D02*
X24070000Y-43100000D01*
X18200000Y-55600000D02*
X18200000Y-56550000D01*
X30625000Y-63945200D02*
X30625000Y-64865316D01*
X30474600Y-44697166D02*
X30462834Y-44697166D01*
X18150000Y-34200000D02*
X18585000Y-34200000D01*
X28297799Y-28302200D02*
X26975000Y-28302200D01*
X29125000Y-24050000D02*
X28400000Y-23325000D01*
X20750000Y-30800000D02*
X20870000Y-30800000D01*
X26225001Y-59250001D02*
X27025000Y-60050000D01*
X31988961Y-21913961D02*
X32475000Y-22400000D01*
X26225001Y-58204800D02*
X26225001Y-59250001D01*
X21600001Y-32600000D02*
X21600001Y-33700001D01*
X24880000Y-47917434D02*
X24880000Y-47901434D01*
X30462834Y-44697166D02*
X30460000Y-44700000D01*
X20870000Y-30800000D02*
X21320000Y-31250000D01*
X22000000Y-33300000D02*
X21600000Y-33700000D01*
X24074600Y-43097166D02*
X24072834Y-43097166D01*
X21220000Y-30750000D02*
X21220000Y-30230000D01*
X33027760Y-68698704D02*
X33604056Y-69275000D01*
X31280000Y-47117434D02*
X31264000Y-47117434D01*
X31917600Y-55136824D02*
X31636721Y-54855945D01*
X31629056Y-68625000D02*
X32954056Y-68625000D01*
X24220000Y-28540000D02*
X24220000Y-28880000D01*
X31688349Y-54191824D02*
X31327237Y-53830712D01*
X32954056Y-68625000D02*
X33027760Y-68698704D01*
X30600000Y-23750000D02*
X30175000Y-23325000D01*
X27950000Y-23325000D02*
X27450000Y-23825000D01*
X30967000Y-21659961D02*
X30967000Y-21139261D01*
X26225001Y-65075001D02*
X26250000Y-65100000D01*
X28400000Y-23325000D02*
X28225000Y-23325000D01*
X21220000Y-31000000D02*
X21237077Y-31000000D01*
X37100000Y-70900000D02*
X37050000Y-70950000D01*
X21180000Y-26350000D02*
X21180000Y-26270000D01*
X26975000Y-28302200D02*
X26725000Y-28552200D01*
X27450000Y-23825000D02*
X27305000Y-23825000D01*
%TO.N,+5V*%
X24625000Y-68313692D02*
X24888692Y-68313692D01*
%TO.N,GND*%
X32980000Y-27580000D02*
X32600000Y-27200000D01*
X33604056Y-69275000D02*
X33950000Y-69275000D01*
X32980000Y-27780000D02*
X32980000Y-27580000D01*
X32570000Y-26800000D02*
X32570000Y-26696719D01*
X32600000Y-27200000D02*
X32600000Y-26830000D01*
X28799999Y-33637301D02*
X28799999Y-32600000D01*
X28350000Y-55375000D02*
X29100000Y-56125000D01*
X18200000Y-47875000D02*
X18550000Y-47875000D01*
X32475000Y-22400000D02*
X32850000Y-22400000D01*
X28475000Y-20825000D02*
X28450000Y-20800000D01*
X29625000Y-20825000D02*
X28475000Y-20825000D01*
X28080000Y-42317434D02*
X28070614Y-42317434D01*
X31221000Y-21913961D02*
X30967000Y-21659961D01*
X27305000Y-23825000D02*
X27080000Y-24050000D01*
X32700000Y-28060000D02*
X32980000Y-27780000D01*
X33424999Y-63945200D02*
X33424999Y-62949999D01*
X18150000Y-61500000D02*
X18350000Y-61500000D01*
X29625000Y-21000000D02*
X30827739Y-21000000D01*
X26225001Y-63945200D02*
X26225001Y-65075001D01*
D41*
X29450000Y-28830000D02*
X29580000Y-28700000D01*
%TO.N,Net-(U2-IN+)*%
X25952199Y-27802199D02*
X26100000Y-27950000D01*
X23500715Y-27055029D02*
X23500715Y-27012334D01*
X23070000Y-27400000D02*
X23155744Y-27400000D01*
X25402199Y-27802199D02*
X25952199Y-27802199D01*
X23155744Y-27400000D02*
X23500715Y-27055029D01*
X23070000Y-27300000D02*
X22150000Y-27300000D01*
%TO.N,/Audio output/AUDROUT*%
X35875000Y-33700000D02*
X36500000Y-34325000D01*
X36500000Y-34567000D02*
X37150000Y-35217000D01*
X36939056Y-28350000D02*
X36464056Y-28350000D01*
X35875000Y-29158768D02*
X35875000Y-33700000D01*
X36464056Y-28350000D02*
X36133767Y-28680289D01*
X36133767Y-28680289D02*
X36133767Y-28900001D01*
X36133767Y-28900001D02*
X35875000Y-29158768D01*
X36500000Y-34325000D02*
X36500000Y-34567000D01*
X37150000Y-35217000D02*
X37150000Y-35930000D01*
%TO.N,Net-(U2-OUT2)*%
X26599999Y-30000000D02*
X26599999Y-30729999D01*
X26599999Y-30558800D02*
X26599999Y-30000000D01*
D43*
X24561600Y-31641600D02*
X25538400Y-31641600D01*
X24240000Y-31320000D02*
X24561600Y-31641600D01*
X26060000Y-31120000D02*
X26390000Y-31120000D01*
X25538400Y-31641600D02*
X26060000Y-31120000D01*
D41*
X26599999Y-30729999D02*
X26690000Y-30820000D01*
D43*
X26390000Y-31120000D02*
X26690000Y-30820000D01*
%TO.N,Net-(C12-Pad1)*%
X23090000Y-30250000D02*
X23130000Y-30250000D01*
X23080000Y-30260000D02*
X23090000Y-30250000D01*
D41*
X23160000Y-30250000D02*
X23720000Y-30810000D01*
D43*
X22200000Y-30260000D02*
X23080000Y-30260000D01*
D41*
X23130000Y-30250000D02*
X23160000Y-30250000D01*
%TO.N,Net-(C28-Pad1)*%
X30570000Y-28660000D02*
X31050000Y-29140000D01*
X31420000Y-30790000D02*
X31430000Y-30790000D01*
X31390000Y-30600000D02*
X31390000Y-30599998D01*
X31220000Y-29140000D02*
X31660000Y-28700000D01*
X31660000Y-28700000D02*
X31660000Y-28660000D01*
X31050000Y-29140000D02*
X31220000Y-29140000D01*
%TO.N,Net-(C29-Pad1)*%
D43*
X22550000Y-29290000D02*
X22210000Y-29290000D01*
X23510000Y-29610000D02*
X22870000Y-29610000D01*
X22870000Y-29610000D02*
X22550000Y-29290000D01*
X25100000Y-31120000D02*
X25060000Y-31120000D01*
X25060000Y-31120000D02*
X24190000Y-30250000D01*
X24150000Y-30250000D02*
X23510000Y-29610000D01*
X24190000Y-30250000D02*
X24150000Y-30250000D01*
%TO.N,GND*%
D42*
X19150000Y-43750000D02*
X18200000Y-44700000D01*
X19325000Y-43750000D02*
X19150000Y-43750000D01*
%TO.N,/FPGA/TCK*%
D41*
X18800000Y-46350000D02*
X19350000Y-45800000D01*
X18200000Y-46350000D02*
X18800000Y-46350000D01*
%TO.N,Net-(U4-NSTATUS)*%
X21300000Y-43250000D02*
X21810000Y-42740000D01*
X18200000Y-43250000D02*
X21300000Y-43250000D01*
%TO.N,Net-(U4-CONF_DONE)*%
X21004699Y-38400000D02*
X21104699Y-38500000D01*
%TO.N,+3.3V*%
D42*
X18200000Y-41600000D02*
X18200000Y-40050000D01*
X19200000Y-40950000D02*
X18300000Y-40050000D01*
X19450000Y-40950000D02*
X19200000Y-40950000D01*
X18300000Y-40050000D02*
X18200000Y-40050000D01*
%TO.N,Net-(U4-CONF_DONE)*%
D41*
X18200000Y-38400000D02*
X21004699Y-38400000D01*
%TO.N,+5VA*%
D42*
X19300000Y-28460000D02*
X19300000Y-28160000D01*
X18250000Y-29510000D02*
X19300000Y-28460000D01*
X18250000Y-29625000D02*
X18250000Y-29510000D01*
%TO.N,/FPGA/TMS*%
D41*
X18550000Y-23525000D02*
X18250000Y-23825000D01*
X19225000Y-23525000D02*
X18550000Y-23525000D01*
%TO.N,/Level shifter/LOUT1.B15*%
X35600000Y-28625000D02*
X35705567Y-28730568D01*
X34712270Y-28625000D02*
X35600000Y-28625000D01*
X33926712Y-31950000D02*
X34350000Y-31526712D01*
X34135400Y-29201870D02*
X34712270Y-28625000D01*
X32820000Y-31720000D02*
X33050000Y-31950000D01*
X34350000Y-31526712D02*
X34350000Y-30384078D01*
X28680000Y-31720000D02*
X32820000Y-31720000D01*
X33050000Y-31950000D02*
X33926712Y-31950000D01*
X34350000Y-30384078D02*
X34135400Y-30169478D01*
X28400000Y-32000000D02*
X28680000Y-31720000D01*
X34135400Y-30169478D02*
X34135400Y-29201870D01*
X28400000Y-32600000D02*
X28400000Y-32000000D01*
%TO.N,GND*%
D42*
X32074600Y-51097166D02*
X31451766Y-51720000D01*
X31440000Y-51720000D02*
X31440000Y-52052566D01*
X31451766Y-51720000D02*
X31440000Y-51720000D01*
%TD*%
M02*
