%TF.GenerationSoftware,KiCad,Pcbnew,10.0.6*%
%TF.CreationDate,2026-10-03T12:52:46+02:00*%
%TF.ProjectId,pokeymax4_5,706f6b65-796d-4617-9834-5f352e6b6963,rev?*%
%TF.SameCoordinates,Original*%
%TF.FileFunction,Soldermask,Bot*%
%TF.FilePolarity,Negative*%
%FSLAX46Y46*%
G04 Gerber Fmt 4.6, Leading zero omitted, Abs format (unit mm)*
G04 Created by KiCad (PCBNEW 10.0.6) date 2026-10-03 12:52:46*
%MOMM*%
%LPD*%
G01*
G04 APERTURE LIST*
G04 Aperture macros list*
%AMOutline5P*
0 Free polygon, 5 corners , with rotation*
0 The origin of the aperture is its center*
0 number of corners: always 5*
0 $1 to $10 corner X, Y*
0 $11 Rotation angle, in degrees counterclockwise*
0 create outline with 5 corners*
4,1,5,$1,$2,$3,$4,$5,$6,$7,$8,$9,$10,$1,$2,$11*%
%AMOutline6P*
0 Free polygon, 6 corners , with rotation*
0 The origin of the aperture is its center*
0 number of corners: always 6*
0 $1 to $12 corner X, Y*
0 $13 Rotation angle, in degrees counterclockwise*
0 create outline with 6 corners*
4,1,6,$1,$2,$3,$4,$5,$6,$7,$8,$9,$10,$11,$12,$1,$2,$13*%
%AMOutline7P*
0 Free polygon, 7 corners , with rotation*
0 The origin of the aperture is its center*
0 number of corners: always 7*
0 $1 to $14 corner X, Y*
0 $15 Rotation angle, in degrees counterclockwise*
0 create outline with 7 corners*
4,1,7,$1,$2,$3,$4,$5,$6,$7,$8,$9,$10,$11,$12,$13,$14,$1,$2,$15*%
%AMOutline8P*
0 Free polygon, 8 corners , with rotation*
0 The origin of the aperture is its center*
0 number of corners: always 8*
0 $1 to $16 corner X, Y*
0 $17 Rotation angle, in degrees counterclockwise*
0 create outline with 8 corners*
4,1,8,$1,$2,$3,$4,$5,$6,$7,$8,$9,$10,$11,$12,$13,$14,$15,$16,$1,$2,$17*%
G04 Aperture macros list end*
%ADD10Outline8P,-0.670000X0.281400X-0.281400X0.670000X0.281400X0.670000X0.670000X0.281400X0.670000X-0.281400X0.281400X-0.670000X-0.281400X-0.670000X-0.670000X-0.281400X180.000000*%
%ADD11Outline8P,-0.800000X0.320000X-0.320000X0.800000X0.320000X0.800000X0.800000X0.320000X0.800000X-0.320000X0.320000X-0.800000X-0.320000X-0.800000X-0.800000X-0.320000X0.000000*%
%ADD12R,1.600000X1.600000*%
%ADD13R,1.700000X1.700000*%
%ADD14C,1.700000*%
G04 APERTURE END LIST*
D10*
%TO.C,J3*%
X35010000Y-21950000D03*
X35010000Y-24490000D03*
X35010000Y-27030000D03*
X35010000Y-29570000D03*
X35010000Y-32110000D03*
X35010000Y-34650000D03*
X35010000Y-37190000D03*
X35010000Y-39730000D03*
X35010000Y-42270000D03*
X35010000Y-44810000D03*
X35010000Y-47350000D03*
X35010000Y-49890000D03*
X35010000Y-52430000D03*
X35010000Y-54970000D03*
X35010000Y-57510000D03*
X35010000Y-60050000D03*
X35010000Y-62590000D03*
X35010000Y-65130000D03*
X35010000Y-67670000D03*
X35010000Y-70210000D03*
%TD*%
D11*
%TO.C,J2*%
X37140000Y-63890000D03*
X37140000Y-61350000D03*
X37140000Y-58810000D03*
X37140000Y-56270000D03*
X37140000Y-53730000D03*
X37140000Y-51190000D03*
X37140000Y-48650000D03*
X37140000Y-46110000D03*
X37140000Y-43570000D03*
X37140000Y-41030000D03*
X37140000Y-38490000D03*
X37140000Y-35950000D03*
X37140000Y-33410000D03*
D12*
X37140000Y-30870000D03*
%TD*%
D10*
%TO.C,J4*%
X19770000Y-70210000D03*
X19770000Y-67670000D03*
X19770000Y-65130000D03*
X19770000Y-62590000D03*
X19770000Y-60050000D03*
X19770000Y-57510000D03*
X19770000Y-54970000D03*
X19770000Y-52430000D03*
X19770000Y-49890000D03*
X19770000Y-47350000D03*
X19770000Y-44810000D03*
X19770000Y-42270000D03*
X19770000Y-39730000D03*
X19770000Y-37190000D03*
X19770000Y-34650000D03*
X19770000Y-32110000D03*
X19770000Y-29570000D03*
X19770000Y-27030000D03*
X19770000Y-24490000D03*
X19770000Y-21950000D03*
%TD*%
D13*
%TO.C,J1*%
X21995000Y-24200000D03*
D14*
X21995000Y-21660000D03*
X24535000Y-24200000D03*
X24535000Y-21660000D03*
X27075000Y-24200000D03*
X27075000Y-21660000D03*
%TD*%
M02*
