%TF.GenerationSoftware,KiCad,Pcbnew,10.0.6*%
%TF.CreationDate,2026-10-03T12:52:46+02:00*%
%TF.ProjectId,pokeymax4_5,706f6b65-796d-4617-9834-5f352e6b6963,rev?*%
%TF.SameCoordinates,Original*%
%TF.FileFunction,Soldermask,Top*%
%TF.FilePolarity,Negative*%
%FSLAX46Y46*%
G04 Gerber Fmt 4.6, Leading zero omitted, Abs format (unit mm)*
G04 Created by KiCad (PCBNEW 10.0.6) date 2026-10-03 12:52:46*
%MOMM*%
%LPD*%
G01*
G04 APERTURE LIST*
G04 Aperture macros list*
%AMRoundRect*
0 Rectangle with rounded corners*
0 $1 Rounding radius*
0 $2 $3 $4 $5 $6 $7 $8 $9 X,Y pos of 4 corners*
0 Add a 4 corners polygon primitive as box body*
4,1,4,$2,$3,$4,$5,$6,$7,$8,$9,$2,$3,0*
0 Add four circle primitives for the rounded corners*
1,1,$1+$1,$2,$3*
1,1,$1+$1,$4,$5*
1,1,$1+$1,$6,$7*
1,1,$1+$1,$8,$9*
0 Add four rect primitives between the rounded corners*
20,1,$1+$1,$2,$3,$4,$5,0*
20,1,$1+$1,$4,$5,$6,$7,0*
20,1,$1+$1,$6,$7,$8,$9,0*
20,1,$1+$1,$8,$9,$2,$3,0*%
%AMOutline5P*
0 Free polygon, 5 corners , with rotation*
0 The origin of the aperture is its center*
0 number of corners: always 5*
0 $1 to $10 corner X, Y*
0 $11 Rotation angle, in degrees counterclockwise*
0 create outline with 5 corners*
4,1,5,$1,$2,$3,$4,$5,$6,$7,$8,$9,$10,$1,$2,$11*%
%AMOutline6P*
0 Free polygon, 6 corners , with rotation*
0 The origin of the aperture is its center*
0 number of corners: always 6*
0 $1 to $12 corner X, Y*
0 $13 Rotation angle, in degrees counterclockwise*
0 create outline with 6 corners*
4,1,6,$1,$2,$3,$4,$5,$6,$7,$8,$9,$10,$11,$12,$1,$2,$13*%
%AMOutline7P*
0 Free polygon, 7 corners , with rotation*
0 The origin of the aperture is its center*
0 number of corners: always 7*
0 $1 to $14 corner X, Y*
0 $15 Rotation angle, in degrees counterclockwise*
0 create outline with 7 corners*
4,1,7,$1,$2,$3,$4,$5,$6,$7,$8,$9,$10,$11,$12,$13,$14,$1,$2,$15*%
%AMOutline8P*
0 Free polygon, 8 corners , with rotation*
0 The origin of the aperture is its center*
0 number of corners: always 8*
0 $1 to $16 corner X, Y*
0 $17 Rotation angle, in degrees counterclockwise*
0 create outline with 8 corners*
4,1,8,$1,$2,$3,$4,$5,$6,$7,$8,$9,$10,$11,$12,$13,$14,$15,$16,$1,$2,$17*%
G04 Aperture macros list end*
%ADD10RoundRect,0.200000X0.275000X-0.200000X0.275000X0.200000X-0.275000X0.200000X-0.275000X-0.200000X0*%
%ADD11RoundRect,0.200000X-0.275000X0.200000X-0.275000X-0.200000X0.275000X-0.200000X0.275000X0.200000X0*%
%ADD12RoundRect,0.225000X0.250000X-0.225000X0.250000X0.225000X-0.250000X0.225000X-0.250000X-0.225000X0*%
%ADD13RoundRect,0.225000X-0.250000X0.225000X-0.250000X-0.225000X0.250000X-0.225000X0.250000X0.225000X0*%
%ADD14RoundRect,0.218750X-0.256250X0.218750X-0.256250X-0.218750X0.256250X-0.218750X0.256250X0.218750X0*%
%ADD15RoundRect,0.140000X0.140000X0.170000X-0.140000X0.170000X-0.140000X-0.170000X0.140000X-0.170000X0*%
%ADD16Outline8P,-0.670000X0.281400X-0.281400X0.670000X0.281400X0.670000X0.670000X0.281400X0.670000X-0.281400X0.281400X-0.670000X-0.281400X-0.670000X-0.670000X-0.281400X180.000000*%
%ADD17Outline8P,-0.800000X0.320000X-0.320000X0.800000X0.320000X0.800000X0.800000X0.320000X0.800000X-0.320000X0.320000X-0.800000X-0.320000X-0.800000X-0.800000X-0.320000X0.000000*%
%ADD18R,1.600000X1.600000*%
%ADD19RoundRect,0.140000X-0.140000X-0.170000X0.140000X-0.170000X0.140000X0.170000X-0.140000X0.170000X0*%
%ADD20RoundRect,0.135000X0.185000X-0.135000X0.185000X0.135000X-0.185000X0.135000X-0.185000X-0.135000X0*%
%ADD21RoundRect,0.250001X-0.849999X0.462499X-0.849999X-0.462499X0.849999X-0.462499X0.849999X0.462499X0*%
%ADD22RoundRect,0.135000X-0.135000X-0.185000X0.135000X-0.185000X0.135000X0.185000X-0.135000X0.185000X0*%
%ADD23RoundRect,0.225000X0.225000X0.250000X-0.225000X0.250000X-0.225000X-0.250000X0.225000X-0.250000X0*%
%ADD24RoundRect,0.135000X-0.185000X0.135000X-0.185000X-0.135000X0.185000X-0.135000X0.185000X0.135000X0*%
%ADD25R,1.700000X1.700000*%
%ADD26C,1.700000*%
%ADD27R,0.812800X0.254000*%
%ADD28R,0.254000X0.812800*%
%ADD29RoundRect,0.135000X0.135000X0.185000X-0.135000X0.185000X-0.135000X-0.185000X0.135000X-0.185000X0*%
%ADD30R,1.100000X1.300000*%
%ADD31RoundRect,0.140000X0.170000X-0.140000X0.170000X0.140000X-0.170000X0.140000X-0.170000X-0.140000X0*%
%ADD32R,0.177800X1.168400*%
%ADD33RoundRect,0.140000X-0.170000X0.140000X-0.170000X-0.140000X0.170000X-0.140000X0.170000X0.140000X0*%
%ADD34RoundRect,0.050000X-0.127000X0.330200X-0.127000X-0.330200X0.127000X-0.330200X0.127000X0.330200X0*%
%ADD35RoundRect,0.010000X-0.431800X0.254000X-0.431800X-0.254000X0.431800X-0.254000X0.431800X0.254000X0*%
%ADD36RoundRect,0.040000X-0.150000X0.275000X-0.150000X-0.275000X0.150000X-0.275000X0.150000X0.275000X0*%
%ADD37RoundRect,0.040000X-0.150000X0.260000X-0.150000X-0.260000X0.150000X-0.260000X0.150000X0.260000X0*%
%ADD38RoundRect,0.040000X0.150000X-0.260000X0.150000X0.260000X-0.150000X0.260000X-0.150000X-0.260000X0*%
%ADD39C,0.400000*%
G04 APERTURE END LIST*
D10*
%TO.C,R2*%
X18360000Y-25615000D03*
X18360000Y-23965000D03*
%TD*%
D11*
%TO.C,R22*%
X18380000Y-41600000D03*
X18380000Y-43250000D03*
%TD*%
D12*
%TO.C,C16*%
X18380000Y-47875000D03*
X18380000Y-49425000D03*
%TD*%
D11*
%TO.C,R28*%
X18330000Y-59575000D03*
X18330000Y-57925000D03*
%TD*%
D13*
%TO.C,C19*%
X18380000Y-55600000D03*
X18380000Y-54050000D03*
%TD*%
D12*
%TO.C,C23*%
X18330000Y-61500000D03*
X18330000Y-63050000D03*
%TD*%
D11*
%TO.C,R1*%
X18400000Y-22595000D03*
X18400000Y-20945000D03*
%TD*%
D14*
%TO.C,FB1*%
X18380000Y-52587500D03*
X18380000Y-51012500D03*
%TD*%
D12*
%TO.C,C15*%
X18350000Y-35750000D03*
X18350000Y-34200000D03*
%TD*%
%TO.C,C11*%
X18350000Y-29625000D03*
X18350000Y-28075000D03*
%TD*%
D10*
%TO.C,R17*%
X18350000Y-32725000D03*
X18350000Y-31075000D03*
%TD*%
%TO.C,R29*%
X18330000Y-64685000D03*
X18330000Y-66335000D03*
%TD*%
%TO.C,R19*%
X18380000Y-40050000D03*
X18380000Y-38400000D03*
%TD*%
%TO.C,R23*%
X18380000Y-46350000D03*
X18380000Y-44700000D03*
%TD*%
D15*
%TO.C,C30*%
X26050000Y-39440000D03*
X27010000Y-39440000D03*
%TD*%
D16*
%TO.C,J3*%
X35010000Y-21950000D03*
X35010000Y-24490000D03*
X35010000Y-27030000D03*
X35010000Y-29570000D03*
X35010000Y-32110000D03*
X35010000Y-34650000D03*
X35010000Y-37190000D03*
X35010000Y-39730000D03*
X35010000Y-42270000D03*
X35010000Y-44810000D03*
X35010000Y-47350000D03*
X35010000Y-49890000D03*
X35010000Y-52430000D03*
X35010000Y-54970000D03*
X35010000Y-57510000D03*
X35010000Y-60050000D03*
X35010000Y-62590000D03*
X35010000Y-65130000D03*
X35010000Y-67670000D03*
X35010000Y-70210000D03*
%TD*%
D17*
%TO.C,J2*%
X37140000Y-63890000D03*
X37140000Y-61350000D03*
X37140000Y-58810000D03*
X37140000Y-56270000D03*
X37140000Y-53730000D03*
X37140000Y-51190000D03*
X37140000Y-48650000D03*
X37140000Y-46110000D03*
X37140000Y-43570000D03*
X37140000Y-41030000D03*
X37140000Y-38490000D03*
X37140000Y-35950000D03*
X37140000Y-33410000D03*
D18*
X37140000Y-30870000D03*
%TD*%
D16*
%TO.C,J4*%
X19770000Y-70210000D03*
X19770000Y-67670000D03*
X19770000Y-65130000D03*
X19770000Y-62590000D03*
X19770000Y-60050000D03*
X19770000Y-57510000D03*
X19770000Y-54970000D03*
X19770000Y-52430000D03*
X19770000Y-49890000D03*
X19770000Y-47350000D03*
X19770000Y-44810000D03*
X19770000Y-42270000D03*
X19770000Y-39730000D03*
X19770000Y-37190000D03*
X19770000Y-34650000D03*
X19770000Y-32110000D03*
X19770000Y-29570000D03*
X19770000Y-27030000D03*
X19770000Y-24490000D03*
X19770000Y-21950000D03*
%TD*%
D19*
%TO.C,C10*%
X23260000Y-28540000D03*
X24220000Y-28540000D03*
%TD*%
D20*
%TO.C,R11*%
X31660000Y-29680000D03*
X31660000Y-28660000D03*
%TD*%
D10*
%TO.C,R18*%
X33550000Y-32950000D03*
X33550000Y-31300000D03*
%TD*%
D21*
%TO.C,L1*%
X26825000Y-68223704D03*
X26825000Y-70548704D03*
%TD*%
D22*
%TO.C,R21*%
X30490000Y-39460000D03*
X31510000Y-39460000D03*
%TD*%
D13*
%TO.C,C7*%
X36929056Y-26820000D03*
X36929056Y-28370000D03*
%TD*%
%TO.C,C26*%
X22270000Y-67670000D03*
X22270000Y-69220000D03*
%TD*%
D23*
%TO.C,C27*%
X24750000Y-70698704D03*
X23200000Y-70698704D03*
%TD*%
D24*
%TO.C,R33*%
X30570000Y-28660000D03*
X30570000Y-29680000D03*
%TD*%
D25*
%TO.C,J1*%
X21995000Y-24200000D03*
D26*
X21995000Y-21660000D03*
X24535000Y-24200000D03*
X24535000Y-21660000D03*
X27075000Y-24200000D03*
X27075000Y-21660000D03*
%TD*%
D13*
%TO.C,C24*%
X37100000Y-68250000D03*
X37100000Y-69800000D03*
%TD*%
D27*
%TO.C,U2*%
X25402199Y-27802199D03*
X25402199Y-28302200D03*
X25402199Y-28802200D03*
X25402199Y-29302201D03*
D28*
X26099998Y-30000000D03*
X26599999Y-30000000D03*
X27099999Y-30000000D03*
X27600000Y-30000000D03*
D27*
X28297799Y-29302201D03*
X28297799Y-28802200D03*
X28297799Y-28302200D03*
X28297799Y-27802199D03*
D28*
X27600000Y-27104400D03*
X27099999Y-27104400D03*
X26599999Y-27104400D03*
X26099998Y-27104400D03*
%TD*%
D23*
%TO.C,C22*%
X26035000Y-56450000D03*
X24485000Y-56450000D03*
%TD*%
D20*
%TO.C,R12*%
X32700000Y-29680000D03*
X32700000Y-28660000D03*
%TD*%
D11*
%TO.C,R26*%
X25810000Y-53375000D03*
X25810000Y-55025000D03*
%TD*%
D22*
%TO.C,R31*%
X24752719Y-39440000D03*
X23732719Y-39440000D03*
%TD*%
D13*
%TO.C,C18*%
X27870000Y-53825000D03*
X27870000Y-55375000D03*
%TD*%
D29*
%TO.C,R20*%
X29130000Y-39440000D03*
X28110000Y-39440000D03*
%TD*%
%TO.C,R9*%
X24090000Y-27380000D03*
X23070000Y-27380000D03*
%TD*%
%TO.C,R15*%
X22380000Y-31220000D03*
X21360000Y-31220000D03*
%TD*%
D30*
%TO.C,Y1*%
X31402760Y-70498704D03*
X31402760Y-68398704D03*
X29752760Y-68398704D03*
X29752760Y-70498704D03*
%TD*%
D31*
%TO.C,C14*%
X29590000Y-29650000D03*
X29590000Y-28690000D03*
%TD*%
D32*
%TO.C,U5*%
X33424999Y-58204800D03*
X33025000Y-58204800D03*
X32624998Y-58204800D03*
X32224999Y-58204800D03*
X31825000Y-58204800D03*
X31425001Y-58204800D03*
X31024999Y-58204800D03*
X30625000Y-58204800D03*
X30225001Y-58204800D03*
X29824999Y-58204800D03*
X29425000Y-58204800D03*
X29025001Y-58204800D03*
X28624999Y-58204800D03*
X28225000Y-58204800D03*
X27825000Y-58204800D03*
X27425001Y-58204800D03*
X27024999Y-58204800D03*
X26625000Y-58204800D03*
X26225001Y-58204800D03*
X25824999Y-58204800D03*
X25425000Y-58204800D03*
X25025001Y-58204800D03*
X24624999Y-58204800D03*
X24225000Y-58204800D03*
X23825001Y-58204800D03*
X23425002Y-58204800D03*
X23025000Y-58204800D03*
X22625001Y-58204800D03*
X22625001Y-63945200D03*
X23025000Y-63945200D03*
X23425002Y-63945200D03*
X23825001Y-63945200D03*
X24225000Y-63945200D03*
X24624999Y-63945200D03*
X25025001Y-63945200D03*
X25425000Y-63945200D03*
X25824999Y-63945200D03*
X26225001Y-63945200D03*
X26625000Y-63945200D03*
X27024999Y-63945200D03*
X27425001Y-63945200D03*
X27825000Y-63945200D03*
X28225000Y-63945200D03*
X28624999Y-63945200D03*
X29025001Y-63945200D03*
X29425000Y-63945200D03*
X29824999Y-63945200D03*
X30225001Y-63945200D03*
X30625000Y-63945200D03*
X31024999Y-63945200D03*
X31424998Y-63945200D03*
X31825000Y-63945200D03*
X32224999Y-63945200D03*
X32624998Y-63945200D03*
X33025000Y-63945200D03*
X33424999Y-63945200D03*
%TD*%
D33*
%TO.C,C17*%
X31700000Y-53231824D03*
X31700000Y-54191824D03*
%TD*%
D11*
%TO.C,R5*%
X32325000Y-24050000D03*
X32325000Y-25700000D03*
%TD*%
D20*
%TO.C,R24*%
X30700000Y-54246824D03*
X30700000Y-53226824D03*
%TD*%
D19*
%TO.C,C9*%
X32020000Y-27780000D03*
X32980000Y-27780000D03*
%TD*%
D34*
%TO.C,U1*%
X31475000Y-21139261D03*
X30967000Y-21139261D03*
X30967000Y-22688661D03*
X31475000Y-22688661D03*
D35*
X31221000Y-21913961D03*
%TD*%
D12*
%TO.C,C1*%
X36960000Y-22455000D03*
X36960000Y-20905000D03*
%TD*%
D29*
%TO.C,R14*%
X30520000Y-30650000D03*
X29500000Y-30650000D03*
%TD*%
D15*
%TO.C,C13*%
X22150000Y-28310000D03*
X21190000Y-28310000D03*
%TD*%
D29*
%TO.C,R32*%
X22210000Y-29290000D03*
X21190000Y-29290000D03*
%TD*%
D22*
%TO.C,R13*%
X23130000Y-30250000D03*
X24150000Y-30250000D03*
%TD*%
D12*
%TO.C,C3*%
X29625000Y-22550000D03*
X29625000Y-21000000D03*
%TD*%
D32*
%TO.C,U3*%
X21600001Y-38289600D03*
X22000000Y-38289600D03*
X22400002Y-38289600D03*
X22800001Y-38289600D03*
X23200000Y-38289600D03*
X23599999Y-38289600D03*
X24000001Y-38289600D03*
X24400000Y-38289600D03*
X24799999Y-38289600D03*
X25200001Y-38289600D03*
X25600000Y-38289600D03*
X25999999Y-38289600D03*
X26400001Y-38289600D03*
X26800000Y-38289600D03*
X27200000Y-38289600D03*
X27599999Y-38289600D03*
X28000001Y-38289600D03*
X28400000Y-38289600D03*
X28799999Y-38289600D03*
X29200001Y-38289600D03*
X29600000Y-38289600D03*
X29999999Y-38289600D03*
X30400001Y-38289600D03*
X30800000Y-38289600D03*
X31199999Y-38289600D03*
X31599998Y-38289600D03*
X32000000Y-38289600D03*
X32399999Y-38289600D03*
X32399999Y-32549200D03*
X32000000Y-32549200D03*
X31599998Y-32549200D03*
X31199999Y-32549200D03*
X30800000Y-32549200D03*
X30400001Y-32549200D03*
X29999999Y-32549200D03*
X29600000Y-32549200D03*
X29200001Y-32549200D03*
X28799999Y-32549200D03*
X28400000Y-32549200D03*
X28000001Y-32549200D03*
X27599999Y-32549200D03*
X27200000Y-32549200D03*
X26800000Y-32549200D03*
X26400001Y-32549200D03*
X25999999Y-32549200D03*
X25600000Y-32549200D03*
X25200001Y-32549200D03*
X24799999Y-32549200D03*
X24400000Y-32549200D03*
X24000001Y-32549200D03*
X23600002Y-32549200D03*
X23200000Y-32549200D03*
X22800001Y-32549200D03*
X22400002Y-32549200D03*
X22000000Y-32549200D03*
X21600001Y-32549200D03*
%TD*%
D11*
%TO.C,R3*%
X33750000Y-23925000D03*
X33750000Y-25575000D03*
%TD*%
D29*
%TO.C,R7*%
X24120000Y-26440000D03*
X23100000Y-26440000D03*
%TD*%
%TO.C,R8*%
X30650000Y-26830000D03*
X29630000Y-26830000D03*
%TD*%
D19*
%TO.C,C28*%
X31390000Y-30600000D03*
X32350000Y-30600000D03*
%TD*%
D36*
%TO.C,U6*%
X24625000Y-68313692D03*
D37*
X24125000Y-68298704D03*
X23625000Y-68298704D03*
D38*
X23625000Y-69038704D03*
X24125000Y-69038704D03*
X24625000Y-69038704D03*
%TD*%
D15*
%TO.C,C6*%
X22150000Y-27370000D03*
X21190000Y-27370000D03*
%TD*%
D19*
%TO.C,C21*%
X30295000Y-56066824D03*
X31255000Y-56066824D03*
%TD*%
D29*
%TO.C,R6*%
X22200000Y-26440000D03*
X21180000Y-26440000D03*
%TD*%
D13*
%TO.C,C4*%
X36950000Y-23865000D03*
X36950000Y-25415000D03*
%TD*%
%TO.C,C5*%
X30900000Y-24100000D03*
X30900000Y-25650000D03*
%TD*%
D24*
%TO.C,R30*%
X32640000Y-53210000D03*
X32640000Y-54230000D03*
%TD*%
D13*
%TO.C,C2*%
X32850000Y-20975000D03*
X32850000Y-22525000D03*
%TD*%
D29*
%TO.C,R16*%
X24240000Y-31320000D03*
X23220000Y-31320000D03*
%TD*%
D22*
%TO.C,R10*%
X31580000Y-26830000D03*
X32600000Y-26830000D03*
%TD*%
D15*
%TO.C,C20*%
X31970000Y-55136824D03*
X31010000Y-55136824D03*
%TD*%
D19*
%TO.C,C29*%
X25100000Y-31120000D03*
X26060000Y-31120000D03*
%TD*%
D12*
%TO.C,C25*%
X33027760Y-70248704D03*
X33027760Y-68698704D03*
%TD*%
D10*
%TO.C,R4*%
X29475000Y-25700000D03*
X29475000Y-24050000D03*
%TD*%
D15*
%TO.C,C8*%
X30630000Y-27760000D03*
X29670000Y-27760000D03*
%TD*%
D39*
%TO.C,U4*%
X22474600Y-41497166D03*
X23274600Y-41497166D03*
X24074600Y-41497166D03*
X24874600Y-41497166D03*
X25674600Y-41497166D03*
X26474600Y-41497166D03*
X27274600Y-41497166D03*
X28074600Y-41497166D03*
X28874600Y-41497166D03*
X29674600Y-41497166D03*
X30474600Y-41497166D03*
X31274600Y-41497166D03*
X32074600Y-41497166D03*
X22474600Y-42297166D03*
X23274600Y-42297166D03*
X24074600Y-42297166D03*
X24874600Y-42297166D03*
X25674600Y-42297166D03*
X26474600Y-42297166D03*
X27274600Y-42297166D03*
X28074600Y-42297166D03*
X28874600Y-42297166D03*
X29674600Y-42297166D03*
X30474600Y-42297166D03*
X31274600Y-42297166D03*
X32074600Y-42297166D03*
X22474600Y-43097166D03*
X23274600Y-43097166D03*
X24074600Y-43097166D03*
X24874600Y-43097166D03*
X25674600Y-43097166D03*
X26474600Y-43097166D03*
X27274600Y-43097166D03*
X28074600Y-43097166D03*
X28874600Y-43097166D03*
X29674600Y-43097166D03*
X30474600Y-43097166D03*
X31274600Y-43097166D03*
X32074600Y-43097166D03*
X22474600Y-43897166D03*
X23274600Y-43897166D03*
X24074600Y-43897166D03*
X24874600Y-43897166D03*
X25674600Y-43897166D03*
X26474600Y-43897166D03*
X27274600Y-43897166D03*
X28074600Y-43897166D03*
X28874600Y-43897166D03*
X29674600Y-43897166D03*
X30474600Y-43897166D03*
X31274600Y-43897166D03*
X32074600Y-43897166D03*
X22474600Y-44697166D03*
X23274600Y-44697166D03*
X24074600Y-44697166D03*
X24874600Y-44697166D03*
X25674600Y-44697166D03*
X26474600Y-44697166D03*
X27274600Y-44697166D03*
X28074600Y-44697166D03*
X28874600Y-44697166D03*
X29674600Y-44697166D03*
X30474600Y-44697166D03*
X31274600Y-44697166D03*
X32074600Y-44697166D03*
X22474600Y-45497166D03*
X23274600Y-45497166D03*
X24074600Y-45497166D03*
X24874600Y-45497166D03*
X25674600Y-45497166D03*
X26474600Y-45497166D03*
X27274600Y-45497166D03*
X28074600Y-45497166D03*
X28874600Y-45497166D03*
X29674600Y-45497166D03*
X30474600Y-45497166D03*
X31274600Y-45497166D03*
X32074600Y-45497166D03*
X22474600Y-46297166D03*
X23274600Y-46297166D03*
X24074600Y-46297166D03*
X24874600Y-46297166D03*
X25674600Y-46297166D03*
X26474600Y-46297166D03*
X27274600Y-46297166D03*
X28074600Y-46297166D03*
X28874600Y-46297166D03*
X29674600Y-46297166D03*
X30474600Y-46297166D03*
X31274600Y-46297166D03*
X32074600Y-46297166D03*
X22474600Y-47097166D03*
X23274600Y-47097166D03*
X24074600Y-47097166D03*
X24874600Y-47097166D03*
X25674600Y-47097166D03*
X26474600Y-47097166D03*
X27274600Y-47097166D03*
X28074600Y-47097166D03*
X28874600Y-47097166D03*
X29674600Y-47097166D03*
X30474600Y-47097166D03*
X31274600Y-47097166D03*
X32074600Y-47097166D03*
X22474600Y-47897166D03*
X23274600Y-47897166D03*
X24074600Y-47897166D03*
X24874600Y-47897166D03*
X25674600Y-47897166D03*
X26474600Y-47897166D03*
X27274600Y-47897166D03*
X28074600Y-47897166D03*
X28874600Y-47897166D03*
X29674600Y-47897166D03*
X30474600Y-47897166D03*
X31274600Y-47897166D03*
X32074600Y-47897166D03*
X22474600Y-48697166D03*
X23274600Y-48697166D03*
X24074600Y-48697166D03*
X24874600Y-48697166D03*
X25674600Y-48697166D03*
X26474600Y-48697166D03*
X27274600Y-48697166D03*
X28074600Y-48697166D03*
X28874600Y-48697166D03*
X29674600Y-48697166D03*
X30474600Y-48697166D03*
X31274600Y-48697166D03*
X32074600Y-48697166D03*
X22474600Y-49497166D03*
X23274600Y-49497166D03*
X24074600Y-49497166D03*
X24874600Y-49497166D03*
X25674600Y-49497166D03*
X26474600Y-49497166D03*
X27274600Y-49497166D03*
X28074600Y-49497166D03*
X28874600Y-49497166D03*
X29674600Y-49497166D03*
X30474600Y-49497166D03*
X31274600Y-49497166D03*
X32074600Y-49497166D03*
X22474600Y-50297166D03*
X23274600Y-50297166D03*
X24074600Y-50297166D03*
X24874600Y-50297166D03*
X25674600Y-50297166D03*
X26474600Y-50297166D03*
X27274600Y-50297166D03*
X28074600Y-50297166D03*
X28874600Y-50297166D03*
X29674600Y-50297166D03*
X30474600Y-50297166D03*
X31274600Y-50297166D03*
X32074600Y-50297166D03*
X22474600Y-51097166D03*
X23274600Y-51097166D03*
X24074600Y-51097166D03*
X24874600Y-51097166D03*
X25674600Y-51097166D03*
X26474600Y-51097166D03*
X27274600Y-51097166D03*
X28074600Y-51097166D03*
X28874600Y-51097166D03*
X29674600Y-51097166D03*
X30474600Y-51097166D03*
X31274600Y-51097166D03*
X32074600Y-51097166D03*
%TD*%
D10*
%TO.C,R25*%
X24310000Y-55025000D03*
X24310000Y-53375000D03*
%TD*%
D15*
%TO.C,C12*%
X22200000Y-30260000D03*
X21240000Y-30260000D03*
%TD*%
D22*
%TO.C,R27*%
X29030000Y-55136824D03*
X30050000Y-55136824D03*
%TD*%
M02*
