G75*
%MOIN*%
%OFA0B0*%
%FSLAX24Y24*%
%IPPOS*%
%LPD*%
%AMOC8*
5,1,8,0,0,1.08239X$1,22.5*
%
%ADD10R,0.0434X0.0356*%
%ADD11R,0.0356X0.0434*%
%ADD12C,0.0237*%
%ADD13R,0.0280X0.0380*%
%ADD14C,0.0037*%
%ADD15R,0.0198X0.0297*%
%ADD16R,0.0198X0.0285*%
%ADD17C,0.0010*%
%ADD18R,0.0867X0.0316*%
%ADD19C,0.0820*%
%ADD20C,0.0046*%
%ADD21R,0.0180X0.0340*%
%ADD22R,0.0420X0.0280*%
%ADD23R,0.0178X0.0320*%
%ADD24OC8,0.0600*%
%ADD25OC8,0.0720*%
%ADD26R,0.0336X0.0434*%
%ADD27OC8,0.0376*%
D10*
X002400Y006056D03*
X002400Y006567D03*
X001000Y006962D03*
X001000Y007474D03*
X001000Y008362D03*
X001000Y008874D03*
X001080Y012462D03*
X001080Y012974D03*
X001120Y013742D03*
X001120Y014254D03*
X001090Y015822D03*
X001090Y016334D03*
X001100Y017022D03*
X001100Y017534D03*
X001100Y018222D03*
X001100Y018734D03*
X001100Y019539D03*
X001100Y020051D03*
X001100Y021162D03*
X001100Y021674D03*
X001090Y023162D03*
X001090Y023674D03*
X001100Y024482D03*
X001100Y024994D03*
X003720Y021674D03*
X003720Y021162D03*
X008240Y011274D03*
X008240Y010762D03*
X008240Y010074D03*
X008240Y009562D03*
X008240Y008734D03*
X008240Y008222D03*
X008240Y007534D03*
X008240Y007022D03*
X008240Y006274D03*
X008240Y005762D03*
X005920Y006122D03*
X005920Y006634D03*
D11*
X005976Y005558D03*
X005464Y005558D03*
X003576Y005541D03*
X003064Y005541D03*
X005404Y023718D03*
X005916Y023718D03*
X006584Y023718D03*
X007096Y023718D03*
D12*
X006626Y016944D03*
X006626Y016629D03*
X006626Y016314D03*
X006626Y015999D03*
X006626Y015684D03*
X006626Y015369D03*
X006626Y015054D03*
X006626Y014739D03*
X006626Y014424D03*
X006626Y014109D03*
X006626Y013794D03*
X006626Y013479D03*
X006626Y013164D03*
X006311Y013164D03*
X006311Y013479D03*
X006311Y013794D03*
X006311Y014109D03*
X006311Y014424D03*
X006311Y014739D03*
X006311Y015054D03*
X006311Y015369D03*
X006311Y015684D03*
X006311Y015999D03*
X006311Y016314D03*
X006311Y016629D03*
X006311Y016944D03*
X005996Y016944D03*
X005996Y016629D03*
X005996Y016314D03*
X005996Y015999D03*
X005996Y015684D03*
X005996Y015369D03*
X005996Y015054D03*
X005996Y014739D03*
X005996Y014424D03*
X005996Y014109D03*
X005996Y013794D03*
X005996Y013479D03*
X005996Y013164D03*
X005681Y013164D03*
X005681Y013479D03*
X005681Y013794D03*
X005681Y014109D03*
X005681Y014424D03*
X005681Y014739D03*
X005681Y015054D03*
X005681Y015369D03*
X005681Y015684D03*
X005681Y015999D03*
X005681Y016314D03*
X005681Y016629D03*
X005681Y016944D03*
X005366Y016944D03*
X005366Y016629D03*
X005366Y016314D03*
X005366Y015999D03*
X005366Y015684D03*
X005366Y015369D03*
X005366Y015054D03*
X005366Y014739D03*
X005366Y014424D03*
X005366Y014109D03*
X005366Y013794D03*
X005366Y013479D03*
X005366Y013164D03*
X005051Y013164D03*
X005051Y013479D03*
X005051Y013794D03*
X005051Y014109D03*
X005051Y014424D03*
X005051Y014739D03*
X005051Y015054D03*
X005051Y015369D03*
X005051Y015684D03*
X005051Y015999D03*
X005051Y016314D03*
X005051Y016629D03*
X005051Y016944D03*
X004737Y016944D03*
X004737Y016629D03*
X004737Y016314D03*
X004737Y015999D03*
X004737Y015684D03*
X004737Y015369D03*
X004737Y015054D03*
X004737Y014739D03*
X004737Y014424D03*
X004737Y014109D03*
X004737Y013794D03*
X004737Y013479D03*
X004737Y013164D03*
X004422Y013164D03*
X004422Y013479D03*
X004422Y013794D03*
X004422Y014109D03*
X004422Y014424D03*
X004422Y014739D03*
X004422Y015054D03*
X004422Y015369D03*
X004422Y015684D03*
X004422Y015999D03*
X004422Y016314D03*
X004422Y016629D03*
X004422Y016944D03*
X004107Y016944D03*
X004107Y016629D03*
X004107Y016314D03*
X004107Y015999D03*
X004107Y015684D03*
X004107Y015369D03*
X004107Y015054D03*
X004107Y014739D03*
X004107Y014424D03*
X004107Y014109D03*
X004107Y013794D03*
X004107Y013479D03*
X004107Y013164D03*
X003792Y013164D03*
X003792Y013479D03*
X003792Y013794D03*
X003792Y014109D03*
X003792Y014424D03*
X003792Y014739D03*
X003792Y015054D03*
X003792Y015369D03*
X003792Y015684D03*
X003792Y015999D03*
X003792Y016314D03*
X003792Y016629D03*
X003792Y016944D03*
X003477Y016944D03*
X003477Y016629D03*
X003477Y016314D03*
X003477Y015999D03*
X003477Y015684D03*
X003477Y015369D03*
X003477Y015054D03*
X003477Y014739D03*
X003477Y014424D03*
X003477Y014109D03*
X003477Y013794D03*
X003477Y013479D03*
X003477Y013164D03*
X003162Y013164D03*
X003162Y013479D03*
X003162Y013794D03*
X003162Y014109D03*
X003162Y014424D03*
X003162Y014739D03*
X003162Y015054D03*
X003162Y015369D03*
X003162Y015684D03*
X003162Y015999D03*
X003162Y016314D03*
X003162Y016629D03*
X003162Y016944D03*
X002847Y016944D03*
X002847Y016629D03*
X002847Y016314D03*
X002847Y015999D03*
X002847Y015684D03*
X002847Y015369D03*
X002847Y015054D03*
X002847Y014739D03*
X002847Y014424D03*
X002847Y014109D03*
X002847Y013794D03*
X002847Y013479D03*
X002847Y013164D03*
D13*
X006205Y022678D03*
X006205Y023278D03*
X006530Y023278D03*
X006830Y023278D03*
X006830Y022678D03*
X006530Y022678D03*
X007155Y022678D03*
X007155Y023278D03*
D14*
X007002Y020669D02*
X007002Y019967D01*
X006890Y019967D01*
X006890Y020669D01*
X007002Y020669D01*
X007002Y020004D02*
X006890Y020004D01*
X006890Y020041D02*
X007002Y020041D01*
X007002Y020078D02*
X006890Y020078D01*
X006890Y020115D02*
X007002Y020115D01*
X007002Y020152D02*
X006890Y020152D01*
X006890Y020189D02*
X007002Y020189D01*
X007002Y020226D02*
X006890Y020226D01*
X006890Y020263D02*
X007002Y020263D01*
X007002Y020300D02*
X006890Y020300D01*
X006890Y020337D02*
X007002Y020337D01*
X007002Y020374D02*
X006890Y020374D01*
X006890Y020411D02*
X007002Y020411D01*
X007002Y020448D02*
X006890Y020448D01*
X006890Y020485D02*
X007002Y020485D01*
X007002Y020522D02*
X006890Y020522D01*
X006890Y020559D02*
X007002Y020559D01*
X007002Y020596D02*
X006890Y020596D01*
X006890Y020633D02*
X007002Y020633D01*
X006845Y020669D02*
X006845Y019967D01*
X006733Y019967D01*
X006733Y020669D01*
X006845Y020669D01*
X006845Y020004D02*
X006733Y020004D01*
X006733Y020041D02*
X006845Y020041D01*
X006845Y020078D02*
X006733Y020078D01*
X006733Y020115D02*
X006845Y020115D01*
X006845Y020152D02*
X006733Y020152D01*
X006733Y020189D02*
X006845Y020189D01*
X006845Y020226D02*
X006733Y020226D01*
X006733Y020263D02*
X006845Y020263D01*
X006845Y020300D02*
X006733Y020300D01*
X006733Y020337D02*
X006845Y020337D01*
X006845Y020374D02*
X006733Y020374D01*
X006733Y020411D02*
X006845Y020411D01*
X006845Y020448D02*
X006733Y020448D01*
X006733Y020485D02*
X006845Y020485D01*
X006845Y020522D02*
X006733Y020522D01*
X006733Y020559D02*
X006845Y020559D01*
X006845Y020596D02*
X006733Y020596D01*
X006733Y020633D02*
X006845Y020633D01*
X006687Y020669D02*
X006687Y019967D01*
X006575Y019967D01*
X006575Y020669D01*
X006687Y020669D01*
X006687Y020004D02*
X006575Y020004D01*
X006575Y020041D02*
X006687Y020041D01*
X006687Y020078D02*
X006575Y020078D01*
X006575Y020115D02*
X006687Y020115D01*
X006687Y020152D02*
X006575Y020152D01*
X006575Y020189D02*
X006687Y020189D01*
X006687Y020226D02*
X006575Y020226D01*
X006575Y020263D02*
X006687Y020263D01*
X006687Y020300D02*
X006575Y020300D01*
X006575Y020337D02*
X006687Y020337D01*
X006687Y020374D02*
X006575Y020374D01*
X006575Y020411D02*
X006687Y020411D01*
X006687Y020448D02*
X006575Y020448D01*
X006575Y020485D02*
X006687Y020485D01*
X006687Y020522D02*
X006575Y020522D01*
X006575Y020559D02*
X006687Y020559D01*
X006687Y020596D02*
X006575Y020596D01*
X006575Y020633D02*
X006687Y020633D01*
X006530Y020669D02*
X006530Y019967D01*
X006418Y019967D01*
X006418Y020669D01*
X006530Y020669D01*
X006530Y020004D02*
X006418Y020004D01*
X006418Y020041D02*
X006530Y020041D01*
X006530Y020078D02*
X006418Y020078D01*
X006418Y020115D02*
X006530Y020115D01*
X006530Y020152D02*
X006418Y020152D01*
X006418Y020189D02*
X006530Y020189D01*
X006530Y020226D02*
X006418Y020226D01*
X006418Y020263D02*
X006530Y020263D01*
X006530Y020300D02*
X006418Y020300D01*
X006418Y020337D02*
X006530Y020337D01*
X006530Y020374D02*
X006418Y020374D01*
X006418Y020411D02*
X006530Y020411D01*
X006530Y020448D02*
X006418Y020448D01*
X006418Y020485D02*
X006530Y020485D01*
X006530Y020522D02*
X006418Y020522D01*
X006418Y020559D02*
X006530Y020559D01*
X006530Y020596D02*
X006418Y020596D01*
X006418Y020633D02*
X006530Y020633D01*
X006372Y020669D02*
X006372Y019967D01*
X006260Y019967D01*
X006260Y020669D01*
X006372Y020669D01*
X006372Y020004D02*
X006260Y020004D01*
X006260Y020041D02*
X006372Y020041D01*
X006372Y020078D02*
X006260Y020078D01*
X006260Y020115D02*
X006372Y020115D01*
X006372Y020152D02*
X006260Y020152D01*
X006260Y020189D02*
X006372Y020189D01*
X006372Y020226D02*
X006260Y020226D01*
X006260Y020263D02*
X006372Y020263D01*
X006372Y020300D02*
X006260Y020300D01*
X006260Y020337D02*
X006372Y020337D01*
X006372Y020374D02*
X006260Y020374D01*
X006260Y020411D02*
X006372Y020411D01*
X006372Y020448D02*
X006260Y020448D01*
X006260Y020485D02*
X006372Y020485D01*
X006372Y020522D02*
X006260Y020522D01*
X006260Y020559D02*
X006372Y020559D01*
X006372Y020596D02*
X006260Y020596D01*
X006260Y020633D02*
X006372Y020633D01*
X006215Y020669D02*
X006215Y019967D01*
X006103Y019967D01*
X006103Y020669D01*
X006215Y020669D01*
X006215Y020004D02*
X006103Y020004D01*
X006103Y020041D02*
X006215Y020041D01*
X006215Y020078D02*
X006103Y020078D01*
X006103Y020115D02*
X006215Y020115D01*
X006215Y020152D02*
X006103Y020152D01*
X006103Y020189D02*
X006215Y020189D01*
X006215Y020226D02*
X006103Y020226D01*
X006103Y020263D02*
X006215Y020263D01*
X006215Y020300D02*
X006103Y020300D01*
X006103Y020337D02*
X006215Y020337D01*
X006215Y020374D02*
X006103Y020374D01*
X006103Y020411D02*
X006215Y020411D01*
X006215Y020448D02*
X006103Y020448D01*
X006103Y020485D02*
X006215Y020485D01*
X006215Y020522D02*
X006103Y020522D01*
X006103Y020559D02*
X006215Y020559D01*
X006215Y020596D02*
X006103Y020596D01*
X006103Y020633D02*
X006215Y020633D01*
X006057Y020669D02*
X006057Y019967D01*
X005945Y019967D01*
X005945Y020669D01*
X006057Y020669D01*
X006057Y020004D02*
X005945Y020004D01*
X005945Y020041D02*
X006057Y020041D01*
X006057Y020078D02*
X005945Y020078D01*
X005945Y020115D02*
X006057Y020115D01*
X006057Y020152D02*
X005945Y020152D01*
X005945Y020189D02*
X006057Y020189D01*
X006057Y020226D02*
X005945Y020226D01*
X005945Y020263D02*
X006057Y020263D01*
X006057Y020300D02*
X005945Y020300D01*
X005945Y020337D02*
X006057Y020337D01*
X006057Y020374D02*
X005945Y020374D01*
X005945Y020411D02*
X006057Y020411D01*
X006057Y020448D02*
X005945Y020448D01*
X005945Y020485D02*
X006057Y020485D01*
X006057Y020522D02*
X005945Y020522D01*
X005945Y020559D02*
X006057Y020559D01*
X006057Y020596D02*
X005945Y020596D01*
X005945Y020633D02*
X006057Y020633D01*
X005900Y020669D02*
X005900Y019967D01*
X005788Y019967D01*
X005788Y020669D01*
X005900Y020669D01*
X005900Y020004D02*
X005788Y020004D01*
X005788Y020041D02*
X005900Y020041D01*
X005900Y020078D02*
X005788Y020078D01*
X005788Y020115D02*
X005900Y020115D01*
X005900Y020152D02*
X005788Y020152D01*
X005788Y020189D02*
X005900Y020189D01*
X005900Y020226D02*
X005788Y020226D01*
X005788Y020263D02*
X005900Y020263D01*
X005900Y020300D02*
X005788Y020300D01*
X005788Y020337D02*
X005900Y020337D01*
X005900Y020374D02*
X005788Y020374D01*
X005788Y020411D02*
X005900Y020411D01*
X005900Y020448D02*
X005788Y020448D01*
X005788Y020485D02*
X005900Y020485D01*
X005900Y020522D02*
X005788Y020522D01*
X005788Y020559D02*
X005900Y020559D01*
X005900Y020596D02*
X005788Y020596D01*
X005788Y020633D02*
X005900Y020633D01*
X005742Y020669D02*
X005742Y019967D01*
X005630Y019967D01*
X005630Y020669D01*
X005742Y020669D01*
X005742Y020004D02*
X005630Y020004D01*
X005630Y020041D02*
X005742Y020041D01*
X005742Y020078D02*
X005630Y020078D01*
X005630Y020115D02*
X005742Y020115D01*
X005742Y020152D02*
X005630Y020152D01*
X005630Y020189D02*
X005742Y020189D01*
X005742Y020226D02*
X005630Y020226D01*
X005630Y020263D02*
X005742Y020263D01*
X005742Y020300D02*
X005630Y020300D01*
X005630Y020337D02*
X005742Y020337D01*
X005742Y020374D02*
X005630Y020374D01*
X005630Y020411D02*
X005742Y020411D01*
X005742Y020448D02*
X005630Y020448D01*
X005630Y020485D02*
X005742Y020485D01*
X005742Y020522D02*
X005630Y020522D01*
X005630Y020559D02*
X005742Y020559D01*
X005742Y020596D02*
X005630Y020596D01*
X005630Y020633D02*
X005742Y020633D01*
X005585Y020669D02*
X005585Y019967D01*
X005473Y019967D01*
X005473Y020669D01*
X005585Y020669D01*
X005585Y020004D02*
X005473Y020004D01*
X005473Y020041D02*
X005585Y020041D01*
X005585Y020078D02*
X005473Y020078D01*
X005473Y020115D02*
X005585Y020115D01*
X005585Y020152D02*
X005473Y020152D01*
X005473Y020189D02*
X005585Y020189D01*
X005585Y020226D02*
X005473Y020226D01*
X005473Y020263D02*
X005585Y020263D01*
X005585Y020300D02*
X005473Y020300D01*
X005473Y020337D02*
X005585Y020337D01*
X005585Y020374D02*
X005473Y020374D01*
X005473Y020411D02*
X005585Y020411D01*
X005585Y020448D02*
X005473Y020448D01*
X005473Y020485D02*
X005585Y020485D01*
X005585Y020522D02*
X005473Y020522D01*
X005473Y020559D02*
X005585Y020559D01*
X005585Y020596D02*
X005473Y020596D01*
X005473Y020633D02*
X005585Y020633D01*
X005427Y020669D02*
X005427Y019967D01*
X005315Y019967D01*
X005315Y020669D01*
X005427Y020669D01*
X005427Y020004D02*
X005315Y020004D01*
X005315Y020041D02*
X005427Y020041D01*
X005427Y020078D02*
X005315Y020078D01*
X005315Y020115D02*
X005427Y020115D01*
X005427Y020152D02*
X005315Y020152D01*
X005315Y020189D02*
X005427Y020189D01*
X005427Y020226D02*
X005315Y020226D01*
X005315Y020263D02*
X005427Y020263D01*
X005427Y020300D02*
X005315Y020300D01*
X005315Y020337D02*
X005427Y020337D01*
X005427Y020374D02*
X005315Y020374D01*
X005315Y020411D02*
X005427Y020411D01*
X005427Y020448D02*
X005315Y020448D01*
X005315Y020485D02*
X005427Y020485D01*
X005427Y020522D02*
X005315Y020522D01*
X005315Y020559D02*
X005427Y020559D01*
X005427Y020596D02*
X005315Y020596D01*
X005315Y020633D02*
X005427Y020633D01*
X005270Y020669D02*
X005270Y019967D01*
X005158Y019967D01*
X005158Y020669D01*
X005270Y020669D01*
X005270Y020004D02*
X005158Y020004D01*
X005158Y020041D02*
X005270Y020041D01*
X005270Y020078D02*
X005158Y020078D01*
X005158Y020115D02*
X005270Y020115D01*
X005270Y020152D02*
X005158Y020152D01*
X005158Y020189D02*
X005270Y020189D01*
X005270Y020226D02*
X005158Y020226D01*
X005158Y020263D02*
X005270Y020263D01*
X005270Y020300D02*
X005158Y020300D01*
X005158Y020337D02*
X005270Y020337D01*
X005270Y020374D02*
X005158Y020374D01*
X005158Y020411D02*
X005270Y020411D01*
X005270Y020448D02*
X005158Y020448D01*
X005158Y020485D02*
X005270Y020485D01*
X005270Y020522D02*
X005158Y020522D01*
X005158Y020559D02*
X005270Y020559D01*
X005270Y020596D02*
X005158Y020596D01*
X005158Y020633D02*
X005270Y020633D01*
X005112Y020669D02*
X005112Y019967D01*
X005000Y019967D01*
X005000Y020669D01*
X005112Y020669D01*
X005112Y020004D02*
X005000Y020004D01*
X005000Y020041D02*
X005112Y020041D01*
X005112Y020078D02*
X005000Y020078D01*
X005000Y020115D02*
X005112Y020115D01*
X005112Y020152D02*
X005000Y020152D01*
X005000Y020189D02*
X005112Y020189D01*
X005112Y020226D02*
X005000Y020226D01*
X005000Y020263D02*
X005112Y020263D01*
X005112Y020300D02*
X005000Y020300D01*
X005000Y020337D02*
X005112Y020337D01*
X005112Y020374D02*
X005000Y020374D01*
X005000Y020411D02*
X005112Y020411D01*
X005112Y020448D02*
X005000Y020448D01*
X005000Y020485D02*
X005112Y020485D01*
X005112Y020522D02*
X005000Y020522D01*
X005000Y020559D02*
X005112Y020559D01*
X005112Y020596D02*
X005000Y020596D01*
X005000Y020633D02*
X005112Y020633D01*
X004955Y020669D02*
X004955Y019967D01*
X004843Y019967D01*
X004843Y020669D01*
X004955Y020669D01*
X004955Y020004D02*
X004843Y020004D01*
X004843Y020041D02*
X004955Y020041D01*
X004955Y020078D02*
X004843Y020078D01*
X004843Y020115D02*
X004955Y020115D01*
X004955Y020152D02*
X004843Y020152D01*
X004843Y020189D02*
X004955Y020189D01*
X004955Y020226D02*
X004843Y020226D01*
X004843Y020263D02*
X004955Y020263D01*
X004955Y020300D02*
X004843Y020300D01*
X004843Y020337D02*
X004955Y020337D01*
X004955Y020374D02*
X004843Y020374D01*
X004843Y020411D02*
X004955Y020411D01*
X004955Y020448D02*
X004843Y020448D01*
X004843Y020485D02*
X004955Y020485D01*
X004955Y020522D02*
X004843Y020522D01*
X004843Y020559D02*
X004955Y020559D01*
X004955Y020596D02*
X004843Y020596D01*
X004843Y020633D02*
X004955Y020633D01*
X004797Y020669D02*
X004797Y019967D01*
X004685Y019967D01*
X004685Y020669D01*
X004797Y020669D01*
X004797Y020004D02*
X004685Y020004D01*
X004685Y020041D02*
X004797Y020041D01*
X004797Y020078D02*
X004685Y020078D01*
X004685Y020115D02*
X004797Y020115D01*
X004797Y020152D02*
X004685Y020152D01*
X004685Y020189D02*
X004797Y020189D01*
X004797Y020226D02*
X004685Y020226D01*
X004685Y020263D02*
X004797Y020263D01*
X004797Y020300D02*
X004685Y020300D01*
X004685Y020337D02*
X004797Y020337D01*
X004797Y020374D02*
X004685Y020374D01*
X004685Y020411D02*
X004797Y020411D01*
X004797Y020448D02*
X004685Y020448D01*
X004685Y020485D02*
X004797Y020485D01*
X004797Y020522D02*
X004685Y020522D01*
X004685Y020559D02*
X004797Y020559D01*
X004797Y020596D02*
X004685Y020596D01*
X004685Y020633D02*
X004797Y020633D01*
X004640Y020669D02*
X004640Y019967D01*
X004528Y019967D01*
X004528Y020669D01*
X004640Y020669D01*
X004640Y020004D02*
X004528Y020004D01*
X004528Y020041D02*
X004640Y020041D01*
X004640Y020078D02*
X004528Y020078D01*
X004528Y020115D02*
X004640Y020115D01*
X004640Y020152D02*
X004528Y020152D01*
X004528Y020189D02*
X004640Y020189D01*
X004640Y020226D02*
X004528Y020226D01*
X004528Y020263D02*
X004640Y020263D01*
X004640Y020300D02*
X004528Y020300D01*
X004528Y020337D02*
X004640Y020337D01*
X004640Y020374D02*
X004528Y020374D01*
X004528Y020411D02*
X004640Y020411D01*
X004640Y020448D02*
X004528Y020448D01*
X004528Y020485D02*
X004640Y020485D01*
X004640Y020522D02*
X004528Y020522D01*
X004528Y020559D02*
X004640Y020559D01*
X004640Y020596D02*
X004528Y020596D01*
X004528Y020633D02*
X004640Y020633D01*
X004482Y020669D02*
X004482Y019967D01*
X004370Y019967D01*
X004370Y020669D01*
X004482Y020669D01*
X004482Y020004D02*
X004370Y020004D01*
X004370Y020041D02*
X004482Y020041D01*
X004482Y020078D02*
X004370Y020078D01*
X004370Y020115D02*
X004482Y020115D01*
X004482Y020152D02*
X004370Y020152D01*
X004370Y020189D02*
X004482Y020189D01*
X004482Y020226D02*
X004370Y020226D01*
X004370Y020263D02*
X004482Y020263D01*
X004482Y020300D02*
X004370Y020300D01*
X004370Y020337D02*
X004482Y020337D01*
X004482Y020374D02*
X004370Y020374D01*
X004370Y020411D02*
X004482Y020411D01*
X004482Y020448D02*
X004370Y020448D01*
X004370Y020485D02*
X004482Y020485D01*
X004482Y020522D02*
X004370Y020522D01*
X004370Y020559D02*
X004482Y020559D01*
X004482Y020596D02*
X004370Y020596D01*
X004370Y020633D02*
X004482Y020633D01*
X004325Y020669D02*
X004325Y019967D01*
X004213Y019967D01*
X004213Y020669D01*
X004325Y020669D01*
X004325Y020004D02*
X004213Y020004D01*
X004213Y020041D02*
X004325Y020041D01*
X004325Y020078D02*
X004213Y020078D01*
X004213Y020115D02*
X004325Y020115D01*
X004325Y020152D02*
X004213Y020152D01*
X004213Y020189D02*
X004325Y020189D01*
X004325Y020226D02*
X004213Y020226D01*
X004213Y020263D02*
X004325Y020263D01*
X004325Y020300D02*
X004213Y020300D01*
X004213Y020337D02*
X004325Y020337D01*
X004325Y020374D02*
X004213Y020374D01*
X004213Y020411D02*
X004325Y020411D01*
X004325Y020448D02*
X004213Y020448D01*
X004213Y020485D02*
X004325Y020485D01*
X004325Y020522D02*
X004213Y020522D01*
X004213Y020559D02*
X004325Y020559D01*
X004325Y020596D02*
X004213Y020596D01*
X004213Y020633D02*
X004325Y020633D01*
X004167Y020669D02*
X004167Y019967D01*
X004055Y019967D01*
X004055Y020669D01*
X004167Y020669D01*
X004167Y020004D02*
X004055Y020004D01*
X004055Y020041D02*
X004167Y020041D01*
X004167Y020078D02*
X004055Y020078D01*
X004055Y020115D02*
X004167Y020115D01*
X004167Y020152D02*
X004055Y020152D01*
X004055Y020189D02*
X004167Y020189D01*
X004167Y020226D02*
X004055Y020226D01*
X004055Y020263D02*
X004167Y020263D01*
X004167Y020300D02*
X004055Y020300D01*
X004055Y020337D02*
X004167Y020337D01*
X004167Y020374D02*
X004055Y020374D01*
X004055Y020411D02*
X004167Y020411D01*
X004167Y020448D02*
X004055Y020448D01*
X004055Y020485D02*
X004167Y020485D01*
X004167Y020522D02*
X004055Y020522D01*
X004055Y020559D02*
X004167Y020559D01*
X004167Y020596D02*
X004055Y020596D01*
X004055Y020633D02*
X004167Y020633D01*
X004010Y020669D02*
X004010Y019967D01*
X003898Y019967D01*
X003898Y020669D01*
X004010Y020669D01*
X004010Y020004D02*
X003898Y020004D01*
X003898Y020041D02*
X004010Y020041D01*
X004010Y020078D02*
X003898Y020078D01*
X003898Y020115D02*
X004010Y020115D01*
X004010Y020152D02*
X003898Y020152D01*
X003898Y020189D02*
X004010Y020189D01*
X004010Y020226D02*
X003898Y020226D01*
X003898Y020263D02*
X004010Y020263D01*
X004010Y020300D02*
X003898Y020300D01*
X003898Y020337D02*
X004010Y020337D01*
X004010Y020374D02*
X003898Y020374D01*
X003898Y020411D02*
X004010Y020411D01*
X004010Y020448D02*
X003898Y020448D01*
X003898Y020485D02*
X004010Y020485D01*
X004010Y020522D02*
X003898Y020522D01*
X003898Y020559D02*
X004010Y020559D01*
X004010Y020596D02*
X003898Y020596D01*
X003898Y020633D02*
X004010Y020633D01*
X003852Y020669D02*
X003852Y019967D01*
X003740Y019967D01*
X003740Y020669D01*
X003852Y020669D01*
X003852Y020004D02*
X003740Y020004D01*
X003740Y020041D02*
X003852Y020041D01*
X003852Y020078D02*
X003740Y020078D01*
X003740Y020115D02*
X003852Y020115D01*
X003852Y020152D02*
X003740Y020152D01*
X003740Y020189D02*
X003852Y020189D01*
X003852Y020226D02*
X003740Y020226D01*
X003740Y020263D02*
X003852Y020263D01*
X003852Y020300D02*
X003740Y020300D01*
X003740Y020337D02*
X003852Y020337D01*
X003852Y020374D02*
X003740Y020374D01*
X003740Y020411D02*
X003852Y020411D01*
X003852Y020448D02*
X003740Y020448D01*
X003740Y020485D02*
X003852Y020485D01*
X003852Y020522D02*
X003740Y020522D01*
X003740Y020559D02*
X003852Y020559D01*
X003852Y020596D02*
X003740Y020596D01*
X003740Y020633D02*
X003852Y020633D01*
X003695Y020669D02*
X003695Y019967D01*
X003583Y019967D01*
X003583Y020669D01*
X003695Y020669D01*
X003695Y020004D02*
X003583Y020004D01*
X003583Y020041D02*
X003695Y020041D01*
X003695Y020078D02*
X003583Y020078D01*
X003583Y020115D02*
X003695Y020115D01*
X003695Y020152D02*
X003583Y020152D01*
X003583Y020189D02*
X003695Y020189D01*
X003695Y020226D02*
X003583Y020226D01*
X003583Y020263D02*
X003695Y020263D01*
X003695Y020300D02*
X003583Y020300D01*
X003583Y020337D02*
X003695Y020337D01*
X003695Y020374D02*
X003583Y020374D01*
X003583Y020411D02*
X003695Y020411D01*
X003695Y020448D02*
X003583Y020448D01*
X003583Y020485D02*
X003695Y020485D01*
X003695Y020522D02*
X003583Y020522D01*
X003583Y020559D02*
X003695Y020559D01*
X003695Y020596D02*
X003583Y020596D01*
X003583Y020633D02*
X003695Y020633D01*
X003537Y020669D02*
X003537Y019967D01*
X003425Y019967D01*
X003425Y020669D01*
X003537Y020669D01*
X003537Y020004D02*
X003425Y020004D01*
X003425Y020041D02*
X003537Y020041D01*
X003537Y020078D02*
X003425Y020078D01*
X003425Y020115D02*
X003537Y020115D01*
X003537Y020152D02*
X003425Y020152D01*
X003425Y020189D02*
X003537Y020189D01*
X003537Y020226D02*
X003425Y020226D01*
X003425Y020263D02*
X003537Y020263D01*
X003537Y020300D02*
X003425Y020300D01*
X003425Y020337D02*
X003537Y020337D01*
X003537Y020374D02*
X003425Y020374D01*
X003425Y020411D02*
X003537Y020411D01*
X003537Y020448D02*
X003425Y020448D01*
X003425Y020485D02*
X003537Y020485D01*
X003537Y020522D02*
X003425Y020522D01*
X003425Y020559D02*
X003537Y020559D01*
X003537Y020596D02*
X003425Y020596D01*
X003425Y020633D02*
X003537Y020633D01*
X003380Y020669D02*
X003380Y019967D01*
X003268Y019967D01*
X003268Y020669D01*
X003380Y020669D01*
X003380Y020004D02*
X003268Y020004D01*
X003268Y020041D02*
X003380Y020041D01*
X003380Y020078D02*
X003268Y020078D01*
X003268Y020115D02*
X003380Y020115D01*
X003380Y020152D02*
X003268Y020152D01*
X003268Y020189D02*
X003380Y020189D01*
X003380Y020226D02*
X003268Y020226D01*
X003268Y020263D02*
X003380Y020263D01*
X003380Y020300D02*
X003268Y020300D01*
X003268Y020337D02*
X003380Y020337D01*
X003380Y020374D02*
X003268Y020374D01*
X003268Y020411D02*
X003380Y020411D01*
X003380Y020448D02*
X003268Y020448D01*
X003268Y020485D02*
X003380Y020485D01*
X003380Y020522D02*
X003268Y020522D01*
X003268Y020559D02*
X003380Y020559D01*
X003380Y020596D02*
X003268Y020596D01*
X003268Y020633D02*
X003380Y020633D01*
X003222Y020669D02*
X003222Y019967D01*
X003110Y019967D01*
X003110Y020669D01*
X003222Y020669D01*
X003222Y020004D02*
X003110Y020004D01*
X003110Y020041D02*
X003222Y020041D01*
X003222Y020078D02*
X003110Y020078D01*
X003110Y020115D02*
X003222Y020115D01*
X003222Y020152D02*
X003110Y020152D01*
X003110Y020189D02*
X003222Y020189D01*
X003222Y020226D02*
X003110Y020226D01*
X003110Y020263D02*
X003222Y020263D01*
X003222Y020300D02*
X003110Y020300D01*
X003110Y020337D02*
X003222Y020337D01*
X003222Y020374D02*
X003110Y020374D01*
X003110Y020411D02*
X003222Y020411D01*
X003222Y020448D02*
X003110Y020448D01*
X003110Y020485D02*
X003222Y020485D01*
X003222Y020522D02*
X003110Y020522D01*
X003110Y020559D02*
X003222Y020559D01*
X003222Y020596D02*
X003110Y020596D01*
X003110Y020633D02*
X003222Y020633D01*
X003065Y020669D02*
X003065Y019967D01*
X002953Y019967D01*
X002953Y020669D01*
X003065Y020669D01*
X003065Y020004D02*
X002953Y020004D01*
X002953Y020041D02*
X003065Y020041D01*
X003065Y020078D02*
X002953Y020078D01*
X002953Y020115D02*
X003065Y020115D01*
X003065Y020152D02*
X002953Y020152D01*
X002953Y020189D02*
X003065Y020189D01*
X003065Y020226D02*
X002953Y020226D01*
X002953Y020263D02*
X003065Y020263D01*
X003065Y020300D02*
X002953Y020300D01*
X002953Y020337D02*
X003065Y020337D01*
X003065Y020374D02*
X002953Y020374D01*
X002953Y020411D02*
X003065Y020411D01*
X003065Y020448D02*
X002953Y020448D01*
X002953Y020485D02*
X003065Y020485D01*
X003065Y020522D02*
X002953Y020522D01*
X002953Y020559D02*
X003065Y020559D01*
X003065Y020596D02*
X002953Y020596D01*
X002953Y020633D02*
X003065Y020633D01*
X002907Y020669D02*
X002907Y019967D01*
X002795Y019967D01*
X002795Y020669D01*
X002907Y020669D01*
X002907Y020004D02*
X002795Y020004D01*
X002795Y020041D02*
X002907Y020041D01*
X002907Y020078D02*
X002795Y020078D01*
X002795Y020115D02*
X002907Y020115D01*
X002907Y020152D02*
X002795Y020152D01*
X002795Y020189D02*
X002907Y020189D01*
X002907Y020226D02*
X002795Y020226D01*
X002795Y020263D02*
X002907Y020263D01*
X002907Y020300D02*
X002795Y020300D01*
X002795Y020337D02*
X002907Y020337D01*
X002907Y020374D02*
X002795Y020374D01*
X002795Y020411D02*
X002907Y020411D01*
X002907Y020448D02*
X002795Y020448D01*
X002795Y020485D02*
X002907Y020485D01*
X002907Y020522D02*
X002795Y020522D01*
X002795Y020559D02*
X002907Y020559D01*
X002907Y020596D02*
X002795Y020596D01*
X002795Y020633D02*
X002907Y020633D01*
X002750Y020669D02*
X002750Y019967D01*
X002638Y019967D01*
X002638Y020669D01*
X002750Y020669D01*
X002750Y020004D02*
X002638Y020004D01*
X002638Y020041D02*
X002750Y020041D01*
X002750Y020078D02*
X002638Y020078D01*
X002638Y020115D02*
X002750Y020115D01*
X002750Y020152D02*
X002638Y020152D01*
X002638Y020189D02*
X002750Y020189D01*
X002750Y020226D02*
X002638Y020226D01*
X002638Y020263D02*
X002750Y020263D01*
X002750Y020300D02*
X002638Y020300D01*
X002638Y020337D02*
X002750Y020337D01*
X002750Y020374D02*
X002638Y020374D01*
X002638Y020411D02*
X002750Y020411D01*
X002750Y020448D02*
X002638Y020448D01*
X002638Y020485D02*
X002750Y020485D01*
X002750Y020522D02*
X002638Y020522D01*
X002638Y020559D02*
X002750Y020559D01*
X002750Y020596D02*
X002638Y020596D01*
X002638Y020633D02*
X002750Y020633D01*
X002750Y018409D02*
X002750Y017707D01*
X002638Y017707D01*
X002638Y018409D01*
X002750Y018409D01*
X002750Y017744D02*
X002638Y017744D01*
X002638Y017781D02*
X002750Y017781D01*
X002750Y017818D02*
X002638Y017818D01*
X002638Y017855D02*
X002750Y017855D01*
X002750Y017892D02*
X002638Y017892D01*
X002638Y017929D02*
X002750Y017929D01*
X002750Y017966D02*
X002638Y017966D01*
X002638Y018003D02*
X002750Y018003D01*
X002750Y018040D02*
X002638Y018040D01*
X002638Y018077D02*
X002750Y018077D01*
X002750Y018114D02*
X002638Y018114D01*
X002638Y018151D02*
X002750Y018151D01*
X002750Y018188D02*
X002638Y018188D01*
X002638Y018225D02*
X002750Y018225D01*
X002750Y018262D02*
X002638Y018262D01*
X002638Y018299D02*
X002750Y018299D01*
X002750Y018336D02*
X002638Y018336D01*
X002638Y018373D02*
X002750Y018373D01*
X002907Y018409D02*
X002907Y017707D01*
X002795Y017707D01*
X002795Y018409D01*
X002907Y018409D01*
X002907Y017744D02*
X002795Y017744D01*
X002795Y017781D02*
X002907Y017781D01*
X002907Y017818D02*
X002795Y017818D01*
X002795Y017855D02*
X002907Y017855D01*
X002907Y017892D02*
X002795Y017892D01*
X002795Y017929D02*
X002907Y017929D01*
X002907Y017966D02*
X002795Y017966D01*
X002795Y018003D02*
X002907Y018003D01*
X002907Y018040D02*
X002795Y018040D01*
X002795Y018077D02*
X002907Y018077D01*
X002907Y018114D02*
X002795Y018114D01*
X002795Y018151D02*
X002907Y018151D01*
X002907Y018188D02*
X002795Y018188D01*
X002795Y018225D02*
X002907Y018225D01*
X002907Y018262D02*
X002795Y018262D01*
X002795Y018299D02*
X002907Y018299D01*
X002907Y018336D02*
X002795Y018336D01*
X002795Y018373D02*
X002907Y018373D01*
X003065Y018409D02*
X003065Y017707D01*
X002953Y017707D01*
X002953Y018409D01*
X003065Y018409D01*
X003065Y017744D02*
X002953Y017744D01*
X002953Y017781D02*
X003065Y017781D01*
X003065Y017818D02*
X002953Y017818D01*
X002953Y017855D02*
X003065Y017855D01*
X003065Y017892D02*
X002953Y017892D01*
X002953Y017929D02*
X003065Y017929D01*
X003065Y017966D02*
X002953Y017966D01*
X002953Y018003D02*
X003065Y018003D01*
X003065Y018040D02*
X002953Y018040D01*
X002953Y018077D02*
X003065Y018077D01*
X003065Y018114D02*
X002953Y018114D01*
X002953Y018151D02*
X003065Y018151D01*
X003065Y018188D02*
X002953Y018188D01*
X002953Y018225D02*
X003065Y018225D01*
X003065Y018262D02*
X002953Y018262D01*
X002953Y018299D02*
X003065Y018299D01*
X003065Y018336D02*
X002953Y018336D01*
X002953Y018373D02*
X003065Y018373D01*
X003222Y018409D02*
X003222Y017707D01*
X003110Y017707D01*
X003110Y018409D01*
X003222Y018409D01*
X003222Y017744D02*
X003110Y017744D01*
X003110Y017781D02*
X003222Y017781D01*
X003222Y017818D02*
X003110Y017818D01*
X003110Y017855D02*
X003222Y017855D01*
X003222Y017892D02*
X003110Y017892D01*
X003110Y017929D02*
X003222Y017929D01*
X003222Y017966D02*
X003110Y017966D01*
X003110Y018003D02*
X003222Y018003D01*
X003222Y018040D02*
X003110Y018040D01*
X003110Y018077D02*
X003222Y018077D01*
X003222Y018114D02*
X003110Y018114D01*
X003110Y018151D02*
X003222Y018151D01*
X003222Y018188D02*
X003110Y018188D01*
X003110Y018225D02*
X003222Y018225D01*
X003222Y018262D02*
X003110Y018262D01*
X003110Y018299D02*
X003222Y018299D01*
X003222Y018336D02*
X003110Y018336D01*
X003110Y018373D02*
X003222Y018373D01*
X003380Y018409D02*
X003380Y017707D01*
X003268Y017707D01*
X003268Y018409D01*
X003380Y018409D01*
X003380Y017744D02*
X003268Y017744D01*
X003268Y017781D02*
X003380Y017781D01*
X003380Y017818D02*
X003268Y017818D01*
X003268Y017855D02*
X003380Y017855D01*
X003380Y017892D02*
X003268Y017892D01*
X003268Y017929D02*
X003380Y017929D01*
X003380Y017966D02*
X003268Y017966D01*
X003268Y018003D02*
X003380Y018003D01*
X003380Y018040D02*
X003268Y018040D01*
X003268Y018077D02*
X003380Y018077D01*
X003380Y018114D02*
X003268Y018114D01*
X003268Y018151D02*
X003380Y018151D01*
X003380Y018188D02*
X003268Y018188D01*
X003268Y018225D02*
X003380Y018225D01*
X003380Y018262D02*
X003268Y018262D01*
X003268Y018299D02*
X003380Y018299D01*
X003380Y018336D02*
X003268Y018336D01*
X003268Y018373D02*
X003380Y018373D01*
X003537Y018409D02*
X003537Y017707D01*
X003425Y017707D01*
X003425Y018409D01*
X003537Y018409D01*
X003537Y017744D02*
X003425Y017744D01*
X003425Y017781D02*
X003537Y017781D01*
X003537Y017818D02*
X003425Y017818D01*
X003425Y017855D02*
X003537Y017855D01*
X003537Y017892D02*
X003425Y017892D01*
X003425Y017929D02*
X003537Y017929D01*
X003537Y017966D02*
X003425Y017966D01*
X003425Y018003D02*
X003537Y018003D01*
X003537Y018040D02*
X003425Y018040D01*
X003425Y018077D02*
X003537Y018077D01*
X003537Y018114D02*
X003425Y018114D01*
X003425Y018151D02*
X003537Y018151D01*
X003537Y018188D02*
X003425Y018188D01*
X003425Y018225D02*
X003537Y018225D01*
X003537Y018262D02*
X003425Y018262D01*
X003425Y018299D02*
X003537Y018299D01*
X003537Y018336D02*
X003425Y018336D01*
X003425Y018373D02*
X003537Y018373D01*
X003695Y018409D02*
X003695Y017707D01*
X003583Y017707D01*
X003583Y018409D01*
X003695Y018409D01*
X003695Y017744D02*
X003583Y017744D01*
X003583Y017781D02*
X003695Y017781D01*
X003695Y017818D02*
X003583Y017818D01*
X003583Y017855D02*
X003695Y017855D01*
X003695Y017892D02*
X003583Y017892D01*
X003583Y017929D02*
X003695Y017929D01*
X003695Y017966D02*
X003583Y017966D01*
X003583Y018003D02*
X003695Y018003D01*
X003695Y018040D02*
X003583Y018040D01*
X003583Y018077D02*
X003695Y018077D01*
X003695Y018114D02*
X003583Y018114D01*
X003583Y018151D02*
X003695Y018151D01*
X003695Y018188D02*
X003583Y018188D01*
X003583Y018225D02*
X003695Y018225D01*
X003695Y018262D02*
X003583Y018262D01*
X003583Y018299D02*
X003695Y018299D01*
X003695Y018336D02*
X003583Y018336D01*
X003583Y018373D02*
X003695Y018373D01*
X003852Y018409D02*
X003852Y017707D01*
X003740Y017707D01*
X003740Y018409D01*
X003852Y018409D01*
X003852Y017744D02*
X003740Y017744D01*
X003740Y017781D02*
X003852Y017781D01*
X003852Y017818D02*
X003740Y017818D01*
X003740Y017855D02*
X003852Y017855D01*
X003852Y017892D02*
X003740Y017892D01*
X003740Y017929D02*
X003852Y017929D01*
X003852Y017966D02*
X003740Y017966D01*
X003740Y018003D02*
X003852Y018003D01*
X003852Y018040D02*
X003740Y018040D01*
X003740Y018077D02*
X003852Y018077D01*
X003852Y018114D02*
X003740Y018114D01*
X003740Y018151D02*
X003852Y018151D01*
X003852Y018188D02*
X003740Y018188D01*
X003740Y018225D02*
X003852Y018225D01*
X003852Y018262D02*
X003740Y018262D01*
X003740Y018299D02*
X003852Y018299D01*
X003852Y018336D02*
X003740Y018336D01*
X003740Y018373D02*
X003852Y018373D01*
X004010Y018409D02*
X004010Y017707D01*
X003898Y017707D01*
X003898Y018409D01*
X004010Y018409D01*
X004010Y017744D02*
X003898Y017744D01*
X003898Y017781D02*
X004010Y017781D01*
X004010Y017818D02*
X003898Y017818D01*
X003898Y017855D02*
X004010Y017855D01*
X004010Y017892D02*
X003898Y017892D01*
X003898Y017929D02*
X004010Y017929D01*
X004010Y017966D02*
X003898Y017966D01*
X003898Y018003D02*
X004010Y018003D01*
X004010Y018040D02*
X003898Y018040D01*
X003898Y018077D02*
X004010Y018077D01*
X004010Y018114D02*
X003898Y018114D01*
X003898Y018151D02*
X004010Y018151D01*
X004010Y018188D02*
X003898Y018188D01*
X003898Y018225D02*
X004010Y018225D01*
X004010Y018262D02*
X003898Y018262D01*
X003898Y018299D02*
X004010Y018299D01*
X004010Y018336D02*
X003898Y018336D01*
X003898Y018373D02*
X004010Y018373D01*
X004167Y018409D02*
X004167Y017707D01*
X004055Y017707D01*
X004055Y018409D01*
X004167Y018409D01*
X004167Y017744D02*
X004055Y017744D01*
X004055Y017781D02*
X004167Y017781D01*
X004167Y017818D02*
X004055Y017818D01*
X004055Y017855D02*
X004167Y017855D01*
X004167Y017892D02*
X004055Y017892D01*
X004055Y017929D02*
X004167Y017929D01*
X004167Y017966D02*
X004055Y017966D01*
X004055Y018003D02*
X004167Y018003D01*
X004167Y018040D02*
X004055Y018040D01*
X004055Y018077D02*
X004167Y018077D01*
X004167Y018114D02*
X004055Y018114D01*
X004055Y018151D02*
X004167Y018151D01*
X004167Y018188D02*
X004055Y018188D01*
X004055Y018225D02*
X004167Y018225D01*
X004167Y018262D02*
X004055Y018262D01*
X004055Y018299D02*
X004167Y018299D01*
X004167Y018336D02*
X004055Y018336D01*
X004055Y018373D02*
X004167Y018373D01*
X004325Y018409D02*
X004325Y017707D01*
X004213Y017707D01*
X004213Y018409D01*
X004325Y018409D01*
X004325Y017744D02*
X004213Y017744D01*
X004213Y017781D02*
X004325Y017781D01*
X004325Y017818D02*
X004213Y017818D01*
X004213Y017855D02*
X004325Y017855D01*
X004325Y017892D02*
X004213Y017892D01*
X004213Y017929D02*
X004325Y017929D01*
X004325Y017966D02*
X004213Y017966D01*
X004213Y018003D02*
X004325Y018003D01*
X004325Y018040D02*
X004213Y018040D01*
X004213Y018077D02*
X004325Y018077D01*
X004325Y018114D02*
X004213Y018114D01*
X004213Y018151D02*
X004325Y018151D01*
X004325Y018188D02*
X004213Y018188D01*
X004213Y018225D02*
X004325Y018225D01*
X004325Y018262D02*
X004213Y018262D01*
X004213Y018299D02*
X004325Y018299D01*
X004325Y018336D02*
X004213Y018336D01*
X004213Y018373D02*
X004325Y018373D01*
X004482Y018409D02*
X004482Y017707D01*
X004370Y017707D01*
X004370Y018409D01*
X004482Y018409D01*
X004482Y017744D02*
X004370Y017744D01*
X004370Y017781D02*
X004482Y017781D01*
X004482Y017818D02*
X004370Y017818D01*
X004370Y017855D02*
X004482Y017855D01*
X004482Y017892D02*
X004370Y017892D01*
X004370Y017929D02*
X004482Y017929D01*
X004482Y017966D02*
X004370Y017966D01*
X004370Y018003D02*
X004482Y018003D01*
X004482Y018040D02*
X004370Y018040D01*
X004370Y018077D02*
X004482Y018077D01*
X004482Y018114D02*
X004370Y018114D01*
X004370Y018151D02*
X004482Y018151D01*
X004482Y018188D02*
X004370Y018188D01*
X004370Y018225D02*
X004482Y018225D01*
X004482Y018262D02*
X004370Y018262D01*
X004370Y018299D02*
X004482Y018299D01*
X004482Y018336D02*
X004370Y018336D01*
X004370Y018373D02*
X004482Y018373D01*
X004640Y018409D02*
X004640Y017707D01*
X004528Y017707D01*
X004528Y018409D01*
X004640Y018409D01*
X004640Y017744D02*
X004528Y017744D01*
X004528Y017781D02*
X004640Y017781D01*
X004640Y017818D02*
X004528Y017818D01*
X004528Y017855D02*
X004640Y017855D01*
X004640Y017892D02*
X004528Y017892D01*
X004528Y017929D02*
X004640Y017929D01*
X004640Y017966D02*
X004528Y017966D01*
X004528Y018003D02*
X004640Y018003D01*
X004640Y018040D02*
X004528Y018040D01*
X004528Y018077D02*
X004640Y018077D01*
X004640Y018114D02*
X004528Y018114D01*
X004528Y018151D02*
X004640Y018151D01*
X004640Y018188D02*
X004528Y018188D01*
X004528Y018225D02*
X004640Y018225D01*
X004640Y018262D02*
X004528Y018262D01*
X004528Y018299D02*
X004640Y018299D01*
X004640Y018336D02*
X004528Y018336D01*
X004528Y018373D02*
X004640Y018373D01*
X004797Y018409D02*
X004797Y017707D01*
X004685Y017707D01*
X004685Y018409D01*
X004797Y018409D01*
X004797Y017744D02*
X004685Y017744D01*
X004685Y017781D02*
X004797Y017781D01*
X004797Y017818D02*
X004685Y017818D01*
X004685Y017855D02*
X004797Y017855D01*
X004797Y017892D02*
X004685Y017892D01*
X004685Y017929D02*
X004797Y017929D01*
X004797Y017966D02*
X004685Y017966D01*
X004685Y018003D02*
X004797Y018003D01*
X004797Y018040D02*
X004685Y018040D01*
X004685Y018077D02*
X004797Y018077D01*
X004797Y018114D02*
X004685Y018114D01*
X004685Y018151D02*
X004797Y018151D01*
X004797Y018188D02*
X004685Y018188D01*
X004685Y018225D02*
X004797Y018225D01*
X004797Y018262D02*
X004685Y018262D01*
X004685Y018299D02*
X004797Y018299D01*
X004797Y018336D02*
X004685Y018336D01*
X004685Y018373D02*
X004797Y018373D01*
X004955Y018409D02*
X004955Y017707D01*
X004843Y017707D01*
X004843Y018409D01*
X004955Y018409D01*
X004955Y017744D02*
X004843Y017744D01*
X004843Y017781D02*
X004955Y017781D01*
X004955Y017818D02*
X004843Y017818D01*
X004843Y017855D02*
X004955Y017855D01*
X004955Y017892D02*
X004843Y017892D01*
X004843Y017929D02*
X004955Y017929D01*
X004955Y017966D02*
X004843Y017966D01*
X004843Y018003D02*
X004955Y018003D01*
X004955Y018040D02*
X004843Y018040D01*
X004843Y018077D02*
X004955Y018077D01*
X004955Y018114D02*
X004843Y018114D01*
X004843Y018151D02*
X004955Y018151D01*
X004955Y018188D02*
X004843Y018188D01*
X004843Y018225D02*
X004955Y018225D01*
X004955Y018262D02*
X004843Y018262D01*
X004843Y018299D02*
X004955Y018299D01*
X004955Y018336D02*
X004843Y018336D01*
X004843Y018373D02*
X004955Y018373D01*
X005112Y018409D02*
X005112Y017707D01*
X005000Y017707D01*
X005000Y018409D01*
X005112Y018409D01*
X005112Y017744D02*
X005000Y017744D01*
X005000Y017781D02*
X005112Y017781D01*
X005112Y017818D02*
X005000Y017818D01*
X005000Y017855D02*
X005112Y017855D01*
X005112Y017892D02*
X005000Y017892D01*
X005000Y017929D02*
X005112Y017929D01*
X005112Y017966D02*
X005000Y017966D01*
X005000Y018003D02*
X005112Y018003D01*
X005112Y018040D02*
X005000Y018040D01*
X005000Y018077D02*
X005112Y018077D01*
X005112Y018114D02*
X005000Y018114D01*
X005000Y018151D02*
X005112Y018151D01*
X005112Y018188D02*
X005000Y018188D01*
X005000Y018225D02*
X005112Y018225D01*
X005112Y018262D02*
X005000Y018262D01*
X005000Y018299D02*
X005112Y018299D01*
X005112Y018336D02*
X005000Y018336D01*
X005000Y018373D02*
X005112Y018373D01*
X005270Y018409D02*
X005270Y017707D01*
X005158Y017707D01*
X005158Y018409D01*
X005270Y018409D01*
X005270Y017744D02*
X005158Y017744D01*
X005158Y017781D02*
X005270Y017781D01*
X005270Y017818D02*
X005158Y017818D01*
X005158Y017855D02*
X005270Y017855D01*
X005270Y017892D02*
X005158Y017892D01*
X005158Y017929D02*
X005270Y017929D01*
X005270Y017966D02*
X005158Y017966D01*
X005158Y018003D02*
X005270Y018003D01*
X005270Y018040D02*
X005158Y018040D01*
X005158Y018077D02*
X005270Y018077D01*
X005270Y018114D02*
X005158Y018114D01*
X005158Y018151D02*
X005270Y018151D01*
X005270Y018188D02*
X005158Y018188D01*
X005158Y018225D02*
X005270Y018225D01*
X005270Y018262D02*
X005158Y018262D01*
X005158Y018299D02*
X005270Y018299D01*
X005270Y018336D02*
X005158Y018336D01*
X005158Y018373D02*
X005270Y018373D01*
X005427Y018409D02*
X005427Y017707D01*
X005315Y017707D01*
X005315Y018409D01*
X005427Y018409D01*
X005427Y017744D02*
X005315Y017744D01*
X005315Y017781D02*
X005427Y017781D01*
X005427Y017818D02*
X005315Y017818D01*
X005315Y017855D02*
X005427Y017855D01*
X005427Y017892D02*
X005315Y017892D01*
X005315Y017929D02*
X005427Y017929D01*
X005427Y017966D02*
X005315Y017966D01*
X005315Y018003D02*
X005427Y018003D01*
X005427Y018040D02*
X005315Y018040D01*
X005315Y018077D02*
X005427Y018077D01*
X005427Y018114D02*
X005315Y018114D01*
X005315Y018151D02*
X005427Y018151D01*
X005427Y018188D02*
X005315Y018188D01*
X005315Y018225D02*
X005427Y018225D01*
X005427Y018262D02*
X005315Y018262D01*
X005315Y018299D02*
X005427Y018299D01*
X005427Y018336D02*
X005315Y018336D01*
X005315Y018373D02*
X005427Y018373D01*
X005585Y018409D02*
X005585Y017707D01*
X005473Y017707D01*
X005473Y018409D01*
X005585Y018409D01*
X005585Y017744D02*
X005473Y017744D01*
X005473Y017781D02*
X005585Y017781D01*
X005585Y017818D02*
X005473Y017818D01*
X005473Y017855D02*
X005585Y017855D01*
X005585Y017892D02*
X005473Y017892D01*
X005473Y017929D02*
X005585Y017929D01*
X005585Y017966D02*
X005473Y017966D01*
X005473Y018003D02*
X005585Y018003D01*
X005585Y018040D02*
X005473Y018040D01*
X005473Y018077D02*
X005585Y018077D01*
X005585Y018114D02*
X005473Y018114D01*
X005473Y018151D02*
X005585Y018151D01*
X005585Y018188D02*
X005473Y018188D01*
X005473Y018225D02*
X005585Y018225D01*
X005585Y018262D02*
X005473Y018262D01*
X005473Y018299D02*
X005585Y018299D01*
X005585Y018336D02*
X005473Y018336D01*
X005473Y018373D02*
X005585Y018373D01*
X005742Y018409D02*
X005742Y017707D01*
X005630Y017707D01*
X005630Y018409D01*
X005742Y018409D01*
X005742Y017744D02*
X005630Y017744D01*
X005630Y017781D02*
X005742Y017781D01*
X005742Y017818D02*
X005630Y017818D01*
X005630Y017855D02*
X005742Y017855D01*
X005742Y017892D02*
X005630Y017892D01*
X005630Y017929D02*
X005742Y017929D01*
X005742Y017966D02*
X005630Y017966D01*
X005630Y018003D02*
X005742Y018003D01*
X005742Y018040D02*
X005630Y018040D01*
X005630Y018077D02*
X005742Y018077D01*
X005742Y018114D02*
X005630Y018114D01*
X005630Y018151D02*
X005742Y018151D01*
X005742Y018188D02*
X005630Y018188D01*
X005630Y018225D02*
X005742Y018225D01*
X005742Y018262D02*
X005630Y018262D01*
X005630Y018299D02*
X005742Y018299D01*
X005742Y018336D02*
X005630Y018336D01*
X005630Y018373D02*
X005742Y018373D01*
X005900Y018409D02*
X005900Y017707D01*
X005788Y017707D01*
X005788Y018409D01*
X005900Y018409D01*
X005900Y017744D02*
X005788Y017744D01*
X005788Y017781D02*
X005900Y017781D01*
X005900Y017818D02*
X005788Y017818D01*
X005788Y017855D02*
X005900Y017855D01*
X005900Y017892D02*
X005788Y017892D01*
X005788Y017929D02*
X005900Y017929D01*
X005900Y017966D02*
X005788Y017966D01*
X005788Y018003D02*
X005900Y018003D01*
X005900Y018040D02*
X005788Y018040D01*
X005788Y018077D02*
X005900Y018077D01*
X005900Y018114D02*
X005788Y018114D01*
X005788Y018151D02*
X005900Y018151D01*
X005900Y018188D02*
X005788Y018188D01*
X005788Y018225D02*
X005900Y018225D01*
X005900Y018262D02*
X005788Y018262D01*
X005788Y018299D02*
X005900Y018299D01*
X005900Y018336D02*
X005788Y018336D01*
X005788Y018373D02*
X005900Y018373D01*
X006057Y018409D02*
X006057Y017707D01*
X005945Y017707D01*
X005945Y018409D01*
X006057Y018409D01*
X006057Y017744D02*
X005945Y017744D01*
X005945Y017781D02*
X006057Y017781D01*
X006057Y017818D02*
X005945Y017818D01*
X005945Y017855D02*
X006057Y017855D01*
X006057Y017892D02*
X005945Y017892D01*
X005945Y017929D02*
X006057Y017929D01*
X006057Y017966D02*
X005945Y017966D01*
X005945Y018003D02*
X006057Y018003D01*
X006057Y018040D02*
X005945Y018040D01*
X005945Y018077D02*
X006057Y018077D01*
X006057Y018114D02*
X005945Y018114D01*
X005945Y018151D02*
X006057Y018151D01*
X006057Y018188D02*
X005945Y018188D01*
X005945Y018225D02*
X006057Y018225D01*
X006057Y018262D02*
X005945Y018262D01*
X005945Y018299D02*
X006057Y018299D01*
X006057Y018336D02*
X005945Y018336D01*
X005945Y018373D02*
X006057Y018373D01*
X006215Y018409D02*
X006215Y017707D01*
X006103Y017707D01*
X006103Y018409D01*
X006215Y018409D01*
X006215Y017744D02*
X006103Y017744D01*
X006103Y017781D02*
X006215Y017781D01*
X006215Y017818D02*
X006103Y017818D01*
X006103Y017855D02*
X006215Y017855D01*
X006215Y017892D02*
X006103Y017892D01*
X006103Y017929D02*
X006215Y017929D01*
X006215Y017966D02*
X006103Y017966D01*
X006103Y018003D02*
X006215Y018003D01*
X006215Y018040D02*
X006103Y018040D01*
X006103Y018077D02*
X006215Y018077D01*
X006215Y018114D02*
X006103Y018114D01*
X006103Y018151D02*
X006215Y018151D01*
X006215Y018188D02*
X006103Y018188D01*
X006103Y018225D02*
X006215Y018225D01*
X006215Y018262D02*
X006103Y018262D01*
X006103Y018299D02*
X006215Y018299D01*
X006215Y018336D02*
X006103Y018336D01*
X006103Y018373D02*
X006215Y018373D01*
X006372Y018409D02*
X006372Y017707D01*
X006260Y017707D01*
X006260Y018409D01*
X006372Y018409D01*
X006372Y017744D02*
X006260Y017744D01*
X006260Y017781D02*
X006372Y017781D01*
X006372Y017818D02*
X006260Y017818D01*
X006260Y017855D02*
X006372Y017855D01*
X006372Y017892D02*
X006260Y017892D01*
X006260Y017929D02*
X006372Y017929D01*
X006372Y017966D02*
X006260Y017966D01*
X006260Y018003D02*
X006372Y018003D01*
X006372Y018040D02*
X006260Y018040D01*
X006260Y018077D02*
X006372Y018077D01*
X006372Y018114D02*
X006260Y018114D01*
X006260Y018151D02*
X006372Y018151D01*
X006372Y018188D02*
X006260Y018188D01*
X006260Y018225D02*
X006372Y018225D01*
X006372Y018262D02*
X006260Y018262D01*
X006260Y018299D02*
X006372Y018299D01*
X006372Y018336D02*
X006260Y018336D01*
X006260Y018373D02*
X006372Y018373D01*
X006530Y018409D02*
X006530Y017707D01*
X006418Y017707D01*
X006418Y018409D01*
X006530Y018409D01*
X006530Y017744D02*
X006418Y017744D01*
X006418Y017781D02*
X006530Y017781D01*
X006530Y017818D02*
X006418Y017818D01*
X006418Y017855D02*
X006530Y017855D01*
X006530Y017892D02*
X006418Y017892D01*
X006418Y017929D02*
X006530Y017929D01*
X006530Y017966D02*
X006418Y017966D01*
X006418Y018003D02*
X006530Y018003D01*
X006530Y018040D02*
X006418Y018040D01*
X006418Y018077D02*
X006530Y018077D01*
X006530Y018114D02*
X006418Y018114D01*
X006418Y018151D02*
X006530Y018151D01*
X006530Y018188D02*
X006418Y018188D01*
X006418Y018225D02*
X006530Y018225D01*
X006530Y018262D02*
X006418Y018262D01*
X006418Y018299D02*
X006530Y018299D01*
X006530Y018336D02*
X006418Y018336D01*
X006418Y018373D02*
X006530Y018373D01*
X006687Y018409D02*
X006687Y017707D01*
X006575Y017707D01*
X006575Y018409D01*
X006687Y018409D01*
X006687Y017744D02*
X006575Y017744D01*
X006575Y017781D02*
X006687Y017781D01*
X006687Y017818D02*
X006575Y017818D01*
X006575Y017855D02*
X006687Y017855D01*
X006687Y017892D02*
X006575Y017892D01*
X006575Y017929D02*
X006687Y017929D01*
X006687Y017966D02*
X006575Y017966D01*
X006575Y018003D02*
X006687Y018003D01*
X006687Y018040D02*
X006575Y018040D01*
X006575Y018077D02*
X006687Y018077D01*
X006687Y018114D02*
X006575Y018114D01*
X006575Y018151D02*
X006687Y018151D01*
X006687Y018188D02*
X006575Y018188D01*
X006575Y018225D02*
X006687Y018225D01*
X006687Y018262D02*
X006575Y018262D01*
X006575Y018299D02*
X006687Y018299D01*
X006687Y018336D02*
X006575Y018336D01*
X006575Y018373D02*
X006687Y018373D01*
X006845Y018409D02*
X006845Y017707D01*
X006733Y017707D01*
X006733Y018409D01*
X006845Y018409D01*
X006845Y017744D02*
X006733Y017744D01*
X006733Y017781D02*
X006845Y017781D01*
X006845Y017818D02*
X006733Y017818D01*
X006733Y017855D02*
X006845Y017855D01*
X006845Y017892D02*
X006733Y017892D01*
X006733Y017929D02*
X006845Y017929D01*
X006845Y017966D02*
X006733Y017966D01*
X006733Y018003D02*
X006845Y018003D01*
X006845Y018040D02*
X006733Y018040D01*
X006733Y018077D02*
X006845Y018077D01*
X006845Y018114D02*
X006733Y018114D01*
X006733Y018151D02*
X006845Y018151D01*
X006845Y018188D02*
X006733Y018188D01*
X006733Y018225D02*
X006845Y018225D01*
X006845Y018262D02*
X006733Y018262D01*
X006733Y018299D02*
X006845Y018299D01*
X006845Y018336D02*
X006733Y018336D01*
X006733Y018373D02*
X006845Y018373D01*
X007002Y018409D02*
X007002Y017707D01*
X006890Y017707D01*
X006890Y018409D01*
X007002Y018409D01*
X007002Y017744D02*
X006890Y017744D01*
X006890Y017781D02*
X007002Y017781D01*
X007002Y017818D02*
X006890Y017818D01*
X006890Y017855D02*
X007002Y017855D01*
X007002Y017892D02*
X006890Y017892D01*
X006890Y017929D02*
X007002Y017929D01*
X007002Y017966D02*
X006890Y017966D01*
X006890Y018003D02*
X007002Y018003D01*
X007002Y018040D02*
X006890Y018040D01*
X006890Y018077D02*
X007002Y018077D01*
X007002Y018114D02*
X006890Y018114D01*
X006890Y018151D02*
X007002Y018151D01*
X007002Y018188D02*
X006890Y018188D01*
X006890Y018225D02*
X007002Y018225D01*
X007002Y018262D02*
X006890Y018262D01*
X006890Y018299D02*
X007002Y018299D01*
X007002Y018336D02*
X006890Y018336D01*
X006890Y018373D02*
X007002Y018373D01*
X006950Y012047D02*
X006950Y011345D01*
X006950Y012047D02*
X007062Y012047D01*
X007062Y011345D01*
X006950Y011345D01*
X006950Y011382D02*
X007062Y011382D01*
X007062Y011419D02*
X006950Y011419D01*
X006950Y011456D02*
X007062Y011456D01*
X007062Y011493D02*
X006950Y011493D01*
X006950Y011530D02*
X007062Y011530D01*
X007062Y011567D02*
X006950Y011567D01*
X006950Y011604D02*
X007062Y011604D01*
X007062Y011641D02*
X006950Y011641D01*
X006950Y011678D02*
X007062Y011678D01*
X007062Y011715D02*
X006950Y011715D01*
X006950Y011752D02*
X007062Y011752D01*
X007062Y011789D02*
X006950Y011789D01*
X006950Y011826D02*
X007062Y011826D01*
X007062Y011863D02*
X006950Y011863D01*
X006950Y011900D02*
X007062Y011900D01*
X007062Y011937D02*
X006950Y011937D01*
X006950Y011974D02*
X007062Y011974D01*
X007062Y012011D02*
X006950Y012011D01*
X006793Y012047D02*
X006793Y011345D01*
X006793Y012047D02*
X006905Y012047D01*
X006905Y011345D01*
X006793Y011345D01*
X006793Y011382D02*
X006905Y011382D01*
X006905Y011419D02*
X006793Y011419D01*
X006793Y011456D02*
X006905Y011456D01*
X006905Y011493D02*
X006793Y011493D01*
X006793Y011530D02*
X006905Y011530D01*
X006905Y011567D02*
X006793Y011567D01*
X006793Y011604D02*
X006905Y011604D01*
X006905Y011641D02*
X006793Y011641D01*
X006793Y011678D02*
X006905Y011678D01*
X006905Y011715D02*
X006793Y011715D01*
X006793Y011752D02*
X006905Y011752D01*
X006905Y011789D02*
X006793Y011789D01*
X006793Y011826D02*
X006905Y011826D01*
X006905Y011863D02*
X006793Y011863D01*
X006793Y011900D02*
X006905Y011900D01*
X006905Y011937D02*
X006793Y011937D01*
X006793Y011974D02*
X006905Y011974D01*
X006905Y012011D02*
X006793Y012011D01*
X006635Y012047D02*
X006635Y011345D01*
X006635Y012047D02*
X006747Y012047D01*
X006747Y011345D01*
X006635Y011345D01*
X006635Y011382D02*
X006747Y011382D01*
X006747Y011419D02*
X006635Y011419D01*
X006635Y011456D02*
X006747Y011456D01*
X006747Y011493D02*
X006635Y011493D01*
X006635Y011530D02*
X006747Y011530D01*
X006747Y011567D02*
X006635Y011567D01*
X006635Y011604D02*
X006747Y011604D01*
X006747Y011641D02*
X006635Y011641D01*
X006635Y011678D02*
X006747Y011678D01*
X006747Y011715D02*
X006635Y011715D01*
X006635Y011752D02*
X006747Y011752D01*
X006747Y011789D02*
X006635Y011789D01*
X006635Y011826D02*
X006747Y011826D01*
X006747Y011863D02*
X006635Y011863D01*
X006635Y011900D02*
X006747Y011900D01*
X006747Y011937D02*
X006635Y011937D01*
X006635Y011974D02*
X006747Y011974D01*
X006747Y012011D02*
X006635Y012011D01*
X006478Y012047D02*
X006478Y011345D01*
X006478Y012047D02*
X006590Y012047D01*
X006590Y011345D01*
X006478Y011345D01*
X006478Y011382D02*
X006590Y011382D01*
X006590Y011419D02*
X006478Y011419D01*
X006478Y011456D02*
X006590Y011456D01*
X006590Y011493D02*
X006478Y011493D01*
X006478Y011530D02*
X006590Y011530D01*
X006590Y011567D02*
X006478Y011567D01*
X006478Y011604D02*
X006590Y011604D01*
X006590Y011641D02*
X006478Y011641D01*
X006478Y011678D02*
X006590Y011678D01*
X006590Y011715D02*
X006478Y011715D01*
X006478Y011752D02*
X006590Y011752D01*
X006590Y011789D02*
X006478Y011789D01*
X006478Y011826D02*
X006590Y011826D01*
X006590Y011863D02*
X006478Y011863D01*
X006478Y011900D02*
X006590Y011900D01*
X006590Y011937D02*
X006478Y011937D01*
X006478Y011974D02*
X006590Y011974D01*
X006590Y012011D02*
X006478Y012011D01*
X006320Y012047D02*
X006320Y011345D01*
X006320Y012047D02*
X006432Y012047D01*
X006432Y011345D01*
X006320Y011345D01*
X006320Y011382D02*
X006432Y011382D01*
X006432Y011419D02*
X006320Y011419D01*
X006320Y011456D02*
X006432Y011456D01*
X006432Y011493D02*
X006320Y011493D01*
X006320Y011530D02*
X006432Y011530D01*
X006432Y011567D02*
X006320Y011567D01*
X006320Y011604D02*
X006432Y011604D01*
X006432Y011641D02*
X006320Y011641D01*
X006320Y011678D02*
X006432Y011678D01*
X006432Y011715D02*
X006320Y011715D01*
X006320Y011752D02*
X006432Y011752D01*
X006432Y011789D02*
X006320Y011789D01*
X006320Y011826D02*
X006432Y011826D01*
X006432Y011863D02*
X006320Y011863D01*
X006320Y011900D02*
X006432Y011900D01*
X006432Y011937D02*
X006320Y011937D01*
X006320Y011974D02*
X006432Y011974D01*
X006432Y012011D02*
X006320Y012011D01*
X006163Y012047D02*
X006163Y011345D01*
X006163Y012047D02*
X006275Y012047D01*
X006275Y011345D01*
X006163Y011345D01*
X006163Y011382D02*
X006275Y011382D01*
X006275Y011419D02*
X006163Y011419D01*
X006163Y011456D02*
X006275Y011456D01*
X006275Y011493D02*
X006163Y011493D01*
X006163Y011530D02*
X006275Y011530D01*
X006275Y011567D02*
X006163Y011567D01*
X006163Y011604D02*
X006275Y011604D01*
X006275Y011641D02*
X006163Y011641D01*
X006163Y011678D02*
X006275Y011678D01*
X006275Y011715D02*
X006163Y011715D01*
X006163Y011752D02*
X006275Y011752D01*
X006275Y011789D02*
X006163Y011789D01*
X006163Y011826D02*
X006275Y011826D01*
X006275Y011863D02*
X006163Y011863D01*
X006163Y011900D02*
X006275Y011900D01*
X006275Y011937D02*
X006163Y011937D01*
X006163Y011974D02*
X006275Y011974D01*
X006275Y012011D02*
X006163Y012011D01*
X006005Y012047D02*
X006005Y011345D01*
X006005Y012047D02*
X006117Y012047D01*
X006117Y011345D01*
X006005Y011345D01*
X006005Y011382D02*
X006117Y011382D01*
X006117Y011419D02*
X006005Y011419D01*
X006005Y011456D02*
X006117Y011456D01*
X006117Y011493D02*
X006005Y011493D01*
X006005Y011530D02*
X006117Y011530D01*
X006117Y011567D02*
X006005Y011567D01*
X006005Y011604D02*
X006117Y011604D01*
X006117Y011641D02*
X006005Y011641D01*
X006005Y011678D02*
X006117Y011678D01*
X006117Y011715D02*
X006005Y011715D01*
X006005Y011752D02*
X006117Y011752D01*
X006117Y011789D02*
X006005Y011789D01*
X006005Y011826D02*
X006117Y011826D01*
X006117Y011863D02*
X006005Y011863D01*
X006005Y011900D02*
X006117Y011900D01*
X006117Y011937D02*
X006005Y011937D01*
X006005Y011974D02*
X006117Y011974D01*
X006117Y012011D02*
X006005Y012011D01*
X005848Y012047D02*
X005848Y011345D01*
X005848Y012047D02*
X005960Y012047D01*
X005960Y011345D01*
X005848Y011345D01*
X005848Y011382D02*
X005960Y011382D01*
X005960Y011419D02*
X005848Y011419D01*
X005848Y011456D02*
X005960Y011456D01*
X005960Y011493D02*
X005848Y011493D01*
X005848Y011530D02*
X005960Y011530D01*
X005960Y011567D02*
X005848Y011567D01*
X005848Y011604D02*
X005960Y011604D01*
X005960Y011641D02*
X005848Y011641D01*
X005848Y011678D02*
X005960Y011678D01*
X005960Y011715D02*
X005848Y011715D01*
X005848Y011752D02*
X005960Y011752D01*
X005960Y011789D02*
X005848Y011789D01*
X005848Y011826D02*
X005960Y011826D01*
X005960Y011863D02*
X005848Y011863D01*
X005848Y011900D02*
X005960Y011900D01*
X005960Y011937D02*
X005848Y011937D01*
X005848Y011974D02*
X005960Y011974D01*
X005960Y012011D02*
X005848Y012011D01*
X005690Y012047D02*
X005690Y011345D01*
X005690Y012047D02*
X005802Y012047D01*
X005802Y011345D01*
X005690Y011345D01*
X005690Y011382D02*
X005802Y011382D01*
X005802Y011419D02*
X005690Y011419D01*
X005690Y011456D02*
X005802Y011456D01*
X005802Y011493D02*
X005690Y011493D01*
X005690Y011530D02*
X005802Y011530D01*
X005802Y011567D02*
X005690Y011567D01*
X005690Y011604D02*
X005802Y011604D01*
X005802Y011641D02*
X005690Y011641D01*
X005690Y011678D02*
X005802Y011678D01*
X005802Y011715D02*
X005690Y011715D01*
X005690Y011752D02*
X005802Y011752D01*
X005802Y011789D02*
X005690Y011789D01*
X005690Y011826D02*
X005802Y011826D01*
X005802Y011863D02*
X005690Y011863D01*
X005690Y011900D02*
X005802Y011900D01*
X005802Y011937D02*
X005690Y011937D01*
X005690Y011974D02*
X005802Y011974D01*
X005802Y012011D02*
X005690Y012011D01*
X005533Y012047D02*
X005533Y011345D01*
X005533Y012047D02*
X005645Y012047D01*
X005645Y011345D01*
X005533Y011345D01*
X005533Y011382D02*
X005645Y011382D01*
X005645Y011419D02*
X005533Y011419D01*
X005533Y011456D02*
X005645Y011456D01*
X005645Y011493D02*
X005533Y011493D01*
X005533Y011530D02*
X005645Y011530D01*
X005645Y011567D02*
X005533Y011567D01*
X005533Y011604D02*
X005645Y011604D01*
X005645Y011641D02*
X005533Y011641D01*
X005533Y011678D02*
X005645Y011678D01*
X005645Y011715D02*
X005533Y011715D01*
X005533Y011752D02*
X005645Y011752D01*
X005645Y011789D02*
X005533Y011789D01*
X005533Y011826D02*
X005645Y011826D01*
X005645Y011863D02*
X005533Y011863D01*
X005533Y011900D02*
X005645Y011900D01*
X005645Y011937D02*
X005533Y011937D01*
X005533Y011974D02*
X005645Y011974D01*
X005645Y012011D02*
X005533Y012011D01*
X005375Y012047D02*
X005375Y011345D01*
X005375Y012047D02*
X005487Y012047D01*
X005487Y011345D01*
X005375Y011345D01*
X005375Y011382D02*
X005487Y011382D01*
X005487Y011419D02*
X005375Y011419D01*
X005375Y011456D02*
X005487Y011456D01*
X005487Y011493D02*
X005375Y011493D01*
X005375Y011530D02*
X005487Y011530D01*
X005487Y011567D02*
X005375Y011567D01*
X005375Y011604D02*
X005487Y011604D01*
X005487Y011641D02*
X005375Y011641D01*
X005375Y011678D02*
X005487Y011678D01*
X005487Y011715D02*
X005375Y011715D01*
X005375Y011752D02*
X005487Y011752D01*
X005487Y011789D02*
X005375Y011789D01*
X005375Y011826D02*
X005487Y011826D01*
X005487Y011863D02*
X005375Y011863D01*
X005375Y011900D02*
X005487Y011900D01*
X005487Y011937D02*
X005375Y011937D01*
X005375Y011974D02*
X005487Y011974D01*
X005487Y012011D02*
X005375Y012011D01*
X005218Y012047D02*
X005218Y011345D01*
X005218Y012047D02*
X005330Y012047D01*
X005330Y011345D01*
X005218Y011345D01*
X005218Y011382D02*
X005330Y011382D01*
X005330Y011419D02*
X005218Y011419D01*
X005218Y011456D02*
X005330Y011456D01*
X005330Y011493D02*
X005218Y011493D01*
X005218Y011530D02*
X005330Y011530D01*
X005330Y011567D02*
X005218Y011567D01*
X005218Y011604D02*
X005330Y011604D01*
X005330Y011641D02*
X005218Y011641D01*
X005218Y011678D02*
X005330Y011678D01*
X005330Y011715D02*
X005218Y011715D01*
X005218Y011752D02*
X005330Y011752D01*
X005330Y011789D02*
X005218Y011789D01*
X005218Y011826D02*
X005330Y011826D01*
X005330Y011863D02*
X005218Y011863D01*
X005218Y011900D02*
X005330Y011900D01*
X005330Y011937D02*
X005218Y011937D01*
X005218Y011974D02*
X005330Y011974D01*
X005330Y012011D02*
X005218Y012011D01*
X005060Y012047D02*
X005060Y011345D01*
X005060Y012047D02*
X005172Y012047D01*
X005172Y011345D01*
X005060Y011345D01*
X005060Y011382D02*
X005172Y011382D01*
X005172Y011419D02*
X005060Y011419D01*
X005060Y011456D02*
X005172Y011456D01*
X005172Y011493D02*
X005060Y011493D01*
X005060Y011530D02*
X005172Y011530D01*
X005172Y011567D02*
X005060Y011567D01*
X005060Y011604D02*
X005172Y011604D01*
X005172Y011641D02*
X005060Y011641D01*
X005060Y011678D02*
X005172Y011678D01*
X005172Y011715D02*
X005060Y011715D01*
X005060Y011752D02*
X005172Y011752D01*
X005172Y011789D02*
X005060Y011789D01*
X005060Y011826D02*
X005172Y011826D01*
X005172Y011863D02*
X005060Y011863D01*
X005060Y011900D02*
X005172Y011900D01*
X005172Y011937D02*
X005060Y011937D01*
X005060Y011974D02*
X005172Y011974D01*
X005172Y012011D02*
X005060Y012011D01*
X004903Y012047D02*
X004903Y011345D01*
X004903Y012047D02*
X005015Y012047D01*
X005015Y011345D01*
X004903Y011345D01*
X004903Y011382D02*
X005015Y011382D01*
X005015Y011419D02*
X004903Y011419D01*
X004903Y011456D02*
X005015Y011456D01*
X005015Y011493D02*
X004903Y011493D01*
X004903Y011530D02*
X005015Y011530D01*
X005015Y011567D02*
X004903Y011567D01*
X004903Y011604D02*
X005015Y011604D01*
X005015Y011641D02*
X004903Y011641D01*
X004903Y011678D02*
X005015Y011678D01*
X005015Y011715D02*
X004903Y011715D01*
X004903Y011752D02*
X005015Y011752D01*
X005015Y011789D02*
X004903Y011789D01*
X004903Y011826D02*
X005015Y011826D01*
X005015Y011863D02*
X004903Y011863D01*
X004903Y011900D02*
X005015Y011900D01*
X005015Y011937D02*
X004903Y011937D01*
X004903Y011974D02*
X005015Y011974D01*
X005015Y012011D02*
X004903Y012011D01*
X004745Y012047D02*
X004745Y011345D01*
X004745Y012047D02*
X004857Y012047D01*
X004857Y011345D01*
X004745Y011345D01*
X004745Y011382D02*
X004857Y011382D01*
X004857Y011419D02*
X004745Y011419D01*
X004745Y011456D02*
X004857Y011456D01*
X004857Y011493D02*
X004745Y011493D01*
X004745Y011530D02*
X004857Y011530D01*
X004857Y011567D02*
X004745Y011567D01*
X004745Y011604D02*
X004857Y011604D01*
X004857Y011641D02*
X004745Y011641D01*
X004745Y011678D02*
X004857Y011678D01*
X004857Y011715D02*
X004745Y011715D01*
X004745Y011752D02*
X004857Y011752D01*
X004857Y011789D02*
X004745Y011789D01*
X004745Y011826D02*
X004857Y011826D01*
X004857Y011863D02*
X004745Y011863D01*
X004745Y011900D02*
X004857Y011900D01*
X004857Y011937D02*
X004745Y011937D01*
X004745Y011974D02*
X004857Y011974D01*
X004857Y012011D02*
X004745Y012011D01*
X004588Y012047D02*
X004588Y011345D01*
X004588Y012047D02*
X004700Y012047D01*
X004700Y011345D01*
X004588Y011345D01*
X004588Y011382D02*
X004700Y011382D01*
X004700Y011419D02*
X004588Y011419D01*
X004588Y011456D02*
X004700Y011456D01*
X004700Y011493D02*
X004588Y011493D01*
X004588Y011530D02*
X004700Y011530D01*
X004700Y011567D02*
X004588Y011567D01*
X004588Y011604D02*
X004700Y011604D01*
X004700Y011641D02*
X004588Y011641D01*
X004588Y011678D02*
X004700Y011678D01*
X004700Y011715D02*
X004588Y011715D01*
X004588Y011752D02*
X004700Y011752D01*
X004700Y011789D02*
X004588Y011789D01*
X004588Y011826D02*
X004700Y011826D01*
X004700Y011863D02*
X004588Y011863D01*
X004588Y011900D02*
X004700Y011900D01*
X004700Y011937D02*
X004588Y011937D01*
X004588Y011974D02*
X004700Y011974D01*
X004700Y012011D02*
X004588Y012011D01*
X004430Y012047D02*
X004430Y011345D01*
X004430Y012047D02*
X004542Y012047D01*
X004542Y011345D01*
X004430Y011345D01*
X004430Y011382D02*
X004542Y011382D01*
X004542Y011419D02*
X004430Y011419D01*
X004430Y011456D02*
X004542Y011456D01*
X004542Y011493D02*
X004430Y011493D01*
X004430Y011530D02*
X004542Y011530D01*
X004542Y011567D02*
X004430Y011567D01*
X004430Y011604D02*
X004542Y011604D01*
X004542Y011641D02*
X004430Y011641D01*
X004430Y011678D02*
X004542Y011678D01*
X004542Y011715D02*
X004430Y011715D01*
X004430Y011752D02*
X004542Y011752D01*
X004542Y011789D02*
X004430Y011789D01*
X004430Y011826D02*
X004542Y011826D01*
X004542Y011863D02*
X004430Y011863D01*
X004430Y011900D02*
X004542Y011900D01*
X004542Y011937D02*
X004430Y011937D01*
X004430Y011974D02*
X004542Y011974D01*
X004542Y012011D02*
X004430Y012011D01*
X004273Y012047D02*
X004273Y011345D01*
X004273Y012047D02*
X004385Y012047D01*
X004385Y011345D01*
X004273Y011345D01*
X004273Y011382D02*
X004385Y011382D01*
X004385Y011419D02*
X004273Y011419D01*
X004273Y011456D02*
X004385Y011456D01*
X004385Y011493D02*
X004273Y011493D01*
X004273Y011530D02*
X004385Y011530D01*
X004385Y011567D02*
X004273Y011567D01*
X004273Y011604D02*
X004385Y011604D01*
X004385Y011641D02*
X004273Y011641D01*
X004273Y011678D02*
X004385Y011678D01*
X004385Y011715D02*
X004273Y011715D01*
X004273Y011752D02*
X004385Y011752D01*
X004385Y011789D02*
X004273Y011789D01*
X004273Y011826D02*
X004385Y011826D01*
X004385Y011863D02*
X004273Y011863D01*
X004273Y011900D02*
X004385Y011900D01*
X004385Y011937D02*
X004273Y011937D01*
X004273Y011974D02*
X004385Y011974D01*
X004385Y012011D02*
X004273Y012011D01*
X004115Y012047D02*
X004115Y011345D01*
X004115Y012047D02*
X004227Y012047D01*
X004227Y011345D01*
X004115Y011345D01*
X004115Y011382D02*
X004227Y011382D01*
X004227Y011419D02*
X004115Y011419D01*
X004115Y011456D02*
X004227Y011456D01*
X004227Y011493D02*
X004115Y011493D01*
X004115Y011530D02*
X004227Y011530D01*
X004227Y011567D02*
X004115Y011567D01*
X004115Y011604D02*
X004227Y011604D01*
X004227Y011641D02*
X004115Y011641D01*
X004115Y011678D02*
X004227Y011678D01*
X004227Y011715D02*
X004115Y011715D01*
X004115Y011752D02*
X004227Y011752D01*
X004227Y011789D02*
X004115Y011789D01*
X004115Y011826D02*
X004227Y011826D01*
X004227Y011863D02*
X004115Y011863D01*
X004115Y011900D02*
X004227Y011900D01*
X004227Y011937D02*
X004115Y011937D01*
X004115Y011974D02*
X004227Y011974D01*
X004227Y012011D02*
X004115Y012011D01*
X003958Y012047D02*
X003958Y011345D01*
X003958Y012047D02*
X004070Y012047D01*
X004070Y011345D01*
X003958Y011345D01*
X003958Y011382D02*
X004070Y011382D01*
X004070Y011419D02*
X003958Y011419D01*
X003958Y011456D02*
X004070Y011456D01*
X004070Y011493D02*
X003958Y011493D01*
X003958Y011530D02*
X004070Y011530D01*
X004070Y011567D02*
X003958Y011567D01*
X003958Y011604D02*
X004070Y011604D01*
X004070Y011641D02*
X003958Y011641D01*
X003958Y011678D02*
X004070Y011678D01*
X004070Y011715D02*
X003958Y011715D01*
X003958Y011752D02*
X004070Y011752D01*
X004070Y011789D02*
X003958Y011789D01*
X003958Y011826D02*
X004070Y011826D01*
X004070Y011863D02*
X003958Y011863D01*
X003958Y011900D02*
X004070Y011900D01*
X004070Y011937D02*
X003958Y011937D01*
X003958Y011974D02*
X004070Y011974D01*
X004070Y012011D02*
X003958Y012011D01*
X003800Y012047D02*
X003800Y011345D01*
X003800Y012047D02*
X003912Y012047D01*
X003912Y011345D01*
X003800Y011345D01*
X003800Y011382D02*
X003912Y011382D01*
X003912Y011419D02*
X003800Y011419D01*
X003800Y011456D02*
X003912Y011456D01*
X003912Y011493D02*
X003800Y011493D01*
X003800Y011530D02*
X003912Y011530D01*
X003912Y011567D02*
X003800Y011567D01*
X003800Y011604D02*
X003912Y011604D01*
X003912Y011641D02*
X003800Y011641D01*
X003800Y011678D02*
X003912Y011678D01*
X003912Y011715D02*
X003800Y011715D01*
X003800Y011752D02*
X003912Y011752D01*
X003912Y011789D02*
X003800Y011789D01*
X003800Y011826D02*
X003912Y011826D01*
X003912Y011863D02*
X003800Y011863D01*
X003800Y011900D02*
X003912Y011900D01*
X003912Y011937D02*
X003800Y011937D01*
X003800Y011974D02*
X003912Y011974D01*
X003912Y012011D02*
X003800Y012011D01*
X003643Y012047D02*
X003643Y011345D01*
X003643Y012047D02*
X003755Y012047D01*
X003755Y011345D01*
X003643Y011345D01*
X003643Y011382D02*
X003755Y011382D01*
X003755Y011419D02*
X003643Y011419D01*
X003643Y011456D02*
X003755Y011456D01*
X003755Y011493D02*
X003643Y011493D01*
X003643Y011530D02*
X003755Y011530D01*
X003755Y011567D02*
X003643Y011567D01*
X003643Y011604D02*
X003755Y011604D01*
X003755Y011641D02*
X003643Y011641D01*
X003643Y011678D02*
X003755Y011678D01*
X003755Y011715D02*
X003643Y011715D01*
X003643Y011752D02*
X003755Y011752D01*
X003755Y011789D02*
X003643Y011789D01*
X003643Y011826D02*
X003755Y011826D01*
X003755Y011863D02*
X003643Y011863D01*
X003643Y011900D02*
X003755Y011900D01*
X003755Y011937D02*
X003643Y011937D01*
X003643Y011974D02*
X003755Y011974D01*
X003755Y012011D02*
X003643Y012011D01*
X003485Y012047D02*
X003485Y011345D01*
X003485Y012047D02*
X003597Y012047D01*
X003597Y011345D01*
X003485Y011345D01*
X003485Y011382D02*
X003597Y011382D01*
X003597Y011419D02*
X003485Y011419D01*
X003485Y011456D02*
X003597Y011456D01*
X003597Y011493D02*
X003485Y011493D01*
X003485Y011530D02*
X003597Y011530D01*
X003597Y011567D02*
X003485Y011567D01*
X003485Y011604D02*
X003597Y011604D01*
X003597Y011641D02*
X003485Y011641D01*
X003485Y011678D02*
X003597Y011678D01*
X003597Y011715D02*
X003485Y011715D01*
X003485Y011752D02*
X003597Y011752D01*
X003597Y011789D02*
X003485Y011789D01*
X003485Y011826D02*
X003597Y011826D01*
X003597Y011863D02*
X003485Y011863D01*
X003485Y011900D02*
X003597Y011900D01*
X003597Y011937D02*
X003485Y011937D01*
X003485Y011974D02*
X003597Y011974D01*
X003597Y012011D02*
X003485Y012011D01*
X003328Y012047D02*
X003328Y011345D01*
X003328Y012047D02*
X003440Y012047D01*
X003440Y011345D01*
X003328Y011345D01*
X003328Y011382D02*
X003440Y011382D01*
X003440Y011419D02*
X003328Y011419D01*
X003328Y011456D02*
X003440Y011456D01*
X003440Y011493D02*
X003328Y011493D01*
X003328Y011530D02*
X003440Y011530D01*
X003440Y011567D02*
X003328Y011567D01*
X003328Y011604D02*
X003440Y011604D01*
X003440Y011641D02*
X003328Y011641D01*
X003328Y011678D02*
X003440Y011678D01*
X003440Y011715D02*
X003328Y011715D01*
X003328Y011752D02*
X003440Y011752D01*
X003440Y011789D02*
X003328Y011789D01*
X003328Y011826D02*
X003440Y011826D01*
X003440Y011863D02*
X003328Y011863D01*
X003328Y011900D02*
X003440Y011900D01*
X003440Y011937D02*
X003328Y011937D01*
X003328Y011974D02*
X003440Y011974D01*
X003440Y012011D02*
X003328Y012011D01*
X003170Y012047D02*
X003170Y011345D01*
X003170Y012047D02*
X003282Y012047D01*
X003282Y011345D01*
X003170Y011345D01*
X003170Y011382D02*
X003282Y011382D01*
X003282Y011419D02*
X003170Y011419D01*
X003170Y011456D02*
X003282Y011456D01*
X003282Y011493D02*
X003170Y011493D01*
X003170Y011530D02*
X003282Y011530D01*
X003282Y011567D02*
X003170Y011567D01*
X003170Y011604D02*
X003282Y011604D01*
X003282Y011641D02*
X003170Y011641D01*
X003170Y011678D02*
X003282Y011678D01*
X003282Y011715D02*
X003170Y011715D01*
X003170Y011752D02*
X003282Y011752D01*
X003282Y011789D02*
X003170Y011789D01*
X003170Y011826D02*
X003282Y011826D01*
X003282Y011863D02*
X003170Y011863D01*
X003170Y011900D02*
X003282Y011900D01*
X003282Y011937D02*
X003170Y011937D01*
X003170Y011974D02*
X003282Y011974D01*
X003282Y012011D02*
X003170Y012011D01*
X003013Y012047D02*
X003013Y011345D01*
X003013Y012047D02*
X003125Y012047D01*
X003125Y011345D01*
X003013Y011345D01*
X003013Y011382D02*
X003125Y011382D01*
X003125Y011419D02*
X003013Y011419D01*
X003013Y011456D02*
X003125Y011456D01*
X003125Y011493D02*
X003013Y011493D01*
X003013Y011530D02*
X003125Y011530D01*
X003125Y011567D02*
X003013Y011567D01*
X003013Y011604D02*
X003125Y011604D01*
X003125Y011641D02*
X003013Y011641D01*
X003013Y011678D02*
X003125Y011678D01*
X003125Y011715D02*
X003013Y011715D01*
X003013Y011752D02*
X003125Y011752D01*
X003125Y011789D02*
X003013Y011789D01*
X003013Y011826D02*
X003125Y011826D01*
X003125Y011863D02*
X003013Y011863D01*
X003013Y011900D02*
X003125Y011900D01*
X003125Y011937D02*
X003013Y011937D01*
X003013Y011974D02*
X003125Y011974D01*
X003125Y012011D02*
X003013Y012011D01*
X002855Y012047D02*
X002855Y011345D01*
X002855Y012047D02*
X002967Y012047D01*
X002967Y011345D01*
X002855Y011345D01*
X002855Y011382D02*
X002967Y011382D01*
X002967Y011419D02*
X002855Y011419D01*
X002855Y011456D02*
X002967Y011456D01*
X002967Y011493D02*
X002855Y011493D01*
X002855Y011530D02*
X002967Y011530D01*
X002967Y011567D02*
X002855Y011567D01*
X002855Y011604D02*
X002967Y011604D01*
X002967Y011641D02*
X002855Y011641D01*
X002855Y011678D02*
X002967Y011678D01*
X002967Y011715D02*
X002855Y011715D01*
X002855Y011752D02*
X002967Y011752D01*
X002967Y011789D02*
X002855Y011789D01*
X002855Y011826D02*
X002967Y011826D01*
X002967Y011863D02*
X002855Y011863D01*
X002855Y011900D02*
X002967Y011900D01*
X002967Y011937D02*
X002855Y011937D01*
X002855Y011974D02*
X002967Y011974D01*
X002967Y012011D02*
X002855Y012011D01*
X002698Y012047D02*
X002698Y011345D01*
X002698Y012047D02*
X002810Y012047D01*
X002810Y011345D01*
X002698Y011345D01*
X002698Y011382D02*
X002810Y011382D01*
X002810Y011419D02*
X002698Y011419D01*
X002698Y011456D02*
X002810Y011456D01*
X002810Y011493D02*
X002698Y011493D01*
X002698Y011530D02*
X002810Y011530D01*
X002810Y011567D02*
X002698Y011567D01*
X002698Y011604D02*
X002810Y011604D01*
X002810Y011641D02*
X002698Y011641D01*
X002698Y011678D02*
X002810Y011678D01*
X002810Y011715D02*
X002698Y011715D01*
X002698Y011752D02*
X002810Y011752D01*
X002810Y011789D02*
X002698Y011789D01*
X002698Y011826D02*
X002810Y011826D01*
X002810Y011863D02*
X002698Y011863D01*
X002698Y011900D02*
X002810Y011900D01*
X002810Y011937D02*
X002698Y011937D01*
X002698Y011974D02*
X002810Y011974D01*
X002810Y012011D02*
X002698Y012011D01*
X002698Y009787D02*
X002698Y009085D01*
X002698Y009787D02*
X002810Y009787D01*
X002810Y009085D01*
X002698Y009085D01*
X002698Y009122D02*
X002810Y009122D01*
X002810Y009159D02*
X002698Y009159D01*
X002698Y009196D02*
X002810Y009196D01*
X002810Y009233D02*
X002698Y009233D01*
X002698Y009270D02*
X002810Y009270D01*
X002810Y009307D02*
X002698Y009307D01*
X002698Y009344D02*
X002810Y009344D01*
X002810Y009381D02*
X002698Y009381D01*
X002698Y009418D02*
X002810Y009418D01*
X002810Y009455D02*
X002698Y009455D01*
X002698Y009492D02*
X002810Y009492D01*
X002810Y009529D02*
X002698Y009529D01*
X002698Y009566D02*
X002810Y009566D01*
X002810Y009603D02*
X002698Y009603D01*
X002698Y009640D02*
X002810Y009640D01*
X002810Y009677D02*
X002698Y009677D01*
X002698Y009714D02*
X002810Y009714D01*
X002810Y009751D02*
X002698Y009751D01*
X002855Y009787D02*
X002855Y009085D01*
X002855Y009787D02*
X002967Y009787D01*
X002967Y009085D01*
X002855Y009085D01*
X002855Y009122D02*
X002967Y009122D01*
X002967Y009159D02*
X002855Y009159D01*
X002855Y009196D02*
X002967Y009196D01*
X002967Y009233D02*
X002855Y009233D01*
X002855Y009270D02*
X002967Y009270D01*
X002967Y009307D02*
X002855Y009307D01*
X002855Y009344D02*
X002967Y009344D01*
X002967Y009381D02*
X002855Y009381D01*
X002855Y009418D02*
X002967Y009418D01*
X002967Y009455D02*
X002855Y009455D01*
X002855Y009492D02*
X002967Y009492D01*
X002967Y009529D02*
X002855Y009529D01*
X002855Y009566D02*
X002967Y009566D01*
X002967Y009603D02*
X002855Y009603D01*
X002855Y009640D02*
X002967Y009640D01*
X002967Y009677D02*
X002855Y009677D01*
X002855Y009714D02*
X002967Y009714D01*
X002967Y009751D02*
X002855Y009751D01*
X003013Y009787D02*
X003013Y009085D01*
X003013Y009787D02*
X003125Y009787D01*
X003125Y009085D01*
X003013Y009085D01*
X003013Y009122D02*
X003125Y009122D01*
X003125Y009159D02*
X003013Y009159D01*
X003013Y009196D02*
X003125Y009196D01*
X003125Y009233D02*
X003013Y009233D01*
X003013Y009270D02*
X003125Y009270D01*
X003125Y009307D02*
X003013Y009307D01*
X003013Y009344D02*
X003125Y009344D01*
X003125Y009381D02*
X003013Y009381D01*
X003013Y009418D02*
X003125Y009418D01*
X003125Y009455D02*
X003013Y009455D01*
X003013Y009492D02*
X003125Y009492D01*
X003125Y009529D02*
X003013Y009529D01*
X003013Y009566D02*
X003125Y009566D01*
X003125Y009603D02*
X003013Y009603D01*
X003013Y009640D02*
X003125Y009640D01*
X003125Y009677D02*
X003013Y009677D01*
X003013Y009714D02*
X003125Y009714D01*
X003125Y009751D02*
X003013Y009751D01*
X003170Y009787D02*
X003170Y009085D01*
X003170Y009787D02*
X003282Y009787D01*
X003282Y009085D01*
X003170Y009085D01*
X003170Y009122D02*
X003282Y009122D01*
X003282Y009159D02*
X003170Y009159D01*
X003170Y009196D02*
X003282Y009196D01*
X003282Y009233D02*
X003170Y009233D01*
X003170Y009270D02*
X003282Y009270D01*
X003282Y009307D02*
X003170Y009307D01*
X003170Y009344D02*
X003282Y009344D01*
X003282Y009381D02*
X003170Y009381D01*
X003170Y009418D02*
X003282Y009418D01*
X003282Y009455D02*
X003170Y009455D01*
X003170Y009492D02*
X003282Y009492D01*
X003282Y009529D02*
X003170Y009529D01*
X003170Y009566D02*
X003282Y009566D01*
X003282Y009603D02*
X003170Y009603D01*
X003170Y009640D02*
X003282Y009640D01*
X003282Y009677D02*
X003170Y009677D01*
X003170Y009714D02*
X003282Y009714D01*
X003282Y009751D02*
X003170Y009751D01*
X003328Y009787D02*
X003328Y009085D01*
X003328Y009787D02*
X003440Y009787D01*
X003440Y009085D01*
X003328Y009085D01*
X003328Y009122D02*
X003440Y009122D01*
X003440Y009159D02*
X003328Y009159D01*
X003328Y009196D02*
X003440Y009196D01*
X003440Y009233D02*
X003328Y009233D01*
X003328Y009270D02*
X003440Y009270D01*
X003440Y009307D02*
X003328Y009307D01*
X003328Y009344D02*
X003440Y009344D01*
X003440Y009381D02*
X003328Y009381D01*
X003328Y009418D02*
X003440Y009418D01*
X003440Y009455D02*
X003328Y009455D01*
X003328Y009492D02*
X003440Y009492D01*
X003440Y009529D02*
X003328Y009529D01*
X003328Y009566D02*
X003440Y009566D01*
X003440Y009603D02*
X003328Y009603D01*
X003328Y009640D02*
X003440Y009640D01*
X003440Y009677D02*
X003328Y009677D01*
X003328Y009714D02*
X003440Y009714D01*
X003440Y009751D02*
X003328Y009751D01*
X003485Y009787D02*
X003485Y009085D01*
X003485Y009787D02*
X003597Y009787D01*
X003597Y009085D01*
X003485Y009085D01*
X003485Y009122D02*
X003597Y009122D01*
X003597Y009159D02*
X003485Y009159D01*
X003485Y009196D02*
X003597Y009196D01*
X003597Y009233D02*
X003485Y009233D01*
X003485Y009270D02*
X003597Y009270D01*
X003597Y009307D02*
X003485Y009307D01*
X003485Y009344D02*
X003597Y009344D01*
X003597Y009381D02*
X003485Y009381D01*
X003485Y009418D02*
X003597Y009418D01*
X003597Y009455D02*
X003485Y009455D01*
X003485Y009492D02*
X003597Y009492D01*
X003597Y009529D02*
X003485Y009529D01*
X003485Y009566D02*
X003597Y009566D01*
X003597Y009603D02*
X003485Y009603D01*
X003485Y009640D02*
X003597Y009640D01*
X003597Y009677D02*
X003485Y009677D01*
X003485Y009714D02*
X003597Y009714D01*
X003597Y009751D02*
X003485Y009751D01*
X003643Y009787D02*
X003643Y009085D01*
X003643Y009787D02*
X003755Y009787D01*
X003755Y009085D01*
X003643Y009085D01*
X003643Y009122D02*
X003755Y009122D01*
X003755Y009159D02*
X003643Y009159D01*
X003643Y009196D02*
X003755Y009196D01*
X003755Y009233D02*
X003643Y009233D01*
X003643Y009270D02*
X003755Y009270D01*
X003755Y009307D02*
X003643Y009307D01*
X003643Y009344D02*
X003755Y009344D01*
X003755Y009381D02*
X003643Y009381D01*
X003643Y009418D02*
X003755Y009418D01*
X003755Y009455D02*
X003643Y009455D01*
X003643Y009492D02*
X003755Y009492D01*
X003755Y009529D02*
X003643Y009529D01*
X003643Y009566D02*
X003755Y009566D01*
X003755Y009603D02*
X003643Y009603D01*
X003643Y009640D02*
X003755Y009640D01*
X003755Y009677D02*
X003643Y009677D01*
X003643Y009714D02*
X003755Y009714D01*
X003755Y009751D02*
X003643Y009751D01*
X003800Y009787D02*
X003800Y009085D01*
X003800Y009787D02*
X003912Y009787D01*
X003912Y009085D01*
X003800Y009085D01*
X003800Y009122D02*
X003912Y009122D01*
X003912Y009159D02*
X003800Y009159D01*
X003800Y009196D02*
X003912Y009196D01*
X003912Y009233D02*
X003800Y009233D01*
X003800Y009270D02*
X003912Y009270D01*
X003912Y009307D02*
X003800Y009307D01*
X003800Y009344D02*
X003912Y009344D01*
X003912Y009381D02*
X003800Y009381D01*
X003800Y009418D02*
X003912Y009418D01*
X003912Y009455D02*
X003800Y009455D01*
X003800Y009492D02*
X003912Y009492D01*
X003912Y009529D02*
X003800Y009529D01*
X003800Y009566D02*
X003912Y009566D01*
X003912Y009603D02*
X003800Y009603D01*
X003800Y009640D02*
X003912Y009640D01*
X003912Y009677D02*
X003800Y009677D01*
X003800Y009714D02*
X003912Y009714D01*
X003912Y009751D02*
X003800Y009751D01*
X003958Y009787D02*
X003958Y009085D01*
X003958Y009787D02*
X004070Y009787D01*
X004070Y009085D01*
X003958Y009085D01*
X003958Y009122D02*
X004070Y009122D01*
X004070Y009159D02*
X003958Y009159D01*
X003958Y009196D02*
X004070Y009196D01*
X004070Y009233D02*
X003958Y009233D01*
X003958Y009270D02*
X004070Y009270D01*
X004070Y009307D02*
X003958Y009307D01*
X003958Y009344D02*
X004070Y009344D01*
X004070Y009381D02*
X003958Y009381D01*
X003958Y009418D02*
X004070Y009418D01*
X004070Y009455D02*
X003958Y009455D01*
X003958Y009492D02*
X004070Y009492D01*
X004070Y009529D02*
X003958Y009529D01*
X003958Y009566D02*
X004070Y009566D01*
X004070Y009603D02*
X003958Y009603D01*
X003958Y009640D02*
X004070Y009640D01*
X004070Y009677D02*
X003958Y009677D01*
X003958Y009714D02*
X004070Y009714D01*
X004070Y009751D02*
X003958Y009751D01*
X004115Y009787D02*
X004115Y009085D01*
X004115Y009787D02*
X004227Y009787D01*
X004227Y009085D01*
X004115Y009085D01*
X004115Y009122D02*
X004227Y009122D01*
X004227Y009159D02*
X004115Y009159D01*
X004115Y009196D02*
X004227Y009196D01*
X004227Y009233D02*
X004115Y009233D01*
X004115Y009270D02*
X004227Y009270D01*
X004227Y009307D02*
X004115Y009307D01*
X004115Y009344D02*
X004227Y009344D01*
X004227Y009381D02*
X004115Y009381D01*
X004115Y009418D02*
X004227Y009418D01*
X004227Y009455D02*
X004115Y009455D01*
X004115Y009492D02*
X004227Y009492D01*
X004227Y009529D02*
X004115Y009529D01*
X004115Y009566D02*
X004227Y009566D01*
X004227Y009603D02*
X004115Y009603D01*
X004115Y009640D02*
X004227Y009640D01*
X004227Y009677D02*
X004115Y009677D01*
X004115Y009714D02*
X004227Y009714D01*
X004227Y009751D02*
X004115Y009751D01*
X004273Y009787D02*
X004273Y009085D01*
X004273Y009787D02*
X004385Y009787D01*
X004385Y009085D01*
X004273Y009085D01*
X004273Y009122D02*
X004385Y009122D01*
X004385Y009159D02*
X004273Y009159D01*
X004273Y009196D02*
X004385Y009196D01*
X004385Y009233D02*
X004273Y009233D01*
X004273Y009270D02*
X004385Y009270D01*
X004385Y009307D02*
X004273Y009307D01*
X004273Y009344D02*
X004385Y009344D01*
X004385Y009381D02*
X004273Y009381D01*
X004273Y009418D02*
X004385Y009418D01*
X004385Y009455D02*
X004273Y009455D01*
X004273Y009492D02*
X004385Y009492D01*
X004385Y009529D02*
X004273Y009529D01*
X004273Y009566D02*
X004385Y009566D01*
X004385Y009603D02*
X004273Y009603D01*
X004273Y009640D02*
X004385Y009640D01*
X004385Y009677D02*
X004273Y009677D01*
X004273Y009714D02*
X004385Y009714D01*
X004385Y009751D02*
X004273Y009751D01*
X004430Y009787D02*
X004430Y009085D01*
X004430Y009787D02*
X004542Y009787D01*
X004542Y009085D01*
X004430Y009085D01*
X004430Y009122D02*
X004542Y009122D01*
X004542Y009159D02*
X004430Y009159D01*
X004430Y009196D02*
X004542Y009196D01*
X004542Y009233D02*
X004430Y009233D01*
X004430Y009270D02*
X004542Y009270D01*
X004542Y009307D02*
X004430Y009307D01*
X004430Y009344D02*
X004542Y009344D01*
X004542Y009381D02*
X004430Y009381D01*
X004430Y009418D02*
X004542Y009418D01*
X004542Y009455D02*
X004430Y009455D01*
X004430Y009492D02*
X004542Y009492D01*
X004542Y009529D02*
X004430Y009529D01*
X004430Y009566D02*
X004542Y009566D01*
X004542Y009603D02*
X004430Y009603D01*
X004430Y009640D02*
X004542Y009640D01*
X004542Y009677D02*
X004430Y009677D01*
X004430Y009714D02*
X004542Y009714D01*
X004542Y009751D02*
X004430Y009751D01*
X004588Y009787D02*
X004588Y009085D01*
X004588Y009787D02*
X004700Y009787D01*
X004700Y009085D01*
X004588Y009085D01*
X004588Y009122D02*
X004700Y009122D01*
X004700Y009159D02*
X004588Y009159D01*
X004588Y009196D02*
X004700Y009196D01*
X004700Y009233D02*
X004588Y009233D01*
X004588Y009270D02*
X004700Y009270D01*
X004700Y009307D02*
X004588Y009307D01*
X004588Y009344D02*
X004700Y009344D01*
X004700Y009381D02*
X004588Y009381D01*
X004588Y009418D02*
X004700Y009418D01*
X004700Y009455D02*
X004588Y009455D01*
X004588Y009492D02*
X004700Y009492D01*
X004700Y009529D02*
X004588Y009529D01*
X004588Y009566D02*
X004700Y009566D01*
X004700Y009603D02*
X004588Y009603D01*
X004588Y009640D02*
X004700Y009640D01*
X004700Y009677D02*
X004588Y009677D01*
X004588Y009714D02*
X004700Y009714D01*
X004700Y009751D02*
X004588Y009751D01*
X004745Y009787D02*
X004745Y009085D01*
X004745Y009787D02*
X004857Y009787D01*
X004857Y009085D01*
X004745Y009085D01*
X004745Y009122D02*
X004857Y009122D01*
X004857Y009159D02*
X004745Y009159D01*
X004745Y009196D02*
X004857Y009196D01*
X004857Y009233D02*
X004745Y009233D01*
X004745Y009270D02*
X004857Y009270D01*
X004857Y009307D02*
X004745Y009307D01*
X004745Y009344D02*
X004857Y009344D01*
X004857Y009381D02*
X004745Y009381D01*
X004745Y009418D02*
X004857Y009418D01*
X004857Y009455D02*
X004745Y009455D01*
X004745Y009492D02*
X004857Y009492D01*
X004857Y009529D02*
X004745Y009529D01*
X004745Y009566D02*
X004857Y009566D01*
X004857Y009603D02*
X004745Y009603D01*
X004745Y009640D02*
X004857Y009640D01*
X004857Y009677D02*
X004745Y009677D01*
X004745Y009714D02*
X004857Y009714D01*
X004857Y009751D02*
X004745Y009751D01*
X004903Y009787D02*
X004903Y009085D01*
X004903Y009787D02*
X005015Y009787D01*
X005015Y009085D01*
X004903Y009085D01*
X004903Y009122D02*
X005015Y009122D01*
X005015Y009159D02*
X004903Y009159D01*
X004903Y009196D02*
X005015Y009196D01*
X005015Y009233D02*
X004903Y009233D01*
X004903Y009270D02*
X005015Y009270D01*
X005015Y009307D02*
X004903Y009307D01*
X004903Y009344D02*
X005015Y009344D01*
X005015Y009381D02*
X004903Y009381D01*
X004903Y009418D02*
X005015Y009418D01*
X005015Y009455D02*
X004903Y009455D01*
X004903Y009492D02*
X005015Y009492D01*
X005015Y009529D02*
X004903Y009529D01*
X004903Y009566D02*
X005015Y009566D01*
X005015Y009603D02*
X004903Y009603D01*
X004903Y009640D02*
X005015Y009640D01*
X005015Y009677D02*
X004903Y009677D01*
X004903Y009714D02*
X005015Y009714D01*
X005015Y009751D02*
X004903Y009751D01*
X005060Y009787D02*
X005060Y009085D01*
X005060Y009787D02*
X005172Y009787D01*
X005172Y009085D01*
X005060Y009085D01*
X005060Y009122D02*
X005172Y009122D01*
X005172Y009159D02*
X005060Y009159D01*
X005060Y009196D02*
X005172Y009196D01*
X005172Y009233D02*
X005060Y009233D01*
X005060Y009270D02*
X005172Y009270D01*
X005172Y009307D02*
X005060Y009307D01*
X005060Y009344D02*
X005172Y009344D01*
X005172Y009381D02*
X005060Y009381D01*
X005060Y009418D02*
X005172Y009418D01*
X005172Y009455D02*
X005060Y009455D01*
X005060Y009492D02*
X005172Y009492D01*
X005172Y009529D02*
X005060Y009529D01*
X005060Y009566D02*
X005172Y009566D01*
X005172Y009603D02*
X005060Y009603D01*
X005060Y009640D02*
X005172Y009640D01*
X005172Y009677D02*
X005060Y009677D01*
X005060Y009714D02*
X005172Y009714D01*
X005172Y009751D02*
X005060Y009751D01*
X005218Y009787D02*
X005218Y009085D01*
X005218Y009787D02*
X005330Y009787D01*
X005330Y009085D01*
X005218Y009085D01*
X005218Y009122D02*
X005330Y009122D01*
X005330Y009159D02*
X005218Y009159D01*
X005218Y009196D02*
X005330Y009196D01*
X005330Y009233D02*
X005218Y009233D01*
X005218Y009270D02*
X005330Y009270D01*
X005330Y009307D02*
X005218Y009307D01*
X005218Y009344D02*
X005330Y009344D01*
X005330Y009381D02*
X005218Y009381D01*
X005218Y009418D02*
X005330Y009418D01*
X005330Y009455D02*
X005218Y009455D01*
X005218Y009492D02*
X005330Y009492D01*
X005330Y009529D02*
X005218Y009529D01*
X005218Y009566D02*
X005330Y009566D01*
X005330Y009603D02*
X005218Y009603D01*
X005218Y009640D02*
X005330Y009640D01*
X005330Y009677D02*
X005218Y009677D01*
X005218Y009714D02*
X005330Y009714D01*
X005330Y009751D02*
X005218Y009751D01*
X005375Y009787D02*
X005375Y009085D01*
X005375Y009787D02*
X005487Y009787D01*
X005487Y009085D01*
X005375Y009085D01*
X005375Y009122D02*
X005487Y009122D01*
X005487Y009159D02*
X005375Y009159D01*
X005375Y009196D02*
X005487Y009196D01*
X005487Y009233D02*
X005375Y009233D01*
X005375Y009270D02*
X005487Y009270D01*
X005487Y009307D02*
X005375Y009307D01*
X005375Y009344D02*
X005487Y009344D01*
X005487Y009381D02*
X005375Y009381D01*
X005375Y009418D02*
X005487Y009418D01*
X005487Y009455D02*
X005375Y009455D01*
X005375Y009492D02*
X005487Y009492D01*
X005487Y009529D02*
X005375Y009529D01*
X005375Y009566D02*
X005487Y009566D01*
X005487Y009603D02*
X005375Y009603D01*
X005375Y009640D02*
X005487Y009640D01*
X005487Y009677D02*
X005375Y009677D01*
X005375Y009714D02*
X005487Y009714D01*
X005487Y009751D02*
X005375Y009751D01*
X005533Y009787D02*
X005533Y009085D01*
X005533Y009787D02*
X005645Y009787D01*
X005645Y009085D01*
X005533Y009085D01*
X005533Y009122D02*
X005645Y009122D01*
X005645Y009159D02*
X005533Y009159D01*
X005533Y009196D02*
X005645Y009196D01*
X005645Y009233D02*
X005533Y009233D01*
X005533Y009270D02*
X005645Y009270D01*
X005645Y009307D02*
X005533Y009307D01*
X005533Y009344D02*
X005645Y009344D01*
X005645Y009381D02*
X005533Y009381D01*
X005533Y009418D02*
X005645Y009418D01*
X005645Y009455D02*
X005533Y009455D01*
X005533Y009492D02*
X005645Y009492D01*
X005645Y009529D02*
X005533Y009529D01*
X005533Y009566D02*
X005645Y009566D01*
X005645Y009603D02*
X005533Y009603D01*
X005533Y009640D02*
X005645Y009640D01*
X005645Y009677D02*
X005533Y009677D01*
X005533Y009714D02*
X005645Y009714D01*
X005645Y009751D02*
X005533Y009751D01*
X005690Y009787D02*
X005690Y009085D01*
X005690Y009787D02*
X005802Y009787D01*
X005802Y009085D01*
X005690Y009085D01*
X005690Y009122D02*
X005802Y009122D01*
X005802Y009159D02*
X005690Y009159D01*
X005690Y009196D02*
X005802Y009196D01*
X005802Y009233D02*
X005690Y009233D01*
X005690Y009270D02*
X005802Y009270D01*
X005802Y009307D02*
X005690Y009307D01*
X005690Y009344D02*
X005802Y009344D01*
X005802Y009381D02*
X005690Y009381D01*
X005690Y009418D02*
X005802Y009418D01*
X005802Y009455D02*
X005690Y009455D01*
X005690Y009492D02*
X005802Y009492D01*
X005802Y009529D02*
X005690Y009529D01*
X005690Y009566D02*
X005802Y009566D01*
X005802Y009603D02*
X005690Y009603D01*
X005690Y009640D02*
X005802Y009640D01*
X005802Y009677D02*
X005690Y009677D01*
X005690Y009714D02*
X005802Y009714D01*
X005802Y009751D02*
X005690Y009751D01*
X005848Y009787D02*
X005848Y009085D01*
X005848Y009787D02*
X005960Y009787D01*
X005960Y009085D01*
X005848Y009085D01*
X005848Y009122D02*
X005960Y009122D01*
X005960Y009159D02*
X005848Y009159D01*
X005848Y009196D02*
X005960Y009196D01*
X005960Y009233D02*
X005848Y009233D01*
X005848Y009270D02*
X005960Y009270D01*
X005960Y009307D02*
X005848Y009307D01*
X005848Y009344D02*
X005960Y009344D01*
X005960Y009381D02*
X005848Y009381D01*
X005848Y009418D02*
X005960Y009418D01*
X005960Y009455D02*
X005848Y009455D01*
X005848Y009492D02*
X005960Y009492D01*
X005960Y009529D02*
X005848Y009529D01*
X005848Y009566D02*
X005960Y009566D01*
X005960Y009603D02*
X005848Y009603D01*
X005848Y009640D02*
X005960Y009640D01*
X005960Y009677D02*
X005848Y009677D01*
X005848Y009714D02*
X005960Y009714D01*
X005960Y009751D02*
X005848Y009751D01*
X006005Y009787D02*
X006005Y009085D01*
X006005Y009787D02*
X006117Y009787D01*
X006117Y009085D01*
X006005Y009085D01*
X006005Y009122D02*
X006117Y009122D01*
X006117Y009159D02*
X006005Y009159D01*
X006005Y009196D02*
X006117Y009196D01*
X006117Y009233D02*
X006005Y009233D01*
X006005Y009270D02*
X006117Y009270D01*
X006117Y009307D02*
X006005Y009307D01*
X006005Y009344D02*
X006117Y009344D01*
X006117Y009381D02*
X006005Y009381D01*
X006005Y009418D02*
X006117Y009418D01*
X006117Y009455D02*
X006005Y009455D01*
X006005Y009492D02*
X006117Y009492D01*
X006117Y009529D02*
X006005Y009529D01*
X006005Y009566D02*
X006117Y009566D01*
X006117Y009603D02*
X006005Y009603D01*
X006005Y009640D02*
X006117Y009640D01*
X006117Y009677D02*
X006005Y009677D01*
X006005Y009714D02*
X006117Y009714D01*
X006117Y009751D02*
X006005Y009751D01*
X006163Y009787D02*
X006163Y009085D01*
X006163Y009787D02*
X006275Y009787D01*
X006275Y009085D01*
X006163Y009085D01*
X006163Y009122D02*
X006275Y009122D01*
X006275Y009159D02*
X006163Y009159D01*
X006163Y009196D02*
X006275Y009196D01*
X006275Y009233D02*
X006163Y009233D01*
X006163Y009270D02*
X006275Y009270D01*
X006275Y009307D02*
X006163Y009307D01*
X006163Y009344D02*
X006275Y009344D01*
X006275Y009381D02*
X006163Y009381D01*
X006163Y009418D02*
X006275Y009418D01*
X006275Y009455D02*
X006163Y009455D01*
X006163Y009492D02*
X006275Y009492D01*
X006275Y009529D02*
X006163Y009529D01*
X006163Y009566D02*
X006275Y009566D01*
X006275Y009603D02*
X006163Y009603D01*
X006163Y009640D02*
X006275Y009640D01*
X006275Y009677D02*
X006163Y009677D01*
X006163Y009714D02*
X006275Y009714D01*
X006275Y009751D02*
X006163Y009751D01*
X006320Y009787D02*
X006320Y009085D01*
X006320Y009787D02*
X006432Y009787D01*
X006432Y009085D01*
X006320Y009085D01*
X006320Y009122D02*
X006432Y009122D01*
X006432Y009159D02*
X006320Y009159D01*
X006320Y009196D02*
X006432Y009196D01*
X006432Y009233D02*
X006320Y009233D01*
X006320Y009270D02*
X006432Y009270D01*
X006432Y009307D02*
X006320Y009307D01*
X006320Y009344D02*
X006432Y009344D01*
X006432Y009381D02*
X006320Y009381D01*
X006320Y009418D02*
X006432Y009418D01*
X006432Y009455D02*
X006320Y009455D01*
X006320Y009492D02*
X006432Y009492D01*
X006432Y009529D02*
X006320Y009529D01*
X006320Y009566D02*
X006432Y009566D01*
X006432Y009603D02*
X006320Y009603D01*
X006320Y009640D02*
X006432Y009640D01*
X006432Y009677D02*
X006320Y009677D01*
X006320Y009714D02*
X006432Y009714D01*
X006432Y009751D02*
X006320Y009751D01*
X006478Y009787D02*
X006478Y009085D01*
X006478Y009787D02*
X006590Y009787D01*
X006590Y009085D01*
X006478Y009085D01*
X006478Y009122D02*
X006590Y009122D01*
X006590Y009159D02*
X006478Y009159D01*
X006478Y009196D02*
X006590Y009196D01*
X006590Y009233D02*
X006478Y009233D01*
X006478Y009270D02*
X006590Y009270D01*
X006590Y009307D02*
X006478Y009307D01*
X006478Y009344D02*
X006590Y009344D01*
X006590Y009381D02*
X006478Y009381D01*
X006478Y009418D02*
X006590Y009418D01*
X006590Y009455D02*
X006478Y009455D01*
X006478Y009492D02*
X006590Y009492D01*
X006590Y009529D02*
X006478Y009529D01*
X006478Y009566D02*
X006590Y009566D01*
X006590Y009603D02*
X006478Y009603D01*
X006478Y009640D02*
X006590Y009640D01*
X006590Y009677D02*
X006478Y009677D01*
X006478Y009714D02*
X006590Y009714D01*
X006590Y009751D02*
X006478Y009751D01*
X006635Y009787D02*
X006635Y009085D01*
X006635Y009787D02*
X006747Y009787D01*
X006747Y009085D01*
X006635Y009085D01*
X006635Y009122D02*
X006747Y009122D01*
X006747Y009159D02*
X006635Y009159D01*
X006635Y009196D02*
X006747Y009196D01*
X006747Y009233D02*
X006635Y009233D01*
X006635Y009270D02*
X006747Y009270D01*
X006747Y009307D02*
X006635Y009307D01*
X006635Y009344D02*
X006747Y009344D01*
X006747Y009381D02*
X006635Y009381D01*
X006635Y009418D02*
X006747Y009418D01*
X006747Y009455D02*
X006635Y009455D01*
X006635Y009492D02*
X006747Y009492D01*
X006747Y009529D02*
X006635Y009529D01*
X006635Y009566D02*
X006747Y009566D01*
X006747Y009603D02*
X006635Y009603D01*
X006635Y009640D02*
X006747Y009640D01*
X006747Y009677D02*
X006635Y009677D01*
X006635Y009714D02*
X006747Y009714D01*
X006747Y009751D02*
X006635Y009751D01*
X006793Y009787D02*
X006793Y009085D01*
X006793Y009787D02*
X006905Y009787D01*
X006905Y009085D01*
X006793Y009085D01*
X006793Y009122D02*
X006905Y009122D01*
X006905Y009159D02*
X006793Y009159D01*
X006793Y009196D02*
X006905Y009196D01*
X006905Y009233D02*
X006793Y009233D01*
X006793Y009270D02*
X006905Y009270D01*
X006905Y009307D02*
X006793Y009307D01*
X006793Y009344D02*
X006905Y009344D01*
X006905Y009381D02*
X006793Y009381D01*
X006793Y009418D02*
X006905Y009418D01*
X006905Y009455D02*
X006793Y009455D01*
X006793Y009492D02*
X006905Y009492D01*
X006905Y009529D02*
X006793Y009529D01*
X006793Y009566D02*
X006905Y009566D01*
X006905Y009603D02*
X006793Y009603D01*
X006793Y009640D02*
X006905Y009640D01*
X006905Y009677D02*
X006793Y009677D01*
X006793Y009714D02*
X006905Y009714D01*
X006905Y009751D02*
X006793Y009751D01*
X006950Y009787D02*
X006950Y009085D01*
X006950Y009787D02*
X007062Y009787D01*
X007062Y009085D01*
X006950Y009085D01*
X006950Y009122D02*
X007062Y009122D01*
X007062Y009159D02*
X006950Y009159D01*
X006950Y009196D02*
X007062Y009196D01*
X007062Y009233D02*
X006950Y009233D01*
X006950Y009270D02*
X007062Y009270D01*
X007062Y009307D02*
X006950Y009307D01*
X006950Y009344D02*
X007062Y009344D01*
X007062Y009381D02*
X006950Y009381D01*
X006950Y009418D02*
X007062Y009418D01*
X007062Y009455D02*
X006950Y009455D01*
X006950Y009492D02*
X007062Y009492D01*
X007062Y009529D02*
X006950Y009529D01*
X006950Y009566D02*
X007062Y009566D01*
X007062Y009603D02*
X006950Y009603D01*
X006950Y009640D02*
X007062Y009640D01*
X007062Y009677D02*
X006950Y009677D01*
X006950Y009714D02*
X007062Y009714D01*
X007062Y009751D02*
X006950Y009751D01*
D15*
X003516Y006391D03*
D16*
X003516Y006106D03*
X003319Y006106D03*
X003319Y006397D03*
X003122Y006397D03*
X003122Y006106D03*
D17*
X003036Y006110D02*
X003209Y006110D01*
X003209Y006118D02*
X003036Y006118D01*
X003036Y006127D02*
X003209Y006127D01*
X003209Y006135D02*
X003036Y006135D01*
X003036Y006144D02*
X003209Y006144D01*
X003209Y006152D02*
X003036Y006152D01*
X003036Y006161D02*
X003209Y006161D01*
X003209Y006169D02*
X003036Y006169D01*
X003036Y006178D02*
X003209Y006178D01*
X003209Y006186D02*
X003036Y006186D01*
X003036Y006195D02*
X003209Y006195D01*
X003209Y006203D02*
X003036Y006203D01*
X003036Y006212D02*
X003209Y006212D01*
X003209Y006220D02*
X003036Y006220D01*
X003036Y006229D02*
X003209Y006229D01*
X003209Y006236D02*
X003209Y005976D01*
X003036Y005976D01*
X003036Y006236D01*
X003209Y006236D01*
X003233Y006236D02*
X003233Y005976D01*
X003406Y005976D01*
X003406Y006236D01*
X003233Y006236D01*
X003233Y006229D02*
X003406Y006229D01*
X003406Y006220D02*
X003233Y006220D01*
X003233Y006212D02*
X003406Y006212D01*
X003406Y006203D02*
X003233Y006203D01*
X003233Y006195D02*
X003406Y006195D01*
X003406Y006186D02*
X003233Y006186D01*
X003233Y006178D02*
X003406Y006178D01*
X003406Y006169D02*
X003233Y006169D01*
X003233Y006161D02*
X003406Y006161D01*
X003406Y006152D02*
X003233Y006152D01*
X003233Y006144D02*
X003406Y006144D01*
X003406Y006135D02*
X003233Y006135D01*
X003233Y006127D02*
X003406Y006127D01*
X003406Y006118D02*
X003233Y006118D01*
X003233Y006110D02*
X003406Y006110D01*
X003406Y006101D02*
X003233Y006101D01*
X003233Y006093D02*
X003406Y006093D01*
X003406Y006084D02*
X003233Y006084D01*
X003233Y006076D02*
X003406Y006076D01*
X003406Y006067D02*
X003233Y006067D01*
X003233Y006059D02*
X003406Y006059D01*
X003406Y006050D02*
X003233Y006050D01*
X003233Y006042D02*
X003406Y006042D01*
X003406Y006033D02*
X003233Y006033D01*
X003233Y006025D02*
X003406Y006025D01*
X003406Y006016D02*
X003233Y006016D01*
X003233Y006008D02*
X003406Y006008D01*
X003406Y005999D02*
X003233Y005999D01*
X003233Y005991D02*
X003406Y005991D01*
X003406Y005982D02*
X003233Y005982D01*
X003209Y005982D02*
X003036Y005982D01*
X003036Y005991D02*
X003209Y005991D01*
X003209Y005999D02*
X003036Y005999D01*
X003036Y006008D02*
X003209Y006008D01*
X003209Y006016D02*
X003036Y006016D01*
X003036Y006025D02*
X003209Y006025D01*
X003209Y006033D02*
X003036Y006033D01*
X003036Y006042D02*
X003209Y006042D01*
X003209Y006050D02*
X003036Y006050D01*
X003036Y006059D02*
X003209Y006059D01*
X003209Y006067D02*
X003036Y006067D01*
X003036Y006076D02*
X003209Y006076D01*
X003209Y006084D02*
X003036Y006084D01*
X003036Y006093D02*
X003209Y006093D01*
X003209Y006101D02*
X003036Y006101D01*
X003036Y006267D02*
X003209Y006267D01*
X003209Y006527D01*
X003036Y006527D01*
X003036Y006267D01*
X003036Y006271D02*
X003209Y006271D01*
X003209Y006280D02*
X003036Y006280D01*
X003036Y006288D02*
X003209Y006288D01*
X003209Y006297D02*
X003036Y006297D01*
X003036Y006305D02*
X003209Y006305D01*
X003209Y006314D02*
X003036Y006314D01*
X003036Y006322D02*
X003209Y006322D01*
X003209Y006331D02*
X003036Y006331D01*
X003036Y006339D02*
X003209Y006339D01*
X003209Y006348D02*
X003036Y006348D01*
X003036Y006356D02*
X003209Y006356D01*
X003209Y006365D02*
X003036Y006365D01*
X003036Y006373D02*
X003209Y006373D01*
X003209Y006382D02*
X003036Y006382D01*
X003036Y006390D02*
X003209Y006390D01*
X003209Y006399D02*
X003036Y006399D01*
X003036Y006407D02*
X003209Y006407D01*
X003209Y006416D02*
X003036Y006416D01*
X003036Y006424D02*
X003209Y006424D01*
X003209Y006433D02*
X003036Y006433D01*
X003036Y006441D02*
X003209Y006441D01*
X003209Y006450D02*
X003036Y006450D01*
X003036Y006458D02*
X003209Y006458D01*
X003209Y006467D02*
X003036Y006467D01*
X003036Y006475D02*
X003209Y006475D01*
X003209Y006484D02*
X003036Y006484D01*
X003036Y006492D02*
X003209Y006492D01*
X003209Y006501D02*
X003036Y006501D01*
X003036Y006509D02*
X003209Y006509D01*
X003209Y006518D02*
X003036Y006518D01*
X003036Y006526D02*
X003209Y006526D01*
X003233Y006526D02*
X003406Y006526D01*
X003406Y006527D02*
X003406Y006267D01*
X003233Y006267D01*
X003233Y006527D01*
X003406Y006527D01*
X003406Y006518D02*
X003233Y006518D01*
X003233Y006509D02*
X003406Y006509D01*
X003406Y006501D02*
X003233Y006501D01*
X003233Y006492D02*
X003406Y006492D01*
X003406Y006484D02*
X003233Y006484D01*
X003233Y006475D02*
X003406Y006475D01*
X003406Y006467D02*
X003233Y006467D01*
X003233Y006458D02*
X003406Y006458D01*
X003406Y006450D02*
X003233Y006450D01*
X003233Y006441D02*
X003406Y006441D01*
X003406Y006433D02*
X003233Y006433D01*
X003233Y006424D02*
X003406Y006424D01*
X003406Y006416D02*
X003233Y006416D01*
X003233Y006407D02*
X003406Y006407D01*
X003406Y006399D02*
X003233Y006399D01*
X003233Y006390D02*
X003406Y006390D01*
X003406Y006382D02*
X003233Y006382D01*
X003233Y006373D02*
X003406Y006373D01*
X003406Y006365D02*
X003233Y006365D01*
X003233Y006356D02*
X003406Y006356D01*
X003406Y006348D02*
X003233Y006348D01*
X003233Y006339D02*
X003406Y006339D01*
X003406Y006331D02*
X003233Y006331D01*
X003233Y006322D02*
X003406Y006322D01*
X003406Y006314D02*
X003233Y006314D01*
X003233Y006305D02*
X003406Y006305D01*
X003406Y006297D02*
X003233Y006297D01*
X003233Y006288D02*
X003406Y006288D01*
X003406Y006280D02*
X003233Y006280D01*
X003233Y006271D02*
X003406Y006271D01*
X003429Y006271D02*
X003603Y006271D01*
X003603Y006267D02*
X003603Y006527D01*
X003429Y006527D01*
X003429Y006267D01*
X003603Y006267D01*
X003603Y006280D02*
X003429Y006280D01*
X003429Y006288D02*
X003603Y006288D01*
X003603Y006297D02*
X003429Y006297D01*
X003429Y006305D02*
X003603Y006305D01*
X003603Y006314D02*
X003429Y006314D01*
X003429Y006322D02*
X003603Y006322D01*
X003603Y006331D02*
X003429Y006331D01*
X003429Y006339D02*
X003603Y006339D01*
X003603Y006348D02*
X003429Y006348D01*
X003429Y006356D02*
X003603Y006356D01*
X003603Y006365D02*
X003429Y006365D01*
X003429Y006373D02*
X003603Y006373D01*
X003603Y006382D02*
X003429Y006382D01*
X003429Y006390D02*
X003603Y006390D01*
X003603Y006399D02*
X003429Y006399D01*
X003429Y006407D02*
X003603Y006407D01*
X003603Y006416D02*
X003429Y006416D01*
X003429Y006424D02*
X003603Y006424D01*
X003603Y006433D02*
X003429Y006433D01*
X003429Y006441D02*
X003603Y006441D01*
X003603Y006450D02*
X003429Y006450D01*
X003429Y006458D02*
X003603Y006458D01*
X003603Y006467D02*
X003429Y006467D01*
X003429Y006475D02*
X003603Y006475D01*
X003603Y006484D02*
X003429Y006484D01*
X003429Y006492D02*
X003603Y006492D01*
X003603Y006501D02*
X003429Y006501D01*
X003429Y006509D02*
X003603Y006509D01*
X003603Y006518D02*
X003429Y006518D01*
X003429Y006526D02*
X003603Y006526D01*
X003603Y006236D02*
X003603Y005976D01*
X003429Y005976D01*
X003429Y006236D01*
X003603Y006236D01*
X003603Y006229D02*
X003429Y006229D01*
X003429Y006220D02*
X003603Y006220D01*
X003603Y006212D02*
X003429Y006212D01*
X003429Y006203D02*
X003603Y006203D01*
X003603Y006195D02*
X003429Y006195D01*
X003429Y006186D02*
X003603Y006186D01*
X003603Y006178D02*
X003429Y006178D01*
X003429Y006169D02*
X003603Y006169D01*
X003603Y006161D02*
X003429Y006161D01*
X003429Y006152D02*
X003603Y006152D01*
X003603Y006144D02*
X003429Y006144D01*
X003429Y006135D02*
X003603Y006135D01*
X003603Y006127D02*
X003429Y006127D01*
X003429Y006118D02*
X003603Y006118D01*
X003603Y006110D02*
X003429Y006110D01*
X003429Y006101D02*
X003603Y006101D01*
X003603Y006093D02*
X003429Y006093D01*
X003429Y006084D02*
X003603Y006084D01*
X003603Y006076D02*
X003429Y006076D01*
X003429Y006067D02*
X003603Y006067D01*
X003603Y006059D02*
X003429Y006059D01*
X003429Y006050D02*
X003603Y006050D01*
X003603Y006042D02*
X003429Y006042D01*
X003429Y006033D02*
X003603Y006033D01*
X003603Y006025D02*
X003429Y006025D01*
X003429Y006016D02*
X003603Y006016D01*
X003603Y006008D02*
X003429Y006008D01*
X003429Y005999D02*
X003603Y005999D01*
X003603Y005991D02*
X003429Y005991D01*
X003429Y005982D02*
X003603Y005982D01*
D18*
X004370Y005957D03*
X004370Y006705D03*
D19*
X003680Y023668D03*
X003680Y024668D03*
X002680Y024768D03*
X002680Y023768D03*
X004680Y023768D03*
X004680Y024768D03*
D20*
X004790Y022732D02*
X004790Y022368D01*
X004654Y022368D01*
X004654Y022732D01*
X004790Y022732D01*
X004790Y022413D02*
X004654Y022413D01*
X004654Y022458D02*
X004790Y022458D01*
X004790Y022503D02*
X004654Y022503D01*
X004654Y022548D02*
X004790Y022548D01*
X004790Y022593D02*
X004654Y022593D01*
X004654Y022638D02*
X004790Y022638D01*
X004790Y022683D02*
X004654Y022683D01*
X004654Y022728D02*
X004790Y022728D01*
X004986Y022732D02*
X004986Y022368D01*
X004850Y022368D01*
X004850Y022732D01*
X004986Y022732D01*
X004986Y022413D02*
X004850Y022413D01*
X004850Y022458D02*
X004986Y022458D01*
X004986Y022503D02*
X004850Y022503D01*
X004850Y022548D02*
X004986Y022548D01*
X004986Y022593D02*
X004850Y022593D01*
X004850Y022638D02*
X004986Y022638D01*
X004986Y022683D02*
X004850Y022683D01*
X004850Y022728D02*
X004986Y022728D01*
X005183Y022732D02*
X005183Y022368D01*
X005047Y022368D01*
X005047Y022732D01*
X005183Y022732D01*
X005183Y022413D02*
X005047Y022413D01*
X005047Y022458D02*
X005183Y022458D01*
X005183Y022503D02*
X005047Y022503D01*
X005047Y022548D02*
X005183Y022548D01*
X005183Y022593D02*
X005047Y022593D01*
X005047Y022638D02*
X005183Y022638D01*
X005183Y022683D02*
X005047Y022683D01*
X005047Y022728D02*
X005183Y022728D01*
X005203Y022213D02*
X005567Y022213D01*
X005203Y022213D02*
X005203Y022349D01*
X005567Y022349D01*
X005567Y022213D01*
X005567Y022258D02*
X005203Y022258D01*
X005203Y022303D02*
X005567Y022303D01*
X005567Y022348D02*
X005203Y022348D01*
X005203Y022016D02*
X005567Y022016D01*
X005203Y022016D02*
X005203Y022152D01*
X005567Y022152D01*
X005567Y022016D01*
X005567Y022061D02*
X005203Y022061D01*
X005203Y022106D02*
X005567Y022106D01*
X005567Y022151D02*
X005203Y022151D01*
X005203Y021819D02*
X005567Y021819D01*
X005203Y021819D02*
X005203Y021955D01*
X005567Y021955D01*
X005567Y021819D01*
X005567Y021864D02*
X005203Y021864D01*
X005203Y021909D02*
X005567Y021909D01*
X005567Y021954D02*
X005203Y021954D01*
X005203Y021622D02*
X005567Y021622D01*
X005203Y021622D02*
X005203Y021758D01*
X005567Y021758D01*
X005567Y021622D01*
X005567Y021667D02*
X005203Y021667D01*
X005203Y021712D02*
X005567Y021712D01*
X005567Y021757D02*
X005203Y021757D01*
X005183Y021602D02*
X005183Y021238D01*
X005047Y021238D01*
X005047Y021602D01*
X005183Y021602D01*
X005183Y021283D02*
X005047Y021283D01*
X005047Y021328D02*
X005183Y021328D01*
X005183Y021373D02*
X005047Y021373D01*
X005047Y021418D02*
X005183Y021418D01*
X005183Y021463D02*
X005047Y021463D01*
X005047Y021508D02*
X005183Y021508D01*
X005183Y021553D02*
X005047Y021553D01*
X005047Y021598D02*
X005183Y021598D01*
X004986Y021602D02*
X004986Y021238D01*
X004850Y021238D01*
X004850Y021602D01*
X004986Y021602D01*
X004986Y021283D02*
X004850Y021283D01*
X004850Y021328D02*
X004986Y021328D01*
X004986Y021373D02*
X004850Y021373D01*
X004850Y021418D02*
X004986Y021418D01*
X004986Y021463D02*
X004850Y021463D01*
X004850Y021508D02*
X004986Y021508D01*
X004986Y021553D02*
X004850Y021553D01*
X004850Y021598D02*
X004986Y021598D01*
X004790Y021602D02*
X004790Y021238D01*
X004654Y021238D01*
X004654Y021602D01*
X004790Y021602D01*
X004790Y021283D02*
X004654Y021283D01*
X004654Y021328D02*
X004790Y021328D01*
X004790Y021373D02*
X004654Y021373D01*
X004654Y021418D02*
X004790Y021418D01*
X004790Y021463D02*
X004654Y021463D01*
X004654Y021508D02*
X004790Y021508D01*
X004790Y021553D02*
X004654Y021553D01*
X004654Y021598D02*
X004790Y021598D01*
X004593Y021602D02*
X004593Y021238D01*
X004457Y021238D01*
X004457Y021602D01*
X004593Y021602D01*
X004593Y021283D02*
X004457Y021283D01*
X004457Y021328D02*
X004593Y021328D01*
X004593Y021373D02*
X004457Y021373D01*
X004457Y021418D02*
X004593Y021418D01*
X004593Y021463D02*
X004457Y021463D01*
X004457Y021508D02*
X004593Y021508D01*
X004593Y021553D02*
X004457Y021553D01*
X004457Y021598D02*
X004593Y021598D01*
X004437Y021622D02*
X004073Y021622D01*
X004073Y021758D01*
X004437Y021758D01*
X004437Y021622D01*
X004437Y021667D02*
X004073Y021667D01*
X004073Y021712D02*
X004437Y021712D01*
X004437Y021757D02*
X004073Y021757D01*
X004073Y021819D02*
X004437Y021819D01*
X004073Y021819D02*
X004073Y021955D01*
X004437Y021955D01*
X004437Y021819D01*
X004437Y021864D02*
X004073Y021864D01*
X004073Y021909D02*
X004437Y021909D01*
X004437Y021954D02*
X004073Y021954D01*
X004073Y022016D02*
X004437Y022016D01*
X004073Y022016D02*
X004073Y022152D01*
X004437Y022152D01*
X004437Y022016D01*
X004437Y022061D02*
X004073Y022061D01*
X004073Y022106D02*
X004437Y022106D01*
X004437Y022151D02*
X004073Y022151D01*
X004073Y022213D02*
X004437Y022213D01*
X004073Y022213D02*
X004073Y022349D01*
X004437Y022349D01*
X004437Y022213D01*
X004437Y022258D02*
X004073Y022258D01*
X004073Y022303D02*
X004437Y022303D01*
X004437Y022348D02*
X004073Y022348D01*
X004593Y022368D02*
X004593Y022732D01*
X004593Y022368D02*
X004457Y022368D01*
X004457Y022732D01*
X004593Y022732D01*
X004593Y022413D02*
X004457Y022413D01*
X004457Y022458D02*
X004593Y022458D01*
X004593Y022503D02*
X004457Y022503D01*
X004457Y022548D02*
X004593Y022548D01*
X004593Y022593D02*
X004457Y022593D01*
X004457Y022638D02*
X004593Y022638D01*
X004593Y022683D02*
X004457Y022683D01*
X004457Y022728D02*
X004593Y022728D01*
D21*
X005200Y006681D03*
X005200Y006071D03*
X005400Y006071D03*
X005400Y006681D03*
D22*
X005300Y006376D03*
D23*
X003341Y021239D03*
X003144Y021239D03*
X002947Y021239D03*
X002750Y021239D03*
X002750Y021751D03*
X002947Y021751D03*
X003144Y021751D03*
X003341Y021751D03*
X003341Y022420D03*
X003341Y022932D03*
X003144Y022932D03*
X003144Y022420D03*
X002947Y022420D03*
X002947Y022932D03*
X002750Y022932D03*
X002750Y022420D03*
X006525Y022154D03*
X006525Y021642D03*
X006722Y021642D03*
X006722Y022154D03*
X006918Y022154D03*
X006918Y021642D03*
X007115Y021642D03*
X007115Y022154D03*
D24*
X001737Y005869D03*
X001737Y006869D03*
X001737Y007869D03*
X001737Y008869D03*
X001737Y009869D03*
X001737Y010869D03*
X001737Y011869D03*
X001737Y012869D03*
X001737Y013869D03*
X001737Y014869D03*
X001737Y015869D03*
X001737Y016869D03*
X001737Y017869D03*
X001737Y018869D03*
X001737Y019869D03*
X001737Y020869D03*
X001737Y021869D03*
X001737Y022869D03*
X001737Y023869D03*
X001737Y024869D03*
X007737Y024869D03*
X007737Y023869D03*
X007737Y022869D03*
X007737Y021869D03*
X007737Y020869D03*
X007737Y019869D03*
X007737Y018869D03*
X007737Y017869D03*
X007737Y016869D03*
X007737Y015869D03*
X007737Y014869D03*
X007737Y013869D03*
X007737Y012869D03*
X007737Y011869D03*
X007737Y010869D03*
X007737Y009869D03*
X007737Y008869D03*
X007737Y007869D03*
X007737Y006869D03*
X007737Y005869D03*
D25*
X006815Y007389D03*
X006815Y008389D03*
X005815Y008389D03*
X005815Y007389D03*
X004815Y007389D03*
X004815Y008389D03*
X003815Y008389D03*
X003815Y007389D03*
X002815Y007389D03*
X002815Y008389D03*
X005760Y024438D03*
X005760Y025438D03*
X006760Y025438D03*
X006760Y024438D03*
D26*
X006435Y006451D03*
X006435Y005624D03*
X007085Y005624D03*
X007085Y006451D03*
D27*
X004460Y005546D03*
X001212Y006291D03*
X000980Y009506D03*
X001100Y014778D03*
M02*
