G75*
%MOIN*%
%OFA0B0*%
%FSLAX24Y24*%
%IPPOS*%
%LPD*%
%AMOC8*
5,1,8,0,0,1.08239X$1,22.5*
%
%ADD10C,0.0740*%
%ADD11OC8,0.0520*%
%ADD12OC8,0.0640*%
%ADD13OC8,0.0296*%
%ADD14C,0.0100*%
%ADD15OC8,0.0178*%
%ADD16OC8,0.0257*%
%ADD17C,0.0060*%
%ADD18OC8,0.0217*%
%ADD19C,0.0060*%
%ADD20C,0.0140*%
%ADD21C,0.0080*%
%ADD22C,0.0050*%
D10*
X003680Y023668D03*
X003680Y024668D03*
X002680Y024768D03*
X002680Y023768D03*
X004680Y023768D03*
X004680Y024768D03*
D11*
X001737Y024869D03*
X001737Y023869D03*
X001737Y022869D03*
X001737Y021869D03*
X001737Y020869D03*
X001737Y019869D03*
X001737Y018869D03*
X001737Y017869D03*
X001737Y016869D03*
X001737Y015869D03*
X001737Y014869D03*
X001737Y013869D03*
X001737Y012869D03*
X001737Y011869D03*
X001737Y010869D03*
X001737Y009869D03*
X001737Y008869D03*
X001737Y007869D03*
X001737Y006869D03*
X001737Y005869D03*
X007737Y005869D03*
X007737Y006869D03*
X007737Y007869D03*
X007737Y008869D03*
X007737Y009869D03*
X007737Y010869D03*
X007737Y011869D03*
X007737Y012869D03*
X007737Y013869D03*
X007737Y014869D03*
X007737Y015869D03*
X007737Y016869D03*
X007737Y017869D03*
X007737Y018869D03*
X007737Y019869D03*
X007737Y020869D03*
X007737Y021869D03*
X007737Y022869D03*
X007737Y023869D03*
X007737Y024869D03*
D12*
X006760Y024438D03*
X006760Y025438D03*
X005760Y025438D03*
X005760Y024438D03*
X005815Y008389D03*
X005815Y007389D03*
X004815Y007389D03*
X004815Y008389D03*
X003815Y008389D03*
X003815Y007389D03*
X002815Y007389D03*
X002815Y008389D03*
X006815Y008389D03*
X006815Y007389D03*
D13*
X004460Y005546D03*
X001212Y006291D03*
X000980Y009506D03*
X001100Y014778D03*
D14*
X001100Y014658D01*
X000970Y014668D02*
X001400Y014668D01*
X001357Y014712D02*
X001357Y015026D01*
X001438Y015108D01*
X001178Y015108D01*
X000970Y015316D01*
X000970Y012146D01*
X001153Y012146D01*
X001298Y012001D01*
X001298Y011887D01*
X001357Y011828D01*
X001357Y012026D01*
X001579Y012249D01*
X001894Y012249D01*
X002117Y012026D01*
X002117Y011712D01*
X001993Y011588D01*
X002430Y011588D01*
X002665Y011354D01*
X002677Y011366D01*
X002883Y011366D01*
X003028Y011221D01*
X003028Y011147D01*
X003107Y011147D01*
X003229Y011024D01*
X003229Y010851D01*
X003107Y010729D01*
X003023Y010729D01*
X003022Y010728D01*
X006171Y010728D01*
X006171Y010784D02*
X006171Y010611D01*
X006293Y010489D01*
X006467Y010489D01*
X006589Y010611D01*
X006589Y010784D01*
X006585Y010789D01*
X006647Y010789D01*
X006680Y010822D01*
X006773Y010729D01*
X006947Y010729D01*
X007069Y010851D01*
X007069Y011024D01*
X007010Y011083D01*
X007010Y011120D01*
X006922Y011208D01*
X006830Y011300D01*
X006830Y012048D01*
X007102Y012048D01*
X007310Y012256D01*
X007310Y012370D01*
X007399Y012277D01*
X007437Y012233D01*
X007442Y012232D01*
X007445Y012229D01*
X007494Y012228D01*
X007526Y012196D01*
X007357Y012026D01*
X007357Y011712D01*
X007579Y011489D01*
X007894Y011489D01*
X007970Y011565D01*
X007970Y011532D01*
X007789Y011349D01*
X007621Y011349D01*
X007619Y011351D01*
X007495Y011356D01*
X007332Y011208D01*
X007328Y011208D01*
X007286Y011166D01*
X007243Y011127D01*
X007243Y011123D01*
X007240Y011120D01*
X007240Y011061D01*
X007237Y011003D01*
X007240Y011000D01*
X007240Y010572D01*
X007229Y010559D01*
X007190Y010520D01*
X007190Y010512D01*
X007185Y010506D01*
X007190Y010451D01*
X007190Y008636D01*
X006998Y008829D01*
X006633Y008829D01*
X006375Y008571D01*
X006375Y008206D01*
X006633Y007949D01*
X006998Y007949D01*
X007190Y008141D01*
X007190Y007636D01*
X006998Y007829D01*
X006633Y007829D01*
X006375Y007571D01*
X006375Y007206D01*
X006614Y006968D01*
X006511Y006864D01*
X006511Y006691D01*
X006633Y006569D01*
X006807Y006569D01*
X006880Y006642D01*
X006933Y006589D01*
X007107Y006589D01*
X007229Y006711D01*
X007229Y006766D01*
X007357Y006894D01*
X007357Y006712D01*
X007579Y006489D01*
X007894Y006489D01*
X008117Y006712D01*
X008117Y007026D01*
X007894Y007249D01*
X007736Y007249D01*
X007736Y007344D01*
X007613Y007467D01*
X007490Y007467D01*
X007490Y007578D01*
X007579Y007489D01*
X007894Y007489D01*
X008117Y007712D01*
X008117Y008026D01*
X007894Y008249D01*
X007670Y008249D01*
X007670Y008352D01*
X007698Y008378D01*
X007878Y008378D01*
X007938Y008376D01*
X007940Y008378D01*
X007942Y008378D01*
X007985Y008420D01*
X008140Y008568D01*
X008142Y008568D01*
X008185Y008610D01*
X008228Y008652D01*
X008228Y008654D01*
X008230Y008656D01*
X008230Y008716D01*
X008232Y008776D01*
X008230Y008778D01*
X008230Y008804D01*
X008349Y008938D01*
X008390Y008979D01*
X008390Y008984D01*
X008393Y008988D01*
X008390Y009046D01*
X008390Y009320D01*
X008330Y009380D01*
X008330Y010936D01*
X008510Y011116D01*
X008510Y014300D01*
X008422Y014388D01*
X008390Y014420D01*
X008390Y015436D01*
X008516Y015562D01*
X008516Y005340D01*
X006621Y005340D01*
X007040Y005759D01*
X007123Y005759D01*
X007268Y005905D01*
X007268Y006111D01*
X007123Y006256D01*
X006917Y006256D01*
X006772Y006111D01*
X006772Y006028D01*
X006371Y005628D01*
X006214Y005628D01*
X006214Y006944D01*
X003995Y006902D01*
X003948Y006949D01*
X003998Y006949D01*
X004255Y007206D01*
X004255Y007571D01*
X003998Y007829D01*
X003633Y007829D01*
X003375Y007571D01*
X003375Y007206D01*
X003613Y006968D01*
X003017Y006968D01*
X003255Y007206D01*
X003255Y007571D01*
X002998Y007829D01*
X002633Y007829D01*
X002450Y007646D01*
X002450Y007732D01*
X002569Y007851D01*
X002569Y008013D01*
X002633Y007949D01*
X002998Y007949D01*
X003255Y008206D01*
X003255Y008571D01*
X002998Y008829D01*
X002633Y008829D01*
X002375Y008571D01*
X002375Y008206D01*
X002435Y008147D01*
X002273Y008147D01*
X002151Y008024D01*
X002151Y007941D01*
X002150Y007940D01*
X002150Y007576D01*
X001972Y007382D01*
X001930Y007340D01*
X001930Y007336D01*
X001927Y007333D01*
X001930Y007275D01*
X001930Y007213D01*
X001894Y007249D01*
X001579Y007249D01*
X001357Y007026D01*
X001357Y006712D01*
X001579Y006489D01*
X001894Y006489D01*
X001930Y006525D01*
X001930Y006383D01*
X001788Y006249D01*
X001579Y006249D01*
X001357Y006026D01*
X001357Y005712D01*
X001440Y005628D01*
X001159Y005628D01*
X001050Y005736D01*
X001050Y009238D01*
X001091Y009238D01*
X001248Y009395D01*
X001248Y009617D01*
X001091Y009774D01*
X000869Y009774D01*
X000712Y009617D01*
X000712Y009478D01*
X000692Y009458D01*
X000692Y010723D01*
X000721Y010723D01*
X000713Y011525D01*
X000812Y011426D01*
X000812Y011315D01*
X000957Y011169D01*
X000979Y011169D01*
X000957Y011147D01*
X000873Y011147D01*
X000751Y011024D01*
X000751Y010851D01*
X000873Y010729D01*
X001047Y010729D01*
X001169Y010851D01*
X001169Y010935D01*
X001322Y011088D01*
X001418Y011088D01*
X001357Y011026D01*
X001357Y010712D01*
X001579Y010489D01*
X001894Y010489D01*
X002117Y010712D01*
X002117Y011026D01*
X002055Y011088D01*
X002238Y011088D01*
X002598Y010728D01*
X002117Y010728D01*
X002117Y010826D02*
X002499Y010826D01*
X002401Y010925D02*
X002117Y010925D01*
X002117Y011023D02*
X002302Y011023D01*
X002620Y011158D02*
X002360Y011418D01*
X001520Y011418D01*
X001050Y011898D01*
X001192Y012107D02*
X001437Y012107D01*
X001357Y012008D02*
X001291Y012008D01*
X001298Y011910D02*
X001357Y011910D01*
X001535Y012205D02*
X000970Y012205D01*
X000970Y012304D02*
X002860Y012304D01*
X002918Y012247D02*
X002795Y012369D01*
X002795Y012542D01*
X002854Y012601D01*
X002854Y012708D01*
X002776Y012787D01*
X002776Y012945D01*
X002618Y013102D01*
X002618Y013463D01*
X002706Y013550D01*
X002795Y013640D01*
X002795Y013723D01*
X002918Y013846D01*
X003091Y013846D01*
X003162Y013775D01*
X003233Y013846D01*
X003406Y013846D01*
X003477Y013775D01*
X003496Y013794D01*
X003425Y013865D01*
X003425Y013920D01*
X003406Y013939D01*
X003406Y013939D01*
X003307Y014039D01*
X003307Y014039D01*
X003278Y014068D01*
X002075Y014068D01*
X002117Y014026D01*
X002117Y013712D01*
X001894Y013489D01*
X001728Y013489D01*
X001728Y013335D01*
X001643Y013249D01*
X001894Y013249D01*
X002117Y013026D01*
X002117Y012712D01*
X001894Y012489D01*
X001579Y012489D01*
X001357Y012712D01*
X001357Y013026D01*
X001520Y013189D01*
X001377Y013189D01*
X001232Y013335D01*
X001232Y013356D01*
X001200Y013387D01*
X000970Y013387D01*
X000970Y013289D02*
X001278Y013289D01*
X001200Y013387D02*
X001200Y013405D01*
X001190Y013419D01*
X001200Y013473D01*
X001200Y013995D01*
X001195Y014001D01*
X001200Y014064D01*
X001200Y014128D01*
X001205Y014134D01*
X001206Y014141D01*
X001254Y014183D01*
X001300Y014228D01*
X001307Y014228D01*
X001464Y014363D01*
X001510Y014408D01*
X001517Y014408D01*
X001523Y014413D01*
X001587Y014408D01*
X001799Y014408D01*
X001792Y014415D01*
X001792Y014489D01*
X001579Y014489D01*
X001357Y014712D01*
X001357Y014766D02*
X000970Y014766D01*
X000970Y014865D02*
X001357Y014865D01*
X001357Y014963D02*
X000970Y014963D01*
X000970Y015062D02*
X001392Y015062D01*
X001125Y015160D02*
X000970Y015160D01*
X000970Y015259D02*
X001027Y015259D01*
X000970Y014569D02*
X001499Y014569D01*
X001474Y014372D02*
X000970Y014372D01*
X000970Y014274D02*
X001361Y014274D01*
X001246Y014175D02*
X000970Y014175D01*
X000970Y014077D02*
X001200Y014077D01*
X001200Y013978D02*
X000970Y013978D01*
X000970Y013880D02*
X001200Y013880D01*
X001200Y013781D02*
X000970Y013781D01*
X000970Y013683D02*
X001200Y013683D01*
X001200Y013584D02*
X000970Y013584D01*
X000970Y013486D02*
X001200Y013486D01*
X001370Y013458D02*
X001370Y014058D01*
X001580Y014238D01*
X003348Y014238D01*
X003477Y014109D01*
X003949Y014582D01*
X005209Y014582D01*
X005524Y014267D01*
X005839Y014582D01*
X006154Y014582D01*
X006469Y014897D01*
X006469Y014929D01*
X006260Y015138D01*
X006260Y015318D01*
X006440Y015498D01*
X006440Y015791D01*
X006390Y015841D01*
X006075Y016156D01*
X005839Y016156D01*
X005681Y016018D02*
X005752Y015947D01*
X005925Y015947D01*
X005965Y015986D01*
X006005Y015986D01*
X006032Y015959D01*
X005847Y015775D01*
X005752Y015775D01*
X005673Y015854D01*
X004886Y015854D01*
X004592Y016148D01*
X004592Y016227D01*
X004335Y016484D01*
X004158Y016484D01*
X004158Y016558D01*
X004087Y016629D01*
X004107Y016648D01*
X004178Y016577D01*
X004351Y016577D01*
X004422Y016648D01*
X004492Y016577D01*
X004666Y016577D01*
X004737Y016648D01*
X004807Y016577D01*
X004981Y016577D01*
X005103Y016700D01*
X005103Y016873D01*
X004981Y016995D01*
X004897Y016995D01*
X004850Y017042D01*
X004850Y018467D01*
X004861Y018467D01*
X004983Y018589D01*
X004983Y018763D01*
X004861Y018885D01*
X004687Y018885D01*
X004647Y018844D01*
X004606Y018885D01*
X004432Y018885D01*
X004392Y018844D01*
X004351Y018885D01*
X004178Y018885D01*
X004137Y018844D01*
X004096Y018885D01*
X003923Y018885D01*
X003800Y018763D01*
X003800Y018679D01*
X003799Y018678D01*
X003799Y016932D01*
X003792Y016924D01*
X003784Y016932D01*
X003784Y018581D01*
X003686Y018679D01*
X003686Y018763D01*
X003563Y018885D01*
X003390Y018885D01*
X003319Y018814D01*
X003248Y018885D01*
X003075Y018885D01*
X003005Y018815D01*
X003000Y018820D01*
X003000Y018866D01*
X003083Y018949D01*
X003167Y018949D01*
X003289Y019071D01*
X003289Y019244D01*
X003167Y019367D01*
X002993Y019367D01*
X002871Y019244D01*
X002871Y019161D01*
X002788Y019078D01*
X002705Y019078D01*
X002582Y018956D01*
X002582Y018782D01*
X002698Y018667D01*
X002698Y018531D01*
X002820Y018409D01*
X002854Y018409D01*
X002854Y016932D01*
X002847Y016924D01*
X002776Y016995D01*
X002603Y016995D01*
X002480Y016873D01*
X002480Y016700D01*
X002551Y016629D01*
X002480Y016558D01*
X002480Y016385D01*
X002603Y016262D01*
X002686Y016262D01*
X002745Y016203D01*
X003363Y016203D01*
X003545Y016112D01*
X003572Y016085D01*
X003599Y016085D01*
X003623Y016073D01*
X003659Y016085D01*
X003740Y016085D01*
X003740Y016070D01*
X003863Y015947D01*
X004036Y015947D01*
X004158Y016070D01*
X004158Y016125D01*
X004177Y016144D01*
X004194Y016144D01*
X004252Y016086D01*
X004252Y016007D01*
X004351Y015908D01*
X004745Y015514D01*
X005532Y015514D01*
X005611Y015435D01*
X005988Y015435D01*
X006224Y015671D01*
X006270Y015671D01*
X006270Y015568D01*
X006090Y015388D01*
X006090Y015067D01*
X006190Y014968D01*
X006245Y014913D01*
X006083Y014752D01*
X005768Y014752D01*
X005669Y014652D01*
X005524Y014507D01*
X005279Y014752D01*
X003879Y014752D01*
X003779Y014652D01*
X003477Y014350D01*
X003430Y014396D01*
X003528Y014495D01*
X003528Y014668D01*
X003489Y014707D01*
X003489Y014771D01*
X003528Y014810D01*
X003528Y014983D01*
X003406Y015106D01*
X003233Y015106D01*
X003162Y015035D01*
X003142Y015054D01*
X003213Y015125D01*
X003213Y015298D01*
X003142Y015369D01*
X003213Y015440D01*
X003213Y015613D01*
X003238Y015613D01*
X003559Y015421D01*
X003548Y015421D01*
X003425Y015298D01*
X003425Y015125D01*
X003548Y015002D01*
X003721Y015002D01*
X003760Y015041D01*
X004138Y015041D01*
X004178Y015002D01*
X004351Y015002D01*
X004473Y015125D01*
X004473Y015298D01*
X004402Y015369D01*
X004473Y015440D01*
X004473Y015613D01*
X004351Y015735D01*
X004235Y015735D01*
X004048Y015876D01*
X004011Y015913D01*
X003999Y015913D01*
X003989Y015920D01*
X003938Y015913D01*
X003709Y015913D01*
X003447Y016043D01*
X003421Y016070D01*
X003394Y016070D01*
X003370Y016082D01*
X003334Y016070D01*
X002785Y016070D01*
X002697Y015982D01*
X002461Y015746D01*
X002461Y015676D01*
X002358Y015676D01*
X002285Y015750D01*
X002270Y016003D01*
X002270Y016061D01*
X002266Y016065D01*
X002266Y016070D01*
X002223Y016108D01*
X002006Y016324D01*
X001962Y016368D01*
X001962Y016368D01*
X001962Y016368D01*
X001900Y016368D01*
X001450Y016368D01*
X001450Y016618D01*
X001579Y016489D01*
X001894Y016489D01*
X002117Y016712D01*
X002117Y017026D01*
X002095Y017047D01*
X002199Y017151D01*
X002199Y017324D01*
X002077Y017447D01*
X001914Y017447D01*
X001887Y017461D01*
X001887Y017489D01*
X001894Y017489D01*
X002117Y017712D01*
X002117Y018026D01*
X001894Y018249D01*
X001579Y018249D01*
X001450Y018120D01*
X001450Y018618D01*
X001579Y018489D01*
X001894Y018489D01*
X002117Y018712D01*
X002117Y019026D01*
X001894Y019249D01*
X001610Y019249D01*
X001610Y019282D01*
X001614Y019287D01*
X001610Y019344D01*
X001610Y019400D01*
X001605Y019405D01*
X001605Y019411D01*
X001562Y019448D01*
X001540Y019470D01*
X001540Y019528D01*
X001579Y019489D01*
X001894Y019489D01*
X002117Y019712D01*
X002117Y020026D01*
X001894Y020249D01*
X001579Y020249D01*
X001540Y020210D01*
X001540Y020528D01*
X001579Y020489D01*
X001894Y020489D01*
X002117Y020712D01*
X002117Y021026D01*
X001894Y021249D01*
X001579Y021249D01*
X001540Y021210D01*
X001540Y021528D01*
X001579Y021489D01*
X001894Y021489D01*
X002117Y021712D01*
X002117Y022026D01*
X001990Y022152D01*
X002089Y022251D01*
X002089Y022328D01*
X002259Y022488D01*
X002262Y022488D01*
X002304Y022530D01*
X002348Y022571D01*
X002348Y022574D01*
X002350Y022576D01*
X002350Y022635D01*
X002352Y022695D01*
X002350Y022697D01*
X002350Y023088D01*
X002357Y023097D01*
X002350Y023148D01*
X002350Y023200D01*
X002341Y023208D01*
X002340Y023220D01*
X002299Y023251D01*
X002270Y023280D01*
X002270Y023485D01*
X002402Y023352D01*
X002583Y023278D01*
X002777Y023278D01*
X002958Y023352D01*
X003095Y023490D01*
X003170Y023670D01*
X003170Y023865D01*
X003095Y024045D01*
X002958Y024183D01*
X002777Y024258D01*
X002583Y024258D01*
X002402Y024183D01*
X002265Y024045D01*
X002190Y023865D01*
X002190Y023800D01*
X002182Y023808D01*
X002117Y023873D01*
X002117Y024026D01*
X001894Y024249D01*
X001658Y024249D01*
X001658Y024459D01*
X001707Y024459D01*
X001707Y024839D01*
X001767Y024839D01*
X001767Y024899D01*
X002147Y024899D01*
X002147Y025039D01*
X002045Y025140D01*
X002359Y025140D01*
X002265Y025045D01*
X002190Y024865D01*
X002190Y024670D01*
X002265Y024490D01*
X002402Y024352D01*
X002583Y024278D01*
X002777Y024278D01*
X002958Y024352D01*
X003095Y024490D01*
X003170Y024670D01*
X003170Y024865D01*
X003095Y025045D01*
X003001Y025140D01*
X003257Y025140D01*
X003358Y025039D01*
X003265Y024945D01*
X003190Y024765D01*
X003190Y024570D01*
X003265Y024390D01*
X003402Y024252D01*
X003583Y024178D01*
X003777Y024178D01*
X003958Y024252D01*
X004095Y024390D01*
X004170Y024570D01*
X004170Y024765D01*
X004095Y024945D01*
X003958Y025083D01*
X003777Y025158D01*
X003664Y025158D01*
X003469Y025352D01*
X003381Y025440D01*
X001367Y025440D01*
X001043Y025116D01*
X001043Y024287D01*
X000910Y024287D01*
X000787Y024164D01*
X000787Y023991D01*
X000807Y023971D01*
X000807Y022787D01*
X000895Y022699D01*
X000903Y022699D01*
X000926Y022675D01*
X000801Y022550D01*
X000801Y022505D01*
X000748Y022469D01*
X000730Y022469D01*
X000692Y022431D01*
X000692Y025870D01*
X005528Y025870D01*
X005290Y025632D01*
X005290Y025488D01*
X005710Y025488D01*
X005710Y025388D01*
X005290Y025388D01*
X005290Y025243D01*
X005565Y024968D01*
X005710Y024968D01*
X005710Y025388D01*
X005810Y025388D01*
X005810Y025488D01*
X006230Y025488D01*
X006230Y025632D01*
X005992Y025870D01*
X006570Y025870D01*
X006320Y025620D01*
X006320Y025256D01*
X006578Y024998D01*
X006942Y024998D01*
X007200Y025256D01*
X007200Y025620D01*
X006950Y025870D01*
X008516Y025870D01*
X008516Y020557D01*
X008447Y020627D01*
X008273Y020627D01*
X008151Y020504D01*
X008151Y020367D01*
X008044Y020466D01*
X008002Y020508D01*
X007999Y020508D01*
X007996Y020510D01*
X007937Y020508D01*
X007913Y020508D01*
X008117Y020712D01*
X008117Y021026D01*
X007970Y021172D01*
X008029Y021231D01*
X008029Y021250D01*
X008138Y021348D01*
X008142Y021348D01*
X008183Y021389D01*
X008227Y021428D01*
X008227Y021432D01*
X008230Y021436D01*
X008230Y021494D01*
X008233Y021552D01*
X008230Y021555D01*
X008230Y023486D01*
X008232Y023488D01*
X008230Y023548D01*
X008230Y023608D01*
X008228Y023609D01*
X008228Y023612D01*
X008184Y023653D01*
X008142Y023695D01*
X008140Y023695D01*
X008117Y023717D01*
X008117Y024026D01*
X007894Y024249D01*
X007579Y024249D01*
X007357Y024026D01*
X007357Y023712D01*
X007579Y023489D01*
X007894Y023489D01*
X007907Y023502D01*
X007930Y023481D01*
X007930Y023213D01*
X007894Y023249D01*
X007579Y023249D01*
X007357Y023026D01*
X007357Y022712D01*
X007579Y022489D01*
X007894Y022489D01*
X007930Y022525D01*
X007930Y022213D01*
X007894Y022249D01*
X007579Y022249D01*
X007357Y022026D01*
X007357Y021712D01*
X007579Y021489D01*
X007696Y021489D01*
X007611Y021404D01*
X007611Y021249D01*
X007579Y021249D01*
X007357Y021026D01*
X007357Y020712D01*
X007560Y020508D01*
X007518Y020508D01*
X007430Y020420D01*
X006991Y019981D01*
X006728Y019966D01*
X006677Y020017D01*
X006503Y020017D01*
X006480Y019993D01*
X006447Y020027D01*
X006273Y020027D01*
X006255Y020008D01*
X006217Y020047D01*
X006043Y020047D01*
X005921Y019924D01*
X005921Y019751D01*
X006043Y019629D01*
X006057Y019629D01*
X006318Y019368D01*
X006894Y019368D01*
X006891Y019364D01*
X006891Y019191D01*
X007013Y019069D01*
X007131Y019069D01*
X007131Y019011D01*
X007253Y018889D01*
X007357Y018889D01*
X007357Y018712D01*
X007579Y018489D01*
X007894Y018489D01*
X007970Y018565D01*
X007970Y018173D01*
X007894Y018249D01*
X007579Y018249D01*
X007357Y018026D01*
X007357Y017712D01*
X007579Y017489D01*
X007894Y017489D01*
X007970Y017565D01*
X007970Y017173D01*
X007894Y017249D01*
X007579Y017249D01*
X007357Y017026D01*
X007357Y016712D01*
X007579Y016489D01*
X007894Y016489D01*
X007970Y016565D01*
X007970Y016555D01*
X007664Y016249D01*
X007579Y016249D01*
X007357Y016026D01*
X007357Y015712D01*
X007579Y015489D01*
X007659Y015489D01*
X007610Y015440D01*
X007610Y015249D01*
X007579Y015249D01*
X007357Y015026D01*
X007357Y014712D01*
X007561Y014507D01*
X007433Y014507D01*
X007356Y014429D01*
X007250Y014538D01*
X007250Y014716D01*
X007250Y014840D01*
X007190Y014900D01*
X007190Y015020D01*
X007102Y015108D01*
X006848Y015361D01*
X006614Y015361D01*
X006579Y015397D01*
X006610Y015427D01*
X006610Y015862D01*
X006560Y015912D01*
X006146Y016326D01*
X005990Y016326D01*
X006048Y016385D01*
X006048Y016558D01*
X005977Y016629D01*
X005996Y016648D01*
X006067Y016577D01*
X006240Y016577D01*
X006311Y016648D01*
X006331Y016629D01*
X006260Y016558D01*
X006260Y016385D01*
X006382Y016262D01*
X006555Y016262D01*
X006678Y016385D01*
X006678Y016468D01*
X006934Y016724D01*
X006934Y017197D01*
X006939Y017201D01*
X006939Y018329D01*
X007047Y018329D01*
X007169Y018451D01*
X007169Y018624D01*
X007047Y018747D01*
X006873Y018747D01*
X006756Y018629D01*
X006732Y018621D01*
X006714Y018587D01*
X006639Y018511D01*
X006639Y017326D01*
X006634Y017321D01*
X006634Y016917D01*
X006619Y016932D01*
X006619Y017151D01*
X006530Y017240D01*
X006442Y017328D01*
X006322Y017328D01*
X006260Y017390D01*
X006260Y017446D01*
X006322Y017508D01*
X006410Y017596D01*
X006410Y018314D01*
X006417Y018329D01*
X006435Y018329D01*
X006558Y018451D01*
X006558Y018624D01*
X006435Y018747D01*
X006262Y018747D01*
X006221Y018706D01*
X006222Y018706D01*
X006221Y018706D02*
X006180Y018747D01*
X006007Y018747D01*
X005966Y018706D01*
X005967Y018706D01*
X005966Y018706D02*
X005925Y018747D01*
X005800Y018747D01*
X005800Y019304D01*
X005520Y019584D01*
X005520Y019991D01*
X006026Y020498D01*
X006446Y020498D01*
X007117Y021169D01*
X007187Y021169D01*
X007499Y021169D01*
X007400Y021070D02*
X007019Y021070D01*
X006920Y020972D02*
X007357Y020972D01*
X007357Y020873D02*
X006822Y020873D01*
X006723Y020775D02*
X007357Y020775D01*
X007392Y020676D02*
X006625Y020676D01*
X006526Y020578D02*
X007490Y020578D01*
X007489Y020479D02*
X006008Y020479D01*
X005909Y020381D02*
X007391Y020381D01*
X007292Y020282D02*
X005811Y020282D01*
X005712Y020184D02*
X007194Y020184D01*
X007095Y020085D02*
X005614Y020085D01*
X005520Y019987D02*
X005983Y019987D01*
X005921Y019888D02*
X005520Y019888D01*
X005520Y019790D02*
X005921Y019790D01*
X005981Y019691D02*
X005520Y019691D01*
X005520Y019593D02*
X006093Y019593D01*
X006191Y019494D02*
X005610Y019494D01*
X005708Y019396D02*
X006290Y019396D01*
X006476Y018706D02*
X006833Y018706D01*
X006725Y018608D02*
X006558Y018608D01*
X006558Y018509D02*
X006639Y018509D01*
X006639Y018411D02*
X006518Y018411D01*
X006410Y018312D02*
X006639Y018312D01*
X006639Y018214D02*
X006410Y018214D01*
X006410Y018115D02*
X006639Y018115D01*
X006639Y018017D02*
X006410Y018017D01*
X006410Y017918D02*
X006639Y017918D01*
X006639Y017820D02*
X006410Y017820D01*
X006410Y017721D02*
X006639Y017721D01*
X006639Y017623D02*
X006410Y017623D01*
X006339Y017524D02*
X006639Y017524D01*
X006639Y017426D02*
X006260Y017426D01*
X006443Y017327D02*
X006639Y017327D01*
X006634Y017229D02*
X006541Y017229D01*
X006619Y017130D02*
X006634Y017130D01*
X006634Y017032D02*
X006619Y017032D01*
X006619Y016933D02*
X006634Y016933D01*
X006847Y016638D02*
X007430Y016638D01*
X007357Y016736D02*
X006934Y016736D01*
X006934Y016835D02*
X007357Y016835D01*
X007357Y016933D02*
X006934Y016933D01*
X006934Y017032D02*
X007362Y017032D01*
X007460Y017130D02*
X006934Y017130D01*
X006939Y017229D02*
X007559Y017229D01*
X007544Y017524D02*
X006939Y017524D01*
X006939Y017426D02*
X007970Y017426D01*
X007970Y017524D02*
X007929Y017524D01*
X007970Y017327D02*
X006939Y017327D01*
X006939Y017623D02*
X007445Y017623D01*
X007357Y017721D02*
X006939Y017721D01*
X006939Y017820D02*
X007357Y017820D01*
X007357Y017918D02*
X006939Y017918D01*
X006939Y018017D02*
X007357Y018017D01*
X007445Y018115D02*
X006939Y018115D01*
X006939Y018214D02*
X007544Y018214D01*
X007559Y018509D02*
X007169Y018509D01*
X007169Y018608D02*
X007460Y018608D01*
X007362Y018706D02*
X007087Y018706D01*
X007239Y018903D02*
X005800Y018903D01*
X005800Y018805D02*
X007357Y018805D01*
X007140Y019002D02*
X005800Y019002D01*
X005800Y019100D02*
X006982Y019100D01*
X006891Y019199D02*
X005800Y019199D01*
X005800Y019297D02*
X006891Y019297D01*
X006997Y019987D02*
X006707Y019987D01*
X007187Y021169D02*
X007309Y021291D01*
X007309Y021464D01*
X007671Y021464D01*
X007611Y021366D02*
X007309Y021366D01*
X007309Y021464D02*
X007187Y021587D01*
X007013Y021587D01*
X006920Y021493D01*
X006827Y021587D01*
X006653Y021587D01*
X006620Y021553D01*
X006587Y021587D01*
X006413Y021587D01*
X006291Y021464D01*
X005220Y021464D01*
X005220Y021366D02*
X006262Y021366D01*
X006291Y021395D02*
X006074Y021178D01*
X005774Y021178D01*
X005680Y021084D01*
X004840Y020244D01*
X004840Y019331D01*
X004934Y019238D01*
X005140Y019031D01*
X005140Y017851D01*
X005220Y017771D01*
X005220Y017204D01*
X005128Y017112D01*
X005128Y016380D01*
X005049Y016301D01*
X005049Y016292D01*
X005000Y016243D01*
X005000Y016070D01*
X005122Y015947D01*
X005296Y015947D01*
X005366Y016018D01*
X005437Y015947D01*
X005611Y015947D01*
X005681Y016018D01*
X005612Y015948D02*
X005751Y015948D01*
X005677Y015850D02*
X005922Y015850D01*
X005926Y015948D02*
X006020Y015948D01*
X006154Y015841D02*
X005918Y015605D01*
X005681Y015605D01*
X005603Y015684D01*
X004815Y015684D01*
X004422Y016078D01*
X004422Y016156D01*
X004264Y016314D01*
X004107Y016314D01*
X003949Y016156D01*
X003862Y015948D02*
X003638Y015948D01*
X003763Y016047D02*
X003444Y016047D01*
X003478Y016145D02*
X002186Y016145D01*
X002270Y016047D02*
X002761Y016047D01*
X002663Y015948D02*
X002273Y015948D01*
X002279Y015850D02*
X002564Y015850D01*
X002466Y015751D02*
X002284Y015751D01*
X002087Y016244D02*
X002705Y016244D01*
X002523Y016342D02*
X001988Y016342D01*
X001944Y016539D02*
X002480Y016539D01*
X002480Y016441D02*
X001450Y016441D01*
X001450Y016539D02*
X001529Y016539D01*
X001929Y017524D02*
X002854Y017524D01*
X002854Y017426D02*
X002098Y017426D01*
X002196Y017327D02*
X002854Y017327D01*
X002854Y017229D02*
X002199Y017229D01*
X002178Y017130D02*
X002854Y017130D01*
X002854Y017032D02*
X002111Y017032D01*
X002117Y016933D02*
X002541Y016933D01*
X002480Y016835D02*
X002117Y016835D01*
X002117Y016736D02*
X002480Y016736D01*
X002542Y016638D02*
X002043Y016638D01*
X002028Y017623D02*
X002854Y017623D01*
X002854Y017721D02*
X002117Y017721D01*
X002117Y017820D02*
X002854Y017820D01*
X002854Y017918D02*
X002117Y017918D01*
X002117Y018017D02*
X002854Y018017D01*
X002854Y018115D02*
X002028Y018115D01*
X001929Y018214D02*
X002854Y018214D01*
X002854Y018312D02*
X001450Y018312D01*
X001450Y018214D02*
X001544Y018214D01*
X001450Y018411D02*
X002818Y018411D01*
X002720Y018509D02*
X001914Y018509D01*
X002013Y018608D02*
X002698Y018608D01*
X002658Y018706D02*
X002111Y018706D01*
X002117Y018805D02*
X002582Y018805D01*
X002582Y018903D02*
X002117Y018903D01*
X002117Y019002D02*
X002628Y019002D01*
X002810Y019100D02*
X002043Y019100D01*
X001944Y019199D02*
X002871Y019199D01*
X002924Y019297D02*
X001614Y019297D01*
X001610Y019396D02*
X004840Y019396D01*
X004840Y019494D02*
X001899Y019494D01*
X001998Y019593D02*
X004840Y019593D01*
X004840Y019691D02*
X002096Y019691D01*
X002117Y019790D02*
X004840Y019790D01*
X004840Y019888D02*
X002117Y019888D01*
X002117Y019987D02*
X004840Y019987D01*
X004840Y020085D02*
X002058Y020085D01*
X001959Y020184D02*
X004840Y020184D01*
X004878Y020282D02*
X001540Y020282D01*
X001540Y020381D02*
X004977Y020381D01*
X005075Y020479D02*
X001540Y020479D01*
X001823Y020330D02*
X001981Y020408D01*
X001983Y020578D02*
X005174Y020578D01*
X005272Y020676D02*
X002081Y020676D01*
X002117Y020775D02*
X003947Y020775D01*
X003973Y020749D02*
X004147Y020749D01*
X004269Y020871D01*
X004269Y021044D01*
X004147Y021167D01*
X004113Y021167D01*
X004075Y021224D01*
X004147Y021224D01*
X004269Y021346D01*
X004269Y021416D01*
X004351Y021498D01*
X004806Y021498D01*
X004897Y021589D01*
X004900Y021589D01*
X004900Y021224D01*
X004883Y021207D01*
X004813Y021207D01*
X004691Y021084D01*
X004691Y020911D01*
X004813Y020789D01*
X004987Y020789D01*
X005109Y020911D01*
X005109Y020981D01*
X005220Y021091D01*
X005220Y021622D01*
X005419Y021871D01*
X005460Y021911D01*
X005460Y021922D01*
X005466Y021930D01*
X005460Y021987D01*
X005460Y022309D01*
X005607Y022309D01*
X005676Y022378D01*
X006035Y022378D01*
X005936Y022279D01*
X005936Y022194D01*
X005679Y021937D01*
X005623Y021937D01*
X005501Y021814D01*
X005501Y021641D01*
X005623Y021519D01*
X005797Y021519D01*
X005919Y021641D01*
X005919Y021696D01*
X006206Y021983D01*
X006232Y021983D01*
X006354Y022106D01*
X006354Y022169D01*
X006407Y022169D01*
X006529Y022291D01*
X006529Y022464D01*
X006407Y022587D01*
X006326Y022587D01*
X006250Y022654D01*
X006206Y022698D01*
X006201Y022698D01*
X006197Y022701D01*
X006135Y022698D01*
X005636Y022698D01*
X005607Y022727D01*
X005460Y022727D01*
X005460Y022751D01*
X006086Y023378D01*
X006206Y023378D01*
X006277Y023449D01*
X006347Y023449D01*
X006469Y023571D01*
X006469Y023744D01*
X006347Y023867D01*
X006173Y023867D01*
X006051Y023744D01*
X006051Y023698D01*
X005954Y023698D01*
X005860Y023604D01*
X005805Y023549D01*
X005727Y023627D01*
X005553Y023627D01*
X005431Y023504D01*
X005431Y023435D01*
X005094Y023098D01*
X005056Y023098D01*
X005027Y023127D01*
X004865Y023127D01*
X004909Y023171D01*
X004909Y023301D01*
X004953Y023323D01*
X005019Y023371D01*
X005077Y023429D01*
X005125Y023495D01*
X005162Y023568D01*
X005187Y023646D01*
X005199Y023718D01*
X004730Y023718D01*
X004730Y023818D01*
X005199Y023818D01*
X005187Y023890D01*
X005162Y023967D01*
X005125Y024040D01*
X005077Y024107D01*
X005019Y024164D01*
X004953Y024213D01*
X004880Y024250D01*
X004802Y024275D01*
X004779Y024279D01*
X004958Y024352D01*
X005095Y024490D01*
X005170Y024670D01*
X005170Y024865D01*
X005095Y025045D01*
X004958Y025183D01*
X004777Y025258D01*
X004583Y025258D01*
X004402Y025183D01*
X004265Y025045D01*
X004190Y024865D01*
X004190Y024670D01*
X004265Y024490D01*
X004402Y024352D01*
X004581Y024279D01*
X004558Y024275D01*
X004480Y024250D01*
X004407Y024213D01*
X004341Y024164D01*
X004283Y024107D01*
X004235Y024040D01*
X004198Y023967D01*
X004173Y023890D01*
X004161Y023818D01*
X004630Y023818D01*
X004630Y023718D01*
X004170Y023718D01*
X004170Y023765D01*
X004095Y023945D01*
X003958Y024083D01*
X003777Y024158D01*
X003583Y024158D01*
X003402Y024083D01*
X003265Y023945D01*
X003190Y023765D01*
X003190Y023570D01*
X003265Y023390D01*
X003402Y023252D01*
X003583Y023178D01*
X003777Y023178D01*
X003958Y023252D01*
X004095Y023390D01*
X004170Y023570D01*
X004170Y023664D01*
X004173Y023646D01*
X004198Y023568D01*
X004235Y023495D01*
X004283Y023429D01*
X004341Y023371D01*
X004407Y023323D01*
X004480Y023286D01*
X004491Y023282D01*
X004491Y023269D01*
X004310Y023077D01*
X004303Y023077D01*
X004215Y022989D01*
X004166Y023038D01*
X003734Y023038D01*
X003640Y022944D01*
X003204Y022508D01*
X003190Y022508D01*
X003090Y022408D01*
X003090Y022288D01*
X003070Y022268D01*
X002864Y022268D01*
X002825Y022307D01*
X002652Y022307D01*
X002530Y022184D01*
X002530Y022011D01*
X002652Y021889D01*
X002825Y021889D01*
X002864Y021928D01*
X003210Y021928D01*
X003262Y021980D01*
X003269Y021973D01*
X002954Y021658D01*
X002736Y021658D01*
X002687Y021707D01*
X002513Y021707D01*
X002391Y021584D01*
X002391Y021411D01*
X002513Y021289D01*
X002687Y021289D01*
X002736Y021338D01*
X003086Y021338D01*
X003446Y021698D01*
X003580Y021698D01*
X003580Y021454D01*
X003570Y021404D01*
X003580Y021389D01*
X003580Y021371D01*
X003616Y021336D01*
X003851Y020983D01*
X003851Y020871D01*
X003973Y020749D01*
X003851Y020873D02*
X002117Y020873D01*
X002117Y020972D02*
X003851Y020972D01*
X003793Y021070D02*
X002073Y021070D01*
X001974Y021169D02*
X003727Y021169D01*
X003661Y021267D02*
X001540Y021267D01*
X001540Y021366D02*
X002436Y021366D01*
X002391Y021464D02*
X001540Y021464D01*
X001968Y021563D02*
X002391Y021563D01*
X002468Y021661D02*
X002066Y021661D01*
X002117Y021760D02*
X003056Y021760D01*
X003154Y021858D02*
X002117Y021858D01*
X002117Y021957D02*
X002584Y021957D01*
X002530Y022055D02*
X002088Y022055D01*
X001992Y022154D02*
X002530Y022154D01*
X002598Y022252D02*
X002089Y022252D01*
X002113Y022351D02*
X003090Y022351D01*
X003131Y022449D02*
X002218Y022449D01*
X002323Y022548D02*
X003244Y022548D01*
X003342Y022646D02*
X002350Y022646D01*
X002350Y022745D02*
X003441Y022745D01*
X003539Y022843D02*
X002350Y022843D01*
X002350Y022942D02*
X003638Y022942D01*
X003620Y022998D02*
X003500Y022938D01*
X003439Y023237D02*
X002317Y023237D01*
X002351Y023139D02*
X004369Y023139D01*
X004461Y023237D02*
X003921Y023237D01*
X004041Y023336D02*
X004390Y023336D01*
X004280Y023434D02*
X004114Y023434D01*
X004154Y023533D02*
X004216Y023533D01*
X004178Y023631D02*
X004170Y023631D01*
X004170Y023730D02*
X004630Y023730D01*
X004730Y023730D02*
X006051Y023730D01*
X006135Y023828D02*
X005197Y023828D01*
X005175Y023927D02*
X007357Y023927D01*
X007357Y024025D02*
X006970Y024025D01*
X006942Y023998D02*
X007200Y024256D01*
X007200Y024620D01*
X006942Y024878D01*
X006578Y024878D01*
X006320Y024620D01*
X006320Y024256D01*
X006578Y023998D01*
X006942Y023998D01*
X007068Y024124D02*
X007454Y024124D01*
X007553Y024222D02*
X007167Y024222D01*
X007200Y024321D02*
X008516Y024321D01*
X008516Y024419D02*
X007200Y024419D01*
X007200Y024518D02*
X007550Y024518D01*
X007579Y024489D02*
X007894Y024489D01*
X008117Y024712D01*
X008117Y025026D01*
X007894Y025249D01*
X007579Y025249D01*
X007357Y025026D01*
X007357Y024712D01*
X007579Y024489D01*
X007452Y024616D02*
X007200Y024616D01*
X007105Y024715D02*
X007357Y024715D01*
X007357Y024813D02*
X007007Y024813D01*
X006955Y025010D02*
X007357Y025010D01*
X007357Y024912D02*
X005151Y024912D01*
X005170Y024813D02*
X005513Y024813D01*
X005578Y024878D02*
X005320Y024620D01*
X005320Y024256D01*
X005578Y023998D01*
X005942Y023998D01*
X006200Y024256D01*
X006200Y024620D01*
X005942Y024878D01*
X005578Y024878D01*
X005523Y025010D02*
X005110Y025010D01*
X005032Y025109D02*
X005424Y025109D01*
X005326Y025207D02*
X004899Y025207D01*
X005170Y024715D02*
X005415Y024715D01*
X005320Y024616D02*
X005148Y024616D01*
X005107Y024518D02*
X005320Y024518D01*
X005320Y024419D02*
X005025Y024419D01*
X004933Y024222D02*
X005353Y024222D01*
X005320Y024321D02*
X004881Y024321D01*
X005059Y024124D02*
X005452Y024124D01*
X005550Y024025D02*
X005132Y024025D01*
X005182Y023631D02*
X005887Y023631D01*
X005860Y023604D02*
X005860Y023604D01*
X005946Y023237D02*
X007568Y023237D01*
X007469Y023139D02*
X005847Y023139D01*
X005749Y023040D02*
X007370Y023040D01*
X007357Y022942D02*
X005650Y022942D01*
X005552Y022843D02*
X007357Y022843D01*
X007357Y022745D02*
X005460Y022745D01*
X005649Y022351D02*
X006008Y022351D01*
X005936Y022252D02*
X005460Y022252D01*
X005460Y022154D02*
X005896Y022154D01*
X005797Y022055D02*
X005460Y022055D01*
X005463Y021957D02*
X005699Y021957D01*
X005710Y021728D02*
X006145Y022163D01*
X006145Y022192D01*
X006304Y022055D02*
X007385Y022055D01*
X007357Y021957D02*
X006179Y021957D01*
X006081Y021858D02*
X007357Y021858D01*
X007357Y021760D02*
X005982Y021760D01*
X005919Y021661D02*
X007407Y021661D01*
X007505Y021563D02*
X007211Y021563D01*
X007285Y021267D02*
X007611Y021267D01*
X007484Y022154D02*
X006354Y022154D01*
X006490Y022252D02*
X007930Y022252D01*
X007930Y022351D02*
X006529Y022351D01*
X006529Y022449D02*
X007930Y022449D01*
X008230Y022449D02*
X008516Y022449D01*
X008516Y022351D02*
X008230Y022351D01*
X008230Y022252D02*
X008516Y022252D01*
X008516Y022154D02*
X008230Y022154D01*
X008230Y022055D02*
X008516Y022055D01*
X008516Y021957D02*
X008230Y021957D01*
X008230Y021858D02*
X008516Y021858D01*
X008516Y021760D02*
X008230Y021760D01*
X008230Y021661D02*
X008516Y021661D01*
X008516Y021563D02*
X008230Y021563D01*
X008230Y021464D02*
X008516Y021464D01*
X008516Y021366D02*
X008160Y021366D01*
X008048Y021267D02*
X008516Y021267D01*
X008516Y021169D02*
X007974Y021169D01*
X008073Y021070D02*
X008516Y021070D01*
X008516Y020972D02*
X008117Y020972D01*
X008117Y020873D02*
X008516Y020873D01*
X008516Y020775D02*
X008117Y020775D01*
X008081Y020676D02*
X008516Y020676D01*
X008516Y020578D02*
X008496Y020578D01*
X008224Y020578D02*
X007983Y020578D01*
X008031Y020479D02*
X008151Y020479D01*
X008151Y020381D02*
X008136Y020381D01*
X007970Y018509D02*
X007914Y018509D01*
X007970Y018411D02*
X007129Y018411D01*
X006939Y018312D02*
X007970Y018312D01*
X007970Y018214D02*
X007929Y018214D01*
X007914Y017229D02*
X007970Y017229D01*
X007944Y016539D02*
X007955Y016539D01*
X007856Y016441D02*
X006678Y016441D01*
X006635Y016342D02*
X007758Y016342D01*
X007574Y016244D02*
X006228Y016244D01*
X006302Y016342D02*
X006006Y016342D01*
X006048Y016441D02*
X006260Y016441D01*
X006260Y016539D02*
X006048Y016539D01*
X006007Y016638D02*
X005986Y016638D01*
X006301Y016638D02*
X006322Y016638D01*
X006327Y016145D02*
X007475Y016145D01*
X007377Y016047D02*
X006425Y016047D01*
X006524Y015948D02*
X007357Y015948D01*
X007357Y015850D02*
X006610Y015850D01*
X006560Y015912D02*
X006560Y015912D01*
X006610Y015751D02*
X007357Y015751D01*
X007415Y015653D02*
X006610Y015653D01*
X006610Y015554D02*
X007514Y015554D01*
X007610Y015357D02*
X006853Y015357D01*
X006951Y015259D02*
X007610Y015259D01*
X007490Y015160D02*
X007050Y015160D01*
X007148Y015062D02*
X007392Y015062D01*
X007357Y014963D02*
X007190Y014963D01*
X007225Y014865D02*
X007357Y014865D01*
X007357Y014766D02*
X007250Y014766D01*
X007250Y014668D02*
X007400Y014668D01*
X007499Y014569D02*
X007250Y014569D01*
X007315Y014471D02*
X007397Y014471D01*
X007626Y015456D02*
X006610Y015456D01*
X006607Y014795D02*
X006654Y014748D01*
X006591Y014684D01*
X006591Y014511D01*
X006710Y014392D01*
X006710Y014388D01*
X006643Y014388D01*
X006555Y014476D01*
X006382Y014476D01*
X006260Y014353D01*
X006260Y014180D01*
X006331Y014109D01*
X006311Y014090D01*
X006240Y014161D01*
X006067Y014161D01*
X005945Y014038D01*
X005945Y013865D01*
X006016Y013794D01*
X005996Y013775D01*
X005925Y013846D01*
X005752Y013846D01*
X005681Y013775D01*
X005611Y013846D01*
X005437Y013846D01*
X005378Y013787D01*
X005355Y013787D01*
X005296Y013846D01*
X005122Y013846D01*
X005051Y013775D01*
X004981Y013846D01*
X004807Y013846D01*
X004685Y013723D01*
X004685Y013550D01*
X004807Y013428D01*
X004830Y013428D01*
X004830Y013108D01*
X004724Y013002D01*
X004724Y012998D01*
X004587Y012862D01*
X004488Y012762D01*
X004488Y012587D01*
X004373Y012587D01*
X004251Y012464D01*
X004251Y012291D01*
X004310Y012232D01*
X004310Y011956D01*
X004398Y011868D01*
X004670Y011596D01*
X004670Y011323D01*
X004611Y011264D01*
X004611Y011091D01*
X004733Y010969D01*
X004907Y010969D01*
X004992Y011054D01*
X005137Y010909D01*
X005343Y010909D01*
X005488Y011055D01*
X005488Y011261D01*
X005410Y011339D01*
X005410Y011548D01*
X005310Y011648D01*
X004828Y012130D01*
X004828Y012272D01*
X004853Y012247D01*
X005027Y012247D01*
X005086Y012306D01*
X005114Y012306D01*
X005542Y012734D01*
X005585Y012777D01*
X005633Y012729D01*
X005807Y012729D01*
X005848Y012770D01*
X005883Y012734D01*
X006057Y012734D01*
X006110Y012787D01*
X006110Y011203D01*
X005991Y011084D01*
X005991Y010911D01*
X006113Y010789D01*
X006175Y010789D01*
X006171Y010784D01*
X006076Y010826D02*
X003204Y010826D01*
X003229Y010925D02*
X005122Y010925D01*
X005023Y011023D02*
X004961Y011023D01*
X004679Y011023D02*
X004041Y011023D01*
X004027Y011009D02*
X004149Y011131D01*
X004149Y011304D01*
X004099Y011354D01*
X004099Y012876D01*
X004178Y012798D01*
X004351Y012798D01*
X004473Y012920D01*
X004473Y013004D01*
X004582Y013113D01*
X004666Y013113D01*
X004788Y013235D01*
X004788Y013408D01*
X004666Y013531D01*
X004492Y013531D01*
X004422Y013460D01*
X004414Y013467D01*
X004414Y013491D01*
X004473Y013550D01*
X004473Y013723D01*
X004351Y013846D01*
X004178Y013846D01*
X004055Y013723D01*
X004055Y013550D01*
X004114Y013491D01*
X004114Y013467D01*
X004107Y013460D01*
X004036Y013531D01*
X003902Y013531D01*
X003902Y013541D01*
X003866Y013578D01*
X003843Y013608D01*
X003843Y013723D01*
X003772Y013794D01*
X003843Y013865D01*
X003843Y014038D01*
X003745Y014137D01*
X004020Y014412D01*
X005139Y014412D01*
X005315Y014235D01*
X005315Y014180D01*
X005437Y014058D01*
X005611Y014058D01*
X005733Y014180D01*
X005733Y014235D01*
X005909Y014412D01*
X006224Y014412D01*
X006607Y014795D01*
X006579Y014766D02*
X006636Y014766D01*
X006591Y014668D02*
X006481Y014668D01*
X006382Y014569D02*
X006591Y014569D01*
X006560Y014471D02*
X006631Y014471D01*
X006377Y014471D02*
X006284Y014471D01*
X006279Y014372D02*
X005870Y014372D01*
X005772Y014274D02*
X006260Y014274D01*
X006264Y014175D02*
X005728Y014175D01*
X005630Y014077D02*
X005983Y014077D01*
X005945Y013978D02*
X003843Y013978D01*
X003843Y013880D02*
X005945Y013880D01*
X005990Y013781D02*
X006003Y013781D01*
X005688Y013781D02*
X005675Y013781D01*
X005418Y014077D02*
X003805Y014077D01*
X003783Y014175D02*
X005320Y014175D01*
X005276Y014274D02*
X003882Y014274D01*
X003980Y014372D02*
X005178Y014372D01*
X005363Y014668D02*
X005685Y014668D01*
X005586Y014569D02*
X005462Y014569D01*
X005296Y015002D02*
X005335Y015041D01*
X005713Y015041D01*
X005752Y015002D01*
X005925Y015002D01*
X006048Y015125D01*
X006048Y015298D01*
X005925Y015421D01*
X005752Y015421D01*
X005713Y015381D01*
X005335Y015381D01*
X005296Y015421D01*
X005122Y015421D01*
X005000Y015298D01*
X005000Y015125D01*
X005122Y015002D01*
X005296Y015002D01*
X005209Y015211D02*
X005839Y015211D01*
X005985Y015062D02*
X006096Y015062D01*
X006090Y015160D02*
X006048Y015160D01*
X006048Y015259D02*
X006090Y015259D01*
X006090Y015357D02*
X005989Y015357D01*
X006009Y015456D02*
X006158Y015456D01*
X006107Y015554D02*
X006256Y015554D01*
X006270Y015653D02*
X006206Y015653D01*
X006154Y015841D02*
X006390Y015841D01*
X006749Y016539D02*
X007529Y016539D01*
X008410Y015456D02*
X008516Y015456D01*
X008509Y015554D02*
X008516Y015554D01*
X008516Y015357D02*
X008390Y015357D01*
X008390Y015259D02*
X008516Y015259D01*
X008516Y015160D02*
X008390Y015160D01*
X008390Y015062D02*
X008516Y015062D01*
X008516Y014963D02*
X008390Y014963D01*
X008390Y014865D02*
X008516Y014865D01*
X008516Y014766D02*
X008390Y014766D01*
X008390Y014668D02*
X008516Y014668D01*
X008516Y014569D02*
X008390Y014569D01*
X008390Y014471D02*
X008516Y014471D01*
X008516Y014372D02*
X008438Y014372D01*
X008510Y014274D02*
X008516Y014274D01*
X008510Y014175D02*
X008516Y014175D01*
X008510Y014077D02*
X008516Y014077D01*
X008510Y013978D02*
X008516Y013978D01*
X008510Y013880D02*
X008516Y013880D01*
X008510Y013781D02*
X008516Y013781D01*
X008510Y013683D02*
X008516Y013683D01*
X008510Y013584D02*
X008516Y013584D01*
X008510Y013486D02*
X008516Y013486D01*
X008510Y013387D02*
X008516Y013387D01*
X008510Y013289D02*
X008516Y013289D01*
X008510Y013190D02*
X008516Y013190D01*
X008510Y013092D02*
X008516Y013092D01*
X008510Y012993D02*
X008516Y012993D01*
X008510Y012895D02*
X008516Y012895D01*
X008510Y012796D02*
X008516Y012796D01*
X008510Y012698D02*
X008516Y012698D01*
X008510Y012599D02*
X008516Y012599D01*
X008510Y012501D02*
X008516Y012501D01*
X008510Y012402D02*
X008516Y012402D01*
X008510Y012304D02*
X008516Y012304D01*
X008510Y012205D02*
X008516Y012205D01*
X008510Y012107D02*
X008516Y012107D01*
X008510Y012008D02*
X008516Y012008D01*
X008510Y011910D02*
X008516Y011910D01*
X008510Y011811D02*
X008516Y011811D01*
X008510Y011713D02*
X008516Y011713D01*
X008510Y011614D02*
X008516Y011614D01*
X008510Y011516D02*
X008516Y011516D01*
X008510Y011417D02*
X008516Y011417D01*
X008510Y011319D02*
X008516Y011319D01*
X008510Y011220D02*
X008516Y011220D01*
X008510Y011122D02*
X008516Y011122D01*
X008516Y011023D02*
X008418Y011023D01*
X008330Y010925D02*
X008516Y010925D01*
X008516Y010826D02*
X008330Y010826D01*
X008330Y010728D02*
X008516Y010728D01*
X008516Y010629D02*
X008330Y010629D01*
X008330Y010531D02*
X008516Y010531D01*
X008516Y010432D02*
X008330Y010432D01*
X008330Y010334D02*
X008516Y010334D01*
X008516Y010235D02*
X008330Y010235D01*
X008330Y010137D02*
X008516Y010137D01*
X008516Y010038D02*
X008330Y010038D01*
X008330Y009940D02*
X008516Y009940D01*
X008516Y009841D02*
X008330Y009841D01*
X008330Y009743D02*
X008516Y009743D01*
X008516Y009644D02*
X008330Y009644D01*
X008330Y009546D02*
X008516Y009546D01*
X008516Y009447D02*
X008330Y009447D01*
X008361Y009349D02*
X008516Y009349D01*
X008516Y009250D02*
X008390Y009250D01*
X008390Y009152D02*
X008516Y009152D01*
X008516Y009053D02*
X008390Y009053D01*
X008366Y008955D02*
X008516Y008955D01*
X008516Y008856D02*
X008276Y008856D01*
X008231Y008758D02*
X008516Y008758D01*
X008516Y008659D02*
X008230Y008659D01*
X008133Y008561D02*
X008516Y008561D01*
X008516Y008462D02*
X008029Y008462D01*
X007976Y008167D02*
X008516Y008167D01*
X008516Y008265D02*
X007670Y008265D01*
X007683Y008364D02*
X008516Y008364D01*
X008516Y008068D02*
X008075Y008068D01*
X008117Y007970D02*
X008516Y007970D01*
X008516Y007871D02*
X008117Y007871D01*
X008117Y007773D02*
X008516Y007773D01*
X008516Y007674D02*
X008079Y007674D01*
X007981Y007576D02*
X008516Y007576D01*
X008516Y007477D02*
X007490Y007477D01*
X007490Y007576D02*
X007492Y007576D01*
X007480Y007258D02*
X007020Y006798D01*
X006931Y006591D02*
X006829Y006591D01*
X006858Y006197D02*
X006214Y006197D01*
X006214Y006295D02*
X008516Y006295D01*
X008516Y006197D02*
X007946Y006197D01*
X007894Y006249D02*
X007579Y006249D01*
X007357Y006026D01*
X007357Y005712D01*
X007579Y005489D01*
X007894Y005489D01*
X008117Y005712D01*
X008117Y006026D01*
X007894Y006249D01*
X007897Y006492D02*
X008516Y006492D01*
X008516Y006394D02*
X006214Y006394D01*
X006214Y006492D02*
X007576Y006492D01*
X007477Y006591D02*
X007109Y006591D01*
X007207Y006689D02*
X007379Y006689D01*
X007357Y006788D02*
X007250Y006788D01*
X007349Y006886D02*
X007357Y006886D01*
X007480Y007258D02*
X007526Y007258D01*
X007701Y007379D02*
X008516Y007379D01*
X008516Y007280D02*
X007736Y007280D01*
X007961Y007182D02*
X008516Y007182D01*
X008516Y007083D02*
X008060Y007083D01*
X008117Y006985D02*
X008516Y006985D01*
X008516Y006886D02*
X008117Y006886D01*
X008117Y006788D02*
X008516Y006788D01*
X008516Y006689D02*
X008094Y006689D01*
X007996Y006591D02*
X008516Y006591D01*
X008516Y006098D02*
X008045Y006098D01*
X008117Y006000D02*
X008516Y006000D01*
X008516Y005901D02*
X008117Y005901D01*
X008117Y005803D02*
X008516Y005803D01*
X008516Y005704D02*
X008109Y005704D01*
X008011Y005606D02*
X008516Y005606D01*
X008516Y005507D02*
X007912Y005507D01*
X007561Y005507D02*
X006788Y005507D01*
X006690Y005409D02*
X008516Y005409D01*
X007527Y006197D02*
X007182Y006197D01*
X007268Y006098D02*
X007428Y006098D01*
X007357Y006000D02*
X007268Y006000D01*
X007265Y005901D02*
X007357Y005901D01*
X007357Y005803D02*
X007166Y005803D01*
X006985Y005704D02*
X007364Y005704D01*
X007462Y005606D02*
X006887Y005606D01*
X006743Y006000D02*
X006214Y006000D01*
X006214Y006098D02*
X006772Y006098D01*
X006645Y005901D02*
X006214Y005901D01*
X006214Y005803D02*
X006546Y005803D01*
X006448Y005704D02*
X006214Y005704D01*
X006214Y006591D02*
X006611Y006591D01*
X006513Y006689D02*
X006214Y006689D01*
X006214Y006788D02*
X006511Y006788D01*
X006533Y006886D02*
X006214Y006886D01*
X006132Y007083D02*
X006498Y007083D01*
X006400Y007182D02*
X006231Y007182D01*
X006255Y007206D02*
X005998Y006949D01*
X005633Y006949D01*
X005375Y007206D01*
X005375Y007571D01*
X005414Y007609D01*
X005264Y007609D01*
X005118Y007755D01*
X005118Y007961D01*
X005196Y008039D01*
X005196Y008148D01*
X004998Y007949D01*
X004633Y007949D01*
X004375Y008206D01*
X004375Y008571D01*
X004633Y008829D01*
X004998Y008829D01*
X005196Y008630D01*
X005196Y009070D01*
X005185Y009088D01*
X005196Y009138D01*
X005196Y009189D01*
X005212Y009204D01*
X005395Y009991D01*
X005354Y010032D01*
X005354Y010238D01*
X005500Y010383D01*
X005706Y010383D01*
X005851Y010238D01*
X005851Y010032D01*
X005724Y009904D01*
X005536Y009099D01*
X005536Y008732D01*
X005633Y008829D01*
X005998Y008829D01*
X006255Y008571D01*
X006255Y008206D01*
X005998Y007949D01*
X005633Y007949D01*
X005536Y008045D01*
X005536Y008039D01*
X005615Y007961D01*
X005615Y007810D01*
X005633Y007829D01*
X005998Y007829D01*
X006255Y007571D01*
X006255Y007206D01*
X006255Y007280D02*
X006375Y007280D01*
X006375Y007379D02*
X006255Y007379D01*
X006255Y007477D02*
X006375Y007477D01*
X006380Y007576D02*
X006250Y007576D01*
X006152Y007674D02*
X006479Y007674D01*
X006577Y007773D02*
X006053Y007773D01*
X006019Y007970D02*
X006612Y007970D01*
X006513Y008068D02*
X006117Y008068D01*
X006216Y008167D02*
X006415Y008167D01*
X006375Y008265D02*
X006255Y008265D01*
X006255Y008364D02*
X006375Y008364D01*
X006375Y008462D02*
X006255Y008462D01*
X006255Y008561D02*
X006375Y008561D01*
X006464Y008659D02*
X006167Y008659D01*
X006068Y008758D02*
X006562Y008758D01*
X007019Y007970D02*
X007190Y007970D01*
X007190Y008068D02*
X007117Y008068D01*
X007190Y007871D02*
X005615Y007871D01*
X005606Y007970D02*
X005612Y007970D01*
X005366Y007858D02*
X005366Y009118D01*
X005603Y010135D01*
X005759Y009940D02*
X007190Y009940D01*
X007190Y010038D02*
X005851Y010038D01*
X005851Y010137D02*
X007190Y010137D01*
X007190Y010235D02*
X005851Y010235D01*
X005755Y010334D02*
X007190Y010334D01*
X007190Y010432D02*
X000692Y010432D01*
X000692Y010334D02*
X005451Y010334D01*
X005354Y010235D02*
X001908Y010235D01*
X001894Y010249D02*
X001579Y010249D01*
X001357Y010026D01*
X001357Y009712D01*
X001579Y009489D01*
X001894Y009489D01*
X002117Y009712D01*
X002117Y010026D01*
X001894Y010249D01*
X002006Y010137D02*
X005354Y010137D01*
X005354Y010038D02*
X002105Y010038D01*
X002117Y009940D02*
X005383Y009940D01*
X005360Y009841D02*
X002117Y009841D01*
X002117Y009743D02*
X005337Y009743D01*
X005314Y009644D02*
X002049Y009644D01*
X001951Y009546D02*
X005291Y009546D01*
X005268Y009447D02*
X001248Y009447D01*
X001248Y009546D02*
X001522Y009546D01*
X001424Y009644D02*
X001221Y009644D01*
X001122Y009743D02*
X001357Y009743D01*
X001357Y009841D02*
X000692Y009841D01*
X000692Y009743D02*
X000838Y009743D01*
X000980Y009506D02*
X000860Y009386D01*
X000860Y009258D01*
X001050Y009152D02*
X001482Y009152D01*
X001579Y009249D02*
X001357Y009026D01*
X001357Y008712D01*
X001579Y008489D01*
X001894Y008489D01*
X002117Y008712D01*
X002117Y009026D01*
X001894Y009249D01*
X001579Y009249D01*
X001383Y009053D02*
X001050Y009053D01*
X001050Y008955D02*
X001357Y008955D01*
X001357Y008856D02*
X001050Y008856D01*
X001050Y008758D02*
X001357Y008758D01*
X001409Y008659D02*
X001050Y008659D01*
X001050Y008561D02*
X001507Y008561D01*
X001579Y008249D02*
X001357Y008026D01*
X001357Y007712D01*
X001579Y007489D01*
X001894Y007489D01*
X002117Y007712D01*
X002117Y008026D01*
X001894Y008249D01*
X001579Y008249D01*
X001497Y008167D02*
X001050Y008167D01*
X001050Y008265D02*
X002375Y008265D01*
X002375Y008364D02*
X001050Y008364D01*
X001050Y008462D02*
X002375Y008462D01*
X002375Y008561D02*
X001966Y008561D01*
X002064Y008659D02*
X002464Y008659D01*
X002562Y008758D02*
X002117Y008758D01*
X002117Y008856D02*
X005196Y008856D01*
X005196Y008758D02*
X005068Y008758D01*
X005167Y008659D02*
X005196Y008659D01*
X005196Y008955D02*
X002117Y008955D01*
X002090Y009053D02*
X005196Y009053D01*
X005196Y009152D02*
X001991Y009152D01*
X001976Y008167D02*
X002415Y008167D01*
X002491Y007773D02*
X002577Y007773D01*
X002569Y007871D02*
X005118Y007871D01*
X005118Y007773D02*
X005053Y007773D01*
X004998Y007829D02*
X004633Y007829D01*
X004375Y007571D01*
X004375Y007206D01*
X004633Y006949D01*
X004998Y006949D01*
X005255Y007206D01*
X005255Y007571D01*
X004998Y007829D01*
X005019Y007970D02*
X005127Y007970D01*
X005117Y008068D02*
X005196Y008068D01*
X005199Y007674D02*
X005152Y007674D01*
X005250Y007576D02*
X005380Y007576D01*
X005375Y007477D02*
X005255Y007477D01*
X005255Y007379D02*
X005375Y007379D01*
X005375Y007280D02*
X005255Y007280D01*
X005231Y007182D02*
X005400Y007182D01*
X005498Y007083D02*
X005132Y007083D01*
X005034Y006985D02*
X005597Y006985D01*
X006034Y006985D02*
X006597Y006985D01*
X007053Y007773D02*
X007190Y007773D01*
X007190Y007674D02*
X007152Y007674D01*
X007167Y008659D02*
X007190Y008659D01*
X007190Y008758D02*
X007068Y008758D01*
X007190Y008856D02*
X005536Y008856D01*
X005536Y008758D02*
X005562Y008758D01*
X005536Y008955D02*
X007190Y008955D01*
X007190Y009053D02*
X005536Y009053D01*
X005549Y009152D02*
X007190Y009152D01*
X007190Y009250D02*
X005572Y009250D01*
X005595Y009349D02*
X007190Y009349D01*
X007190Y009447D02*
X005617Y009447D01*
X005640Y009546D02*
X007190Y009546D01*
X007190Y009644D02*
X005663Y009644D01*
X005686Y009743D02*
X007190Y009743D01*
X007190Y009841D02*
X005709Y009841D01*
X005991Y010925D02*
X005358Y010925D01*
X005457Y011023D02*
X005991Y011023D01*
X006028Y011122D02*
X005488Y011122D01*
X005488Y011220D02*
X006110Y011220D01*
X006110Y011319D02*
X005430Y011319D01*
X005410Y011417D02*
X006110Y011417D01*
X006110Y011516D02*
X005410Y011516D01*
X005344Y011614D02*
X006110Y011614D01*
X006110Y011713D02*
X005245Y011713D01*
X005147Y011811D02*
X006110Y011811D01*
X006110Y011910D02*
X005048Y011910D01*
X004950Y012008D02*
X006110Y012008D01*
X006110Y012107D02*
X004851Y012107D01*
X004828Y012205D02*
X006110Y012205D01*
X006110Y012304D02*
X005084Y012304D01*
X005210Y012402D02*
X006110Y012402D01*
X006110Y012501D02*
X005309Y012501D01*
X005407Y012599D02*
X006110Y012599D01*
X006110Y012698D02*
X005506Y012698D01*
X004658Y012060D02*
X005240Y011478D01*
X005240Y011158D01*
X004665Y011319D02*
X004135Y011319D01*
X004149Y011220D02*
X004611Y011220D01*
X004611Y011122D02*
X004140Y011122D01*
X004027Y011009D02*
X003853Y011009D01*
X003731Y011131D01*
X003731Y011304D01*
X003799Y011373D01*
X003799Y012381D01*
X003707Y012289D01*
X003533Y012289D01*
X003411Y012411D01*
X003411Y012495D01*
X003405Y012500D01*
X003405Y012768D01*
X003393Y012768D01*
X003393Y012605D01*
X003271Y012483D01*
X003213Y012483D01*
X003213Y012369D01*
X003091Y012247D01*
X002918Y012247D01*
X002795Y012402D02*
X000970Y012402D01*
X000970Y012501D02*
X001567Y012501D01*
X001469Y012599D02*
X000970Y012599D01*
X000970Y012698D02*
X001370Y012698D01*
X001357Y012796D02*
X000970Y012796D01*
X000970Y012895D02*
X001357Y012895D01*
X001357Y012993D02*
X000970Y012993D01*
X000970Y013092D02*
X001422Y013092D01*
X001376Y013190D02*
X000970Y013190D01*
X001370Y013458D02*
X001480Y013438D01*
X001682Y013289D02*
X002618Y013289D01*
X002618Y013387D02*
X001728Y013387D01*
X001728Y013486D02*
X002641Y013486D01*
X002740Y013584D02*
X001989Y013584D01*
X002088Y013683D02*
X002795Y013683D01*
X002853Y013781D02*
X002117Y013781D01*
X002117Y013880D02*
X003425Y013880D01*
X003470Y013781D02*
X003483Y013781D01*
X003634Y013952D02*
X003477Y014109D01*
X003367Y013978D02*
X002117Y013978D01*
X001953Y013190D02*
X002618Y013190D01*
X002628Y013092D02*
X002051Y013092D01*
X002117Y012993D02*
X002727Y012993D01*
X002776Y012895D02*
X002117Y012895D01*
X002117Y012796D02*
X002776Y012796D01*
X002854Y012698D02*
X002103Y012698D01*
X002004Y012599D02*
X002852Y012599D01*
X002795Y012501D02*
X001906Y012501D01*
X001938Y012205D02*
X003799Y012205D01*
X003799Y012107D02*
X002036Y012107D01*
X002117Y012008D02*
X003799Y012008D01*
X003799Y011910D02*
X002117Y011910D01*
X002117Y011811D02*
X003799Y011811D01*
X003799Y011713D02*
X002117Y011713D01*
X002019Y011614D02*
X003799Y011614D01*
X003799Y011516D02*
X002502Y011516D01*
X002601Y011417D02*
X003799Y011417D01*
X003745Y011319D02*
X002930Y011319D01*
X003028Y011220D02*
X003731Y011220D01*
X003740Y011122D02*
X003132Y011122D01*
X003229Y011023D02*
X003839Y011023D01*
X004099Y011417D02*
X004670Y011417D01*
X004670Y011516D02*
X004099Y011516D01*
X004099Y011614D02*
X004651Y011614D01*
X004553Y011713D02*
X004099Y011713D01*
X004099Y011811D02*
X004454Y011811D01*
X004398Y011868D02*
X004398Y011868D01*
X004356Y011910D02*
X004099Y011910D01*
X004099Y012008D02*
X004310Y012008D01*
X004310Y012107D02*
X004099Y012107D01*
X004099Y012205D02*
X004310Y012205D01*
X004251Y012304D02*
X004099Y012304D01*
X004099Y012402D02*
X004251Y012402D01*
X004287Y012501D02*
X004099Y012501D01*
X004099Y012599D02*
X004488Y012599D01*
X004488Y012698D02*
X004099Y012698D01*
X004099Y012796D02*
X004522Y012796D01*
X004587Y012862D02*
X004587Y012862D01*
X004620Y012895D02*
X004448Y012895D01*
X004473Y012993D02*
X004719Y012993D01*
X004814Y013092D02*
X004561Y013092D01*
X004894Y012928D02*
X004658Y012692D01*
X004658Y012060D01*
X004894Y012928D02*
X004894Y012932D01*
X005000Y013038D01*
X005000Y013531D01*
X004894Y013637D01*
X004743Y013781D02*
X004415Y013781D01*
X004473Y013683D02*
X004685Y013683D01*
X004685Y013584D02*
X004473Y013584D01*
X004447Y013486D02*
X004414Y013486D01*
X004422Y013479D02*
X004579Y013637D01*
X004711Y013486D02*
X004749Y013486D01*
X004788Y013387D02*
X004830Y013387D01*
X004830Y013289D02*
X004788Y013289D01*
X004830Y013190D02*
X004743Y013190D01*
X005045Y013781D02*
X005058Y013781D01*
X004894Y014897D02*
X004737Y015054D01*
X004704Y015554D02*
X004473Y015554D01*
X004473Y015456D02*
X005590Y015456D01*
X005436Y015948D02*
X005297Y015948D01*
X005121Y015948D02*
X004791Y015948D01*
X004693Y016047D02*
X005023Y016047D01*
X005000Y016145D02*
X004594Y016145D01*
X004575Y016244D02*
X005001Y016244D01*
X005090Y016342D02*
X004476Y016342D01*
X004378Y016441D02*
X005128Y016441D01*
X005128Y016539D02*
X004158Y016539D01*
X004117Y016638D02*
X004096Y016638D01*
X004411Y016638D02*
X004432Y016638D01*
X004726Y016638D02*
X004747Y016638D01*
X004894Y016471D02*
X005051Y016629D01*
X005041Y016638D02*
X005128Y016638D01*
X005128Y016736D02*
X005103Y016736D01*
X005103Y016835D02*
X005128Y016835D01*
X005128Y016933D02*
X005043Y016933D01*
X005128Y017032D02*
X004861Y017032D01*
X004850Y017130D02*
X005146Y017130D01*
X005220Y017229D02*
X004850Y017229D01*
X004850Y017327D02*
X005220Y017327D01*
X005220Y017426D02*
X004850Y017426D01*
X004850Y017524D02*
X005220Y017524D01*
X005220Y017623D02*
X004850Y017623D01*
X004850Y017721D02*
X005220Y017721D01*
X005172Y017820D02*
X004850Y017820D01*
X004850Y017918D02*
X005140Y017918D01*
X005140Y018017D02*
X004850Y018017D01*
X004850Y018115D02*
X005140Y018115D01*
X005140Y018214D02*
X004850Y018214D01*
X004850Y018312D02*
X005140Y018312D01*
X005140Y018411D02*
X004850Y018411D01*
X004903Y018509D02*
X005140Y018509D01*
X005140Y018608D02*
X004983Y018608D01*
X004983Y018706D02*
X005140Y018706D01*
X005140Y018805D02*
X004941Y018805D01*
X005071Y019100D02*
X003289Y019100D01*
X003289Y019199D02*
X004973Y019199D01*
X004874Y019297D02*
X003236Y019297D01*
X003220Y019002D02*
X005140Y019002D01*
X005140Y018903D02*
X003038Y018903D01*
X002517Y020298D02*
X002360Y020238D01*
X002732Y021661D02*
X002957Y021661D01*
X003114Y021366D02*
X003586Y021366D01*
X003580Y021464D02*
X003213Y021464D01*
X003311Y021563D02*
X003580Y021563D01*
X003580Y021661D02*
X003410Y021661D01*
X003253Y021957D02*
X003239Y021957D01*
X003140Y022098D02*
X003260Y022218D01*
X003260Y022338D01*
X003140Y022098D02*
X002739Y022098D01*
X002350Y023040D02*
X004267Y023040D01*
X004163Y023828D02*
X004144Y023828D01*
X004103Y023927D02*
X004185Y023927D01*
X004228Y024025D02*
X004015Y024025D01*
X004026Y024321D02*
X004479Y024321D01*
X004427Y024222D02*
X003885Y024222D01*
X003859Y024124D02*
X004301Y024124D01*
X004335Y024419D02*
X004107Y024419D01*
X004148Y024518D02*
X004253Y024518D01*
X004212Y024616D02*
X004170Y024616D01*
X004170Y024715D02*
X004190Y024715D01*
X004190Y024813D02*
X004150Y024813D01*
X004109Y024912D02*
X004209Y024912D01*
X004250Y025010D02*
X004030Y025010D01*
X003896Y025109D02*
X004328Y025109D01*
X004461Y025207D02*
X003614Y025207D01*
X003516Y025306D02*
X005290Y025306D01*
X005290Y025503D02*
X000692Y025503D01*
X000692Y025601D02*
X005290Y025601D01*
X005357Y025700D02*
X000692Y025700D01*
X000692Y025798D02*
X005456Y025798D01*
X005710Y025404D02*
X003417Y025404D01*
X003288Y025109D02*
X003032Y025109D01*
X003110Y025010D02*
X003330Y025010D01*
X003251Y024912D02*
X003151Y024912D01*
X003170Y024813D02*
X003210Y024813D01*
X003190Y024715D02*
X003170Y024715D01*
X003148Y024616D02*
X003190Y024616D01*
X003212Y024518D02*
X003107Y024518D01*
X003025Y024419D02*
X003253Y024419D01*
X003334Y024321D02*
X002881Y024321D01*
X002863Y024222D02*
X003475Y024222D01*
X003501Y024124D02*
X003017Y024124D01*
X003104Y024025D02*
X003345Y024025D01*
X003257Y023927D02*
X003144Y023927D01*
X003170Y023828D02*
X003216Y023828D01*
X003190Y023730D02*
X003170Y023730D01*
X003154Y023631D02*
X003190Y023631D01*
X003206Y023533D02*
X003113Y023533D01*
X003040Y023434D02*
X003246Y023434D01*
X003319Y023336D02*
X002918Y023336D01*
X002442Y023336D02*
X002270Y023336D01*
X002270Y023434D02*
X002320Y023434D01*
X002190Y023828D02*
X002162Y023828D01*
X002117Y023927D02*
X002216Y023927D01*
X002256Y024025D02*
X002117Y024025D01*
X002019Y024124D02*
X002343Y024124D01*
X002497Y024222D02*
X001921Y024222D01*
X001906Y024459D02*
X001767Y024459D01*
X001767Y024839D01*
X002147Y024839D01*
X002147Y024699D01*
X001906Y024459D01*
X001965Y024518D02*
X002253Y024518D01*
X002212Y024616D02*
X002064Y024616D01*
X002147Y024715D02*
X002190Y024715D01*
X002190Y024813D02*
X002147Y024813D01*
X002147Y024912D02*
X002209Y024912D01*
X002250Y025010D02*
X002147Y025010D01*
X002076Y025109D02*
X002328Y025109D01*
X002335Y024419D02*
X001658Y024419D01*
X001658Y024321D02*
X002479Y024321D01*
X001767Y024518D02*
X001707Y024518D01*
X001707Y024616D02*
X001767Y024616D01*
X001767Y024715D02*
X001707Y024715D01*
X001707Y024813D02*
X001767Y024813D01*
X001331Y025404D02*
X000692Y025404D01*
X000692Y025306D02*
X001233Y025306D01*
X001134Y025207D02*
X000692Y025207D01*
X000692Y025109D02*
X001043Y025109D01*
X001043Y025010D02*
X000692Y025010D01*
X000692Y024912D02*
X001043Y024912D01*
X001043Y024813D02*
X000692Y024813D01*
X000692Y024715D02*
X001043Y024715D01*
X001043Y024616D02*
X000692Y024616D01*
X000692Y024518D02*
X001043Y024518D01*
X001043Y024419D02*
X000692Y024419D01*
X000692Y024321D02*
X001043Y024321D01*
X000845Y024222D02*
X000692Y024222D01*
X000692Y024124D02*
X000787Y024124D01*
X000787Y024025D02*
X000692Y024025D01*
X000692Y023927D02*
X000807Y023927D01*
X000807Y023828D02*
X000692Y023828D01*
X000692Y023730D02*
X000807Y023730D01*
X000807Y023631D02*
X000692Y023631D01*
X000692Y023533D02*
X000807Y023533D01*
X000807Y023434D02*
X000692Y023434D01*
X000692Y023336D02*
X000807Y023336D01*
X000807Y023237D02*
X000692Y023237D01*
X000692Y023139D02*
X000807Y023139D01*
X000807Y023040D02*
X000692Y023040D01*
X000692Y022942D02*
X000807Y022942D01*
X000807Y022843D02*
X000692Y022843D01*
X000692Y022745D02*
X000849Y022745D01*
X000897Y022646D02*
X000692Y022646D01*
X000692Y022548D02*
X000801Y022548D01*
X000710Y022449D02*
X000692Y022449D01*
X000800Y022299D02*
X000800Y011678D01*
X001060Y011418D01*
X000906Y011220D02*
X000716Y011220D01*
X000717Y011122D02*
X000848Y011122D01*
X000751Y011023D02*
X000718Y011023D01*
X000719Y010925D02*
X000751Y010925D01*
X000776Y010826D02*
X000720Y010826D01*
X000721Y010728D02*
X001357Y010728D01*
X001357Y010826D02*
X001144Y010826D01*
X001169Y010925D02*
X001357Y010925D01*
X001357Y011023D02*
X001258Y011023D01*
X001439Y010629D02*
X000692Y010629D01*
X000692Y010531D02*
X001537Y010531D01*
X001565Y010235D02*
X000692Y010235D01*
X000692Y010137D02*
X001467Y010137D01*
X001368Y010038D02*
X000692Y010038D01*
X000692Y009940D02*
X001357Y009940D01*
X001202Y009349D02*
X005245Y009349D01*
X005223Y009250D02*
X001103Y009250D01*
X000712Y009546D02*
X000692Y009546D01*
X000692Y009644D02*
X000739Y009644D01*
X001050Y008068D02*
X001398Y008068D01*
X001357Y007970D02*
X001050Y007970D01*
X001050Y007871D02*
X001357Y007871D01*
X001357Y007773D02*
X001050Y007773D01*
X001050Y007674D02*
X001394Y007674D01*
X001492Y007576D02*
X001050Y007576D01*
X001050Y007477D02*
X002059Y007477D01*
X001981Y007576D02*
X002150Y007576D01*
X002150Y007674D02*
X002079Y007674D01*
X002117Y007773D02*
X002150Y007773D01*
X002150Y007871D02*
X002117Y007871D01*
X002117Y007970D02*
X002151Y007970D01*
X002195Y008068D02*
X002075Y008068D01*
X001969Y007379D02*
X001050Y007379D01*
X001050Y007280D02*
X001930Y007280D01*
X001897Y006492D02*
X001930Y006492D01*
X001930Y006394D02*
X001050Y006394D01*
X001050Y006492D02*
X001576Y006492D01*
X001477Y006591D02*
X001050Y006591D01*
X001050Y006689D02*
X001379Y006689D01*
X001357Y006788D02*
X001050Y006788D01*
X001050Y006886D02*
X001357Y006886D01*
X001357Y006985D02*
X001050Y006985D01*
X001050Y007083D02*
X001413Y007083D01*
X001512Y007182D02*
X001050Y007182D01*
X001050Y006295D02*
X001837Y006295D01*
X001527Y006197D02*
X001050Y006197D01*
X001050Y006098D02*
X001428Y006098D01*
X001357Y006000D02*
X001050Y006000D01*
X001050Y005901D02*
X001357Y005901D01*
X001357Y005803D02*
X001050Y005803D01*
X001082Y005704D02*
X001364Y005704D01*
X002450Y007674D02*
X002479Y007674D01*
X002569Y007970D02*
X002612Y007970D01*
X003019Y007970D02*
X003612Y007970D01*
X003633Y007949D02*
X003998Y007949D01*
X004255Y008206D01*
X004255Y008571D01*
X003998Y008829D01*
X003633Y008829D01*
X003375Y008571D01*
X003375Y008206D01*
X003633Y007949D01*
X003577Y007773D02*
X003053Y007773D01*
X003152Y007674D02*
X003479Y007674D01*
X003380Y007576D02*
X003250Y007576D01*
X003255Y007477D02*
X003375Y007477D01*
X003375Y007379D02*
X003255Y007379D01*
X003255Y007280D02*
X003375Y007280D01*
X003400Y007182D02*
X003231Y007182D01*
X003132Y007083D02*
X003498Y007083D01*
X003597Y006985D02*
X003034Y006985D01*
X002799Y006798D02*
X003858Y006798D01*
X004028Y006629D01*
X004028Y006314D01*
X003555Y005841D01*
X003335Y005841D01*
X003320Y005826D01*
X003428Y006186D02*
X003792Y006471D01*
X004034Y006985D02*
X004597Y006985D01*
X004498Y007083D02*
X004132Y007083D01*
X004231Y007182D02*
X004400Y007182D01*
X004375Y007280D02*
X004255Y007280D01*
X004255Y007379D02*
X004375Y007379D01*
X004375Y007477D02*
X004255Y007477D01*
X004250Y007576D02*
X004380Y007576D01*
X004479Y007674D02*
X004152Y007674D01*
X004053Y007773D02*
X004577Y007773D01*
X004612Y007970D02*
X004019Y007970D01*
X004117Y008068D02*
X004513Y008068D01*
X004415Y008167D02*
X004216Y008167D01*
X004255Y008265D02*
X004375Y008265D01*
X004375Y008364D02*
X004255Y008364D01*
X004255Y008462D02*
X004375Y008462D01*
X004375Y008561D02*
X004255Y008561D01*
X004167Y008659D02*
X004464Y008659D01*
X004562Y008758D02*
X004068Y008758D01*
X003562Y008758D02*
X003068Y008758D01*
X003167Y008659D02*
X003464Y008659D01*
X003375Y008561D02*
X003255Y008561D01*
X003255Y008462D02*
X003375Y008462D01*
X003375Y008364D02*
X003255Y008364D01*
X003255Y008265D02*
X003375Y008265D01*
X003415Y008167D02*
X003216Y008167D01*
X003117Y008068D02*
X003513Y008068D01*
X003022Y010728D02*
X002598Y010728D01*
X002780Y011118D02*
X002740Y011158D01*
X002620Y011158D01*
X003148Y012304D02*
X003518Y012304D01*
X003420Y012402D02*
X003213Y012402D01*
X003289Y012501D02*
X003405Y012501D01*
X003405Y012599D02*
X003387Y012599D01*
X003393Y012698D02*
X003405Y012698D01*
X003722Y012304D02*
X003799Y012304D01*
X004081Y013486D02*
X004114Y013486D01*
X004055Y013584D02*
X003861Y013584D01*
X003843Y013683D02*
X004055Y013683D01*
X004113Y013781D02*
X003785Y013781D01*
X003598Y014471D02*
X003504Y014471D01*
X003499Y014372D02*
X003454Y014372D01*
X003528Y014569D02*
X003696Y014569D01*
X003634Y014582D02*
X003634Y014897D01*
X003319Y015211D01*
X003319Y015526D01*
X003477Y015369D01*
X003484Y015357D02*
X003154Y015357D01*
X003213Y015259D02*
X003425Y015259D01*
X003425Y015160D02*
X003213Y015160D01*
X003189Y015062D02*
X003150Y015062D01*
X003213Y015456D02*
X003500Y015456D01*
X003488Y015062D02*
X003450Y015062D01*
X003528Y014963D02*
X006194Y014963D01*
X006197Y014865D02*
X003528Y014865D01*
X003489Y014766D02*
X006098Y014766D01*
X006830Y012008D02*
X007357Y012008D01*
X007357Y011910D02*
X006830Y011910D01*
X006830Y011811D02*
X007357Y011811D01*
X007357Y011713D02*
X006830Y011713D01*
X006830Y011614D02*
X007454Y011614D01*
X007552Y011516D02*
X006830Y011516D01*
X006830Y011417D02*
X007857Y011417D01*
X007921Y011516D02*
X007954Y011516D01*
X007454Y011319D02*
X006830Y011319D01*
X006910Y011220D02*
X007346Y011220D01*
X007242Y011122D02*
X007008Y011122D01*
X007069Y011023D02*
X007238Y011023D01*
X007240Y010925D02*
X007069Y010925D01*
X007044Y010826D02*
X007240Y010826D01*
X007240Y010728D02*
X006589Y010728D01*
X006589Y010629D02*
X007240Y010629D01*
X007201Y010531D02*
X006509Y010531D01*
X006251Y010531D02*
X001936Y010531D01*
X002034Y010629D02*
X006171Y010629D01*
X007161Y012107D02*
X007437Y012107D01*
X007517Y012205D02*
X007260Y012205D01*
X007310Y012304D02*
X007373Y012304D01*
X005063Y015062D02*
X004410Y015062D01*
X004473Y015160D02*
X005000Y015160D01*
X005000Y015259D02*
X004473Y015259D01*
X004414Y015357D02*
X005059Y015357D01*
X004606Y015653D02*
X004433Y015653D01*
X004507Y015751D02*
X004214Y015751D01*
X004264Y015841D02*
X004107Y015999D01*
X004135Y016047D02*
X004252Y016047D01*
X004310Y015948D02*
X004037Y015948D01*
X004083Y015850D02*
X004409Y015850D01*
X004264Y015211D02*
X003634Y015211D01*
X003528Y014668D02*
X003795Y014668D01*
X003779Y014652D02*
X003779Y014652D01*
X003319Y014582D02*
X002288Y014582D01*
X002040Y014518D01*
X001792Y014471D02*
X000970Y014471D01*
X000722Y011516D02*
X000713Y011516D01*
X000714Y011417D02*
X000812Y011417D01*
X000812Y011319D02*
X000715Y011319D01*
X002838Y016933D02*
X002854Y016933D01*
X002847Y016944D02*
X002749Y017266D01*
X003213Y015554D02*
X003336Y015554D01*
X003319Y014897D02*
X003319Y014582D01*
X003168Y013781D02*
X003155Y013781D01*
X003784Y016933D02*
X003799Y016933D01*
X003799Y017032D02*
X003784Y017032D01*
X003784Y017130D02*
X003799Y017130D01*
X003799Y017229D02*
X003784Y017229D01*
X003784Y017327D02*
X003799Y017327D01*
X003799Y017426D02*
X003784Y017426D01*
X003784Y017524D02*
X003799Y017524D01*
X003799Y017623D02*
X003784Y017623D01*
X003784Y017721D02*
X003799Y017721D01*
X003799Y017820D02*
X003784Y017820D01*
X003784Y017918D02*
X003799Y017918D01*
X003799Y018017D02*
X003784Y018017D01*
X003784Y018115D02*
X003799Y018115D01*
X003799Y018214D02*
X003784Y018214D01*
X003784Y018312D02*
X003799Y018312D01*
X003799Y018411D02*
X003784Y018411D01*
X003784Y018509D02*
X003799Y018509D01*
X003799Y018608D02*
X003757Y018608D01*
X003740Y018678D02*
X003740Y018918D01*
X003644Y018805D02*
X003842Y018805D01*
X003800Y018706D02*
X003686Y018706D01*
X003800Y019798D02*
X003800Y019878D01*
X004173Y020775D02*
X005371Y020775D01*
X005469Y020873D02*
X005071Y020873D01*
X005109Y020972D02*
X005568Y020972D01*
X005666Y021070D02*
X005199Y021070D01*
X005220Y021169D02*
X005765Y021169D01*
X005841Y021563D02*
X006389Y021563D01*
X006291Y021464D02*
X006291Y021395D01*
X006163Y021267D02*
X005220Y021267D01*
X005220Y021563D02*
X005579Y021563D01*
X005501Y021661D02*
X005252Y021661D01*
X005331Y021760D02*
X005501Y021760D01*
X005545Y021858D02*
X005409Y021858D01*
X005135Y023139D02*
X004877Y023139D01*
X004909Y023237D02*
X005233Y023237D01*
X005332Y023336D02*
X004970Y023336D01*
X005080Y023434D02*
X005430Y023434D01*
X005459Y023533D02*
X005144Y023533D01*
X005710Y025010D02*
X005810Y025010D01*
X005810Y024968D02*
X005955Y024968D01*
X006230Y025243D01*
X006230Y025388D01*
X005810Y025388D01*
X005810Y024968D01*
X005810Y025109D02*
X005710Y025109D01*
X005710Y025207D02*
X005810Y025207D01*
X005810Y025306D02*
X005710Y025306D01*
X005810Y025404D02*
X006320Y025404D01*
X006320Y025306D02*
X006230Y025306D01*
X006194Y025207D02*
X006368Y025207D01*
X006467Y025109D02*
X006096Y025109D01*
X005997Y025010D02*
X006565Y025010D01*
X006513Y024813D02*
X006007Y024813D01*
X006105Y024715D02*
X006415Y024715D01*
X006320Y024616D02*
X006200Y024616D01*
X006200Y024518D02*
X006320Y024518D01*
X006320Y024419D02*
X006200Y024419D01*
X006200Y024321D02*
X006320Y024321D01*
X006353Y024222D02*
X006167Y024222D01*
X006068Y024124D02*
X006452Y024124D01*
X006550Y024025D02*
X005970Y024025D01*
X006263Y023434D02*
X007930Y023434D01*
X007930Y023336D02*
X006044Y023336D01*
X006385Y023828D02*
X007357Y023828D01*
X007357Y023730D02*
X006469Y023730D01*
X006469Y023631D02*
X007437Y023631D01*
X007535Y023533D02*
X006431Y023533D01*
X006259Y022646D02*
X007422Y022646D01*
X007520Y022548D02*
X006446Y022548D01*
X006611Y021563D02*
X006629Y021563D01*
X006851Y021563D02*
X006989Y021563D01*
X007906Y023237D02*
X007930Y023237D01*
X008117Y023730D02*
X008516Y023730D01*
X008516Y023828D02*
X008117Y023828D01*
X008117Y023927D02*
X008516Y023927D01*
X008516Y024025D02*
X008117Y024025D01*
X008019Y024124D02*
X008516Y024124D01*
X008516Y024222D02*
X007921Y024222D01*
X007923Y024518D02*
X008516Y024518D01*
X008516Y024616D02*
X008021Y024616D01*
X008117Y024715D02*
X008516Y024715D01*
X008516Y024813D02*
X008117Y024813D01*
X008117Y024912D02*
X008516Y024912D01*
X008516Y025010D02*
X008117Y025010D01*
X008034Y025109D02*
X008516Y025109D01*
X008516Y025207D02*
X007936Y025207D01*
X007538Y025207D02*
X007152Y025207D01*
X007200Y025306D02*
X008516Y025306D01*
X008516Y025404D02*
X007200Y025404D01*
X007200Y025503D02*
X008516Y025503D01*
X008516Y025601D02*
X007200Y025601D01*
X007120Y025700D02*
X008516Y025700D01*
X008516Y025798D02*
X007022Y025798D01*
X007053Y025109D02*
X007439Y025109D01*
X008208Y023631D02*
X008516Y023631D01*
X008516Y023533D02*
X008230Y023533D01*
X008230Y023434D02*
X008516Y023434D01*
X008516Y023336D02*
X008230Y023336D01*
X008230Y023237D02*
X008516Y023237D01*
X008516Y023139D02*
X008230Y023139D01*
X008230Y023040D02*
X008516Y023040D01*
X008516Y022942D02*
X008230Y022942D01*
X008230Y022843D02*
X008516Y022843D01*
X008516Y022745D02*
X008230Y022745D01*
X008230Y022646D02*
X008516Y022646D01*
X008516Y022548D02*
X008230Y022548D01*
X006498Y025798D02*
X006064Y025798D01*
X006163Y025700D02*
X006400Y025700D01*
X006320Y025601D02*
X006230Y025601D01*
X006230Y025503D02*
X006320Y025503D01*
X004900Y021563D02*
X004871Y021563D01*
X004900Y021464D02*
X004318Y021464D01*
X004269Y021366D02*
X004900Y021366D01*
X004900Y021267D02*
X004190Y021267D01*
X004112Y021169D02*
X004775Y021169D01*
X004691Y021070D02*
X004243Y021070D01*
X004269Y020972D02*
X004691Y020972D01*
X004729Y020873D02*
X004269Y020873D01*
X001574Y019494D02*
X001540Y019494D01*
X001460Y018608D02*
X001450Y018608D01*
X001450Y018509D02*
X001559Y018509D01*
X000800Y022299D02*
X001030Y022456D01*
D15*
X000996Y024078D03*
X001429Y024482D03*
X001726Y023428D03*
X001880Y022338D03*
X002540Y022878D03*
X002739Y022098D03*
X002600Y021498D03*
X002517Y020298D03*
X002791Y018869D03*
X002907Y018618D03*
X003080Y019158D03*
X003162Y018676D03*
X003477Y018676D03*
X003740Y018678D03*
X004009Y018676D03*
X004264Y018676D03*
X004519Y018676D03*
X004774Y018676D03*
X005164Y017356D03*
X004894Y016786D03*
X004894Y016471D03*
X004579Y016786D03*
X004264Y016786D03*
X003949Y016786D03*
X003949Y016471D03*
X003949Y016156D03*
X004264Y015841D03*
X004264Y015526D03*
X004264Y015211D03*
X003949Y015526D03*
X003634Y015211D03*
X003634Y014582D03*
X003949Y014267D03*
X003634Y013952D03*
X003634Y013637D03*
X003949Y013322D03*
X003740Y012818D03*
X003620Y012498D03*
X003320Y012977D03*
X003184Y012692D03*
X003004Y012456D03*
X002830Y012669D03*
X003004Y013322D03*
X003004Y013637D03*
X003319Y013637D03*
X003319Y013322D03*
X003319Y014582D03*
X003319Y014897D03*
X003319Y015526D03*
X003004Y015526D03*
X003004Y015211D03*
X003004Y014897D03*
X003319Y016156D03*
X003319Y016786D03*
X003004Y016786D03*
X002749Y017266D03*
X002689Y016786D03*
X002689Y016471D03*
X001990Y017238D03*
X001130Y019158D03*
X003440Y022098D03*
X003620Y022998D03*
X003980Y022638D03*
X004060Y021433D03*
X004060Y020958D03*
X003800Y019798D03*
X004580Y021858D03*
X004880Y021798D03*
X004860Y022218D03*
X004940Y022918D03*
X004700Y023258D03*
X004390Y022868D03*
X004900Y020998D03*
X005540Y019638D03*
X005839Y018538D03*
X006094Y018538D03*
X006349Y018538D03*
X006424Y017446D03*
X006469Y016786D03*
X006469Y016471D03*
X006154Y016786D03*
X005839Y016786D03*
X005839Y016471D03*
X005839Y016156D03*
X005839Y015841D03*
X005524Y016156D03*
X005209Y016156D03*
X005209Y015211D03*
X005524Y014267D03*
X005524Y013952D03*
X005524Y013637D03*
X005480Y012968D03*
X005209Y013007D03*
X005209Y013322D03*
X005209Y013637D03*
X004894Y013637D03*
X004579Y013637D03*
X004579Y013322D03*
X004264Y013322D03*
X004264Y013637D03*
X004264Y013007D03*
X004460Y012378D03*
X004180Y011218D03*
X003940Y011218D03*
X004150Y010015D03*
X004820Y011178D03*
X004940Y012456D03*
X005590Y012368D03*
X005720Y012938D03*
X005839Y013637D03*
X005970Y012943D03*
X006154Y013322D03*
X006154Y013637D03*
X006154Y013952D03*
X006469Y013952D03*
X006469Y014267D03*
X006469Y014582D03*
X006469Y015211D03*
X006154Y014897D03*
X006154Y015526D03*
X005839Y015211D03*
X006440Y012968D03*
X006784Y013322D03*
X006800Y013948D03*
X006800Y014598D03*
X006800Y014898D03*
X007520Y014298D03*
X007950Y012508D03*
X007650Y012368D03*
X007640Y011368D03*
X007880Y010458D03*
X007520Y010278D03*
X007640Y009268D03*
X008060Y009138D03*
X007820Y008298D03*
X007526Y007258D03*
X007020Y006798D03*
X006720Y006778D03*
X006940Y009918D03*
X006860Y010938D03*
X006560Y010998D03*
X006380Y010698D03*
X006200Y010998D03*
X005900Y011196D03*
X005960Y009918D03*
X004894Y014897D03*
X003634Y016471D03*
X003634Y016786D03*
X005710Y021728D03*
X005520Y022518D03*
X005640Y023418D03*
X006145Y022192D03*
X006320Y022378D03*
X006500Y021378D03*
X006740Y021378D03*
X007100Y021378D03*
X006590Y019808D03*
X006360Y019818D03*
X006130Y019838D03*
X006960Y018538D03*
X007100Y019278D03*
X007340Y019098D03*
X007820Y021318D03*
X008360Y020418D03*
X008250Y019598D03*
X006260Y023658D03*
X003020Y010938D03*
X002360Y007938D03*
X002799Y006798D03*
X003320Y005826D03*
X003792Y006471D03*
X000960Y010938D03*
D16*
X001060Y011418D03*
X001050Y011898D03*
X001480Y013438D03*
X002040Y014518D03*
X002120Y016338D03*
X002780Y011118D03*
X005240Y011158D03*
X005603Y010135D03*
X005366Y007858D03*
X006560Y006038D03*
X007020Y006008D03*
X004350Y021078D03*
X006034Y021518D03*
D17*
X006130Y019838D02*
X006140Y019758D01*
X006380Y019518D01*
X007340Y019518D01*
X007580Y019758D01*
X007625Y019758D01*
X007737Y019869D01*
X007380Y019998D02*
X007620Y020238D01*
X007899Y020238D01*
X008080Y020077D01*
X008080Y019518D01*
X008360Y019218D01*
X008360Y015798D01*
X008120Y015558D01*
X008120Y014298D01*
X008240Y014178D01*
X008240Y011372D01*
X007737Y010869D01*
X007550Y011204D02*
X007390Y011058D01*
X007390Y010518D01*
X007340Y010458D01*
X007340Y007338D01*
X006980Y006978D01*
X006920Y006978D01*
X006720Y006778D01*
X007737Y007961D02*
X007520Y008178D01*
X007520Y008418D01*
X007640Y008528D01*
X007880Y008528D01*
X008080Y008718D01*
X008080Y008861D01*
X008240Y009041D01*
X008240Y009258D01*
X008180Y009318D01*
X008180Y010998D01*
X008360Y011178D01*
X008360Y014238D01*
X008240Y014358D01*
X008240Y015498D01*
X008480Y015738D01*
X008480Y020298D01*
X008360Y020418D01*
X008200Y020118D02*
X008200Y019739D01*
X008250Y019598D01*
X008000Y019338D02*
X008240Y019098D01*
X008240Y015858D01*
X007760Y015378D01*
X007760Y014892D01*
X007737Y014869D01*
X007880Y014298D02*
X008120Y014058D01*
X008120Y011478D01*
X007950Y012508D02*
X007920Y012533D01*
X007650Y012368D02*
X007510Y012378D01*
X007280Y012618D01*
X007280Y014118D01*
X006980Y014418D01*
X006980Y014718D01*
X006800Y014898D01*
X007040Y014958D02*
X006786Y015211D01*
X006469Y015211D01*
X006469Y014267D02*
X006498Y014238D01*
X006800Y014238D01*
X007040Y013998D01*
X007040Y012378D01*
X006980Y012318D01*
X006620Y012318D01*
X006560Y012258D01*
X006560Y010998D01*
X006680Y011238D02*
X006680Y012138D01*
X006740Y012198D01*
X007040Y012198D01*
X007160Y012318D01*
X007160Y014058D01*
X006860Y014358D01*
X006860Y014538D01*
X006800Y014598D01*
X006800Y014538D01*
X007100Y014778D02*
X007040Y014838D01*
X007040Y014958D01*
X007100Y014778D02*
X007100Y014478D01*
X007390Y014178D01*
X007390Y012678D01*
X007520Y012533D01*
X007640Y011368D02*
X007700Y011358D01*
X007700Y010458D02*
X007520Y010278D01*
X007700Y010458D02*
X007880Y010458D01*
X007940Y009258D02*
X007640Y009268D01*
X007940Y009258D02*
X008060Y009138D01*
X007880Y008298D02*
X007820Y008298D01*
X007737Y007961D02*
X007737Y007869D01*
X006860Y010938D02*
X006860Y011058D01*
X006680Y011238D01*
X006380Y010698D02*
X006380Y012558D01*
X006500Y012678D01*
X006620Y012858D01*
X006620Y013158D01*
X006784Y013322D01*
X006800Y013948D02*
X006784Y013952D01*
X006469Y013952D01*
X006186Y013892D02*
X006500Y013578D01*
X006500Y013018D01*
X006440Y012968D01*
X006260Y013098D02*
X006380Y013218D01*
X006380Y013458D01*
X006201Y013637D01*
X006154Y013637D01*
X006186Y013892D02*
X006186Y013952D01*
X006154Y013952D01*
X006154Y013322D02*
X006060Y013228D01*
X006000Y013168D02*
X006154Y013322D01*
X006260Y013098D02*
X006260Y011058D01*
X006200Y010998D01*
X005960Y009918D02*
X005760Y009778D01*
X004820Y011178D02*
X004820Y011658D01*
X004460Y012018D01*
X004460Y012378D01*
X004264Y013007D02*
X004579Y013322D01*
X004264Y013322D02*
X004264Y013637D01*
X003949Y013322D02*
X003949Y013282D01*
X003910Y013282D01*
X003949Y013243D01*
X003949Y011227D01*
X003940Y011218D01*
X004150Y010015D02*
X004028Y009857D01*
X003620Y012498D02*
X003555Y012562D01*
X003555Y013400D01*
X003319Y013637D01*
X003319Y013322D02*
X003319Y012978D01*
X003320Y012977D01*
X003184Y012814D02*
X003140Y012858D01*
X003140Y013186D01*
X003004Y013322D01*
X002768Y013400D02*
X003004Y013637D01*
X002768Y013164D02*
X002926Y013007D01*
X002926Y012849D01*
X003004Y012771D01*
X003004Y012456D01*
X003184Y012692D02*
X003184Y012814D01*
X002768Y013164D02*
X002768Y013400D01*
X002721Y014897D02*
X002540Y015078D01*
X002120Y015078D01*
X001940Y015258D01*
X001240Y015258D01*
X000940Y015558D01*
X000940Y022078D01*
X001240Y022358D01*
X001240Y022558D01*
X000969Y022849D01*
X000957Y022849D01*
X000957Y024038D01*
X000996Y024078D01*
X001114Y023952D02*
X001114Y022863D01*
X001360Y022598D01*
X001360Y022298D01*
X001120Y022078D01*
X001120Y019168D01*
X001130Y019158D01*
X001060Y019098D01*
X001060Y015678D01*
X001360Y015378D01*
X002000Y015378D01*
X002166Y015211D01*
X003004Y015211D01*
X003004Y014897D02*
X002721Y014897D01*
X002611Y015369D02*
X002768Y015526D01*
X002768Y015617D01*
X002914Y015763D01*
X003280Y015763D01*
X003674Y015526D01*
X003949Y015526D01*
X003949Y015763D02*
X003674Y015763D01*
X003359Y015920D01*
X002847Y015920D01*
X002611Y015684D01*
X002611Y015605D01*
X002532Y015526D01*
X002296Y015526D01*
X002138Y015684D01*
X002120Y015999D01*
X001900Y016218D01*
X001360Y016218D01*
X001300Y016278D01*
X001300Y018908D01*
X001460Y019078D01*
X001460Y019338D01*
X001390Y019398D01*
X001390Y022008D01*
X001618Y022238D01*
X001618Y022436D01*
X001700Y022518D01*
X001880Y022518D01*
X002080Y022698D01*
X002080Y023077D01*
X001726Y023428D01*
X001737Y023869D02*
X001909Y023869D01*
X002120Y023658D01*
X002120Y023198D01*
X002200Y023138D01*
X002200Y022638D01*
X001880Y022338D01*
X001480Y022258D02*
X001480Y022638D01*
X001250Y022886D01*
X001272Y023873D01*
X001351Y023952D01*
X001351Y024109D01*
X001508Y024267D01*
X001508Y024403D01*
X001429Y024482D01*
X001193Y024030D02*
X001193Y025054D01*
X001429Y025290D01*
X003319Y025290D01*
X003820Y024789D01*
X003680Y024668D01*
X003080Y019158D02*
X002791Y018869D01*
X002689Y016786D02*
X002926Y016550D01*
X003477Y016550D01*
X003555Y016471D01*
X003634Y016471D01*
X003634Y016235D02*
X003398Y016353D01*
X002807Y016353D01*
X002689Y016471D01*
X002167Y015498D02*
X002296Y015369D01*
X002611Y015369D01*
X002167Y015498D02*
X001480Y015498D01*
X001180Y015798D01*
X001180Y018958D01*
X001340Y019118D01*
X001340Y019278D01*
X001280Y019338D01*
X001280Y022068D01*
X001480Y022258D01*
X001114Y023952D02*
X001193Y024030D01*
X001737Y017869D02*
X001737Y017381D01*
X001760Y017358D01*
X001990Y017238D01*
X003634Y016235D02*
X003713Y016235D01*
X003949Y016471D01*
X003949Y016786D02*
X003949Y018616D01*
X004009Y018676D01*
X004700Y018558D02*
X004700Y016980D01*
X004894Y016786D01*
X003949Y015763D02*
X004264Y015526D01*
X003634Y013637D02*
X003752Y013479D01*
X003752Y013164D01*
X003740Y012818D01*
X003020Y010938D02*
X002960Y010878D01*
X002660Y010878D01*
X002300Y011238D01*
X001260Y011238D01*
X000960Y010938D01*
X002360Y007938D02*
X002300Y007878D01*
X002300Y007518D01*
X002080Y007278D01*
X002080Y006318D01*
X001737Y005994D01*
X001737Y005869D01*
X004940Y012456D02*
X005051Y012456D01*
X005480Y012884D01*
X005480Y012968D01*
X005209Y013007D02*
X005209Y013322D01*
X005209Y013637D02*
X005524Y013637D01*
X005839Y013218D02*
X005720Y013099D01*
X005720Y012938D01*
X005839Y013218D02*
X005839Y013637D01*
X006000Y013168D02*
X005970Y012943D01*
X006469Y014267D02*
X006560Y014238D01*
X006469Y016471D02*
X006784Y016786D01*
X006784Y017259D01*
X006789Y017263D01*
X006789Y018449D01*
X006837Y018498D01*
X006960Y018538D01*
X007100Y019278D02*
X007340Y019278D01*
X007400Y019338D01*
X008000Y019338D01*
X007940Y019218D02*
X008120Y019038D01*
X008120Y016492D01*
X007737Y016109D01*
X007737Y015869D01*
X007880Y014298D02*
X007520Y014298D01*
X006469Y016786D02*
X006469Y017089D01*
X006380Y017178D01*
X006260Y017178D01*
X006110Y017328D01*
X006110Y017508D01*
X006260Y017658D01*
X006260Y018347D01*
X006349Y018538D01*
X006140Y018492D02*
X006094Y018538D01*
X006140Y018492D02*
X006140Y017718D01*
X005960Y017538D01*
X005960Y017298D01*
X006154Y017104D01*
X006154Y016786D01*
X006500Y019638D02*
X006380Y019758D01*
X006360Y019818D01*
X006500Y019638D02*
X007160Y019638D01*
X007380Y019878D01*
X007380Y019998D01*
X007120Y019898D02*
X007580Y020358D01*
X007940Y020358D01*
X008200Y020118D01*
X007940Y019218D02*
X007460Y019218D01*
X007340Y019098D01*
X007120Y019838D02*
X007120Y019898D01*
X007120Y019838D02*
X006590Y019808D01*
X007820Y021318D02*
X007880Y021318D01*
X008080Y021498D01*
X008080Y023545D01*
X007737Y023869D01*
X004774Y018676D02*
X004774Y018632D01*
X004700Y018558D01*
D18*
X001981Y020408D03*
X001030Y022456D03*
D19*
X002907Y018618D02*
X003004Y018519D01*
X003004Y016786D01*
X003319Y016786D02*
X003319Y018519D01*
X003162Y018676D01*
X003477Y018676D02*
X003634Y018519D01*
X003634Y016786D01*
X004264Y016786D02*
X004264Y018676D01*
X004519Y018676D02*
X004579Y016786D01*
X005839Y016786D02*
X005839Y018538D01*
D20*
X000860Y005658D02*
X001080Y005438D01*
X004352Y005438D01*
X004460Y005546D01*
X004512Y005546D01*
X004640Y005438D01*
X006450Y005438D01*
X007020Y006008D01*
X000860Y005658D02*
X000860Y009258D01*
D21*
X005300Y019098D02*
X005000Y019398D01*
X005000Y020178D01*
X005840Y021018D01*
X006140Y021018D01*
X006500Y021378D01*
X006740Y021258D02*
X006440Y020958D01*
X006320Y020958D01*
X006200Y020838D01*
X005900Y020838D01*
X005180Y020118D01*
X005180Y019458D01*
X005480Y019158D01*
X005480Y018078D01*
X005540Y018018D01*
X005540Y017058D01*
X005445Y016963D01*
X005445Y016314D01*
X005524Y016235D01*
X005524Y016156D01*
X005681Y016471D02*
X005603Y016550D01*
X005603Y016878D01*
X005700Y016975D01*
X005700Y018138D01*
X005640Y018198D01*
X005640Y019238D01*
X005360Y019518D01*
X005360Y020058D01*
X005960Y020658D01*
X006380Y020658D01*
X007100Y021378D01*
X006740Y021378D02*
X006740Y021258D01*
X006320Y022378D02*
X006140Y022538D01*
X005540Y022538D01*
X005520Y022518D01*
X005300Y022818D02*
X005300Y021978D01*
X005060Y021678D01*
X005060Y021158D01*
X004900Y020998D01*
X004740Y021658D02*
X004285Y021658D01*
X004060Y021433D01*
X003740Y021438D02*
X004060Y020958D01*
X003740Y021438D02*
X003740Y021798D01*
X003800Y021858D01*
X004580Y021858D01*
X004760Y021998D02*
X004640Y022098D01*
X004220Y022098D01*
X004160Y022038D01*
X003740Y022038D01*
X003560Y021858D01*
X003380Y021858D01*
X003020Y021498D01*
X002600Y021498D01*
X003260Y022338D02*
X003800Y022878D01*
X004100Y022878D01*
X004220Y022758D01*
X004220Y022518D01*
X004460Y022278D01*
X004700Y022278D01*
X004760Y022218D01*
X004860Y022218D01*
X004760Y021998D02*
X005000Y021998D01*
X005120Y022098D01*
X005120Y022278D01*
X005060Y022338D01*
X005060Y022798D01*
X004940Y022918D01*
X004960Y022938D01*
X005160Y022938D01*
X005640Y023418D01*
X006020Y023538D02*
X005300Y022818D01*
X004940Y022818D02*
X004940Y022918D01*
X004700Y023258D02*
X004390Y022928D01*
X004390Y022868D01*
X004880Y021798D02*
X004740Y021658D01*
X003980Y022638D02*
X003440Y022098D01*
X005380Y017138D02*
X005288Y017045D01*
X005288Y016314D01*
X005209Y016235D01*
X005209Y016156D01*
X005380Y017138D02*
X005380Y017838D01*
X005300Y017918D01*
X005300Y019098D01*
X005681Y016471D02*
X005839Y016471D01*
X006020Y023538D02*
X006140Y023538D01*
X006260Y023658D01*
D22*
X007520Y012533D02*
X007920Y012533D01*
X008120Y011478D02*
X007850Y011204D01*
X007550Y011204D01*
M02*
