%
M48
M72
T01C0.0118
T02C0.0157
T03C0.0197
T04C0.0236
T05C0.0320
T06C0.0400
%
T01
X2799Y6798
X3320Y5826
X3792Y6471
X4150Y10015
X4180Y11218
X3940Y11218
X3620Y12498
X3740Y12818
X3949Y13322
X4264Y13322
X4264Y13637
X4264Y13007
X4460Y12378
X4579Y13322
X4579Y13637
X4894Y13637
X5209Y13637
X5209Y13322
X5209Y13007
X5480Y12968
X5524Y13637
X5524Y13952
X5524Y14267
X5839Y13637
X5970Y12943
X6154Y13322
X6154Y13637
X6154Y13952
X6469Y13952
X6469Y14267
X6469Y14582
X6469Y15211
X6154Y14897
X6154Y15526
X5839Y15211
X5839Y15841
X5839Y16156
X5839Y16471
X5839Y16786
X5524Y16156
X5209Y16156
X4894Y16471
X4894Y16786
X4579Y16786
X4264Y16786
X3949Y16786
X3949Y16471
X3949Y16156
X4264Y15841
X4264Y15526
X4264Y15211
X3949Y15526
X3634Y15211
X3634Y14582
X3949Y14267
X3634Y13952
X3634Y13637
X3319Y13637
X3319Y13322
X3320Y12977
X3184Y12692
X3004Y12456
X2830Y12669
X3004Y13322
X3004Y13637
X3319Y14582
X3319Y14897
X3319Y15526
X3004Y15526
X3004Y15211
X3004Y14897
X3319Y16156
X3319Y16786
X3004Y16786
X2749Y17266
X2689Y16786
X2689Y16471
X1990Y17238
X2791Y18869
X2907Y18618
X3080Y19158
X3162Y18676
X3477Y18676
X3740Y18678
X4009Y18676
X4264Y18676
X4519Y18676
X4774Y18676
X5164Y17356
X5839Y18538
X6094Y18538
X6349Y18538
X6424Y17446
X6469Y16786
X6469Y16471
X6154Y16786
X6800Y14898
X6800Y14598
X6800Y13948
X6784Y13322
X6440Y12968
X5900Y11196
X6200Y10998
X6380Y10698
X6560Y10998
X6860Y10938
X6940Y9918
X7520Y10278
X7640Y9268
X8060Y9138
X7820Y8298
X7526Y7258
X7020Y6798
X6720Y6778
X5960Y9918
X5590Y12368
X5720Y12938
X4940Y12456
X4820Y11178
X4894Y14897
X5209Y15211
X3634Y16471
X3634Y16786
X3800Y19798
X4060Y20958
X4060Y21433
X3980Y22638
X3620Y22998
X3440Y22098
X2739Y22098
X2600Y21498
X2517Y20298
X1880Y22338
X1726Y23428
X1429Y24482
X996Y24078
X2540Y22878
X1130Y19158
X960Y10938
X2360Y7938
X3020Y10938
X5540Y19638
X6130Y19838
X6360Y19818
X6590Y19808
X6960Y18538
X7100Y19278
X7340Y19098
X7820Y21318
X8360Y20418
X8250Y19598
X7100Y21378
X6740Y21378
X6500Y21378
X6145Y22192
X6320Y22378
X6260Y23658
X5640Y23418
X5520Y22518
X5710Y21728
X4940Y22918
X4860Y22218
X4880Y21798
X4580Y21858
X4900Y20998
X4390Y22868
X4700Y23258
X7520Y14298
X7950Y12508
X7650Y12368
X7640Y11368
X7880Y10458
T02
X1981Y20408
X1030Y22456
T03
X2120Y16338
X2040Y14518
X1480Y13438
X1050Y11898
X1060Y11418
X2780Y11118
X5240Y11158
X5603Y10135
X5366Y7858
X6560Y6038
X7020Y6008
X4350Y21078
X6034Y21518
T04
X1100Y14778
X980Y9506
X1212Y6291
X4460Y5546
T05
X1737Y5869
X1737Y6869
X1737Y7869
X1737Y8869
X1737Y9869
X1737Y10869
X1737Y11869
X1737Y12869
X1737Y13869
X1737Y14869
X1737Y15869
X1737Y16869
X1737Y17869
X1737Y18869
X1737Y19869
X1737Y20869
X1737Y21869
X1737Y22869
X1737Y23869
X1737Y24869
X7737Y24869
X7737Y23869
X7737Y22869
X7737Y21869
X7737Y20869
X7737Y19869
X7737Y18869
X7737Y17869
X7737Y16869
X7737Y15869
X7737Y14869
X7737Y13869
X7737Y12869
X7737Y11869
X7737Y10869
X7737Y9869
X7737Y8869
X7737Y7869
X7737Y6869
X7737Y5869
T06
X6815Y7389
X6815Y8389
X5815Y8389
X5815Y7389
X4815Y7389
X4815Y8389
X3815Y8389
X3815Y7389
X2815Y7389
X2815Y8389
X3680Y23668
X3680Y24668
X2680Y24768
X2680Y23768
X4680Y23768
X4680Y24768
X5760Y24438
X5760Y25438
X6760Y25438
X6760Y24438
M30
