G75*
%MOIN*%
%OFA0B0*%
%FSLAX24Y24*%
%IPPOS*%
%LPD*%
%AMOC8*
5,1,8,0,0,1.08239X$1,22.5*
%
%ADD10C,0.0000*%
%ADD11C,0.0020*%
%ADD12C,0.0079*%
%ADD13C,0.0030*%
%ADD14C,0.0050*%
%ADD15C,0.0060*%
%ADD16C,0.0010*%
%ADD17C,0.0080*%
%ADD18C,0.0040*%
%ADD19C,0.0157*%
%ADD20C,0.0141*%
%ADD21C,0.0269*%
D10*
X000563Y005211D02*
X008713Y005211D01*
X008713Y025999D01*
X000563Y025999D01*
X000563Y005211D01*
D11*
X000600Y006978D02*
X000600Y007068D01*
X000630Y007098D01*
X000690Y007098D01*
X000720Y007068D01*
X000720Y006978D01*
X000720Y007038D02*
X000780Y007098D01*
X000780Y007162D02*
X000750Y007162D01*
X000630Y007282D01*
X000600Y007282D01*
X000600Y007162D01*
X000600Y006978D02*
X000780Y006978D01*
X000780Y008378D02*
X000600Y008378D01*
X000600Y008468D01*
X000630Y008498D01*
X000690Y008498D01*
X000720Y008468D01*
X000720Y008378D01*
X000720Y008438D02*
X000780Y008498D01*
X000750Y008562D02*
X000780Y008592D01*
X000780Y008652D01*
X000750Y008682D01*
X000720Y008682D01*
X000690Y008652D01*
X000690Y008562D01*
X000750Y008562D01*
X000690Y008562D02*
X000630Y008622D01*
X000600Y008682D01*
X000590Y012433D02*
X000590Y012553D01*
X000590Y012617D02*
X000590Y012707D01*
X000620Y012737D01*
X000650Y012737D01*
X000680Y012707D01*
X000680Y012617D01*
X000770Y012617D02*
X000770Y012707D01*
X000740Y012737D01*
X000710Y012737D01*
X000680Y012707D01*
X000650Y012802D02*
X000590Y012862D01*
X000770Y012862D01*
X000770Y012802D02*
X000770Y012922D01*
X000770Y012617D02*
X000590Y012617D01*
X000680Y012493D02*
X000680Y012433D01*
X000770Y012433D02*
X000590Y012433D01*
X000660Y013852D02*
X000630Y013882D01*
X000630Y013942D01*
X000660Y013972D01*
X000720Y014036D02*
X000720Y014126D01*
X000750Y014156D01*
X000780Y014156D01*
X000810Y014126D01*
X000810Y014066D01*
X000780Y014036D01*
X000720Y014036D01*
X000660Y014096D01*
X000630Y014156D01*
X000660Y013852D02*
X000780Y013852D01*
X000810Y013882D01*
X000810Y013942D01*
X000780Y013972D01*
X000780Y015803D02*
X000660Y015803D01*
X000630Y015833D01*
X000630Y015893D01*
X000660Y015923D01*
X000630Y015987D02*
X000720Y015987D01*
X000690Y016047D01*
X000690Y016077D01*
X000720Y016107D01*
X000780Y016107D01*
X000810Y016077D01*
X000810Y016017D01*
X000780Y015987D01*
X000780Y015923D02*
X000810Y015893D01*
X000810Y015833D01*
X000780Y015803D01*
X000630Y015987D02*
X000630Y016107D01*
X000630Y017105D02*
X000630Y017195D01*
X000660Y017225D01*
X000720Y017225D01*
X000750Y017195D01*
X000750Y017105D01*
X000810Y017105D02*
X000630Y017105D01*
X000630Y017289D02*
X000720Y017289D01*
X000690Y017349D01*
X000690Y017379D01*
X000720Y017409D01*
X000780Y017409D01*
X000810Y017379D01*
X000810Y017319D01*
X000780Y017289D01*
X000810Y017225D02*
X000750Y017165D01*
X000630Y017289D02*
X000630Y017409D01*
X000630Y018276D02*
X000630Y018366D01*
X000660Y018396D01*
X000720Y018396D01*
X000750Y018366D01*
X000750Y018276D01*
X000750Y018336D02*
X000810Y018396D01*
X000720Y018460D02*
X000720Y018580D01*
X000810Y018550D02*
X000630Y018550D01*
X000720Y018460D01*
X000810Y018276D02*
X000630Y018276D01*
X000630Y019583D02*
X000630Y019673D01*
X000660Y019703D01*
X000720Y019703D01*
X000750Y019673D01*
X000750Y019583D01*
X000750Y019643D02*
X000810Y019703D01*
X000780Y019767D02*
X000810Y019797D01*
X000810Y019857D01*
X000780Y019887D01*
X000750Y019887D01*
X000720Y019857D01*
X000720Y019827D01*
X000720Y019857D02*
X000690Y019887D01*
X000660Y019887D01*
X000630Y019857D01*
X000630Y019797D01*
X000660Y019767D01*
X000630Y019583D02*
X000810Y019583D01*
X000780Y021184D02*
X000660Y021184D01*
X000630Y021214D01*
X000630Y021274D01*
X000660Y021304D01*
X000690Y021368D02*
X000630Y021428D01*
X000810Y021428D01*
X000810Y021368D02*
X000810Y021488D01*
X000780Y021304D02*
X000810Y021274D01*
X000810Y021214D01*
X000780Y021184D01*
X000800Y023224D02*
X000620Y023224D01*
X000620Y023315D01*
X000650Y023345D01*
X000710Y023345D01*
X000740Y023315D01*
X000740Y023224D01*
X000740Y023285D02*
X000800Y023345D01*
X000800Y023409D02*
X000680Y023529D01*
X000650Y023529D01*
X000620Y023499D01*
X000620Y023439D01*
X000650Y023409D01*
X000800Y023409D02*
X000800Y023529D01*
X000810Y024513D02*
X000630Y024513D01*
X000630Y024603D01*
X000660Y024633D01*
X000720Y024633D01*
X000750Y024603D01*
X000750Y024513D01*
X000750Y024573D02*
X000810Y024633D01*
X000810Y024697D02*
X000810Y024817D01*
X000810Y024757D02*
X000630Y024757D01*
X000690Y024697D01*
X003478Y020929D02*
X003441Y020893D01*
X003441Y020746D01*
X003478Y020709D01*
X003551Y020709D01*
X003588Y020746D01*
X003662Y020709D02*
X003809Y020856D01*
X003809Y020893D01*
X003772Y020929D01*
X003699Y020929D01*
X003662Y020893D01*
X003588Y020893D02*
X003551Y020929D01*
X003478Y020929D01*
X003662Y020709D02*
X003809Y020709D01*
X005145Y022828D02*
X005109Y022864D01*
X005109Y023048D01*
X005145Y022828D02*
X005219Y022828D01*
X005256Y022864D01*
X005256Y023048D01*
X005330Y022975D02*
X005403Y023048D01*
X005403Y022828D01*
X005330Y022828D02*
X005477Y022828D01*
X005444Y023268D02*
X005384Y023268D01*
X005354Y023298D01*
X005290Y023298D02*
X005260Y023268D01*
X005200Y023268D01*
X005170Y023298D01*
X005170Y023418D01*
X005200Y023448D01*
X005260Y023448D01*
X005290Y023418D01*
X005354Y023418D02*
X005384Y023448D01*
X005444Y023448D01*
X005474Y023418D01*
X005474Y023388D01*
X005444Y023358D01*
X005474Y023328D01*
X005474Y023298D01*
X005444Y023268D01*
X005444Y023358D02*
X005414Y023358D01*
X006200Y023578D02*
X006230Y023548D01*
X006350Y023548D01*
X006380Y023578D01*
X006380Y023638D01*
X006350Y023668D01*
X006290Y023732D02*
X006290Y023852D01*
X006380Y023822D02*
X006200Y023822D01*
X006290Y023732D01*
X006230Y023668D02*
X006200Y023638D01*
X006200Y023578D01*
X008470Y011124D02*
X008500Y011124D01*
X008620Y011004D01*
X008650Y011004D01*
X008620Y010940D02*
X008650Y010910D01*
X008650Y010850D01*
X008620Y010820D01*
X008500Y010820D01*
X008470Y010850D01*
X008470Y010910D01*
X008500Y010940D01*
X008470Y011004D02*
X008470Y011124D01*
X008500Y009924D02*
X008620Y009804D01*
X008650Y009834D01*
X008650Y009894D01*
X008620Y009924D01*
X008500Y009924D01*
X008470Y009894D01*
X008470Y009834D01*
X008500Y009804D01*
X008620Y009804D01*
X008650Y009740D02*
X008650Y009620D01*
X008650Y009680D02*
X008470Y009680D01*
X008530Y009620D01*
X008500Y009556D02*
X008560Y009556D01*
X008590Y009526D01*
X008590Y009436D01*
X008590Y009496D02*
X008650Y009556D01*
X008650Y009436D02*
X008470Y009436D01*
X008470Y009526D01*
X008500Y009556D01*
X008530Y008674D02*
X008560Y008674D01*
X008590Y008644D01*
X008590Y008584D01*
X008560Y008554D01*
X008530Y008554D01*
X008500Y008584D01*
X008500Y008644D01*
X008530Y008674D01*
X008590Y008644D02*
X008620Y008674D01*
X008650Y008674D01*
X008680Y008644D01*
X008680Y008584D01*
X008650Y008554D01*
X008620Y008554D01*
X008590Y008584D01*
X008590Y008490D02*
X008620Y008460D01*
X008620Y008369D01*
X008680Y008369D02*
X008500Y008369D01*
X008500Y008460D01*
X008530Y008490D01*
X008590Y008490D01*
X008620Y008429D02*
X008680Y008490D01*
X008650Y007474D02*
X008530Y007474D01*
X008500Y007444D01*
X008500Y007384D01*
X008530Y007354D01*
X008560Y007354D01*
X008590Y007384D01*
X008590Y007474D01*
X008650Y007474D02*
X008680Y007444D01*
X008680Y007384D01*
X008650Y007354D01*
X008680Y007290D02*
X008620Y007229D01*
X008620Y007260D02*
X008620Y007169D01*
X008680Y007169D02*
X008500Y007169D01*
X008500Y007260D01*
X008530Y007290D01*
X008590Y007290D01*
X008620Y007260D01*
X008680Y006214D02*
X008680Y006094D01*
X008560Y006214D01*
X008530Y006214D01*
X008500Y006184D01*
X008500Y006124D01*
X008530Y006094D01*
X008500Y005969D02*
X008680Y005969D01*
X008680Y005909D02*
X008680Y006030D01*
X008560Y005909D02*
X008500Y005969D01*
X008530Y005845D02*
X008500Y005815D01*
X008500Y005755D01*
X008530Y005725D01*
X008650Y005725D01*
X008680Y005755D01*
X008680Y005815D01*
X008650Y005845D01*
X007852Y005240D02*
X007732Y005240D01*
X007792Y005240D02*
X007792Y005421D01*
X007732Y005360D01*
X007668Y005421D02*
X007548Y005240D01*
X007668Y005240D02*
X007548Y005421D01*
X005240Y005395D02*
X005210Y005425D01*
X005240Y005395D02*
X005240Y005335D01*
X005210Y005305D01*
X005090Y005305D01*
X005060Y005335D01*
X005060Y005395D01*
X005090Y005425D01*
X005120Y005489D02*
X005060Y005549D01*
X005240Y005549D01*
X005240Y005489D02*
X005240Y005610D01*
X005210Y005674D02*
X005090Y005794D01*
X005210Y005794D01*
X005240Y005764D01*
X005240Y005704D01*
X005210Y005674D01*
X005090Y005674D01*
X005060Y005704D01*
X005060Y005764D01*
X005090Y005794D01*
X004273Y005487D02*
X004126Y005487D01*
X004052Y005487D02*
X003906Y005487D01*
X003906Y005707D01*
X004126Y005634D02*
X004200Y005707D01*
X004200Y005487D01*
X002859Y005458D02*
X002859Y005604D01*
X002822Y005641D01*
X002749Y005641D01*
X002712Y005604D01*
X002712Y005568D01*
X002749Y005531D01*
X002859Y005531D01*
X002859Y005458D02*
X002822Y005421D01*
X002749Y005421D01*
X002712Y005458D01*
X002638Y005458D02*
X002601Y005421D01*
X002528Y005421D01*
X002491Y005458D01*
X002491Y005604D01*
X002528Y005641D01*
X002601Y005641D01*
X002638Y005604D01*
X002383Y006787D02*
X002323Y006787D01*
X002293Y006817D01*
X002293Y006847D01*
X002323Y006877D01*
X002383Y006877D01*
X002413Y006847D01*
X002413Y006817D01*
X002383Y006787D01*
X002383Y006877D02*
X002413Y006907D01*
X002413Y006937D01*
X002383Y006967D01*
X002323Y006967D01*
X002293Y006937D01*
X002293Y006907D01*
X002323Y006877D01*
X002229Y006937D02*
X002199Y006967D01*
X002139Y006967D01*
X002109Y006937D01*
X002109Y006817D01*
X002139Y006787D01*
X002199Y006787D01*
X002229Y006817D01*
X002205Y008909D02*
X002235Y008939D01*
X002235Y009089D01*
X002205Y009089D02*
X002265Y009089D01*
X002329Y009089D02*
X002329Y008909D01*
X002329Y008969D02*
X002420Y008969D01*
X002450Y008999D01*
X002450Y009059D01*
X002420Y009089D01*
X002329Y009089D01*
X002514Y009029D02*
X002574Y009089D01*
X002574Y008909D01*
X002514Y008909D02*
X002634Y008909D01*
X002205Y008909D02*
X002175Y008909D01*
X002145Y008939D01*
D12*
X002571Y012889D02*
X006902Y012889D01*
X006902Y017219D01*
X002768Y017219D01*
X002571Y017022D01*
X002571Y012889D01*
X002414Y016944D02*
X002416Y016956D01*
X002421Y016967D01*
X002430Y016976D01*
X002441Y016981D01*
X002453Y016983D01*
X002465Y016981D01*
X002476Y016976D01*
X002485Y016967D01*
X002490Y016956D01*
X002492Y016944D01*
X002490Y016932D01*
X002485Y016921D01*
X002476Y016912D01*
X002465Y016907D01*
X002453Y016905D01*
X002441Y016907D01*
X002430Y016912D01*
X002421Y016921D01*
X002416Y016932D01*
X002414Y016944D01*
X002571Y017022D02*
X002571Y017219D01*
X002768Y017219D01*
X002561Y017440D02*
X002563Y017452D01*
X002568Y017463D01*
X002577Y017472D01*
X002588Y017477D01*
X002600Y017479D01*
X002612Y017477D01*
X002623Y017472D01*
X002632Y017463D01*
X002637Y017452D01*
X002639Y017440D01*
X002637Y017428D01*
X002632Y017417D01*
X002623Y017408D01*
X002612Y017403D01*
X002600Y017401D01*
X002588Y017403D01*
X002577Y017408D01*
X002568Y017417D01*
X002563Y017428D01*
X002561Y017440D01*
X007061Y012314D02*
X007063Y012326D01*
X007068Y012337D01*
X007077Y012346D01*
X007088Y012351D01*
X007100Y012353D01*
X007112Y012351D01*
X007123Y012346D01*
X007132Y012337D01*
X007137Y012326D01*
X007139Y012314D01*
X007137Y012302D01*
X007132Y012291D01*
X007123Y012282D01*
X007112Y012277D01*
X007100Y012275D01*
X007088Y012277D01*
X007077Y012282D01*
X007068Y012291D01*
X007063Y012302D01*
X007061Y012314D01*
D13*
X005940Y022615D02*
X005800Y022615D01*
X005765Y022650D01*
X005765Y022720D01*
X005800Y022755D01*
X005765Y022836D02*
X005975Y022976D01*
X005765Y022976D01*
X005835Y023057D02*
X005765Y023127D01*
X005975Y023127D01*
X005975Y023057D02*
X005975Y023197D01*
X005975Y022836D02*
X005765Y022836D01*
X005940Y022755D02*
X005975Y022720D01*
X005975Y022650D01*
X005940Y022615D01*
X007435Y025553D02*
X007435Y025746D01*
X007532Y025843D01*
X007628Y025746D01*
X007628Y025553D01*
X007730Y025601D02*
X007778Y025553D01*
X007875Y025553D01*
X007923Y025601D01*
X007923Y025843D01*
X008024Y025843D02*
X008024Y025553D01*
X008169Y025553D01*
X008218Y025601D01*
X008218Y025795D01*
X008169Y025843D01*
X008024Y025843D01*
X007730Y025843D02*
X007730Y025601D01*
X007628Y025698D02*
X007435Y025698D01*
X002445Y019425D02*
X002445Y019231D01*
X002252Y019425D01*
X002203Y019425D01*
X002155Y019376D01*
X002155Y019279D01*
X002203Y019231D01*
X002155Y019130D02*
X002397Y019130D01*
X002445Y019082D01*
X002445Y018985D01*
X002397Y018936D01*
X002155Y018936D01*
X002218Y015468D02*
X002267Y015468D01*
X002315Y015420D01*
X002363Y015468D01*
X002412Y015468D01*
X002460Y015420D01*
X002460Y015323D01*
X002412Y015275D01*
X002412Y015174D02*
X002170Y015174D01*
X002218Y015275D02*
X002170Y015323D01*
X002170Y015420D01*
X002218Y015468D01*
X002315Y015420D02*
X002315Y015371D01*
X002412Y015174D02*
X002460Y015125D01*
X002460Y015028D01*
X002412Y014980D01*
X002170Y014980D01*
X002369Y010544D02*
X002369Y010350D01*
X002224Y010495D01*
X002514Y010495D01*
X002466Y010249D02*
X002224Y010249D01*
X002224Y010055D02*
X002466Y010055D01*
X002514Y010104D01*
X002514Y010201D01*
X002466Y010249D01*
D14*
X002581Y009680D02*
X002581Y011452D01*
X002521Y018302D02*
X002521Y020074D01*
X004229Y021395D02*
X004229Y021533D01*
X004229Y021395D02*
X004367Y021395D01*
X004229Y022438D02*
X004229Y022576D01*
X004367Y022576D01*
X005273Y022576D02*
X005411Y022576D01*
X005411Y022438D01*
X005411Y021533D02*
X005411Y021395D01*
X005273Y021395D01*
X006030Y022478D02*
X006030Y023478D01*
X007330Y023478D01*
X007330Y022478D01*
X006030Y022478D01*
X007119Y020074D02*
X007119Y018302D01*
X007179Y011452D02*
X007179Y009680D01*
D15*
X007065Y008889D02*
X007315Y008639D01*
X007315Y007139D01*
X007065Y006889D01*
X006565Y006889D01*
X006315Y007139D01*
X006315Y008639D01*
X006565Y008889D01*
X007065Y008889D01*
X006315Y008639D02*
X006065Y008889D01*
X005565Y008889D01*
X005315Y008639D01*
X005315Y007139D01*
X005565Y006889D01*
X006065Y006889D01*
X006315Y007139D01*
X005580Y006736D02*
X005580Y006536D01*
X005580Y006216D02*
X005580Y006016D01*
X005430Y006946D02*
X005431Y006956D01*
X005429Y006967D01*
X005423Y006975D01*
X005415Y006982D01*
X005405Y006986D01*
X005395Y006986D01*
X005385Y006982D01*
X005377Y006975D01*
X005371Y006967D01*
X005369Y006956D01*
X005370Y006946D01*
X005315Y007139D02*
X005065Y006889D01*
X004565Y006889D01*
X004315Y007139D01*
X004315Y008639D01*
X004565Y008889D01*
X005065Y008889D01*
X005315Y008639D01*
X005020Y006736D02*
X005020Y006536D01*
X005020Y006216D02*
X005020Y006016D01*
X004065Y006889D02*
X004315Y007139D01*
X004065Y006889D02*
X003565Y006889D01*
X003315Y007139D01*
X003315Y008639D01*
X003565Y008889D01*
X004065Y008889D01*
X004315Y008639D01*
X003719Y006561D02*
X003719Y005941D01*
X003065Y006889D02*
X003315Y007139D01*
X003065Y006889D02*
X002565Y006889D01*
X002315Y007139D01*
X002315Y008639D01*
X002565Y008889D01*
X003065Y008889D01*
X003315Y008639D01*
X002919Y006561D02*
X002919Y005941D01*
X002087Y005369D02*
X007387Y005369D01*
X007387Y025369D01*
X005087Y025369D01*
X005260Y025688D02*
X005510Y025938D01*
X006010Y025938D01*
X006260Y025688D01*
X006260Y024188D01*
X006510Y023938D01*
X007010Y023938D01*
X007260Y024188D01*
X007260Y025688D01*
X007010Y025938D01*
X006510Y025938D01*
X006260Y025688D01*
X006260Y024188D02*
X006010Y023938D01*
X005510Y023938D01*
X005260Y024188D01*
X005260Y025688D01*
X005087Y025369D02*
X005085Y025330D01*
X005079Y025291D01*
X005070Y025253D01*
X005057Y025216D01*
X005040Y025180D01*
X005020Y025147D01*
X004996Y025115D01*
X004970Y025086D01*
X004941Y025060D01*
X004909Y025036D01*
X004876Y025016D01*
X004840Y024999D01*
X004803Y024986D01*
X004765Y024977D01*
X004726Y024971D01*
X004687Y024969D01*
X004648Y024971D01*
X004609Y024977D01*
X004571Y024986D01*
X004534Y024999D01*
X004498Y025016D01*
X004465Y025036D01*
X004433Y025060D01*
X004404Y025086D01*
X004378Y025115D01*
X004354Y025147D01*
X004334Y025180D01*
X004317Y025216D01*
X004304Y025253D01*
X004295Y025291D01*
X004289Y025330D01*
X004287Y025369D01*
X002087Y025369D01*
X002087Y005369D01*
D16*
X002921Y006634D02*
X002921Y006824D01*
X003017Y006824D01*
X003048Y006792D01*
X003048Y006729D01*
X003017Y006697D01*
X002921Y006697D01*
X002985Y006697D02*
X003048Y006634D01*
X003106Y006634D02*
X003232Y006634D01*
X003290Y006666D02*
X003321Y006634D01*
X003385Y006634D01*
X003417Y006666D01*
X003417Y006729D01*
X003353Y006729D01*
X003290Y006792D02*
X003290Y006666D01*
X003290Y006792D02*
X003321Y006824D01*
X003385Y006824D01*
X003417Y006792D01*
X003474Y006761D02*
X003537Y006824D01*
X003537Y006634D01*
X003474Y006634D02*
X003601Y006634D01*
X003232Y006824D02*
X003106Y006824D01*
X003106Y006634D01*
X003106Y006729D02*
X003169Y006729D01*
X004837Y006585D02*
X004837Y006528D01*
X004865Y006500D01*
X004865Y006448D02*
X004837Y006419D01*
X004837Y006363D01*
X004865Y006334D01*
X004978Y006334D01*
X005007Y006363D01*
X005007Y006419D01*
X004978Y006448D01*
X004922Y006448D01*
X004922Y006391D01*
X005007Y006500D02*
X004893Y006613D01*
X004865Y006613D01*
X004837Y006585D01*
X005007Y006613D02*
X005007Y006500D01*
X005007Y006282D02*
X005007Y006169D01*
X004837Y006169D01*
X004837Y006282D01*
X004922Y006225D02*
X004922Y006169D01*
X004922Y006116D02*
X004950Y006088D01*
X004950Y006003D01*
X004950Y006059D02*
X005007Y006116D01*
X004922Y006116D02*
X004865Y006116D01*
X004837Y006088D01*
X004837Y006003D01*
X005007Y006003D01*
X005565Y006248D02*
X005590Y006223D01*
X005690Y006223D01*
X005715Y006248D01*
X005715Y006298D01*
X005690Y006323D01*
X005715Y006370D02*
X005715Y006470D01*
X005715Y006517D02*
X005715Y006617D01*
X005715Y006567D02*
X005565Y006567D01*
X005615Y006517D01*
X005565Y006420D02*
X005615Y006370D01*
X005590Y006323D02*
X005565Y006298D01*
X005565Y006248D01*
X005565Y006420D02*
X005715Y006420D01*
D17*
X006169Y006628D02*
X006169Y005447D01*
X006366Y005250D01*
X007154Y005250D01*
X007351Y005447D01*
X007351Y006628D01*
X007154Y006825D01*
X006366Y006825D01*
X006169Y006628D01*
X003514Y021006D02*
X002577Y021006D01*
X002577Y021983D01*
X003514Y021983D01*
X003514Y021006D01*
X003514Y022187D02*
X003514Y023164D01*
X002577Y023164D01*
X002577Y022187D01*
X003514Y022187D01*
X003430Y023218D02*
X003180Y023468D01*
X003180Y024968D01*
X003430Y025218D01*
X003930Y025218D01*
X004180Y024968D01*
X004180Y023468D01*
X004430Y023218D01*
X004930Y023218D01*
X005180Y023468D01*
X005180Y024968D01*
X004930Y025218D01*
X004430Y025218D01*
X004180Y024968D01*
X004180Y023468D02*
X003930Y023218D01*
X003430Y023218D01*
X003180Y023468D02*
X002930Y023218D01*
X002430Y023218D01*
X002180Y023468D01*
X002180Y024968D01*
X002430Y025218D01*
X002930Y025218D01*
X003180Y024968D01*
X002930Y023086D02*
X002430Y023086D01*
X006351Y022386D02*
X006351Y021409D01*
X007289Y021409D01*
X007289Y022386D01*
X006351Y022386D01*
D18*
X006252Y021970D02*
X006285Y021937D01*
X006285Y021870D01*
X006252Y021837D01*
X006285Y021749D02*
X006085Y021749D01*
X006118Y021837D02*
X006085Y021870D01*
X006085Y021937D01*
X006118Y021970D01*
X006152Y021970D01*
X006185Y021937D01*
X006218Y021970D01*
X006252Y021970D01*
X006185Y021937D02*
X006185Y021903D01*
X006285Y021749D02*
X006085Y021616D01*
X006285Y021616D01*
X006285Y021528D02*
X006218Y021462D01*
X006218Y021495D02*
X006218Y021395D01*
X006285Y021395D02*
X006085Y021395D01*
X006085Y021495D01*
X006118Y021528D01*
X006185Y021528D01*
X006218Y021495D01*
X004647Y025668D02*
X004340Y025668D01*
X004570Y025898D01*
X004570Y025438D01*
X004186Y025438D02*
X003879Y025898D01*
X003726Y025745D02*
X003726Y025438D01*
X003879Y025438D02*
X004186Y025898D01*
X003726Y025745D02*
X003572Y025898D01*
X003419Y025745D01*
X003419Y025438D01*
X003265Y025438D02*
X003265Y025898D01*
X003112Y025745D01*
X002958Y025898D01*
X002958Y025438D01*
X002652Y025668D02*
X002805Y025821D01*
X002805Y025898D01*
X002652Y025668D02*
X002652Y025438D01*
X002652Y025668D02*
X002498Y025821D01*
X002498Y025898D01*
X002345Y025898D02*
X002038Y025898D01*
X002038Y025438D01*
X002345Y025438D01*
X002191Y025668D02*
X002038Y025668D01*
X001884Y025898D02*
X001577Y025591D01*
X001654Y025668D02*
X001884Y025438D01*
X001577Y025438D02*
X001577Y025898D01*
X001424Y025821D02*
X001347Y025898D01*
X001194Y025898D01*
X001117Y025821D01*
X001117Y025514D01*
X001194Y025438D01*
X001347Y025438D01*
X001424Y025514D01*
X001424Y025821D01*
X000963Y025821D02*
X000963Y025668D01*
X000887Y025591D01*
X000657Y025591D01*
X000657Y025438D02*
X000657Y025898D01*
X000887Y025898D01*
X000963Y025821D01*
X002250Y022742D02*
X002317Y022675D01*
X002250Y022742D02*
X002451Y022742D01*
X002451Y022808D02*
X002451Y022675D01*
X002451Y022587D02*
X002250Y022587D01*
X002250Y022454D02*
X002451Y022587D01*
X002451Y022454D02*
X002250Y022454D01*
X002284Y022366D02*
X002350Y022366D01*
X002384Y022333D01*
X002384Y022233D01*
X002451Y022233D02*
X002250Y022233D01*
X002250Y022333D01*
X002284Y022366D01*
X002384Y022300D02*
X002451Y022366D01*
X002451Y021807D02*
X002451Y021674D01*
X002317Y021807D01*
X002284Y021807D01*
X002250Y021774D01*
X002250Y021707D01*
X002284Y021674D01*
X002250Y021586D02*
X002451Y021586D01*
X002250Y021453D01*
X002451Y021453D01*
X002451Y021365D02*
X002384Y021299D01*
X002384Y021332D02*
X002384Y021232D01*
X002451Y021232D02*
X002250Y021232D01*
X002250Y021332D01*
X002284Y021365D01*
X002350Y021365D01*
X002384Y021332D01*
X003612Y022958D02*
X003638Y022958D01*
X003665Y022984D01*
X003665Y023118D01*
X003638Y023118D02*
X003692Y023118D01*
X003769Y023118D02*
X003876Y023118D01*
X003823Y023118D02*
X003823Y022958D01*
X003953Y022958D02*
X003953Y023065D01*
X004007Y023118D01*
X004060Y023065D01*
X004060Y022958D01*
X004060Y023038D02*
X003953Y023038D01*
X004137Y023091D02*
X004137Y022984D01*
X004164Y022958D01*
X004218Y022958D01*
X004244Y022984D01*
X004244Y023038D01*
X004191Y023038D01*
X004244Y023091D02*
X004218Y023118D01*
X004164Y023118D01*
X004137Y023091D01*
X003612Y022958D02*
X003585Y022984D01*
X003726Y025668D02*
X003419Y025668D01*
D19*
X003924Y022383D03*
D20*
X003341Y022696D03*
X003341Y021514D03*
X007115Y021917D03*
D21*
X007436Y005163D03*
M02*
