G75*
%MOIN*%
%OFA0B0*%
%FSLAX24Y24*%
%IPPOS*%
%LPD*%
%AMOC8*
5,1,8,0,0,1.08239X$1,22.5*
%
%ADD10C,0.0820*%
%ADD11OC8,0.0600*%
%ADD12OC8,0.0720*%
%ADD13OC8,0.0376*%
D10*
X003680Y023668D03*
X003680Y024668D03*
X002680Y024768D03*
X002680Y023768D03*
X004680Y023768D03*
X004680Y024768D03*
D11*
X001737Y005869D03*
X001737Y006869D03*
X001737Y007869D03*
X001737Y008869D03*
X001737Y009869D03*
X001737Y010869D03*
X001737Y011869D03*
X001737Y012869D03*
X001737Y013869D03*
X001737Y014869D03*
X001737Y015869D03*
X001737Y016869D03*
X001737Y017869D03*
X001737Y018869D03*
X001737Y019869D03*
X001737Y020869D03*
X001737Y021869D03*
X001737Y022869D03*
X001737Y023869D03*
X001737Y024869D03*
X007737Y024869D03*
X007737Y023869D03*
X007737Y022869D03*
X007737Y021869D03*
X007737Y020869D03*
X007737Y019869D03*
X007737Y018869D03*
X007737Y017869D03*
X007737Y016869D03*
X007737Y015869D03*
X007737Y014869D03*
X007737Y013869D03*
X007737Y012869D03*
X007737Y011869D03*
X007737Y010869D03*
X007737Y009869D03*
X007737Y008869D03*
X007737Y007869D03*
X007737Y006869D03*
X007737Y005869D03*
D12*
X006815Y007389D03*
X006815Y008389D03*
X005815Y008389D03*
X005815Y007389D03*
X004815Y007389D03*
X004815Y008389D03*
X003815Y008389D03*
X003815Y007389D03*
X002815Y007389D03*
X002815Y008389D03*
X005760Y024438D03*
X005760Y025438D03*
X006760Y025438D03*
X006760Y024438D03*
D13*
X001100Y014778D03*
X000980Y009506D03*
X001212Y006291D03*
X004460Y005546D03*
M02*
