G75*
%MOIN*%
%OFA0B0*%
%FSLAX24Y24*%
%IPPOS*%
%LPD*%
%AMOC8*
5,1,8,0,0,1.08239X$1,22.5*
%
%ADD10C,0.0820*%
%ADD11OC8,0.0600*%
%ADD12OC8,0.0720*%
%ADD13OC8,0.0376*%
%ADD14OC8,0.0258*%
%ADD15OC8,0.0337*%
%ADD16OC8,0.0297*%
D10*
X003680Y023668D03*
X003680Y024668D03*
X002680Y024768D03*
X002680Y023768D03*
X004680Y023768D03*
X004680Y024768D03*
D11*
X001737Y005869D03*
X001737Y006869D03*
X001737Y007869D03*
X001737Y008869D03*
X001737Y009869D03*
X001737Y010869D03*
X001737Y011869D03*
X001737Y012869D03*
X001737Y013869D03*
X001737Y014869D03*
X001737Y015869D03*
X001737Y016869D03*
X001737Y017869D03*
X001737Y018869D03*
X001737Y019869D03*
X001737Y020869D03*
X001737Y021869D03*
X001737Y022869D03*
X001737Y023869D03*
X001737Y024869D03*
X007737Y024869D03*
X007737Y023869D03*
X007737Y022869D03*
X007737Y021869D03*
X007737Y020869D03*
X007737Y019869D03*
X007737Y018869D03*
X007737Y017869D03*
X007737Y016869D03*
X007737Y015869D03*
X007737Y014869D03*
X007737Y013869D03*
X007737Y012869D03*
X007737Y011869D03*
X007737Y010869D03*
X007737Y009869D03*
X007737Y008869D03*
X007737Y007869D03*
X007737Y006869D03*
X007737Y005869D03*
D12*
X006815Y007389D03*
X006815Y008389D03*
X005815Y008389D03*
X005815Y007389D03*
X004815Y007389D03*
X004815Y008389D03*
X003815Y008389D03*
X003815Y007389D03*
X002815Y007389D03*
X002815Y008389D03*
X005760Y024438D03*
X005760Y025438D03*
X006760Y025438D03*
X006760Y024438D03*
D13*
X001100Y014778D03*
X000980Y009506D03*
X001212Y006291D03*
X004460Y005546D03*
D14*
X003792Y006471D03*
X003320Y005826D03*
X002799Y006798D03*
X002360Y007938D03*
X003020Y010938D03*
X003004Y012456D03*
X002830Y012669D03*
X003004Y013322D03*
X003004Y013637D03*
X003319Y013637D03*
X003319Y013322D03*
X003320Y012977D03*
X003184Y012692D03*
X003620Y012498D03*
X003740Y012818D03*
X003949Y013322D03*
X004264Y013322D03*
X004264Y013637D03*
X004264Y013007D03*
X004460Y012378D03*
X004579Y013322D03*
X004579Y013637D03*
X004894Y013637D03*
X005209Y013637D03*
X005209Y013322D03*
X005209Y013007D03*
X005480Y012968D03*
X005524Y013637D03*
X005524Y013952D03*
X005524Y014267D03*
X005839Y013637D03*
X005970Y012943D03*
X006154Y013322D03*
X006154Y013637D03*
X006154Y013952D03*
X006469Y013952D03*
X006469Y014267D03*
X006469Y014582D03*
X006469Y015211D03*
X006154Y014897D03*
X006154Y015526D03*
X005839Y015211D03*
X005839Y015841D03*
X005839Y016156D03*
X005839Y016471D03*
X005839Y016786D03*
X005524Y016156D03*
X005209Y016156D03*
X004894Y016471D03*
X004894Y016786D03*
X004579Y016786D03*
X004264Y016786D03*
X003949Y016786D03*
X003949Y016471D03*
X003949Y016156D03*
X004264Y015841D03*
X004264Y015526D03*
X004264Y015211D03*
X003949Y015526D03*
X003634Y015211D03*
X003634Y014582D03*
X003949Y014267D03*
X003634Y013952D03*
X003634Y013637D03*
X003319Y014582D03*
X003319Y014897D03*
X003319Y015526D03*
X003004Y015526D03*
X003004Y015211D03*
X003004Y014897D03*
X003319Y016156D03*
X003319Y016786D03*
X003004Y016786D03*
X002749Y017266D03*
X002689Y016786D03*
X002689Y016471D03*
X001990Y017238D03*
X002791Y018869D03*
X002907Y018618D03*
X003080Y019158D03*
X003162Y018676D03*
X003477Y018676D03*
X003740Y018678D03*
X004009Y018676D03*
X004264Y018676D03*
X004519Y018676D03*
X004774Y018676D03*
X005164Y017356D03*
X005839Y018538D03*
X006094Y018538D03*
X006349Y018538D03*
X006424Y017446D03*
X006469Y016786D03*
X006469Y016471D03*
X006154Y016786D03*
X006800Y014898D03*
X006800Y014598D03*
X006800Y013948D03*
X006784Y013322D03*
X006440Y012968D03*
X005900Y011196D03*
X006200Y010998D03*
X006380Y010698D03*
X006560Y010998D03*
X006860Y010938D03*
X006940Y009918D03*
X007520Y010278D03*
X007640Y009268D03*
X008060Y009138D03*
X007820Y008298D03*
X007526Y007258D03*
X007020Y006798D03*
X006720Y006778D03*
X005960Y009918D03*
X005590Y012368D03*
X005720Y012938D03*
X004940Y012456D03*
X004820Y011178D03*
X004180Y011218D03*
X003940Y011218D03*
X004150Y010015D03*
X004894Y014897D03*
X005209Y015211D03*
X003634Y016471D03*
X003634Y016786D03*
X003800Y019798D03*
X004060Y020958D03*
X004060Y021433D03*
X003980Y022638D03*
X003620Y022998D03*
X003440Y022098D03*
X002739Y022098D03*
X002600Y021498D03*
X002517Y020298D03*
X001880Y022338D03*
X001726Y023428D03*
X001429Y024482D03*
X000996Y024078D03*
X002540Y022878D03*
X001130Y019158D03*
X000960Y010938D03*
X004580Y021858D03*
X004880Y021798D03*
X004860Y022218D03*
X004940Y022918D03*
X004700Y023258D03*
X004390Y022868D03*
X004900Y020998D03*
X005540Y019638D03*
X006130Y019838D03*
X006360Y019818D03*
X006590Y019808D03*
X006960Y018538D03*
X007100Y019278D03*
X007340Y019098D03*
X007820Y021318D03*
X008360Y020418D03*
X008250Y019598D03*
X007100Y021378D03*
X006740Y021378D03*
X006500Y021378D03*
X006145Y022192D03*
X006320Y022378D03*
X006260Y023658D03*
X005640Y023418D03*
X005520Y022518D03*
X005710Y021728D03*
X007520Y014298D03*
X007950Y012508D03*
X007650Y012368D03*
X007640Y011368D03*
X007880Y010458D03*
D15*
X007020Y006008D03*
X006560Y006038D03*
X005366Y007858D03*
X005603Y010135D03*
X005240Y011158D03*
X002780Y011118D03*
X002040Y014518D03*
X001480Y013438D03*
X001050Y011898D03*
X001060Y011418D03*
X002120Y016338D03*
X004350Y021078D03*
X006034Y021518D03*
D16*
X001981Y020408D03*
X001030Y022456D03*
M02*
