M48
; DRILL file {KiCad 9.0.7} date 2026-08-08T12:24:35+0200
; FORMAT={-:-/ absolute / metric / decimal}
; #@! TF.CreationDate,2026-08-08T12:24:35+02:00
; #@! TF.GenerationSoftware,Kicad,Pcbnew,9.0.7
; #@! TF.FileFunction,Plated,1,4,PTH
FMAT,2
METRIC
; #@! TA.AperFunction,Plated,PTH,ViaDrill
T1C0.254
; #@! TA.AperFunction,Plated,PTH,ViaDrill
T2C0.381
; #@! TA.AperFunction,Plated,PTH,ViaDrill
T3C0.500
; #@! TA.AperFunction,Plated,PTH,ViaDrill
T4C0.508
; #@! TA.AperFunction,Plated,PTH,ViaDrill
T5C0.600
; #@! TA.AperFunction,Plated,PTH,ComponentDrill
T6C0.650
; #@! TA.AperFunction,Plated,PTH,ComponentDrill
T7C0.900
; #@! TA.AperFunction,Plated,PTH,ComponentDrill
T8C0.914
; #@! TA.AperFunction,Plated,PTH,ComponentDrill
T9C1.016
; #@! TA.AperFunction,Plated,PTH,ComponentDrill
T10C1.300
; #@! TA.AperFunction,Plated,PTH,ComponentDrill
T11C1.600
; #@! TA.AperFunction,Plated,PTH,ComponentDrill
T12C1.800
; #@! TA.AperFunction,Plated,PTH,ComponentDrill
T13C2.200
; #@! TA.AperFunction,Plated,PTH,ComponentDrill
T14C2.311
; #@! TA.AperFunction,Plated,PTH,ComponentDrill
T15C3.302
; #@! TA.AperFunction,Plated,PTH,ComponentDrill
T16C3.600
%
G90
G05
T1
X68.2Y-126.961
X68.251Y-83.806
X70.004Y-133.895
X71.883Y-148.221
X72.543Y-117.918
X72.569Y-90.994
X72.569Y-111.695
X72.594Y-87.108
X72.747Y-77.075
X72.772Y-148.221
X72.848Y-121.17
X72.975Y-79.717
X73.788Y-155.714
X74.855Y-116.521
X74.855Y-120.484
X74.956Y-118.858
X75.16Y-130.898
X76.582Y-140.855
X77.242Y-109.105
X78.055Y-111.899
X78.055Y-113.169
X79.122Y-84.009
X79.224Y-81.165
X79.351Y-37.68
X79.833Y-79.844
X80.646Y-37.68
X80.748Y-82.485
X81.129Y-100.519
X81.357Y-99.046
X81.459Y-94.881
X81.941Y-37.68
X84.71Y-140.855
X85.421Y-130.085
X86.031Y-75.983
X86.082Y-112.203
X86.082Y-117.029
X86.082Y-119.773
X87.707Y-37.654
X89.028Y-118.96
X89.079Y-31.635
X89.282Y-114.083
X90.481Y-83.113
X90.654Y-67.144
X91.081Y-95.613
X91.183Y-92.613
X91.386Y-100.613
X91.657Y-113.413
X91.766Y-109.613
X92.107Y-78.113
X92.107Y-79.113
X92.107Y-80.113
X92.107Y-81.113
X92.107Y-82.113
X92.107Y-84.113
X92.107Y-86.113
X92.107Y-87.113
X92.107Y-88.113
X92.107Y-89.113
X92.107Y-90.113
X92.107Y-91.113
X92.107Y-92.113
X92.107Y-93.113
X92.107Y-94.113
X92.107Y-95.113
X92.107Y-96.113
X92.107Y-97.113
X92.107Y-98.113
X92.107Y-100.113
X92.107Y-101.113
X92.107Y-102.113
X92.107Y-103.113
X92.157Y-112.813
X92.707Y-77.613
X92.707Y-78.613
X92.707Y-79.613
X92.707Y-80.613
X92.707Y-82.613
X92.707Y-83.613
X92.707Y-84.613
X92.707Y-86.613
X92.707Y-87.613
X92.707Y-88.613
X92.707Y-91.613
X92.707Y-93.613
X92.707Y-96.613
X92.707Y-98.613
X92.707Y-99.613
X92.707Y-102.613
X92.707Y-103.613
X92.965Y-120.611
X93.092Y-140.855
X93.418Y-90.613
X93.52Y-85.613
X93.657Y-69.313
X93.778Y-64.223
X94.032Y-56.044
X94.157Y-112.813
X94.657Y-69.313
X94.657Y-113.413
X94.667Y-55.053
X94.972Y-54.418
X95.505Y-64.2
X95.581Y-64.959
X95.657Y-113.413
X96.038Y-61.124
X96.157Y-69.913
X97.157Y-112.813
X97.181Y-69.912
X97.283Y-140.855
X97.657Y-113.413
X97.664Y-69.277
X98.157Y-112.813
X98.832Y-66.026
X99.657Y-69.313
X99.657Y-113.413
X99.696Y-126.961
X99.721Y-133.209
X99.721Y-136.892
X99.747Y-128.282
X99.747Y-129.526
X99.747Y-134.378
X99.747Y-135.648
X100.157Y-69.913
X100.157Y-112.813
X100.657Y-113.413
X100.915Y-80.606
X101.157Y-72.275
X101.157Y-112.813
X101.657Y-69.313
X101.907Y-84.613
X101.907Y-87.613
X101.907Y-91.613
X101.907Y-93.613
X101.907Y-99.613
X102.157Y-69.913
X102.157Y-110.375
X102.185Y-116.369
X102.657Y-69.313
X102.657Y-113.413
X102.907Y-82.613
X102.907Y-85.613
X102.907Y-90.613
X102.907Y-92.613
X102.907Y-93.613
X102.907Y-94.613
X102.907Y-96.613
X102.907Y-98.613
X103.157Y-112.813
X103.657Y-69.313
X103.657Y-113.413
X103.907Y-81.613
X103.907Y-85.613
X103.907Y-86.613
X103.907Y-87.613
X103.907Y-88.613
X103.907Y-89.613
X103.907Y-90.613
X103.907Y-91.613
X103.907Y-92.613
X103.907Y-93.613
X103.907Y-94.613
X103.907Y-95.613
X103.907Y-97.613
X103.907Y-98.613
X104.157Y-69.913
X104.157Y-110.375
X104.657Y-69.313
X104.657Y-113.413
X104.878Y-82.587
X104.903Y-81.571
X104.907Y-83.613
X104.907Y-84.613
X104.907Y-86.613
X104.907Y-87.613
X104.907Y-88.613
X104.907Y-89.613
X104.907Y-90.613
X104.907Y-91.613
X104.907Y-92.613
X104.907Y-93.613
X104.907Y-94.613
X104.907Y-96.613
X104.907Y-97.613
X104.907Y-98.613
X104.907Y-99.613
X105.157Y-69.913
X105.157Y-112.813
X105.36Y-138.391
X105.589Y-67.042
X105.657Y-113.413
X105.665Y-72.198
X105.907Y-82.613
X105.907Y-83.613
X105.907Y-84.613
X105.907Y-87.613
X105.907Y-88.613
X105.907Y-89.613
X105.907Y-90.613
X105.907Y-91.613
X105.907Y-92.613
X105.907Y-93.613
X105.907Y-95.613
X105.907Y-96.613
X105.907Y-97.613
X105.907Y-98.613
X106.157Y-119.433
X106.529Y-129.018
X106.529Y-130.974
X106.529Y-131.66
X106.554Y-135.673
X106.605Y-133.59
X106.605Y-134.276
X106.907Y-81.613
X106.907Y-82.613
X106.907Y-85.613
X106.907Y-86.613
X106.907Y-88.613
X106.907Y-91.613
X106.907Y-95.613
X106.907Y-96.613
X106.907Y-97.613
X106.907Y-98.613
X106.907Y-99.613
X106.91Y-64.426
X106.91Y-87.616
X107.138Y-69.938
X107.157Y-112.813
X107.341Y-113.397
X107.596Y-69.328
X107.722Y-62.927
X107.9Y-84.594
X107.907Y-81.613
X107.907Y-82.613
X107.907Y-83.613
X107.907Y-85.613
X107.907Y-89.613
X107.907Y-90.613
X107.907Y-91.613
X107.907Y-93.613
X107.907Y-95.613
X107.907Y-96.613
X107.907Y-97.613
X107.907Y-98.613
X107.907Y-99.613
X107.977Y-113.423
X108.103Y-72.198
X108.205Y-40.296
X108.459Y-112.889
X108.561Y-64.858
X108.657Y-69.313
X108.865Y-83.552
X108.865Y-85.559
X108.891Y-84.594
X108.907Y-81.613
X108.907Y-82.613
X108.907Y-87.613
X108.907Y-88.613
X108.907Y-93.613
X108.907Y-94.613
X108.907Y-95.613
X108.907Y-96.613
X108.907Y-99.613
X109.043Y-63.334
X109.526Y-113.397
X109.657Y-69.313
X109.881Y-94.627
X109.907Y-81.613
X109.907Y-82.613
X109.907Y-83.613
X109.907Y-85.613
X109.907Y-86.613
X109.907Y-95.617
X109.907Y-96.613
X109.907Y-97.613
X109.907Y-99.613
X110.008Y-112.864
X110.157Y-69.913
X110.491Y-113.423
X110.657Y-69.313
X110.872Y-96.608
X110.907Y-81.613
X110.907Y-82.613
X110.907Y-83.613
X110.907Y-84.613
X110.907Y-86.613
X110.907Y-87.613
X110.907Y-88.613
X110.907Y-92.613
X110.907Y-93.613
X110.907Y-94.613
X110.907Y-97.613
X110.907Y-98.613
X110.974Y-95.592
X110.999Y-112.762
X111.907Y-81.613
X111.907Y-82.613
X111.907Y-83.613
X111.907Y-84.613
X111.907Y-85.613
X111.907Y-94.613
X111.907Y-95.613
X111.907Y-96.613
X111.907Y-97.613
X111.907Y-99.613
X112.157Y-69.913
X112.157Y-110.375
X112.657Y-69.313
X112.657Y-113.413
X112.907Y-81.613
X112.907Y-83.613
X112.907Y-84.613
X112.907Y-85.613
X112.907Y-86.613
X112.907Y-95.613
X112.907Y-96.613
X112.907Y-97.613
X112.907Y-99.613
X113.157Y-69.913
X113.157Y-112.813
X113.657Y-69.313
X113.657Y-113.413
X113.907Y-81.613
X113.907Y-83.613
X113.907Y-84.613
X113.907Y-85.613
X113.907Y-87.648
X113.907Y-90.613
X113.907Y-91.613
X113.907Y-92.613
X113.907Y-93.613
X113.907Y-95.613
X113.907Y-96.613
X113.907Y-97.613
X113.907Y-98.613
X114.157Y-69.913
X114.301Y-135.775
X114.631Y-133.006
X114.657Y-69.313
X114.682Y-135.038
X114.907Y-81.613
X114.907Y-82.613
X114.907Y-83.613
X114.907Y-84.613
X114.907Y-86.613
X114.907Y-87.613
X114.907Y-88.613
X114.907Y-89.613
X114.907Y-90.613
X114.907Y-91.613
X114.907Y-92.613
X114.907Y-93.613
X114.907Y-94.613
X114.907Y-96.613
X114.907Y-97.613
X114.907Y-98.613
X114.907Y-99.613
X114.911Y-40.296
X114.911Y-131.05
X115.157Y-72.275
X115.157Y-110.375
X115.657Y-69.313
X115.657Y-113.413
X115.907Y-82.613
X115.907Y-85.613
X115.907Y-86.613
X115.907Y-87.613
X115.907Y-88.613
X115.907Y-89.613
X115.907Y-90.613
X115.907Y-92.613
X115.907Y-93.613
X115.907Y-94.613
X115.907Y-95.613
X115.907Y-97.613
X115.907Y-98.613
X115.907Y-99.613
X116.157Y-69.913
X116.157Y-112.813
X116.657Y-69.313
X116.657Y-113.413
X116.907Y-86.613
X116.907Y-87.613
X116.907Y-88.613
X116.907Y-89.613
X116.907Y-90.613
X116.907Y-91.613
X116.907Y-92.613
X116.907Y-93.613
X116.907Y-95.613
X116.907Y-96.613
X116.907Y-98.613
X116.907Y-99.613
X117.07Y-62.724
X117.157Y-72.275
X117.657Y-69.313
X117.657Y-113.413
X117.907Y-88.613
X117.907Y-89.613
X117.907Y-90.613
X117.907Y-91.613
X117.907Y-92.613
X117.907Y-93.613
X117.907Y-95.613
X117.907Y-96.613
X117.907Y-97.613
X117.907Y-99.613
X118.157Y-69.913
X118.289Y-132.701
X118.39Y-135.063
X118.492Y-130.11
X118.657Y-69.313
X118.907Y-89.613
X118.907Y-90.613
X118.907Y-91.613
X118.907Y-92.613
X118.907Y-94.613
X118.907Y-95.613
X118.907Y-96.613
X118.907Y-97.613
X118.907Y-98.613
X119.157Y-69.913
X119.157Y-112.813
X119.657Y-69.313
X119.657Y-113.413
X120.157Y-72.021
X120.157Y-112.813
X120.657Y-69.313
X121.157Y-69.913
X121.157Y-112.813
X121.657Y-69.313
X122.157Y-69.913
X122.157Y-112.813
X122.657Y-69.313
X122.657Y-113.413
X123.157Y-69.913
X123.657Y-69.313
X124.157Y-69.913
X124.657Y-69.313
X124.657Y-113.413
X125.157Y-69.913
X125.157Y-112.813
X125.657Y-69.313
X126.157Y-69.913
X126.657Y-69.313
X126.657Y-113.413
X128.157Y-112.813
X128.398Y-83.863
X128.398Y-84.863
X128.398Y-87.363
X128.398Y-91.863
X128.398Y-95.363
X128.398Y-98.863
X128.398Y-100.363
X128.657Y-113.413
X129.657Y-113.413
X131.307Y-74.863
X131.307Y-75.863
X131.307Y-76.863
X131.307Y-77.863
X131.307Y-80.863
X131.307Y-81.863
X131.307Y-85.863
X131.307Y-86.863
X131.307Y-87.863
X131.307Y-89.863
X131.307Y-94.863
X131.307Y-95.863
X131.307Y-97.863
X131.307Y-99.863
X131.307Y-101.863
X131.307Y-102.863
X131.307Y-104.863
X131.307Y-105.863
X131.907Y-74.363
X131.907Y-75.363
X131.907Y-76.363
X131.907Y-78.363
X131.907Y-80.363
X131.907Y-82.363
X131.907Y-84.363
X131.907Y-85.363
X131.907Y-86.363
X131.907Y-89.363
X131.907Y-90.363
X131.907Y-92.363
X131.907Y-93.363
X131.907Y-94.363
X131.907Y-96.363
X131.907Y-97.363
X131.907Y-98.363
X131.907Y-101.363
X131.907Y-102.363
X131.907Y-103.363
X132.132Y-149.541
X132.742Y-157.212
X145.772Y-50.735
X147.143Y-51.269
X149.582Y-51.218
X152.223Y-51.243
X155.627Y-51.294
X159.691Y-51.193
X161.672Y-177.507
X161.697Y-127.291
X161.697Y-128.307
X161.697Y-129.755
X161.697Y-130.923
X161.697Y-134.225
X161.697Y-135.571
X161.697Y-136.867
X161.697Y-137.908
X161.697Y-141.21
X161.697Y-142.531
X161.697Y-143.826
X161.697Y-144.944
X161.697Y-148.297
X161.697Y-149.491
X161.697Y-150.811
X161.697Y-152.081
X161.697Y-155.231
X161.697Y-163.511
X161.697Y-164.756
X161.697Y-166.077
X161.697Y-169.226
X161.697Y-170.446
X161.697Y-171.741
X161.697Y-173.087
X161.697Y-176.288
X161.723Y-156.552
X161.748Y-157.771
X161.748Y-178.726
X161.799Y-179.996
X161.825Y-159.092
X164.796Y-51.167
X166.397Y-58.508
X175.185Y-173.138
X175.185Y-176.389
X175.21Y-171.208
X175.21Y-173.798
X175.21Y-175.729
X175.286Y-155.764
X175.312Y-141.54
X175.337Y-125.386
X175.337Y-128.028
X175.337Y-128.637
X175.337Y-138.924
X175.337Y-140.88
X175.337Y-143.496
X175.337Y-144.131
X175.337Y-160.311
X175.337Y-160.971
X175.363Y-126.046
X175.388Y-123.456
X175.388Y-157.695
X175.388Y-158.355
X177.369Y-129.171
X177.572Y-144.766
X177.674Y-161.632
X178.106Y-129.171
X178.36Y-144.741
X178.512Y-161.581
X178.817Y-129.145
X179.071Y-178.04
X179.096Y-144.741
X179.122Y-130.39
X179.274Y-145.884
X179.274Y-162.673
X179.325Y-161.606
X179.655Y-129.12
X179.808Y-144.766
X180.112Y-161.606
X180.57Y-69.176
X180.595Y-129.145
X180.595Y-144.766
X180.798Y-84.314
X180.798Y-86.88
X180.798Y-88.124
X180.824Y-161.581
X180.849Y-64.655
X180.849Y-70.497
X180.849Y-72.529
X180.849Y-73.799
X180.849Y-74.942
X180.849Y-76.339
X180.849Y-78.371
X180.849Y-79.641
X180.849Y-81.038
X180.849Y-82.435
X180.849Y-85.635
X180.849Y-91.629
X180.849Y-92.899
X180.849Y-94.169
X180.9Y-90.359
X180.976Y-61.988
X185.446Y-177.278
X185.523Y-77.837
X186.056Y-52.945
X186.107Y-78.421
X186.945Y-76.339
X187.174Y-60.895
X187.174Y-62.75
X187.174Y-63.385
X187.174Y-65.264
X187.224Y-65.975
X187.301Y-52.971
X188.545Y-52.945
X189.841Y-77.786
X189.866Y-52.971
X192.0Y-75.119
X192.177Y-75.805
X192.762Y-62.724
X194.59Y-52.767
X194.971Y-61.505
X196.038Y-52.818
X196.724Y-65.239
X197.156Y-52.818
X197.689Y-62.419
X199.29Y-79.488
X199.315Y-74.484
X200.331Y-73.9
X200.763Y-78.117
X200.94Y-52.666
X200.966Y-50.075
X200.966Y-51.421
X202.007Y-75.78
X207.519Y-96.532
X208.129Y-79.488
X208.179Y-75.78
X211.202Y-59.956
X211.964Y-71.894
X212.472Y-63.766
X213.742Y-67.576
X215.774Y-59.956
X215.774Y-63.766
X215.901Y-67.576
T2
X136.094Y-52.082
X185.04Y-29.45
X186.894Y-60.159
X187.047Y-67.271
X195.073Y-67.271
X195.556Y-76.415
X200.305Y-88.175
X201.88Y-80.276
X205.563Y-89.42
X207.849Y-89.775
X216.384Y-92.29
X217.273Y-91.325
X221.743Y-88.785
X221.794Y-90.105
X222.022Y-84.213
X226.849Y-84.162
T3
X92.217Y-70.726
X135.154Y-77.101
T4
X66.397Y-162.318
X68.327Y-144.665
X72.899Y-158.0
X75.185Y-69.023
X91.111Y-161.251
X96.165Y-160.87
X106.859Y-125.386
X111.151Y-129.145
X114.581Y-143.014
X119.178Y-143.014
X124.461Y-52.132
X128.309Y-58.617
X133.328Y-58.617
X143.663Y-41.591
X152.198Y-55.841
X157.608Y-51.218
X162.942Y-47.281
X168.809Y-41.642
X173.508Y-38.95
X173.508Y-48.551
X173.661Y-38.01
X176.175Y-120.484
X176.201Y-135.876
X176.404Y-153.478
X176.506Y-168.439
X184.71Y-170.776
X186.793Y-57.162
X191.974Y-35.445
X192.152Y-79.26
X192.508Y-81.723
X203.607Y-45.732
X204.598Y-59.829
X204.649Y-64.248
X204.725Y-53.86
X206.63Y-65.925
X209.043Y-65.544
X210.593Y-46.748
X211.862Y-46.748
X213.132Y-46.748
X214.428Y-46.748
X222.251Y-58.432
X222.505Y-79.387
X222.632Y-75.577
T5
X65.0Y-146.087
X65.025Y-144.817
X67.946Y-48.399
X68.835Y-68.769
X69.775Y-48.018
X70.08Y-146.239
X72.01Y-58.178
X73.026Y-46.494
X74.423Y-48.78
X74.626Y-57.746
X74.931Y-43.954
X74.931Y-51.193
X75.058Y-60.083
X75.312Y-45.859
X75.922Y-31.635
X76.328Y-74.688
X76.455Y-87.769
X76.861Y-31.635
X84.075Y-70.878
X84.202Y-65.29
X87.885Y-44.97
X87.885Y-50.685
X88.012Y-56.908
X88.266Y-82.638
X88.342Y-146.087
X89.485Y-74.967
X91.136Y-42.379
X91.441Y-48.78
X91.517Y-46.138
X91.695Y-62.242
X94.362Y-75.475
X96.394Y-79.641
X97.359Y-101.434
X97.613Y-104.075
X101.118Y-39.966
X102.033Y-58.0
X103.506Y-57.593
X104.166Y-39.966
X104.192Y-62.826
X105.081Y-54.393
X106.884Y-45.706
X110.11Y-45.732
X113.056Y-156.653
X113.387Y-149.11
X113.742Y-45.655
X122.861Y-156.755
X123.42Y-103.618
X123.521Y-149.059
X123.826Y-76.999
X124.588Y-104.787
X125.655Y-75.932
X140.184Y-72.478
X153.9Y-187.845
X155.449Y-187.845
X170.41Y-54.342
X178.004Y-29.069
X219.051Y-156.704
T6
X160.882Y-63.21
X160.882Y-64.62
X160.882Y-66.03
X160.882Y-67.44
X160.882Y-68.85
X160.882Y-70.26
X160.882Y-71.67
X160.882Y-73.08
X160.882Y-74.49
X160.882Y-75.9
X160.882Y-77.31
X160.882Y-78.72
X160.882Y-80.13
X160.882Y-81.54
X160.882Y-82.95
X160.882Y-84.36
X160.882Y-85.77
X160.882Y-87.18
X160.882Y-88.59
X160.882Y-90.0
X160.882Y-91.41
X160.882Y-92.82
X160.882Y-94.23
X160.882Y-95.64
X160.882Y-97.05
X160.882Y-98.46
X160.882Y-99.87
X160.882Y-101.28
X160.882Y-102.69
X160.882Y-104.1
X160.882Y-105.51
X160.882Y-106.92
X160.882Y-108.33
X160.882Y-109.74
X160.882Y-111.15
X160.882Y-112.56
T7
X129.57Y-28.971
X129.57Y-31.471
X136.37Y-28.971
X136.37Y-31.471
T8
X67.997Y-160.032
X68.251Y-154.571
X70.537Y-160.032
X70.791Y-154.571
X71.126Y-93.253
X71.126Y-95.793
X71.126Y-98.333
X71.126Y-100.873
X71.126Y-103.413
X73.666Y-93.253
X73.666Y-95.793
X73.666Y-98.333
X73.666Y-100.873
X73.666Y-103.413
X77.725Y-149.237
X77.725Y-151.777
X77.725Y-154.317
X77.725Y-156.857
X77.725Y-159.397
X78.906Y-177.431
X80.265Y-149.237
X80.265Y-151.777
X80.265Y-154.317
X80.265Y-156.857
X80.265Y-159.397
X81.395Y-177.431
X83.402Y-177.431
X85.891Y-177.431
X94.895Y-149.237
X94.895Y-151.777
X94.895Y-154.317
X94.895Y-156.857
X94.895Y-159.397
X96.077Y-177.431
X97.435Y-149.237
X97.435Y-151.777
X97.435Y-154.317
X97.435Y-156.857
X97.435Y-159.397
X98.566Y-177.431
X100.572Y-177.431
X103.062Y-177.431
X104.344Y-167.169
X104.344Y-169.709
X106.884Y-167.169
X106.884Y-169.709
X109.424Y-167.169
X109.424Y-169.709
X120.854Y-128.383
X120.854Y-130.923
X120.854Y-133.463
X120.854Y-136.003
X120.854Y-138.543
X123.394Y-128.383
X123.394Y-130.923
X123.394Y-133.463
X123.394Y-136.003
X123.394Y-138.543
X134.189Y-38.112
X136.729Y-38.112
X139.269Y-38.112
X170.455Y-59.655
X170.455Y-62.195
X170.455Y-64.735
X170.455Y-67.275
X170.455Y-69.815
X170.455Y-72.355
X170.455Y-74.895
X170.455Y-77.435
X170.455Y-79.975
X170.455Y-82.515
X170.455Y-85.055
X170.455Y-87.595
X170.455Y-90.135
X170.455Y-92.675
X170.455Y-95.215
X170.455Y-97.755
X170.455Y-100.295
X170.455Y-102.835
X170.455Y-105.375
X170.455Y-107.915
X172.995Y-59.655
X172.995Y-62.195
X172.995Y-64.735
X172.995Y-67.275
X172.995Y-69.815
X172.995Y-72.355
X172.995Y-74.895
X172.995Y-77.435
X172.995Y-79.975
X172.995Y-82.515
X172.995Y-85.055
X172.995Y-87.595
X172.995Y-90.135
X172.995Y-92.675
X172.995Y-95.215
X172.995Y-97.755
X172.995Y-100.295
X172.995Y-102.835
X172.995Y-105.375
X172.995Y-107.915
X192.406Y-92.214
X192.406Y-94.754
X192.406Y-97.294
X192.406Y-99.834
X192.406Y-102.374
X192.406Y-104.914
X192.406Y-107.454
X194.946Y-92.214
X194.946Y-94.754
X194.946Y-97.294
X194.946Y-99.834
X194.946Y-102.374
X194.946Y-104.914
X194.946Y-107.454
X206.325Y-126.3
X206.325Y-128.84
X206.325Y-131.38
X206.325Y-133.92
X206.325Y-136.46
X206.325Y-139.0
X206.325Y-141.54
X206.325Y-144.08
X206.325Y-146.62
X206.325Y-149.16
X206.325Y-151.7
X206.325Y-154.24
X206.325Y-156.78
X206.325Y-159.32
X206.325Y-161.86
X206.325Y-164.4
X206.325Y-166.94
X206.325Y-169.48
X206.325Y-172.02
X206.325Y-174.56
X208.865Y-126.3
X208.865Y-128.84
X208.865Y-131.38
X208.865Y-133.92
X208.865Y-136.46
X208.865Y-139.0
X208.865Y-141.54
X208.865Y-144.08
X208.865Y-146.62
X208.865Y-149.16
X208.865Y-151.7
X208.865Y-154.24
X208.865Y-156.78
X208.865Y-159.32
X208.865Y-161.86
X208.865Y-164.4
X208.865Y-166.94
X208.865Y-169.48
X208.865Y-172.02
X208.865Y-174.56
T9
X103.38Y-33.489
X104.52Y-30.949
X104.52Y-36.029
X105.67Y-33.489
X106.81Y-30.949
X106.81Y-36.029
X107.96Y-33.489
X109.1Y-30.949
X109.1Y-36.029
X110.25Y-33.489
X111.39Y-30.949
X111.39Y-36.029
X112.54Y-33.489
X113.68Y-30.949
X113.68Y-36.029
X128.931Y-69.506
X131.471Y-69.506
X134.011Y-69.506
X136.552Y-69.506
X181.027Y-33.54
X182.398Y-31.0
X183.77Y-33.54
X185.142Y-31.0
X186.513Y-33.54
X187.885Y-31.0
X189.256Y-33.54
X190.628Y-31.0
X192.0Y-33.54
X210.643Y-107.885
X212.015Y-110.73
X212.32Y-33.54
X213.386Y-107.885
X213.691Y-31.0
X214.758Y-110.73
X215.063Y-33.54
X216.13Y-107.885
X216.434Y-31.0
X217.501Y-110.73
X217.806Y-33.54
X218.873Y-107.885
X219.178Y-31.0
X220.244Y-110.73
X220.549Y-33.54
X221.616Y-107.885
X221.921Y-31.0
X223.292Y-33.54
T10
X76.225Y-22.623
X76.825Y-27.523
X91.325Y-27.523
X91.925Y-22.623
T11
X67.969Y-169.323
X70.369Y-167.323
X74.069Y-169.323
X75.869Y-167.323
X79.569Y-169.323
T12
X67.108Y-22.973
X71.068Y-22.973
T13
X126.23Y-25.971
X132.97Y-25.181
X139.71Y-25.971
T14
X75.833Y-180.148
X88.965Y-180.148
X93.003Y-180.148
X106.135Y-180.148
T15
X96.34Y-33.489
X121.34Y-33.489
X173.991Y-32.27
X199.035Y-32.27
X205.284Y-32.27
X230.328Y-32.27
T16
X69.851Y-30.164
X69.851Y-185.104
X127.484Y-43.27
X130.049Y-165.01
X182.943Y-110.603
X227.331Y-53.024
X227.331Y-185.104
M30
