%TF.GenerationSoftware,KiCad,Pcbnew,9.0.7*%
%TF.CreationDate,2026-08-08T12:24:42+02:00*%
%TF.ProjectId,eclaireXLv1,65636c61-6972-4655-984c-76312e6b6963,rev?*%
%TF.SameCoordinates,Original*%
%TF.FileFunction,Soldermask,Bot*%
%TF.FilePolarity,Negative*%
%FSLAX46Y46*%
G04 Gerber Fmt 4.6, Leading zero omitted, Abs format (unit mm)*
G04 Created by KiCad (PCBNEW 9.0.7) date 2026-08-08 12:24:42*
%MOMM*%
%LPD*%
G01*
G04 APERTURE LIST*
G04 Aperture macros list*
%AMRoundRect*
0 Rectangle with rounded corners*
0 $1 Rounding radius*
0 $2 $3 $4 $5 $6 $7 $8 $9 X,Y pos of 4 corners*
0 Add a 4 corners polygon primitive as box body*
4,1,4,$2,$3,$4,$5,$6,$7,$8,$9,$2,$3,0*
0 Add four circle primitives for the rounded corners*
1,1,$1+$1,$2,$3*
1,1,$1+$1,$4,$5*
1,1,$1+$1,$6,$7*
1,1,$1+$1,$8,$9*
0 Add four rect primitives between the rounded corners*
20,1,$1+$1,$2,$3,$4,$5,0*
20,1,$1+$1,$4,$5,$6,$7,0*
20,1,$1+$1,$6,$7,$8,$9,0*
20,1,$1+$1,$8,$9,$2,$3,0*%
%AMFreePoly0*
4,1,25,0.261648,0.569696,0.273771,0.559342,0.559342,0.273771,0.587849,0.217823,0.589100,0.201929,0.589100,-0.201929,0.569696,-0.261648,0.559342,-0.273771,0.273771,-0.559342,0.217823,-0.587849,0.201929,-0.589100,-0.201929,-0.589100,-0.261648,-0.569696,-0.273771,-0.559342,-0.559342,-0.273771,-0.587849,-0.217823,-0.589100,-0.201929,-0.589100,0.201929,-0.569696,0.261648,-0.559342,0.273771,
-0.273771,0.559342,-0.217823,0.587849,-0.201929,0.589100,0.201929,0.589100,0.261648,0.569696,0.261648,0.569696,$1*%
%AMFreePoly1*
4,1,25,0.343787,0.767996,0.355910,0.757642,0.757642,0.355910,0.786149,0.299962,0.787400,0.284068,0.787400,-0.284068,0.767996,-0.343787,0.757642,-0.355910,0.355910,-0.757642,0.299962,-0.786149,0.284068,-0.787400,-0.284068,-0.787400,-0.343787,-0.767996,-0.355910,-0.757642,-0.757642,-0.355910,-0.786149,-0.299962,-0.787400,-0.284068,-0.787400,0.284068,-0.767996,0.343787,-0.757642,0.355910,
-0.355910,0.757642,-0.299962,0.786149,-0.284068,0.787400,0.284068,0.787400,0.343787,0.767996,0.343787,0.767996,$1*%
%AMFreePoly2*
4,1,25,0.536065,1.232196,0.548188,1.221842,1.221842,0.548188,1.250349,0.492240,1.251600,0.476346,1.251600,-0.476346,1.232196,-0.536065,1.221842,-0.548188,0.548188,-1.221842,0.492240,-1.250349,0.476346,-1.251600,-0.476346,-1.251600,-0.536065,-1.232196,-0.548188,-1.221842,-1.221842,-0.548188,-1.250349,-0.492240,-1.251600,-0.476346,-1.251600,0.476346,-1.232196,0.536065,-1.221842,0.548188,
-0.548188,1.221842,-0.492240,1.250349,-0.476346,1.251600,0.476346,1.251600,0.536065,1.232196,0.536065,1.232196,$1*%
%AMFreePoly3*
4,1,25,0.556775,1.282196,0.568898,1.271842,1.271842,0.568898,1.300349,0.512950,1.301600,0.497056,1.301600,-0.497056,1.282196,-0.556775,1.271842,-0.568898,0.568898,-1.271842,0.512950,-1.300349,0.497056,-1.301600,-0.497056,-1.301600,-0.556775,-1.282196,-0.568898,-1.271842,-1.271842,-0.568898,-1.300349,-0.512950,-1.301600,-0.497056,-1.301600,0.497056,-1.282196,0.556775,-1.271842,0.568898,
-0.568898,1.271842,-0.512950,1.300349,-0.497056,1.301600,0.497056,1.301600,0.556775,1.282196,0.556775,1.282196,$1*%
%AMFreePoly4*
4,1,25,0.375350,0.844196,0.387473,0.833842,0.833842,0.387473,0.862349,0.331525,0.863600,0.315631,0.863600,-0.315631,0.844196,-0.375350,0.833842,-0.387473,0.387473,-0.833842,0.331525,-0.862349,0.315631,-0.863600,-0.315631,-0.863600,-0.375350,-0.844196,-0.387473,-0.833842,-0.833842,-0.387473,-0.862349,-0.331525,-0.863600,-0.315631,-0.863600,0.315631,-0.844196,0.375350,-0.833842,0.387473,
-0.387473,0.833842,-0.331525,0.862349,-0.315631,0.863600,0.315631,0.863600,0.375350,0.844196,0.375350,0.844196,$1*%
%AMFreePoly5*
4,1,25,0.618907,1.432196,0.631030,1.421842,1.421842,0.631030,1.450349,0.575082,1.451600,0.559188,1.451600,-0.559188,1.432196,-0.618907,1.421842,-0.631030,0.631030,-1.421842,0.575082,-1.450349,0.559188,-1.451600,-0.559188,-1.451600,-0.618907,-1.432196,-0.631030,-1.421842,-1.421842,-0.631030,-1.450349,-0.575082,-1.451600,-0.559188,-1.451600,0.559188,-1.432196,0.618907,-1.421842,0.631030,
-0.631030,1.421842,-0.575082,1.450349,-0.559188,1.451600,0.559188,1.451600,0.618907,1.432196,0.618907,1.432196,$1*%
%AMFreePoly6*
4,1,25,0.339313,0.757196,0.351436,0.746842,0.746842,0.351436,0.775349,0.295488,0.776600,0.279594,0.776600,-0.279594,0.757196,-0.339313,0.746842,-0.351436,0.351436,-0.746842,0.295488,-0.775349,0.279594,-0.776600,-0.279594,-0.776600,-0.339313,-0.757196,-0.351436,-0.746842,-0.746842,-0.351436,-0.775349,-0.295488,-0.776600,-0.279594,-0.776600,0.279594,-0.757196,0.339313,-0.746842,0.351436,
-0.351436,0.746842,-0.295488,0.775349,-0.279594,0.776600,0.279594,0.776600,0.339313,0.757196,0.339313,0.757196,$1*%
G04 Aperture macros list end*
%ADD10C,1.574800*%
%ADD11C,3.530600*%
%ADD12O,1.727200X3.251200*%
%ADD13FreePoly0,270.000000*%
%ADD14FreePoly1,270.000000*%
%ADD15FreePoly2,90.000000*%
%ADD16FreePoly3,90.000000*%
%ADD17O,2.153200X4.103200*%
%ADD18C,6.045200*%
%ADD19FreePoly1,0.000000*%
%ADD20C,3.302000*%
%ADD21FreePoly4,0.000000*%
%ADD22C,2.082800*%
%ADD23C,5.283200*%
%ADD24FreePoly5,0.000000*%
%ADD25O,1.574800X2.946400*%
%ADD26FreePoly6,180.000000*%
%ADD27C,3.419200*%
%ADD28FreePoly4,180.000000*%
%ADD29RoundRect,0.101600X0.750000X-0.650000X0.750000X0.650000X-0.750000X0.650000X-0.750000X-0.650000X0*%
%ADD30RoundRect,0.101600X-0.750000X0.650000X-0.750000X-0.650000X0.750000X-0.650000X0.750000X0.650000X0*%
G04 APERTURE END LIST*
D10*
%TO.C,X3*%
X100572400Y-177430600D03*
X98565800Y-177430600D03*
X103061600Y-177430600D03*
D11*
X106135000Y-180148400D03*
X93003200Y-180148400D03*
D10*
X96076600Y-177430600D03*
%TD*%
D12*
%TO.C,UNK3.3/2.5/1.1/GND0*%
X128931500Y-69506000D03*
X131471500Y-69506000D03*
X134011500Y-69506000D03*
X136551500Y-69506000D03*
%TD*%
D13*
%TO.C,U$5*%
X160882100Y-63210200D03*
X160882100Y-64620200D03*
X160882100Y-66030200D03*
X160882100Y-67440200D03*
X160882100Y-68850200D03*
X160882100Y-70260200D03*
X160882100Y-71670200D03*
X160882100Y-73080200D03*
X160882100Y-74490200D03*
X160882100Y-75900200D03*
X160882100Y-77310200D03*
X160882100Y-78720200D03*
X160882100Y-80130200D03*
X160882100Y-81540200D03*
X160882100Y-82950200D03*
X160882100Y-84360200D03*
X160882100Y-85770200D03*
X160882100Y-87180200D03*
X160882100Y-88590200D03*
X160882100Y-90000200D03*
X160882100Y-91410200D03*
X160882100Y-92820200D03*
X160882100Y-94230200D03*
X160882100Y-95640200D03*
X160882100Y-97050200D03*
X160882100Y-98460200D03*
X160882100Y-99870200D03*
X160882100Y-101280200D03*
X160882100Y-102690200D03*
X160882100Y-104100200D03*
X160882100Y-105510200D03*
X160882100Y-106920200D03*
X160882100Y-108330200D03*
X160882100Y-109740200D03*
X160882100Y-111150200D03*
X160882100Y-112560200D03*
%TD*%
D14*
%TO.C,S.I.O._INTERFACE0*%
X120854300Y-128383200D03*
X123394300Y-128383200D03*
X120854300Y-130923200D03*
X123394300Y-130923200D03*
X120854300Y-133463200D03*
X123394300Y-133463200D03*
X120854300Y-136003200D03*
X123394300Y-136003200D03*
X120854300Y-138543200D03*
X123394300Y-138543200D03*
%TD*%
D15*
%TO.C,J3*%
X67968900Y-169323000D03*
X70368900Y-167323000D03*
X75868900Y-167323000D03*
X79568900Y-169323000D03*
D16*
X74068900Y-169323000D03*
%TD*%
D17*
%TO.C,HDMI0*%
X76825100Y-27522600D03*
X91325100Y-27522600D03*
X91925100Y-22622600D03*
X76225100Y-22622600D03*
%TD*%
D18*
%TO.C,H5*%
X127483700Y-43270000D03*
%TD*%
D19*
%TO.C,MIC_IN_SEL0*%
X104344300Y-169709000D03*
X104344300Y-167169000D03*
X106884300Y-169709000D03*
X106884300Y-167169000D03*
X109424300Y-169709000D03*
X109424300Y-167169000D03*
%TD*%
D14*
%TO.C,P.B.I._INTERFACE0*%
X206325300Y-126300400D03*
X208865300Y-126300400D03*
X206325300Y-128840400D03*
X208865300Y-128840400D03*
X206325300Y-131380400D03*
X208865300Y-131380400D03*
X206325300Y-133920400D03*
X208865300Y-133920400D03*
X206325300Y-136460400D03*
X208865300Y-136460400D03*
X206325300Y-139000400D03*
X208865300Y-139000400D03*
X206325300Y-141540400D03*
X208865300Y-141540400D03*
X206325300Y-144080400D03*
X208865300Y-144080400D03*
X206325300Y-146620400D03*
X208865300Y-146620400D03*
X206325300Y-149160400D03*
X208865300Y-149160400D03*
X206325300Y-151700400D03*
X208865300Y-151700400D03*
X206325300Y-154240400D03*
X208865300Y-154240400D03*
X206325300Y-156780400D03*
X208865300Y-156780400D03*
X206325300Y-159320400D03*
X208865300Y-159320400D03*
X206325300Y-161860400D03*
X208865300Y-161860400D03*
X206325300Y-164400400D03*
X208865300Y-164400400D03*
X206325300Y-166940400D03*
X208865300Y-166940400D03*
X206325300Y-169480400D03*
X208865300Y-169480400D03*
X206325300Y-172020400D03*
X208865300Y-172020400D03*
X206325300Y-174560400D03*
X208865300Y-174560400D03*
%TD*%
%TO.C,USB_A_B0*%
X77725100Y-149236600D03*
X80265100Y-149236600D03*
X77725100Y-151776600D03*
X80265100Y-151776600D03*
X77725100Y-154316600D03*
X80265100Y-154316600D03*
X77725100Y-156856600D03*
X80265100Y-156856600D03*
X77725100Y-159396600D03*
X80265100Y-159396600D03*
%TD*%
%TO.C,GPIO_A0*%
X170455300Y-59655400D03*
X172995300Y-59655400D03*
X170455300Y-62195400D03*
X172995300Y-62195400D03*
X170455300Y-64735400D03*
X172995300Y-64735400D03*
X170455300Y-67275400D03*
X172995300Y-67275400D03*
X170455300Y-69815400D03*
X172995300Y-69815400D03*
X170455300Y-72355400D03*
X172995300Y-72355400D03*
X170455300Y-74895400D03*
X172995300Y-74895400D03*
X170455300Y-77435400D03*
X172995300Y-77435400D03*
X170455300Y-79975400D03*
X172995300Y-79975400D03*
X170455300Y-82515400D03*
X172995300Y-82515400D03*
X170455300Y-85055400D03*
X172995300Y-85055400D03*
X170455300Y-87595400D03*
X172995300Y-87595400D03*
X170455300Y-90135400D03*
X172995300Y-90135400D03*
X170455300Y-92675400D03*
X172995300Y-92675400D03*
X170455300Y-95215400D03*
X172995300Y-95215400D03*
X170455300Y-97755400D03*
X172995300Y-97755400D03*
X170455300Y-100295400D03*
X172995300Y-100295400D03*
X170455300Y-102835400D03*
X172995300Y-102835400D03*
X170455300Y-105375400D03*
X172995300Y-105375400D03*
X170455300Y-107915400D03*
X172995300Y-107915400D03*
%TD*%
%TO.C,AC97_AUDIO0*%
X94895500Y-149236600D03*
X97435500Y-149236600D03*
X94895500Y-151776600D03*
X97435500Y-151776600D03*
X94895500Y-154316600D03*
X97435500Y-154316600D03*
X94895500Y-156856600D03*
X97435500Y-156856600D03*
X94895500Y-159396600D03*
X97435500Y-159396600D03*
%TD*%
D20*
%TO.C,X2*%
X203607500Y-109307800D03*
X228651900Y-109307800D03*
D21*
X221616100Y-107885400D03*
X218872900Y-107885400D03*
X216129700Y-107885400D03*
X213386500Y-107885400D03*
X210643300Y-107885400D03*
X220244500Y-110730200D03*
X217501300Y-110730200D03*
X214758100Y-110730200D03*
X212014900Y-110730200D03*
%TD*%
D10*
%TO.C,X1*%
X83402000Y-177430600D03*
X81395400Y-177430600D03*
X85891200Y-177430600D03*
D11*
X88964600Y-180148400D03*
X75832800Y-180148400D03*
D10*
X78906200Y-177430600D03*
%TD*%
D22*
%TO.C,VGA0*%
X104520100Y-36028800D03*
X106810100Y-36028800D03*
X109100100Y-36028800D03*
X111390100Y-36028800D03*
X113680100Y-36028800D03*
X103380100Y-33488800D03*
X105670100Y-33488800D03*
X107960100Y-33488800D03*
X110250100Y-33488800D03*
X112540100Y-33488800D03*
X104520100Y-30948800D03*
X106810100Y-30948800D03*
X109100100Y-30948800D03*
X111390100Y-30948800D03*
X113680100Y-30948800D03*
D23*
X96340100Y-33488800D03*
X121340100Y-33488800D03*
%TD*%
D18*
%TO.C,H7*%
X182943300Y-110603200D03*
%TD*%
%TO.C,H6*%
X130049100Y-165010000D03*
%TD*%
D24*
%TO.C,U$6*%
X67107900Y-22973200D03*
X71067900Y-22973200D03*
%TD*%
D18*
%TO.C,H4*%
X227331100Y-185103600D03*
%TD*%
D25*
%TO.C,RESET0*%
X70536900Y-160031600D03*
X67996900Y-160031600D03*
%TD*%
D26*
%TO.C,S-VIDEO_COMP0*%
X129570100Y-28971300D03*
X136370100Y-28971300D03*
X129570100Y-31471300D03*
X136370100Y-31471300D03*
D27*
X139710100Y-25971300D03*
X132970100Y-25181300D03*
X126230100Y-25971300D03*
%TD*%
D28*
%TO.C,JOY1*%
X191999700Y-33539600D03*
X189256500Y-33539600D03*
X186513300Y-33539600D03*
X183770100Y-33539600D03*
X181026900Y-33539600D03*
X190628100Y-30999600D03*
X187884900Y-30999600D03*
X185141700Y-30999600D03*
X182398500Y-30999600D03*
D23*
X199035500Y-32269600D03*
X173991100Y-32269600D03*
%TD*%
D28*
%TO.C,JOY2*%
X223292500Y-33539600D03*
X220549300Y-33539600D03*
X217806100Y-33539600D03*
X215062900Y-33539600D03*
X212319700Y-33539600D03*
X221920900Y-30999600D03*
X219177700Y-30999600D03*
X216434500Y-30999600D03*
X213691300Y-30999600D03*
D23*
X230328300Y-32269600D03*
X205283900Y-32269600D03*
%TD*%
D18*
%TO.C,H2*%
X227331100Y-53023600D03*
%TD*%
D14*
%TO.C,JTAG0*%
X71126500Y-93253000D03*
X73666500Y-93253000D03*
X71126500Y-95793000D03*
X73666500Y-95793000D03*
X71126500Y-98333000D03*
X73666500Y-98333000D03*
X71126500Y-100873000D03*
X73666500Y-100873000D03*
X71126500Y-103413000D03*
X73666500Y-103413000D03*
%TD*%
D25*
%TO.C,JP2*%
X134189300Y-38111600D03*
X136729300Y-38111600D03*
X139269300Y-38111600D03*
%TD*%
D18*
%TO.C,H3*%
X69851100Y-185103600D03*
%TD*%
D25*
%TO.C,RESET_LED0*%
X68250900Y-154570600D03*
X70790900Y-154570600D03*
%TD*%
D14*
%TO.C,GPIO_B0*%
X192406100Y-92213600D03*
X194946100Y-92213600D03*
X192406100Y-94753600D03*
X194946100Y-94753600D03*
X192406100Y-97293600D03*
X194946100Y-97293600D03*
X192406100Y-99833600D03*
X194946100Y-99833600D03*
X192406100Y-102373600D03*
X194946100Y-102373600D03*
X192406100Y-104913600D03*
X194946100Y-104913600D03*
X192406100Y-107453600D03*
X194946100Y-107453600D03*
%TD*%
D18*
%TO.C,H1*%
X69851100Y-30163600D03*
%TD*%
D29*
%TO.C,C48*%
X96104300Y-77882400D03*
X96104300Y-75982400D03*
%TD*%
D30*
%TO.C,C50*%
X95617100Y-102328400D03*
X95617100Y-104228400D03*
%TD*%
%TO.C,C42*%
X123265500Y-79316000D03*
X123265500Y-81216000D03*
%TD*%
%TO.C,C46*%
X109383900Y-90085600D03*
X109383900Y-91985600D03*
%TD*%
D29*
%TO.C,C51*%
X89195500Y-100590000D03*
X89195500Y-98690000D03*
%TD*%
D30*
%TO.C,C47*%
X99808100Y-82364000D03*
X99808100Y-84264000D03*
%TD*%
%TO.C,C43*%
X120585300Y-82313200D03*
X120585300Y-84213200D03*
%TD*%
%TO.C,C44*%
X118121500Y-82211600D03*
X118121500Y-84111600D03*
%TD*%
%TO.C,C49*%
X121692500Y-100890200D03*
X121692500Y-102790200D03*
%TD*%
%TO.C,C45*%
X112304900Y-88256800D03*
X112304900Y-90156800D03*
%TD*%
M02*
