%TF.GenerationSoftware,KiCad,Pcbnew,9.0.7*%
%TF.CreationDate,2026-08-08T12:24:42+02:00*%
%TF.ProjectId,eclaireXLv1,65636c61-6972-4655-984c-76312e6b6963,rev?*%
%TF.SameCoordinates,Original*%
%TF.FileFunction,Paste,Top*%
%TF.FilePolarity,Positive*%
%FSLAX46Y46*%
G04 Gerber Fmt 4.6, Leading zero omitted, Abs format (unit mm)*
G04 Created by KiCad (PCBNEW 9.0.7) date 2026-08-08 12:24:42*
%MOMM*%
%LPD*%
G01*
G04 APERTURE LIST*
G04 Aperture macros list*
%AMRoundRect*
0 Rectangle with rounded corners*
0 $1 Rounding radius*
0 $2 $3 $4 $5 $6 $7 $8 $9 X,Y pos of 4 corners*
0 Add a 4 corners polygon primitive as box body*
4,1,4,$2,$3,$4,$5,$6,$7,$8,$9,$2,$3,0*
0 Add four circle primitives for the rounded corners*
1,1,$1+$1,$2,$3*
1,1,$1+$1,$4,$5*
1,1,$1+$1,$6,$7*
1,1,$1+$1,$8,$9*
0 Add four rect primitives between the rounded corners*
20,1,$1+$1,$2,$3,$4,$5,0*
20,1,$1+$1,$4,$5,$6,$7,0*
20,1,$1+$1,$6,$7,$8,$9,0*
20,1,$1+$1,$8,$9,$2,$3,0*%
G04 Aperture macros list end*
%ADD10R,1.600000X0.350000*%
%ADD11R,1.200000X1.200000*%
%ADD12R,1.500000X1.300000*%
%ADD13R,1.200000X0.800000*%
%ADD14R,1.300000X1.600000*%
%ADD15R,1.600000X1.300000*%
%ADD16R,0.300000X2.600000*%
%ADD17R,1.300000X1.500000*%
%ADD18R,1.600000X0.800000*%
%ADD19R,1.000000X1.400000*%
%ADD20R,0.965200X1.930400*%
%ADD21R,1.930400X3.810000*%
%ADD22R,1.600000X1.803000*%
%ADD23R,0.990600X0.304800*%
%ADD24R,1.600000X1.800000*%
%ADD25R,1.600000X2.200000*%
%ADD26R,1.320800X0.558800*%
%ADD27R,0.279400X1.473200*%
%ADD28R,1.473200X0.279400*%
%ADD29R,3.505200X3.505200*%
%ADD30R,0.800000X1.200000*%
%ADD31R,1.300000X3.300000*%
%ADD32R,2.032000X0.660400*%
%ADD33R,1.981200X0.558800*%
%ADD34R,0.558800X1.981200*%
%ADD35RoundRect,0.190000X-0.000010X-0.000010X0.000010X-0.000010X0.000010X0.000010X-0.000010X0.000010X0*%
%ADD36R,0.800000X1.600000*%
%ADD37R,1.600000X0.400000*%
%ADD38R,1.803000X1.600000*%
G04 APERTURE END LIST*
D10*
%TO.C,LM339*%
X188285300Y-75175200D03*
X188285300Y-75825200D03*
X188285300Y-76475200D03*
X188285300Y-77125200D03*
X188285300Y-77775200D03*
X188285300Y-78425200D03*
X188285300Y-79075200D03*
X193885300Y-79025200D03*
X193885300Y-78375200D03*
X193885300Y-77725200D03*
X193885300Y-77075200D03*
X193885300Y-76425200D03*
X193885300Y-75775200D03*
X193885300Y-75125200D03*
%TD*%
D11*
%TO.C,UNK3V3*%
X69309100Y-111619200D03*
X71409100Y-111619200D03*
%TD*%
D12*
%TO.C,C18*%
X88128700Y-80727200D03*
X88128700Y-78827200D03*
%TD*%
%TO.C,R28*%
X83329100Y-142947600D03*
X83329100Y-141047600D03*
%TD*%
D13*
%TO.C,RN28*%
X181990800Y-96337200D03*
X181990800Y-97607200D03*
X181990800Y-98877200D03*
X181990800Y-100147200D03*
X183895800Y-100147200D03*
X183895800Y-98877200D03*
X183895800Y-97607200D03*
X183895800Y-96337200D03*
%TD*%
D12*
%TO.C,C26*%
X121336900Y-156897200D03*
X121336900Y-158797200D03*
%TD*%
D14*
%TO.C,R53*%
X217613100Y-166432400D03*
X215713100Y-166432400D03*
%TD*%
D13*
%TO.C,RN31*%
X163718000Y-134204000D03*
X163718000Y-135474000D03*
X163718000Y-136744000D03*
X163718000Y-138014000D03*
X165623000Y-138014000D03*
X165623000Y-136744000D03*
X165623000Y-135474000D03*
X165623000Y-134204000D03*
%TD*%
D14*
%TO.C,C29*%
X218888900Y-59854000D03*
X220888900Y-59854000D03*
%TD*%
D12*
%TO.C,C23*%
X121336900Y-151380400D03*
X121336900Y-149480400D03*
%TD*%
%TO.C,R25*%
X71187900Y-141047600D03*
X71187900Y-142947600D03*
%TD*%
%TO.C,R30*%
X91253900Y-142947600D03*
X91253900Y-141047600D03*
%TD*%
%TO.C,C10*%
X101129100Y-44395600D03*
X101129100Y-42495600D03*
%TD*%
D15*
%TO.C,R25A0*%
X68454100Y-141047600D03*
X68454100Y-142947600D03*
%TD*%
D16*
%TO.C,HDMI0*%
X79325100Y-28522600D03*
X79825100Y-28522600D03*
X80325100Y-28522600D03*
X80825100Y-28522600D03*
X81325100Y-28522600D03*
X81825100Y-28522600D03*
X82325100Y-28522600D03*
X82825100Y-28522600D03*
X83325100Y-28522600D03*
X83825100Y-28522600D03*
X84325100Y-28522600D03*
X84825100Y-28522600D03*
X85325100Y-28522600D03*
X85825100Y-28522600D03*
X86325100Y-28522600D03*
X86825100Y-28522600D03*
X87325100Y-28522600D03*
X87825100Y-28522600D03*
X88325100Y-28522600D03*
%TD*%
D13*
%TO.C,RN22*%
X181990800Y-60777200D03*
X181990800Y-62047200D03*
X181990800Y-63317200D03*
X181990800Y-64587200D03*
X183895800Y-64587200D03*
X183895800Y-63317200D03*
X183895800Y-62047200D03*
X183895800Y-60777200D03*
%TD*%
D12*
%TO.C,C9*%
X82551100Y-61845400D03*
X82551100Y-59945400D03*
%TD*%
D11*
%TO.C,RX0*%
X228313100Y-85736600D03*
X230413100Y-85736600D03*
%TD*%
D13*
%TO.C,RN26*%
X181990800Y-84348400D03*
X181990800Y-85618400D03*
X181990800Y-86888400D03*
X181990800Y-88158400D03*
X183895800Y-88158400D03*
X183895800Y-86888400D03*
X183895800Y-85618400D03*
X183895800Y-84348400D03*
%TD*%
D15*
%TO.C,R44*%
X223343300Y-38706000D03*
X223343300Y-36806000D03*
%TD*%
D12*
%TO.C,C13*%
X110273100Y-57146400D03*
X110273100Y-55246400D03*
%TD*%
D14*
%TO.C,R49*%
X230440100Y-91908800D03*
X228540100Y-91908800D03*
%TD*%
%TO.C,C32*%
X218914300Y-71512600D03*
X220914300Y-71512600D03*
%TD*%
D13*
%TO.C,RN7*%
X178880600Y-48830400D03*
X178880600Y-50100400D03*
X178880600Y-51370400D03*
X178880600Y-52640400D03*
X180785600Y-52640400D03*
X180785600Y-51370400D03*
X180785600Y-50100400D03*
X180785600Y-48830400D03*
%TD*%
D12*
%TO.C,R32*%
X98899300Y-142947600D03*
X98899300Y-141047600D03*
%TD*%
D13*
%TO.C,RN13*%
X163790400Y-60777200D03*
X163790400Y-62047200D03*
X163790400Y-63317200D03*
X163790400Y-64587200D03*
X165695400Y-64587200D03*
X165695400Y-63317200D03*
X165695400Y-62047200D03*
X165695400Y-60777200D03*
%TD*%
D17*
%TO.C,C16*%
X71339500Y-70725200D03*
X73239500Y-70725200D03*
%TD*%
D14*
%TO.C,C41*%
X180248900Y-168743800D03*
X178248900Y-168743800D03*
%TD*%
%TO.C,C20*%
X111491100Y-125309800D03*
X109491100Y-125309800D03*
%TD*%
%TO.C,R55*%
X217613100Y-174052400D03*
X215713100Y-174052400D03*
%TD*%
%TO.C,R19*%
X71436100Y-82155200D03*
X69536100Y-82155200D03*
%TD*%
%TO.C,R52*%
X217613100Y-163181200D03*
X215713100Y-163181200D03*
%TD*%
%TO.C,C33*%
X204048700Y-85736600D03*
X202048700Y-85736600D03*
%TD*%
D15*
%TO.C,R39*%
X125400900Y-154936400D03*
X125400900Y-153036400D03*
%TD*%
D14*
%TO.C,R15*%
X82542100Y-74274600D03*
X84442100Y-74274600D03*
%TD*%
%TO.C,C28*%
X188129500Y-57415600D03*
X190129500Y-57415600D03*
%TD*%
D18*
%TO.C,D3*%
X166370500Y-183907600D03*
X162970500Y-183907600D03*
%TD*%
D19*
%TO.C,TR2*%
X108169500Y-143097600D03*
X109119500Y-140897600D03*
X110069500Y-143097600D03*
%TD*%
D14*
%TO.C,R20*%
X71436100Y-84695200D03*
X69536100Y-84695200D03*
%TD*%
D12*
%TO.C,C6*%
X89282100Y-43003600D03*
X89282100Y-44903600D03*
%TD*%
%TO.C,C3*%
X72518100Y-43296200D03*
X72518100Y-45196200D03*
%TD*%
D20*
%TO.C,SD0*%
X149610900Y-49478000D03*
X152210900Y-49478000D03*
X153710900Y-49478000D03*
X155560900Y-49478000D03*
X157260900Y-49478000D03*
X159760900Y-49478000D03*
X162260900Y-49478000D03*
X164760900Y-49478000D03*
X166460900Y-49478000D03*
X169660900Y-49478000D03*
X147160900Y-49478000D03*
D21*
X141872900Y-41178000D03*
X170548900Y-41178000D03*
%TD*%
D17*
%TO.C,C17*%
X80097500Y-74281200D03*
X78197500Y-74281200D03*
%TD*%
D13*
%TO.C,RN5*%
X130849200Y-130262800D03*
X130849200Y-128992800D03*
X130849200Y-127722800D03*
X130849200Y-126452800D03*
X128944200Y-126452800D03*
X128944200Y-127722800D03*
X128944200Y-128992800D03*
X128944200Y-130262800D03*
%TD*%
D22*
%TO.C,PF1*%
X67645500Y-40983400D03*
X70489500Y-40983400D03*
%TD*%
D17*
%TO.C,R1*%
X64964100Y-45604600D03*
X66864100Y-45604600D03*
%TD*%
D14*
%TO.C,C35*%
X204048700Y-92645400D03*
X202048700Y-92645400D03*
%TD*%
D12*
%TO.C,R29*%
X87088300Y-141047600D03*
X87088300Y-142947600D03*
%TD*%
D17*
%TO.C,R24*%
X71309100Y-126859200D03*
X69409100Y-126859200D03*
%TD*%
%TO.C,R46*%
X220864300Y-79285000D03*
X218964300Y-79285000D03*
%TD*%
D23*
%TO.C,QS3384*%
X107573300Y-128389600D03*
X107573300Y-129039600D03*
X107573300Y-129689600D03*
X107573300Y-130339600D03*
X107573300Y-130989600D03*
X107573300Y-131639600D03*
X107573300Y-132289600D03*
X107573300Y-132939600D03*
X107573300Y-133589600D03*
X107573300Y-134239600D03*
X107573300Y-134889600D03*
X107573300Y-135539600D03*
X113408900Y-135539600D03*
X113408900Y-134889600D03*
X113408900Y-134239600D03*
X113408900Y-133589600D03*
X113408900Y-132939600D03*
X113408900Y-132289600D03*
X113408900Y-131639600D03*
X113408900Y-130989600D03*
X113408900Y-130339600D03*
X113408900Y-129689600D03*
X113408900Y-129039600D03*
X113408900Y-128389600D03*
%TD*%
D14*
%TO.C,C38*%
X180248900Y-120839400D03*
X178248900Y-120839400D03*
%TD*%
D13*
%TO.C,RN3*%
X101055000Y-125690800D03*
X101055000Y-126960800D03*
X101055000Y-128230800D03*
X101055000Y-129500800D03*
X102960000Y-129500800D03*
X102960000Y-128230800D03*
X102960000Y-126960800D03*
X102960000Y-125690800D03*
%TD*%
D24*
%TO.C,C24*%
X104468300Y-157847200D03*
X107268300Y-157847200D03*
%TD*%
D14*
%TO.C,R47*%
X225487100Y-88657600D03*
X223587100Y-88657600D03*
%TD*%
D23*
%TO.C,IC2*%
X176331100Y-138295600D03*
X176331100Y-138945600D03*
X176331100Y-139595600D03*
X176331100Y-140245600D03*
X176331100Y-140895600D03*
X176331100Y-141545600D03*
X176331100Y-142195600D03*
X176331100Y-142845600D03*
X176331100Y-143495600D03*
X176331100Y-144145600D03*
X176331100Y-144795600D03*
X176331100Y-145445600D03*
X182166700Y-145445600D03*
X182166700Y-144795600D03*
X182166700Y-144145600D03*
X182166700Y-143495600D03*
X182166700Y-142845600D03*
X182166700Y-142195600D03*
X182166700Y-141545600D03*
X182166700Y-140895600D03*
X182166700Y-140245600D03*
X182166700Y-139595600D03*
X182166700Y-138945600D03*
X182166700Y-138295600D03*
%TD*%
D13*
%TO.C,RN12*%
X200953200Y-64222800D03*
X200953200Y-65492800D03*
X200953200Y-66762800D03*
X200953200Y-68032800D03*
X202858200Y-68032800D03*
X202858200Y-66762800D03*
X202858200Y-65492800D03*
X202858200Y-64222800D03*
%TD*%
%TO.C,RN35*%
X163718000Y-162204000D03*
X163718000Y-163474000D03*
X163718000Y-164744000D03*
X163718000Y-166014000D03*
X165623000Y-166014000D03*
X165623000Y-164744000D03*
X165623000Y-163474000D03*
X165623000Y-162204000D03*
%TD*%
D14*
%TO.C,R18*%
X71436100Y-79615200D03*
X69536100Y-79615200D03*
%TD*%
D12*
%TO.C,C11*%
X104181300Y-42495600D03*
X104181300Y-44395600D03*
%TD*%
%TO.C,C8*%
X89409100Y-54814600D03*
X89409100Y-56714600D03*
%TD*%
%TO.C,C15*%
X115784900Y-57146400D03*
X115784900Y-55246400D03*
%TD*%
D25*
%TO.C,L2*%
X82675100Y-49541600D03*
X85475100Y-49541600D03*
%TD*%
D17*
%TO.C,R23*%
X69409100Y-120763200D03*
X71309100Y-120763200D03*
%TD*%
D14*
%TO.C,C29A0*%
X206646100Y-59854000D03*
X208646100Y-59854000D03*
%TD*%
D15*
%TO.C,R33*%
X102210700Y-142947600D03*
X102210700Y-141047600D03*
%TD*%
%TO.C,R42*%
X160910100Y-54154200D03*
X160910100Y-56054200D03*
%TD*%
%TO.C,R8*%
X113549700Y-44395600D03*
X113549700Y-42495600D03*
%TD*%
D14*
%TO.C,C36*%
X204048700Y-96099800D03*
X202048700Y-96099800D03*
%TD*%
D15*
%TO.C,R7*%
X110425500Y-44395600D03*
X110425500Y-42495600D03*
%TD*%
D13*
%TO.C,RN16*%
X163790400Y-78455600D03*
X163790400Y-79725600D03*
X163790400Y-80995600D03*
X163790400Y-82265600D03*
X165695400Y-82265600D03*
X165695400Y-80995600D03*
X165695400Y-79725600D03*
X165695400Y-78455600D03*
%TD*%
D14*
%TO.C,C39*%
X180248900Y-136435000D03*
X178248900Y-136435000D03*
%TD*%
D17*
%TO.C,R45*%
X218964300Y-75398800D03*
X220864300Y-75398800D03*
%TD*%
D13*
%TO.C,RN36*%
X163718000Y-169204000D03*
X163718000Y-170474000D03*
X163718000Y-171744000D03*
X163718000Y-173014000D03*
X165623000Y-173014000D03*
X165623000Y-171744000D03*
X165623000Y-170474000D03*
X165623000Y-169204000D03*
%TD*%
D12*
%TO.C,R9*%
X116942700Y-44395600D03*
X116942700Y-42495600D03*
%TD*%
D14*
%TO.C,C30A0*%
X206646100Y-63740200D03*
X208646100Y-63740200D03*
%TD*%
D12*
%TO.C,R4*%
X85776900Y-59869200D03*
X85776900Y-61769200D03*
%TD*%
D22*
%TO.C,PF4*%
X176379100Y-38670400D03*
X179223100Y-38670400D03*
%TD*%
D13*
%TO.C,RN32*%
X163718000Y-141204000D03*
X163718000Y-142474000D03*
X163718000Y-143744000D03*
X163718000Y-145014000D03*
X165623000Y-145014000D03*
X165623000Y-143744000D03*
X165623000Y-142474000D03*
X165623000Y-141204000D03*
%TD*%
%TO.C,RN19*%
X163790400Y-96337200D03*
X163790400Y-97607200D03*
X163790400Y-98877200D03*
X163790400Y-100147200D03*
X165695400Y-100147200D03*
X165695400Y-98877200D03*
X165695400Y-97607200D03*
X165695400Y-96337200D03*
%TD*%
D14*
%TO.C,R21*%
X69510700Y-87032000D03*
X71410700Y-87032000D03*
%TD*%
D25*
%TO.C,L3*%
X82675100Y-55764600D03*
X85475100Y-55764600D03*
%TD*%
D15*
%TO.C,R43*%
X192177500Y-38706000D03*
X192177500Y-36806000D03*
%TD*%
D26*
%TO.C,UNK1.1V0*%
X76429700Y-54824800D03*
X76429700Y-55764600D03*
X76429700Y-56704400D03*
X78766500Y-56704400D03*
X78766500Y-54824800D03*
%TD*%
D13*
%TO.C,RN37*%
X163718000Y-176204000D03*
X163718000Y-177474000D03*
X163718000Y-178744000D03*
X163718000Y-180014000D03*
X165623000Y-180014000D03*
X165623000Y-178744000D03*
X165623000Y-177474000D03*
X165623000Y-176204000D03*
%TD*%
D12*
%TO.C,C2*%
X69063700Y-50674400D03*
X69063700Y-52574400D03*
%TD*%
D27*
%TO.C,VIDEODACSA0*%
X98765700Y-67553000D03*
X99248300Y-67553000D03*
X99756300Y-67553000D03*
X100264300Y-67553000D03*
X100746900Y-67553000D03*
X101254900Y-67553000D03*
X101762900Y-67553000D03*
X102270900Y-67553000D03*
X102753500Y-67553000D03*
X103261500Y-67553000D03*
X103769500Y-67553000D03*
X104252100Y-67553000D03*
D28*
X105623700Y-66181400D03*
X105623700Y-65698800D03*
X105623700Y-65190800D03*
X105623700Y-64682800D03*
X105623700Y-64200200D03*
X105623700Y-63692200D03*
X105623700Y-63184200D03*
X105623700Y-62676200D03*
X105623700Y-62193600D03*
X105623700Y-61685600D03*
X105623700Y-61177600D03*
X105623700Y-60695000D03*
D27*
X104252100Y-59323400D03*
X103769500Y-59323400D03*
X103261500Y-59323400D03*
X102753500Y-59323400D03*
X102270900Y-59323400D03*
X101762900Y-59323400D03*
X101254900Y-59323400D03*
X100746900Y-59323400D03*
X100264300Y-59323400D03*
X99756300Y-59323400D03*
X99248300Y-59323400D03*
X98765700Y-59323400D03*
D28*
X97394100Y-60695000D03*
X97394100Y-61177600D03*
X97394100Y-61685600D03*
X97394100Y-62193600D03*
X97394100Y-62676200D03*
X97394100Y-63184200D03*
X97394100Y-63692200D03*
X97394100Y-64200200D03*
X97394100Y-64682800D03*
X97394100Y-65190800D03*
X97394100Y-65698800D03*
X97394100Y-66181400D03*
D29*
X101508900Y-63438200D03*
%TD*%
D30*
%TO.C,RN9*%
X194692100Y-51687900D03*
X195962100Y-51687900D03*
X197232100Y-51687900D03*
X198502100Y-51687900D03*
X198502100Y-49782900D03*
X197232100Y-49782900D03*
X195962100Y-49782900D03*
X194692100Y-49782900D03*
%TD*%
D23*
%TO.C,IC3*%
X176331100Y-155110400D03*
X176331100Y-155760400D03*
X176331100Y-156410400D03*
X176331100Y-157060400D03*
X176331100Y-157710400D03*
X176331100Y-158360400D03*
X176331100Y-159010400D03*
X176331100Y-159660400D03*
X176331100Y-160310400D03*
X176331100Y-160960400D03*
X176331100Y-161610400D03*
X176331100Y-162260400D03*
X182166700Y-162260400D03*
X182166700Y-161610400D03*
X182166700Y-160960400D03*
X182166700Y-160310400D03*
X182166700Y-159660400D03*
X182166700Y-159010400D03*
X182166700Y-158360400D03*
X182166700Y-157710400D03*
X182166700Y-157060400D03*
X182166700Y-156410400D03*
X182166700Y-155760400D03*
X182166700Y-155110400D03*
%TD*%
D11*
%TO.C,UNK1V1*%
X69309100Y-123811200D03*
X71409100Y-123811200D03*
%TD*%
D13*
%TO.C,RN25*%
X181990800Y-78455600D03*
X181990800Y-79725600D03*
X181990800Y-80995600D03*
X181990800Y-82265600D03*
X183895800Y-82265600D03*
X183895800Y-80995600D03*
X183895800Y-79725600D03*
X183895800Y-78455600D03*
%TD*%
%TO.C,RN17*%
X163790400Y-84348400D03*
X163790400Y-85618400D03*
X163790400Y-86888400D03*
X163790400Y-88158400D03*
X165695400Y-88158400D03*
X165695400Y-86888400D03*
X165695400Y-85618400D03*
X165695400Y-84348400D03*
%TD*%
%TO.C,RN23*%
X181990800Y-66670000D03*
X181990800Y-67940000D03*
X181990800Y-69210000D03*
X181990800Y-70480000D03*
X183895800Y-70480000D03*
X183895800Y-69210000D03*
X183895800Y-67940000D03*
X183895800Y-66670000D03*
%TD*%
D12*
%TO.C,C22*%
X111405500Y-151380400D03*
X111405500Y-149480400D03*
%TD*%
%TO.C,R27*%
X79214300Y-141047600D03*
X79214300Y-142947600D03*
%TD*%
%TO.C,C7*%
X89282100Y-48591600D03*
X89282100Y-50491600D03*
%TD*%
D14*
%TO.C,C30*%
X218914300Y-63740200D03*
X220914300Y-63740200D03*
%TD*%
D30*
%TO.C,RN2*%
X84894300Y-35076300D03*
X86164300Y-35076300D03*
X87434300Y-35076300D03*
X88704300Y-35076300D03*
X88704300Y-33171300D03*
X87434300Y-33171300D03*
X86164300Y-33171300D03*
X84894300Y-33171300D03*
%TD*%
D12*
%TO.C,C14*%
X113198300Y-57146400D03*
X113198300Y-55246400D03*
%TD*%
D14*
%TO.C,R14*%
X88890900Y-70725200D03*
X90790900Y-70725200D03*
%TD*%
D13*
%TO.C,RN10*%
X202883600Y-48830400D03*
X202883600Y-50100400D03*
X202883600Y-51370400D03*
X202883600Y-52640400D03*
X204788600Y-52640400D03*
X204788600Y-51370400D03*
X204788600Y-50100400D03*
X204788600Y-48830400D03*
%TD*%
D14*
%TO.C,R35*%
X115586300Y-150430400D03*
X117486300Y-150430400D03*
%TD*%
D13*
%TO.C,RN14*%
X163790400Y-66670000D03*
X163790400Y-67940000D03*
X163790400Y-69210000D03*
X163790400Y-70480000D03*
X165695400Y-70480000D03*
X165695400Y-69210000D03*
X165695400Y-67940000D03*
X165695400Y-66670000D03*
%TD*%
D12*
%TO.C,C27*%
X123856578Y-57146400D03*
X123856578Y-55246400D03*
%TD*%
D14*
%TO.C,C31*%
X218914300Y-67626400D03*
X220914300Y-67626400D03*
%TD*%
D31*
%TO.C,XTL_50MHZ0*%
X130714059Y-57575663D03*
X135794059Y-57575663D03*
X135794059Y-48745663D03*
X130714059Y-48745663D03*
%TD*%
D30*
%TO.C,RN11*%
X210617900Y-51687900D03*
X211887900Y-51687900D03*
X213157900Y-51687900D03*
X214427900Y-51687900D03*
X214427900Y-49782900D03*
X213157900Y-49782900D03*
X211887900Y-49782900D03*
X210617900Y-49782900D03*
%TD*%
D13*
%TO.C,RN24*%
X181990800Y-72562800D03*
X181990800Y-73832800D03*
X181990800Y-75102800D03*
X181990800Y-76372800D03*
X183895800Y-76372800D03*
X183895800Y-75102800D03*
X183895800Y-73832800D03*
X183895800Y-72562800D03*
%TD*%
%TO.C,RN4*%
X101004200Y-133107600D03*
X101004200Y-134377600D03*
X101004200Y-135647600D03*
X101004200Y-136917600D03*
X102909200Y-136917600D03*
X102909200Y-135647600D03*
X102909200Y-134377600D03*
X102909200Y-133107600D03*
%TD*%
%TO.C,RN18*%
X163790400Y-90342800D03*
X163790400Y-91612800D03*
X163790400Y-92882800D03*
X163790400Y-94152800D03*
X165695400Y-94152800D03*
X165695400Y-92882800D03*
X165695400Y-91612800D03*
X165695400Y-90342800D03*
%TD*%
D14*
%TO.C,R37*%
X115586300Y-157847200D03*
X117486300Y-157847200D03*
%TD*%
D15*
%TO.C,R41*%
X157481100Y-54154200D03*
X157481100Y-56054200D03*
%TD*%
D23*
%TO.C,IC4*%
X176331100Y-170553600D03*
X176331100Y-171203600D03*
X176331100Y-171853600D03*
X176331100Y-172503600D03*
X176331100Y-173153600D03*
X176331100Y-173803600D03*
X176331100Y-174453600D03*
X176331100Y-175103600D03*
X176331100Y-175753600D03*
X176331100Y-176403600D03*
X176331100Y-177053600D03*
X176331100Y-177703600D03*
X182166700Y-177703600D03*
X182166700Y-177053600D03*
X182166700Y-176403600D03*
X182166700Y-175753600D03*
X182166700Y-175103600D03*
X182166700Y-174453600D03*
X182166700Y-173803600D03*
X182166700Y-173153600D03*
X182166700Y-172503600D03*
X182166700Y-171853600D03*
X182166700Y-171203600D03*
X182166700Y-170553600D03*
%TD*%
D14*
%TO.C,R38*%
X127422700Y-157847200D03*
X129322700Y-157847200D03*
%TD*%
D13*
%TO.C,RN33*%
X163718000Y-148204000D03*
X163718000Y-149474000D03*
X163718000Y-150744000D03*
X163718000Y-152014000D03*
X165623000Y-152014000D03*
X165623000Y-150744000D03*
X165623000Y-149474000D03*
X165623000Y-148204000D03*
%TD*%
D15*
%TO.C,R40*%
X153925100Y-54179600D03*
X153925100Y-56079600D03*
%TD*%
D23*
%TO.C,IC1*%
X176331100Y-122801600D03*
X176331100Y-123451600D03*
X176331100Y-124101600D03*
X176331100Y-124751600D03*
X176331100Y-125401600D03*
X176331100Y-126051600D03*
X176331100Y-126701600D03*
X176331100Y-127351600D03*
X176331100Y-128001600D03*
X176331100Y-128651600D03*
X176331100Y-129301600D03*
X176331100Y-129951600D03*
X182166700Y-129951600D03*
X182166700Y-129301600D03*
X182166700Y-128651600D03*
X182166700Y-128001600D03*
X182166700Y-127351600D03*
X182166700Y-126701600D03*
X182166700Y-126051600D03*
X182166700Y-125401600D03*
X182166700Y-124751600D03*
X182166700Y-124101600D03*
X182166700Y-123451600D03*
X182166700Y-122801600D03*
%TD*%
D11*
%TO.C,UNK2V5*%
X69309100Y-117715200D03*
X71409100Y-117715200D03*
%TD*%
D17*
%TO.C,C19*%
X80832500Y-134208200D03*
X82732500Y-134208200D03*
%TD*%
D15*
%TO.C,R6*%
X107275900Y-44395600D03*
X107275900Y-42495600D03*
%TD*%
D12*
%TO.C,C4*%
X72518100Y-48765600D03*
X72518100Y-50665600D03*
%TD*%
D24*
%TO.C,C21*%
X104468300Y-150430400D03*
X107268300Y-150430400D03*
%TD*%
D32*
%TO.C,UNK74HCT03*%
X203683700Y-71919000D03*
X203683700Y-73189000D03*
X203683700Y-74459000D03*
X203683700Y-75729000D03*
X203683700Y-76999000D03*
X203683700Y-78269000D03*
X203683700Y-79539000D03*
X209830500Y-79539000D03*
X209830500Y-78269000D03*
X209830500Y-76999000D03*
X209830500Y-75729000D03*
X209830500Y-74459000D03*
X209830500Y-73189000D03*
X209830500Y-71919000D03*
%TD*%
D13*
%TO.C,RN20*%
X163790400Y-102331600D03*
X163790400Y-103601600D03*
X163790400Y-104871600D03*
X163790400Y-106141600D03*
X165695400Y-106141600D03*
X165695400Y-104871600D03*
X165695400Y-103601600D03*
X165695400Y-102331600D03*
%TD*%
D14*
%TO.C,R50*%
X217613100Y-156678800D03*
X215713100Y-156678800D03*
%TD*%
D12*
%TO.C,C5*%
X72518100Y-54814600D03*
X72518100Y-56714600D03*
%TD*%
D13*
%TO.C,RN30*%
X163718000Y-127204000D03*
X163718000Y-128474000D03*
X163718000Y-129744000D03*
X163718000Y-131014000D03*
X165623000Y-131014000D03*
X165623000Y-129744000D03*
X165623000Y-128474000D03*
X165623000Y-127204000D03*
%TD*%
D14*
%TO.C,C34*%
X204048700Y-89191000D03*
X202048700Y-89191000D03*
%TD*%
%TO.C,R48*%
X230440100Y-88657600D03*
X228540100Y-88657600D03*
%TD*%
D13*
%TO.C,RN6*%
X130849200Y-138416200D03*
X130849200Y-137146200D03*
X130849200Y-135876200D03*
X130849200Y-134606200D03*
X128944200Y-134606200D03*
X128944200Y-135876200D03*
X128944200Y-137146200D03*
X128944200Y-138416200D03*
%TD*%
D14*
%TO.C,R11*%
X82637500Y-65188000D03*
X80737500Y-65188000D03*
%TD*%
%TO.C,R13*%
X80737500Y-70725200D03*
X82637500Y-70725200D03*
%TD*%
D33*
%TO.C,SPI0*%
X77471100Y-79869200D03*
X77471100Y-81139200D03*
X77471100Y-82409200D03*
X77471100Y-83679200D03*
X82398700Y-83679200D03*
X82398700Y-82409200D03*
X82398700Y-81139200D03*
X82398700Y-79869200D03*
D34*
X84344900Y-77564200D03*
X83074900Y-77564200D03*
X81804900Y-77564200D03*
X80534900Y-77564200D03*
X79264900Y-77564200D03*
X77994900Y-77564200D03*
X76724900Y-77564200D03*
X75454900Y-77564200D03*
X75454900Y-85984200D03*
X76724900Y-85984200D03*
X77994900Y-85984200D03*
X79264900Y-85984200D03*
X80534900Y-85984200D03*
X81804900Y-85984200D03*
X83074900Y-85984200D03*
X84344900Y-85984200D03*
%TD*%
D14*
%TO.C,R12*%
X90790900Y-65188000D03*
X88890900Y-65188000D03*
%TD*%
D12*
%TO.C,C1*%
X69063700Y-46554600D03*
X69063700Y-44654600D03*
%TD*%
D30*
%TO.C,RN1*%
X78072100Y-35076300D03*
X79342100Y-35076300D03*
X80612100Y-35076300D03*
X81882100Y-35076300D03*
X81882100Y-33171300D03*
X80612100Y-33171300D03*
X79342100Y-33171300D03*
X78072100Y-33171300D03*
%TD*%
D22*
%TO.C,PF2*%
X67540100Y-149490600D03*
X70384100Y-149490600D03*
%TD*%
D23*
%TO.C,IC5*%
X188167500Y-60123200D03*
X188167500Y-60773200D03*
X188167500Y-61423200D03*
X188167500Y-62073200D03*
X188167500Y-62723200D03*
X188167500Y-63373200D03*
X188167500Y-64023200D03*
X188167500Y-64673200D03*
X188167500Y-65323200D03*
X188167500Y-65973200D03*
X188167500Y-66623200D03*
X188167500Y-67273200D03*
X194003100Y-67273200D03*
X194003100Y-66623200D03*
X194003100Y-65973200D03*
X194003100Y-65323200D03*
X194003100Y-64673200D03*
X194003100Y-64023200D03*
X194003100Y-63373200D03*
X194003100Y-62723200D03*
X194003100Y-62073200D03*
X194003100Y-61423200D03*
X194003100Y-60773200D03*
X194003100Y-60123200D03*
%TD*%
D35*
%TO.C,U$1*%
X99406900Y-80113400D03*
X100406900Y-80113400D03*
X101406900Y-80113400D03*
X102406900Y-80113400D03*
X103406900Y-80113400D03*
X104406900Y-80113400D03*
X105406900Y-80113400D03*
X106406900Y-80113400D03*
X107406900Y-80113400D03*
X108406900Y-80113400D03*
X109406900Y-80113400D03*
X110406900Y-80113400D03*
X111406900Y-80113400D03*
X112406900Y-80113400D03*
X113406900Y-80113400D03*
X114406900Y-80113400D03*
X115406900Y-80113400D03*
X116406900Y-80113400D03*
X117406900Y-80113400D03*
X118406900Y-80113400D03*
X119406900Y-80113400D03*
X120406900Y-80113400D03*
X99406900Y-100113400D03*
X100406900Y-100113400D03*
X101406900Y-100113400D03*
X102406900Y-100113400D03*
X103406900Y-100113400D03*
X104406900Y-100113400D03*
X105406900Y-100113400D03*
X106406900Y-100113400D03*
X107406900Y-100113400D03*
X108406900Y-100113400D03*
X109406900Y-100113400D03*
X110406900Y-100113400D03*
X111406900Y-100113400D03*
X112406900Y-100113400D03*
X113406900Y-100113400D03*
X114406900Y-100113400D03*
X115406900Y-100113400D03*
X116406900Y-100113400D03*
X117406900Y-100113400D03*
X118406900Y-100113400D03*
X119406900Y-100113400D03*
X120406900Y-100113400D03*
X99406900Y-101113400D03*
X100406900Y-101113400D03*
X101406900Y-101113400D03*
X102406900Y-101113400D03*
X103406900Y-101113400D03*
X104406900Y-101113400D03*
X105406900Y-101113400D03*
X106406900Y-101113400D03*
X107406900Y-101113400D03*
X108406900Y-101113400D03*
X109406900Y-101113400D03*
X110406900Y-101113400D03*
X111406900Y-101113400D03*
X112406900Y-101113400D03*
X113406900Y-101113400D03*
X114406900Y-101113400D03*
X115406900Y-101113400D03*
X116406900Y-101113400D03*
X117406900Y-101113400D03*
X118406900Y-101113400D03*
X119406900Y-101113400D03*
X120406900Y-101113400D03*
X99406900Y-81113400D03*
X100406900Y-81113400D03*
X101406900Y-81113400D03*
X102406900Y-81113400D03*
X103406900Y-81113400D03*
X104406900Y-81113400D03*
X105406900Y-81113400D03*
X106406900Y-81113400D03*
X107406900Y-81113400D03*
X108406900Y-81113400D03*
X109406900Y-81113400D03*
X110406900Y-81113400D03*
X111406900Y-81113400D03*
X112406900Y-81113400D03*
X113406900Y-81113400D03*
X114406900Y-81113400D03*
X115406900Y-81113400D03*
X116406900Y-81113400D03*
X117406900Y-81113400D03*
X118406900Y-81113400D03*
X119406900Y-81113400D03*
X120406900Y-81113400D03*
X99406900Y-82113400D03*
X100406900Y-82113400D03*
X101406900Y-82113400D03*
X102406900Y-82113400D03*
X103406900Y-82113400D03*
X104406900Y-82113400D03*
X105406900Y-82113400D03*
X106406900Y-82113400D03*
X107406900Y-82113400D03*
X108406900Y-82113400D03*
X109406900Y-82113400D03*
X110406900Y-82113400D03*
X111406900Y-82113400D03*
X112406900Y-82113400D03*
X113406900Y-82113400D03*
X114406900Y-82113400D03*
X115406900Y-82113400D03*
X116406900Y-82113400D03*
X117406900Y-82113400D03*
X118406900Y-82113400D03*
X119406900Y-82113400D03*
X120406900Y-82113400D03*
X99406900Y-83113400D03*
X100406900Y-83113400D03*
X101406900Y-83113400D03*
X102406900Y-83113400D03*
X103406900Y-83113400D03*
X104406900Y-83113400D03*
X105406900Y-83113400D03*
X106406900Y-83113400D03*
X107406900Y-83113400D03*
X108406900Y-83113400D03*
X109406900Y-83113400D03*
X110406900Y-83113400D03*
X111406900Y-83113400D03*
X112406900Y-83113400D03*
X113406900Y-83113400D03*
X114406900Y-83113400D03*
X115406900Y-83113400D03*
X116406900Y-83113400D03*
X117406900Y-83113400D03*
X118406900Y-83113400D03*
X119406900Y-83113400D03*
X120406900Y-83113400D03*
X99406900Y-84113400D03*
X100406900Y-84113400D03*
X101406900Y-84113400D03*
X102406900Y-84113400D03*
X103406900Y-84113400D03*
X104406900Y-84113400D03*
X105406900Y-84113400D03*
X106406900Y-84113400D03*
X107406900Y-84113400D03*
X108406900Y-84113400D03*
X109406900Y-84113400D03*
X110406900Y-84113400D03*
X111406900Y-84113400D03*
X112406900Y-84113400D03*
X113406900Y-84113400D03*
X114406900Y-84113400D03*
X115406900Y-84113400D03*
X116406900Y-84113400D03*
X117406900Y-84113400D03*
X118406900Y-84113400D03*
X119406900Y-84113400D03*
X120406900Y-84113400D03*
X99406900Y-85113400D03*
X100406900Y-85113400D03*
X101406900Y-85113400D03*
X102406900Y-85113400D03*
X103406900Y-85113400D03*
X104406900Y-85113400D03*
X105406900Y-85113400D03*
X106406900Y-85113400D03*
X107406900Y-85113400D03*
X108406900Y-85113400D03*
X109406900Y-85113400D03*
X110406900Y-85113400D03*
X111406900Y-85113400D03*
X112406900Y-85113400D03*
X113406900Y-85113400D03*
X114406900Y-85113400D03*
X115406900Y-85113400D03*
X116406900Y-85113400D03*
X117406900Y-85113400D03*
X118406900Y-85113400D03*
X119406900Y-85113400D03*
X120406900Y-85113400D03*
X99406900Y-86113400D03*
X100406900Y-86113400D03*
X101406900Y-86113400D03*
X102406900Y-86113400D03*
X103406900Y-86113400D03*
X104406900Y-86113400D03*
X105406900Y-86113400D03*
X106406900Y-86113400D03*
X107406900Y-86113400D03*
X108406900Y-86113400D03*
X109406900Y-86113400D03*
X110406900Y-86113400D03*
X111406900Y-86113400D03*
X112406900Y-86113400D03*
X113406900Y-86113400D03*
X114406900Y-86113400D03*
X115406900Y-86113400D03*
X116406900Y-86113400D03*
X117406900Y-86113400D03*
X118406900Y-86113400D03*
X119406900Y-86113400D03*
X120406900Y-86113400D03*
X99406900Y-87113400D03*
X100406900Y-87113400D03*
X101406900Y-87113400D03*
X102406900Y-87113400D03*
X103406900Y-87113400D03*
X104406900Y-87113400D03*
X105406900Y-87113400D03*
X106406900Y-87113400D03*
X107406900Y-87113400D03*
X108406900Y-87113400D03*
X109406900Y-87113400D03*
X110406900Y-87113400D03*
X111406900Y-87113400D03*
X112406900Y-87113400D03*
X113406900Y-87113400D03*
X114406900Y-87113400D03*
X115406900Y-87113400D03*
X116406900Y-87113400D03*
X117406900Y-87113400D03*
X118406900Y-87113400D03*
X119406900Y-87113400D03*
X120406900Y-87113400D03*
X99406900Y-88113400D03*
X100406900Y-88113400D03*
X101406900Y-88113400D03*
X102406900Y-88113400D03*
X103406900Y-88113400D03*
X104406900Y-88113400D03*
X105406900Y-88113400D03*
X106406900Y-88113400D03*
X107406900Y-88113400D03*
X108406900Y-88113400D03*
X109406900Y-88113400D03*
X110406900Y-88113400D03*
X111406900Y-88113400D03*
X112406900Y-88113400D03*
X113406900Y-88113400D03*
X114406900Y-88113400D03*
X115406900Y-88113400D03*
X116406900Y-88113400D03*
X117406900Y-88113400D03*
X118406900Y-88113400D03*
X119406900Y-88113400D03*
X120406900Y-88113400D03*
X99406900Y-89113400D03*
X100406900Y-89113400D03*
X101406900Y-89113400D03*
X102406900Y-89113400D03*
X103406900Y-89113400D03*
X104406900Y-89113400D03*
X105406900Y-89113400D03*
X106406900Y-89113400D03*
X107406900Y-89113400D03*
X108406900Y-89113400D03*
X109406900Y-89113400D03*
X110406900Y-89113400D03*
X111406900Y-89113400D03*
X112406900Y-89113400D03*
X113406900Y-89113400D03*
X114406900Y-89113400D03*
X115406900Y-89113400D03*
X116406900Y-89113400D03*
X117406900Y-89113400D03*
X118406900Y-89113400D03*
X119406900Y-89113400D03*
X120406900Y-89113400D03*
X99406900Y-90113400D03*
X100406900Y-90113400D03*
X101406900Y-90113400D03*
X102406900Y-90113400D03*
X103406900Y-90113400D03*
X104406900Y-90113400D03*
X105406900Y-90113400D03*
X106406900Y-90113400D03*
X107406900Y-90113400D03*
X108406900Y-90113400D03*
X109406900Y-90113400D03*
X110406900Y-90113400D03*
X111406900Y-90113400D03*
X112406900Y-90113400D03*
X113406900Y-90113400D03*
X114406900Y-90113400D03*
X115406900Y-90113400D03*
X116406900Y-90113400D03*
X117406900Y-90113400D03*
X118406900Y-90113400D03*
X119406900Y-90113400D03*
X120406900Y-90113400D03*
X99406900Y-91113400D03*
X100406900Y-91113400D03*
X101406900Y-91113400D03*
X102406900Y-91113400D03*
X103406900Y-91113400D03*
X104406900Y-91113400D03*
X105406900Y-91113400D03*
X106406900Y-91113400D03*
X107406900Y-91113400D03*
X108406900Y-91113400D03*
X109406900Y-91113400D03*
X110406900Y-91113400D03*
X111406900Y-91113400D03*
X112406900Y-91113400D03*
X113406900Y-91113400D03*
X114406900Y-91113400D03*
X115406900Y-91113400D03*
X116406900Y-91113400D03*
X117406900Y-91113400D03*
X118406900Y-91113400D03*
X119406900Y-91113400D03*
X120406900Y-91113400D03*
X99406900Y-92113400D03*
X100406900Y-92113400D03*
X101406900Y-92113400D03*
X102406900Y-92113400D03*
X103406900Y-92113400D03*
X104406900Y-92113400D03*
X105406900Y-92113400D03*
X106406900Y-92113400D03*
X107406900Y-92113400D03*
X108406900Y-92113400D03*
X109406900Y-92113400D03*
X110406900Y-92113400D03*
X111406900Y-92113400D03*
X112406900Y-92113400D03*
X113406900Y-92113400D03*
X114406900Y-92113400D03*
X115406900Y-92113400D03*
X116406900Y-92113400D03*
X117406900Y-92113400D03*
X118406900Y-92113400D03*
X119406900Y-92113400D03*
X120406900Y-92113400D03*
X99406900Y-93113400D03*
X100406900Y-93113400D03*
X101406900Y-93113400D03*
X102406900Y-93113400D03*
X103406900Y-93113400D03*
X104406900Y-93113400D03*
X105406900Y-93113400D03*
X106406900Y-93113400D03*
X107406900Y-93113400D03*
X108406900Y-93113400D03*
X109406900Y-93113400D03*
X110406900Y-93113400D03*
X111406900Y-93113400D03*
X112406900Y-93113400D03*
X113406900Y-93113400D03*
X114406900Y-93113400D03*
X115406900Y-93113400D03*
X116406900Y-93113400D03*
X117406900Y-93113400D03*
X118406900Y-93113400D03*
X119406900Y-93113400D03*
X120406900Y-93113400D03*
X99406900Y-94113400D03*
X100406900Y-94113400D03*
X101406900Y-94113400D03*
X102406900Y-94113400D03*
X103406900Y-94113400D03*
X104406900Y-94113400D03*
X105406900Y-94113400D03*
X106406900Y-94113400D03*
X107406900Y-94113400D03*
X108406900Y-94113400D03*
X109406900Y-94113400D03*
X110406900Y-94113400D03*
X111406900Y-94113400D03*
X112406900Y-94113400D03*
X113406900Y-94113400D03*
X114406900Y-94113400D03*
X115406900Y-94113400D03*
X116406900Y-94113400D03*
X117406900Y-94113400D03*
X118406900Y-94113400D03*
X119406900Y-94113400D03*
X120406900Y-94113400D03*
X99406900Y-95113400D03*
X100406900Y-95113400D03*
X101406900Y-95113400D03*
X102406900Y-95113400D03*
X103406900Y-95113400D03*
X104406900Y-95113400D03*
X105406900Y-95113400D03*
X106406900Y-95113400D03*
X107406900Y-95113400D03*
X108406900Y-95113400D03*
X109406900Y-95113400D03*
X110406900Y-95113400D03*
X111406900Y-95113400D03*
X112406900Y-95113400D03*
X113406900Y-95113400D03*
X114406900Y-95113400D03*
X115406900Y-95113400D03*
X116406900Y-95113400D03*
X117406900Y-95113400D03*
X118406900Y-95113400D03*
X119406900Y-95113400D03*
X120406900Y-95113400D03*
X99406900Y-96113400D03*
X100406900Y-96113400D03*
X101406900Y-96113400D03*
X102406900Y-96113400D03*
X103406900Y-96113400D03*
X104406900Y-96113400D03*
X105406900Y-96113400D03*
X106406900Y-96113400D03*
X107406900Y-96113400D03*
X108406900Y-96113400D03*
X109406900Y-96113400D03*
X110406900Y-96113400D03*
X111406900Y-96113400D03*
X112406900Y-96113400D03*
X113406900Y-96113400D03*
X114406900Y-96113400D03*
X115406900Y-96113400D03*
X116406900Y-96113400D03*
X117406900Y-96113400D03*
X118406900Y-96113400D03*
X119406900Y-96113400D03*
X120406900Y-96113400D03*
X99406900Y-97113400D03*
X100406900Y-97113400D03*
X101406900Y-97113400D03*
X102406900Y-97113400D03*
X103406900Y-97113400D03*
X104406900Y-97113400D03*
X105406900Y-97113400D03*
X106406900Y-97113400D03*
X107406900Y-97113400D03*
X108406900Y-97113400D03*
X109406900Y-97113400D03*
X110406900Y-97113400D03*
X111406900Y-97113400D03*
X112406900Y-97113400D03*
X113406900Y-97113400D03*
X114406900Y-97113400D03*
X115406900Y-97113400D03*
X116406900Y-97113400D03*
X117406900Y-97113400D03*
X118406900Y-97113400D03*
X119406900Y-97113400D03*
X120406900Y-97113400D03*
X99406900Y-98113400D03*
X100406900Y-98113400D03*
X101406900Y-98113400D03*
X102406900Y-98113400D03*
X103406900Y-98113400D03*
X104406900Y-98113400D03*
X105406900Y-98113400D03*
X106406900Y-98113400D03*
X107406900Y-98113400D03*
X108406900Y-98113400D03*
X109406900Y-98113400D03*
X110406900Y-98113400D03*
X111406900Y-98113400D03*
X112406900Y-98113400D03*
X113406900Y-98113400D03*
X114406900Y-98113400D03*
X115406900Y-98113400D03*
X116406900Y-98113400D03*
X117406900Y-98113400D03*
X118406900Y-98113400D03*
X119406900Y-98113400D03*
X120406900Y-98113400D03*
X99406900Y-99113400D03*
X100406900Y-99113400D03*
X101406900Y-99113400D03*
X102406900Y-99113400D03*
X103406900Y-99113400D03*
X104406900Y-99113400D03*
X105406900Y-99113400D03*
X106406900Y-99113400D03*
X107406900Y-99113400D03*
X108406900Y-99113400D03*
X109406900Y-99113400D03*
X110406900Y-99113400D03*
X111406900Y-99113400D03*
X112406900Y-99113400D03*
X113406900Y-99113400D03*
X114406900Y-99113400D03*
X115406900Y-99113400D03*
X116406900Y-99113400D03*
X117406900Y-99113400D03*
X118406900Y-99113400D03*
X119406900Y-99113400D03*
X120406900Y-99113400D03*
%TD*%
D12*
%TO.C,C25*%
X111405500Y-156897200D03*
X111405500Y-158797200D03*
%TD*%
D14*
%TO.C,C40*%
X180248900Y-153300600D03*
X178248900Y-153300600D03*
%TD*%
D15*
%TO.C,R5*%
X98186900Y-42495600D03*
X98186900Y-44395600D03*
%TD*%
D19*
%TO.C,TR1*%
X69409100Y-131769200D03*
X70359100Y-129569200D03*
X71309100Y-131769200D03*
%TD*%
D14*
%TO.C,R51*%
X217613100Y-159930000D03*
X215713100Y-159930000D03*
%TD*%
D17*
%TO.C,R22*%
X69409100Y-114667200D03*
X71309100Y-114667200D03*
%TD*%
D11*
%TO.C,TX0*%
X223487100Y-85736600D03*
X225587100Y-85736600D03*
%TD*%
D36*
%TO.C,D2*%
X173584700Y-44078800D03*
X173584700Y-40678800D03*
%TD*%
D14*
%TO.C,R17*%
X71436100Y-77075200D03*
X69536100Y-77075200D03*
%TD*%
D30*
%TO.C,RN8*%
X186157700Y-51687900D03*
X187427700Y-51687900D03*
X188697700Y-51687900D03*
X189967700Y-51687900D03*
X189967700Y-49782900D03*
X188697700Y-49782900D03*
X187427700Y-49782900D03*
X186157700Y-49782900D03*
%TD*%
D13*
%TO.C,RN34*%
X163718000Y-155204000D03*
X163718000Y-156474000D03*
X163718000Y-157744000D03*
X163718000Y-159014000D03*
X165623000Y-159014000D03*
X165623000Y-157744000D03*
X165623000Y-156474000D03*
X165623000Y-155204000D03*
%TD*%
D32*
%TO.C,MAX232*%
X209678100Y-88505200D03*
X209678100Y-89775200D03*
X209678100Y-91045200D03*
X209678100Y-92315200D03*
X209678100Y-93585200D03*
X209678100Y-94855200D03*
X209678100Y-96125200D03*
X209678100Y-97395200D03*
X219482500Y-97395200D03*
X219482500Y-96125200D03*
X219482500Y-94855200D03*
X219482500Y-93585200D03*
X219482500Y-92315200D03*
X219482500Y-91045200D03*
X219482500Y-89775200D03*
X219482500Y-88505200D03*
%TD*%
D17*
%TO.C,R3*%
X76648100Y-60895400D03*
X78548100Y-60895400D03*
%TD*%
D14*
%TO.C,R54*%
X217613100Y-170242400D03*
X215713100Y-170242400D03*
%TD*%
%TO.C,R36*%
X127422700Y-150430400D03*
X129322700Y-150430400D03*
%TD*%
D13*
%TO.C,RN27*%
X181990800Y-90342800D03*
X181990800Y-91612800D03*
X181990800Y-92882800D03*
X181990800Y-94152800D03*
X183895800Y-94152800D03*
X183895800Y-92882800D03*
X183895800Y-91612800D03*
X183895800Y-90342800D03*
%TD*%
D12*
%TO.C,R10*%
X119812900Y-44395600D03*
X119812900Y-42495600D03*
%TD*%
D13*
%TO.C,RN21*%
X163790400Y-108427600D03*
X163790400Y-109697600D03*
X163790400Y-110967600D03*
X163790400Y-112237600D03*
X165695400Y-112237600D03*
X165695400Y-110967600D03*
X165695400Y-109697600D03*
X165695400Y-108427600D03*
%TD*%
D12*
%TO.C,C12*%
X107275900Y-57146400D03*
X107275900Y-55246400D03*
%TD*%
D15*
%TO.C,R34*%
X105360300Y-141047600D03*
X105360300Y-142947600D03*
%TD*%
D13*
%TO.C,RN15*%
X163790400Y-72562800D03*
X163790400Y-73832800D03*
X163790400Y-75102800D03*
X163790400Y-76372800D03*
X165695400Y-76372800D03*
X165695400Y-75102800D03*
X165695400Y-73832800D03*
X165695400Y-72562800D03*
%TD*%
D36*
%TO.C,D1*%
X116333100Y-139891200D03*
X116333100Y-143291200D03*
%TD*%
D12*
%TO.C,R31*%
X95165500Y-141047600D03*
X95165500Y-142947600D03*
%TD*%
D37*
%TO.C,SDRAM0*%
X76784900Y-110117000D03*
X76784900Y-110917000D03*
X76784900Y-111717000D03*
X76784900Y-112517000D03*
X76784900Y-113317000D03*
X76784900Y-114117000D03*
X76784900Y-114917000D03*
X76784900Y-115717000D03*
X76784900Y-116517000D03*
X76784900Y-117317000D03*
X76784900Y-118117000D03*
X76784900Y-118917000D03*
X76784900Y-119717000D03*
X76784900Y-120517000D03*
X76784900Y-121317000D03*
X76784900Y-122117000D03*
X76784900Y-122917000D03*
X76784900Y-123717000D03*
X76784900Y-124517000D03*
X76784900Y-125317000D03*
X76784900Y-126117000D03*
X76784900Y-126917000D03*
X76784900Y-127717000D03*
X76784900Y-128517000D03*
X76784900Y-129317000D03*
X76784900Y-130117000D03*
X76784900Y-130917000D03*
X87684900Y-130917000D03*
X87684900Y-130117000D03*
X87684900Y-129317000D03*
X87684900Y-128517000D03*
X87684900Y-127717000D03*
X87684900Y-126917000D03*
X87684900Y-126117000D03*
X87684900Y-125317000D03*
X87684900Y-124517000D03*
X87684900Y-123717000D03*
X87684900Y-122917000D03*
X87684900Y-122117000D03*
X87684900Y-121317000D03*
X87684900Y-120517000D03*
X87684900Y-119717000D03*
X87684900Y-118917000D03*
X87684900Y-118117000D03*
X87684900Y-117317000D03*
X87684900Y-116517000D03*
X87684900Y-115717000D03*
X87684900Y-114917000D03*
X87684900Y-114117000D03*
X87684900Y-113317000D03*
X87684900Y-112517000D03*
X87684900Y-111717000D03*
X87684900Y-110917000D03*
X87684900Y-110117000D03*
%TD*%
D26*
%TO.C,UNK3.3V0*%
X76429700Y-43013800D03*
X76429700Y-43953600D03*
X76429700Y-44893400D03*
X78766500Y-44893400D03*
X78766500Y-43013800D03*
%TD*%
%TO.C,UNK2.5V0*%
X76429700Y-48601800D03*
X76429700Y-49541600D03*
X76429700Y-50481400D03*
X78766500Y-50481400D03*
X78766500Y-48601800D03*
%TD*%
%TO.C,ADC0*%
X76429700Y-66966000D03*
X76429700Y-67905800D03*
X76429700Y-68845600D03*
X78766500Y-68845600D03*
X78766500Y-66966000D03*
%TD*%
D17*
%TO.C,R2*%
X64964100Y-51624400D03*
X66864100Y-51624400D03*
%TD*%
D13*
%TO.C,RN29*%
X163718000Y-120204000D03*
X163718000Y-121474000D03*
X163718000Y-122744000D03*
X163718000Y-124014000D03*
X165623000Y-124014000D03*
X165623000Y-122744000D03*
X165623000Y-121474000D03*
X165623000Y-120204000D03*
%TD*%
D38*
%TO.C,PF3*%
X113031100Y-143013200D03*
X113031100Y-140169200D03*
%TD*%
D25*
%TO.C,L1*%
X82675100Y-43953600D03*
X85475100Y-43953600D03*
%TD*%
D12*
%TO.C,R26*%
X75150300Y-142947600D03*
X75150300Y-141047600D03*
%TD*%
D14*
%TO.C,R16*%
X69536100Y-74535200D03*
X71436100Y-74535200D03*
%TD*%
M02*
