%TF.GenerationSoftware,KiCad,Pcbnew,9.0.7*%
%TF.CreationDate,2026-08-08T12:24:42+02:00*%
%TF.ProjectId,eclaireXLv1,65636c61-6972-4655-984c-76312e6b6963,rev?*%
%TF.SameCoordinates,Original*%
%TF.FileFunction,Soldermask,Top*%
%TF.FilePolarity,Negative*%
%FSLAX46Y46*%
G04 Gerber Fmt 4.6, Leading zero omitted, Abs format (unit mm)*
G04 Created by KiCad (PCBNEW 9.0.7) date 2026-08-08 12:24:42*
%MOMM*%
%LPD*%
G01*
G04 APERTURE LIST*
G04 Aperture macros list*
%AMRoundRect*
0 Rectangle with rounded corners*
0 $1 Rounding radius*
0 $2 $3 $4 $5 $6 $7 $8 $9 X,Y pos of 4 corners*
0 Add a 4 corners polygon primitive as box body*
4,1,4,$2,$3,$4,$5,$6,$7,$8,$9,$2,$3,0*
0 Add four circle primitives for the rounded corners*
1,1,$1+$1,$2,$3*
1,1,$1+$1,$4,$5*
1,1,$1+$1,$6,$7*
1,1,$1+$1,$8,$9*
0 Add four rect primitives between the rounded corners*
20,1,$1+$1,$2,$3,$4,$5,0*
20,1,$1+$1,$4,$5,$6,$7,0*
20,1,$1+$1,$6,$7,$8,$9,0*
20,1,$1+$1,$8,$9,$2,$3,0*%
%AMFreePoly0*
4,1,25,0.261648,0.569696,0.273771,0.559342,0.559342,0.273771,0.587849,0.217823,0.589100,0.201929,0.589100,-0.201929,0.569696,-0.261648,0.559342,-0.273771,0.273771,-0.559342,0.217823,-0.587849,0.201929,-0.589100,-0.201929,-0.589100,-0.261648,-0.569696,-0.273771,-0.559342,-0.559342,-0.273771,-0.587849,-0.217823,-0.589100,-0.201929,-0.589100,0.201929,-0.569696,0.261648,-0.559342,0.273771,
-0.273771,0.559342,-0.217823,0.587849,-0.201929,0.589100,0.201929,0.589100,0.261648,0.569696,0.261648,0.569696,$1*%
%AMFreePoly1*
4,1,25,0.343787,0.767996,0.355910,0.757642,0.757642,0.355910,0.786149,0.299962,0.787400,0.284068,0.787400,-0.284068,0.767996,-0.343787,0.757642,-0.355910,0.355910,-0.757642,0.299962,-0.786149,0.284068,-0.787400,-0.284068,-0.787400,-0.343787,-0.767996,-0.355910,-0.757642,-0.757642,-0.355910,-0.786149,-0.299962,-0.787400,-0.284068,-0.787400,0.284068,-0.767996,0.343787,-0.757642,0.355910,
-0.355910,0.757642,-0.299962,0.786149,-0.284068,0.787400,0.284068,0.787400,0.343787,0.767996,0.343787,0.767996,$1*%
%AMFreePoly2*
4,1,25,0.536065,1.232196,0.548188,1.221842,1.221842,0.548188,1.250349,0.492240,1.251600,0.476346,1.251600,-0.476346,1.232196,-0.536065,1.221842,-0.548188,0.548188,-1.221842,0.492240,-1.250349,0.476346,-1.251600,-0.476346,-1.251600,-0.536065,-1.232196,-0.548188,-1.221842,-1.221842,-0.548188,-1.250349,-0.492240,-1.251600,-0.476346,-1.251600,0.476346,-1.232196,0.536065,-1.221842,0.548188,
-0.548188,1.221842,-0.492240,1.250349,-0.476346,1.251600,0.476346,1.251600,0.536065,1.232196,0.536065,1.232196,$1*%
%AMFreePoly3*
4,1,25,0.556775,1.282196,0.568898,1.271842,1.271842,0.568898,1.300349,0.512950,1.301600,0.497056,1.301600,-0.497056,1.282196,-0.556775,1.271842,-0.568898,0.568898,-1.271842,0.512950,-1.300349,0.497056,-1.301600,-0.497056,-1.301600,-0.556775,-1.282196,-0.568898,-1.271842,-1.271842,-0.568898,-1.300349,-0.512950,-1.301600,-0.497056,-1.301600,0.497056,-1.282196,0.556775,-1.271842,0.568898,
-0.568898,1.271842,-0.512950,1.300349,-0.497056,1.301600,0.497056,1.301600,0.556775,1.282196,0.556775,1.282196,$1*%
%AMFreePoly4*
4,1,25,0.375350,0.844196,0.387473,0.833842,0.833842,0.387473,0.862349,0.331525,0.863600,0.315631,0.863600,-0.315631,0.844196,-0.375350,0.833842,-0.387473,0.387473,-0.833842,0.331525,-0.862349,0.315631,-0.863600,-0.315631,-0.863600,-0.375350,-0.844196,-0.387473,-0.833842,-0.833842,-0.387473,-0.862349,-0.331525,-0.863600,-0.315631,-0.863600,0.315631,-0.844196,0.375350,-0.833842,0.387473,
-0.387473,0.833842,-0.331525,0.862349,-0.315631,0.863600,0.315631,0.863600,0.375350,0.844196,0.375350,0.844196,$1*%
%AMFreePoly5*
4,1,25,0.618907,1.432196,0.631030,1.421842,1.421842,0.631030,1.450349,0.575082,1.451600,0.559188,1.451600,-0.559188,1.432196,-0.618907,1.421842,-0.631030,0.631030,-1.421842,0.575082,-1.450349,0.559188,-1.451600,-0.559188,-1.451600,-0.618907,-1.432196,-0.631030,-1.421842,-1.421842,-0.631030,-1.450349,-0.575082,-1.451600,-0.559188,-1.451600,0.559188,-1.432196,0.618907,-1.421842,0.631030,
-0.631030,1.421842,-0.575082,1.450349,-0.559188,1.451600,0.559188,1.451600,0.618907,1.432196,0.618907,1.432196,$1*%
%AMFreePoly6*
4,1,25,0.339313,0.757196,0.351436,0.746842,0.746842,0.351436,0.775349,0.295488,0.776600,0.279594,0.776600,-0.279594,0.757196,-0.339313,0.746842,-0.351436,0.351436,-0.746842,0.295488,-0.775349,0.279594,-0.776600,-0.279594,-0.776600,-0.339313,-0.757196,-0.351436,-0.746842,-0.746842,-0.351436,-0.775349,-0.295488,-0.776600,-0.279594,-0.776600,0.279594,-0.757196,0.339313,-0.746842,0.351436,
-0.351436,0.746842,-0.295488,0.775349,-0.279594,0.776600,0.279594,0.776600,0.339313,0.757196,0.339313,0.757196,$1*%
G04 Aperture macros list end*
%ADD10C,0.266700*%
%ADD11C,0.304800*%
%ADD12RoundRect,0.101600X-0.800000X-0.175000X0.800000X-0.175000X0.800000X0.175000X-0.800000X0.175000X0*%
%ADD13RoundRect,0.101600X-0.600000X0.600000X-0.600000X-0.600000X0.600000X-0.600000X0.600000X0.600000X0*%
%ADD14RoundRect,0.101600X0.750000X-0.650000X0.750000X0.650000X-0.750000X0.650000X-0.750000X-0.650000X0*%
%ADD15RoundRect,0.101600X-0.600000X0.400000X-0.600000X-0.400000X0.600000X-0.400000X0.600000X0.400000X0*%
%ADD16RoundRect,0.101600X-0.750000X0.650000X-0.750000X-0.650000X0.750000X-0.650000X0.750000X0.650000X0*%
%ADD17RoundRect,0.101600X0.650000X0.800000X-0.650000X0.800000X-0.650000X-0.800000X0.650000X-0.800000X0*%
%ADD18C,1.574800*%
%ADD19C,3.530600*%
%ADD20RoundRect,0.101600X-0.650000X-0.800000X0.650000X-0.800000X0.650000X0.800000X-0.650000X0.800000X0*%
%ADD21O,1.727200X3.251200*%
%ADD22FreePoly0,270.000000*%
%ADD23FreePoly1,270.000000*%
%ADD24FreePoly2,90.000000*%
%ADD25FreePoly3,90.000000*%
%ADD26RoundRect,0.101600X-0.800000X0.650000X-0.800000X-0.650000X0.800000X-0.650000X0.800000X0.650000X0*%
%ADD27RoundRect,0.101600X0.150000X1.300000X-0.150000X1.300000X-0.150000X-1.300000X0.150000X-1.300000X0*%
%ADD28O,2.153200X4.103200*%
%ADD29C,6.045200*%
%ADD30FreePoly1,0.000000*%
%ADD31RoundRect,0.101600X0.800000X-0.650000X0.800000X0.650000X-0.800000X0.650000X-0.800000X-0.650000X0*%
%ADD32RoundRect,0.101600X-0.650000X-0.750000X0.650000X-0.750000X0.650000X0.750000X-0.650000X0.750000X0*%
%ADD33RoundRect,0.101600X0.800000X0.400000X-0.800000X0.400000X-0.800000X-0.400000X0.800000X-0.400000X0*%
%ADD34RoundRect,0.101600X-0.500000X-0.700000X0.500000X-0.700000X0.500000X0.700000X-0.500000X0.700000X0*%
%ADD35RoundRect,0.101600X0.482600X-0.965200X0.482600X0.965200X-0.482600X0.965200X-0.482600X-0.965200X0*%
%ADD36RoundRect,0.101600X-0.482600X0.965200X-0.482600X-0.965200X0.482600X-0.965200X0.482600X0.965200X0*%
%ADD37RoundRect,0.101600X-0.965200X1.905000X-0.965200X-1.905000X0.965200X-1.905000X0.965200X1.905000X0*%
%ADD38RoundRect,0.101600X0.965200X-1.905000X0.965200X1.905000X-0.965200X1.905000X-0.965200X-1.905000X0*%
%ADD39RoundRect,0.101600X0.650000X0.750000X-0.650000X0.750000X-0.650000X-0.750000X0.650000X-0.750000X0*%
%ADD40RoundRect,0.101600X0.600000X-0.400000X0.600000X0.400000X-0.600000X0.400000X-0.600000X-0.400000X0*%
%ADD41RoundRect,0.101600X-0.800000X-0.901500X0.800000X-0.901500X0.800000X0.901500X-0.800000X0.901500X0*%
%ADD42C,3.302000*%
%ADD43FreePoly4,0.000000*%
%ADD44RoundRect,0.101600X-0.495300X0.152400X-0.495300X-0.152400X0.495300X-0.152400X0.495300X0.152400X0*%
%ADD45RoundRect,0.101600X-0.800000X-0.900000X0.800000X-0.900000X0.800000X0.900000X-0.800000X0.900000X0*%
%ADD46C,2.082800*%
%ADD47C,5.283200*%
%ADD48RoundRect,0.101600X-0.800000X-1.100000X0.800000X-1.100000X0.800000X1.100000X-0.800000X1.100000X0*%
%ADD49FreePoly5,0.000000*%
%ADD50RoundRect,0.101600X-0.660400X-0.279400X0.660400X-0.279400X0.660400X0.279400X-0.660400X0.279400X0*%
%ADD51RoundRect,0.101600X-0.139700X-0.736600X0.139700X-0.736600X0.139700X0.736600X-0.139700X0.736600X0*%
%ADD52RoundRect,0.101600X-0.736600X0.139700X-0.736600X-0.139700X0.736600X-0.139700X0.736600X0.139700X0*%
%ADD53RoundRect,0.101600X1.752600X-1.752600X1.752600X1.752600X-1.752600X1.752600X-1.752600X-1.752600X0*%
%ADD54O,1.574800X2.946400*%
%ADD55RoundRect,0.101600X-0.400000X-0.600000X0.400000X-0.600000X0.400000X0.600000X-0.400000X0.600000X0*%
%ADD56FreePoly6,180.000000*%
%ADD57C,3.419200*%
%ADD58FreePoly4,180.000000*%
%ADD59RoundRect,0.101600X0.650000X-1.650000X0.650000X1.650000X-0.650000X1.650000X-0.650000X-1.650000X0*%
%ADD60RoundRect,0.101600X-1.016000X0.330200X-1.016000X-0.330200X1.016000X-0.330200X1.016000X0.330200X0*%
%ADD61RoundRect,0.101600X-0.990600X-0.279400X0.990600X-0.279400X0.990600X0.279400X-0.990600X0.279400X0*%
%ADD62RoundRect,0.101600X0.279400X-0.990600X0.279400X0.990600X-0.279400X0.990600X-0.279400X-0.990600X0*%
%ADD63RoundRect,0.291600X-0.000010X-0.000010X0.000010X-0.000010X0.000010X0.000010X-0.000010X0.000010X0*%
%ADD64RoundRect,0.101600X0.400000X-0.800000X0.400000X0.800000X-0.400000X0.800000X-0.400000X-0.800000X0*%
%ADD65RoundRect,0.101600X-0.400000X0.800000X-0.400000X-0.800000X0.400000X-0.800000X0.400000X0.800000X0*%
%ADD66RoundRect,0.101600X-0.800000X0.200000X-0.800000X-0.200000X0.800000X-0.200000X0.800000X0.200000X0*%
%ADD67RoundRect,0.101600X0.800000X-0.200000X0.800000X0.200000X-0.800000X0.200000X-0.800000X-0.200000X0*%
%ADD68RoundRect,0.101600X0.901500X-0.800000X0.901500X0.800000X-0.901500X0.800000X-0.901500X-0.800000X0*%
G04 APERTURE END LIST*
D10*
X111645126Y-175567470D02*
X111501193Y-175639436D01*
X111501193Y-175639436D02*
X111213326Y-175639436D01*
X111213326Y-175639436D02*
X111069393Y-175567470D01*
X111069393Y-175567470D02*
X110997426Y-175423536D01*
X110997426Y-175423536D02*
X110997426Y-174847803D01*
X110997426Y-174847803D02*
X111069393Y-174703870D01*
X111069393Y-174703870D02*
X111213326Y-174631903D01*
X111213326Y-174631903D02*
X111501193Y-174631903D01*
X111501193Y-174631903D02*
X111645126Y-174703870D01*
X111645126Y-174703870D02*
X111717093Y-174847803D01*
X111717093Y-174847803D02*
X111717093Y-174991736D01*
X111717093Y-174991736D02*
X110997426Y-175135670D01*
X111501193Y-174056170D02*
X111285293Y-174272070D01*
X113012493Y-175567470D02*
X112868560Y-175639436D01*
X112868560Y-175639436D02*
X112580693Y-175639436D01*
X112580693Y-175639436D02*
X112436760Y-175567470D01*
X112436760Y-175567470D02*
X112364793Y-175495503D01*
X112364793Y-175495503D02*
X112292826Y-175351570D01*
X112292826Y-175351570D02*
X112292826Y-174919770D01*
X112292826Y-174919770D02*
X112364793Y-174775836D01*
X112364793Y-174775836D02*
X112436760Y-174703870D01*
X112436760Y-174703870D02*
X112580693Y-174631903D01*
X112580693Y-174631903D02*
X112868560Y-174631903D01*
X112868560Y-174631903D02*
X113012493Y-174703870D01*
X113876093Y-175639436D02*
X113732160Y-175567470D01*
X113732160Y-175567470D02*
X113660193Y-175423536D01*
X113660193Y-175423536D02*
X113660193Y-174128136D01*
X115099526Y-175639436D02*
X115099526Y-174847803D01*
X115099526Y-174847803D02*
X115027559Y-174703870D01*
X115027559Y-174703870D02*
X114883626Y-174631903D01*
X114883626Y-174631903D02*
X114595759Y-174631903D01*
X114595759Y-174631903D02*
X114451826Y-174703870D01*
X115099526Y-175567470D02*
X114955593Y-175639436D01*
X114955593Y-175639436D02*
X114595759Y-175639436D01*
X114595759Y-175639436D02*
X114451826Y-175567470D01*
X114451826Y-175567470D02*
X114379859Y-175423536D01*
X114379859Y-175423536D02*
X114379859Y-175279603D01*
X114379859Y-175279603D02*
X114451826Y-175135670D01*
X114451826Y-175135670D02*
X114595759Y-175063703D01*
X114595759Y-175063703D02*
X114955593Y-175063703D01*
X114955593Y-175063703D02*
X115099526Y-174991736D01*
X115819193Y-175639436D02*
X115819193Y-174631903D01*
X115819193Y-174128136D02*
X115747226Y-174200103D01*
X115747226Y-174200103D02*
X115819193Y-174272070D01*
X115819193Y-174272070D02*
X115891160Y-174200103D01*
X115891160Y-174200103D02*
X115819193Y-174128136D01*
X115819193Y-174128136D02*
X115819193Y-174272070D01*
X116538860Y-175639436D02*
X116538860Y-174631903D01*
X116538860Y-174919770D02*
X116610827Y-174775836D01*
X116610827Y-174775836D02*
X116682793Y-174703870D01*
X116682793Y-174703870D02*
X116826727Y-174631903D01*
X116826727Y-174631903D02*
X116970660Y-174631903D01*
X118050160Y-175567470D02*
X117906227Y-175639436D01*
X117906227Y-175639436D02*
X117618360Y-175639436D01*
X117618360Y-175639436D02*
X117474427Y-175567470D01*
X117474427Y-175567470D02*
X117402460Y-175423536D01*
X117402460Y-175423536D02*
X117402460Y-174847803D01*
X117402460Y-174847803D02*
X117474427Y-174703870D01*
X117474427Y-174703870D02*
X117618360Y-174631903D01*
X117618360Y-174631903D02*
X117906227Y-174631903D01*
X117906227Y-174631903D02*
X118050160Y-174703870D01*
X118050160Y-174703870D02*
X118122127Y-174847803D01*
X118122127Y-174847803D02*
X118122127Y-174991736D01*
X118122127Y-174991736D02*
X117402460Y-175135670D01*
X119777361Y-174128136D02*
X120784894Y-175639436D01*
X120784894Y-174128136D02*
X119777361Y-175639436D01*
X122080294Y-175639436D02*
X121360627Y-175639436D01*
X121360627Y-175639436D02*
X121360627Y-174128136D01*
X110853493Y-176561244D02*
X111717093Y-176561244D01*
X111285293Y-178072544D02*
X111285293Y-176561244D01*
X112220860Y-178072544D02*
X112220860Y-176561244D01*
X112868560Y-178072544D02*
X112868560Y-177280911D01*
X112868560Y-177280911D02*
X112796593Y-177136978D01*
X112796593Y-177136978D02*
X112652660Y-177065011D01*
X112652660Y-177065011D02*
X112436760Y-177065011D01*
X112436760Y-177065011D02*
X112292827Y-177136978D01*
X112292827Y-177136978D02*
X112220860Y-177208944D01*
X114163960Y-178000578D02*
X114020027Y-178072544D01*
X114020027Y-178072544D02*
X113732160Y-178072544D01*
X113732160Y-178072544D02*
X113588227Y-178000578D01*
X113588227Y-178000578D02*
X113516260Y-177856644D01*
X113516260Y-177856644D02*
X113516260Y-177280911D01*
X113516260Y-177280911D02*
X113588227Y-177136978D01*
X113588227Y-177136978D02*
X113732160Y-177065011D01*
X113732160Y-177065011D02*
X114020027Y-177065011D01*
X114020027Y-177065011D02*
X114163960Y-177136978D01*
X114163960Y-177136978D02*
X114235927Y-177280911D01*
X114235927Y-177280911D02*
X114235927Y-177424844D01*
X114235927Y-177424844D02*
X113516260Y-177568778D01*
X116898694Y-177928611D02*
X116826727Y-178000578D01*
X116826727Y-178000578D02*
X116610827Y-178072544D01*
X116610827Y-178072544D02*
X116466894Y-178072544D01*
X116466894Y-178072544D02*
X116250994Y-178000578D01*
X116250994Y-178000578D02*
X116107061Y-177856644D01*
X116107061Y-177856644D02*
X116035094Y-177712711D01*
X116035094Y-177712711D02*
X115963127Y-177424844D01*
X115963127Y-177424844D02*
X115963127Y-177208944D01*
X115963127Y-177208944D02*
X116035094Y-176921078D01*
X116035094Y-176921078D02*
X116107061Y-176777144D01*
X116107061Y-176777144D02*
X116250994Y-176633211D01*
X116250994Y-176633211D02*
X116466894Y-176561244D01*
X116466894Y-176561244D02*
X116610827Y-176561244D01*
X116610827Y-176561244D02*
X116826727Y-176633211D01*
X116826727Y-176633211D02*
X116898694Y-176705178D01*
X117762294Y-178072544D02*
X117618361Y-178000578D01*
X117618361Y-178000578D02*
X117546394Y-177928611D01*
X117546394Y-177928611D02*
X117474427Y-177784678D01*
X117474427Y-177784678D02*
X117474427Y-177352878D01*
X117474427Y-177352878D02*
X117546394Y-177208944D01*
X117546394Y-177208944D02*
X117618361Y-177136978D01*
X117618361Y-177136978D02*
X117762294Y-177065011D01*
X117762294Y-177065011D02*
X117978194Y-177065011D01*
X117978194Y-177065011D02*
X118122127Y-177136978D01*
X118122127Y-177136978D02*
X118194094Y-177208944D01*
X118194094Y-177208944D02*
X118266061Y-177352878D01*
X118266061Y-177352878D02*
X118266061Y-177784678D01*
X118266061Y-177784678D02*
X118194094Y-177928611D01*
X118194094Y-177928611D02*
X118122127Y-178000578D01*
X118122127Y-178000578D02*
X117978194Y-178072544D01*
X117978194Y-178072544D02*
X117762294Y-178072544D01*
X118913761Y-178072544D02*
X118913761Y-177065011D01*
X118913761Y-177208944D02*
X118985728Y-177136978D01*
X118985728Y-177136978D02*
X119129661Y-177065011D01*
X119129661Y-177065011D02*
X119345561Y-177065011D01*
X119345561Y-177065011D02*
X119489494Y-177136978D01*
X119489494Y-177136978D02*
X119561461Y-177280911D01*
X119561461Y-177280911D02*
X119561461Y-178072544D01*
X119561461Y-177280911D02*
X119633428Y-177136978D01*
X119633428Y-177136978D02*
X119777361Y-177065011D01*
X119777361Y-177065011D02*
X119993261Y-177065011D01*
X119993261Y-177065011D02*
X120137194Y-177136978D01*
X120137194Y-177136978D02*
X120209161Y-177280911D01*
X120209161Y-177280911D02*
X120209161Y-178072544D01*
X120928828Y-177065011D02*
X120928828Y-178576311D01*
X120928828Y-177136978D02*
X121072761Y-177065011D01*
X121072761Y-177065011D02*
X121360628Y-177065011D01*
X121360628Y-177065011D02*
X121504561Y-177136978D01*
X121504561Y-177136978D02*
X121576528Y-177208944D01*
X121576528Y-177208944D02*
X121648495Y-177352878D01*
X121648495Y-177352878D02*
X121648495Y-177784678D01*
X121648495Y-177784678D02*
X121576528Y-177928611D01*
X121576528Y-177928611D02*
X121504561Y-178000578D01*
X121504561Y-178000578D02*
X121360628Y-178072544D01*
X121360628Y-178072544D02*
X121072761Y-178072544D01*
X121072761Y-178072544D02*
X120928828Y-178000578D01*
X122512095Y-178072544D02*
X122368162Y-178000578D01*
X122368162Y-178000578D02*
X122296195Y-177856644D01*
X122296195Y-177856644D02*
X122296195Y-176561244D01*
X123663561Y-178000578D02*
X123519628Y-178072544D01*
X123519628Y-178072544D02*
X123231761Y-178072544D01*
X123231761Y-178072544D02*
X123087828Y-178000578D01*
X123087828Y-178000578D02*
X123015861Y-177856644D01*
X123015861Y-177856644D02*
X123015861Y-177280911D01*
X123015861Y-177280911D02*
X123087828Y-177136978D01*
X123087828Y-177136978D02*
X123231761Y-177065011D01*
X123231761Y-177065011D02*
X123519628Y-177065011D01*
X123519628Y-177065011D02*
X123663561Y-177136978D01*
X123663561Y-177136978D02*
X123735528Y-177280911D01*
X123735528Y-177280911D02*
X123735528Y-177424844D01*
X123735528Y-177424844D02*
X123015861Y-177568778D01*
X124167328Y-177065011D02*
X124743061Y-177065011D01*
X124383228Y-176561244D02*
X124383228Y-177856644D01*
X124383228Y-177856644D02*
X124455195Y-178000578D01*
X124455195Y-178000578D02*
X124599128Y-178072544D01*
X124599128Y-178072544D02*
X124743061Y-178072544D01*
X125822561Y-178000578D02*
X125678628Y-178072544D01*
X125678628Y-178072544D02*
X125390761Y-178072544D01*
X125390761Y-178072544D02*
X125246828Y-178000578D01*
X125246828Y-178000578D02*
X125174861Y-177856644D01*
X125174861Y-177856644D02*
X125174861Y-177280911D01*
X125174861Y-177280911D02*
X125246828Y-177136978D01*
X125246828Y-177136978D02*
X125390761Y-177065011D01*
X125390761Y-177065011D02*
X125678628Y-177065011D01*
X125678628Y-177065011D02*
X125822561Y-177136978D01*
X125822561Y-177136978D02*
X125894528Y-177280911D01*
X125894528Y-177280911D02*
X125894528Y-177424844D01*
X125894528Y-177424844D02*
X125174861Y-177568778D01*
X127909595Y-177208944D02*
X127765662Y-177136978D01*
X127765662Y-177136978D02*
X127693695Y-177065011D01*
X127693695Y-177065011D02*
X127621728Y-176921078D01*
X127621728Y-176921078D02*
X127621728Y-176849111D01*
X127621728Y-176849111D02*
X127693695Y-176705178D01*
X127693695Y-176705178D02*
X127765662Y-176633211D01*
X127765662Y-176633211D02*
X127909595Y-176561244D01*
X127909595Y-176561244D02*
X128197462Y-176561244D01*
X128197462Y-176561244D02*
X128341395Y-176633211D01*
X128341395Y-176633211D02*
X128413362Y-176705178D01*
X128413362Y-176705178D02*
X128485328Y-176849111D01*
X128485328Y-176849111D02*
X128485328Y-176921078D01*
X128485328Y-176921078D02*
X128413362Y-177065011D01*
X128413362Y-177065011D02*
X128341395Y-177136978D01*
X128341395Y-177136978D02*
X128197462Y-177208944D01*
X128197462Y-177208944D02*
X127909595Y-177208944D01*
X127909595Y-177208944D02*
X127765662Y-177280911D01*
X127765662Y-177280911D02*
X127693695Y-177352878D01*
X127693695Y-177352878D02*
X127621728Y-177496811D01*
X127621728Y-177496811D02*
X127621728Y-177784678D01*
X127621728Y-177784678D02*
X127693695Y-177928611D01*
X127693695Y-177928611D02*
X127765662Y-178000578D01*
X127765662Y-178000578D02*
X127909595Y-178072544D01*
X127909595Y-178072544D02*
X128197462Y-178072544D01*
X128197462Y-178072544D02*
X128341395Y-178000578D01*
X128341395Y-178000578D02*
X128413362Y-177928611D01*
X128413362Y-177928611D02*
X128485328Y-177784678D01*
X128485328Y-177784678D02*
X128485328Y-177496811D01*
X128485328Y-177496811D02*
X128413362Y-177352878D01*
X128413362Y-177352878D02*
X128341395Y-177280911D01*
X128341395Y-177280911D02*
X128197462Y-177208944D01*
X129133028Y-177496811D02*
X130284495Y-177496811D01*
X131004161Y-178072544D02*
X131004161Y-176561244D01*
X131004161Y-177136978D02*
X131148094Y-177065011D01*
X131148094Y-177065011D02*
X131435961Y-177065011D01*
X131435961Y-177065011D02*
X131579894Y-177136978D01*
X131579894Y-177136978D02*
X131651861Y-177208944D01*
X131651861Y-177208944D02*
X131723828Y-177352878D01*
X131723828Y-177352878D02*
X131723828Y-177784678D01*
X131723828Y-177784678D02*
X131651861Y-177928611D01*
X131651861Y-177928611D02*
X131579894Y-178000578D01*
X131579894Y-178000578D02*
X131435961Y-178072544D01*
X131435961Y-178072544D02*
X131148094Y-178072544D01*
X131148094Y-178072544D02*
X131004161Y-178000578D01*
X132371528Y-178072544D02*
X132371528Y-177065011D01*
X132371528Y-176561244D02*
X132299561Y-176633211D01*
X132299561Y-176633211D02*
X132371528Y-176705178D01*
X132371528Y-176705178D02*
X132443495Y-176633211D01*
X132443495Y-176633211D02*
X132371528Y-176561244D01*
X132371528Y-176561244D02*
X132371528Y-176705178D01*
X132875295Y-177065011D02*
X133451028Y-177065011D01*
X133091195Y-176561244D02*
X133091195Y-177856644D01*
X133091195Y-177856644D02*
X133163162Y-178000578D01*
X133163162Y-178000578D02*
X133307095Y-178072544D01*
X133307095Y-178072544D02*
X133451028Y-178072544D01*
X137409196Y-178072544D02*
X137409196Y-176561244D01*
X137409196Y-177280911D02*
X138272796Y-177280911D01*
X138272796Y-178072544D02*
X138272796Y-176561244D01*
X139640163Y-178072544D02*
X139640163Y-177280911D01*
X139640163Y-177280911D02*
X139568196Y-177136978D01*
X139568196Y-177136978D02*
X139424263Y-177065011D01*
X139424263Y-177065011D02*
X139136396Y-177065011D01*
X139136396Y-177065011D02*
X138992463Y-177136978D01*
X139640163Y-178000578D02*
X139496230Y-178072544D01*
X139496230Y-178072544D02*
X139136396Y-178072544D01*
X139136396Y-178072544D02*
X138992463Y-178000578D01*
X138992463Y-178000578D02*
X138920496Y-177856644D01*
X138920496Y-177856644D02*
X138920496Y-177712711D01*
X138920496Y-177712711D02*
X138992463Y-177568778D01*
X138992463Y-177568778D02*
X139136396Y-177496811D01*
X139136396Y-177496811D02*
X139496230Y-177496811D01*
X139496230Y-177496811D02*
X139640163Y-177424844D01*
X140359830Y-178072544D02*
X140359830Y-177065011D01*
X140359830Y-177352878D02*
X140431797Y-177208944D01*
X140431797Y-177208944D02*
X140503763Y-177136978D01*
X140503763Y-177136978D02*
X140647697Y-177065011D01*
X140647697Y-177065011D02*
X140791630Y-177065011D01*
X141943097Y-178072544D02*
X141943097Y-176561244D01*
X141943097Y-178000578D02*
X141799164Y-178072544D01*
X141799164Y-178072544D02*
X141511297Y-178072544D01*
X141511297Y-178072544D02*
X141367364Y-178000578D01*
X141367364Y-178000578D02*
X141295397Y-177928611D01*
X141295397Y-177928611D02*
X141223430Y-177784678D01*
X141223430Y-177784678D02*
X141223430Y-177352878D01*
X141223430Y-177352878D02*
X141295397Y-177208944D01*
X141295397Y-177208944D02*
X141367364Y-177136978D01*
X141367364Y-177136978D02*
X141511297Y-177065011D01*
X141511297Y-177065011D02*
X141799164Y-177065011D01*
X141799164Y-177065011D02*
X141943097Y-177136978D01*
X142518831Y-177065011D02*
X142806697Y-178072544D01*
X142806697Y-178072544D02*
X143094564Y-177352878D01*
X143094564Y-177352878D02*
X143382431Y-178072544D01*
X143382431Y-178072544D02*
X143670297Y-177065011D01*
X144893731Y-178072544D02*
X144893731Y-177280911D01*
X144893731Y-177280911D02*
X144821764Y-177136978D01*
X144821764Y-177136978D02*
X144677831Y-177065011D01*
X144677831Y-177065011D02*
X144389964Y-177065011D01*
X144389964Y-177065011D02*
X144246031Y-177136978D01*
X144893731Y-178000578D02*
X144749798Y-178072544D01*
X144749798Y-178072544D02*
X144389964Y-178072544D01*
X144389964Y-178072544D02*
X144246031Y-178000578D01*
X144246031Y-178000578D02*
X144174064Y-177856644D01*
X144174064Y-177856644D02*
X144174064Y-177712711D01*
X144174064Y-177712711D02*
X144246031Y-177568778D01*
X144246031Y-177568778D02*
X144389964Y-177496811D01*
X144389964Y-177496811D02*
X144749798Y-177496811D01*
X144749798Y-177496811D02*
X144893731Y-177424844D01*
X145613398Y-178072544D02*
X145613398Y-177065011D01*
X145613398Y-177352878D02*
X145685365Y-177208944D01*
X145685365Y-177208944D02*
X145757331Y-177136978D01*
X145757331Y-177136978D02*
X145901265Y-177065011D01*
X145901265Y-177065011D02*
X146045198Y-177065011D01*
X147124698Y-178000578D02*
X146980765Y-178072544D01*
X146980765Y-178072544D02*
X146692898Y-178072544D01*
X146692898Y-178072544D02*
X146548965Y-178000578D01*
X146548965Y-178000578D02*
X146476998Y-177856644D01*
X146476998Y-177856644D02*
X146476998Y-177280911D01*
X146476998Y-177280911D02*
X146548965Y-177136978D01*
X146548965Y-177136978D02*
X146692898Y-177065011D01*
X146692898Y-177065011D02*
X146980765Y-177065011D01*
X146980765Y-177065011D02*
X147124698Y-177136978D01*
X147124698Y-177136978D02*
X147196665Y-177280911D01*
X147196665Y-177280911D02*
X147196665Y-177424844D01*
X147196665Y-177424844D02*
X146476998Y-177568778D01*
X111501193Y-181081386D02*
X111429226Y-181009419D01*
X111429226Y-181009419D02*
X111285293Y-180793519D01*
X111285293Y-180793519D02*
X111213326Y-180649586D01*
X111213326Y-180649586D02*
X111141360Y-180433686D01*
X111141360Y-180433686D02*
X111069393Y-180073852D01*
X111069393Y-180073852D02*
X111069393Y-179785986D01*
X111069393Y-179785986D02*
X111141360Y-179426152D01*
X111141360Y-179426152D02*
X111213326Y-179210252D01*
X111213326Y-179210252D02*
X111285293Y-179066319D01*
X111285293Y-179066319D02*
X111429226Y-178850419D01*
X111429226Y-178850419D02*
X111501193Y-178778452D01*
X112724626Y-180433686D02*
X112580693Y-180505652D01*
X112580693Y-180505652D02*
X112292826Y-180505652D01*
X112292826Y-180505652D02*
X112148893Y-180433686D01*
X112148893Y-180433686D02*
X112076926Y-180361719D01*
X112076926Y-180361719D02*
X112004959Y-180217786D01*
X112004959Y-180217786D02*
X112004959Y-179785986D01*
X112004959Y-179785986D02*
X112076926Y-179642052D01*
X112076926Y-179642052D02*
X112148893Y-179570086D01*
X112148893Y-179570086D02*
X112292826Y-179498119D01*
X112292826Y-179498119D02*
X112580693Y-179498119D01*
X112580693Y-179498119D02*
X112724626Y-179570086D01*
X113228393Y-181081386D02*
X113300359Y-181009419D01*
X113300359Y-181009419D02*
X113444293Y-180793519D01*
X113444293Y-180793519D02*
X113516259Y-180649586D01*
X113516259Y-180649586D02*
X113588226Y-180433686D01*
X113588226Y-180433686D02*
X113660193Y-180073852D01*
X113660193Y-180073852D02*
X113660193Y-179785986D01*
X113660193Y-179785986D02*
X113588226Y-179426152D01*
X113588226Y-179426152D02*
X113516259Y-179210252D01*
X113516259Y-179210252D02*
X113444293Y-179066319D01*
X113444293Y-179066319D02*
X113300359Y-178850419D01*
X113300359Y-178850419D02*
X113228393Y-178778452D01*
X114307892Y-179138286D02*
X114379859Y-179066319D01*
X114379859Y-179066319D02*
X114523792Y-178994352D01*
X114523792Y-178994352D02*
X114883626Y-178994352D01*
X114883626Y-178994352D02*
X115027559Y-179066319D01*
X115027559Y-179066319D02*
X115099526Y-179138286D01*
X115099526Y-179138286D02*
X115171492Y-179282219D01*
X115171492Y-179282219D02*
X115171492Y-179426152D01*
X115171492Y-179426152D02*
X115099526Y-179642052D01*
X115099526Y-179642052D02*
X114235926Y-180505652D01*
X114235926Y-180505652D02*
X115171492Y-180505652D01*
X116107059Y-178994352D02*
X116250992Y-178994352D01*
X116250992Y-178994352D02*
X116394925Y-179066319D01*
X116394925Y-179066319D02*
X116466892Y-179138286D01*
X116466892Y-179138286D02*
X116538859Y-179282219D01*
X116538859Y-179282219D02*
X116610825Y-179570086D01*
X116610825Y-179570086D02*
X116610825Y-179929919D01*
X116610825Y-179929919D02*
X116538859Y-180217786D01*
X116538859Y-180217786D02*
X116466892Y-180361719D01*
X116466892Y-180361719D02*
X116394925Y-180433686D01*
X116394925Y-180433686D02*
X116250992Y-180505652D01*
X116250992Y-180505652D02*
X116107059Y-180505652D01*
X116107059Y-180505652D02*
X115963125Y-180433686D01*
X115963125Y-180433686D02*
X115891159Y-180361719D01*
X115891159Y-180361719D02*
X115819192Y-180217786D01*
X115819192Y-180217786D02*
X115747225Y-179929919D01*
X115747225Y-179929919D02*
X115747225Y-179570086D01*
X115747225Y-179570086D02*
X115819192Y-179282219D01*
X115819192Y-179282219D02*
X115891159Y-179138286D01*
X115891159Y-179138286D02*
X115963125Y-179066319D01*
X115963125Y-179066319D02*
X116107059Y-178994352D01*
X118050158Y-180505652D02*
X117186558Y-180505652D01*
X117618358Y-180505652D02*
X117618358Y-178994352D01*
X117618358Y-178994352D02*
X117474425Y-179210252D01*
X117474425Y-179210252D02*
X117330492Y-179354186D01*
X117330492Y-179354186D02*
X117186558Y-179426152D01*
X119345558Y-178994352D02*
X119057691Y-178994352D01*
X119057691Y-178994352D02*
X118913758Y-179066319D01*
X118913758Y-179066319D02*
X118841791Y-179138286D01*
X118841791Y-179138286D02*
X118697858Y-179354186D01*
X118697858Y-179354186D02*
X118625891Y-179642052D01*
X118625891Y-179642052D02*
X118625891Y-180217786D01*
X118625891Y-180217786D02*
X118697858Y-180361719D01*
X118697858Y-180361719D02*
X118769825Y-180433686D01*
X118769825Y-180433686D02*
X118913758Y-180505652D01*
X118913758Y-180505652D02*
X119201625Y-180505652D01*
X119201625Y-180505652D02*
X119345558Y-180433686D01*
X119345558Y-180433686D02*
X119417525Y-180361719D01*
X119417525Y-180361719D02*
X119489491Y-180217786D01*
X119489491Y-180217786D02*
X119489491Y-179857952D01*
X119489491Y-179857952D02*
X119417525Y-179714019D01*
X119417525Y-179714019D02*
X119345558Y-179642052D01*
X119345558Y-179642052D02*
X119201625Y-179570086D01*
X119201625Y-179570086D02*
X118913758Y-179570086D01*
X118913758Y-179570086D02*
X118769825Y-179642052D01*
X118769825Y-179642052D02*
X118697858Y-179714019D01*
X118697858Y-179714019D02*
X118625891Y-179857952D01*
X121288658Y-180505652D02*
X121288658Y-178994352D01*
X121288658Y-179570086D02*
X121432591Y-179498119D01*
X121432591Y-179498119D02*
X121720458Y-179498119D01*
X121720458Y-179498119D02*
X121864391Y-179570086D01*
X121864391Y-179570086D02*
X121936358Y-179642052D01*
X121936358Y-179642052D02*
X122008325Y-179785986D01*
X122008325Y-179785986D02*
X122008325Y-180217786D01*
X122008325Y-180217786D02*
X121936358Y-180361719D01*
X121936358Y-180361719D02*
X121864391Y-180433686D01*
X121864391Y-180433686D02*
X121720458Y-180505652D01*
X121720458Y-180505652D02*
X121432591Y-180505652D01*
X121432591Y-180505652D02*
X121288658Y-180433686D01*
X122512092Y-179498119D02*
X122871925Y-180505652D01*
X123231758Y-179498119D02*
X122871925Y-180505652D01*
X122871925Y-180505652D02*
X122727992Y-180865486D01*
X122727992Y-180865486D02*
X122656025Y-180937452D01*
X122656025Y-180937452D02*
X122512092Y-181009419D01*
X124958959Y-180505652D02*
X124958959Y-178994352D01*
X124958959Y-178994352D02*
X125462726Y-180073852D01*
X125462726Y-180073852D02*
X125966492Y-178994352D01*
X125966492Y-178994352D02*
X125966492Y-180505652D01*
X127333859Y-180505652D02*
X127333859Y-179714019D01*
X127333859Y-179714019D02*
X127261892Y-179570086D01*
X127261892Y-179570086D02*
X127117959Y-179498119D01*
X127117959Y-179498119D02*
X126830092Y-179498119D01*
X126830092Y-179498119D02*
X126686159Y-179570086D01*
X127333859Y-180433686D02*
X127189926Y-180505652D01*
X127189926Y-180505652D02*
X126830092Y-180505652D01*
X126830092Y-180505652D02*
X126686159Y-180433686D01*
X126686159Y-180433686D02*
X126614192Y-180289752D01*
X126614192Y-180289752D02*
X126614192Y-180145819D01*
X126614192Y-180145819D02*
X126686159Y-180001886D01*
X126686159Y-180001886D02*
X126830092Y-179929919D01*
X126830092Y-179929919D02*
X127189926Y-179929919D01*
X127189926Y-179929919D02*
X127333859Y-179857952D01*
X128053526Y-180505652D02*
X128053526Y-179498119D01*
X128053526Y-179785986D02*
X128125493Y-179642052D01*
X128125493Y-179642052D02*
X128197459Y-179570086D01*
X128197459Y-179570086D02*
X128341393Y-179498119D01*
X128341393Y-179498119D02*
X128485326Y-179498119D01*
X128989093Y-180505652D02*
X128989093Y-178994352D01*
X129133026Y-179929919D02*
X129564826Y-180505652D01*
X129564826Y-179498119D02*
X128989093Y-180073852D01*
X131220060Y-178994352D02*
X131579893Y-180505652D01*
X131579893Y-180505652D02*
X131867760Y-179426152D01*
X131867760Y-179426152D02*
X132155626Y-180505652D01*
X132155626Y-180505652D02*
X132515460Y-178994352D01*
X133738893Y-180505652D02*
X133738893Y-179714019D01*
X133738893Y-179714019D02*
X133666926Y-179570086D01*
X133666926Y-179570086D02*
X133522993Y-179498119D01*
X133522993Y-179498119D02*
X133235126Y-179498119D01*
X133235126Y-179498119D02*
X133091193Y-179570086D01*
X133738893Y-180433686D02*
X133594960Y-180505652D01*
X133594960Y-180505652D02*
X133235126Y-180505652D01*
X133235126Y-180505652D02*
X133091193Y-180433686D01*
X133091193Y-180433686D02*
X133019226Y-180289752D01*
X133019226Y-180289752D02*
X133019226Y-180145819D01*
X133019226Y-180145819D02*
X133091193Y-180001886D01*
X133091193Y-180001886D02*
X133235126Y-179929919D01*
X133235126Y-179929919D02*
X133594960Y-179929919D01*
X133594960Y-179929919D02*
X133738893Y-179857952D01*
X134242660Y-179498119D02*
X134818393Y-179498119D01*
X134458560Y-178994352D02*
X134458560Y-180289752D01*
X134458560Y-180289752D02*
X134530527Y-180433686D01*
X134530527Y-180433686D02*
X134674460Y-180505652D01*
X134674460Y-180505652D02*
X134818393Y-180505652D01*
X135250193Y-180433686D02*
X135394127Y-180505652D01*
X135394127Y-180505652D02*
X135681993Y-180505652D01*
X135681993Y-180505652D02*
X135825927Y-180433686D01*
X135825927Y-180433686D02*
X135897893Y-180289752D01*
X135897893Y-180289752D02*
X135897893Y-180217786D01*
X135897893Y-180217786D02*
X135825927Y-180073852D01*
X135825927Y-180073852D02*
X135681993Y-180001886D01*
X135681993Y-180001886D02*
X135466093Y-180001886D01*
X135466093Y-180001886D02*
X135322160Y-179929919D01*
X135322160Y-179929919D02*
X135250193Y-179785986D01*
X135250193Y-179785986D02*
X135250193Y-179714019D01*
X135250193Y-179714019D02*
X135322160Y-179570086D01*
X135322160Y-179570086D02*
X135466093Y-179498119D01*
X135466093Y-179498119D02*
X135681993Y-179498119D01*
X135681993Y-179498119D02*
X135825927Y-179570086D01*
X136761493Y-180505652D02*
X136617560Y-180433686D01*
X136617560Y-180433686D02*
X136545593Y-180361719D01*
X136545593Y-180361719D02*
X136473626Y-180217786D01*
X136473626Y-180217786D02*
X136473626Y-179785986D01*
X136473626Y-179785986D02*
X136545593Y-179642052D01*
X136545593Y-179642052D02*
X136617560Y-179570086D01*
X136617560Y-179570086D02*
X136761493Y-179498119D01*
X136761493Y-179498119D02*
X136977393Y-179498119D01*
X136977393Y-179498119D02*
X137121326Y-179570086D01*
X137121326Y-179570086D02*
X137193293Y-179642052D01*
X137193293Y-179642052D02*
X137265260Y-179785986D01*
X137265260Y-179785986D02*
X137265260Y-180217786D01*
X137265260Y-180217786D02*
X137193293Y-180361719D01*
X137193293Y-180361719D02*
X137121326Y-180433686D01*
X137121326Y-180433686D02*
X136977393Y-180505652D01*
X136977393Y-180505652D02*
X136761493Y-180505652D01*
X137912960Y-179498119D02*
X137912960Y-180505652D01*
X137912960Y-179642052D02*
X137984927Y-179570086D01*
X137984927Y-179570086D02*
X138128860Y-179498119D01*
X138128860Y-179498119D02*
X138344760Y-179498119D01*
X138344760Y-179498119D02*
X138488693Y-179570086D01*
X138488693Y-179570086D02*
X138560660Y-179714019D01*
X138560660Y-179714019D02*
X138560660Y-180505652D01*
X111069393Y-182938760D02*
X111069393Y-181427460D01*
X111069393Y-181427460D02*
X111645126Y-181427460D01*
X111645126Y-181427460D02*
X111789060Y-181499427D01*
X111789060Y-181499427D02*
X111861026Y-181571394D01*
X111861026Y-181571394D02*
X111932993Y-181715327D01*
X111932993Y-181715327D02*
X111932993Y-181931227D01*
X111932993Y-181931227D02*
X111861026Y-182075160D01*
X111861026Y-182075160D02*
X111789060Y-182147127D01*
X111789060Y-182147127D02*
X111645126Y-182219094D01*
X111645126Y-182219094D02*
X111069393Y-182219094D01*
X113444293Y-182794827D02*
X113372326Y-182866794D01*
X113372326Y-182866794D02*
X113156426Y-182938760D01*
X113156426Y-182938760D02*
X113012493Y-182938760D01*
X113012493Y-182938760D02*
X112796593Y-182866794D01*
X112796593Y-182866794D02*
X112652660Y-182722860D01*
X112652660Y-182722860D02*
X112580693Y-182578927D01*
X112580693Y-182578927D02*
X112508726Y-182291060D01*
X112508726Y-182291060D02*
X112508726Y-182075160D01*
X112508726Y-182075160D02*
X112580693Y-181787294D01*
X112580693Y-181787294D02*
X112652660Y-181643360D01*
X112652660Y-181643360D02*
X112796593Y-181499427D01*
X112796593Y-181499427D02*
X113012493Y-181427460D01*
X113012493Y-181427460D02*
X113156426Y-181427460D01*
X113156426Y-181427460D02*
X113372326Y-181499427D01*
X113372326Y-181499427D02*
X113444293Y-181571394D01*
X114595760Y-182147127D02*
X114811660Y-182219094D01*
X114811660Y-182219094D02*
X114883626Y-182291060D01*
X114883626Y-182291060D02*
X114955593Y-182434994D01*
X114955593Y-182434994D02*
X114955593Y-182650894D01*
X114955593Y-182650894D02*
X114883626Y-182794827D01*
X114883626Y-182794827D02*
X114811660Y-182866794D01*
X114811660Y-182866794D02*
X114667726Y-182938760D01*
X114667726Y-182938760D02*
X114091993Y-182938760D01*
X114091993Y-182938760D02*
X114091993Y-181427460D01*
X114091993Y-181427460D02*
X114595760Y-181427460D01*
X114595760Y-181427460D02*
X114739693Y-181499427D01*
X114739693Y-181499427D02*
X114811660Y-181571394D01*
X114811660Y-181571394D02*
X114883626Y-181715327D01*
X114883626Y-181715327D02*
X114883626Y-181859260D01*
X114883626Y-181859260D02*
X114811660Y-182003194D01*
X114811660Y-182003194D02*
X114739693Y-182075160D01*
X114739693Y-182075160D02*
X114595760Y-182147127D01*
X114595760Y-182147127D02*
X114091993Y-182147127D01*
X117618360Y-182938760D02*
X117114593Y-182219094D01*
X116754760Y-182938760D02*
X116754760Y-181427460D01*
X116754760Y-181427460D02*
X117330493Y-181427460D01*
X117330493Y-181427460D02*
X117474427Y-181499427D01*
X117474427Y-181499427D02*
X117546393Y-181571394D01*
X117546393Y-181571394D02*
X117618360Y-181715327D01*
X117618360Y-181715327D02*
X117618360Y-181931227D01*
X117618360Y-181931227D02*
X117546393Y-182075160D01*
X117546393Y-182075160D02*
X117474427Y-182147127D01*
X117474427Y-182147127D02*
X117330493Y-182219094D01*
X117330493Y-182219094D02*
X116754760Y-182219094D01*
X118841793Y-182866794D02*
X118697860Y-182938760D01*
X118697860Y-182938760D02*
X118409993Y-182938760D01*
X118409993Y-182938760D02*
X118266060Y-182866794D01*
X118266060Y-182866794D02*
X118194093Y-182722860D01*
X118194093Y-182722860D02*
X118194093Y-182147127D01*
X118194093Y-182147127D02*
X118266060Y-182003194D01*
X118266060Y-182003194D02*
X118409993Y-181931227D01*
X118409993Y-181931227D02*
X118697860Y-181931227D01*
X118697860Y-181931227D02*
X118841793Y-182003194D01*
X118841793Y-182003194D02*
X118913760Y-182147127D01*
X118913760Y-182147127D02*
X118913760Y-182291060D01*
X118913760Y-182291060D02*
X118194093Y-182434994D01*
X119561460Y-182938760D02*
X119561460Y-181931227D01*
X119561460Y-182219094D02*
X119633427Y-182075160D01*
X119633427Y-182075160D02*
X119705393Y-182003194D01*
X119705393Y-182003194D02*
X119849327Y-181931227D01*
X119849327Y-181931227D02*
X119993260Y-181931227D01*
X120712927Y-182938760D02*
X120568994Y-182866794D01*
X120568994Y-182866794D02*
X120497027Y-182794827D01*
X120497027Y-182794827D02*
X120425060Y-182650894D01*
X120425060Y-182650894D02*
X120425060Y-182219094D01*
X120425060Y-182219094D02*
X120497027Y-182075160D01*
X120497027Y-182075160D02*
X120568994Y-182003194D01*
X120568994Y-182003194D02*
X120712927Y-181931227D01*
X120712927Y-181931227D02*
X120928827Y-181931227D01*
X120928827Y-181931227D02*
X121072760Y-182003194D01*
X121072760Y-182003194D02*
X121144727Y-182075160D01*
X121144727Y-182075160D02*
X121216694Y-182219094D01*
X121216694Y-182219094D02*
X121216694Y-182650894D01*
X121216694Y-182650894D02*
X121144727Y-182794827D01*
X121144727Y-182794827D02*
X121072760Y-182866794D01*
X121072760Y-182866794D02*
X120928827Y-182938760D01*
X120928827Y-182938760D02*
X120712927Y-182938760D01*
X122512094Y-181931227D02*
X122512094Y-182938760D01*
X121864394Y-181931227D02*
X121864394Y-182722860D01*
X121864394Y-182722860D02*
X121936361Y-182866794D01*
X121936361Y-182866794D02*
X122080294Y-182938760D01*
X122080294Y-182938760D02*
X122296194Y-182938760D01*
X122296194Y-182938760D02*
X122440127Y-182866794D01*
X122440127Y-182866794D02*
X122512094Y-182794827D01*
X123015861Y-181931227D02*
X123591594Y-181931227D01*
X123231761Y-181427460D02*
X123231761Y-182722860D01*
X123231761Y-182722860D02*
X123303728Y-182866794D01*
X123303728Y-182866794D02*
X123447661Y-182938760D01*
X123447661Y-182938760D02*
X123591594Y-182938760D01*
X124671094Y-182866794D02*
X124527161Y-182938760D01*
X124527161Y-182938760D02*
X124239294Y-182938760D01*
X124239294Y-182938760D02*
X124095361Y-182866794D01*
X124095361Y-182866794D02*
X124023394Y-182722860D01*
X124023394Y-182722860D02*
X124023394Y-182147127D01*
X124023394Y-182147127D02*
X124095361Y-182003194D01*
X124095361Y-182003194D02*
X124239294Y-181931227D01*
X124239294Y-181931227D02*
X124527161Y-181931227D01*
X124527161Y-181931227D02*
X124671094Y-182003194D01*
X124671094Y-182003194D02*
X124743061Y-182147127D01*
X124743061Y-182147127D02*
X124743061Y-182291060D01*
X124743061Y-182291060D02*
X124023394Y-182434994D01*
X126542228Y-182938760D02*
X126542228Y-181427460D01*
X126542228Y-182003194D02*
X126686161Y-181931227D01*
X126686161Y-181931227D02*
X126974028Y-181931227D01*
X126974028Y-181931227D02*
X127117961Y-182003194D01*
X127117961Y-182003194D02*
X127189928Y-182075160D01*
X127189928Y-182075160D02*
X127261895Y-182219094D01*
X127261895Y-182219094D02*
X127261895Y-182650894D01*
X127261895Y-182650894D02*
X127189928Y-182794827D01*
X127189928Y-182794827D02*
X127117961Y-182866794D01*
X127117961Y-182866794D02*
X126974028Y-182938760D01*
X126974028Y-182938760D02*
X126686161Y-182938760D01*
X126686161Y-182938760D02*
X126542228Y-182866794D01*
X127765662Y-181931227D02*
X128125495Y-182938760D01*
X128485328Y-181931227D02*
X128125495Y-182938760D01*
X128125495Y-182938760D02*
X127981562Y-183298594D01*
X127981562Y-183298594D02*
X127909595Y-183370560D01*
X127909595Y-183370560D02*
X127765662Y-183442527D01*
X130212529Y-182938760D02*
X130212529Y-181427460D01*
X130212529Y-181427460D02*
X130788262Y-181427460D01*
X130788262Y-181427460D02*
X130932196Y-181499427D01*
X130932196Y-181499427D02*
X131004162Y-181571394D01*
X131004162Y-181571394D02*
X131076129Y-181715327D01*
X131076129Y-181715327D02*
X131076129Y-181931227D01*
X131076129Y-181931227D02*
X131004162Y-182075160D01*
X131004162Y-182075160D02*
X130932196Y-182147127D01*
X130932196Y-182147127D02*
X130788262Y-182219094D01*
X130788262Y-182219094D02*
X130212529Y-182219094D01*
X132371529Y-182938760D02*
X132371529Y-182147127D01*
X132371529Y-182147127D02*
X132299562Y-182003194D01*
X132299562Y-182003194D02*
X132155629Y-181931227D01*
X132155629Y-181931227D02*
X131867762Y-181931227D01*
X131867762Y-181931227D02*
X131723829Y-182003194D01*
X132371529Y-182866794D02*
X132227596Y-182938760D01*
X132227596Y-182938760D02*
X131867762Y-182938760D01*
X131867762Y-182938760D02*
X131723829Y-182866794D01*
X131723829Y-182866794D02*
X131651862Y-182722860D01*
X131651862Y-182722860D02*
X131651862Y-182578927D01*
X131651862Y-182578927D02*
X131723829Y-182434994D01*
X131723829Y-182434994D02*
X131867762Y-182363027D01*
X131867762Y-182363027D02*
X132227596Y-182363027D01*
X132227596Y-182363027D02*
X132371529Y-182291060D01*
X133091196Y-181931227D02*
X133091196Y-182938760D01*
X133091196Y-182075160D02*
X133163163Y-182003194D01*
X133163163Y-182003194D02*
X133307096Y-181931227D01*
X133307096Y-181931227D02*
X133522996Y-181931227D01*
X133522996Y-181931227D02*
X133666929Y-182003194D01*
X133666929Y-182003194D02*
X133738896Y-182147127D01*
X133738896Y-182147127D02*
X133738896Y-182938760D01*
X134674463Y-182938760D02*
X134530530Y-182866794D01*
X134530530Y-182866794D02*
X134458563Y-182794827D01*
X134458563Y-182794827D02*
X134386596Y-182650894D01*
X134386596Y-182650894D02*
X134386596Y-182219094D01*
X134386596Y-182219094D02*
X134458563Y-182075160D01*
X134458563Y-182075160D02*
X134530530Y-182003194D01*
X134530530Y-182003194D02*
X134674463Y-181931227D01*
X134674463Y-181931227D02*
X134890363Y-181931227D01*
X134890363Y-181931227D02*
X135034296Y-182003194D01*
X135034296Y-182003194D02*
X135106263Y-182075160D01*
X135106263Y-182075160D02*
X135178230Y-182219094D01*
X135178230Y-182219094D02*
X135178230Y-182650894D01*
X135178230Y-182650894D02*
X135106263Y-182794827D01*
X135106263Y-182794827D02*
X135034296Y-182866794D01*
X135034296Y-182866794D02*
X134890363Y-182938760D01*
X134890363Y-182938760D02*
X134674463Y-182938760D01*
X135753963Y-182866794D02*
X135897897Y-182938760D01*
X135897897Y-182938760D02*
X136185763Y-182938760D01*
X136185763Y-182938760D02*
X136329697Y-182866794D01*
X136329697Y-182866794D02*
X136401663Y-182722860D01*
X136401663Y-182722860D02*
X136401663Y-182650894D01*
X136401663Y-182650894D02*
X136329697Y-182506960D01*
X136329697Y-182506960D02*
X136185763Y-182434994D01*
X136185763Y-182434994D02*
X135969863Y-182434994D01*
X135969863Y-182434994D02*
X135825930Y-182363027D01*
X135825930Y-182363027D02*
X135753963Y-182219094D01*
X135753963Y-182219094D02*
X135753963Y-182147127D01*
X135753963Y-182147127D02*
X135825930Y-182003194D01*
X135825930Y-182003194D02*
X135969863Y-181931227D01*
X135969863Y-181931227D02*
X136185763Y-181931227D01*
X136185763Y-181931227D02*
X136329697Y-182003194D01*
X138128863Y-182866794D02*
X138344763Y-182938760D01*
X138344763Y-182938760D02*
X138704597Y-182938760D01*
X138704597Y-182938760D02*
X138848530Y-182866794D01*
X138848530Y-182866794D02*
X138920497Y-182794827D01*
X138920497Y-182794827D02*
X138992463Y-182650894D01*
X138992463Y-182650894D02*
X138992463Y-182506960D01*
X138992463Y-182506960D02*
X138920497Y-182363027D01*
X138920497Y-182363027D02*
X138848530Y-182291060D01*
X138848530Y-182291060D02*
X138704597Y-182219094D01*
X138704597Y-182219094D02*
X138416730Y-182147127D01*
X138416730Y-182147127D02*
X138272797Y-182075160D01*
X138272797Y-182075160D02*
X138200830Y-182003194D01*
X138200830Y-182003194D02*
X138128863Y-181859260D01*
X138128863Y-181859260D02*
X138128863Y-181715327D01*
X138128863Y-181715327D02*
X138200830Y-181571394D01*
X138200830Y-181571394D02*
X138272797Y-181499427D01*
X138272797Y-181499427D02*
X138416730Y-181427460D01*
X138416730Y-181427460D02*
X138776563Y-181427460D01*
X138776563Y-181427460D02*
X138992463Y-181499427D01*
X140287863Y-182938760D02*
X140287863Y-182147127D01*
X140287863Y-182147127D02*
X140215896Y-182003194D01*
X140215896Y-182003194D02*
X140071963Y-181931227D01*
X140071963Y-181931227D02*
X139784096Y-181931227D01*
X139784096Y-181931227D02*
X139640163Y-182003194D01*
X140287863Y-182866794D02*
X140143930Y-182938760D01*
X140143930Y-182938760D02*
X139784096Y-182938760D01*
X139784096Y-182938760D02*
X139640163Y-182866794D01*
X139640163Y-182866794D02*
X139568196Y-182722860D01*
X139568196Y-182722860D02*
X139568196Y-182578927D01*
X139568196Y-182578927D02*
X139640163Y-182434994D01*
X139640163Y-182434994D02*
X139784096Y-182363027D01*
X139784096Y-182363027D02*
X140143930Y-182363027D01*
X140143930Y-182363027D02*
X140287863Y-182291060D01*
X141007530Y-181931227D02*
X141007530Y-182938760D01*
X141007530Y-182075160D02*
X141079497Y-182003194D01*
X141079497Y-182003194D02*
X141223430Y-181931227D01*
X141223430Y-181931227D02*
X141439330Y-181931227D01*
X141439330Y-181931227D02*
X141583263Y-182003194D01*
X141583263Y-182003194D02*
X141655230Y-182147127D01*
X141655230Y-182147127D02*
X141655230Y-182938760D01*
X142158997Y-181931227D02*
X142734730Y-181931227D01*
X142374897Y-181427460D02*
X142374897Y-182722860D01*
X142374897Y-182722860D02*
X142446864Y-182866794D01*
X142446864Y-182866794D02*
X142590797Y-182938760D01*
X142590797Y-182938760D02*
X142734730Y-182938760D01*
X143454397Y-182938760D02*
X143310464Y-182866794D01*
X143310464Y-182866794D02*
X143238497Y-182794827D01*
X143238497Y-182794827D02*
X143166530Y-182650894D01*
X143166530Y-182650894D02*
X143166530Y-182219094D01*
X143166530Y-182219094D02*
X143238497Y-182075160D01*
X143238497Y-182075160D02*
X143310464Y-182003194D01*
X143310464Y-182003194D02*
X143454397Y-181931227D01*
X143454397Y-181931227D02*
X143670297Y-181931227D01*
X143670297Y-181931227D02*
X143814230Y-182003194D01*
X143814230Y-182003194D02*
X143886197Y-182075160D01*
X143886197Y-182075160D02*
X143958164Y-182219094D01*
X143958164Y-182219094D02*
X143958164Y-182650894D01*
X143958164Y-182650894D02*
X143886197Y-182794827D01*
X143886197Y-182794827D02*
X143814230Y-182866794D01*
X143814230Y-182866794D02*
X143670297Y-182938760D01*
X143670297Y-182938760D02*
X143454397Y-182938760D01*
X144533897Y-182866794D02*
X144677831Y-182938760D01*
X144677831Y-182938760D02*
X144965697Y-182938760D01*
X144965697Y-182938760D02*
X145109631Y-182866794D01*
X145109631Y-182866794D02*
X145181597Y-182722860D01*
X145181597Y-182722860D02*
X145181597Y-182650894D01*
X145181597Y-182650894D02*
X145109631Y-182506960D01*
X145109631Y-182506960D02*
X144965697Y-182434994D01*
X144965697Y-182434994D02*
X144749797Y-182434994D01*
X144749797Y-182434994D02*
X144605864Y-182363027D01*
X144605864Y-182363027D02*
X144533897Y-182219094D01*
X144533897Y-182219094D02*
X144533897Y-182147127D01*
X144533897Y-182147127D02*
X144605864Y-182003194D01*
X144605864Y-182003194D02*
X144749797Y-181931227D01*
X144749797Y-181931227D02*
X144965697Y-181931227D01*
X144965697Y-181931227D02*
X145109631Y-182003194D01*
X110853493Y-183860568D02*
X111717093Y-183860568D01*
X111285293Y-185371868D02*
X111285293Y-183860568D01*
X112220860Y-185371868D02*
X112220860Y-183860568D01*
X112868560Y-185371868D02*
X112868560Y-184580235D01*
X112868560Y-184580235D02*
X112796593Y-184436302D01*
X112796593Y-184436302D02*
X112652660Y-184364335D01*
X112652660Y-184364335D02*
X112436760Y-184364335D01*
X112436760Y-184364335D02*
X112292827Y-184436302D01*
X112292827Y-184436302D02*
X112220860Y-184508268D01*
X114235927Y-185371868D02*
X114235927Y-184580235D01*
X114235927Y-184580235D02*
X114163960Y-184436302D01*
X114163960Y-184436302D02*
X114020027Y-184364335D01*
X114020027Y-184364335D02*
X113732160Y-184364335D01*
X113732160Y-184364335D02*
X113588227Y-184436302D01*
X114235927Y-185299902D02*
X114091994Y-185371868D01*
X114091994Y-185371868D02*
X113732160Y-185371868D01*
X113732160Y-185371868D02*
X113588227Y-185299902D01*
X113588227Y-185299902D02*
X113516260Y-185155968D01*
X113516260Y-185155968D02*
X113516260Y-185012035D01*
X113516260Y-185012035D02*
X113588227Y-184868102D01*
X113588227Y-184868102D02*
X113732160Y-184796135D01*
X113732160Y-184796135D02*
X114091994Y-184796135D01*
X114091994Y-184796135D02*
X114235927Y-184724168D01*
X114955594Y-184364335D02*
X114955594Y-185371868D01*
X114955594Y-184508268D02*
X115027561Y-184436302D01*
X115027561Y-184436302D02*
X115171494Y-184364335D01*
X115171494Y-184364335D02*
X115387394Y-184364335D01*
X115387394Y-184364335D02*
X115531327Y-184436302D01*
X115531327Y-184436302D02*
X115603294Y-184580235D01*
X115603294Y-184580235D02*
X115603294Y-185371868D01*
X116322961Y-185371868D02*
X116322961Y-183860568D01*
X116466894Y-184796135D02*
X116898694Y-185371868D01*
X116898694Y-184364335D02*
X116322961Y-184940068D01*
X117474427Y-185299902D02*
X117618361Y-185371868D01*
X117618361Y-185371868D02*
X117906227Y-185371868D01*
X117906227Y-185371868D02*
X118050161Y-185299902D01*
X118050161Y-185299902D02*
X118122127Y-185155968D01*
X118122127Y-185155968D02*
X118122127Y-185084002D01*
X118122127Y-185084002D02*
X118050161Y-184940068D01*
X118050161Y-184940068D02*
X117906227Y-184868102D01*
X117906227Y-184868102D02*
X117690327Y-184868102D01*
X117690327Y-184868102D02*
X117546394Y-184796135D01*
X117546394Y-184796135D02*
X117474427Y-184652202D01*
X117474427Y-184652202D02*
X117474427Y-184580235D01*
X117474427Y-184580235D02*
X117546394Y-184436302D01*
X117546394Y-184436302D02*
X117690327Y-184364335D01*
X117690327Y-184364335D02*
X117906227Y-184364335D01*
X117906227Y-184364335D02*
X118050161Y-184436302D01*
X119705394Y-184364335D02*
X120281127Y-184364335D01*
X119921294Y-183860568D02*
X119921294Y-185155968D01*
X119921294Y-185155968D02*
X119993261Y-185299902D01*
X119993261Y-185299902D02*
X120137194Y-185371868D01*
X120137194Y-185371868D02*
X120281127Y-185371868D01*
X121000794Y-185371868D02*
X120856861Y-185299902D01*
X120856861Y-185299902D02*
X120784894Y-185227935D01*
X120784894Y-185227935D02*
X120712927Y-185084002D01*
X120712927Y-185084002D02*
X120712927Y-184652202D01*
X120712927Y-184652202D02*
X120784894Y-184508268D01*
X120784894Y-184508268D02*
X120856861Y-184436302D01*
X120856861Y-184436302D02*
X121000794Y-184364335D01*
X121000794Y-184364335D02*
X121216694Y-184364335D01*
X121216694Y-184364335D02*
X121360627Y-184436302D01*
X121360627Y-184436302D02*
X121432594Y-184508268D01*
X121432594Y-184508268D02*
X121504561Y-184652202D01*
X121504561Y-184652202D02*
X121504561Y-185084002D01*
X121504561Y-185084002D02*
X121432594Y-185227935D01*
X121432594Y-185227935D02*
X121360627Y-185299902D01*
X121360627Y-185299902D02*
X121216694Y-185371868D01*
X121216694Y-185371868D02*
X121000794Y-185371868D01*
X123303728Y-185371868D02*
X123303728Y-183860568D01*
X123303728Y-183860568D02*
X123807495Y-184940068D01*
X123807495Y-184940068D02*
X124311261Y-183860568D01*
X124311261Y-183860568D02*
X124311261Y-185371868D01*
X125678628Y-185371868D02*
X125678628Y-184580235D01*
X125678628Y-184580235D02*
X125606661Y-184436302D01*
X125606661Y-184436302D02*
X125462728Y-184364335D01*
X125462728Y-184364335D02*
X125174861Y-184364335D01*
X125174861Y-184364335D02*
X125030928Y-184436302D01*
X125678628Y-185299902D02*
X125534695Y-185371868D01*
X125534695Y-185371868D02*
X125174861Y-185371868D01*
X125174861Y-185371868D02*
X125030928Y-185299902D01*
X125030928Y-185299902D02*
X124958961Y-185155968D01*
X124958961Y-185155968D02*
X124958961Y-185012035D01*
X124958961Y-185012035D02*
X125030928Y-184868102D01*
X125030928Y-184868102D02*
X125174861Y-184796135D01*
X125174861Y-184796135D02*
X125534695Y-184796135D01*
X125534695Y-184796135D02*
X125678628Y-184724168D01*
X126182395Y-184364335D02*
X126758128Y-184364335D01*
X126398295Y-183860568D02*
X126398295Y-185155968D01*
X126398295Y-185155968D02*
X126470262Y-185299902D01*
X126470262Y-185299902D02*
X126614195Y-185371868D01*
X126614195Y-185371868D02*
X126758128Y-185371868D01*
X127045995Y-184364335D02*
X127621728Y-184364335D01*
X127261895Y-183860568D02*
X127261895Y-185155968D01*
X127261895Y-185155968D02*
X127333862Y-185299902D01*
X127333862Y-185299902D02*
X127477795Y-185371868D01*
X127477795Y-185371868D02*
X127621728Y-185371868D01*
X128125495Y-185371868D02*
X128125495Y-183860568D01*
X128773195Y-185371868D02*
X128773195Y-184580235D01*
X128773195Y-184580235D02*
X128701228Y-184436302D01*
X128701228Y-184436302D02*
X128557295Y-184364335D01*
X128557295Y-184364335D02*
X128341395Y-184364335D01*
X128341395Y-184364335D02*
X128197462Y-184436302D01*
X128197462Y-184436302D02*
X128125495Y-184508268D01*
X129492862Y-185371868D02*
X129492862Y-184364335D01*
X129492862Y-183860568D02*
X129420895Y-183932535D01*
X129420895Y-183932535D02*
X129492862Y-184004502D01*
X129492862Y-184004502D02*
X129564829Y-183932535D01*
X129564829Y-183932535D02*
X129492862Y-183860568D01*
X129492862Y-183860568D02*
X129492862Y-184004502D01*
X130860229Y-185371868D02*
X130860229Y-184580235D01*
X130860229Y-184580235D02*
X130788262Y-184436302D01*
X130788262Y-184436302D02*
X130644329Y-184364335D01*
X130644329Y-184364335D02*
X130356462Y-184364335D01*
X130356462Y-184364335D02*
X130212529Y-184436302D01*
X130860229Y-185299902D02*
X130716296Y-185371868D01*
X130716296Y-185371868D02*
X130356462Y-185371868D01*
X130356462Y-185371868D02*
X130212529Y-185299902D01*
X130212529Y-185299902D02*
X130140562Y-185155968D01*
X130140562Y-185155968D02*
X130140562Y-185012035D01*
X130140562Y-185012035D02*
X130212529Y-184868102D01*
X130212529Y-184868102D02*
X130356462Y-184796135D01*
X130356462Y-184796135D02*
X130716296Y-184796135D01*
X130716296Y-184796135D02*
X130860229Y-184724168D01*
X131507929Y-185299902D02*
X131651863Y-185371868D01*
X131651863Y-185371868D02*
X131939729Y-185371868D01*
X131939729Y-185371868D02*
X132083663Y-185299902D01*
X132083663Y-185299902D02*
X132155629Y-185155968D01*
X132155629Y-185155968D02*
X132155629Y-185084002D01*
X132155629Y-185084002D02*
X132083663Y-184940068D01*
X132083663Y-184940068D02*
X131939729Y-184868102D01*
X131939729Y-184868102D02*
X131723829Y-184868102D01*
X131723829Y-184868102D02*
X131579896Y-184796135D01*
X131579896Y-184796135D02*
X131507929Y-184652202D01*
X131507929Y-184652202D02*
X131507929Y-184580235D01*
X131507929Y-184580235D02*
X131579896Y-184436302D01*
X131579896Y-184436302D02*
X131723829Y-184364335D01*
X131723829Y-184364335D02*
X131939729Y-184364335D01*
X131939729Y-184364335D02*
X132083663Y-184436302D01*
X134818396Y-185371868D02*
X134314629Y-184652202D01*
X133954796Y-185371868D02*
X133954796Y-183860568D01*
X133954796Y-183860568D02*
X134530529Y-183860568D01*
X134530529Y-183860568D02*
X134674463Y-183932535D01*
X134674463Y-183932535D02*
X134746429Y-184004502D01*
X134746429Y-184004502D02*
X134818396Y-184148435D01*
X134818396Y-184148435D02*
X134818396Y-184364335D01*
X134818396Y-184364335D02*
X134746429Y-184508268D01*
X134746429Y-184508268D02*
X134674463Y-184580235D01*
X134674463Y-184580235D02*
X134530529Y-184652202D01*
X134530529Y-184652202D02*
X133954796Y-184652202D01*
X136041829Y-185299902D02*
X135897896Y-185371868D01*
X135897896Y-185371868D02*
X135610029Y-185371868D01*
X135610029Y-185371868D02*
X135466096Y-185299902D01*
X135466096Y-185299902D02*
X135394129Y-185155968D01*
X135394129Y-185155968D02*
X135394129Y-184580235D01*
X135394129Y-184580235D02*
X135466096Y-184436302D01*
X135466096Y-184436302D02*
X135610029Y-184364335D01*
X135610029Y-184364335D02*
X135897896Y-184364335D01*
X135897896Y-184364335D02*
X136041829Y-184436302D01*
X136041829Y-184436302D02*
X136113796Y-184580235D01*
X136113796Y-184580235D02*
X136113796Y-184724168D01*
X136113796Y-184724168D02*
X135394129Y-184868102D01*
X136761496Y-185371868D02*
X136761496Y-184364335D01*
X136761496Y-183860568D02*
X136689529Y-183932535D01*
X136689529Y-183932535D02*
X136761496Y-184004502D01*
X136761496Y-184004502D02*
X136833463Y-183932535D01*
X136833463Y-183932535D02*
X136761496Y-183860568D01*
X136761496Y-183860568D02*
X136761496Y-184004502D01*
X138128863Y-185299902D02*
X137984930Y-185371868D01*
X137984930Y-185371868D02*
X137697063Y-185371868D01*
X137697063Y-185371868D02*
X137553130Y-185299902D01*
X137553130Y-185299902D02*
X137481163Y-185227935D01*
X137481163Y-185227935D02*
X137409196Y-185084002D01*
X137409196Y-185084002D02*
X137409196Y-184652202D01*
X137409196Y-184652202D02*
X137481163Y-184508268D01*
X137481163Y-184508268D02*
X137553130Y-184436302D01*
X137553130Y-184436302D02*
X137697063Y-184364335D01*
X137697063Y-184364335D02*
X137984930Y-184364335D01*
X137984930Y-184364335D02*
X138128863Y-184436302D01*
X138776563Y-185371868D02*
X138776563Y-183860568D01*
X139424263Y-185371868D02*
X139424263Y-184580235D01*
X139424263Y-184580235D02*
X139352296Y-184436302D01*
X139352296Y-184436302D02*
X139208363Y-184364335D01*
X139208363Y-184364335D02*
X138992463Y-184364335D01*
X138992463Y-184364335D02*
X138848530Y-184436302D01*
X138848530Y-184436302D02*
X138776563Y-184508268D01*
X140359830Y-185371868D02*
X140215897Y-185299902D01*
X140215897Y-185299902D02*
X140143930Y-185155968D01*
X140143930Y-185155968D02*
X140143930Y-183860568D01*
X110853493Y-186293676D02*
X111357260Y-187804976D01*
X111357260Y-187804976D02*
X111861026Y-186293676D01*
X112940526Y-187733010D02*
X112796593Y-187804976D01*
X112796593Y-187804976D02*
X112508726Y-187804976D01*
X112508726Y-187804976D02*
X112364793Y-187733010D01*
X112364793Y-187733010D02*
X112292826Y-187589076D01*
X112292826Y-187589076D02*
X112292826Y-187013343D01*
X112292826Y-187013343D02*
X112364793Y-186869410D01*
X112364793Y-186869410D02*
X112508726Y-186797443D01*
X112508726Y-186797443D02*
X112796593Y-186797443D01*
X112796593Y-186797443D02*
X112940526Y-186869410D01*
X112940526Y-186869410D02*
X113012493Y-187013343D01*
X113012493Y-187013343D02*
X113012493Y-187157276D01*
X113012493Y-187157276D02*
X112292826Y-187301210D01*
X113660193Y-187804976D02*
X113660193Y-186797443D01*
X113660193Y-187085310D02*
X113732160Y-186941376D01*
X113732160Y-186941376D02*
X113804126Y-186869410D01*
X113804126Y-186869410D02*
X113948060Y-186797443D01*
X113948060Y-186797443D02*
X114091993Y-186797443D01*
X114523793Y-187733010D02*
X114667727Y-187804976D01*
X114667727Y-187804976D02*
X114955593Y-187804976D01*
X114955593Y-187804976D02*
X115099527Y-187733010D01*
X115099527Y-187733010D02*
X115171493Y-187589076D01*
X115171493Y-187589076D02*
X115171493Y-187517110D01*
X115171493Y-187517110D02*
X115099527Y-187373176D01*
X115099527Y-187373176D02*
X114955593Y-187301210D01*
X114955593Y-187301210D02*
X114739693Y-187301210D01*
X114739693Y-187301210D02*
X114595760Y-187229243D01*
X114595760Y-187229243D02*
X114523793Y-187085310D01*
X114523793Y-187085310D02*
X114523793Y-187013343D01*
X114523793Y-187013343D02*
X114595760Y-186869410D01*
X114595760Y-186869410D02*
X114739693Y-186797443D01*
X114739693Y-186797443D02*
X114955593Y-186797443D01*
X114955593Y-186797443D02*
X115099527Y-186869410D01*
X115819193Y-187804976D02*
X115819193Y-186797443D01*
X115819193Y-186293676D02*
X115747226Y-186365643D01*
X115747226Y-186365643D02*
X115819193Y-186437610D01*
X115819193Y-186437610D02*
X115891160Y-186365643D01*
X115891160Y-186365643D02*
X115819193Y-186293676D01*
X115819193Y-186293676D02*
X115819193Y-186437610D01*
X116754760Y-187804976D02*
X116610827Y-187733010D01*
X116610827Y-187733010D02*
X116538860Y-187661043D01*
X116538860Y-187661043D02*
X116466893Y-187517110D01*
X116466893Y-187517110D02*
X116466893Y-187085310D01*
X116466893Y-187085310D02*
X116538860Y-186941376D01*
X116538860Y-186941376D02*
X116610827Y-186869410D01*
X116610827Y-186869410D02*
X116754760Y-186797443D01*
X116754760Y-186797443D02*
X116970660Y-186797443D01*
X116970660Y-186797443D02*
X117114593Y-186869410D01*
X117114593Y-186869410D02*
X117186560Y-186941376D01*
X117186560Y-186941376D02*
X117258527Y-187085310D01*
X117258527Y-187085310D02*
X117258527Y-187517110D01*
X117258527Y-187517110D02*
X117186560Y-187661043D01*
X117186560Y-187661043D02*
X117114593Y-187733010D01*
X117114593Y-187733010D02*
X116970660Y-187804976D01*
X116970660Y-187804976D02*
X116754760Y-187804976D01*
X117906227Y-186797443D02*
X117906227Y-187804976D01*
X117906227Y-186941376D02*
X117978194Y-186869410D01*
X117978194Y-186869410D02*
X118122127Y-186797443D01*
X118122127Y-186797443D02*
X118338027Y-186797443D01*
X118338027Y-186797443D02*
X118481960Y-186869410D01*
X118481960Y-186869410D02*
X118553927Y-187013343D01*
X118553927Y-187013343D02*
X118553927Y-187804976D01*
X121216694Y-187804976D02*
X120353094Y-187804976D01*
X120784894Y-187804976D02*
X120784894Y-186293676D01*
X120784894Y-186293676D02*
X120640961Y-186509576D01*
X120640961Y-186509576D02*
X120497028Y-186653510D01*
X120497028Y-186653510D02*
X120353094Y-186725476D01*
X121864394Y-187661043D02*
X121936361Y-187733010D01*
X121936361Y-187733010D02*
X121864394Y-187804976D01*
X121864394Y-187804976D02*
X121792427Y-187733010D01*
X121792427Y-187733010D02*
X121864394Y-187661043D01*
X121864394Y-187661043D02*
X121864394Y-187804976D01*
X122871928Y-186293676D02*
X123015861Y-186293676D01*
X123015861Y-186293676D02*
X123159794Y-186365643D01*
X123159794Y-186365643D02*
X123231761Y-186437610D01*
X123231761Y-186437610D02*
X123303728Y-186581543D01*
X123303728Y-186581543D02*
X123375694Y-186869410D01*
X123375694Y-186869410D02*
X123375694Y-187229243D01*
X123375694Y-187229243D02*
X123303728Y-187517110D01*
X123303728Y-187517110D02*
X123231761Y-187661043D01*
X123231761Y-187661043D02*
X123159794Y-187733010D01*
X123159794Y-187733010D02*
X123015861Y-187804976D01*
X123015861Y-187804976D02*
X122871928Y-187804976D01*
X122871928Y-187804976D02*
X122727994Y-187733010D01*
X122727994Y-187733010D02*
X122656028Y-187661043D01*
X122656028Y-187661043D02*
X122584061Y-187517110D01*
X122584061Y-187517110D02*
X122512094Y-187229243D01*
X122512094Y-187229243D02*
X122512094Y-186869410D01*
X122512094Y-186869410D02*
X122584061Y-186581543D01*
X122584061Y-186581543D02*
X122656028Y-186437610D01*
X122656028Y-186437610D02*
X122727994Y-186365643D01*
X122727994Y-186365643D02*
X122871928Y-186293676D01*
D11*
%TO.C,U$1*%
X97206900Y-77913400D02*
X98476900Y-79183400D01*
X98476900Y-102043400D02*
X97206900Y-103313400D01*
X121336900Y-79183400D02*
X122606900Y-77913400D01*
X121336900Y-102043400D02*
X122606900Y-103313400D01*
%TD*%
D12*
%TO.C,LM339*%
X188285300Y-75175200D03*
X188285300Y-75825200D03*
X188285300Y-76475200D03*
X188285300Y-77125200D03*
X188285300Y-77775200D03*
X188285300Y-78425200D03*
X188285300Y-79075200D03*
X193885300Y-79025200D03*
X193885300Y-78375200D03*
X193885300Y-77725200D03*
X193885300Y-77075200D03*
X193885300Y-76425200D03*
X193885300Y-75775200D03*
X193885300Y-75125200D03*
%TD*%
D13*
%TO.C,UNK3V3*%
X69309100Y-111619200D03*
X71409100Y-111619200D03*
%TD*%
D14*
%TO.C,C18*%
X88128700Y-80727200D03*
X88128700Y-78827200D03*
%TD*%
%TO.C,R28*%
X83329100Y-142947600D03*
X83329100Y-141047600D03*
%TD*%
D15*
%TO.C,RN28*%
X181990800Y-96337200D03*
X181990800Y-97607200D03*
X181990800Y-98877200D03*
X181990800Y-100147200D03*
X183895800Y-100147200D03*
X183895800Y-98877200D03*
X183895800Y-97607200D03*
X183895800Y-96337200D03*
%TD*%
D16*
%TO.C,C26*%
X121336900Y-156897200D03*
X121336900Y-158797200D03*
%TD*%
D17*
%TO.C,R53*%
X217613100Y-166432400D03*
X215713100Y-166432400D03*
%TD*%
D15*
%TO.C,RN31*%
X163718000Y-134204000D03*
X163718000Y-135474000D03*
X163718000Y-136744000D03*
X163718000Y-138014000D03*
X165623000Y-138014000D03*
X165623000Y-136744000D03*
X165623000Y-135474000D03*
X165623000Y-134204000D03*
%TD*%
D18*
%TO.C,X3*%
X100572400Y-177430600D03*
X98565800Y-177430600D03*
X103061600Y-177430600D03*
D19*
X106135000Y-180148400D03*
X93003200Y-180148400D03*
D18*
X96076600Y-177430600D03*
%TD*%
D20*
%TO.C,C29*%
X218888900Y-59854000D03*
X220888900Y-59854000D03*
%TD*%
D21*
%TO.C,UNK3.3/2.5/1.1/GND0*%
X128931500Y-69506000D03*
X131471500Y-69506000D03*
X134011500Y-69506000D03*
X136551500Y-69506000D03*
%TD*%
D14*
%TO.C,C23*%
X121336900Y-151380400D03*
X121336900Y-149480400D03*
%TD*%
D22*
%TO.C,U$5*%
X160882100Y-63210200D03*
X160882100Y-64620200D03*
X160882100Y-66030200D03*
X160882100Y-67440200D03*
X160882100Y-68850200D03*
X160882100Y-70260200D03*
X160882100Y-71670200D03*
X160882100Y-73080200D03*
X160882100Y-74490200D03*
X160882100Y-75900200D03*
X160882100Y-77310200D03*
X160882100Y-78720200D03*
X160882100Y-80130200D03*
X160882100Y-81540200D03*
X160882100Y-82950200D03*
X160882100Y-84360200D03*
X160882100Y-85770200D03*
X160882100Y-87180200D03*
X160882100Y-88590200D03*
X160882100Y-90000200D03*
X160882100Y-91410200D03*
X160882100Y-92820200D03*
X160882100Y-94230200D03*
X160882100Y-95640200D03*
X160882100Y-97050200D03*
X160882100Y-98460200D03*
X160882100Y-99870200D03*
X160882100Y-101280200D03*
X160882100Y-102690200D03*
X160882100Y-104100200D03*
X160882100Y-105510200D03*
X160882100Y-106920200D03*
X160882100Y-108330200D03*
X160882100Y-109740200D03*
X160882100Y-111150200D03*
X160882100Y-112560200D03*
%TD*%
D23*
%TO.C,S.I.O._INTERFACE0*%
X120854300Y-128383200D03*
X123394300Y-128383200D03*
X120854300Y-130923200D03*
X123394300Y-130923200D03*
X120854300Y-133463200D03*
X123394300Y-133463200D03*
X120854300Y-136003200D03*
X123394300Y-136003200D03*
X120854300Y-138543200D03*
X123394300Y-138543200D03*
%TD*%
D24*
%TO.C,J3*%
X67968900Y-169323000D03*
X70368900Y-167323000D03*
X75868900Y-167323000D03*
X79568900Y-169323000D03*
D25*
X74068900Y-169323000D03*
%TD*%
D16*
%TO.C,R25*%
X71187900Y-141047600D03*
X71187900Y-142947600D03*
%TD*%
D14*
%TO.C,R30*%
X91253900Y-142947600D03*
X91253900Y-141047600D03*
%TD*%
%TO.C,C10*%
X101129100Y-44395600D03*
X101129100Y-42495600D03*
%TD*%
D26*
%TO.C,R25A0*%
X68454100Y-141047600D03*
X68454100Y-142947600D03*
%TD*%
D27*
%TO.C,HDMI0*%
X79325100Y-28522600D03*
X79825100Y-28522600D03*
X80325100Y-28522600D03*
X80825100Y-28522600D03*
X81325100Y-28522600D03*
X81825100Y-28522600D03*
X82325100Y-28522600D03*
X82825100Y-28522600D03*
X83325100Y-28522600D03*
X83825100Y-28522600D03*
X84325100Y-28522600D03*
X84825100Y-28522600D03*
X85325100Y-28522600D03*
X85825100Y-28522600D03*
X86325100Y-28522600D03*
X86825100Y-28522600D03*
X87325100Y-28522600D03*
X87825100Y-28522600D03*
X88325100Y-28522600D03*
D28*
X76825100Y-27522600D03*
X91325100Y-27522600D03*
X91925100Y-22622600D03*
X76225100Y-22622600D03*
%TD*%
D15*
%TO.C,RN22*%
X181990800Y-60777200D03*
X181990800Y-62047200D03*
X181990800Y-63317200D03*
X181990800Y-64587200D03*
X183895800Y-64587200D03*
X183895800Y-63317200D03*
X183895800Y-62047200D03*
X183895800Y-60777200D03*
%TD*%
D14*
%TO.C,C9*%
X82551100Y-61845400D03*
X82551100Y-59945400D03*
%TD*%
D29*
%TO.C,H5*%
X127483700Y-43270000D03*
%TD*%
D13*
%TO.C,RX0*%
X228313100Y-85736600D03*
X230413100Y-85736600D03*
%TD*%
D15*
%TO.C,RN26*%
X181990800Y-84348400D03*
X181990800Y-85618400D03*
X181990800Y-86888400D03*
X181990800Y-88158400D03*
X183895800Y-88158400D03*
X183895800Y-86888400D03*
X183895800Y-85618400D03*
X183895800Y-84348400D03*
%TD*%
D30*
%TO.C,MIC_IN_SEL0*%
X104344300Y-169709000D03*
X104344300Y-167169000D03*
X106884300Y-169709000D03*
X106884300Y-167169000D03*
X109424300Y-169709000D03*
X109424300Y-167169000D03*
%TD*%
D31*
%TO.C,R44*%
X223343300Y-38706000D03*
X223343300Y-36806000D03*
%TD*%
D14*
%TO.C,C13*%
X110273100Y-57146400D03*
X110273100Y-55246400D03*
%TD*%
D17*
%TO.C,R49*%
X230440100Y-91908800D03*
X228540100Y-91908800D03*
%TD*%
D20*
%TO.C,C32*%
X218914300Y-71512600D03*
X220914300Y-71512600D03*
%TD*%
D15*
%TO.C,RN7*%
X178880600Y-48830400D03*
X178880600Y-50100400D03*
X178880600Y-51370400D03*
X178880600Y-52640400D03*
X180785600Y-52640400D03*
X180785600Y-51370400D03*
X180785600Y-50100400D03*
X180785600Y-48830400D03*
%TD*%
D23*
%TO.C,P.B.I._INTERFACE0*%
X206325300Y-126300400D03*
X208865300Y-126300400D03*
X206325300Y-128840400D03*
X208865300Y-128840400D03*
X206325300Y-131380400D03*
X208865300Y-131380400D03*
X206325300Y-133920400D03*
X208865300Y-133920400D03*
X206325300Y-136460400D03*
X208865300Y-136460400D03*
X206325300Y-139000400D03*
X208865300Y-139000400D03*
X206325300Y-141540400D03*
X208865300Y-141540400D03*
X206325300Y-144080400D03*
X208865300Y-144080400D03*
X206325300Y-146620400D03*
X208865300Y-146620400D03*
X206325300Y-149160400D03*
X208865300Y-149160400D03*
X206325300Y-151700400D03*
X208865300Y-151700400D03*
X206325300Y-154240400D03*
X208865300Y-154240400D03*
X206325300Y-156780400D03*
X208865300Y-156780400D03*
X206325300Y-159320400D03*
X208865300Y-159320400D03*
X206325300Y-161860400D03*
X208865300Y-161860400D03*
X206325300Y-164400400D03*
X208865300Y-164400400D03*
X206325300Y-166940400D03*
X208865300Y-166940400D03*
X206325300Y-169480400D03*
X208865300Y-169480400D03*
X206325300Y-172020400D03*
X208865300Y-172020400D03*
X206325300Y-174560400D03*
X208865300Y-174560400D03*
%TD*%
D14*
%TO.C,R32*%
X98899300Y-142947600D03*
X98899300Y-141047600D03*
%TD*%
D15*
%TO.C,RN13*%
X163790400Y-60777200D03*
X163790400Y-62047200D03*
X163790400Y-63317200D03*
X163790400Y-64587200D03*
X165695400Y-64587200D03*
X165695400Y-63317200D03*
X165695400Y-62047200D03*
X165695400Y-60777200D03*
%TD*%
D32*
%TO.C,C16*%
X71339500Y-70725200D03*
X73239500Y-70725200D03*
%TD*%
D23*
%TO.C,USB_A_B0*%
X77725100Y-149236600D03*
X80265100Y-149236600D03*
X77725100Y-151776600D03*
X80265100Y-151776600D03*
X77725100Y-154316600D03*
X80265100Y-154316600D03*
X77725100Y-156856600D03*
X80265100Y-156856600D03*
X77725100Y-159396600D03*
X80265100Y-159396600D03*
%TD*%
D17*
%TO.C,C41*%
X180248900Y-168743800D03*
X178248900Y-168743800D03*
%TD*%
%TO.C,C20*%
X111491100Y-125309800D03*
X109491100Y-125309800D03*
%TD*%
%TO.C,R55*%
X217613100Y-174052400D03*
X215713100Y-174052400D03*
%TD*%
%TO.C,R19*%
X71436100Y-82155200D03*
X69536100Y-82155200D03*
%TD*%
%TO.C,R52*%
X217613100Y-163181200D03*
X215713100Y-163181200D03*
%TD*%
%TO.C,C33*%
X204048700Y-85736600D03*
X202048700Y-85736600D03*
%TD*%
D31*
%TO.C,R39*%
X125400900Y-154936400D03*
X125400900Y-153036400D03*
%TD*%
D20*
%TO.C,R15*%
X82542100Y-74274600D03*
X84442100Y-74274600D03*
%TD*%
%TO.C,C28*%
X188129500Y-57415600D03*
X190129500Y-57415600D03*
%TD*%
D33*
%TO.C,D3*%
X166370500Y-183907600D03*
X162970500Y-183907600D03*
%TD*%
D34*
%TO.C,TR2*%
X108169500Y-143097600D03*
X109119500Y-140897600D03*
X110069500Y-143097600D03*
%TD*%
D23*
%TO.C,GPIO_A0*%
X170455300Y-59655400D03*
X172995300Y-59655400D03*
X170455300Y-62195400D03*
X172995300Y-62195400D03*
X170455300Y-64735400D03*
X172995300Y-64735400D03*
X170455300Y-67275400D03*
X172995300Y-67275400D03*
X170455300Y-69815400D03*
X172995300Y-69815400D03*
X170455300Y-72355400D03*
X172995300Y-72355400D03*
X170455300Y-74895400D03*
X172995300Y-74895400D03*
X170455300Y-77435400D03*
X172995300Y-77435400D03*
X170455300Y-79975400D03*
X172995300Y-79975400D03*
X170455300Y-82515400D03*
X172995300Y-82515400D03*
X170455300Y-85055400D03*
X172995300Y-85055400D03*
X170455300Y-87595400D03*
X172995300Y-87595400D03*
X170455300Y-90135400D03*
X172995300Y-90135400D03*
X170455300Y-92675400D03*
X172995300Y-92675400D03*
X170455300Y-95215400D03*
X172995300Y-95215400D03*
X170455300Y-97755400D03*
X172995300Y-97755400D03*
X170455300Y-100295400D03*
X172995300Y-100295400D03*
X170455300Y-102835400D03*
X172995300Y-102835400D03*
X170455300Y-105375400D03*
X172995300Y-105375400D03*
X170455300Y-107915400D03*
X172995300Y-107915400D03*
%TD*%
D17*
%TO.C,R20*%
X71436100Y-84695200D03*
X69536100Y-84695200D03*
%TD*%
D16*
%TO.C,C6*%
X89282100Y-43003600D03*
X89282100Y-44903600D03*
%TD*%
%TO.C,C3*%
X72518100Y-43296200D03*
X72518100Y-45196200D03*
%TD*%
D35*
%TO.C,SD0*%
X149610900Y-49478000D03*
X152210900Y-49478000D03*
X153710900Y-49478000D03*
X155560900Y-49478000D03*
X157260900Y-49478000D03*
X159760900Y-49478000D03*
X162260900Y-49478000D03*
X164760900Y-49478000D03*
X166460900Y-49478000D03*
X169660900Y-49478000D03*
D36*
X147160900Y-49478000D03*
D37*
X141872900Y-41178000D03*
D38*
X170548900Y-41178000D03*
%TD*%
D39*
%TO.C,C17*%
X80097500Y-74281200D03*
X78197500Y-74281200D03*
%TD*%
D40*
%TO.C,RN5*%
X130849200Y-130262800D03*
X130849200Y-128992800D03*
X130849200Y-127722800D03*
X130849200Y-126452800D03*
X128944200Y-126452800D03*
X128944200Y-127722800D03*
X128944200Y-128992800D03*
X128944200Y-130262800D03*
%TD*%
D41*
%TO.C,PF1*%
X67645500Y-40983400D03*
X70489500Y-40983400D03*
%TD*%
D32*
%TO.C,R1*%
X64964100Y-45604600D03*
X66864100Y-45604600D03*
%TD*%
D17*
%TO.C,C35*%
X204048700Y-92645400D03*
X202048700Y-92645400D03*
%TD*%
D23*
%TO.C,AC97_AUDIO0*%
X94895500Y-149236600D03*
X97435500Y-149236600D03*
X94895500Y-151776600D03*
X97435500Y-151776600D03*
X94895500Y-154316600D03*
X97435500Y-154316600D03*
X94895500Y-156856600D03*
X97435500Y-156856600D03*
X94895500Y-159396600D03*
X97435500Y-159396600D03*
%TD*%
D16*
%TO.C,R29*%
X87088300Y-141047600D03*
X87088300Y-142947600D03*
%TD*%
D42*
%TO.C,X2*%
X203607500Y-109307800D03*
X228651900Y-109307800D03*
D43*
X221616100Y-107885400D03*
X218872900Y-107885400D03*
X216129700Y-107885400D03*
X213386500Y-107885400D03*
X210643300Y-107885400D03*
X220244500Y-110730200D03*
X217501300Y-110730200D03*
X214758100Y-110730200D03*
X212014900Y-110730200D03*
%TD*%
D39*
%TO.C,R24*%
X71309100Y-126859200D03*
X69409100Y-126859200D03*
%TD*%
%TO.C,R46*%
X220864300Y-79285000D03*
X218964300Y-79285000D03*
%TD*%
D44*
%TO.C,QS3384*%
X107573300Y-128389600D03*
X107573300Y-129039600D03*
X107573300Y-129689600D03*
X107573300Y-130339600D03*
X107573300Y-130989600D03*
X107573300Y-131639600D03*
X107573300Y-132289600D03*
X107573300Y-132939600D03*
X107573300Y-133589600D03*
X107573300Y-134239600D03*
X107573300Y-134889600D03*
X107573300Y-135539600D03*
X113408900Y-135539600D03*
X113408900Y-134889600D03*
X113408900Y-134239600D03*
X113408900Y-133589600D03*
X113408900Y-132939600D03*
X113408900Y-132289600D03*
X113408900Y-131639600D03*
X113408900Y-130989600D03*
X113408900Y-130339600D03*
X113408900Y-129689600D03*
X113408900Y-129039600D03*
X113408900Y-128389600D03*
%TD*%
D17*
%TO.C,C38*%
X180248900Y-120839400D03*
X178248900Y-120839400D03*
%TD*%
D15*
%TO.C,RN3*%
X101055000Y-125690800D03*
X101055000Y-126960800D03*
X101055000Y-128230800D03*
X101055000Y-129500800D03*
X102960000Y-129500800D03*
X102960000Y-128230800D03*
X102960000Y-126960800D03*
X102960000Y-125690800D03*
%TD*%
D45*
%TO.C,C24*%
X104468300Y-157847200D03*
X107268300Y-157847200D03*
%TD*%
D17*
%TO.C,R47*%
X225487100Y-88657600D03*
X223587100Y-88657600D03*
%TD*%
D44*
%TO.C,IC2*%
X176331100Y-138295600D03*
X176331100Y-138945600D03*
X176331100Y-139595600D03*
X176331100Y-140245600D03*
X176331100Y-140895600D03*
X176331100Y-141545600D03*
X176331100Y-142195600D03*
X176331100Y-142845600D03*
X176331100Y-143495600D03*
X176331100Y-144145600D03*
X176331100Y-144795600D03*
X176331100Y-145445600D03*
X182166700Y-145445600D03*
X182166700Y-144795600D03*
X182166700Y-144145600D03*
X182166700Y-143495600D03*
X182166700Y-142845600D03*
X182166700Y-142195600D03*
X182166700Y-141545600D03*
X182166700Y-140895600D03*
X182166700Y-140245600D03*
X182166700Y-139595600D03*
X182166700Y-138945600D03*
X182166700Y-138295600D03*
%TD*%
D18*
%TO.C,X1*%
X83402000Y-177430600D03*
X81395400Y-177430600D03*
X85891200Y-177430600D03*
D19*
X88964600Y-180148400D03*
X75832800Y-180148400D03*
D18*
X78906200Y-177430600D03*
%TD*%
D15*
%TO.C,RN12*%
X200953200Y-64222800D03*
X200953200Y-65492800D03*
X200953200Y-66762800D03*
X200953200Y-68032800D03*
X202858200Y-68032800D03*
X202858200Y-66762800D03*
X202858200Y-65492800D03*
X202858200Y-64222800D03*
%TD*%
D46*
%TO.C,VGA0*%
X104520100Y-36028800D03*
X106810100Y-36028800D03*
X109100100Y-36028800D03*
X111390100Y-36028800D03*
X113680100Y-36028800D03*
X103380100Y-33488800D03*
X105670100Y-33488800D03*
X107960100Y-33488800D03*
X110250100Y-33488800D03*
X112540100Y-33488800D03*
X104520100Y-30948800D03*
X106810100Y-30948800D03*
X109100100Y-30948800D03*
X111390100Y-30948800D03*
X113680100Y-30948800D03*
D47*
X96340100Y-33488800D03*
X121340100Y-33488800D03*
%TD*%
D15*
%TO.C,RN35*%
X163718000Y-162204000D03*
X163718000Y-163474000D03*
X163718000Y-164744000D03*
X163718000Y-166014000D03*
X165623000Y-166014000D03*
X165623000Y-164744000D03*
X165623000Y-163474000D03*
X165623000Y-162204000D03*
%TD*%
D17*
%TO.C,R18*%
X71436100Y-79615200D03*
X69536100Y-79615200D03*
%TD*%
D16*
%TO.C,C11*%
X104181300Y-42495600D03*
X104181300Y-44395600D03*
%TD*%
%TO.C,C8*%
X89409100Y-54814600D03*
X89409100Y-56714600D03*
%TD*%
D29*
%TO.C,H7*%
X182943300Y-110603200D03*
%TD*%
%TO.C,H6*%
X130049100Y-165010000D03*
%TD*%
D14*
%TO.C,C15*%
X115784900Y-57146400D03*
X115784900Y-55246400D03*
%TD*%
D48*
%TO.C,L2*%
X82675100Y-49541600D03*
X85475100Y-49541600D03*
%TD*%
D32*
%TO.C,R23*%
X69409100Y-120763200D03*
X71309100Y-120763200D03*
%TD*%
D20*
%TO.C,C29A0*%
X206646100Y-59854000D03*
X208646100Y-59854000D03*
%TD*%
D31*
%TO.C,R33*%
X102210700Y-142947600D03*
X102210700Y-141047600D03*
%TD*%
D26*
%TO.C,R42*%
X160910100Y-54154200D03*
X160910100Y-56054200D03*
%TD*%
D31*
%TO.C,R8*%
X113549700Y-44395600D03*
X113549700Y-42495600D03*
%TD*%
D17*
%TO.C,C36*%
X204048700Y-96099800D03*
X202048700Y-96099800D03*
%TD*%
D31*
%TO.C,R7*%
X110425500Y-44395600D03*
X110425500Y-42495600D03*
%TD*%
D15*
%TO.C,RN16*%
X163790400Y-78455600D03*
X163790400Y-79725600D03*
X163790400Y-80995600D03*
X163790400Y-82265600D03*
X165695400Y-82265600D03*
X165695400Y-80995600D03*
X165695400Y-79725600D03*
X165695400Y-78455600D03*
%TD*%
D17*
%TO.C,C39*%
X180248900Y-136435000D03*
X178248900Y-136435000D03*
%TD*%
D32*
%TO.C,R45*%
X218964300Y-75398800D03*
X220864300Y-75398800D03*
%TD*%
D15*
%TO.C,RN36*%
X163718000Y-169204000D03*
X163718000Y-170474000D03*
X163718000Y-171744000D03*
X163718000Y-173014000D03*
X165623000Y-173014000D03*
X165623000Y-171744000D03*
X165623000Y-170474000D03*
X165623000Y-169204000D03*
%TD*%
D49*
%TO.C,U$6*%
X67107900Y-22973200D03*
X71067900Y-22973200D03*
%TD*%
D14*
%TO.C,R9*%
X116942700Y-44395600D03*
X116942700Y-42495600D03*
%TD*%
D29*
%TO.C,H4*%
X227331100Y-185103600D03*
%TD*%
D20*
%TO.C,C30A0*%
X206646100Y-63740200D03*
X208646100Y-63740200D03*
%TD*%
D16*
%TO.C,R4*%
X85776900Y-59869200D03*
X85776900Y-61769200D03*
%TD*%
D41*
%TO.C,PF4*%
X176379100Y-38670400D03*
X179223100Y-38670400D03*
%TD*%
D15*
%TO.C,RN32*%
X163718000Y-141204000D03*
X163718000Y-142474000D03*
X163718000Y-143744000D03*
X163718000Y-145014000D03*
X165623000Y-145014000D03*
X165623000Y-143744000D03*
X165623000Y-142474000D03*
X165623000Y-141204000D03*
%TD*%
%TO.C,RN19*%
X163790400Y-96337200D03*
X163790400Y-97607200D03*
X163790400Y-98877200D03*
X163790400Y-100147200D03*
X165695400Y-100147200D03*
X165695400Y-98877200D03*
X165695400Y-97607200D03*
X165695400Y-96337200D03*
%TD*%
D20*
%TO.C,R21*%
X69510700Y-87032000D03*
X71410700Y-87032000D03*
%TD*%
D48*
%TO.C,L3*%
X82675100Y-55764600D03*
X85475100Y-55764600D03*
%TD*%
D31*
%TO.C,R43*%
X192177500Y-38706000D03*
X192177500Y-36806000D03*
%TD*%
D50*
%TO.C,UNK1.1V0*%
X76429700Y-54824800D03*
X76429700Y-55764600D03*
X76429700Y-56704400D03*
X78766500Y-56704400D03*
X78766500Y-54824800D03*
%TD*%
D15*
%TO.C,RN37*%
X163718000Y-176204000D03*
X163718000Y-177474000D03*
X163718000Y-178744000D03*
X163718000Y-180014000D03*
X165623000Y-180014000D03*
X165623000Y-178744000D03*
X165623000Y-177474000D03*
X165623000Y-176204000D03*
%TD*%
D16*
%TO.C,C2*%
X69063700Y-50674400D03*
X69063700Y-52574400D03*
%TD*%
D51*
%TO.C,VIDEODACSA0*%
X98765700Y-67553000D03*
X99248300Y-67553000D03*
X99756300Y-67553000D03*
X100264300Y-67553000D03*
X100746900Y-67553000D03*
X101254900Y-67553000D03*
X101762900Y-67553000D03*
X102270900Y-67553000D03*
X102753500Y-67553000D03*
X103261500Y-67553000D03*
X103769500Y-67553000D03*
X104252100Y-67553000D03*
D52*
X105623700Y-66181400D03*
X105623700Y-65698800D03*
X105623700Y-65190800D03*
X105623700Y-64682800D03*
X105623700Y-64200200D03*
X105623700Y-63692200D03*
X105623700Y-63184200D03*
X105623700Y-62676200D03*
X105623700Y-62193600D03*
X105623700Y-61685600D03*
X105623700Y-61177600D03*
X105623700Y-60695000D03*
D51*
X104252100Y-59323400D03*
X103769500Y-59323400D03*
X103261500Y-59323400D03*
X102753500Y-59323400D03*
X102270900Y-59323400D03*
X101762900Y-59323400D03*
X101254900Y-59323400D03*
X100746900Y-59323400D03*
X100264300Y-59323400D03*
X99756300Y-59323400D03*
X99248300Y-59323400D03*
X98765700Y-59323400D03*
D52*
X97394100Y-60695000D03*
X97394100Y-61177600D03*
X97394100Y-61685600D03*
X97394100Y-62193600D03*
X97394100Y-62676200D03*
X97394100Y-63184200D03*
X97394100Y-63692200D03*
X97394100Y-64200200D03*
X97394100Y-64682800D03*
X97394100Y-65190800D03*
X97394100Y-65698800D03*
X97394100Y-66181400D03*
D53*
X101508900Y-63438200D03*
%TD*%
D54*
%TO.C,RESET0*%
X70536900Y-160031600D03*
X67996900Y-160031600D03*
%TD*%
D55*
%TO.C,RN9*%
X194692100Y-51687900D03*
X195962100Y-51687900D03*
X197232100Y-51687900D03*
X198502100Y-51687900D03*
X198502100Y-49782900D03*
X197232100Y-49782900D03*
X195962100Y-49782900D03*
X194692100Y-49782900D03*
%TD*%
D44*
%TO.C,IC3*%
X176331100Y-155110400D03*
X176331100Y-155760400D03*
X176331100Y-156410400D03*
X176331100Y-157060400D03*
X176331100Y-157710400D03*
X176331100Y-158360400D03*
X176331100Y-159010400D03*
X176331100Y-159660400D03*
X176331100Y-160310400D03*
X176331100Y-160960400D03*
X176331100Y-161610400D03*
X176331100Y-162260400D03*
X182166700Y-162260400D03*
X182166700Y-161610400D03*
X182166700Y-160960400D03*
X182166700Y-160310400D03*
X182166700Y-159660400D03*
X182166700Y-159010400D03*
X182166700Y-158360400D03*
X182166700Y-157710400D03*
X182166700Y-157060400D03*
X182166700Y-156410400D03*
X182166700Y-155760400D03*
X182166700Y-155110400D03*
%TD*%
D13*
%TO.C,UNK1V1*%
X69309100Y-123811200D03*
X71409100Y-123811200D03*
%TD*%
D15*
%TO.C,RN25*%
X181990800Y-78455600D03*
X181990800Y-79725600D03*
X181990800Y-80995600D03*
X181990800Y-82265600D03*
X183895800Y-82265600D03*
X183895800Y-80995600D03*
X183895800Y-79725600D03*
X183895800Y-78455600D03*
%TD*%
%TO.C,RN17*%
X163790400Y-84348400D03*
X163790400Y-85618400D03*
X163790400Y-86888400D03*
X163790400Y-88158400D03*
X165695400Y-88158400D03*
X165695400Y-86888400D03*
X165695400Y-85618400D03*
X165695400Y-84348400D03*
%TD*%
%TO.C,RN23*%
X181990800Y-66670000D03*
X181990800Y-67940000D03*
X181990800Y-69210000D03*
X181990800Y-70480000D03*
X183895800Y-70480000D03*
X183895800Y-69210000D03*
X183895800Y-67940000D03*
X183895800Y-66670000D03*
%TD*%
D14*
%TO.C,C22*%
X111405500Y-151380400D03*
X111405500Y-149480400D03*
%TD*%
D16*
%TO.C,R27*%
X79214300Y-141047600D03*
X79214300Y-142947600D03*
%TD*%
%TO.C,C7*%
X89282100Y-48591600D03*
X89282100Y-50491600D03*
%TD*%
D20*
%TO.C,C30*%
X218914300Y-63740200D03*
X220914300Y-63740200D03*
%TD*%
D55*
%TO.C,RN2*%
X84894300Y-35076300D03*
X86164300Y-35076300D03*
X87434300Y-35076300D03*
X88704300Y-35076300D03*
X88704300Y-33171300D03*
X87434300Y-33171300D03*
X86164300Y-33171300D03*
X84894300Y-33171300D03*
%TD*%
D56*
%TO.C,S-VIDEO_COMP0*%
X129570100Y-28971300D03*
X136370100Y-28971300D03*
X129570100Y-31471300D03*
X136370100Y-31471300D03*
D57*
X139710100Y-25971300D03*
X132970100Y-25181300D03*
X126230100Y-25971300D03*
%TD*%
D14*
%TO.C,C14*%
X113198300Y-57146400D03*
X113198300Y-55246400D03*
%TD*%
D20*
%TO.C,R14*%
X88890900Y-70725200D03*
X90790900Y-70725200D03*
%TD*%
D15*
%TO.C,RN10*%
X202883600Y-48830400D03*
X202883600Y-50100400D03*
X202883600Y-51370400D03*
X202883600Y-52640400D03*
X204788600Y-52640400D03*
X204788600Y-51370400D03*
X204788600Y-50100400D03*
X204788600Y-48830400D03*
%TD*%
D58*
%TO.C,JOY1*%
X191999700Y-33539600D03*
X189256500Y-33539600D03*
X186513300Y-33539600D03*
X183770100Y-33539600D03*
X181026900Y-33539600D03*
X190628100Y-30999600D03*
X187884900Y-30999600D03*
X185141700Y-30999600D03*
X182398500Y-30999600D03*
D47*
X199035500Y-32269600D03*
X173991100Y-32269600D03*
%TD*%
D20*
%TO.C,R35*%
X115586300Y-150430400D03*
X117486300Y-150430400D03*
%TD*%
D15*
%TO.C,RN14*%
X163790400Y-66670000D03*
X163790400Y-67940000D03*
X163790400Y-69210000D03*
X163790400Y-70480000D03*
X165695400Y-70480000D03*
X165695400Y-69210000D03*
X165695400Y-67940000D03*
X165695400Y-66670000D03*
%TD*%
D58*
%TO.C,JOY2*%
X223292500Y-33539600D03*
X220549300Y-33539600D03*
X217806100Y-33539600D03*
X215062900Y-33539600D03*
X212319700Y-33539600D03*
X221920900Y-30999600D03*
X219177700Y-30999600D03*
X216434500Y-30999600D03*
X213691300Y-30999600D03*
D47*
X230328300Y-32269600D03*
X205283900Y-32269600D03*
%TD*%
D14*
%TO.C,C27*%
X123856578Y-57146400D03*
X123856578Y-55246400D03*
%TD*%
D20*
%TO.C,C31*%
X218914300Y-67626400D03*
X220914300Y-67626400D03*
%TD*%
D59*
%TO.C,XTL_50MHZ0*%
X130714059Y-57575663D03*
X135794059Y-57575663D03*
X135794059Y-48745663D03*
X130714059Y-48745663D03*
%TD*%
D55*
%TO.C,RN11*%
X210617900Y-51687900D03*
X211887900Y-51687900D03*
X213157900Y-51687900D03*
X214427900Y-51687900D03*
X214427900Y-49782900D03*
X213157900Y-49782900D03*
X211887900Y-49782900D03*
X210617900Y-49782900D03*
%TD*%
D15*
%TO.C,RN24*%
X181990800Y-72562800D03*
X181990800Y-73832800D03*
X181990800Y-75102800D03*
X181990800Y-76372800D03*
X183895800Y-76372800D03*
X183895800Y-75102800D03*
X183895800Y-73832800D03*
X183895800Y-72562800D03*
%TD*%
%TO.C,RN4*%
X101004200Y-133107600D03*
X101004200Y-134377600D03*
X101004200Y-135647600D03*
X101004200Y-136917600D03*
X102909200Y-136917600D03*
X102909200Y-135647600D03*
X102909200Y-134377600D03*
X102909200Y-133107600D03*
%TD*%
%TO.C,RN18*%
X163790400Y-90342800D03*
X163790400Y-91612800D03*
X163790400Y-92882800D03*
X163790400Y-94152800D03*
X165695400Y-94152800D03*
X165695400Y-92882800D03*
X165695400Y-91612800D03*
X165695400Y-90342800D03*
%TD*%
D20*
%TO.C,R37*%
X115586300Y-157847200D03*
X117486300Y-157847200D03*
%TD*%
D26*
%TO.C,R41*%
X157481100Y-54154200D03*
X157481100Y-56054200D03*
%TD*%
D44*
%TO.C,IC4*%
X176331100Y-170553600D03*
X176331100Y-171203600D03*
X176331100Y-171853600D03*
X176331100Y-172503600D03*
X176331100Y-173153600D03*
X176331100Y-173803600D03*
X176331100Y-174453600D03*
X176331100Y-175103600D03*
X176331100Y-175753600D03*
X176331100Y-176403600D03*
X176331100Y-177053600D03*
X176331100Y-177703600D03*
X182166700Y-177703600D03*
X182166700Y-177053600D03*
X182166700Y-176403600D03*
X182166700Y-175753600D03*
X182166700Y-175103600D03*
X182166700Y-174453600D03*
X182166700Y-173803600D03*
X182166700Y-173153600D03*
X182166700Y-172503600D03*
X182166700Y-171853600D03*
X182166700Y-171203600D03*
X182166700Y-170553600D03*
%TD*%
D20*
%TO.C,R38*%
X127422700Y-157847200D03*
X129322700Y-157847200D03*
%TD*%
D15*
%TO.C,RN33*%
X163718000Y-148204000D03*
X163718000Y-149474000D03*
X163718000Y-150744000D03*
X163718000Y-152014000D03*
X165623000Y-152014000D03*
X165623000Y-150744000D03*
X165623000Y-149474000D03*
X165623000Y-148204000D03*
%TD*%
D26*
%TO.C,R40*%
X153925100Y-54179600D03*
X153925100Y-56079600D03*
%TD*%
D44*
%TO.C,IC1*%
X176331100Y-122801600D03*
X176331100Y-123451600D03*
X176331100Y-124101600D03*
X176331100Y-124751600D03*
X176331100Y-125401600D03*
X176331100Y-126051600D03*
X176331100Y-126701600D03*
X176331100Y-127351600D03*
X176331100Y-128001600D03*
X176331100Y-128651600D03*
X176331100Y-129301600D03*
X176331100Y-129951600D03*
X182166700Y-129951600D03*
X182166700Y-129301600D03*
X182166700Y-128651600D03*
X182166700Y-128001600D03*
X182166700Y-127351600D03*
X182166700Y-126701600D03*
X182166700Y-126051600D03*
X182166700Y-125401600D03*
X182166700Y-124751600D03*
X182166700Y-124101600D03*
X182166700Y-123451600D03*
X182166700Y-122801600D03*
%TD*%
D29*
%TO.C,H2*%
X227331100Y-53023600D03*
%TD*%
D13*
%TO.C,UNK2V5*%
X69309100Y-117715200D03*
X71409100Y-117715200D03*
%TD*%
D32*
%TO.C,C19*%
X80832500Y-134208200D03*
X82732500Y-134208200D03*
%TD*%
D31*
%TO.C,R6*%
X107275900Y-44395600D03*
X107275900Y-42495600D03*
%TD*%
D16*
%TO.C,C4*%
X72518100Y-48765600D03*
X72518100Y-50665600D03*
%TD*%
D45*
%TO.C,C21*%
X104468300Y-150430400D03*
X107268300Y-150430400D03*
%TD*%
D60*
%TO.C,UNK74HCT03*%
X203683700Y-71919000D03*
X203683700Y-73189000D03*
X203683700Y-74459000D03*
X203683700Y-75729000D03*
X203683700Y-76999000D03*
X203683700Y-78269000D03*
X203683700Y-79539000D03*
X209830500Y-79539000D03*
X209830500Y-78269000D03*
X209830500Y-76999000D03*
X209830500Y-75729000D03*
X209830500Y-74459000D03*
X209830500Y-73189000D03*
X209830500Y-71919000D03*
%TD*%
D23*
%TO.C,JTAG0*%
X71126500Y-93253000D03*
X73666500Y-93253000D03*
X71126500Y-95793000D03*
X73666500Y-95793000D03*
X71126500Y-98333000D03*
X73666500Y-98333000D03*
X71126500Y-100873000D03*
X73666500Y-100873000D03*
X71126500Y-103413000D03*
X73666500Y-103413000D03*
%TD*%
D15*
%TO.C,RN20*%
X163790400Y-102331600D03*
X163790400Y-103601600D03*
X163790400Y-104871600D03*
X163790400Y-106141600D03*
X165695400Y-106141600D03*
X165695400Y-104871600D03*
X165695400Y-103601600D03*
X165695400Y-102331600D03*
%TD*%
D17*
%TO.C,R50*%
X217613100Y-156678800D03*
X215713100Y-156678800D03*
%TD*%
D16*
%TO.C,C5*%
X72518100Y-54814600D03*
X72518100Y-56714600D03*
%TD*%
D15*
%TO.C,RN30*%
X163718000Y-127204000D03*
X163718000Y-128474000D03*
X163718000Y-129744000D03*
X163718000Y-131014000D03*
X165623000Y-131014000D03*
X165623000Y-129744000D03*
X165623000Y-128474000D03*
X165623000Y-127204000D03*
%TD*%
D17*
%TO.C,C34*%
X204048700Y-89191000D03*
X202048700Y-89191000D03*
%TD*%
%TO.C,R48*%
X230440100Y-88657600D03*
X228540100Y-88657600D03*
%TD*%
D40*
%TO.C,RN6*%
X130849200Y-138416200D03*
X130849200Y-137146200D03*
X130849200Y-135876200D03*
X130849200Y-134606200D03*
X128944200Y-134606200D03*
X128944200Y-135876200D03*
X128944200Y-137146200D03*
X128944200Y-138416200D03*
%TD*%
D17*
%TO.C,R11*%
X82637500Y-65188000D03*
X80737500Y-65188000D03*
%TD*%
D20*
%TO.C,R13*%
X80737500Y-70725200D03*
X82637500Y-70725200D03*
%TD*%
D61*
%TO.C,SPI0*%
X77471100Y-79869200D03*
X77471100Y-81139200D03*
X77471100Y-82409200D03*
X77471100Y-83679200D03*
X82398700Y-83679200D03*
X82398700Y-82409200D03*
X82398700Y-81139200D03*
X82398700Y-79869200D03*
D62*
X84344900Y-77564200D03*
X83074900Y-77564200D03*
X81804900Y-77564200D03*
X80534900Y-77564200D03*
X79264900Y-77564200D03*
X77994900Y-77564200D03*
X76724900Y-77564200D03*
X75454900Y-77564200D03*
X75454900Y-85984200D03*
X76724900Y-85984200D03*
X77994900Y-85984200D03*
X79264900Y-85984200D03*
X80534900Y-85984200D03*
X81804900Y-85984200D03*
X83074900Y-85984200D03*
X84344900Y-85984200D03*
%TD*%
D17*
%TO.C,R12*%
X90790900Y-65188000D03*
X88890900Y-65188000D03*
%TD*%
D14*
%TO.C,C1*%
X69063700Y-46554600D03*
X69063700Y-44654600D03*
%TD*%
D55*
%TO.C,RN1*%
X78072100Y-35076300D03*
X79342100Y-35076300D03*
X80612100Y-35076300D03*
X81882100Y-35076300D03*
X81882100Y-33171300D03*
X80612100Y-33171300D03*
X79342100Y-33171300D03*
X78072100Y-33171300D03*
%TD*%
D41*
%TO.C,PF2*%
X67540100Y-149490600D03*
X70384100Y-149490600D03*
%TD*%
D44*
%TO.C,IC5*%
X188167500Y-60123200D03*
X188167500Y-60773200D03*
X188167500Y-61423200D03*
X188167500Y-62073200D03*
X188167500Y-62723200D03*
X188167500Y-63373200D03*
X188167500Y-64023200D03*
X188167500Y-64673200D03*
X188167500Y-65323200D03*
X188167500Y-65973200D03*
X188167500Y-66623200D03*
X188167500Y-67273200D03*
X194003100Y-67273200D03*
X194003100Y-66623200D03*
X194003100Y-65973200D03*
X194003100Y-65323200D03*
X194003100Y-64673200D03*
X194003100Y-64023200D03*
X194003100Y-63373200D03*
X194003100Y-62723200D03*
X194003100Y-62073200D03*
X194003100Y-61423200D03*
X194003100Y-60773200D03*
X194003100Y-60123200D03*
%TD*%
D63*
%TO.C,U$1*%
X99406900Y-80113400D03*
X100406900Y-80113400D03*
X101406900Y-80113400D03*
X102406900Y-80113400D03*
X103406900Y-80113400D03*
X104406900Y-80113400D03*
X105406900Y-80113400D03*
X106406900Y-80113400D03*
X107406900Y-80113400D03*
X108406900Y-80113400D03*
X109406900Y-80113400D03*
X110406900Y-80113400D03*
X111406900Y-80113400D03*
X112406900Y-80113400D03*
X113406900Y-80113400D03*
X114406900Y-80113400D03*
X115406900Y-80113400D03*
X116406900Y-80113400D03*
X117406900Y-80113400D03*
X118406900Y-80113400D03*
X119406900Y-80113400D03*
X120406900Y-80113400D03*
X99406900Y-100113400D03*
X100406900Y-100113400D03*
X101406900Y-100113400D03*
X102406900Y-100113400D03*
X103406900Y-100113400D03*
X104406900Y-100113400D03*
X105406900Y-100113400D03*
X106406900Y-100113400D03*
X107406900Y-100113400D03*
X108406900Y-100113400D03*
X109406900Y-100113400D03*
X110406900Y-100113400D03*
X111406900Y-100113400D03*
X112406900Y-100113400D03*
X113406900Y-100113400D03*
X114406900Y-100113400D03*
X115406900Y-100113400D03*
X116406900Y-100113400D03*
X117406900Y-100113400D03*
X118406900Y-100113400D03*
X119406900Y-100113400D03*
X120406900Y-100113400D03*
X99406900Y-101113400D03*
X100406900Y-101113400D03*
X101406900Y-101113400D03*
X102406900Y-101113400D03*
X103406900Y-101113400D03*
X104406900Y-101113400D03*
X105406900Y-101113400D03*
X106406900Y-101113400D03*
X107406900Y-101113400D03*
X108406900Y-101113400D03*
X109406900Y-101113400D03*
X110406900Y-101113400D03*
X111406900Y-101113400D03*
X112406900Y-101113400D03*
X113406900Y-101113400D03*
X114406900Y-101113400D03*
X115406900Y-101113400D03*
X116406900Y-101113400D03*
X117406900Y-101113400D03*
X118406900Y-101113400D03*
X119406900Y-101113400D03*
X120406900Y-101113400D03*
X99406900Y-81113400D03*
X100406900Y-81113400D03*
X101406900Y-81113400D03*
X102406900Y-81113400D03*
X103406900Y-81113400D03*
X104406900Y-81113400D03*
X105406900Y-81113400D03*
X106406900Y-81113400D03*
X107406900Y-81113400D03*
X108406900Y-81113400D03*
X109406900Y-81113400D03*
X110406900Y-81113400D03*
X111406900Y-81113400D03*
X112406900Y-81113400D03*
X113406900Y-81113400D03*
X114406900Y-81113400D03*
X115406900Y-81113400D03*
X116406900Y-81113400D03*
X117406900Y-81113400D03*
X118406900Y-81113400D03*
X119406900Y-81113400D03*
X120406900Y-81113400D03*
X99406900Y-82113400D03*
X100406900Y-82113400D03*
X101406900Y-82113400D03*
X102406900Y-82113400D03*
X103406900Y-82113400D03*
X104406900Y-82113400D03*
X105406900Y-82113400D03*
X106406900Y-82113400D03*
X107406900Y-82113400D03*
X108406900Y-82113400D03*
X109406900Y-82113400D03*
X110406900Y-82113400D03*
X111406900Y-82113400D03*
X112406900Y-82113400D03*
X113406900Y-82113400D03*
X114406900Y-82113400D03*
X115406900Y-82113400D03*
X116406900Y-82113400D03*
X117406900Y-82113400D03*
X118406900Y-82113400D03*
X119406900Y-82113400D03*
X120406900Y-82113400D03*
X99406900Y-83113400D03*
X100406900Y-83113400D03*
X101406900Y-83113400D03*
X102406900Y-83113400D03*
X103406900Y-83113400D03*
X104406900Y-83113400D03*
X105406900Y-83113400D03*
X106406900Y-83113400D03*
X107406900Y-83113400D03*
X108406900Y-83113400D03*
X109406900Y-83113400D03*
X110406900Y-83113400D03*
X111406900Y-83113400D03*
X112406900Y-83113400D03*
X113406900Y-83113400D03*
X114406900Y-83113400D03*
X115406900Y-83113400D03*
X116406900Y-83113400D03*
X117406900Y-83113400D03*
X118406900Y-83113400D03*
X119406900Y-83113400D03*
X120406900Y-83113400D03*
X99406900Y-84113400D03*
X100406900Y-84113400D03*
X101406900Y-84113400D03*
X102406900Y-84113400D03*
X103406900Y-84113400D03*
X104406900Y-84113400D03*
X105406900Y-84113400D03*
X106406900Y-84113400D03*
X107406900Y-84113400D03*
X108406900Y-84113400D03*
X109406900Y-84113400D03*
X110406900Y-84113400D03*
X111406900Y-84113400D03*
X112406900Y-84113400D03*
X113406900Y-84113400D03*
X114406900Y-84113400D03*
X115406900Y-84113400D03*
X116406900Y-84113400D03*
X117406900Y-84113400D03*
X118406900Y-84113400D03*
X119406900Y-84113400D03*
X120406900Y-84113400D03*
X99406900Y-85113400D03*
X100406900Y-85113400D03*
X101406900Y-85113400D03*
X102406900Y-85113400D03*
X103406900Y-85113400D03*
X104406900Y-85113400D03*
X105406900Y-85113400D03*
X106406900Y-85113400D03*
X107406900Y-85113400D03*
X108406900Y-85113400D03*
X109406900Y-85113400D03*
X110406900Y-85113400D03*
X111406900Y-85113400D03*
X112406900Y-85113400D03*
X113406900Y-85113400D03*
X114406900Y-85113400D03*
X115406900Y-85113400D03*
X116406900Y-85113400D03*
X117406900Y-85113400D03*
X118406900Y-85113400D03*
X119406900Y-85113400D03*
X120406900Y-85113400D03*
X99406900Y-86113400D03*
X100406900Y-86113400D03*
X101406900Y-86113400D03*
X102406900Y-86113400D03*
X103406900Y-86113400D03*
X104406900Y-86113400D03*
X105406900Y-86113400D03*
X106406900Y-86113400D03*
X107406900Y-86113400D03*
X108406900Y-86113400D03*
X109406900Y-86113400D03*
X110406900Y-86113400D03*
X111406900Y-86113400D03*
X112406900Y-86113400D03*
X113406900Y-86113400D03*
X114406900Y-86113400D03*
X115406900Y-86113400D03*
X116406900Y-86113400D03*
X117406900Y-86113400D03*
X118406900Y-86113400D03*
X119406900Y-86113400D03*
X120406900Y-86113400D03*
X99406900Y-87113400D03*
X100406900Y-87113400D03*
X101406900Y-87113400D03*
X102406900Y-87113400D03*
X103406900Y-87113400D03*
X104406900Y-87113400D03*
X105406900Y-87113400D03*
X106406900Y-87113400D03*
X107406900Y-87113400D03*
X108406900Y-87113400D03*
X109406900Y-87113400D03*
X110406900Y-87113400D03*
X111406900Y-87113400D03*
X112406900Y-87113400D03*
X113406900Y-87113400D03*
X114406900Y-87113400D03*
X115406900Y-87113400D03*
X116406900Y-87113400D03*
X117406900Y-87113400D03*
X118406900Y-87113400D03*
X119406900Y-87113400D03*
X120406900Y-87113400D03*
X99406900Y-88113400D03*
X100406900Y-88113400D03*
X101406900Y-88113400D03*
X102406900Y-88113400D03*
X103406900Y-88113400D03*
X104406900Y-88113400D03*
X105406900Y-88113400D03*
X106406900Y-88113400D03*
X107406900Y-88113400D03*
X108406900Y-88113400D03*
X109406900Y-88113400D03*
X110406900Y-88113400D03*
X111406900Y-88113400D03*
X112406900Y-88113400D03*
X113406900Y-88113400D03*
X114406900Y-88113400D03*
X115406900Y-88113400D03*
X116406900Y-88113400D03*
X117406900Y-88113400D03*
X118406900Y-88113400D03*
X119406900Y-88113400D03*
X120406900Y-88113400D03*
X99406900Y-89113400D03*
X100406900Y-89113400D03*
X101406900Y-89113400D03*
X102406900Y-89113400D03*
X103406900Y-89113400D03*
X104406900Y-89113400D03*
X105406900Y-89113400D03*
X106406900Y-89113400D03*
X107406900Y-89113400D03*
X108406900Y-89113400D03*
X109406900Y-89113400D03*
X110406900Y-89113400D03*
X111406900Y-89113400D03*
X112406900Y-89113400D03*
X113406900Y-89113400D03*
X114406900Y-89113400D03*
X115406900Y-89113400D03*
X116406900Y-89113400D03*
X117406900Y-89113400D03*
X118406900Y-89113400D03*
X119406900Y-89113400D03*
X120406900Y-89113400D03*
X99406900Y-90113400D03*
X100406900Y-90113400D03*
X101406900Y-90113400D03*
X102406900Y-90113400D03*
X103406900Y-90113400D03*
X104406900Y-90113400D03*
X105406900Y-90113400D03*
X106406900Y-90113400D03*
X107406900Y-90113400D03*
X108406900Y-90113400D03*
X109406900Y-90113400D03*
X110406900Y-90113400D03*
X111406900Y-90113400D03*
X112406900Y-90113400D03*
X113406900Y-90113400D03*
X114406900Y-90113400D03*
X115406900Y-90113400D03*
X116406900Y-90113400D03*
X117406900Y-90113400D03*
X118406900Y-90113400D03*
X119406900Y-90113400D03*
X120406900Y-90113400D03*
X99406900Y-91113400D03*
X100406900Y-91113400D03*
X101406900Y-91113400D03*
X102406900Y-91113400D03*
X103406900Y-91113400D03*
X104406900Y-91113400D03*
X105406900Y-91113400D03*
X106406900Y-91113400D03*
X107406900Y-91113400D03*
X108406900Y-91113400D03*
X109406900Y-91113400D03*
X110406900Y-91113400D03*
X111406900Y-91113400D03*
X112406900Y-91113400D03*
X113406900Y-91113400D03*
X114406900Y-91113400D03*
X115406900Y-91113400D03*
X116406900Y-91113400D03*
X117406900Y-91113400D03*
X118406900Y-91113400D03*
X119406900Y-91113400D03*
X120406900Y-91113400D03*
X99406900Y-92113400D03*
X100406900Y-92113400D03*
X101406900Y-92113400D03*
X102406900Y-92113400D03*
X103406900Y-92113400D03*
X104406900Y-92113400D03*
X105406900Y-92113400D03*
X106406900Y-92113400D03*
X107406900Y-92113400D03*
X108406900Y-92113400D03*
X109406900Y-92113400D03*
X110406900Y-92113400D03*
X111406900Y-92113400D03*
X112406900Y-92113400D03*
X113406900Y-92113400D03*
X114406900Y-92113400D03*
X115406900Y-92113400D03*
X116406900Y-92113400D03*
X117406900Y-92113400D03*
X118406900Y-92113400D03*
X119406900Y-92113400D03*
X120406900Y-92113400D03*
X99406900Y-93113400D03*
X100406900Y-93113400D03*
X101406900Y-93113400D03*
X102406900Y-93113400D03*
X103406900Y-93113400D03*
X104406900Y-93113400D03*
X105406900Y-93113400D03*
X106406900Y-93113400D03*
X107406900Y-93113400D03*
X108406900Y-93113400D03*
X109406900Y-93113400D03*
X110406900Y-93113400D03*
X111406900Y-93113400D03*
X112406900Y-93113400D03*
X113406900Y-93113400D03*
X114406900Y-93113400D03*
X115406900Y-93113400D03*
X116406900Y-93113400D03*
X117406900Y-93113400D03*
X118406900Y-93113400D03*
X119406900Y-93113400D03*
X120406900Y-93113400D03*
X99406900Y-94113400D03*
X100406900Y-94113400D03*
X101406900Y-94113400D03*
X102406900Y-94113400D03*
X103406900Y-94113400D03*
X104406900Y-94113400D03*
X105406900Y-94113400D03*
X106406900Y-94113400D03*
X107406900Y-94113400D03*
X108406900Y-94113400D03*
X109406900Y-94113400D03*
X110406900Y-94113400D03*
X111406900Y-94113400D03*
X112406900Y-94113400D03*
X113406900Y-94113400D03*
X114406900Y-94113400D03*
X115406900Y-94113400D03*
X116406900Y-94113400D03*
X117406900Y-94113400D03*
X118406900Y-94113400D03*
X119406900Y-94113400D03*
X120406900Y-94113400D03*
X99406900Y-95113400D03*
X100406900Y-95113400D03*
X101406900Y-95113400D03*
X102406900Y-95113400D03*
X103406900Y-95113400D03*
X104406900Y-95113400D03*
X105406900Y-95113400D03*
X106406900Y-95113400D03*
X107406900Y-95113400D03*
X108406900Y-95113400D03*
X109406900Y-95113400D03*
X110406900Y-95113400D03*
X111406900Y-95113400D03*
X112406900Y-95113400D03*
X113406900Y-95113400D03*
X114406900Y-95113400D03*
X115406900Y-95113400D03*
X116406900Y-95113400D03*
X117406900Y-95113400D03*
X118406900Y-95113400D03*
X119406900Y-95113400D03*
X120406900Y-95113400D03*
X99406900Y-96113400D03*
X100406900Y-96113400D03*
X101406900Y-96113400D03*
X102406900Y-96113400D03*
X103406900Y-96113400D03*
X104406900Y-96113400D03*
X105406900Y-96113400D03*
X106406900Y-96113400D03*
X107406900Y-96113400D03*
X108406900Y-96113400D03*
X109406900Y-96113400D03*
X110406900Y-96113400D03*
X111406900Y-96113400D03*
X112406900Y-96113400D03*
X113406900Y-96113400D03*
X114406900Y-96113400D03*
X115406900Y-96113400D03*
X116406900Y-96113400D03*
X117406900Y-96113400D03*
X118406900Y-96113400D03*
X119406900Y-96113400D03*
X120406900Y-96113400D03*
X99406900Y-97113400D03*
X100406900Y-97113400D03*
X101406900Y-97113400D03*
X102406900Y-97113400D03*
X103406900Y-97113400D03*
X104406900Y-97113400D03*
X105406900Y-97113400D03*
X106406900Y-97113400D03*
X107406900Y-97113400D03*
X108406900Y-97113400D03*
X109406900Y-97113400D03*
X110406900Y-97113400D03*
X111406900Y-97113400D03*
X112406900Y-97113400D03*
X113406900Y-97113400D03*
X114406900Y-97113400D03*
X115406900Y-97113400D03*
X116406900Y-97113400D03*
X117406900Y-97113400D03*
X118406900Y-97113400D03*
X119406900Y-97113400D03*
X120406900Y-97113400D03*
X99406900Y-98113400D03*
X100406900Y-98113400D03*
X101406900Y-98113400D03*
X102406900Y-98113400D03*
X103406900Y-98113400D03*
X104406900Y-98113400D03*
X105406900Y-98113400D03*
X106406900Y-98113400D03*
X107406900Y-98113400D03*
X108406900Y-98113400D03*
X109406900Y-98113400D03*
X110406900Y-98113400D03*
X111406900Y-98113400D03*
X112406900Y-98113400D03*
X113406900Y-98113400D03*
X114406900Y-98113400D03*
X115406900Y-98113400D03*
X116406900Y-98113400D03*
X117406900Y-98113400D03*
X118406900Y-98113400D03*
X119406900Y-98113400D03*
X120406900Y-98113400D03*
X99406900Y-99113400D03*
X100406900Y-99113400D03*
X101406900Y-99113400D03*
X102406900Y-99113400D03*
X103406900Y-99113400D03*
X104406900Y-99113400D03*
X105406900Y-99113400D03*
X106406900Y-99113400D03*
X107406900Y-99113400D03*
X108406900Y-99113400D03*
X109406900Y-99113400D03*
X110406900Y-99113400D03*
X111406900Y-99113400D03*
X112406900Y-99113400D03*
X113406900Y-99113400D03*
X114406900Y-99113400D03*
X115406900Y-99113400D03*
X116406900Y-99113400D03*
X117406900Y-99113400D03*
X118406900Y-99113400D03*
X119406900Y-99113400D03*
X120406900Y-99113400D03*
%TD*%
D54*
%TO.C,JP2*%
X134189300Y-38111600D03*
X136729300Y-38111600D03*
X139269300Y-38111600D03*
%TD*%
D16*
%TO.C,C25*%
X111405500Y-156897200D03*
X111405500Y-158797200D03*
%TD*%
D17*
%TO.C,C40*%
X180248900Y-153300600D03*
X178248900Y-153300600D03*
%TD*%
D26*
%TO.C,R5*%
X98186900Y-42495600D03*
X98186900Y-44395600D03*
%TD*%
D34*
%TO.C,TR1*%
X69409100Y-131769200D03*
X70359100Y-129569200D03*
X71309100Y-131769200D03*
%TD*%
D17*
%TO.C,R51*%
X217613100Y-159930000D03*
X215713100Y-159930000D03*
%TD*%
D29*
%TO.C,H3*%
X69851100Y-185103600D03*
%TD*%
D32*
%TO.C,R22*%
X69409100Y-114667200D03*
X71309100Y-114667200D03*
%TD*%
D13*
%TO.C,TX0*%
X223487100Y-85736600D03*
X225587100Y-85736600D03*
%TD*%
D64*
%TO.C,D2*%
X173584700Y-44078800D03*
X173584700Y-40678800D03*
%TD*%
D17*
%TO.C,R17*%
X71436100Y-77075200D03*
X69536100Y-77075200D03*
%TD*%
D55*
%TO.C,RN8*%
X186157700Y-51687900D03*
X187427700Y-51687900D03*
X188697700Y-51687900D03*
X189967700Y-51687900D03*
X189967700Y-49782900D03*
X188697700Y-49782900D03*
X187427700Y-49782900D03*
X186157700Y-49782900D03*
%TD*%
D15*
%TO.C,RN34*%
X163718000Y-155204000D03*
X163718000Y-156474000D03*
X163718000Y-157744000D03*
X163718000Y-159014000D03*
X165623000Y-159014000D03*
X165623000Y-157744000D03*
X165623000Y-156474000D03*
X165623000Y-155204000D03*
%TD*%
D60*
%TO.C,MAX232*%
X209678100Y-88505200D03*
X209678100Y-89775200D03*
X209678100Y-91045200D03*
X209678100Y-92315200D03*
X209678100Y-93585200D03*
X209678100Y-94855200D03*
X209678100Y-96125200D03*
X209678100Y-97395200D03*
X219482500Y-97395200D03*
X219482500Y-96125200D03*
X219482500Y-94855200D03*
X219482500Y-93585200D03*
X219482500Y-92315200D03*
X219482500Y-91045200D03*
X219482500Y-89775200D03*
X219482500Y-88505200D03*
%TD*%
D32*
%TO.C,R3*%
X76648100Y-60895400D03*
X78548100Y-60895400D03*
%TD*%
D17*
%TO.C,R54*%
X217613100Y-170242400D03*
X215713100Y-170242400D03*
%TD*%
D20*
%TO.C,R36*%
X127422700Y-150430400D03*
X129322700Y-150430400D03*
%TD*%
D15*
%TO.C,RN27*%
X181990800Y-90342800D03*
X181990800Y-91612800D03*
X181990800Y-92882800D03*
X181990800Y-94152800D03*
X183895800Y-94152800D03*
X183895800Y-92882800D03*
X183895800Y-91612800D03*
X183895800Y-90342800D03*
%TD*%
D14*
%TO.C,R10*%
X119812900Y-44395600D03*
X119812900Y-42495600D03*
%TD*%
D54*
%TO.C,RESET_LED0*%
X68250900Y-154570600D03*
X70790900Y-154570600D03*
%TD*%
D15*
%TO.C,RN21*%
X163790400Y-108427600D03*
X163790400Y-109697600D03*
X163790400Y-110967600D03*
X163790400Y-112237600D03*
X165695400Y-112237600D03*
X165695400Y-110967600D03*
X165695400Y-109697600D03*
X165695400Y-108427600D03*
%TD*%
D14*
%TO.C,C12*%
X107275900Y-57146400D03*
X107275900Y-55246400D03*
%TD*%
D26*
%TO.C,R34*%
X105360300Y-141047600D03*
X105360300Y-142947600D03*
%TD*%
D23*
%TO.C,GPIO_B0*%
X192406100Y-92213600D03*
X194946100Y-92213600D03*
X192406100Y-94753600D03*
X194946100Y-94753600D03*
X192406100Y-97293600D03*
X194946100Y-97293600D03*
X192406100Y-99833600D03*
X194946100Y-99833600D03*
X192406100Y-102373600D03*
X194946100Y-102373600D03*
X192406100Y-104913600D03*
X194946100Y-104913600D03*
X192406100Y-107453600D03*
X194946100Y-107453600D03*
%TD*%
D15*
%TO.C,RN15*%
X163790400Y-72562800D03*
X163790400Y-73832800D03*
X163790400Y-75102800D03*
X163790400Y-76372800D03*
X165695400Y-76372800D03*
X165695400Y-75102800D03*
X165695400Y-73832800D03*
X165695400Y-72562800D03*
%TD*%
D65*
%TO.C,D1*%
X116333100Y-139891200D03*
X116333100Y-143291200D03*
%TD*%
D29*
%TO.C,H1*%
X69851100Y-30163600D03*
%TD*%
D16*
%TO.C,R31*%
X95165500Y-141047600D03*
X95165500Y-142947600D03*
%TD*%
D66*
%TO.C,SDRAM0*%
X76784900Y-110117000D03*
X76784900Y-110917000D03*
X76784900Y-111717000D03*
X76784900Y-112517000D03*
X76784900Y-113317000D03*
X76784900Y-114117000D03*
X76784900Y-114917000D03*
X76784900Y-115717000D03*
X76784900Y-116517000D03*
X76784900Y-117317000D03*
X76784900Y-118117000D03*
X76784900Y-118917000D03*
X76784900Y-119717000D03*
X76784900Y-120517000D03*
X76784900Y-121317000D03*
X76784900Y-122117000D03*
X76784900Y-122917000D03*
X76784900Y-123717000D03*
X76784900Y-124517000D03*
X76784900Y-125317000D03*
D67*
X76784900Y-126117000D03*
X76784900Y-126917000D03*
X76784900Y-127717000D03*
X76784900Y-128517000D03*
X76784900Y-129317000D03*
X76784900Y-130117000D03*
X76784900Y-130917000D03*
D66*
X87684900Y-130917000D03*
X87684900Y-130117000D03*
X87684900Y-129317000D03*
X87684900Y-128517000D03*
X87684900Y-127717000D03*
X87684900Y-126917000D03*
X87684900Y-126117000D03*
X87684900Y-125317000D03*
X87684900Y-124517000D03*
X87684900Y-123717000D03*
X87684900Y-122917000D03*
X87684900Y-122117000D03*
X87684900Y-121317000D03*
X87684900Y-120517000D03*
X87684900Y-119717000D03*
X87684900Y-118917000D03*
X87684900Y-118117000D03*
X87684900Y-117317000D03*
X87684900Y-116517000D03*
X87684900Y-115717000D03*
X87684900Y-114917000D03*
X87684900Y-114117000D03*
X87684900Y-113317000D03*
X87684900Y-112517000D03*
X87684900Y-111717000D03*
X87684900Y-110917000D03*
X87684900Y-110117000D03*
%TD*%
D50*
%TO.C,UNK3.3V0*%
X76429700Y-43013800D03*
X76429700Y-43953600D03*
X76429700Y-44893400D03*
X78766500Y-44893400D03*
X78766500Y-43013800D03*
%TD*%
%TO.C,UNK2.5V0*%
X76429700Y-48601800D03*
X76429700Y-49541600D03*
X76429700Y-50481400D03*
X78766500Y-50481400D03*
X78766500Y-48601800D03*
%TD*%
%TO.C,ADC0*%
X76429700Y-66966000D03*
X76429700Y-67905800D03*
X76429700Y-68845600D03*
X78766500Y-68845600D03*
X78766500Y-66966000D03*
%TD*%
D32*
%TO.C,R2*%
X64964100Y-51624400D03*
X66864100Y-51624400D03*
%TD*%
D15*
%TO.C,RN29*%
X163718000Y-120204000D03*
X163718000Y-121474000D03*
X163718000Y-122744000D03*
X163718000Y-124014000D03*
X165623000Y-124014000D03*
X165623000Y-122744000D03*
X165623000Y-121474000D03*
X165623000Y-120204000D03*
%TD*%
D68*
%TO.C,PF3*%
X113031100Y-143013200D03*
X113031100Y-140169200D03*
%TD*%
D48*
%TO.C,L1*%
X82675100Y-43953600D03*
X85475100Y-43953600D03*
%TD*%
D14*
%TO.C,R26*%
X75150300Y-142947600D03*
X75150300Y-141047600D03*
%TD*%
D20*
%TO.C,R16*%
X69536100Y-74535200D03*
X71436100Y-74535200D03*
%TD*%
M02*
