%TF.GenerationSoftware,KiCad,Pcbnew,9.0.7*%
%TF.CreationDate,2026-08-08T12:24:42+02:00*%
%TF.ProjectId,eclaireXLv1,65636c61-6972-4655-984c-76312e6b6963,rev?*%
%TF.SameCoordinates,Original*%
%TF.FileFunction,Legend,Bot*%
%TF.FilePolarity,Positive*%
%FSLAX46Y46*%
G04 Gerber Fmt 4.6, Leading zero omitted, Abs format (unit mm)*
G04 Created by KiCad (PCBNEW 9.0.7) date 2026-08-08 12:24:42*
%MOMM*%
%LPD*%
G01*
G04 APERTURE LIST*
%ADD10C,0.140208*%
G04 APERTURE END LIST*
D10*
X96237483Y-74652520D02*
X96279187Y-74694225D01*
X96279187Y-74694225D02*
X96404301Y-74735929D01*
X96404301Y-74735929D02*
X96487709Y-74735929D01*
X96487709Y-74735929D02*
X96612822Y-74694225D01*
X96612822Y-74694225D02*
X96696231Y-74610816D01*
X96696231Y-74610816D02*
X96737936Y-74527407D01*
X96737936Y-74527407D02*
X96779640Y-74360589D01*
X96779640Y-74360589D02*
X96779640Y-74235476D01*
X96779640Y-74235476D02*
X96737936Y-74068659D01*
X96737936Y-74068659D02*
X96696231Y-73985250D01*
X96696231Y-73985250D02*
X96612822Y-73901841D01*
X96612822Y-73901841D02*
X96487709Y-73860137D01*
X96487709Y-73860137D02*
X96404301Y-73860137D01*
X96404301Y-73860137D02*
X96279187Y-73901841D01*
X96279187Y-73901841D02*
X96237483Y-73943546D01*
X95486804Y-74152068D02*
X95486804Y-74735929D01*
X95695326Y-73818433D02*
X95903848Y-74443998D01*
X95903848Y-74443998D02*
X95361691Y-74443998D01*
X94902942Y-74235476D02*
X94986351Y-74193772D01*
X94986351Y-74193772D02*
X95028056Y-74152068D01*
X95028056Y-74152068D02*
X95069760Y-74068659D01*
X95069760Y-74068659D02*
X95069760Y-74026954D01*
X95069760Y-74026954D02*
X95028056Y-73943546D01*
X95028056Y-73943546D02*
X94986351Y-73901841D01*
X94986351Y-73901841D02*
X94902942Y-73860137D01*
X94902942Y-73860137D02*
X94736125Y-73860137D01*
X94736125Y-73860137D02*
X94652716Y-73901841D01*
X94652716Y-73901841D02*
X94611012Y-73943546D01*
X94611012Y-73943546D02*
X94569307Y-74026954D01*
X94569307Y-74026954D02*
X94569307Y-74068659D01*
X94569307Y-74068659D02*
X94611012Y-74152068D01*
X94611012Y-74152068D02*
X94652716Y-74193772D01*
X94652716Y-74193772D02*
X94736125Y-74235476D01*
X94736125Y-74235476D02*
X94902942Y-74235476D01*
X94902942Y-74235476D02*
X94986351Y-74277181D01*
X94986351Y-74277181D02*
X95028056Y-74318885D01*
X95028056Y-74318885D02*
X95069760Y-74402294D01*
X95069760Y-74402294D02*
X95069760Y-74569111D01*
X95069760Y-74569111D02*
X95028056Y-74652520D01*
X95028056Y-74652520D02*
X94986351Y-74694225D01*
X94986351Y-74694225D02*
X94902942Y-74735929D01*
X94902942Y-74735929D02*
X94736125Y-74735929D01*
X94736125Y-74735929D02*
X94652716Y-74694225D01*
X94652716Y-74694225D02*
X94611012Y-74652520D01*
X94611012Y-74652520D02*
X94569307Y-74569111D01*
X94569307Y-74569111D02*
X94569307Y-74402294D01*
X94569307Y-74402294D02*
X94611012Y-74318885D01*
X94611012Y-74318885D02*
X94652716Y-74277181D01*
X94652716Y-74277181D02*
X94736125Y-74235476D01*
X95552283Y-101220920D02*
X95593987Y-101262625D01*
X95593987Y-101262625D02*
X95719101Y-101304329D01*
X95719101Y-101304329D02*
X95802509Y-101304329D01*
X95802509Y-101304329D02*
X95927622Y-101262625D01*
X95927622Y-101262625D02*
X96011031Y-101179216D01*
X96011031Y-101179216D02*
X96052736Y-101095807D01*
X96052736Y-101095807D02*
X96094440Y-100928989D01*
X96094440Y-100928989D02*
X96094440Y-100803876D01*
X96094440Y-100803876D02*
X96052736Y-100637059D01*
X96052736Y-100637059D02*
X96011031Y-100553650D01*
X96011031Y-100553650D02*
X95927622Y-100470241D01*
X95927622Y-100470241D02*
X95802509Y-100428537D01*
X95802509Y-100428537D02*
X95719101Y-100428537D01*
X95719101Y-100428537D02*
X95593987Y-100470241D01*
X95593987Y-100470241D02*
X95552283Y-100511946D01*
X94759900Y-100428537D02*
X95176944Y-100428537D01*
X95176944Y-100428537D02*
X95218648Y-100845581D01*
X95218648Y-100845581D02*
X95176944Y-100803876D01*
X95176944Y-100803876D02*
X95093535Y-100762172D01*
X95093535Y-100762172D02*
X94885013Y-100762172D01*
X94885013Y-100762172D02*
X94801604Y-100803876D01*
X94801604Y-100803876D02*
X94759900Y-100845581D01*
X94759900Y-100845581D02*
X94718195Y-100928989D01*
X94718195Y-100928989D02*
X94718195Y-101137511D01*
X94718195Y-101137511D02*
X94759900Y-101220920D01*
X94759900Y-101220920D02*
X94801604Y-101262625D01*
X94801604Y-101262625D02*
X94885013Y-101304329D01*
X94885013Y-101304329D02*
X95093535Y-101304329D01*
X95093535Y-101304329D02*
X95176944Y-101262625D01*
X95176944Y-101262625D02*
X95218648Y-101220920D01*
X94176038Y-100428537D02*
X94092629Y-100428537D01*
X94092629Y-100428537D02*
X94009221Y-100470241D01*
X94009221Y-100470241D02*
X93967516Y-100511946D01*
X93967516Y-100511946D02*
X93925812Y-100595354D01*
X93925812Y-100595354D02*
X93884107Y-100762172D01*
X93884107Y-100762172D02*
X93884107Y-100970694D01*
X93884107Y-100970694D02*
X93925812Y-101137511D01*
X93925812Y-101137511D02*
X93967516Y-101220920D01*
X93967516Y-101220920D02*
X94009221Y-101262625D01*
X94009221Y-101262625D02*
X94092629Y-101304329D01*
X94092629Y-101304329D02*
X94176038Y-101304329D01*
X94176038Y-101304329D02*
X94259447Y-101262625D01*
X94259447Y-101262625D02*
X94301151Y-101220920D01*
X94301151Y-101220920D02*
X94342856Y-101137511D01*
X94342856Y-101137511D02*
X94384560Y-100970694D01*
X94384560Y-100970694D02*
X94384560Y-100762172D01*
X94384560Y-100762172D02*
X94342856Y-100595354D01*
X94342856Y-100595354D02*
X94301151Y-100511946D01*
X94301151Y-100511946D02*
X94259447Y-100470241D01*
X94259447Y-100470241D02*
X94176038Y-100428537D01*
X124317483Y-83110920D02*
X124359187Y-83152625D01*
X124359187Y-83152625D02*
X124484301Y-83194329D01*
X124484301Y-83194329D02*
X124567709Y-83194329D01*
X124567709Y-83194329D02*
X124692822Y-83152625D01*
X124692822Y-83152625D02*
X124776231Y-83069216D01*
X124776231Y-83069216D02*
X124817936Y-82985807D01*
X124817936Y-82985807D02*
X124859640Y-82818989D01*
X124859640Y-82818989D02*
X124859640Y-82693876D01*
X124859640Y-82693876D02*
X124817936Y-82527059D01*
X124817936Y-82527059D02*
X124776231Y-82443650D01*
X124776231Y-82443650D02*
X124692822Y-82360241D01*
X124692822Y-82360241D02*
X124567709Y-82318537D01*
X124567709Y-82318537D02*
X124484301Y-82318537D01*
X124484301Y-82318537D02*
X124359187Y-82360241D01*
X124359187Y-82360241D02*
X124317483Y-82401946D01*
X123566804Y-82610468D02*
X123566804Y-83194329D01*
X123775326Y-82276833D02*
X123983848Y-82902398D01*
X123983848Y-82902398D02*
X123441691Y-82902398D01*
X123149760Y-82401946D02*
X123108056Y-82360241D01*
X123108056Y-82360241D02*
X123024647Y-82318537D01*
X123024647Y-82318537D02*
X122816125Y-82318537D01*
X122816125Y-82318537D02*
X122732716Y-82360241D01*
X122732716Y-82360241D02*
X122691012Y-82401946D01*
X122691012Y-82401946D02*
X122649307Y-82485354D01*
X122649307Y-82485354D02*
X122649307Y-82568763D01*
X122649307Y-82568763D02*
X122691012Y-82693876D01*
X122691012Y-82693876D02*
X123191464Y-83194329D01*
X123191464Y-83194329D02*
X122649307Y-83194329D01*
X108192335Y-92775996D02*
X108234039Y-92817701D01*
X108234039Y-92817701D02*
X108359153Y-92859405D01*
X108359153Y-92859405D02*
X108442561Y-92859405D01*
X108442561Y-92859405D02*
X108567674Y-92817701D01*
X108567674Y-92817701D02*
X108651083Y-92734292D01*
X108651083Y-92734292D02*
X108692788Y-92650883D01*
X108692788Y-92650883D02*
X108734492Y-92484065D01*
X108734492Y-92484065D02*
X108734492Y-92358952D01*
X108734492Y-92358952D02*
X108692788Y-92192135D01*
X108692788Y-92192135D02*
X108651083Y-92108726D01*
X108651083Y-92108726D02*
X108567674Y-92025317D01*
X108567674Y-92025317D02*
X108442561Y-91983613D01*
X108442561Y-91983613D02*
X108359153Y-91983613D01*
X108359153Y-91983613D02*
X108234039Y-92025317D01*
X108234039Y-92025317D02*
X108192335Y-92067022D01*
X107441656Y-92275544D02*
X107441656Y-92859405D01*
X107650178Y-91941909D02*
X107858700Y-92567474D01*
X107858700Y-92567474D02*
X107316543Y-92567474D01*
X106607568Y-91983613D02*
X106774386Y-91983613D01*
X106774386Y-91983613D02*
X106857794Y-92025317D01*
X106857794Y-92025317D02*
X106899499Y-92067022D01*
X106899499Y-92067022D02*
X106982908Y-92192135D01*
X106982908Y-92192135D02*
X107024612Y-92358952D01*
X107024612Y-92358952D02*
X107024612Y-92692587D01*
X107024612Y-92692587D02*
X106982908Y-92775996D01*
X106982908Y-92775996D02*
X106941203Y-92817701D01*
X106941203Y-92817701D02*
X106857794Y-92859405D01*
X106857794Y-92859405D02*
X106690977Y-92859405D01*
X106690977Y-92859405D02*
X106607568Y-92817701D01*
X106607568Y-92817701D02*
X106565864Y-92775996D01*
X106565864Y-92775996D02*
X106524159Y-92692587D01*
X106524159Y-92692587D02*
X106524159Y-92484065D01*
X106524159Y-92484065D02*
X106565864Y-92400657D01*
X106565864Y-92400657D02*
X106607568Y-92358952D01*
X106607568Y-92358952D02*
X106690977Y-92317248D01*
X106690977Y-92317248D02*
X106857794Y-92317248D01*
X106857794Y-92317248D02*
X106941203Y-92358952D01*
X106941203Y-92358952D02*
X106982908Y-92400657D01*
X106982908Y-92400657D02*
X107024612Y-92484065D01*
X89227083Y-97360120D02*
X89268787Y-97401825D01*
X89268787Y-97401825D02*
X89393901Y-97443529D01*
X89393901Y-97443529D02*
X89477309Y-97443529D01*
X89477309Y-97443529D02*
X89602422Y-97401825D01*
X89602422Y-97401825D02*
X89685831Y-97318416D01*
X89685831Y-97318416D02*
X89727536Y-97235007D01*
X89727536Y-97235007D02*
X89769240Y-97068189D01*
X89769240Y-97068189D02*
X89769240Y-96943076D01*
X89769240Y-96943076D02*
X89727536Y-96776259D01*
X89727536Y-96776259D02*
X89685831Y-96692850D01*
X89685831Y-96692850D02*
X89602422Y-96609441D01*
X89602422Y-96609441D02*
X89477309Y-96567737D01*
X89477309Y-96567737D02*
X89393901Y-96567737D01*
X89393901Y-96567737D02*
X89268787Y-96609441D01*
X89268787Y-96609441D02*
X89227083Y-96651146D01*
X88434700Y-96567737D02*
X88851744Y-96567737D01*
X88851744Y-96567737D02*
X88893448Y-96984781D01*
X88893448Y-96984781D02*
X88851744Y-96943076D01*
X88851744Y-96943076D02*
X88768335Y-96901372D01*
X88768335Y-96901372D02*
X88559813Y-96901372D01*
X88559813Y-96901372D02*
X88476404Y-96943076D01*
X88476404Y-96943076D02*
X88434700Y-96984781D01*
X88434700Y-96984781D02*
X88392995Y-97068189D01*
X88392995Y-97068189D02*
X88392995Y-97276711D01*
X88392995Y-97276711D02*
X88434700Y-97360120D01*
X88434700Y-97360120D02*
X88476404Y-97401825D01*
X88476404Y-97401825D02*
X88559813Y-97443529D01*
X88559813Y-97443529D02*
X88768335Y-97443529D01*
X88768335Y-97443529D02*
X88851744Y-97401825D01*
X88851744Y-97401825D02*
X88893448Y-97360120D01*
X87558907Y-97443529D02*
X88059360Y-97443529D01*
X87809134Y-97443529D02*
X87809134Y-96567737D01*
X87809134Y-96567737D02*
X87892542Y-96692850D01*
X87892542Y-96692850D02*
X87975951Y-96776259D01*
X87975951Y-96776259D02*
X88059360Y-96817963D01*
X100949483Y-81446720D02*
X100991187Y-81488425D01*
X100991187Y-81488425D02*
X101116301Y-81530129D01*
X101116301Y-81530129D02*
X101199709Y-81530129D01*
X101199709Y-81530129D02*
X101324822Y-81488425D01*
X101324822Y-81488425D02*
X101408231Y-81405016D01*
X101408231Y-81405016D02*
X101449936Y-81321607D01*
X101449936Y-81321607D02*
X101491640Y-81154789D01*
X101491640Y-81154789D02*
X101491640Y-81029676D01*
X101491640Y-81029676D02*
X101449936Y-80862859D01*
X101449936Y-80862859D02*
X101408231Y-80779450D01*
X101408231Y-80779450D02*
X101324822Y-80696041D01*
X101324822Y-80696041D02*
X101199709Y-80654337D01*
X101199709Y-80654337D02*
X101116301Y-80654337D01*
X101116301Y-80654337D02*
X100991187Y-80696041D01*
X100991187Y-80696041D02*
X100949483Y-80737746D01*
X100198804Y-80946268D02*
X100198804Y-81530129D01*
X100407326Y-80612633D02*
X100615848Y-81238198D01*
X100615848Y-81238198D02*
X100073691Y-81238198D01*
X99823464Y-80654337D02*
X99239603Y-80654337D01*
X99239603Y-80654337D02*
X99614942Y-81530129D01*
X121625083Y-86120380D02*
X121666787Y-86162085D01*
X121666787Y-86162085D02*
X121791901Y-86203789D01*
X121791901Y-86203789D02*
X121875309Y-86203789D01*
X121875309Y-86203789D02*
X122000422Y-86162085D01*
X122000422Y-86162085D02*
X122083831Y-86078676D01*
X122083831Y-86078676D02*
X122125536Y-85995267D01*
X122125536Y-85995267D02*
X122167240Y-85828449D01*
X122167240Y-85828449D02*
X122167240Y-85703336D01*
X122167240Y-85703336D02*
X122125536Y-85536519D01*
X122125536Y-85536519D02*
X122083831Y-85453110D01*
X122083831Y-85453110D02*
X122000422Y-85369701D01*
X122000422Y-85369701D02*
X121875309Y-85327997D01*
X121875309Y-85327997D02*
X121791901Y-85327997D01*
X121791901Y-85327997D02*
X121666787Y-85369701D01*
X121666787Y-85369701D02*
X121625083Y-85411406D01*
X120874404Y-85619928D02*
X120874404Y-86203789D01*
X121082926Y-85286293D02*
X121291448Y-85911858D01*
X121291448Y-85911858D02*
X120749291Y-85911858D01*
X120499064Y-85327997D02*
X119956907Y-85327997D01*
X119956907Y-85327997D02*
X120248838Y-85661632D01*
X120248838Y-85661632D02*
X120123725Y-85661632D01*
X120123725Y-85661632D02*
X120040316Y-85703336D01*
X120040316Y-85703336D02*
X119998612Y-85745041D01*
X119998612Y-85745041D02*
X119956907Y-85828449D01*
X119956907Y-85828449D02*
X119956907Y-86036971D01*
X119956907Y-86036971D02*
X119998612Y-86120380D01*
X119998612Y-86120380D02*
X120040316Y-86162085D01*
X120040316Y-86162085D02*
X120123725Y-86203789D01*
X120123725Y-86203789D02*
X120373951Y-86203789D01*
X120373951Y-86203789D02*
X120457360Y-86162085D01*
X120457360Y-86162085D02*
X120499064Y-86120380D01*
X118107483Y-86120380D02*
X118149187Y-86162085D01*
X118149187Y-86162085D02*
X118274301Y-86203789D01*
X118274301Y-86203789D02*
X118357709Y-86203789D01*
X118357709Y-86203789D02*
X118482822Y-86162085D01*
X118482822Y-86162085D02*
X118566231Y-86078676D01*
X118566231Y-86078676D02*
X118607936Y-85995267D01*
X118607936Y-85995267D02*
X118649640Y-85828449D01*
X118649640Y-85828449D02*
X118649640Y-85703336D01*
X118649640Y-85703336D02*
X118607936Y-85536519D01*
X118607936Y-85536519D02*
X118566231Y-85453110D01*
X118566231Y-85453110D02*
X118482822Y-85369701D01*
X118482822Y-85369701D02*
X118357709Y-85327997D01*
X118357709Y-85327997D02*
X118274301Y-85327997D01*
X118274301Y-85327997D02*
X118149187Y-85369701D01*
X118149187Y-85369701D02*
X118107483Y-85411406D01*
X117356804Y-85619928D02*
X117356804Y-86203789D01*
X117565326Y-85286293D02*
X117773848Y-85911858D01*
X117773848Y-85911858D02*
X117231691Y-85911858D01*
X116522716Y-85619928D02*
X116522716Y-86203789D01*
X116731238Y-85286293D02*
X116939760Y-85911858D01*
X116939760Y-85911858D02*
X116397603Y-85911858D01*
X121628483Y-99711920D02*
X121670187Y-99753625D01*
X121670187Y-99753625D02*
X121795301Y-99795329D01*
X121795301Y-99795329D02*
X121878709Y-99795329D01*
X121878709Y-99795329D02*
X122003822Y-99753625D01*
X122003822Y-99753625D02*
X122087231Y-99670216D01*
X122087231Y-99670216D02*
X122128936Y-99586807D01*
X122128936Y-99586807D02*
X122170640Y-99419989D01*
X122170640Y-99419989D02*
X122170640Y-99294876D01*
X122170640Y-99294876D02*
X122128936Y-99128059D01*
X122128936Y-99128059D02*
X122087231Y-99044650D01*
X122087231Y-99044650D02*
X122003822Y-98961241D01*
X122003822Y-98961241D02*
X121878709Y-98919537D01*
X121878709Y-98919537D02*
X121795301Y-98919537D01*
X121795301Y-98919537D02*
X121670187Y-98961241D01*
X121670187Y-98961241D02*
X121628483Y-99002946D01*
X120877804Y-99211468D02*
X120877804Y-99795329D01*
X121086326Y-98877833D02*
X121294848Y-99503398D01*
X121294848Y-99503398D02*
X120752691Y-99503398D01*
X120377351Y-99795329D02*
X120210534Y-99795329D01*
X120210534Y-99795329D02*
X120127125Y-99753625D01*
X120127125Y-99753625D02*
X120085421Y-99711920D01*
X120085421Y-99711920D02*
X120002012Y-99586807D01*
X120002012Y-99586807D02*
X119960307Y-99419989D01*
X119960307Y-99419989D02*
X119960307Y-99086354D01*
X119960307Y-99086354D02*
X120002012Y-99002946D01*
X120002012Y-99002946D02*
X120043716Y-98961241D01*
X120043716Y-98961241D02*
X120127125Y-98919537D01*
X120127125Y-98919537D02*
X120293942Y-98919537D01*
X120293942Y-98919537D02*
X120377351Y-98961241D01*
X120377351Y-98961241D02*
X120419056Y-99002946D01*
X120419056Y-99002946D02*
X120460760Y-99086354D01*
X120460760Y-99086354D02*
X120460760Y-99294876D01*
X120460760Y-99294876D02*
X120419056Y-99378285D01*
X120419056Y-99378285D02*
X120377351Y-99419989D01*
X120377351Y-99419989D02*
X120293942Y-99461694D01*
X120293942Y-99461694D02*
X120127125Y-99461694D01*
X120127125Y-99461694D02*
X120043716Y-99419989D01*
X120043716Y-99419989D02*
X120002012Y-99378285D01*
X120002012Y-99378285D02*
X119960307Y-99294876D01*
X113119935Y-91886996D02*
X113161639Y-91928701D01*
X113161639Y-91928701D02*
X113286753Y-91970405D01*
X113286753Y-91970405D02*
X113370161Y-91970405D01*
X113370161Y-91970405D02*
X113495274Y-91928701D01*
X113495274Y-91928701D02*
X113578683Y-91845292D01*
X113578683Y-91845292D02*
X113620388Y-91761883D01*
X113620388Y-91761883D02*
X113662092Y-91595065D01*
X113662092Y-91595065D02*
X113662092Y-91469952D01*
X113662092Y-91469952D02*
X113620388Y-91303135D01*
X113620388Y-91303135D02*
X113578683Y-91219726D01*
X113578683Y-91219726D02*
X113495274Y-91136317D01*
X113495274Y-91136317D02*
X113370161Y-91094613D01*
X113370161Y-91094613D02*
X113286753Y-91094613D01*
X113286753Y-91094613D02*
X113161639Y-91136317D01*
X113161639Y-91136317D02*
X113119935Y-91178022D01*
X112369256Y-91386544D02*
X112369256Y-91970405D01*
X112577778Y-91052909D02*
X112786300Y-91678474D01*
X112786300Y-91678474D02*
X112244143Y-91678474D01*
X111493464Y-91094613D02*
X111910508Y-91094613D01*
X111910508Y-91094613D02*
X111952212Y-91511657D01*
X111952212Y-91511657D02*
X111910508Y-91469952D01*
X111910508Y-91469952D02*
X111827099Y-91428248D01*
X111827099Y-91428248D02*
X111618577Y-91428248D01*
X111618577Y-91428248D02*
X111535168Y-91469952D01*
X111535168Y-91469952D02*
X111493464Y-91511657D01*
X111493464Y-91511657D02*
X111451759Y-91595065D01*
X111451759Y-91595065D02*
X111451759Y-91803587D01*
X111451759Y-91803587D02*
X111493464Y-91886996D01*
X111493464Y-91886996D02*
X111535168Y-91928701D01*
X111535168Y-91928701D02*
X111618577Y-91970405D01*
X111618577Y-91970405D02*
X111827099Y-91970405D01*
X111827099Y-91970405D02*
X111910508Y-91928701D01*
X111910508Y-91928701D02*
X111952212Y-91886996D01*
M02*
