%TF.GenerationSoftware,KiCad,Pcbnew,9.0.7*%
%TF.CreationDate,2026-08-08T12:24:42+02:00*%
%TF.ProjectId,eclaireXLv1,65636c61-6972-4655-984c-76312e6b6963,rev?*%
%TF.SameCoordinates,Original*%
%TF.FileFunction,Copper,L4,Bot*%
%TF.FilePolarity,Positive*%
%FSLAX46Y46*%
G04 Gerber Fmt 4.6, Leading zero omitted, Abs format (unit mm)*
G04 Created by KiCad (PCBNEW 9.0.7) date 2026-08-08 12:24:42*
%MOMM*%
%LPD*%
G01*
G04 APERTURE LIST*
G04 Aperture macros list*
%AMOutline5P*
0 Free polygon, 5 corners , with rotation*
0 The origin of the aperture is its center*
0 number of corners: always 5*
0 $1 to $10 corner X, Y*
0 $11 Rotation angle, in degrees counterclockwise*
0 create outline with 5 corners*
4,1,5,$1,$2,$3,$4,$5,$6,$7,$8,$9,$10,$1,$2,$11*%
%AMOutline6P*
0 Free polygon, 6 corners , with rotation*
0 The origin of the aperture is its center*
0 number of corners: always 6*
0 $1 to $12 corner X, Y*
0 $13 Rotation angle, in degrees counterclockwise*
0 create outline with 6 corners*
4,1,6,$1,$2,$3,$4,$5,$6,$7,$8,$9,$10,$11,$12,$1,$2,$13*%
%AMOutline7P*
0 Free polygon, 7 corners , with rotation*
0 The origin of the aperture is its center*
0 number of corners: always 7*
0 $1 to $14 corner X, Y*
0 $15 Rotation angle, in degrees counterclockwise*
0 create outline with 7 corners*
4,1,7,$1,$2,$3,$4,$5,$6,$7,$8,$9,$10,$11,$12,$13,$14,$1,$2,$15*%
%AMOutline8P*
0 Free polygon, 8 corners , with rotation*
0 The origin of the aperture is its center*
0 number of corners: always 8*
0 $1 to $16 corner X, Y*
0 $17 Rotation angle, in degrees counterclockwise*
0 create outline with 8 corners*
4,1,8,$1,$2,$3,$4,$5,$6,$7,$8,$9,$10,$11,$12,$13,$14,$15,$16,$1,$2,$17*%
G04 Aperture macros list end*
%TA.AperFunction,ComponentPad*%
%ADD10C,1.371600*%
%TD*%
%TA.AperFunction,ComponentPad*%
%ADD11C,3.327400*%
%TD*%
%TA.AperFunction,ComponentPad*%
%ADD12O,1.524000X3.048000*%
%TD*%
%TA.AperFunction,ComponentPad*%
%ADD13Outline8P,-0.487500X0.201929X-0.201929X0.487500X0.201929X0.487500X0.487500X0.201929X0.487500X-0.201929X0.201929X-0.487500X-0.201929X-0.487500X-0.487500X-0.201929X270.000000*%
%TD*%
%TA.AperFunction,ComponentPad*%
%ADD14Outline8P,-0.685800X0.284068X-0.284068X0.685800X0.284068X0.685800X0.685800X0.284068X0.685800X-0.284068X0.284068X-0.685800X-0.284068X-0.685800X-0.685800X-0.284068X270.000000*%
%TD*%
%TA.AperFunction,ComponentPad*%
%ADD15Outline8P,-1.150000X0.476346X-0.476346X1.150000X0.476346X1.150000X1.150000X0.476346X1.150000X-0.476346X0.476346X-1.150000X-0.476346X-1.150000X-1.150000X-0.476346X90.000000*%
%TD*%
%TA.AperFunction,ComponentPad*%
%ADD16Outline8P,-1.200000X0.497056X-0.497056X1.200000X0.497056X1.200000X1.200000X0.497056X1.200000X-0.497056X0.497056X-1.200000X-0.497056X-1.200000X-1.200000X-0.497056X90.000000*%
%TD*%
%TA.AperFunction,ComponentPad*%
%ADD17O,1.950000X3.900000*%
%TD*%
%TA.AperFunction,ComponentPad*%
%ADD18C,5.842000*%
%TD*%
%TA.AperFunction,ComponentPad*%
%ADD19Outline8P,-0.685800X0.284068X-0.284068X0.685800X0.284068X0.685800X0.685800X0.284068X0.685800X-0.284068X0.284068X-0.685800X-0.284068X-0.685800X-0.685800X-0.284068X0.000000*%
%TD*%
%TA.AperFunction,ComponentPad*%
%ADD20Outline8P,-0.762000X0.315631X-0.315631X0.762000X0.315631X0.762000X0.762000X0.315631X0.762000X-0.315631X0.315631X-0.762000X-0.315631X-0.762000X-0.762000X-0.315631X0.000000*%
%TD*%
%TA.AperFunction,ComponentPad*%
%ADD21C,1.879600*%
%TD*%
%TA.AperFunction,ComponentPad*%
%ADD22C,5.080000*%
%TD*%
%TA.AperFunction,ComponentPad*%
%ADD23Outline8P,-1.350000X0.559188X-0.559188X1.350000X0.559188X1.350000X1.350000X0.559188X1.350000X-0.559188X0.559188X-1.350000X-0.559188X-1.350000X-1.350000X-0.559188X0.000000*%
%TD*%
%TA.AperFunction,ComponentPad*%
%ADD24O,1.371600X2.743200*%
%TD*%
%TA.AperFunction,ComponentPad*%
%ADD25Outline8P,-0.675000X0.279594X-0.279594X0.675000X0.279594X0.675000X0.675000X0.279594X0.675000X-0.279594X0.279594X-0.675000X-0.279594X-0.675000X-0.675000X-0.279594X180.000000*%
%TD*%
%TA.AperFunction,ComponentPad*%
%ADD26C,3.216000*%
%TD*%
%TA.AperFunction,ComponentPad*%
%ADD27Outline8P,-0.762000X0.315631X-0.315631X0.762000X0.315631X0.762000X0.762000X0.315631X0.762000X-0.315631X0.315631X-0.762000X-0.315631X-0.762000X-0.762000X-0.315631X180.000000*%
%TD*%
%TA.AperFunction,SMDPad,CuDef*%
%ADD28R,1.500000X1.300000*%
%TD*%
%TA.AperFunction,ViaPad*%
%ADD29C,0.900000*%
%TD*%
%TA.AperFunction,ViaPad*%
%ADD30C,0.457200*%
%TD*%
%TA.AperFunction,ViaPad*%
%ADD31C,0.762000*%
%TD*%
%TA.AperFunction,ViaPad*%
%ADD32C,0.584200*%
%TD*%
%TA.AperFunction,ViaPad*%
%ADD33C,0.703200*%
%TD*%
%TA.AperFunction,ViaPad*%
%ADD34C,0.750000*%
%TD*%
%TA.AperFunction,Conductor*%
%ADD35C,0.609600*%
%TD*%
%TA.AperFunction,Conductor*%
%ADD36C,0.203200*%
%TD*%
%TA.AperFunction,Conductor*%
%ADD37C,0.254000*%
%TD*%
%TA.AperFunction,Conductor*%
%ADD38C,0.304800*%
%TD*%
%TA.AperFunction,Conductor*%
%ADD39C,0.200000*%
%TD*%
%TA.AperFunction,Conductor*%
%ADD40C,0.250000*%
%TD*%
%TA.AperFunction,Conductor*%
%ADD41C,0.508000*%
%TD*%
%TA.AperFunction,Conductor*%
%ADD42C,0.406400*%
%TD*%
%TA.AperFunction,Conductor*%
%ADD43C,1.016000*%
%TD*%
%TA.AperFunction,Conductor*%
%ADD44C,0.812800*%
%TD*%
%TA.AperFunction,Conductor*%
%ADD45C,0.177800*%
%TD*%
G04 APERTURE END LIST*
D10*
%TO.P,X3,D+*%
%TO.N,N$84*%
X100572400Y-177430600D03*
%TO.P,X3,D-*%
%TO.N,N$87*%
X98565800Y-177430600D03*
%TO.P,X3,GND*%
%TO.N,GND*%
X103061600Y-177430600D03*
D11*
%TO.P,X3,P$5*%
%TO.N,N/C*%
X106135000Y-180148400D03*
%TO.P,X3,P$6*%
X93003200Y-180148400D03*
D10*
%TO.P,X3,VBUS*%
%TO.N,N$15*%
X96076600Y-177430600D03*
%TD*%
D12*
%TO.P,UNK3.3/2.5/1.1/GND0,1*%
%TO.N,3V3*%
X128931500Y-69506000D03*
%TO.P,UNK3.3/2.5/1.1/GND0,2*%
%TO.N,2V5*%
X131471500Y-69506000D03*
%TO.P,UNK3.3/2.5/1.1/GND0,3*%
%TO.N,1V1*%
X134011500Y-69506000D03*
%TO.P,UNK3.3/2.5/1.1/GND0,4*%
%TO.N,GND*%
X136551500Y-69506000D03*
%TD*%
D13*
%TO.P,U$5,P$1*%
%TO.N,GPIOA0*%
X160882100Y-63210200D03*
%TO.P,U$5,P$2*%
%TO.N,GPIOA1*%
X160882100Y-64620200D03*
%TO.P,U$5,P$3*%
%TO.N,GPIOA2*%
X160882100Y-66030200D03*
%TO.P,U$5,P$4*%
%TO.N,GPIOA3*%
X160882100Y-67440200D03*
%TO.P,U$5,P$5*%
%TO.N,GPIOA4*%
X160882100Y-68850200D03*
%TO.P,U$5,P$6*%
%TO.N,GPIOA5*%
X160882100Y-70260200D03*
%TO.P,U$5,P$7*%
%TO.N,GPIOA6*%
X160882100Y-71670200D03*
%TO.P,U$5,P$8*%
%TO.N,GPIOA7*%
X160882100Y-73080200D03*
%TO.P,U$5,P$9*%
%TO.N,GPIOA8*%
X160882100Y-74490200D03*
%TO.P,U$5,P$10*%
%TO.N,GPIOA9*%
X160882100Y-75900200D03*
%TO.P,U$5,P$11*%
%TO.N,GPIOA10*%
X160882100Y-77310200D03*
%TO.P,U$5,P$12*%
%TO.N,GPIOA11*%
X160882100Y-78720200D03*
%TO.P,U$5,P$13*%
%TO.N,GPIOA12*%
X160882100Y-80130200D03*
%TO.P,U$5,P$14*%
%TO.N,GPIOA13*%
X160882100Y-81540200D03*
%TO.P,U$5,P$15*%
%TO.N,GPIOA14*%
X160882100Y-82950200D03*
%TO.P,U$5,P$16*%
%TO.N,GPIOA15*%
X160882100Y-84360200D03*
%TO.P,U$5,P$17*%
%TO.N,GPIOA16*%
X160882100Y-85770200D03*
%TO.P,U$5,P$18*%
%TO.N,GPIOA17*%
X160882100Y-87180200D03*
%TO.P,U$5,P$19*%
%TO.N,GPIOA18*%
X160882100Y-88590200D03*
%TO.P,U$5,P$20*%
%TO.N,GPIOA19*%
X160882100Y-90000200D03*
%TO.P,U$5,P$21*%
%TO.N,GPIOA20*%
X160882100Y-91410200D03*
%TO.P,U$5,P$22*%
%TO.N,GPIOA21*%
X160882100Y-92820200D03*
%TO.P,U$5,P$23*%
%TO.N,GPIOA22*%
X160882100Y-94230200D03*
%TO.P,U$5,P$24*%
%TO.N,GPIOA23*%
X160882100Y-95640200D03*
%TO.P,U$5,P$25*%
%TO.N,GPIOA24*%
X160882100Y-97050200D03*
%TO.P,U$5,P$26*%
%TO.N,GPIOA25*%
X160882100Y-98460200D03*
%TO.P,U$5,P$27*%
%TO.N,GPIOA26*%
X160882100Y-99870200D03*
%TO.P,U$5,P$28*%
%TO.N,GPIOA27*%
X160882100Y-101280200D03*
%TO.P,U$5,P$29*%
%TO.N,GPIOA28*%
X160882100Y-102690200D03*
%TO.P,U$5,P$30*%
%TO.N,GPIOA29*%
X160882100Y-104100200D03*
%TO.P,U$5,P$31*%
%TO.N,GPIOA30*%
X160882100Y-105510200D03*
%TO.P,U$5,P$32*%
%TO.N,GPIOA31*%
X160882100Y-106920200D03*
%TO.P,U$5,P$33*%
%TO.N,GPIOA32*%
X160882100Y-108330200D03*
%TO.P,U$5,P$34*%
%TO.N,GPIOA33*%
X160882100Y-109740200D03*
%TO.P,U$5,P$35*%
%TO.N,GPIOA34*%
X160882100Y-111150200D03*
%TO.P,U$5,P$36*%
%TO.N,GPIOA35*%
X160882100Y-112560200D03*
%TD*%
D14*
%TO.P,S.I.O._INTERFACE0,1*%
%TO.N,N$106*%
X120854300Y-128383200D03*
%TO.P,S.I.O._INTERFACE0,2*%
%TO.N,N$21*%
X123394300Y-128383200D03*
%TO.P,S.I.O._INTERFACE0,3*%
%TO.N,N$104*%
X120854300Y-130923200D03*
%TO.P,S.I.O._INTERFACE0,4*%
%TO.N,N$100*%
X123394300Y-130923200D03*
%TO.P,S.I.O._INTERFACE0,5*%
%TO.N,N$103*%
X120854300Y-133463200D03*
%TO.P,S.I.O._INTERFACE0,6*%
%TO.N,N$101*%
X123394300Y-133463200D03*
%TO.P,S.I.O._INTERFACE0,7*%
%TO.N,N$102*%
X120854300Y-136003200D03*
%TO.P,S.I.O._INTERFACE0,8*%
%TO.N,N$109*%
X123394300Y-136003200D03*
%TO.P,S.I.O._INTERFACE0,9*%
%TO.N,MIC_SIO*%
X120854300Y-138543200D03*
%TO.P,S.I.O._INTERFACE0,10*%
%TO.N,N$109*%
X123394300Y-138543200D03*
%TD*%
D15*
%TO.P,J3,P$1*%
%TO.N,GND*%
X67968900Y-169323000D03*
%TO.P,J3,P$2*%
%TO.N,N$138*%
X70368900Y-167323000D03*
%TO.P,J3,P$3*%
%TO.N,N$141*%
X75868900Y-167323000D03*
%TO.P,J3,P$4*%
%TO.N,N/C*%
X79568900Y-169323000D03*
D16*
%TO.P,J3,P$5*%
X74068900Y-169323000D03*
%TD*%
D17*
%TO.P,HDMI0,P$1*%
%TO.N,GND*%
X76825100Y-27522600D03*
%TO.P,HDMI0,P$2*%
X91325100Y-27522600D03*
%TO.P,HDMI0,P$3*%
X91925100Y-22622600D03*
%TO.P,HDMI0,P$4*%
X76225100Y-22622600D03*
%TD*%
D18*
%TO.P,H5,B3\u002C6*%
%TO.N,GND*%
X127483700Y-43270000D03*
%TD*%
D19*
%TO.P,MIC_IN_SEL0,1*%
%TO.N,MIC_IN*%
X104344300Y-169709000D03*
%TO.P,MIC_IN_SEL0,2*%
%TO.N,MIC_AC97*%
X104344300Y-167169000D03*
%TO.P,MIC_IN_SEL0,3*%
%TO.N,MIC_IN*%
X106884300Y-169709000D03*
%TO.P,MIC_IN_SEL0,4*%
%TO.N,MIC_SIO*%
X106884300Y-167169000D03*
%TO.P,MIC_IN_SEL0,5*%
%TO.N,MIC_IN*%
X109424300Y-169709000D03*
%TO.P,MIC_IN_SEL0,6*%
%TO.N,MIC_PBI*%
X109424300Y-167169000D03*
%TD*%
D14*
%TO.P,P.B.I._INTERFACE0,1*%
%TO.N,.CCTL_N*%
X206325300Y-126300400D03*
%TO.P,P.B.I._INTERFACE0,2*%
%TO.N,.PHI2*%
X208865300Y-126300400D03*
%TO.P,P.B.I._INTERFACE0,3*%
%TO.N,.RD5*%
X206325300Y-128840400D03*
%TO.P,P.B.I._INTERFACE0,4*%
%TO.N,.RW_N*%
X208865300Y-128840400D03*
%TO.P,P.B.I._INTERFACE0,5*%
%TO.N,.A10*%
X206325300Y-131380400D03*
%TO.P,P.B.I._INTERFACE0,6*%
%TO.N,.A11*%
X208865300Y-131380400D03*
%TO.P,P.B.I._INTERFACE0,7*%
%TO.N,.S5_N*%
X206325300Y-133920400D03*
%TO.P,P.B.I._INTERFACE0,8*%
%TO.N,.D7*%
X208865300Y-133920400D03*
%TO.P,P.B.I._INTERFACE0,9*%
%TO.N,.D6*%
X206325300Y-136460400D03*
%TO.P,P.B.I._INTERFACE0,10*%
%TO.N,.D3*%
X208865300Y-136460400D03*
%TO.P,P.B.I._INTERFACE0,11*%
%TO.N,N/C*%
X206325300Y-139000400D03*
%TO.P,P.B.I._INTERFACE0,12*%
X208865300Y-139000400D03*
%TO.P,P.B.I._INTERFACE0,13*%
%TO.N,.D0*%
X206325300Y-141540400D03*
%TO.P,P.B.I._INTERFACE0,14*%
%TO.N,.A12*%
X208865300Y-141540400D03*
%TO.P,P.B.I._INTERFACE0,15*%
%TO.N,.D1*%
X206325300Y-144080400D03*
%TO.P,P.B.I._INTERFACE0,16*%
%TO.N,.A9*%
X208865300Y-144080400D03*
%TO.P,P.B.I._INTERFACE0,17*%
%TO.N,.D2*%
X206325300Y-146620400D03*
%TO.P,P.B.I._INTERFACE0,18*%
%TO.N,.A8*%
X208865300Y-146620400D03*
%TO.P,P.B.I._INTERFACE0,19*%
%TO.N,.D5*%
X206325300Y-149160400D03*
%TO.P,P.B.I._INTERFACE0,20*%
%TO.N,.A7*%
X208865300Y-149160400D03*
%TO.P,P.B.I._INTERFACE0,21*%
%TO.N,.D4*%
X206325300Y-151700400D03*
%TO.P,P.B.I._INTERFACE0,22*%
%TO.N,.A6*%
X208865300Y-151700400D03*
%TO.P,P.B.I._INTERFACE0,23*%
%TO.N,.A0*%
X206325300Y-154240400D03*
%TO.P,P.B.I._INTERFACE0,24*%
%TO.N,.A5*%
X208865300Y-154240400D03*
%TO.P,P.B.I._INTERFACE0,25*%
%TO.N,.A1*%
X206325300Y-156780400D03*
%TO.P,P.B.I._INTERFACE0,26*%
%TO.N,.A4*%
X208865300Y-156780400D03*
%TO.P,P.B.I._INTERFACE0,27*%
%TO.N,.A2*%
X206325300Y-159320400D03*
%TO.P,P.B.I._INTERFACE0,28*%
%TO.N,.A3*%
X208865300Y-159320400D03*
%TO.P,P.B.I._INTERFACE0,29*%
%TO.N,MIC_PBI*%
X206325300Y-161860400D03*
%TO.P,P.B.I._INTERFACE0,30*%
X208865300Y-161860400D03*
%TO.P,P.B.I._INTERFACE0,31*%
%TO.N,.RD4*%
X206325300Y-164400400D03*
%TO.P,P.B.I._INTERFACE0,32*%
%TO.N,.S4_N*%
X208865300Y-164400400D03*
%TO.P,P.B.I._INTERFACE0,33*%
%TO.N,.EXTSEL_N*%
X206325300Y-166940400D03*
%TO.P,P.B.I._INTERFACE0,34*%
%TO.N,.A13*%
X208865300Y-166940400D03*
%TO.P,P.B.I._INTERFACE0,35*%
%TO.N,.A14*%
X206325300Y-169480400D03*
%TO.P,P.B.I._INTERFACE0,36*%
%TO.N,.A15*%
X208865300Y-169480400D03*
%TO.P,P.B.I._INTERFACE0,37*%
%TO.N,.MPD_N*%
X206325300Y-172020400D03*
%TO.P,P.B.I._INTERFACE0,38*%
%TO.N,.REF_N*%
X208865300Y-172020400D03*
%TO.P,P.B.I._INTERFACE0,39*%
%TO.N,.IRQ_N*%
X206325300Y-174560400D03*
%TO.P,P.B.I._INTERFACE0,40*%
%TO.N,.RST_N*%
X208865300Y-174560400D03*
%TD*%
%TO.P,USB_A_B0,1*%
%TO.N,N$15*%
X77725100Y-149236600D03*
%TO.P,USB_A_B0,2*%
X80265100Y-149236600D03*
%TO.P,USB_A_B0,3*%
%TO.N,N$23*%
X77725100Y-151776600D03*
%TO.P,USB_A_B0,4*%
%TO.N,N$87*%
X80265100Y-151776600D03*
%TO.P,USB_A_B0,5*%
%TO.N,N$20*%
X77725100Y-154316600D03*
%TO.P,USB_A_B0,6*%
%TO.N,N$84*%
X80265100Y-154316600D03*
%TO.P,USB_A_B0,7*%
%TO.N,GND*%
X77725100Y-156856600D03*
%TO.P,USB_A_B0,8*%
X80265100Y-156856600D03*
%TO.P,USB_A_B0,9*%
%TO.N,N/C*%
X77725100Y-159396600D03*
%TO.P,USB_A_B0,10*%
X80265100Y-159396600D03*
%TD*%
%TO.P,GPIO_A0,1*%
%TO.N,N$22*%
X170455300Y-59655400D03*
%TO.P,GPIO_A0,2*%
%TO.N,N$24*%
X172995300Y-59655400D03*
%TO.P,GPIO_A0,3*%
%TO.N,N$29*%
X170455300Y-62195400D03*
%TO.P,GPIO_A0,4*%
%TO.N,N$30*%
X172995300Y-62195400D03*
%TO.P,GPIO_A0,5*%
%TO.N,N$31*%
X170455300Y-64735400D03*
%TO.P,GPIO_A0,6*%
%TO.N,N$32*%
X172995300Y-64735400D03*
%TO.P,GPIO_A0,7*%
%TO.N,N$33*%
X170455300Y-67275400D03*
%TO.P,GPIO_A0,8*%
%TO.N,N$34*%
X172995300Y-67275400D03*
%TO.P,GPIO_A0,9*%
%TO.N,N$35*%
X170455300Y-69815400D03*
%TO.P,GPIO_A0,10*%
%TO.N,N$36*%
X172995300Y-69815400D03*
%TO.P,GPIO_A0,11*%
%TO.N,5V0*%
X170455300Y-72355400D03*
%TO.P,GPIO_A0,12*%
%TO.N,GND*%
X172995300Y-72355400D03*
%TO.P,GPIO_A0,13*%
%TO.N,N$37*%
X170455300Y-74895400D03*
%TO.P,GPIO_A0,14*%
%TO.N,N$38*%
X172995300Y-74895400D03*
%TO.P,GPIO_A0,15*%
%TO.N,N$39*%
X170455300Y-77435400D03*
%TO.P,GPIO_A0,16*%
%TO.N,N$41*%
X172995300Y-77435400D03*
%TO.P,GPIO_A0,17*%
%TO.N,N$40*%
X170455300Y-79975400D03*
%TO.P,GPIO_A0,18*%
%TO.N,N$42*%
X172995300Y-79975400D03*
%TO.P,GPIO_A0,19*%
%TO.N,N$43*%
X170455300Y-82515400D03*
%TO.P,GPIO_A0,20*%
%TO.N,N$44*%
X172995300Y-82515400D03*
%TO.P,GPIO_A0,21*%
%TO.N,N$45*%
X170455300Y-85055400D03*
%TO.P,GPIO_A0,22*%
%TO.N,N$46*%
X172995300Y-85055400D03*
%TO.P,GPIO_A0,23*%
%TO.N,N$47*%
X170455300Y-87595400D03*
%TO.P,GPIO_A0,24*%
%TO.N,N$49*%
X172995300Y-87595400D03*
%TO.P,GPIO_A0,25*%
%TO.N,N$48*%
X170455300Y-90135400D03*
%TO.P,GPIO_A0,26*%
%TO.N,N$50*%
X172995300Y-90135400D03*
%TO.P,GPIO_A0,27*%
%TO.N,N$51*%
X170455300Y-92675400D03*
%TO.P,GPIO_A0,28*%
%TO.N,N$52*%
X172995300Y-92675400D03*
%TO.P,GPIO_A0,29*%
%TO.N,3V3*%
X170455300Y-95215400D03*
%TO.P,GPIO_A0,30*%
%TO.N,GND*%
X172995300Y-95215400D03*
%TO.P,GPIO_A0,31*%
%TO.N,N$53*%
X170455300Y-97755400D03*
%TO.P,GPIO_A0,32*%
%TO.N,N$54*%
X172995300Y-97755400D03*
%TO.P,GPIO_A0,33*%
%TO.N,N$55*%
X170455300Y-100295400D03*
%TO.P,GPIO_A0,34*%
%TO.N,N$56*%
X172995300Y-100295400D03*
%TO.P,GPIO_A0,35*%
%TO.N,N$57*%
X170455300Y-102835400D03*
%TO.P,GPIO_A0,36*%
%TO.N,N$58*%
X172995300Y-102835400D03*
%TO.P,GPIO_A0,37*%
%TO.N,N$59*%
X170455300Y-105375400D03*
%TO.P,GPIO_A0,38*%
%TO.N,N$60*%
X172995300Y-105375400D03*
%TO.P,GPIO_A0,39*%
%TO.N,N$61*%
X170455300Y-107915400D03*
%TO.P,GPIO_A0,40*%
%TO.N,N$62*%
X172995300Y-107915400D03*
%TD*%
%TO.P,AC97_AUDIO0,1*%
%TO.N,MIC_AC97*%
X94895500Y-149236600D03*
%TO.P,AC97_AUDIO0,2*%
%TO.N,GND*%
X97435500Y-149236600D03*
%TO.P,AC97_AUDIO0,3*%
%TO.N,N/C*%
X94895500Y-151776600D03*
%TO.P,AC97_AUDIO0,4*%
X97435500Y-151776600D03*
%TO.P,AC97_AUDIO0,5*%
%TO.N,N$141*%
X94895500Y-154316600D03*
%TO.P,AC97_AUDIO0,6*%
%TO.N,N/C*%
X97435500Y-154316600D03*
%TO.P,AC97_AUDIO0,7*%
X94895500Y-156856600D03*
%TO.P,AC97_AUDIO0,8*%
X97435500Y-156856600D03*
%TO.P,AC97_AUDIO0,9*%
%TO.N,N$138*%
X94895500Y-159396600D03*
%TO.P,AC97_AUDIO0,10*%
%TO.N,N/C*%
X97435500Y-159396600D03*
%TD*%
D20*
%TO.P,X2,1*%
%TO.N,N/C*%
X221616100Y-107885400D03*
%TO.P,X2,2*%
%TO.N,N$78*%
X218872900Y-107885400D03*
%TO.P,X2,3*%
%TO.N,N$79*%
X216129700Y-107885400D03*
%TO.P,X2,4*%
%TO.N,N/C*%
X213386500Y-107885400D03*
%TO.P,X2,5*%
%TO.N,GND*%
X210643300Y-107885400D03*
%TO.P,X2,6*%
%TO.N,N/C*%
X220244500Y-110730200D03*
%TO.P,X2,7*%
X217501300Y-110730200D03*
%TO.P,X2,8*%
%TO.N,N$83*%
X214758100Y-110730200D03*
%TO.P,X2,9*%
%TO.N,N/C*%
X212014900Y-110730200D03*
%TD*%
D10*
%TO.P,X1,D+*%
%TO.N,N$20*%
X83402000Y-177430600D03*
%TO.P,X1,D-*%
%TO.N,N$23*%
X81395400Y-177430600D03*
%TO.P,X1,GND*%
%TO.N,GND*%
X85891200Y-177430600D03*
D11*
%TO.P,X1,P$5*%
%TO.N,N/C*%
X88964600Y-180148400D03*
%TO.P,X1,P$6*%
X75832800Y-180148400D03*
D10*
%TO.P,X1,VBUS*%
%TO.N,N$15*%
X78906200Y-177430600D03*
%TD*%
D21*
%TO.P,VGA0,1*%
%TO.N,N$13*%
X104520100Y-36028800D03*
%TO.P,VGA0,2*%
%TO.N,N$14*%
X106810100Y-36028800D03*
%TO.P,VGA0,3*%
%TO.N,N$143*%
X109100100Y-36028800D03*
%TO.P,VGA0,4*%
%TO.N,N/C*%
X111390100Y-36028800D03*
%TO.P,VGA0,5*%
%TO.N,GND*%
X113680100Y-36028800D03*
%TO.P,VGA0,6*%
X103380100Y-33488800D03*
%TO.P,VGA0,7*%
X105670100Y-33488800D03*
%TO.P,VGA0,8*%
X107960100Y-33488800D03*
%TO.P,VGA0,9*%
%TO.N,N/C*%
X110250100Y-33488800D03*
%TO.P,VGA0,10*%
%TO.N,GND*%
X112540100Y-33488800D03*
%TO.P,VGA0,11*%
%TO.N,N/C*%
X104520100Y-30948800D03*
%TO.P,VGA0,12*%
X106810100Y-30948800D03*
%TO.P,VGA0,13*%
%TO.N,N$3*%
X109100100Y-30948800D03*
%TO.P,VGA0,14*%
%TO.N,N$1*%
X111390100Y-30948800D03*
%TO.P,VGA0,15*%
%TO.N,N/C*%
X113680100Y-30948800D03*
D22*
%TO.P,VGA0,G1*%
X96340100Y-33488800D03*
%TO.P,VGA0,G2*%
X121340100Y-33488800D03*
%TD*%
D18*
%TO.P,H7,B3\u002C6*%
%TO.N,GND*%
X182943300Y-110603200D03*
%TD*%
%TO.P,H6,B3\u002C6*%
%TO.N,GND*%
X130049100Y-165010000D03*
%TD*%
D23*
%TO.P,U$6,+*%
%TO.N,N$2*%
X67107900Y-22973200D03*
%TO.P,U$6,-*%
%TO.N,GND*%
X71067900Y-22973200D03*
%TD*%
D18*
%TO.P,H4,B3\u002C6*%
%TO.N,GND*%
X227331100Y-185103600D03*
%TD*%
D24*
%TO.P,RESET0,1*%
%TO.N,GND*%
X70536900Y-160031600D03*
%TO.P,RESET0,2*%
%TO.N,CONFIG_N*%
X67996900Y-160031600D03*
%TD*%
D25*
%TO.P,S-VIDEO_COMP0,1*%
%TO.N,GND*%
X129570100Y-28971300D03*
%TO.P,S-VIDEO_COMP0,2*%
X136370100Y-28971300D03*
%TO.P,S-VIDEO_COMP0,3*%
%TO.N,N$152*%
X129570100Y-31471300D03*
%TO.P,S-VIDEO_COMP0,4*%
%TO.N,N$14*%
X136370100Y-31471300D03*
D26*
%TO.P,S-VIDEO_COMP0,P$1*%
%TO.N,N/C*%
X139710100Y-25971300D03*
%TO.P,S-VIDEO_COMP0,P$2*%
X132970100Y-25181300D03*
%TO.P,S-VIDEO_COMP0,P$3*%
X126230100Y-25971300D03*
%TD*%
D27*
%TO.P,JOY1,1*%
%TO.N,PORTA_PROT0*%
X191999700Y-33539600D03*
%TO.P,JOY1,2*%
%TO.N,PORTA_PROT1*%
X189256500Y-33539600D03*
%TO.P,JOY1,3*%
%TO.N,PORTA_PROT2*%
X186513300Y-33539600D03*
%TO.P,JOY1,4*%
%TO.N,PORTA_PROT3*%
X183770100Y-33539600D03*
%TO.P,JOY1,5*%
%TO.N,POTIN1*%
X181026900Y-33539600D03*
%TO.P,JOY1,6*%
%TO.N,TRIG0*%
X190628100Y-30999600D03*
%TO.P,JOY1,7*%
%TO.N,5V00*%
X187884900Y-30999600D03*
%TO.P,JOY1,8*%
%TO.N,GND*%
X185141700Y-30999600D03*
%TO.P,JOY1,9*%
%TO.N,POTIN0*%
X182398500Y-30999600D03*
D22*
%TO.P,JOY1,G1*%
%TO.N,N/C*%
X199035500Y-32269600D03*
%TO.P,JOY1,G2*%
X173991100Y-32269600D03*
%TD*%
D27*
%TO.P,JOY2,1*%
%TO.N,PORTA_PROT4*%
X223292500Y-33539600D03*
%TO.P,JOY2,2*%
%TO.N,PORTA_PROT5*%
X220549300Y-33539600D03*
%TO.P,JOY2,3*%
%TO.N,PORTA_PROT6*%
X217806100Y-33539600D03*
%TO.P,JOY2,4*%
%TO.N,PORTA_PROT7*%
X215062900Y-33539600D03*
%TO.P,JOY2,5*%
%TO.N,POTIN3*%
X212319700Y-33539600D03*
%TO.P,JOY2,6*%
%TO.N,TRIG1*%
X221920900Y-30999600D03*
%TO.P,JOY2,7*%
%TO.N,5V00*%
X219177700Y-30999600D03*
%TO.P,JOY2,8*%
%TO.N,GND*%
X216434500Y-30999600D03*
%TO.P,JOY2,9*%
%TO.N,POTIN2*%
X213691300Y-30999600D03*
D22*
%TO.P,JOY2,G1*%
%TO.N,N/C*%
X230328300Y-32269600D03*
%TO.P,JOY2,G2*%
X205283900Y-32269600D03*
%TD*%
D18*
%TO.P,H2,B3\u002C6*%
%TO.N,GND*%
X227331100Y-53023600D03*
%TD*%
D14*
%TO.P,JTAG0,1*%
%TO.N,TCK*%
X71126500Y-93253000D03*
%TO.P,JTAG0,2*%
%TO.N,GND*%
X73666500Y-93253000D03*
%TO.P,JTAG0,3*%
%TO.N,TDO*%
X71126500Y-95793000D03*
%TO.P,JTAG0,4*%
%TO.N,3V3*%
X73666500Y-95793000D03*
%TO.P,JTAG0,5*%
%TO.N,TMS*%
X71126500Y-98333000D03*
%TO.P,JTAG0,6*%
%TO.N,N/C*%
X73666500Y-98333000D03*
%TO.P,JTAG0,7*%
X71126500Y-100873000D03*
%TO.P,JTAG0,8*%
X73666500Y-100873000D03*
%TO.P,JTAG0,9*%
%TO.N,TDI*%
X71126500Y-103413000D03*
%TO.P,JTAG0,10*%
%TO.N,GND*%
X73666500Y-103413000D03*
%TD*%
D24*
%TO.P,JP2,1*%
%TO.N,N$143*%
X134189300Y-38111600D03*
%TO.P,JP2,2*%
%TO.N,N$152*%
X136729300Y-38111600D03*
%TO.P,JP2,3*%
%TO.N,N$13*%
X139269300Y-38111600D03*
%TD*%
D18*
%TO.P,H3,B3\u002C6*%
%TO.N,GND*%
X69851100Y-185103600D03*
%TD*%
D24*
%TO.P,RESET_LED0,1*%
%TO.N,N$81*%
X68250900Y-154570600D03*
%TO.P,RESET_LED0,2*%
%TO.N,GND*%
X70790900Y-154570600D03*
%TD*%
D14*
%TO.P,GPIO_B0,1*%
%TO.N,EXP1*%
X192406100Y-92213600D03*
%TO.P,GPIO_B0,2*%
%TO.N,EXP2*%
X194946100Y-92213600D03*
%TO.P,GPIO_B0,3*%
%TO.N,EXP3*%
X192406100Y-94753600D03*
%TO.P,GPIO_B0,4*%
%TO.N,EXP4*%
X194946100Y-94753600D03*
%TO.P,GPIO_B0,5*%
%TO.N,EXP5*%
X192406100Y-97293600D03*
%TO.P,GPIO_B0,6*%
%TO.N,EXP6*%
X194946100Y-97293600D03*
%TO.P,GPIO_B0,7*%
%TO.N,EXP7*%
X192406100Y-99833600D03*
%TO.P,GPIO_B0,8*%
%TO.N,EXP8*%
X194946100Y-99833600D03*
%TO.P,GPIO_B0,9*%
%TO.N,EXP9*%
X192406100Y-102373600D03*
%TO.P,GPIO_B0,10*%
%TO.N,EXP10*%
X194946100Y-102373600D03*
%TO.P,GPIO_B0,11*%
%TO.N,GND*%
X192406100Y-104913600D03*
%TO.P,GPIO_B0,12*%
X194946100Y-104913600D03*
%TO.P,GPIO_B0,13*%
%TO.N,3V3*%
X192406100Y-107453600D03*
%TO.P,GPIO_B0,14*%
%TO.N,5V0*%
X194946100Y-107453600D03*
%TD*%
D18*
%TO.P,H1,B3\u002C6*%
%TO.N,GND*%
X69851100Y-30163600D03*
%TD*%
D28*
%TO.P,C48,1*%
%TO.N,GND*%
X96104300Y-77882400D03*
%TO.P,C48,2*%
%TO.N,1V1*%
X96104300Y-75982400D03*
%TD*%
%TO.P,C50,1*%
%TO.N,3V3*%
X95617100Y-102328400D03*
%TO.P,C50,2*%
%TO.N,GND*%
X95617100Y-104228400D03*
%TD*%
%TO.P,C42,1*%
%TO.N,3V3*%
X123265500Y-79316000D03*
%TO.P,C42,2*%
%TO.N,GND*%
X123265500Y-81216000D03*
%TD*%
%TO.P,C46,1*%
%TO.N,GND*%
X109383900Y-90085600D03*
%TO.P,C46,2*%
%TO.N,1V1*%
X109383900Y-91985600D03*
%TD*%
%TO.P,C51,1*%
%TO.N,GND*%
X89195500Y-100590000D03*
%TO.P,C51,2*%
%TO.N,2V5*%
X89195500Y-98690000D03*
%TD*%
%TO.P,C47,1*%
%TO.N,GND*%
X99808100Y-82364000D03*
%TO.P,C47,2*%
%TO.N,2V5*%
X99808100Y-84264000D03*
%TD*%
%TO.P,C43,1*%
%TO.N,3V3*%
X120585300Y-82313200D03*
%TO.P,C43,2*%
%TO.N,GND*%
X120585300Y-84213200D03*
%TD*%
%TO.P,C44,1*%
%TO.N,3V3*%
X118121500Y-82211600D03*
%TO.P,C44,2*%
%TO.N,GND*%
X118121500Y-84111600D03*
%TD*%
%TO.P,C49,1*%
%TO.N,3V3*%
X121692500Y-100890200D03*
%TO.P,C49,2*%
%TO.N,GND*%
X121692500Y-102790200D03*
%TD*%
%TO.P,C45,1*%
%TO.N,GND*%
X112304900Y-88256800D03*
%TO.P,C45,2*%
%TO.N,1V1*%
X112304900Y-90156800D03*
%TD*%
D29*
%TO.N,GND*%
X88266100Y-82637800D03*
X106884300Y-45706200D03*
D30*
X115906900Y-92613400D03*
X103906900Y-81613400D03*
D29*
X74423100Y-48779600D03*
D31*
X176200900Y-135876200D03*
D30*
X114906900Y-97613400D03*
D32*
X186894300Y-60158800D03*
D30*
X131906900Y-102363400D03*
X179121900Y-130389800D03*
D29*
X219050700Y-156704200D03*
D30*
X102156900Y-110374600D03*
D29*
X74931100Y-43953600D03*
X123521300Y-149058800D03*
X72010100Y-58177600D03*
D30*
X78055300Y-113168600D03*
D31*
X143663500Y-41591400D03*
D30*
X107906900Y-93613400D03*
D29*
X110110100Y-45731600D03*
D31*
X222251100Y-58431600D03*
D32*
X201880300Y-80275600D03*
X221793900Y-90105400D03*
D29*
X96394100Y-79640600D03*
D32*
X195073100Y-67270800D03*
D30*
X76582100Y-140854600D03*
D32*
X200305500Y-88175000D03*
D30*
X108656900Y-69313400D03*
D31*
X176175500Y-120483800D03*
D30*
X107156900Y-112813400D03*
X86081700Y-117029400D03*
X92706900Y-86613400D03*
D31*
X124461100Y-52132400D03*
D29*
X113056500Y-156653400D03*
X91517300Y-46138000D03*
D30*
X104906900Y-91613400D03*
X97283100Y-140854600D03*
X131906900Y-98363400D03*
X113906900Y-95613400D03*
X179071100Y-178040200D03*
D29*
X122860900Y-156755000D03*
D31*
X186792700Y-57161600D03*
D30*
X104906900Y-86613400D03*
X92106900Y-82113400D03*
X86081700Y-119772600D03*
X92106900Y-78113400D03*
D32*
X187046700Y-67270800D03*
D30*
X124656900Y-69313400D03*
D29*
X75058100Y-60082600D03*
D30*
X115906900Y-99613400D03*
X72568900Y-111695400D03*
D29*
X104191900Y-62825800D03*
D30*
X110906900Y-88613400D03*
X117656900Y-69313400D03*
X92706900Y-79613400D03*
X115656900Y-113413400D03*
D29*
X105080900Y-54393000D03*
D30*
X107906900Y-90613400D03*
X91386100Y-100613400D03*
X92706900Y-102613400D03*
X105906900Y-88613400D03*
D31*
X106858900Y-125386000D03*
D30*
X126656900Y-113413400D03*
X114301100Y-135774600D03*
D29*
X101118500Y-39965800D03*
D30*
X115906900Y-85613400D03*
D33*
X92217100Y-70726200D03*
D29*
X67946100Y-48398600D03*
D30*
X92106900Y-91113400D03*
X68200100Y-126960800D03*
D31*
X176404100Y-153478400D03*
D30*
X92106900Y-80113400D03*
X131306900Y-85863400D03*
X74956500Y-118858200D03*
X131906900Y-76363400D03*
X113906900Y-92613400D03*
X110906900Y-86613400D03*
D32*
X195555700Y-76414800D03*
D30*
X104906900Y-84613400D03*
X113906900Y-87648200D03*
D29*
X88012100Y-56907600D03*
D30*
X179274300Y-162673200D03*
X86081700Y-112203400D03*
X106554100Y-135673000D03*
X92106900Y-96113400D03*
D29*
X76455100Y-87768600D03*
D30*
X107906900Y-85613400D03*
X85421300Y-130085000D03*
D31*
X222505100Y-79386600D03*
D30*
X72543500Y-117918400D03*
D31*
X176505700Y-168439000D03*
D30*
X110906900Y-94613400D03*
D29*
X87885100Y-50684600D03*
D30*
X126656900Y-69313400D03*
D31*
X162942100Y-47281000D03*
D30*
X114906900Y-84613400D03*
X131906900Y-80363400D03*
D29*
X97613300Y-104075400D03*
D30*
X131906900Y-90363400D03*
D29*
X113386700Y-149109600D03*
D30*
X93092100Y-140854600D03*
X104906900Y-97613400D03*
X84710100Y-140854600D03*
X179274300Y-145883800D03*
D29*
X113742300Y-45655400D03*
D30*
X131906900Y-78363400D03*
X103656900Y-69313400D03*
D29*
X125654900Y-75932200D03*
D30*
X113906900Y-90613400D03*
X102906900Y-85613400D03*
X106906900Y-96613400D03*
D31*
X133328240Y-58617019D03*
D30*
X92706900Y-77613400D03*
D29*
X87885100Y-44969600D03*
D30*
X68250900Y-83806200D03*
D29*
X73026100Y-46493600D03*
D30*
X109906900Y-97613400D03*
X108906900Y-88613400D03*
D31*
X184709900Y-170775800D03*
D30*
X108906900Y-82613400D03*
X131306900Y-74863400D03*
X110906900Y-92613400D03*
D29*
X76328100Y-74687600D03*
D31*
X209043100Y-65543600D03*
X111151500Y-129145200D03*
D30*
X94656900Y-113413400D03*
D31*
X168809500Y-41642200D03*
D30*
X92706900Y-103613400D03*
D29*
X123419700Y-103618200D03*
D30*
X111906900Y-83613400D03*
%TO.N,3V3*%
X92106900Y-103113400D03*
X109906900Y-99613400D03*
X102906900Y-82613400D03*
X78055300Y-111898600D03*
X114906900Y-98613400D03*
X131906900Y-93363400D03*
X114906900Y-82613400D03*
X104906900Y-99613400D03*
X103906900Y-98613400D03*
X92706900Y-98613400D03*
D29*
X103506100Y-57593400D03*
D30*
X96038500Y-61124000D03*
X103906900Y-87613400D03*
X108906900Y-81613400D03*
X131306900Y-75863400D03*
X74854900Y-120483800D03*
D32*
X221743100Y-88784600D03*
D30*
X89028100Y-118959800D03*
X105588900Y-67042200D03*
X112906900Y-81613400D03*
X108906900Y-95613400D03*
X112906900Y-85613400D03*
X91656900Y-113413400D03*
X106906900Y-82613400D03*
D29*
X102032900Y-57999800D03*
X84075100Y-70877600D03*
D30*
X103906900Y-89613400D03*
X131906900Y-75363400D03*
X131906900Y-74363400D03*
X92706900Y-78613400D03*
X118906900Y-94613400D03*
D32*
X222022500Y-84212600D03*
D30*
X126156900Y-69913400D03*
X101156900Y-72274600D03*
X109906900Y-83613400D03*
X117906900Y-96613400D03*
X115906900Y-87613400D03*
X94656900Y-69313400D03*
D31*
X204648900Y-64248200D03*
D29*
X123826100Y-76999000D03*
D30*
X110906900Y-81613400D03*
X107906900Y-98613400D03*
D29*
X68835100Y-68769400D03*
D30*
X111906900Y-96613400D03*
D29*
X97359300Y-101433800D03*
X84202100Y-65289600D03*
X91136300Y-42378800D03*
D30*
X105906900Y-93613400D03*
D29*
X104166500Y-39965800D03*
D30*
X128656900Y-113413400D03*
X72594300Y-87108200D03*
X96156900Y-69913400D03*
X118906900Y-90613400D03*
X77242500Y-109104600D03*
D31*
X222632100Y-75576600D03*
D30*
X103906900Y-94613400D03*
X117906900Y-91613400D03*
X118906900Y-98613400D03*
X75159700Y-130897800D03*
X122656900Y-69313400D03*
X101906900Y-99613400D03*
X89282100Y-114083000D03*
X105906900Y-97613400D03*
D31*
X157608100Y-51218000D03*
X128309200Y-58617019D03*
D30*
X116906900Y-92613400D03*
D31*
X152197900Y-55840800D03*
D29*
X124588100Y-104786600D03*
D32*
X226848500Y-84161800D03*
D30*
X121156900Y-112813400D03*
X74854900Y-116521400D03*
X92706900Y-87613400D03*
X116906900Y-89613400D03*
X92106900Y-79113400D03*
X92106900Y-84113400D03*
%TO.N,1V1*%
X108906900Y-87613400D03*
X70003500Y-133895000D03*
X91081300Y-95613400D03*
X101906900Y-91613400D03*
X110906900Y-93613400D03*
X90481300Y-83113400D03*
X108906900Y-93613400D03*
X107906900Y-91613400D03*
X91182900Y-92613400D03*
X102185300Y-116369000D03*
X113906900Y-91613400D03*
X107906900Y-89613400D03*
D29*
X91695100Y-62241600D03*
D30*
X114906900Y-88613400D03*
X101906900Y-87613400D03*
D29*
X94362100Y-75475000D03*
D30*
X113906900Y-93613400D03*
X92106900Y-86113400D03*
X110906900Y-87613400D03*
X114906900Y-90613400D03*
D29*
%TO.N,2V5*%
X91441100Y-48779600D03*
D30*
X125656900Y-69313400D03*
X100915300Y-80605800D03*
X72848300Y-121169600D03*
X115906900Y-98613400D03*
D29*
X89485300Y-74967000D03*
D30*
X101906900Y-84613400D03*
X104906900Y-98613400D03*
X93656900Y-69313400D03*
D34*
X135154500Y-77100600D03*
D30*
X104906900Y-83613400D03*
X109906900Y-82613400D03*
X92965100Y-120610800D03*
X110906900Y-98613400D03*
X93418100Y-90613400D03*
X92106900Y-100113400D03*
X102906900Y-94613400D03*
X116906900Y-96613400D03*
X106909700Y-87616200D03*
%TO.N,CONF_DONE*%
X72975300Y-79716800D03*
X103906900Y-88613400D03*
%TO.N,CONFIG_N*%
X90653700Y-67143800D03*
%TO.N,TCK*%
X102906900Y-96613400D03*
X81128700Y-100519400D03*
%TO.N,TDO*%
X81458900Y-94880600D03*
X102906900Y-90613400D03*
%TO.N,TMS*%
X72568900Y-90994400D03*
X102906900Y-92613400D03*
X81357300Y-99046200D03*
%TO.N,TDI*%
X102906900Y-98613400D03*
%TO.N,STATUS_N*%
X86030900Y-75983000D03*
X72746700Y-77075200D03*
%TO.N,N$6*%
X92106900Y-102113400D03*
X80747700Y-82485400D03*
%TO.N,N$7*%
X79833300Y-79843800D03*
X101906900Y-93613400D03*
%TO.N,N$8*%
X79223700Y-81164600D03*
X91766500Y-109613000D03*
%TO.N,N$9*%
X92156900Y-112813400D03*
X79122100Y-84009400D03*
%TO.N,N$12*%
X114906900Y-87613400D03*
D29*
X140183700Y-72477800D03*
D32*
X136094300Y-52081600D03*
D30*
%TO.N,N$13*%
X108205100Y-40296000D03*
%TO.N,VGA_R1*%
X93777900Y-64222800D03*
X79350700Y-37679800D03*
%TO.N,VGA_R3*%
X81941500Y-37679800D03*
X95505100Y-64200200D03*
X104877700Y-82587000D03*
X97181500Y-69912400D03*
%TO.N,VGA_R4*%
X80646100Y-37679800D03*
X104903100Y-81571000D03*
X97664100Y-69277400D03*
X95581300Y-64959400D03*
%TO.N,VGA_R7*%
X98832500Y-66026200D03*
X105906900Y-83613400D03*
%TO.N,VGA_G0*%
X105906900Y-82613400D03*
X99656900Y-69313400D03*
%TO.N,VGA_G1*%
X100156900Y-69913400D03*
X105906900Y-84613400D03*
%TO.N,VGA_G3*%
X106906900Y-85613400D03*
X101656900Y-69313400D03*
%TO.N,VGA_G4*%
X106906900Y-81613400D03*
X102156900Y-69913400D03*
%TO.N,VGA_G5*%
X106906900Y-86613400D03*
X102656900Y-69313400D03*
%TO.N,VGA_G7*%
X107906900Y-82613400D03*
X104156900Y-69913400D03*
%TO.N,VGA_B0*%
X107906900Y-83613400D03*
X105156900Y-69913400D03*
%TO.N,VGA_B1*%
X107900300Y-84593600D03*
X106909700Y-64426000D03*
X105665100Y-72198400D03*
X94666900Y-55053400D03*
%TO.N,VGA_B4*%
X108865500Y-83552200D03*
X94031900Y-56044000D03*
X107138300Y-69937800D03*
X107722500Y-62927400D03*
%TO.N,VGA_B5*%
X108890900Y-84593600D03*
X107595500Y-69328200D03*
X94971700Y-54418400D03*
X108560700Y-64857800D03*
%TO.N,VGA_B6*%
X108103500Y-72198400D03*
X108865500Y-85558800D03*
X87707300Y-37654400D03*
X109043300Y-63333800D03*
%TO.N,VGA_BLANK_N*%
X104656900Y-69313400D03*
X107906900Y-81613400D03*
%TO.N,VGA_CLK*%
X109906900Y-85613400D03*
X109656900Y-69313400D03*
D31*
%TO.N,5V0*%
X206630100Y-65924600D03*
D29*
X170409700Y-54342200D03*
X88342300Y-146087000D03*
X64999700Y-146087000D03*
D31*
X204598100Y-59828600D03*
D29*
X178004300Y-29069200D03*
D30*
X186945100Y-76338600D03*
D31*
X173508500Y-38949800D03*
X173660900Y-38010000D03*
D29*
X65025100Y-144817000D03*
D31*
X191974300Y-35444600D03*
D29*
X70079700Y-146239400D03*
D31*
X173508500Y-48551000D03*
X204725100Y-53859600D03*
D29*
X75921700Y-31634600D03*
D30*
X89078900Y-31634600D03*
D29*
X153899700Y-187844600D03*
D31*
X203607500Y-45731600D03*
D29*
X155449100Y-187844600D03*
D30*
X211964100Y-71893600D03*
D29*
X76861500Y-31634600D03*
D30*
%TO.N,N$20*%
X71883100Y-148220600D03*
%TO.N,N$23*%
X73788100Y-155713600D03*
X72772100Y-148220600D03*
%TO.N,USB1DP*%
X107906900Y-97613400D03*
X104156900Y-110374600D03*
%TO.N,USB1DM*%
X104656900Y-113413400D03*
%TO.N,USB2DP*%
X105156900Y-112813400D03*
%TO.N,USB2DM*%
X108906900Y-94613400D03*
X105656900Y-113413400D03*
%TO.N,AUDIO_RIGHT*%
X132131900Y-149541400D03*
X110973700Y-95591800D03*
X110491100Y-113422600D03*
%TO.N,AUDIO_LEFT*%
X110999100Y-112762200D03*
X110872100Y-96607800D03*
X132741500Y-157212200D03*
%TO.N,SD_DAT2*%
X147143300Y-51268800D03*
X112156900Y-69913400D03*
%TO.N,SD_CS*%
X149581700Y-51218000D03*
X112656900Y-69313400D03*
X110906900Y-82613400D03*
%TO.N,SD_DETECT*%
X113156900Y-69913400D03*
X155626900Y-51294200D03*
X145771700Y-50735400D03*
X110906900Y-83613400D03*
%TO.N,SD_MOSI*%
X152223300Y-51243400D03*
X113656900Y-69313400D03*
X110906900Y-84613400D03*
%TO.N,SD_DAT1*%
X114156900Y-69913400D03*
%TO.N,SD_SCK*%
X114656900Y-69313400D03*
X159690900Y-51192600D03*
%TO.N,SD_WRITEPROTECT*%
X111906900Y-82613400D03*
X115156900Y-72274600D03*
%TO.N,SD_MISO*%
X111906900Y-81613400D03*
X115656900Y-69313400D03*
X164796300Y-51167200D03*
%TO.N,GPIOC8*%
X116156900Y-69913400D03*
X111906900Y-84613400D03*
%TO.N,GPIOC9*%
X180976100Y-61987600D03*
X111906900Y-85613400D03*
X116656900Y-69313400D03*
%TO.N,GPIOC10*%
X117156900Y-72274600D03*
%TO.N,GPIOC11*%
X118156900Y-69913400D03*
X112906900Y-83613400D03*
X180849100Y-64654600D03*
%TO.N,GPIOC12*%
X112906900Y-84613400D03*
X118656900Y-69313400D03*
%TO.N,GPIOC13*%
X119156900Y-69913400D03*
X180569700Y-69175800D03*
X112906900Y-86613400D03*
%TO.N,GPIOC14*%
X119656900Y-69313400D03*
%TO.N,GPIOC15*%
X120156900Y-72020600D03*
X180849100Y-70496600D03*
%TO.N,GPIOC16*%
X120656900Y-69313400D03*
X113906900Y-83613400D03*
%TO.N,GPIOC17*%
X121156900Y-69913400D03*
X113906900Y-81613400D03*
X166396500Y-58507800D03*
%TO.N,GPIOC19*%
X113906900Y-97613400D03*
X120156900Y-112813400D03*
%TO.N,GPIOC20*%
X113906900Y-98613400D03*
X119656900Y-113413400D03*
%TO.N,GPIOC21*%
X113906900Y-96613400D03*
X119156900Y-112813400D03*
%TO.N,GPIOC24*%
X112906900Y-97613400D03*
X117656900Y-113413400D03*
%TO.N,GPIOC25*%
X161697500Y-163511400D03*
X112906900Y-99613400D03*
%TO.N,GPIOC26*%
X112906900Y-96613400D03*
X161697500Y-164756000D03*
X116656900Y-113413400D03*
%TO.N,GPIOC27*%
X161697500Y-166076800D03*
X116156900Y-112813400D03*
X112906900Y-95613400D03*
%TO.N,GPIOC28*%
X161697500Y-169226400D03*
X115156900Y-110374600D03*
%TO.N,GPIOC29*%
X161697500Y-170445600D03*
X111906900Y-97613400D03*
%TO.N,GPIOC30*%
X161697500Y-171741000D03*
X111906900Y-99613400D03*
%TO.N,GPIOC31*%
X161697500Y-173087200D03*
X113656900Y-113413400D03*
X111906900Y-95613400D03*
%TO.N,GPIOC32*%
X161697500Y-176287600D03*
X113156900Y-112813400D03*
X111906900Y-94613400D03*
%TO.N,GPIOC33*%
X161672100Y-177506800D03*
X112656900Y-113413400D03*
%TO.N,GPIOC34*%
X161748300Y-178726000D03*
X112156900Y-110374600D03*
%TO.N,GPIOC35*%
X110906900Y-97613400D03*
X161799100Y-179996000D03*
%TO.N,GPIOA0*%
X121656900Y-69313400D03*
X113906900Y-84613400D03*
%TO.N,GPIOA1*%
X123156900Y-69913400D03*
%TO.N,GPIOA2*%
X114906900Y-81613400D03*
X124156900Y-69913400D03*
%TO.N,GPIOA3*%
X131306900Y-76863400D03*
X115906900Y-86613400D03*
%TO.N,GPIOA4*%
X131306900Y-77863400D03*
X114906900Y-86613400D03*
%TO.N,GPIOA5*%
X131306900Y-80863400D03*
X116906900Y-88613400D03*
%TO.N,GPIOA6*%
X115906900Y-88613400D03*
X131306900Y-81863400D03*
%TO.N,GPIOA8*%
X128398100Y-83863400D03*
X118906900Y-89613400D03*
%TO.N,GPIOA9*%
X128398100Y-84863400D03*
X114906900Y-89613400D03*
%TO.N,GPIOA10*%
X117906900Y-90613400D03*
X131906900Y-86363400D03*
%TO.N,GPIOA11*%
X128398100Y-87363400D03*
X115906900Y-90613400D03*
%TO.N,GPIOA13*%
X131906900Y-89363400D03*
X118906900Y-91613400D03*
%TO.N,GPIOA15*%
X118906900Y-92613400D03*
X128398100Y-91863400D03*
%TO.N,GPIOA17*%
X131906900Y-94363400D03*
X117906900Y-93613400D03*
%TO.N,GPIOA18*%
X114906900Y-93613400D03*
X128398100Y-95363400D03*
%TO.N,GPIOA19*%
X131906900Y-96363400D03*
%TO.N,GPIOA20*%
X114906900Y-94613400D03*
X131906900Y-97363400D03*
%TO.N,GPIOA21*%
X117906900Y-95613400D03*
X128398100Y-98863400D03*
%TO.N,GPIOA22*%
X116906900Y-95613400D03*
X131306900Y-99863400D03*
%TO.N,GPIOA24*%
X118906900Y-96613400D03*
X131306900Y-101863400D03*
%TO.N,GPIOA25*%
X117906900Y-97613400D03*
X131906900Y-103363400D03*
%TO.N,GPIOA32*%
X116906900Y-99613400D03*
X125156900Y-112813400D03*
%TO.N,GPIOA35*%
X114906900Y-96613400D03*
X122156900Y-112813400D03*
%TO.N,GPIOB0*%
X113906900Y-85613400D03*
X122156900Y-69913400D03*
X180849100Y-72528600D03*
%TO.N,GPIOB1*%
X180849100Y-73798600D03*
X123656900Y-69313400D03*
X114906900Y-83613400D03*
%TO.N,GPIOB2*%
X115906900Y-82613400D03*
X180849100Y-74941600D03*
X125156900Y-69913400D03*
%TO.N,GPIOB3*%
X116906900Y-86613400D03*
X180849100Y-76338600D03*
%TO.N,GPIOB4*%
X116906900Y-87613400D03*
X180849100Y-78370600D03*
%TO.N,GPIOB5*%
X180849100Y-79640600D03*
X117906900Y-88613400D03*
%TO.N,GPIOB6*%
X131906900Y-82363400D03*
X180849100Y-81037600D03*
%TO.N,GPIOB7*%
X117906900Y-89613400D03*
X180849100Y-82434600D03*
%TO.N,GPIOB8*%
X180798300Y-84314200D03*
X131906900Y-84363400D03*
X115906900Y-89613400D03*
%TO.N,GPIOB9*%
X131906900Y-85363400D03*
X180849100Y-85635000D03*
%TO.N,GPIOB10*%
X116906900Y-90613400D03*
X180798300Y-86879600D03*
X131306900Y-86863400D03*
%TO.N,GPIOB11*%
X131306900Y-87863400D03*
X180798300Y-88124200D03*
%TO.N,GPIOB12*%
X180899900Y-90359400D03*
X116906900Y-91613400D03*
%TO.N,GPIOB13*%
X180849100Y-91629400D03*
X131306900Y-89863400D03*
X114906900Y-91613400D03*
%TO.N,GPIOB14*%
X117906900Y-92613400D03*
X180849100Y-92899400D03*
%TO.N,GPIOB15*%
X131906900Y-92363400D03*
X180849100Y-94169400D03*
X114906900Y-92613400D03*
%TO.N,GPIOB16*%
X161697500Y-127291000D03*
X116906900Y-93613400D03*
%TO.N,GPIOB17*%
X115906900Y-93613400D03*
X161697500Y-128307000D03*
X131306900Y-94863400D03*
%TO.N,GPIOB18*%
X131306900Y-95863400D03*
X161697500Y-129754800D03*
%TO.N,GPIOB19*%
X115906900Y-94613400D03*
X161697500Y-130923200D03*
%TO.N,GPIOB20*%
X131306900Y-97863400D03*
X161697500Y-134225200D03*
%TO.N,GPIOB21*%
X118906900Y-95613400D03*
X161697500Y-135571400D03*
%TO.N,GPIOB22*%
X128398100Y-100363400D03*
X161697500Y-136866800D03*
X115906900Y-95613400D03*
%TO.N,GPIOB23*%
X131906900Y-101363400D03*
X161697500Y-137908200D03*
%TO.N,GPIOB24*%
X161697500Y-141210200D03*
X131306900Y-102863400D03*
%TO.N,GPIOB25*%
X118906900Y-97613400D03*
X161697500Y-142531000D03*
%TO.N,GPIOB26*%
X131306900Y-104863400D03*
X161697500Y-143826400D03*
%TO.N,GPIOB27*%
X131306900Y-105863400D03*
X161697500Y-144944000D03*
%TO.N,GPIOB28*%
X129656900Y-113413400D03*
X161697500Y-148296800D03*
%TO.N,GPIOB29*%
X161697500Y-149490600D03*
X128156900Y-112813400D03*
%TO.N,GPIOB30*%
X117906900Y-99613400D03*
X161697500Y-150811400D03*
%TO.N,GPIOB31*%
X161697500Y-152081400D03*
X116906900Y-98613400D03*
%TO.N,GPIOB32*%
X161697500Y-155231000D03*
X124656900Y-113413400D03*
%TO.N,GPIOB33*%
X161722900Y-156551800D03*
X115906900Y-97613400D03*
%TO.N,GPIOB34*%
X161748300Y-157771000D03*
X122656900Y-113413400D03*
%TO.N,GPIOB35*%
X114906900Y-99613400D03*
X161824500Y-159091800D03*
%TO.N,A0*%
X92106900Y-97113400D03*
X103906900Y-93613400D03*
%TO.N,A1*%
X92106900Y-98113400D03*
X102906900Y-93613400D03*
%TO.N,A2*%
X104906900Y-94613400D03*
X92706900Y-99613400D03*
%TO.N,A3*%
X92106900Y-101113400D03*
X103906900Y-95613400D03*
%TO.N,A4*%
X107906900Y-99613400D03*
X103656900Y-113413400D03*
%TO.N,A5*%
X103156900Y-112813400D03*
X107906900Y-96613400D03*
%TO.N,A6*%
X102656900Y-113413400D03*
X107906900Y-95613400D03*
%TO.N,A8*%
X106906900Y-98613400D03*
X101156900Y-112813400D03*
%TO.N,A9*%
X106906900Y-99613400D03*
X100656900Y-113413400D03*
%TO.N,A10*%
X92706900Y-96613400D03*
X104906900Y-93613400D03*
%TO.N,A11*%
X106906900Y-97613400D03*
X100156900Y-112813400D03*
%TO.N,A12*%
X106906900Y-95613400D03*
X99656900Y-113413400D03*
%TO.N,BA0*%
X104906900Y-92613400D03*
X92106900Y-94113400D03*
%TO.N,BA1*%
X103906900Y-92613400D03*
X92106900Y-95113400D03*
%TO.N,SDRAM_UDQM*%
X105906900Y-96613400D03*
X98156900Y-112813400D03*
%TO.N,SDRAM_LDQM*%
X92106900Y-90113400D03*
X103906900Y-90613400D03*
%TO.N,CS_N*%
X92706900Y-93613400D03*
X105906900Y-92613400D03*
%TO.N,RAS_N*%
X92106900Y-93113400D03*
X103906900Y-91613400D03*
%TO.N,CAS_N*%
X105906900Y-91613400D03*
X92106900Y-92113400D03*
%TO.N,WE_N*%
X106906900Y-91613400D03*
X92706900Y-91613400D03*
%TO.N,DQ0*%
X104906900Y-88613400D03*
X93519700Y-85613400D03*
%TO.N,DQ1*%
X106906900Y-88613400D03*
X92706900Y-84613400D03*
%TO.N,DQ2*%
X92706900Y-83613400D03*
X104906900Y-87613400D03*
%TO.N,DQ3*%
X105906900Y-87613400D03*
X92706900Y-82613400D03*
%TO.N,DQ4*%
X105906900Y-89613400D03*
X92106900Y-87113400D03*
%TO.N,DQ5*%
X92106900Y-88113400D03*
X104906900Y-89613400D03*
%TO.N,DQ6*%
X105906900Y-90613400D03*
X92706900Y-88613400D03*
%TO.N,DQ7*%
X92106900Y-89113400D03*
X104906900Y-90613400D03*
%TO.N,DQ8*%
X97656900Y-113413400D03*
X105906900Y-98613400D03*
%TO.N,DQ9*%
X105906900Y-95613400D03*
X97156900Y-112813400D03*
%TO.N,DQ12*%
X95656900Y-113413400D03*
X104906900Y-96613400D03*
%TO.N,DQ14*%
X103906900Y-97613400D03*
X94156900Y-112813400D03*
%TO.N,VSYNC*%
X110656900Y-69313400D03*
X109906900Y-86613400D03*
X117069700Y-62724200D03*
%TO.N,HSYNC*%
X110156900Y-69913400D03*
X109906900Y-81613400D03*
%TO.N,SDA*%
X103906900Y-86613400D03*
X92106900Y-81113400D03*
%TO.N,SCL*%
X92706900Y-80613400D03*
X103906900Y-85613400D03*
D29*
%TO.N,5V0FAST*%
X69774900Y-48017600D03*
X74626300Y-57745800D03*
%TO.N,5V0SLOW*%
X74931100Y-51192600D03*
X75312100Y-45858600D03*
D30*
%TO.N,N$143*%
X114910700Y-40296000D03*
D31*
%TO.N,N$141*%
X96165500Y-160869800D03*
%TO.N,N$15*%
X72899100Y-157999600D03*
D30*
%TO.N,MOTOR_RAW*%
X108906900Y-99613400D03*
X106156900Y-119433200D03*
%TO.N,COMMAND*%
X99746900Y-134377600D03*
X107341500Y-113397200D03*
%TO.N,SIO_OUT*%
X99721500Y-133209200D03*
X109881500Y-94626600D03*
X107976500Y-113422600D03*
%TO.N,SIO_IN*%
X99746900Y-128281600D03*
X109906900Y-96613400D03*
%TO.N,PROCEED*%
X108906900Y-96613400D03*
X99746900Y-135647600D03*
%TO.N,SIO_IRQ*%
X109906900Y-95617200D03*
X108459100Y-112889200D03*
X99746900Y-129526200D03*
%TO.N,SIO_CLOCKIN*%
X99721500Y-136892200D03*
X110008500Y-112863800D03*
%TO.N,SIO_CLOCKOUT*%
X109525900Y-113397200D03*
X99696100Y-126960800D03*
%TO.N,N$21*%
X114910700Y-131050200D03*
X118492100Y-130110400D03*
%TO.N,N$100*%
X118288900Y-132701200D03*
X114631300Y-133006000D03*
%TO.N,N$101*%
X114682100Y-135038000D03*
X118390500Y-135063400D03*
%TO.N,N$102*%
X106604900Y-134276000D03*
%TO.N,N$103*%
X106604900Y-133590200D03*
%TO.N,N$104*%
X106528700Y-131659800D03*
%TO.N,N$106*%
X106528700Y-130974000D03*
%TO.N,N$107*%
X105360300Y-138390800D03*
X106528700Y-129018200D03*
D31*
%TO.N,N$109*%
X114580500Y-143013600D03*
X119177900Y-143013600D03*
D30*
%TO.N,.A13*%
X177674100Y-161631800D03*
%TO.N,.A14*%
X175210300Y-171207600D03*
%TO.N,.A15*%
X175184900Y-173138000D03*
%TO.N,.D0*%
X175337300Y-138924200D03*
%TO.N,.D1*%
X175311900Y-141540400D03*
%TO.N,.D2*%
X175337300Y-144131200D03*
%TO.N,.D3*%
X177369300Y-129170600D03*
%TO.N,.D4*%
X178359900Y-144740800D03*
%TO.N,.D5*%
X179807700Y-144766200D03*
%TO.N,.D6*%
X178105900Y-129170600D03*
%TO.N,.D7*%
X178817100Y-129145200D03*
%TO.N,.RW_N*%
X175337300Y-128027600D03*
%TO.N,.REF_N*%
X175210300Y-175728800D03*
%TO.N,.PHI2*%
X175337300Y-125386000D03*
%TO.N,.MPD_N*%
X175210300Y-173798400D03*
%TO.N,.EXTSEL_N*%
X178512300Y-161581000D03*
%TO.N,.RST_N*%
X185446500Y-177278200D03*
%TO.N,.IRQ_N*%
X175184900Y-176389200D03*
%TO.N,.CCTL_N*%
X175388100Y-123455600D03*
%TO.N,.S4_N*%
X179325100Y-161606400D03*
%TO.N,.S5_N*%
X179655300Y-129119800D03*
%TO.N,.RD4*%
X180112500Y-161606400D03*
%TO.N,.RD5*%
X175362700Y-126046400D03*
%TO.N,.A10*%
X175337300Y-128637200D03*
%TO.N,.A11*%
X180595100Y-129145200D03*
%TO.N,.A12*%
X175337300Y-140880000D03*
%TO.N,.A9*%
X175337300Y-143496200D03*
%TO.N,.A8*%
X180595100Y-144766200D03*
%TO.N,.A7*%
X179096500Y-144740800D03*
%TO.N,.A6*%
X177572500Y-144766200D03*
%TO.N,.A0*%
X175286500Y-155764400D03*
%TO.N,.A5*%
X175388100Y-157694800D03*
%TO.N,.A1*%
X175388100Y-158355200D03*
%TO.N,.A4*%
X175337300Y-160311000D03*
%TO.N,.A2*%
X175337300Y-160971400D03*
%TO.N,.A3*%
X180823700Y-161581000D03*
%TO.N,PORTA0*%
X189866100Y-52970600D03*
X187173700Y-60895400D03*
%TO.N,PORTA1*%
X188545300Y-52945200D03*
X187173700Y-62749600D03*
%TO.N,PORTA2*%
X187300700Y-52970600D03*
X187173700Y-63384600D03*
%TO.N,PORTA3*%
X187173700Y-65264200D03*
X186056100Y-52945200D03*
%TO.N,PORTA4*%
X196724100Y-65238800D03*
X187224500Y-65975400D03*
%TO.N,PORTA5*%
X197155900Y-52818200D03*
X200965900Y-50075000D03*
%TO.N,PORTA6*%
X196038300Y-52818200D03*
X200965900Y-51421200D03*
%TO.N,PORTA7*%
X200940500Y-52665800D03*
X194590500Y-52767400D03*
X194971500Y-61505000D03*
%TO.N,POT0*%
X211202100Y-59955600D03*
X189840700Y-77786400D03*
X199314900Y-74484400D03*
X215774100Y-59955600D03*
%TO.N,POT1*%
X215774100Y-63765600D03*
X212472100Y-63765600D03*
X200330900Y-73900200D03*
X200762700Y-78116600D03*
%TO.N,POT2*%
X208128700Y-79488200D03*
X199289500Y-79488200D03*
%TO.N,POT3*%
X215901100Y-67575600D03*
X208179500Y-75779800D03*
X213742100Y-67575600D03*
X202007300Y-75779800D03*
%TO.N,TRIG1*%
X192761700Y-62724200D03*
X197689300Y-62419400D03*
D31*
%TO.N,POTIN0*%
X211862500Y-46747600D03*
%TO.N,POTIN1*%
X210592500Y-46747600D03*
D32*
X185040100Y-29450200D03*
D31*
%TO.N,POTIN2*%
X214427900Y-46747600D03*
%TO.N,POTIN3*%
X213132500Y-46747600D03*
%TO.N,N$73*%
X192507700Y-81723400D03*
X192152100Y-79259600D03*
D32*
%TO.N,N$71*%
X205563300Y-89419600D03*
X207849300Y-89775200D03*
%TO.N,N$78*%
X217272700Y-91324600D03*
%TO.N,N$79*%
X216383700Y-92289800D03*
D30*
%TO.N,N$83*%
X207519100Y-96531600D03*
%TO.N,JIO13*%
X185522700Y-77837200D03*
X191999700Y-75119400D03*
%TO.N,JIO14*%
X186106900Y-78421400D03*
X192177500Y-75805200D03*
D31*
%TO.N,MIC_IN*%
X66396700Y-162317600D03*
X91110900Y-161250800D03*
X75185100Y-69023400D03*
%TO.N,N$81*%
X68327100Y-144664600D03*
%TD*%
D35*
%TO.N,GND*%
X95632100Y-104243400D02*
X95617100Y-104228400D01*
X120585300Y-84213200D02*
X118223100Y-84213200D01*
X133147900Y-55840800D02*
X133147900Y-58436679D01*
D36*
X91362700Y-100590000D02*
X91386100Y-100613400D01*
D35*
X118223100Y-84213200D02*
X118121500Y-84111600D01*
D37*
X136551500Y-69506000D02*
X136551500Y-71718800D01*
D35*
X99289700Y-82364000D02*
X99117500Y-82364000D01*
D38*
X111888100Y-86803400D02*
X111684900Y-86600200D01*
D35*
X125654900Y-80199400D02*
X125654900Y-75932200D01*
D36*
X89195500Y-100590000D02*
X91362700Y-100590000D01*
D39*
X93406900Y-80113400D02*
X92106900Y-80113400D01*
D35*
X98984900Y-82059200D02*
X99289700Y-82364000D01*
X123265500Y-81216000D02*
X124638300Y-81216000D01*
D38*
X111888100Y-87362200D02*
X111888100Y-86803400D01*
D37*
X136551500Y-71718800D02*
X131906900Y-76363400D01*
D38*
X112304900Y-88256800D02*
X112304900Y-87779000D01*
D35*
X133147900Y-58436679D02*
X133328240Y-58617019D01*
X121692500Y-102790200D02*
X122591700Y-102790200D01*
X124638300Y-81216000D02*
X125654900Y-80199400D01*
D36*
X111906900Y-83613400D02*
X111406900Y-84113400D01*
D38*
X109383900Y-90085600D02*
X109383900Y-90090400D01*
D40*
X102906900Y-85613400D02*
X98906900Y-85613400D01*
D35*
X99808100Y-82364000D02*
X99289700Y-82364000D01*
D36*
X111406900Y-86113400D02*
X110906900Y-86613400D01*
D35*
X96104300Y-77882400D02*
X96394100Y-79640600D01*
X118121500Y-84111600D02*
X117408700Y-84111600D01*
X117408700Y-84111600D02*
X115906900Y-85613400D01*
D38*
X108406900Y-90113400D02*
X107906900Y-90613400D01*
D35*
X124461100Y-52132400D02*
X129439500Y-52132400D01*
D38*
X109406900Y-90113400D02*
X108406900Y-90113400D01*
D35*
X129439500Y-52132400D02*
X133147900Y-55840800D01*
D38*
X111684900Y-86600200D02*
X110920100Y-86600200D01*
X109383900Y-90090400D02*
X109406900Y-90113400D01*
D35*
X95617100Y-104228400D02*
X95770100Y-104075400D01*
D39*
X98906900Y-85613400D02*
X93406900Y-80113400D01*
D35*
X99117500Y-82364000D02*
X96394100Y-79640600D01*
D38*
X112304900Y-87779000D02*
X111888100Y-87362200D01*
X110920100Y-86600200D02*
X110906900Y-86613400D01*
D36*
X111406900Y-84113400D02*
X111406900Y-86113400D01*
D35*
X122591700Y-102790200D02*
X123419700Y-103618200D01*
X95770100Y-104075400D02*
X97613300Y-104075400D01*
%TO.N,3V3*%
X123265500Y-77505200D02*
X123458353Y-77331063D01*
X117597500Y-82211600D02*
X117597500Y-82414800D01*
D39*
X94656900Y-71363400D02*
X94656900Y-69313400D01*
D35*
X95617100Y-102328400D02*
X96464700Y-102328400D01*
X124842100Y-102551400D02*
X124588100Y-104786600D01*
X118308700Y-82211600D02*
X121692500Y-78421400D01*
X118121500Y-82211600D02*
X120483700Y-82211600D01*
X117699100Y-82313200D02*
X117597500Y-82211600D01*
X118390500Y-82282200D02*
X117730100Y-82282200D01*
D40*
X102906900Y-82613400D02*
X102906900Y-79613400D01*
D35*
X95543900Y-102401600D02*
X95617100Y-102328400D01*
X122782837Y-77331063D02*
X123458353Y-77331063D01*
X118319900Y-82211600D02*
X118390500Y-82282200D01*
X123180900Y-100890200D02*
X124842100Y-102551400D01*
X118121500Y-82211600D02*
X118319900Y-82211600D01*
D39*
X102906900Y-79613400D02*
X94656900Y-71363400D01*
D40*
X103906900Y-89613400D02*
X98906900Y-89613400D01*
D39*
X98906900Y-89613400D02*
X96906900Y-87613400D01*
X96906900Y-87613400D02*
X92706900Y-87613400D01*
D35*
X96464700Y-102328400D02*
X97359300Y-101433800D01*
X123458353Y-77331063D02*
X123826100Y-76999000D01*
D41*
X102439300Y-57593400D02*
X102032900Y-57999800D01*
D36*
X92658900Y-87565400D02*
X92706900Y-87613400D01*
D41*
X103506100Y-57593400D02*
X102439300Y-57593400D01*
D35*
X120483700Y-82211600D02*
X120585300Y-82313200D01*
X117730100Y-82282200D02*
X117699100Y-82313200D01*
D40*
X101906900Y-99613400D02*
X101906900Y-101613400D01*
D35*
X121692500Y-100890200D02*
X123180900Y-100890200D01*
X123265500Y-79316000D02*
X123265500Y-77505200D01*
X121692500Y-78421400D02*
X122782837Y-77331063D01*
X118121500Y-82211600D02*
X118308700Y-82211600D01*
D39*
X91656900Y-111863400D02*
X91656900Y-113413400D01*
X101906900Y-101613400D02*
X91656900Y-111863400D01*
%TO.N,1V1*%
X98906900Y-87613400D02*
X94406900Y-83113400D01*
D38*
X70003500Y-133895000D02*
X85345100Y-133895000D01*
X109383900Y-91985600D02*
X109383900Y-92457200D01*
D40*
X101906900Y-91613400D02*
X98906900Y-91613400D01*
D35*
X94869500Y-75982400D02*
X94362100Y-75475000D01*
D38*
X109383900Y-92457200D02*
X108789300Y-93051800D01*
D35*
X96104900Y-75983000D02*
X96104300Y-75982400D01*
D38*
X112450300Y-90156800D02*
X113906900Y-91613400D01*
D35*
X96104300Y-75982400D02*
X94869500Y-75982400D01*
D38*
X102185300Y-117054800D02*
X102185300Y-116369000D01*
D39*
X98906900Y-91613400D02*
X97906900Y-92613400D01*
D38*
X85345100Y-133895000D02*
X102185300Y-117054800D01*
D39*
X94406900Y-83113400D02*
X90481300Y-83113400D01*
X97906900Y-92613400D02*
X91182900Y-92613400D01*
D38*
X112304900Y-90156800D02*
X112450300Y-90156800D01*
D40*
X101906900Y-87613400D02*
X98906900Y-87613400D01*
D38*
X108789300Y-93051800D02*
X108789300Y-93495800D01*
X108789300Y-93495800D02*
X108906900Y-93613400D01*
D36*
%TO.N,2V5*%
X109906900Y-82637800D02*
X110414900Y-83145800D01*
X109398900Y-89089400D02*
X108382900Y-89089400D01*
X110414900Y-88124200D02*
X109398900Y-89089400D01*
D35*
X101557500Y-84264000D02*
X101906900Y-84613400D01*
D36*
X108382900Y-89089400D02*
X106909700Y-87616200D01*
D35*
X89195500Y-98690000D02*
X90683500Y-98690000D01*
D38*
X72848300Y-121169600D02*
X92406300Y-121169600D01*
D36*
X110414900Y-83145800D02*
X110414900Y-88124200D01*
D35*
X99808100Y-84264000D02*
X101557500Y-84264000D01*
D36*
X109906900Y-82613400D02*
X109906900Y-82637800D01*
D35*
X90683500Y-98690000D02*
X92106900Y-100113400D01*
D38*
X92406300Y-121169600D02*
X92965100Y-120610800D01*
D39*
%TO.N,CONF_DONE*%
X98906900Y-88613400D02*
X95406900Y-85113400D01*
D36*
X72975300Y-79589800D02*
X72975300Y-79716800D01*
X92106900Y-85113400D02*
X88635300Y-85113400D01*
X86081700Y-76948200D02*
X85548300Y-76414800D01*
X88635300Y-85113400D02*
X86081700Y-82559800D01*
X73203900Y-79361200D02*
X72975300Y-79589800D01*
D40*
X103906900Y-88613400D02*
X98906900Y-88613400D01*
D36*
X86081700Y-82559800D02*
X86081700Y-76948200D01*
X85548300Y-76414800D02*
X73965900Y-76414800D01*
X73203900Y-77176800D02*
X73203900Y-79361200D01*
X73965900Y-76414800D02*
X73203900Y-77176800D01*
D39*
X95406900Y-85113400D02*
X92106900Y-85113400D01*
D42*
%TO.N,CONFIG_N*%
X67158700Y-159193400D02*
X67996900Y-160031600D01*
X67158700Y-74078000D02*
X67158700Y-159193400D01*
X68352500Y-72884200D02*
X86310300Y-72884200D01*
X88037500Y-67143800D02*
X90653700Y-67143800D01*
X87148500Y-68032800D02*
X88037500Y-67143800D01*
X86310300Y-72884200D02*
X87148500Y-72046000D01*
X68352500Y-72884200D02*
X67158700Y-74078000D01*
X87148500Y-72046000D02*
X87148500Y-68032800D01*
D39*
%TO.N,TCK*%
X98906900Y-96613400D02*
X93906900Y-101613400D01*
D40*
X102906900Y-96613400D02*
X98906900Y-96613400D01*
D39*
X93906900Y-101613400D02*
X92706900Y-101613400D01*
D36*
X81638500Y-101613400D02*
X81128700Y-100519400D01*
X92706900Y-101613400D02*
X81638500Y-101613400D01*
D39*
%TO.N,TDO*%
X97906900Y-89613400D02*
X92706900Y-89613400D01*
D40*
X102906900Y-90613400D02*
X98906900Y-90613400D01*
D36*
X81966900Y-94880600D02*
X87234100Y-89613400D01*
X92706900Y-89613400D02*
X87234100Y-89613400D01*
X81458900Y-94880600D02*
X81966900Y-94880600D01*
D39*
X98906900Y-90613400D02*
X97906900Y-89613400D01*
D37*
%TO.N,TMS*%
X72340300Y-91832600D02*
X72340300Y-97119200D01*
D40*
X102906900Y-92613400D02*
X98906900Y-92613400D01*
D37*
X72568900Y-91604000D02*
X72340300Y-91832600D01*
X72340300Y-97119200D02*
X71126500Y-98333000D01*
D39*
X96906900Y-94613400D02*
X92706900Y-94613400D01*
X98906900Y-92613400D02*
X96906900Y-94613400D01*
D37*
X72568900Y-90994400D02*
X72568900Y-91604000D01*
D36*
X92706900Y-94613400D02*
X85790100Y-94613400D01*
X85790100Y-94613400D02*
X81357300Y-99046200D01*
D39*
%TO.N,TDI*%
X102906900Y-101613400D02*
X92656900Y-111863400D01*
D36*
X92656900Y-113413400D02*
X92656900Y-114365800D01*
X71126500Y-107103400D02*
X71126500Y-103413000D01*
D40*
X102906900Y-98613400D02*
X102906900Y-101613400D01*
D36*
X90602900Y-116419800D02*
X80442900Y-116419800D01*
D39*
X92656900Y-111863400D02*
X92656900Y-113413400D01*
D36*
X92656900Y-114365800D02*
X90602900Y-116419800D01*
X80442900Y-116419800D02*
X71126500Y-107103400D01*
%TO.N,STATUS_N*%
X73838900Y-75983000D02*
X72746700Y-77075200D01*
X86030900Y-75983000D02*
X73838900Y-75983000D01*
%TO.N,N$6*%
X83186100Y-104431000D02*
X81458900Y-104431000D01*
X80138100Y-83095000D02*
X80138100Y-103110200D01*
X80138100Y-83095000D02*
X80747700Y-82485400D01*
X92106900Y-102113400D02*
X85503700Y-102113400D01*
X85503700Y-102113400D02*
X83186100Y-104431000D01*
X80138100Y-103110200D02*
X81458900Y-104431000D01*
%TO.N,N$7*%
X81255700Y-81266200D02*
X79833300Y-79843800D01*
X81255700Y-82993400D02*
X81255700Y-81266200D01*
D39*
X98906900Y-93613400D02*
X94906900Y-97613400D01*
D40*
X101906900Y-93613400D02*
X98906900Y-93613400D01*
D36*
X80747700Y-99452600D02*
X80747700Y-83501400D01*
X80747700Y-83501400D02*
X81255700Y-82993400D01*
X81865300Y-100570200D02*
X80747700Y-99452600D01*
D39*
X94906900Y-97613400D02*
X92706900Y-97613400D01*
D36*
X82881300Y-100570200D02*
X81865300Y-100570200D01*
X85838100Y-97613400D02*
X82881300Y-100570200D01*
X92706900Y-97613400D02*
X85838100Y-97613400D01*
%TO.N,N$8*%
X79630100Y-81571000D02*
X79223700Y-81164600D01*
X91766500Y-109613000D02*
X81154500Y-109613000D01*
X81154500Y-109613000D02*
X79630100Y-108088600D01*
X79630100Y-81571000D02*
X79630100Y-108088600D01*
%TO.N,N$9*%
X92156900Y-112813400D02*
X92156900Y-114053000D01*
X78817300Y-84314200D02*
X79122100Y-84009400D01*
X90399700Y-115810200D02*
X84202100Y-115810200D01*
X78817300Y-110425400D02*
X84202100Y-115810200D01*
X92156900Y-114053000D02*
X90399700Y-115810200D01*
X78817300Y-84314200D02*
X78817300Y-110425400D01*
D40*
%TO.N,N$12*%
X115406900Y-87113400D02*
X120906900Y-87113400D01*
D36*
X131906900Y-79363400D02*
X133958500Y-79363400D01*
D40*
X114906900Y-87613400D02*
X115406900Y-87113400D01*
D36*
X140132900Y-73189000D02*
X140183700Y-72477800D01*
D39*
X120906900Y-87113400D02*
X128656900Y-79363400D01*
X128656900Y-79363400D02*
X131906900Y-79363400D01*
D36*
X133958500Y-79363400D02*
X140132900Y-73189000D01*
D37*
%TO.N,N$13*%
X139574100Y-37806800D02*
X139269300Y-38111600D01*
X130430100Y-38111600D02*
X132462100Y-36079600D01*
X138558100Y-36079600D02*
X139574100Y-37095600D01*
X132462100Y-36079600D02*
X138558100Y-36079600D01*
X108205100Y-40296000D02*
X110389500Y-38111600D01*
X110389500Y-38111600D02*
X130430100Y-38111600D01*
X139574100Y-37095600D02*
X139574100Y-37806800D01*
%TO.N,N$14*%
X108384900Y-37603600D02*
X130303100Y-37603600D01*
X130303100Y-37603600D02*
X136370100Y-31536600D01*
X106810100Y-36028800D02*
X108384900Y-37603600D01*
X136370100Y-31536600D02*
X136370100Y-31471300D01*
D36*
%TO.N,VGA_R1*%
X94489100Y-62622600D02*
X92457100Y-60590600D01*
X93777900Y-64222800D02*
X94489100Y-63511600D01*
X92457100Y-41413600D02*
X91060100Y-40016600D01*
X92457100Y-60590600D02*
X92457100Y-41413600D01*
X94489100Y-63511600D02*
X94489100Y-62622600D01*
X91060100Y-40016600D02*
X82068500Y-40016600D01*
X82068500Y-40016600D02*
X79350700Y-37679800D01*
X93777900Y-64222800D02*
X93727100Y-64273600D01*
%TO.N,VGA_R3*%
X83770300Y-39127600D02*
X81941500Y-37679800D01*
X91314100Y-39127600D02*
X83770300Y-39127600D01*
X95505100Y-64200200D02*
X95505100Y-62495600D01*
X95505100Y-62495600D02*
X93219100Y-60209600D01*
X93219100Y-60209600D02*
X93219100Y-41032600D01*
X104420500Y-79589800D02*
X104420500Y-82079000D01*
X104420500Y-82079000D02*
X104877700Y-82587000D01*
X93219100Y-41032600D02*
X91314100Y-39127600D01*
X97181500Y-72350800D02*
X104420500Y-79589800D01*
X97181500Y-69912400D02*
X97181500Y-72350800D01*
%TO.N,VGA_R4*%
X92838100Y-60336600D02*
X92838100Y-41159600D01*
X97664100Y-72350800D02*
X104852300Y-79539000D01*
X94997100Y-64375200D02*
X94997100Y-62495600D01*
X94997100Y-62495600D02*
X92838100Y-60336600D01*
X104852300Y-79539000D02*
X104852300Y-81520200D01*
X95581300Y-64959400D02*
X94997100Y-64375200D01*
X97664100Y-69277400D02*
X97664100Y-72350800D01*
X91187100Y-39508600D02*
X82855900Y-39508600D01*
X92838100Y-41159600D02*
X91187100Y-39508600D01*
X82855900Y-39508600D02*
X80646100Y-37679800D01*
X104852300Y-81520200D02*
X104903100Y-81571000D01*
D40*
%TO.N,VGA_R7*%
X105406900Y-83113400D02*
X105406900Y-79613400D01*
D39*
X99156900Y-73363400D02*
X99156900Y-69913400D01*
X105406900Y-79613400D02*
X99156900Y-73363400D01*
D36*
X99156900Y-66350600D02*
X98832500Y-66026200D01*
D40*
X105906900Y-83613400D02*
X105406900Y-83113400D01*
D36*
X99156900Y-69913400D02*
X99156900Y-66350600D01*
D39*
%TO.N,VGA_G0*%
X105906900Y-79613400D02*
X99656900Y-73363400D01*
X99656900Y-73363400D02*
X99656900Y-69313400D01*
D40*
X105906900Y-82613400D02*
X105906900Y-79613400D01*
%TO.N,VGA_G3*%
X106906900Y-85613400D02*
X106406900Y-85113400D01*
D39*
X101656900Y-74863400D02*
X101656900Y-69313400D01*
D40*
X106406900Y-85113400D02*
X106406900Y-79613400D01*
D39*
X106406900Y-79613400D02*
X101656900Y-74863400D01*
D40*
%TO.N,VGA_G4*%
X106906900Y-81613400D02*
X106906900Y-79613400D01*
D39*
X106906900Y-79613400D02*
X102156900Y-74863400D01*
X102156900Y-74863400D02*
X102156900Y-69913400D01*
%TO.N,VGA_G7*%
X104156900Y-76363400D02*
X104156900Y-69913400D01*
X107406900Y-79613400D02*
X104156900Y-76363400D01*
D40*
X107406900Y-82113400D02*
X107406900Y-79613400D01*
X107906900Y-82613400D02*
X107406900Y-82113400D01*
D36*
%TO.N,VGA_B1*%
X106935100Y-64400600D02*
X106909700Y-64426000D01*
X110160900Y-62292400D02*
X110160900Y-64070400D01*
X106173100Y-59244400D02*
X107112900Y-59244400D01*
X105639700Y-58711000D02*
X106173100Y-59244400D01*
X107112900Y-59244400D02*
X110160900Y-62292400D01*
X110160900Y-64070400D02*
X109830700Y-64400600D01*
X105639700Y-57517200D02*
X105639700Y-58711000D01*
X94666900Y-55053400D02*
X103175900Y-55053400D01*
X103175900Y-55053400D02*
X105639700Y-57517200D01*
X109830700Y-64400600D02*
X106935100Y-64400600D01*
%TO.N,VGA_B4*%
X102972700Y-56044000D02*
X104801500Y-57872800D01*
X107697100Y-61327200D02*
X107697100Y-62902000D01*
X107138300Y-78319800D02*
X108408300Y-79589800D01*
X107646300Y-62851200D02*
X107722500Y-62927400D01*
X108408300Y-79589800D02*
X108408300Y-83095000D01*
X107697100Y-62902000D02*
X107722500Y-62927400D01*
X105792100Y-60108000D02*
X106477900Y-60108000D01*
X107138300Y-69937800D02*
X107138300Y-78319800D01*
X106477900Y-60108000D02*
X107697100Y-61327200D01*
X104801500Y-59117400D02*
X105792100Y-60108000D01*
X94031900Y-56044000D02*
X102972700Y-56044000D01*
X108408300Y-83095000D02*
X108865500Y-83552200D01*
X104801500Y-57872800D02*
X104801500Y-59117400D01*
%TO.N,VGA_B5*%
X110795900Y-64248200D02*
X110186300Y-64857800D01*
X106020700Y-57314000D02*
X106020700Y-58457000D01*
X108586100Y-64832400D02*
X108560700Y-64857800D01*
X94971700Y-54418400D02*
X103125100Y-54418400D01*
X107290700Y-58863400D02*
X110795900Y-62368600D01*
X110186300Y-64857800D02*
X108560700Y-64857800D01*
X106020700Y-58457000D02*
X106427100Y-58863400D01*
X106427100Y-58863400D02*
X107290700Y-58863400D01*
X103125100Y-54418400D02*
X106020700Y-57314000D01*
X110795900Y-62368600D02*
X110795900Y-64248200D01*
%TO.N,VGA_B6*%
X105969900Y-59625400D02*
X106935100Y-59625400D01*
X105258700Y-58914200D02*
X105969900Y-59625400D01*
X91390300Y-38619600D02*
X93676300Y-40905600D01*
X106935100Y-59625400D02*
X109017900Y-61708200D01*
X88824900Y-38619600D02*
X91390300Y-38619600D01*
X109017900Y-61708200D02*
X109017900Y-63308400D01*
X93676300Y-54901000D02*
X94362100Y-55586800D01*
X88824900Y-38619600D02*
X87707300Y-37654400D01*
X103099700Y-55586800D02*
X105258700Y-57745800D01*
X109017900Y-63308400D02*
X109043300Y-63333800D01*
X105258700Y-57745800D02*
X105258700Y-58914200D01*
X94362100Y-55586800D02*
X103099700Y-55586800D01*
X93676300Y-40905600D02*
X93676300Y-54901000D01*
X108992500Y-63283000D02*
X109043300Y-63333800D01*
D39*
%TO.N,VGA_BLANK_N*%
X104656900Y-76363400D02*
X104656900Y-69313400D01*
D40*
X107906900Y-81613400D02*
X107906900Y-79613400D01*
D39*
X107906900Y-79613400D02*
X104656900Y-76363400D01*
D40*
%TO.N,VGA_CLK*%
X109906900Y-85613400D02*
X109406900Y-85113400D01*
D39*
X109656900Y-79363400D02*
X109656900Y-69313400D01*
X109406900Y-79613400D02*
X109656900Y-79363400D01*
D40*
X109406900Y-85113400D02*
X109406900Y-79613400D01*
D43*
%TO.N,5V0*%
X178131300Y-29196200D02*
X178131300Y-29323200D01*
X91644300Y-31634600D02*
X101702700Y-21576200D01*
D44*
X64999700Y-144842400D02*
X65025100Y-144817000D01*
D43*
X173508500Y-46696800D02*
X173508500Y-48551000D01*
X170409700Y-54342200D02*
X173508500Y-51243400D01*
D44*
X64999700Y-146087000D02*
X64999700Y-144842400D01*
D43*
X65025100Y-173112600D02*
X79757100Y-187844600D01*
X75921700Y-31634600D02*
X76861500Y-31634600D01*
X177623300Y-34098400D02*
X173508500Y-38213200D01*
D35*
X204598100Y-53986600D02*
X204598100Y-59828600D01*
D42*
X173660900Y-38213200D02*
X173660900Y-38010000D01*
D43*
X178131300Y-29323200D02*
X178131300Y-33590400D01*
D35*
X89078900Y-31634600D02*
X89459900Y-31634600D01*
D43*
X173508500Y-38213200D02*
X173508500Y-38949800D01*
D35*
X203607500Y-45731600D02*
X174473700Y-45731600D01*
D43*
X170511300Y-21576200D02*
X178004300Y-29069200D01*
D44*
X178004300Y-29196200D02*
X178131300Y-29323200D01*
D42*
X188088100Y-76338600D02*
X204598100Y-59828600D01*
X211964100Y-71893600D02*
X211964100Y-71258600D01*
D44*
X178004300Y-29069200D02*
X178004300Y-29196200D01*
D43*
X173508500Y-38949800D02*
X173508500Y-46696800D01*
D42*
X173508500Y-38213200D02*
X173660900Y-38213200D01*
D43*
X178131300Y-33590400D02*
X177623300Y-34098400D01*
D42*
X186945100Y-76338600D02*
X188088100Y-76338600D01*
D43*
X178004300Y-29069200D02*
X178131300Y-29196200D01*
X76861500Y-31634600D02*
X89078900Y-31634600D01*
X101702700Y-21576200D02*
X170511300Y-21576200D01*
X89459900Y-31634600D02*
X91644300Y-31634600D01*
D42*
X191974300Y-35444600D02*
X178969500Y-35444600D01*
D43*
X155449100Y-187844600D02*
X153899700Y-187844600D01*
D42*
X211964100Y-71258600D02*
X206630100Y-65924600D01*
D43*
X153899700Y-187844600D02*
X79757100Y-187844600D01*
X173508500Y-48551000D02*
X173508500Y-51243400D01*
X65025100Y-144817000D02*
X65025100Y-173112600D01*
D42*
X178969500Y-35444600D02*
X177623300Y-34098400D01*
D35*
X88342300Y-146087000D02*
X70232100Y-146087000D01*
X204725100Y-53859600D02*
X204598100Y-53986600D01*
X70232100Y-146087000D02*
X70079700Y-146239400D01*
X174473700Y-45731600D02*
X173508500Y-46696800D01*
D37*
%TO.N,N$20*%
X71883100Y-148220600D02*
X71883100Y-152411600D01*
X78995100Y-161936600D02*
X78995100Y-154951600D01*
X73788100Y-154316600D02*
X77725100Y-154316600D01*
X78995100Y-154951600D02*
X78360100Y-154316600D01*
X83402000Y-166343500D02*
X83402000Y-177430600D01*
X71883100Y-152411600D02*
X73788100Y-154316600D01*
X78360100Y-154316600D02*
X77725100Y-154316600D01*
X78995100Y-161936600D02*
X83402000Y-166343500D01*
%TO.N,N$23*%
X77471100Y-151522600D02*
X77725100Y-151776600D01*
X73915100Y-151522600D02*
X77471100Y-151522600D01*
X74677100Y-163460600D02*
X79503100Y-163460600D01*
X81281100Y-165238600D02*
X81281100Y-177316300D01*
X72772100Y-150379600D02*
X73915100Y-151522600D01*
X72772100Y-148220600D02*
X72772100Y-150379600D01*
X73788100Y-155713600D02*
X73788100Y-162571600D01*
X81281100Y-177316300D02*
X81395400Y-177430600D01*
X79503100Y-163460600D02*
X81281100Y-165238600D01*
X73788100Y-162571600D02*
X74677100Y-163460600D01*
D40*
%TO.N,USB1DP*%
X108406900Y-98113400D02*
X108406900Y-101613400D01*
D39*
X108406900Y-101613400D02*
X104156900Y-105863400D01*
X104156900Y-105863400D02*
X104156900Y-110374600D01*
D40*
X107906900Y-97613400D02*
X108406900Y-98113400D01*
D36*
%TO.N,SD_DAT2*%
X116002900Y-64197400D02*
X117425300Y-64197400D01*
X147143300Y-54189800D02*
X147143300Y-51268800D01*
X117425300Y-64197400D02*
X121286100Y-60336600D01*
X112156900Y-68043400D02*
X116002900Y-64197400D01*
X112156900Y-69913400D02*
X112156900Y-68043400D01*
X140996500Y-60336600D02*
X121286100Y-60336600D01*
X140996500Y-60336600D02*
X147143300Y-54189800D01*
%TO.N,SD_CS*%
X112656900Y-69313400D02*
X112656900Y-69270600D01*
X141504500Y-60743000D02*
X149581700Y-52665800D01*
X121184500Y-61352600D02*
X127991700Y-61352600D01*
D40*
X110406900Y-82113400D02*
X110406900Y-79613400D01*
D36*
X112656900Y-69270600D02*
X114174100Y-67753400D01*
X127991700Y-61352600D02*
X128601300Y-60743000D01*
X128601300Y-60743000D02*
X141504500Y-60743000D01*
X149581700Y-52665800D02*
X149581700Y-51218000D01*
D40*
X110906900Y-82613400D02*
X110406900Y-82113400D01*
D36*
X114174100Y-67753400D02*
X114783700Y-67753400D01*
X114783700Y-67753400D02*
X121184500Y-61352600D01*
D39*
X110406900Y-79613400D02*
X112656900Y-77363400D01*
X112656900Y-77363400D02*
X112656900Y-69313400D01*
D36*
%TO.N,SD_DETECT*%
X145771700Y-50735400D02*
X155068100Y-50735400D01*
X155068100Y-50735400D02*
X155626900Y-51294200D01*
%TO.N,SD_MOSI*%
X128804500Y-61149400D02*
X141707700Y-61149400D01*
X121387700Y-61759000D02*
X128194900Y-61759000D01*
X151207300Y-52970600D02*
X152223300Y-51954600D01*
X114377300Y-68159800D02*
X114986900Y-68159800D01*
X114986900Y-68159800D02*
X121387700Y-61759000D01*
X141707700Y-61149400D02*
X149886500Y-52970600D01*
X128194900Y-61759000D02*
X128804500Y-61149400D01*
X113656900Y-68880200D02*
X114377300Y-68159800D01*
X149886500Y-52970600D02*
X151207300Y-52970600D01*
X113656900Y-69313400D02*
X113656900Y-68880200D01*
X152223300Y-51954600D02*
X152223300Y-51243400D01*
%TO.N,SD_SCK*%
X128398100Y-62165400D02*
X129007700Y-61555800D01*
X114656900Y-69099400D02*
X121590900Y-62165400D01*
X121590900Y-62165400D02*
X128398100Y-62165400D01*
X129007700Y-61555800D02*
X141910900Y-61555800D01*
X150038900Y-53427800D02*
X141910900Y-61555800D01*
X159690900Y-51878400D02*
X159690900Y-51192600D01*
X150038900Y-53427800D02*
X158141500Y-53427800D01*
X158141500Y-53427800D02*
X159690900Y-51878400D01*
X114656900Y-69313400D02*
X114656900Y-69099400D01*
D40*
%TO.N,SD_WRITEPROTECT*%
X111906900Y-82613400D02*
X111406900Y-82113400D01*
D39*
X111406900Y-79613400D02*
X115156900Y-75863400D01*
D40*
X111406900Y-82113400D02*
X111406900Y-79613400D01*
D39*
X115156900Y-75863400D02*
X115156900Y-72274600D01*
D36*
%TO.N,SD_MISO*%
X128601300Y-62571800D02*
X129210900Y-61962200D01*
X162815100Y-53859600D02*
X164796300Y-51878400D01*
D39*
X115656900Y-75863400D02*
X115656900Y-69313400D01*
D36*
X150216700Y-53859600D02*
X162815100Y-53859600D01*
X115656900Y-69313400D02*
X115656900Y-68709000D01*
X164796300Y-51878400D02*
X164796300Y-51167200D01*
D40*
X111906900Y-81613400D02*
X111906900Y-79613400D01*
D39*
X111906900Y-79613400D02*
X115656900Y-75863400D01*
D36*
X150216700Y-53859600D02*
X142114100Y-61962200D01*
X121794100Y-62571800D02*
X128601300Y-62571800D01*
X115656900Y-68709000D02*
X121794100Y-62571800D01*
X129210900Y-61962200D02*
X142114100Y-61962200D01*
%TO.N,GPIOC9*%
X166904500Y-55561400D02*
X165583700Y-56882200D01*
X166904500Y-55561400D02*
X175946900Y-55561400D01*
X165583700Y-56882200D02*
X147803700Y-56882200D01*
X129414100Y-62368600D02*
X142317300Y-62368600D01*
X121997300Y-62978200D02*
X128804500Y-62978200D01*
X180595100Y-60209600D02*
X180595100Y-61733600D01*
X147803700Y-56882200D02*
X142317300Y-62368600D01*
X175946900Y-55561400D02*
X180595100Y-60209600D01*
X180595100Y-61733600D02*
X180976100Y-61987600D01*
X116656900Y-69313400D02*
X116656900Y-68318600D01*
X128804500Y-62978200D02*
X129414100Y-62368600D01*
X116656900Y-68318600D02*
X121997300Y-62978200D01*
%TO.N,GPIOC11*%
X148006900Y-57288600D02*
X142520500Y-62775000D01*
X129617300Y-62775000D02*
X142520500Y-62775000D01*
D39*
X112406900Y-79613400D02*
X118156900Y-73863400D01*
D36*
X118156900Y-69913400D02*
X118156900Y-67428200D01*
X180214100Y-64019600D02*
X180849100Y-64654600D01*
X118156900Y-67428200D02*
X122200500Y-63384600D01*
X122200500Y-63384600D02*
X129007700Y-63384600D01*
X175845300Y-55967800D02*
X180214100Y-60336600D01*
D40*
X112906900Y-83613400D02*
X112406900Y-83113400D01*
D36*
X180214100Y-60336600D02*
X180214100Y-64019600D01*
X165786900Y-57288600D02*
X148006900Y-57288600D01*
X167107700Y-55967800D02*
X175845300Y-55967800D01*
X167107700Y-55967800D02*
X165786900Y-57288600D01*
X129007700Y-63384600D02*
X129617300Y-62775000D01*
D40*
X112406900Y-83113400D02*
X112406900Y-79613400D01*
D39*
X118156900Y-73863400D02*
X118156900Y-69913400D01*
D36*
%TO.N,GPIOC13*%
X129210900Y-63791000D02*
X129820500Y-63181400D01*
X179833100Y-60463600D02*
X179833100Y-68439200D01*
X167310900Y-56374200D02*
X175743700Y-56374200D01*
X119156900Y-69913400D02*
X119156900Y-67037800D01*
X175743700Y-56374200D02*
X179833100Y-60463600D01*
X129820500Y-63181400D02*
X142723700Y-63181400D01*
X165990100Y-57695000D02*
X148210100Y-57695000D01*
X179833100Y-68439200D02*
X180569700Y-69175800D01*
X122403700Y-63791000D02*
X129210900Y-63791000D01*
X148210100Y-57695000D02*
X142723700Y-63181400D01*
X119156900Y-67037800D02*
X122403700Y-63791000D01*
X167310900Y-56374200D02*
X165990100Y-57695000D01*
%TO.N,GPIOC15*%
X130023700Y-63587800D02*
X142926900Y-63587800D01*
X167514100Y-56780600D02*
X166193300Y-58076000D01*
X175642100Y-56780600D02*
X179452100Y-60590600D01*
X120156900Y-66647400D02*
X122606900Y-64197400D01*
X122606900Y-64197400D02*
X129414100Y-64197400D01*
X129414100Y-64197400D02*
X130023700Y-63587800D01*
X120156900Y-72020600D02*
X120156900Y-66647400D01*
X167514100Y-56780600D02*
X175642100Y-56780600D01*
X166193300Y-58076000D02*
X148438700Y-58076000D01*
X179452100Y-60590600D02*
X179452100Y-69099600D01*
X142926900Y-63587800D02*
X148438700Y-58076000D01*
X179452100Y-69099600D02*
X180849100Y-70496600D01*
D40*
%TO.N,GPIOC16*%
X113906900Y-83613400D02*
X113406900Y-83113400D01*
D39*
X120656900Y-72363400D02*
X120656900Y-69313400D01*
X113406900Y-79613400D02*
X120656900Y-72363400D01*
D40*
X113406900Y-83113400D02*
X113406900Y-79613400D01*
D36*
%TO.N,GPIOC17*%
X129617300Y-64603800D02*
X130226900Y-63994200D01*
X143130100Y-63994200D02*
X148616500Y-58507800D01*
D39*
X121156900Y-72363400D02*
X121156900Y-69913400D01*
X113906900Y-79613400D02*
X121156900Y-72363400D01*
D36*
X121156900Y-66358600D02*
X122911700Y-64603800D01*
X121156900Y-69913400D02*
X121156900Y-66358600D01*
X166396500Y-58507800D02*
X148616500Y-58507800D01*
D40*
X113906900Y-81613400D02*
X113906900Y-79613400D01*
D36*
X122911700Y-64603800D02*
X129617300Y-64603800D01*
X130226900Y-63994200D02*
X143130100Y-63994200D01*
D39*
%TO.N,GPIOC19*%
X120156900Y-107363400D02*
X120156900Y-112813400D01*
D40*
X114406900Y-98113400D02*
X114406900Y-101613400D01*
D39*
X114406900Y-101613400D02*
X120156900Y-107363400D01*
D40*
X113906900Y-97613400D02*
X114406900Y-98113400D01*
%TO.N,GPIOC20*%
X113906900Y-98613400D02*
X113906900Y-101613400D01*
D39*
X119656900Y-107363400D02*
X119656900Y-113413400D01*
X113906900Y-101613400D02*
X119656900Y-107363400D01*
D40*
%TO.N,GPIOC24*%
X112906900Y-97613400D02*
X113406900Y-98113400D01*
D39*
X117656900Y-105863400D02*
X117656900Y-113413400D01*
D40*
X113406900Y-98113400D02*
X113406900Y-101613400D01*
D39*
X113406900Y-101613400D02*
X117656900Y-105863400D01*
%TO.N,GPIOC25*%
X117156900Y-105863400D02*
X117156900Y-112813400D01*
X112906900Y-101613400D02*
X117156900Y-105863400D01*
D36*
X143790500Y-163511400D02*
X161697500Y-163511400D01*
X142952300Y-126046400D02*
X142952300Y-162673200D01*
X117156900Y-115643400D02*
X120981300Y-119467800D01*
D40*
X112906900Y-99613400D02*
X112906900Y-101613400D01*
D36*
X120981300Y-119467800D02*
X136373700Y-119467800D01*
X142952300Y-162673200D02*
X143790500Y-163511400D01*
X136373700Y-119467800D02*
X142952300Y-126046400D01*
X117156900Y-112813400D02*
X117156900Y-115643400D01*
%TO.N,GPIOC26*%
X142241100Y-125995600D02*
X142241100Y-163740000D01*
X116656900Y-115753000D02*
X120778100Y-119874200D01*
X136119700Y-119874200D02*
X142241100Y-125995600D01*
X116656900Y-113413400D02*
X116656900Y-115753000D01*
X142241100Y-163740000D02*
X143257100Y-164756000D01*
X143257100Y-164756000D02*
X161697500Y-164756000D01*
X120778100Y-119874200D02*
X136119700Y-119874200D01*
%TO.N,GPIOC27*%
X135789500Y-120280600D02*
X141529900Y-126021000D01*
X142469700Y-166076800D02*
X161697500Y-166076800D01*
X120371700Y-120280600D02*
X135789500Y-120280600D01*
X116156900Y-116065800D02*
X120371700Y-120280600D01*
X141529900Y-126021000D02*
X141529900Y-165137000D01*
X141529900Y-165137000D02*
X142469700Y-166076800D01*
X116156900Y-112813400D02*
X116156900Y-116065800D01*
%TO.N,GPIOC28*%
X120168500Y-120687000D02*
X135484700Y-120687000D01*
X140844100Y-126046400D02*
X140844100Y-168083400D01*
X135484700Y-120687000D02*
X140844100Y-126046400D01*
X115156900Y-110374600D02*
X115156900Y-115675400D01*
X141987100Y-169226400D02*
X161697500Y-169226400D01*
X115156900Y-115675400D02*
X120168500Y-120687000D01*
X140844100Y-168083400D02*
X141987100Y-169226400D01*
%TO.N,GPIOC29*%
X141606100Y-170445600D02*
X161697500Y-170445600D01*
X140285300Y-169124800D02*
X141606100Y-170445600D01*
D39*
X114656900Y-103863400D02*
X114656900Y-113413400D01*
D36*
X114656900Y-113413400D02*
X114656900Y-115785000D01*
X135205300Y-121093400D02*
X140285300Y-126173400D01*
X114656900Y-115785000D02*
X119965300Y-121093400D01*
X140285300Y-126173400D02*
X140285300Y-169124800D01*
D40*
X111906900Y-97613400D02*
X112406900Y-98113400D01*
X112406900Y-98113400D02*
X112406900Y-101613400D01*
D39*
X112406900Y-101613400D02*
X114656900Y-103863400D01*
D36*
X119965300Y-121093400D02*
X135205300Y-121093400D01*
%TO.N,GPIOC30*%
X119762100Y-121499800D02*
X134900500Y-121499800D01*
X140945700Y-171741000D02*
X161697500Y-171741000D01*
X114156900Y-115894600D02*
X119762100Y-121499800D01*
X114156900Y-112813400D02*
X114156900Y-115894600D01*
X134900500Y-121499800D02*
X139599500Y-126198800D01*
X139599500Y-170394800D02*
X140945700Y-171741000D01*
X139599500Y-126198800D02*
X139599500Y-170394800D01*
D39*
X114156900Y-103863400D02*
X114156900Y-112813400D01*
X111906900Y-101613400D02*
X114156900Y-103863400D01*
D40*
X111906900Y-99613400D02*
X111906900Y-101613400D01*
D36*
%TO.N,GPIOC31*%
X139853500Y-173087200D02*
X161697500Y-173087200D01*
X134646500Y-121906200D02*
X138888300Y-126148000D01*
X113656900Y-117833000D02*
X117730100Y-121906200D01*
X113656900Y-113413400D02*
X113656900Y-117833000D01*
X138888300Y-126148000D02*
X138888300Y-172122000D01*
X138888300Y-172122000D02*
X139853500Y-173087200D01*
X117730100Y-121906200D02*
X134646500Y-121906200D01*
%TO.N,GPIOC32*%
X138329500Y-175271600D02*
X139345500Y-176287600D01*
X138329500Y-126224200D02*
X138329500Y-175271600D01*
X134417900Y-122312600D02*
X138329500Y-126224200D01*
X113156900Y-112813400D02*
X113156900Y-118145800D01*
X113156900Y-118145800D02*
X117323700Y-122312600D01*
X117323700Y-122312600D02*
X134417900Y-122312600D01*
X139345500Y-176287600D02*
X161697500Y-176287600D01*
%TO.N,GPIOC33*%
X112656900Y-113413400D02*
X112656900Y-118763400D01*
X134214700Y-122719000D02*
X137592900Y-126097200D01*
X137592900Y-126097200D02*
X137592900Y-176617800D01*
X138481900Y-177506800D02*
X161672100Y-177506800D01*
X112656900Y-118763400D02*
X116612500Y-122719000D01*
X137592900Y-176617800D02*
X138481900Y-177506800D01*
X116612500Y-122719000D02*
X134214700Y-122719000D01*
%TO.N,GPIOC34*%
X133909900Y-123125400D02*
X136907100Y-126122600D01*
X116002900Y-123125400D02*
X133909900Y-123125400D01*
X136907100Y-177633800D02*
X137999300Y-178726000D01*
X136907100Y-126122600D02*
X136907100Y-177633800D01*
X112156900Y-110374600D02*
X112156900Y-119279400D01*
X112156900Y-119279400D02*
X116002900Y-123125400D01*
X137999300Y-178726000D02*
X161748300Y-178726000D01*
D39*
%TO.N,GPIOC35*%
X111406900Y-101613400D02*
X111656900Y-101863400D01*
D36*
X111656900Y-113413400D02*
X111656900Y-120405000D01*
D40*
X111406900Y-98113400D02*
X111406900Y-101613400D01*
D36*
X137796100Y-179996000D02*
X161799100Y-179996000D01*
X133732100Y-123531800D02*
X136322900Y-126122600D01*
X136322900Y-126122600D02*
X136322900Y-178522800D01*
D39*
X111656900Y-101863400D02*
X111656900Y-113413400D01*
D36*
X111656900Y-120405000D02*
X114783700Y-123531800D01*
X114783700Y-123531800D02*
X133732100Y-123531800D01*
D40*
X110906900Y-97613400D02*
X111406900Y-98113400D01*
D36*
X136322900Y-178522800D02*
X137796100Y-179996000D01*
D39*
%TO.N,GPIOA2*%
X124156900Y-70363400D02*
X124156900Y-69913400D01*
X114906900Y-79613400D02*
X124156900Y-70363400D01*
D40*
X114906900Y-81613400D02*
X114906900Y-79613400D01*
%TO.N,GPIOA3*%
X116406900Y-86113400D02*
X120906900Y-86113400D01*
D39*
X130156900Y-76863400D02*
X131306900Y-76863400D01*
X120906900Y-86113400D02*
X130156900Y-76863400D01*
D40*
X115906900Y-86613400D02*
X116406900Y-86113400D01*
%TO.N,GPIOA5*%
X117406900Y-88113400D02*
X120906900Y-88113400D01*
D39*
X120906900Y-88113400D02*
X128156900Y-80863400D01*
D40*
X116906900Y-88613400D02*
X117406900Y-88113400D01*
D39*
X128156900Y-80863400D02*
X131306900Y-80863400D01*
%TO.N,GPIOA8*%
X126656900Y-83863400D02*
X128398100Y-83863400D01*
D40*
X118906900Y-89613400D02*
X120906900Y-89613400D01*
D39*
X120906900Y-89613400D02*
X126656900Y-83863400D01*
D40*
%TO.N,GPIOA10*%
X118406900Y-90113400D02*
X120906900Y-90113400D01*
D39*
X124656900Y-86363400D02*
X131906900Y-86363400D01*
X120906900Y-90113400D02*
X124656900Y-86363400D01*
D40*
X117906900Y-90613400D02*
X118406900Y-90113400D01*
%TO.N,GPIOA13*%
X118906900Y-91613400D02*
X120906900Y-91613400D01*
D39*
X123156900Y-89363400D02*
X131906900Y-89363400D01*
X120906900Y-91613400D02*
X123156900Y-89363400D01*
%TO.N,GPIOA15*%
X121656900Y-91863400D02*
X128398100Y-91863400D01*
D40*
X118906900Y-92613400D02*
X120906900Y-92613400D01*
D39*
X120906900Y-92613400D02*
X121656900Y-91863400D01*
%TO.N,GPIOA17*%
X120906900Y-93613400D02*
X121656900Y-94363400D01*
D40*
X117906900Y-93613400D02*
X120906900Y-93613400D01*
D39*
X121656900Y-94363400D02*
X131906900Y-94363400D01*
D40*
%TO.N,GPIOA21*%
X117906900Y-95613400D02*
X118406900Y-95113400D01*
D39*
X124656900Y-98863400D02*
X128398100Y-98863400D01*
X120906900Y-95113400D02*
X124656900Y-98863400D01*
D40*
X118406900Y-95113400D02*
X120906900Y-95113400D01*
%TO.N,GPIOA24*%
X118906900Y-96613400D02*
X120906900Y-96613400D01*
D39*
X120906900Y-96613400D02*
X126156900Y-101863400D01*
X126156900Y-101863400D02*
X131306900Y-101863400D01*
%TO.N,GPIOA25*%
X120906900Y-97113400D02*
X127156900Y-103363400D01*
X127156900Y-103363400D02*
X131906900Y-103363400D01*
D40*
X118406900Y-97113400D02*
X120906900Y-97113400D01*
X117906900Y-97613400D02*
X118406900Y-97113400D01*
%TO.N,GPIOA32*%
X116906900Y-99613400D02*
X116906900Y-101613400D01*
D39*
X125156900Y-109863400D02*
X125156900Y-112813400D01*
X116906900Y-101613400D02*
X125156900Y-109863400D01*
D40*
%TO.N,GPIOA35*%
X115406900Y-97113400D02*
X115406900Y-101613400D01*
D39*
X122156900Y-108363400D02*
X122156900Y-112813400D01*
X115406900Y-101613400D02*
X122156900Y-108363400D01*
D40*
X114906900Y-96613400D02*
X115406900Y-97113400D01*
D36*
%TO.N,GPIOB0*%
X123114900Y-65010200D02*
X129820500Y-65010200D01*
X179071100Y-60971600D02*
X179071100Y-70750600D01*
X143434900Y-64349800D02*
X148768900Y-58990400D01*
X122156900Y-65968200D02*
X123114900Y-65010200D01*
X167514100Y-57999800D02*
X176099300Y-57999800D01*
X130430100Y-64400600D02*
X134189300Y-64400600D01*
X176099300Y-57999800D02*
X179071100Y-60971600D01*
X122156900Y-69913400D02*
X122156900Y-65968200D01*
X134189300Y-64400600D02*
X134392500Y-64400600D01*
X134189300Y-64400600D02*
X134189300Y-64349800D01*
X179071100Y-70750600D02*
X180849100Y-72528600D01*
X134189300Y-64349800D02*
X143434900Y-64349800D01*
X167514100Y-57999800D02*
X166675900Y-58990400D01*
X166675900Y-58990400D02*
X148768900Y-58990400D01*
X129820500Y-65010200D02*
X130430100Y-64400600D01*
%TO.N,GPIOB1*%
X134290900Y-64807000D02*
X134290900Y-64756200D01*
X123656900Y-65992200D02*
X124232500Y-65416600D01*
D40*
X114406900Y-83113400D02*
X114406900Y-79613400D01*
X114906900Y-83613400D02*
X114406900Y-83113400D01*
D36*
X143688900Y-64756200D02*
X149022900Y-59422200D01*
X178690100Y-71639600D02*
X180849100Y-73798600D01*
D39*
X123656900Y-70363400D02*
X123656900Y-69313400D01*
D36*
X124232500Y-65416600D02*
X130023700Y-65416600D01*
X130023700Y-65416600D02*
X130633300Y-64807000D01*
X123656900Y-69313400D02*
X123656900Y-65992200D01*
X134290900Y-64807000D02*
X134595700Y-64807000D01*
X130633300Y-64807000D02*
X134290900Y-64807000D01*
X178690100Y-61225600D02*
X178690100Y-71639600D01*
X166904500Y-59422200D02*
X149022900Y-59422200D01*
X167895100Y-58431600D02*
X175896100Y-58431600D01*
X175896100Y-58431600D02*
X178690100Y-61225600D01*
X166904500Y-59422200D02*
X167895100Y-58431600D01*
X134290900Y-64756200D02*
X143688900Y-64756200D01*
D39*
X114406900Y-79613400D02*
X123656900Y-70363400D01*
D36*
%TO.N,GPIOB2*%
X177572500Y-60743000D02*
X168936500Y-60743000D01*
D39*
X115906900Y-79613400D02*
X125156900Y-70363400D01*
D36*
X125156900Y-69913400D02*
X125156900Y-68149800D01*
D39*
X125156900Y-70363400D02*
X125156900Y-69913400D01*
D36*
X178309100Y-72401600D02*
X180849100Y-74941600D01*
X177572500Y-60743000D02*
X178309100Y-61479600D01*
X130836500Y-65213400D02*
X143841300Y-65213400D01*
X178309100Y-61479600D02*
X178309100Y-72401600D01*
X168936500Y-60743000D02*
X168022100Y-59828600D01*
X125156900Y-68149800D02*
X127483700Y-65823000D01*
X127483700Y-65823000D02*
X130226900Y-65823000D01*
X168022100Y-59828600D02*
X149226100Y-59828600D01*
D40*
X115906900Y-82613400D02*
X115906900Y-79613400D01*
D36*
X149226100Y-59828600D02*
X143841300Y-65213400D01*
X130226900Y-65823000D02*
X130836500Y-65213400D01*
%TO.N,GPIOB3*%
X161824500Y-61149400D02*
X160910100Y-60235000D01*
D39*
X120906900Y-86613400D02*
X130156900Y-77363400D01*
D36*
X143130100Y-66534200D02*
X149429300Y-60235000D01*
X143130100Y-67143800D02*
X143130100Y-66534200D01*
X143130100Y-67143800D02*
X133020900Y-77253000D01*
X177470900Y-61149400D02*
X161824500Y-61149400D01*
D39*
X130156900Y-77363400D02*
X131906900Y-77363400D01*
D36*
X177470900Y-61149400D02*
X177928100Y-61606600D01*
D40*
X116906900Y-86613400D02*
X120906900Y-86613400D01*
D36*
X160910100Y-60235000D02*
X149429300Y-60235000D01*
X177928100Y-73417600D02*
X180849100Y-76338600D01*
X177928100Y-61606600D02*
X177928100Y-73417600D01*
X132017300Y-77253000D02*
X131906900Y-77363400D01*
X133020900Y-77253000D02*
X132017300Y-77253000D01*
%TO.N,GPIOB4*%
X162637300Y-62775000D02*
X160503700Y-60641400D01*
X149632500Y-60641400D02*
X144298500Y-65975400D01*
X177547100Y-63765600D02*
X177547100Y-73798600D01*
X179960100Y-77481600D02*
X180849100Y-78370600D01*
X168530100Y-62775000D02*
X162637300Y-62775000D01*
D39*
X120906900Y-87613400D02*
X128656900Y-79863400D01*
D36*
X177547100Y-73798600D02*
X179960100Y-76211600D01*
X160503700Y-60641400D02*
X149632500Y-60641400D01*
X134017300Y-79863400D02*
X144298500Y-69582200D01*
D40*
X116906900Y-87613400D02*
X120906900Y-87613400D01*
D39*
X128656900Y-79863400D02*
X129833700Y-79863400D01*
D36*
X169038100Y-63283000D02*
X168530100Y-62775000D01*
X144298500Y-65975400D02*
X144298500Y-69582200D01*
X129833700Y-79863400D02*
X134017300Y-79863400D01*
X177064500Y-63283000D02*
X169038100Y-63283000D01*
X179960100Y-76211600D02*
X179960100Y-77481600D01*
X177064500Y-63283000D02*
X177547100Y-63765600D01*
%TO.N,GPIOB5*%
X179452100Y-76338600D02*
X179452100Y-78243600D01*
X149835700Y-61047800D02*
X144806500Y-66077000D01*
D39*
X128156900Y-81363400D02*
X131906900Y-81363400D01*
D40*
X117906900Y-88613400D02*
X120906900Y-88613400D01*
D36*
X177039100Y-63892600D02*
X177039100Y-73925600D01*
X160300500Y-61047800D02*
X149835700Y-61047800D01*
X133330100Y-81363400D02*
X144806500Y-69887000D01*
X176835900Y-63689400D02*
X177039100Y-63892600D01*
X162942100Y-63689400D02*
X160300500Y-61047800D01*
X176835900Y-63689400D02*
X162942100Y-63689400D01*
X131906900Y-81363400D02*
X133330100Y-81363400D01*
X144806500Y-66077000D02*
X144806500Y-69887000D01*
X179452100Y-78243600D02*
X180849100Y-79640600D01*
X177039100Y-73925600D02*
X179452100Y-76338600D01*
D39*
X120906900Y-88613400D02*
X128156900Y-81363400D01*
D36*
%TO.N,GPIOB6*%
X155017300Y-67550200D02*
X148006900Y-67550200D01*
X176531100Y-66559600D02*
X176531100Y-74179600D01*
X131906900Y-82363400D02*
X133193700Y-82363400D01*
D45*
X160402100Y-66737400D02*
X161418100Y-66737400D01*
D36*
X178944100Y-76592600D02*
X178944100Y-79132600D01*
X133193700Y-82363400D02*
X148006900Y-67550200D01*
X175701700Y-65730200D02*
X176531100Y-66559600D01*
X178944100Y-79132600D02*
X180849100Y-81037600D01*
X162425300Y-65730200D02*
X161418100Y-66737400D01*
X176531100Y-74179600D02*
X178944100Y-76592600D01*
X155017300Y-67550200D02*
X155830100Y-66737400D01*
X162425300Y-65730200D02*
X175701700Y-65730200D01*
X155830100Y-66737400D02*
X160402100Y-66737400D01*
%TO.N,GPIOB7*%
X133006500Y-83363400D02*
X148210100Y-68159800D01*
X175574700Y-66238200D02*
X176023100Y-66686600D01*
X176023100Y-66686600D02*
X176023100Y-74306600D01*
X163441300Y-66238200D02*
X175574700Y-66238200D01*
D45*
X160402100Y-68147100D02*
X161519700Y-68147100D01*
D36*
X176023100Y-74306600D02*
X178563100Y-76821200D01*
D40*
X118406900Y-89113400D02*
X120906900Y-89113400D01*
D39*
X120906900Y-89113400D02*
X126656900Y-83363400D01*
D36*
X163441300Y-66238200D02*
X161519700Y-68147100D01*
X148210100Y-68159800D02*
X160402100Y-68147100D01*
X133006500Y-83363400D02*
X131906900Y-83363400D01*
D39*
X126656900Y-83363400D02*
X131906900Y-83363400D01*
D36*
X178563100Y-76821200D02*
X178563100Y-80021600D01*
X178563100Y-80021600D02*
X180849100Y-82434600D01*
D40*
X117906900Y-89613400D02*
X118406900Y-89113400D01*
D36*
%TO.N,GPIOB8*%
X147600500Y-69582200D02*
X160402100Y-69556800D01*
X162730100Y-68270200D02*
X161418100Y-69556800D01*
X132819300Y-84363400D02*
X147600500Y-69582200D01*
X175642100Y-74408200D02*
X178232900Y-76973600D01*
X175320700Y-68270200D02*
X175642100Y-68591600D01*
D45*
X160402100Y-69556800D02*
X161418100Y-69556800D01*
D36*
X162730100Y-68270200D02*
X175320700Y-68270200D01*
X178232900Y-76973600D02*
X178232900Y-81748800D01*
X178232900Y-81748800D02*
X180798300Y-84314200D01*
X132819300Y-84363400D02*
X131906900Y-84363400D01*
X175642100Y-68591600D02*
X175642100Y-74408200D01*
%TO.N,GPIOB9*%
X175286500Y-74535200D02*
X177877300Y-77100600D01*
X177877300Y-77100600D02*
X177877300Y-82637800D01*
X177877300Y-82637800D02*
X180849100Y-85635000D01*
X132733700Y-85363400D02*
X147092500Y-71004600D01*
X147092500Y-71004600D02*
X160402100Y-70966500D01*
X175286500Y-68820200D02*
X175286500Y-74535200D01*
X175142900Y-68676600D02*
X175286500Y-68820200D01*
X163644500Y-68676600D02*
X161316500Y-70966500D01*
X163644500Y-68676600D02*
X175142900Y-68676600D01*
X131906900Y-85363400D02*
X132733700Y-85363400D01*
D45*
X160402100Y-70966500D02*
X161316500Y-70966500D01*
D36*
%TO.N,GPIOB10*%
X147194100Y-73747800D02*
X134078500Y-86863400D01*
X174956300Y-74713000D02*
X177547100Y-77303800D01*
X162230900Y-72935000D02*
X161418100Y-73785900D01*
X177547100Y-83628400D02*
X180798300Y-86879600D01*
D45*
X160402100Y-73785900D02*
X161418100Y-73785900D01*
D36*
X164863700Y-70810200D02*
X174482500Y-70810200D01*
X162738900Y-72935000D02*
X162230900Y-72935000D01*
X174956300Y-71284000D02*
X174956300Y-74713000D01*
X147194100Y-73747800D02*
X160402100Y-73785900D01*
X177547100Y-77303800D02*
X177547100Y-83628400D01*
X131306900Y-86863400D02*
X134078500Y-86863400D01*
X164863700Y-70810200D02*
X162738900Y-72935000D01*
X174482500Y-70810200D02*
X174956300Y-71284000D01*
%TO.N,GPIOB11*%
X177191500Y-84517400D02*
X180798300Y-88124200D01*
X174549900Y-71487200D02*
X174549900Y-74840000D01*
X167892500Y-71318200D02*
X174380900Y-71318200D01*
D45*
X160300500Y-75195600D02*
X161621300Y-75195600D01*
D36*
X146381300Y-75170200D02*
X160300500Y-75195600D01*
X146381300Y-75170200D02*
X133688100Y-87863400D01*
X177191500Y-77481600D02*
X177191500Y-84517400D01*
X174380900Y-71318200D02*
X174549900Y-71487200D01*
X167028900Y-72181800D02*
X164609700Y-72181800D01*
X164609700Y-72181800D02*
X161621300Y-75195600D01*
X174549900Y-74840000D02*
X177191500Y-77481600D01*
X167892500Y-71318200D02*
X167028900Y-72181800D01*
X131306900Y-87863400D02*
X133688100Y-87863400D01*
%TO.N,GPIOB12*%
X131306900Y-88863400D02*
X133297700Y-88863400D01*
D45*
X160198900Y-76605300D02*
X161418100Y-76605300D01*
D40*
X117406900Y-91113400D02*
X120906900Y-91113400D01*
D39*
X120906900Y-91113400D02*
X123156900Y-88863400D01*
D36*
X145568500Y-76592600D02*
X133297700Y-88863400D01*
X161418100Y-76605300D02*
X168593600Y-76605300D01*
X145568500Y-76592600D02*
X160198900Y-76605300D01*
X176835900Y-77659400D02*
X176835900Y-86295400D01*
D40*
X116906900Y-91613400D02*
X117406900Y-91113400D01*
D36*
X175083300Y-75906800D02*
X176835900Y-77659400D01*
X176835900Y-86295400D02*
X180899900Y-90359400D01*
D39*
X123156900Y-88863400D02*
X131306900Y-88863400D01*
D36*
X169292100Y-75906800D02*
X175083300Y-75906800D01*
X168593600Y-76605300D02*
X169292100Y-75906800D01*
%TO.N,GPIOB13*%
X176480300Y-77837200D02*
X176480300Y-87260600D01*
X174981700Y-76338600D02*
X176480300Y-77837200D01*
X131306900Y-89863400D02*
X132907300Y-89863400D01*
X144755700Y-78015000D02*
X132907300Y-89863400D01*
X176480300Y-87260600D02*
X180849100Y-91629400D01*
X167996700Y-78015000D02*
X169673100Y-76338600D01*
X144755700Y-78015000D02*
X160198900Y-78015000D01*
D45*
X160198900Y-78015000D02*
X161418100Y-78015000D01*
D36*
X161418100Y-78015000D02*
X167996700Y-78015000D01*
X169673100Y-76338600D02*
X174981700Y-76338600D01*
%TO.N,GPIOB14*%
X176099300Y-78904000D02*
X176099300Y-88149600D01*
X169571500Y-78497600D02*
X175692900Y-78497600D01*
X175692900Y-78497600D02*
X176099300Y-78904000D01*
D40*
X118406900Y-92113400D02*
X120906900Y-92113400D01*
D36*
X147600500Y-79437400D02*
X135674500Y-91363400D01*
D45*
X160300500Y-79424700D02*
X161316500Y-79424700D01*
D36*
X168644400Y-79424700D02*
X169571500Y-78497600D01*
D40*
X117906900Y-92613400D02*
X118406900Y-92113400D01*
D36*
X147600500Y-79437400D02*
X160300500Y-79424700D01*
X161316500Y-79424700D02*
X168644400Y-79424700D01*
D39*
X120906900Y-92113400D02*
X121656900Y-91363400D01*
X121656900Y-91363400D02*
X131906900Y-91363400D01*
D36*
X176099300Y-88149600D02*
X180849100Y-92899400D01*
X131906900Y-91363400D02*
X135674500Y-91363400D01*
%TO.N,GPIOB15*%
X146787700Y-80859800D02*
X160300500Y-80834400D01*
X131906900Y-92363400D02*
X135284100Y-92363400D01*
X169850900Y-78878600D02*
X175311900Y-78878600D01*
X175591300Y-88911600D02*
X180849100Y-94169400D01*
X175591300Y-79158000D02*
X175591300Y-88911600D01*
X175311900Y-78878600D02*
X175591300Y-79158000D01*
D45*
X160300500Y-80834400D02*
X161418100Y-80834400D01*
D36*
X161418100Y-80834400D02*
X167895100Y-80834400D01*
X146787700Y-80859800D02*
X135284100Y-92363400D01*
X167895100Y-80834400D02*
X169850900Y-78878600D01*
%TO.N,GPIOB16*%
X155601500Y-126833800D02*
X156084100Y-127291000D01*
D40*
X117406900Y-93113400D02*
X120906900Y-93113400D01*
D36*
X131306900Y-93863400D02*
X155601500Y-93863400D01*
D39*
X121656900Y-93863400D02*
X131306900Y-93863400D01*
D36*
X155601500Y-93863400D02*
X155601500Y-126833800D01*
X156084100Y-127291000D02*
X161697500Y-127291000D01*
D40*
X116906900Y-93613400D02*
X117406900Y-93113400D01*
D39*
X120906900Y-93113400D02*
X121656900Y-93863400D01*
D36*
%TO.N,GPIOB17*%
X154763300Y-94863400D02*
X154763300Y-127900600D01*
X155169700Y-128307000D02*
X161697500Y-128307000D01*
X131306900Y-94863400D02*
X154763300Y-94863400D01*
X154763300Y-127900600D02*
X155169700Y-128307000D01*
%TO.N,GPIOB18*%
X131306900Y-95863400D02*
X154077500Y-95863400D01*
X154077500Y-128815000D02*
X155017300Y-129754800D01*
X154077500Y-95863400D02*
X154077500Y-128815000D01*
X155017300Y-129754800D02*
X161697500Y-129754800D01*
D40*
%TO.N,GPIOB19*%
X115906900Y-94613400D02*
X116406900Y-94113400D01*
D39*
X123656900Y-96863400D02*
X131306900Y-96863400D01*
D36*
X153264700Y-96863400D02*
X153264700Y-130135800D01*
D39*
X120906900Y-94113400D02*
X123656900Y-96863400D01*
D40*
X116406900Y-94113400D02*
X120906900Y-94113400D01*
D36*
X153264700Y-130135800D02*
X154052100Y-130923200D01*
X131306900Y-96863400D02*
X153264700Y-96863400D01*
X154052100Y-130923200D02*
X161697500Y-130923200D01*
%TO.N,GPIOB20*%
X131306900Y-97863400D02*
X152705900Y-97863400D01*
X153239300Y-134225200D02*
X161697500Y-134225200D01*
X152705900Y-97863400D02*
X152705900Y-133691800D01*
X152705900Y-133691800D02*
X153239300Y-134225200D01*
%TO.N,GPIOB21*%
X131906900Y-99363400D02*
X152096300Y-99363400D01*
D40*
X118906900Y-95613400D02*
X120906900Y-95613400D01*
D36*
X152096300Y-99363400D02*
X152096300Y-134606200D01*
D39*
X120906900Y-95613400D02*
X124656900Y-99363400D01*
D36*
X153061500Y-135571400D02*
X161697500Y-135571400D01*
D39*
X124656900Y-99363400D02*
X131906900Y-99363400D01*
D36*
X152096300Y-134606200D02*
X153061500Y-135571400D01*
%TO.N,GPIOB22*%
X128398100Y-100363400D02*
X151562900Y-100363400D01*
X152045500Y-136866800D02*
X161697500Y-136866800D01*
X151562900Y-100363400D02*
X151562900Y-136384200D01*
X151562900Y-136384200D02*
X152045500Y-136866800D01*
%TO.N,GPIOB23*%
X150902500Y-137044600D02*
X151766100Y-137908200D01*
X150902500Y-101363400D02*
X150902500Y-137044600D01*
X131906900Y-101363400D02*
X150902500Y-101363400D01*
X151766100Y-137908200D02*
X161697500Y-137908200D01*
%TO.N,GPIOB24*%
X138481900Y-112736800D02*
X150318300Y-124573200D01*
X150318300Y-124573200D02*
X150318300Y-140295800D01*
X131306900Y-102863400D02*
X134755300Y-102863400D01*
X134755300Y-102863400D02*
X138481900Y-106590000D01*
X138481900Y-106590000D02*
X138481900Y-112736800D01*
X150318300Y-140295800D02*
X151232700Y-141210200D01*
X151232700Y-141210200D02*
X161697500Y-141210200D01*
%TO.N,GPIOB25*%
X149810300Y-141616600D02*
X150724700Y-142531000D01*
X137948500Y-106851800D02*
X137948500Y-112914600D01*
X149810300Y-124751000D02*
X149810300Y-141616600D01*
X131306900Y-103863400D02*
X134960100Y-103863400D01*
X134960100Y-103863400D02*
X137948500Y-106851800D01*
X137948500Y-112914600D02*
X139320100Y-114286200D01*
X139320100Y-114286200D02*
X139345500Y-114286200D01*
X150724700Y-142531000D02*
X161697500Y-142531000D01*
X139345500Y-114286200D02*
X149810300Y-124751000D01*
D39*
X120906900Y-97613400D02*
X127156900Y-103863400D01*
X127156900Y-103863400D02*
X131306900Y-103863400D01*
D40*
X118906900Y-97613400D02*
X120906900Y-97613400D01*
D36*
%TO.N,GPIOB26*%
X137465900Y-107251600D02*
X137465900Y-113346400D01*
X137542100Y-113346400D02*
X149251500Y-125055800D01*
X131306900Y-104863400D02*
X135077700Y-104863400D01*
X149251500Y-125055800D02*
X149251500Y-143039000D01*
X135077700Y-104863400D02*
X137465900Y-107251600D01*
X150038900Y-143826400D02*
X161697500Y-143826400D01*
X137542100Y-113346400D02*
X137465900Y-113346400D01*
X149251500Y-143039000D02*
X150038900Y-143826400D01*
%TO.N,GPIOB27*%
X149530900Y-144944000D02*
X161697500Y-144944000D01*
X137008700Y-113702000D02*
X148565700Y-125259000D01*
X148565700Y-125259000D02*
X148565700Y-143978800D01*
X137008700Y-107981600D02*
X137008700Y-113702000D01*
X134890500Y-105863400D02*
X137008700Y-107981600D01*
X148565700Y-143978800D02*
X149530900Y-144944000D01*
X131306900Y-105863400D02*
X134890500Y-105863400D01*
%TO.N,GPIOB28*%
X129656900Y-115265600D02*
X129972900Y-115581600D01*
X148616500Y-148296800D02*
X161697500Y-148296800D01*
X147854500Y-125513000D02*
X147854500Y-147534800D01*
X129972900Y-115581600D02*
X137923100Y-115581600D01*
X137923100Y-115581600D02*
X147854500Y-125513000D01*
X129656900Y-113413400D02*
X129656900Y-115265600D01*
X147854500Y-147534800D02*
X148616500Y-148296800D01*
%TO.N,GPIOB29*%
X137669100Y-115937200D02*
X147244900Y-125513000D01*
X128753700Y-115937200D02*
X137669100Y-115937200D01*
X148006900Y-149490600D02*
X161697500Y-149490600D01*
X147244900Y-148728600D02*
X148006900Y-149490600D01*
X128156900Y-115340400D02*
X128753700Y-115937200D01*
X128156900Y-112813400D02*
X128156900Y-115340400D01*
X147244900Y-125513000D02*
X147244900Y-148728600D01*
D39*
%TO.N,GPIOB30*%
X117906900Y-101613400D02*
X127156900Y-110863400D01*
D36*
X146686100Y-149795400D02*
X147702100Y-150811400D01*
X127686900Y-116419800D02*
X137465900Y-116419800D01*
D39*
X127156900Y-110863400D02*
X127156900Y-112813400D01*
D36*
X146686100Y-125640000D02*
X146686100Y-149795400D01*
X127156900Y-115889800D02*
X127686900Y-116419800D01*
X127156900Y-112813400D02*
X127156900Y-115889800D01*
D40*
X117906900Y-99613400D02*
X117906900Y-101613400D01*
D36*
X147702100Y-150811400D02*
X161697500Y-150811400D01*
X137465900Y-116419800D02*
X146686100Y-125640000D01*
D40*
%TO.N,GPIOB31*%
X117406900Y-99113400D02*
X117406900Y-101613400D01*
D36*
X126010500Y-116978600D02*
X137389700Y-116978600D01*
D40*
X116906900Y-98613400D02*
X117406900Y-99113400D01*
D36*
X125656900Y-116625000D02*
X126010500Y-116978600D01*
X137389700Y-116978600D02*
X146127300Y-125716200D01*
X125656900Y-113413400D02*
X125656900Y-116625000D01*
D39*
X125656900Y-109863400D02*
X125656900Y-113413400D01*
D36*
X146127300Y-151573400D02*
X146635300Y-152081400D01*
X146635300Y-152081400D02*
X161697500Y-152081400D01*
D39*
X117406900Y-101613400D02*
X125656900Y-109863400D01*
D36*
X146127300Y-125716200D02*
X146127300Y-151573400D01*
%TO.N,GPIOB32*%
X145568500Y-154164200D02*
X146635300Y-155231000D01*
X125248500Y-117435800D02*
X124656900Y-116844200D01*
X145568500Y-125944800D02*
X145568500Y-154164200D01*
X124656900Y-113413400D02*
X124656900Y-116844200D01*
X146635300Y-155231000D02*
X161697500Y-155231000D01*
X137059500Y-117435800D02*
X145568500Y-125944800D01*
X125248500Y-117435800D02*
X137059500Y-117435800D01*
%TO.N,GPIOB33*%
X123656900Y-116961800D02*
X124537300Y-117842200D01*
X136830900Y-117842200D02*
X145060500Y-126071800D01*
D39*
X116406900Y-101613400D02*
X123656900Y-108863400D01*
D36*
X124537300Y-117842200D02*
X136830900Y-117842200D01*
X145060500Y-126071800D02*
X145060500Y-155383400D01*
X145060500Y-155383400D02*
X146228900Y-156551800D01*
D40*
X115906900Y-97613400D02*
X116406900Y-98113400D01*
D39*
X123656900Y-108863400D02*
X123656900Y-113413400D01*
D36*
X146228900Y-156551800D02*
X161722900Y-156551800D01*
D40*
X116406900Y-98113400D02*
X116406900Y-101613400D01*
D36*
X123656900Y-113413400D02*
X123656900Y-116961800D01*
%TO.N,GPIOB34*%
X122656900Y-117689000D02*
X123216500Y-118248600D01*
X144374700Y-126097200D02*
X144374700Y-157110600D01*
X122656900Y-113413400D02*
X122656900Y-117689000D01*
X123216500Y-118248600D02*
X136526100Y-118248600D01*
X144374700Y-157110600D02*
X145035100Y-157771000D01*
X145035100Y-157771000D02*
X161748300Y-157771000D01*
X136526100Y-118248600D02*
X144374700Y-126097200D01*
%TO.N,GPIOB35*%
X143638100Y-158380600D02*
X144349300Y-159091800D01*
X122403700Y-118655000D02*
X136246700Y-118655000D01*
D39*
X121656900Y-108363400D02*
X121656900Y-113413400D01*
D36*
X143638100Y-126046400D02*
X143638100Y-158380600D01*
X121656900Y-113413400D02*
X121656900Y-117908200D01*
D40*
X114906900Y-99613400D02*
X114906900Y-101613400D01*
D36*
X136246700Y-118655000D02*
X143638100Y-126046400D01*
X144349300Y-159091800D02*
X161824500Y-159091800D01*
D39*
X114906900Y-101613400D02*
X121656900Y-108363400D01*
D36*
X122403700Y-118655000D02*
X121656900Y-117908200D01*
D40*
%TO.N,A1*%
X102906900Y-93613400D02*
X102406900Y-94113400D01*
D39*
X94906900Y-98113400D02*
X92106900Y-98113400D01*
X98906900Y-94113400D02*
X94906900Y-98113400D01*
D40*
X102406900Y-94113400D02*
X98906900Y-94113400D01*
%TO.N,A2*%
X104906900Y-94613400D02*
X104406900Y-95113400D01*
D39*
X94406900Y-99613400D02*
X92706900Y-99613400D01*
X98906900Y-95113400D02*
X94406900Y-99613400D01*
D40*
X104406900Y-95113400D02*
X98906900Y-95113400D01*
D39*
%TO.N,A3*%
X98906900Y-95613400D02*
X93406900Y-101113400D01*
D40*
X103906900Y-95613400D02*
X98906900Y-95613400D01*
D39*
X93406900Y-101113400D02*
X92106900Y-101113400D01*
%TO.N,A4*%
X103656900Y-105863400D02*
X103656900Y-113413400D01*
D40*
X107906900Y-99613400D02*
X107906900Y-101613400D01*
D39*
X107906900Y-101613400D02*
X103656900Y-105863400D01*
D40*
%TO.N,A8*%
X106906900Y-98613400D02*
X107406900Y-99113400D01*
X107406900Y-99113400D02*
X107406900Y-101613400D01*
D39*
X107406900Y-101613400D02*
X101156900Y-107863400D01*
X101156900Y-107863400D02*
X101156900Y-112813400D01*
D40*
%TO.N,A9*%
X106906900Y-99613400D02*
X106906900Y-101613400D01*
D39*
X100656900Y-107863400D02*
X100656900Y-113413400D01*
X106906900Y-101613400D02*
X100656900Y-107863400D01*
%TO.N,BA1*%
X96906900Y-95113400D02*
X92106900Y-95113400D01*
D40*
X103406900Y-93113400D02*
X98906900Y-93113400D01*
D39*
X98906900Y-93113400D02*
X96906900Y-95113400D01*
D40*
X103906900Y-92613400D02*
X103406900Y-93113400D01*
%TO.N,SDRAM_UDQM*%
X106406900Y-97113400D02*
X106406900Y-101613400D01*
D39*
X98156900Y-109863400D02*
X98156900Y-112813400D01*
X106406900Y-101613400D02*
X98156900Y-109863400D01*
D40*
X105906900Y-96613400D02*
X106406900Y-97113400D01*
D39*
%TO.N,SDRAM_LDQM*%
X97906900Y-90113400D02*
X92106900Y-90113400D01*
X98906900Y-91113400D02*
X97906900Y-90113400D01*
D40*
X103406900Y-91113400D02*
X98906900Y-91113400D01*
X103906900Y-90613400D02*
X103406900Y-91113400D01*
%TO.N,RAS_N*%
X103906900Y-91613400D02*
X103406900Y-92113400D01*
X103406900Y-92113400D02*
X98906900Y-92113400D01*
D39*
X98906900Y-92113400D02*
X97906900Y-93113400D01*
X97906900Y-93113400D02*
X92106900Y-93113400D01*
D40*
%TO.N,DQ0*%
X104406900Y-89113400D02*
X98906900Y-89113400D01*
X104906900Y-88613400D02*
X104406900Y-89113400D01*
D39*
X98906900Y-89113400D02*
X95406900Y-85613400D01*
X95406900Y-85613400D02*
X93519700Y-85613400D01*
%TO.N,DQ2*%
X98906900Y-88113400D02*
X94406900Y-83613400D01*
D40*
X104906900Y-87613400D02*
X104406900Y-88113400D01*
D39*
X94406900Y-83613400D02*
X92706900Y-83613400D01*
D40*
X104406900Y-88113400D02*
X98906900Y-88113400D01*
D39*
%TO.N,DQ5*%
X96906900Y-88113400D02*
X92106900Y-88113400D01*
D40*
X104406900Y-90113400D02*
X98906900Y-90113400D01*
X104906900Y-89613400D02*
X104406900Y-90113400D01*
D39*
X98906900Y-90113400D02*
X96906900Y-88113400D01*
%TO.N,DQ8*%
X105906900Y-101613400D02*
X97656900Y-109863400D01*
X97656900Y-109863400D02*
X97656900Y-113413400D01*
D40*
X105906900Y-98613400D02*
X105906900Y-101613400D01*
%TO.N,DQ12*%
X105406900Y-97113400D02*
X105406900Y-101613400D01*
D39*
X95656900Y-111363400D02*
X95656900Y-113413400D01*
X105406900Y-101613400D02*
X95656900Y-111363400D01*
D40*
X104906900Y-96613400D02*
X105406900Y-97113400D01*
%TO.N,DQ14*%
X104406900Y-98113400D02*
X104406900Y-101613400D01*
X103906900Y-97613400D02*
X104406900Y-98113400D01*
D39*
X104406900Y-101613400D02*
X94156900Y-111863400D01*
X94156900Y-111863400D02*
X94156900Y-112813400D01*
D36*
%TO.N,VSYNC*%
X110656900Y-68832200D02*
X111329300Y-68159800D01*
X110656900Y-69313400D02*
X110656900Y-68832200D01*
X112700900Y-63740200D02*
X111329300Y-65010200D01*
X111329300Y-65010200D02*
X111329300Y-68159800D01*
X117069700Y-63232200D02*
X117069700Y-62724200D01*
X116561700Y-63740200D02*
X117069700Y-63232200D01*
X112700900Y-63740200D02*
X116561700Y-63740200D01*
D39*
%TO.N,HSYNC*%
X110156900Y-79363400D02*
X110156900Y-69913400D01*
X109906900Y-79613400D02*
X110156900Y-79363400D01*
D40*
X109906900Y-81613400D02*
X109906900Y-79613400D01*
%TO.N,SDA*%
X103906900Y-86613400D02*
X98906900Y-86613400D01*
D39*
X98906900Y-86613400D02*
X93406900Y-81113400D01*
X93406900Y-81113400D02*
X92106900Y-81113400D01*
D36*
X92106900Y-81113400D02*
X92106500Y-81113800D01*
D40*
%TO.N,SCL*%
X103906900Y-85613400D02*
X103406900Y-86113400D01*
D39*
X98906900Y-86113400D02*
X93406900Y-80613400D01*
D40*
X103406900Y-86113400D02*
X98906900Y-86113400D01*
D36*
X92706900Y-80613400D02*
X92699300Y-80605800D01*
D39*
X93406900Y-80613400D02*
X92706900Y-80613400D01*
D41*
%TO.N,5V0FAST*%
X74626300Y-54062800D02*
X74626300Y-57745800D01*
X70663900Y-51700600D02*
X72340300Y-53377000D01*
X72340300Y-53377000D02*
X73940500Y-53377000D01*
X69774900Y-48017600D02*
X70663900Y-48957400D01*
X70663900Y-48957400D02*
X70663900Y-51700600D01*
X73940500Y-53377000D02*
X74626300Y-54062800D01*
%TO.N,5V0SLOW*%
X75312100Y-50811600D02*
X74931100Y-51192600D01*
X75312100Y-45858600D02*
X75312100Y-50811600D01*
D37*
%TO.N,N$143*%
X133478100Y-38822800D02*
X134189300Y-38111600D01*
X114910700Y-40296000D02*
X116383900Y-38822800D01*
X116383900Y-38822800D02*
X133478100Y-38822800D01*
%TO.N,N$141*%
X96165500Y-155586600D02*
X94895500Y-154316600D01*
X96165500Y-160869800D02*
X96165500Y-155586600D01*
D42*
%TO.N,MIC_AC97*%
X99315100Y-148728600D02*
X98553100Y-147966600D01*
X99315100Y-162139800D02*
X104344300Y-167169000D01*
X94895500Y-148449200D02*
X94895500Y-149236600D01*
X98553100Y-147966600D02*
X95378100Y-147966600D01*
X95378100Y-147966600D02*
X94895500Y-148449200D01*
X99315100Y-162139800D02*
X99315100Y-148728600D01*
D35*
%TO.N,N$15*%
X72899100Y-157999600D02*
X72899100Y-161403200D01*
X79122100Y-183272600D02*
X79122100Y-177646500D01*
X66345900Y-164400400D02*
X66218900Y-164527400D01*
X66218900Y-171842600D02*
X71146500Y-176770200D01*
X78868100Y-177392500D02*
X78906200Y-177430600D01*
X72899100Y-161403200D02*
X71197300Y-163105000D01*
X78245800Y-176770200D02*
X78906200Y-177430600D01*
X66218900Y-164527400D02*
X66218900Y-171842600D01*
X71146500Y-176770200D02*
X78245800Y-176770200D01*
X71197300Y-163105000D02*
X67590500Y-163105000D01*
X96076600Y-177430600D02*
X96076600Y-183336100D01*
X79122100Y-177646500D02*
X78906200Y-177430600D01*
X80519100Y-184669600D02*
X79122100Y-183272600D01*
X94743100Y-184669600D02*
X80519100Y-184669600D01*
X96076600Y-183336100D02*
X94743100Y-184669600D01*
X66345900Y-164349600D02*
X66345900Y-164400400D01*
X67590500Y-163105000D02*
X66345900Y-164349600D01*
D36*
%TO.N,MOTOR_RAW*%
X106156900Y-112813400D02*
X106156900Y-119433200D01*
D40*
X108906900Y-99613400D02*
X108906900Y-101613400D01*
D39*
X106156900Y-104363400D02*
X106156900Y-112813400D01*
X108906900Y-101613400D02*
X106156900Y-104363400D01*
D36*
%TO.N,COMMAND*%
X107341500Y-113397200D02*
X107341500Y-119645600D01*
X107341500Y-119645600D02*
X105030100Y-121957000D01*
X95124100Y-127011600D02*
X95124100Y-129907200D01*
X100178700Y-121957000D02*
X95124100Y-127011600D01*
X95124100Y-129907200D02*
X99746900Y-134377600D01*
X105030100Y-121957000D02*
X100178700Y-121957000D01*
%TO.N,SIO_OUT*%
X100280300Y-122388800D02*
X95759100Y-126910000D01*
X95759100Y-129373800D02*
X99721500Y-133209200D01*
X105284100Y-122388800D02*
X100280300Y-122388800D01*
X107976500Y-119696400D02*
X105284100Y-122388800D01*
X95759100Y-126910000D02*
X95759100Y-129373800D01*
X107976500Y-113422600D02*
X107976500Y-119696400D01*
D39*
%TO.N,SIO_IN*%
X110406900Y-101613400D02*
X109156900Y-102863400D01*
D40*
X110406900Y-97113400D02*
X110406900Y-101613400D01*
D36*
X105741300Y-123176200D02*
X100610500Y-123176200D01*
X109055300Y-119862200D02*
X105741300Y-123176200D01*
X100610500Y-123176200D02*
X97232300Y-126554400D01*
X97232300Y-126554400D02*
X99162700Y-127875200D01*
X109156900Y-102863400D02*
X109156900Y-112737200D01*
X99162700Y-127875200D02*
X99746900Y-128281600D01*
X109156900Y-112737200D02*
X109055300Y-112838800D01*
D40*
X109906900Y-96613400D02*
X110406900Y-97113400D01*
D36*
X109055300Y-112838800D02*
X109055300Y-119862200D01*
D40*
%TO.N,PROCEED*%
X108906900Y-96613400D02*
X109406900Y-97113400D01*
D36*
X104776100Y-121576000D02*
X100077100Y-121576000D01*
D39*
X109406900Y-101613400D02*
X106656900Y-104363400D01*
D36*
X94692300Y-130643800D02*
X99746900Y-135647600D01*
X100077100Y-121576000D02*
X94692300Y-126960800D01*
X106656900Y-113413400D02*
X106656900Y-119695200D01*
D40*
X109406900Y-97113400D02*
X109406900Y-101613400D01*
D36*
X106656900Y-119695200D02*
X104776100Y-121576000D01*
D39*
X106656900Y-104363400D02*
X106656900Y-113413400D01*
D36*
X94692300Y-126960800D02*
X94692300Y-130643800D01*
%TO.N,SIO_IRQ*%
X96673500Y-126757600D02*
X99746900Y-129526200D01*
X105512700Y-122769800D02*
X100381900Y-122769800D01*
X108459100Y-119823400D02*
X105512700Y-122769800D01*
X108459100Y-112889200D02*
X108459100Y-119823400D01*
X96673500Y-126478200D02*
X96673500Y-126757600D01*
X100381900Y-122769800D02*
X96673500Y-126478200D01*
%TO.N,SIO_CLOCKIN*%
X104420500Y-136282600D02*
X103810900Y-136892200D01*
X110008500Y-112863800D02*
X110008500Y-120153600D01*
X103810900Y-136892200D02*
X99721500Y-136892200D01*
X104420500Y-125741600D02*
X104420500Y-136282600D01*
X110008500Y-120153600D02*
X104420500Y-125741600D01*
%TO.N,SIO_CLOCKOUT*%
X105944500Y-123608000D02*
X100712100Y-123608000D01*
X100712100Y-123608000D02*
X98324500Y-125995600D01*
X109525900Y-113397200D02*
X109525900Y-120026600D01*
X109525900Y-120026600D02*
X105944500Y-123608000D01*
X98324500Y-125995600D02*
X98324500Y-126300400D01*
X98324500Y-126300400D02*
X99696100Y-126960800D01*
D37*
%TO.N,N$21*%
X114910700Y-131050200D02*
X117806300Y-131050200D01*
X117806300Y-131050200D02*
X118492100Y-130110400D01*
%TO.N,N$100*%
X114631300Y-133006000D02*
X117984100Y-133006000D01*
X117984100Y-133006000D02*
X118288900Y-132701200D01*
%TO.N,N$101*%
X118365100Y-135038000D02*
X118390500Y-135063400D01*
X114682100Y-135038000D02*
X118365100Y-135038000D01*
%TO.N,N$102*%
X106604900Y-134276000D02*
X119127100Y-134276000D01*
X119127100Y-134276000D02*
X120854300Y-136003200D01*
%TO.N,N$103*%
X120727300Y-133590200D02*
X120854300Y-133463200D01*
X106604900Y-133590200D02*
X120727300Y-133590200D01*
%TO.N,N$104*%
X106528700Y-131659800D02*
X119050900Y-131659800D01*
X119762100Y-130948600D02*
X120828900Y-130948600D01*
X119050900Y-131659800D02*
X119762100Y-130948600D01*
X120828900Y-130948600D02*
X120854300Y-130923200D01*
%TO.N,N$106*%
X120778100Y-128459400D02*
X120854300Y-128383200D01*
X106528700Y-130974000D02*
X114224900Y-130974000D01*
X116739500Y-128459400D02*
X120778100Y-128459400D01*
X114224900Y-130974000D02*
X116739500Y-128459400D01*
%TO.N,N$107*%
X105360300Y-138390800D02*
X105360300Y-129907200D01*
X105360300Y-129907200D02*
X106528700Y-129018200D01*
D41*
%TO.N,N$109*%
X114580500Y-143013600D02*
X119177900Y-143013600D01*
D37*
%TO.N,.A13*%
X207519100Y-168286600D02*
X208865300Y-166940400D01*
X200965900Y-164197200D02*
X205055300Y-168286600D01*
X205055300Y-168286600D02*
X207519100Y-168286600D01*
X177674100Y-161631800D02*
X177674100Y-163257400D01*
X178613900Y-164197200D02*
X200965900Y-164197200D01*
X177674100Y-163257400D02*
X178613900Y-164197200D01*
%TO.N,.A14*%
X175718300Y-171817200D02*
X201448500Y-171817200D01*
X201448500Y-171817200D02*
X203886900Y-169378800D01*
X203886900Y-169378800D02*
X206223700Y-169378800D01*
X175210300Y-171207600D02*
X175210300Y-171309200D01*
X206223700Y-169378800D02*
X206325300Y-169480400D01*
X175210300Y-171309200D02*
X175718300Y-171817200D01*
%TO.N,.A15*%
X175184900Y-173138000D02*
X201600900Y-173138000D01*
X207392100Y-170674200D02*
X208865300Y-169480400D01*
X203785300Y-170674200D02*
X207392100Y-170674200D01*
X201600900Y-173138000D02*
X203785300Y-170674200D01*
%TO.N,.D0*%
X203709100Y-138924200D02*
X206325300Y-141540400D01*
X175337300Y-138924200D02*
X203709100Y-138924200D01*
%TO.N,.D1*%
X175311900Y-141540400D02*
X201956500Y-141540400D01*
X204521900Y-144105800D02*
X206299900Y-144105800D01*
X201956500Y-141540400D02*
X204521900Y-144105800D01*
X206299900Y-144105800D02*
X206325300Y-144080400D01*
%TO.N,.D2*%
X204064700Y-146595000D02*
X206299900Y-146595000D01*
X175337300Y-144131200D02*
X201600900Y-144131200D01*
X206299900Y-146595000D02*
X206325300Y-146620400D01*
X201600900Y-144131200D02*
X204064700Y-146595000D01*
%TO.N,.D3*%
X178512300Y-131837600D02*
X198730700Y-131837600D01*
X204775900Y-137755800D02*
X207290500Y-137755800D01*
X198730700Y-131837600D02*
X204775900Y-137755800D01*
X177369300Y-129170600D02*
X177343900Y-130669200D01*
X207290500Y-137755800D02*
X208865300Y-136460400D01*
X177343900Y-130669200D02*
X178512300Y-131837600D01*
%TO.N,.D4*%
X206172900Y-151548000D02*
X206325300Y-151700400D01*
X178969500Y-146493400D02*
X199314900Y-146493400D01*
X178359900Y-145883800D02*
X178969500Y-146493400D01*
X178359900Y-144740800D02*
X178359900Y-145883800D01*
X199314900Y-146493400D02*
X204369500Y-151548000D01*
X204369500Y-151548000D02*
X206172900Y-151548000D01*
%TO.N,.D5*%
X179807700Y-144766200D02*
X179807700Y-144969400D01*
X179807700Y-144969400D02*
X180264900Y-145426600D01*
X180264900Y-145426600D02*
X200534100Y-145426600D01*
X200534100Y-145426600D02*
X204242500Y-149135000D01*
X204242500Y-149135000D02*
X206299900Y-149135000D01*
X206299900Y-149135000D02*
X206325300Y-149160400D01*
%TO.N,.D6*%
X206299900Y-136485800D02*
X206325300Y-136460400D01*
X178131300Y-130161200D02*
X178918700Y-131126400D01*
X178918700Y-131126400D02*
X199137100Y-131126400D01*
X199137100Y-131126400D02*
X204496500Y-136485800D01*
X204496500Y-136485800D02*
X206299900Y-136485800D01*
X178105900Y-129170600D02*
X178131300Y-130161200D01*
%TO.N,.D7*%
X178817100Y-129145200D02*
X179934700Y-130389800D01*
X179934700Y-130389800D02*
X199822900Y-130389800D01*
X199822900Y-130389800D02*
X204674300Y-135241200D01*
X207544500Y-135241200D02*
X208865300Y-133920400D01*
X204674300Y-135241200D02*
X207544500Y-135241200D01*
%TO.N,.RW_N*%
X207569900Y-130135800D02*
X208865300Y-128840400D01*
X205207700Y-130135800D02*
X207569900Y-130135800D01*
X202896300Y-128027600D02*
X205207700Y-130135800D01*
X175337300Y-128027600D02*
X202896300Y-128027600D01*
%TO.N,.REF_N*%
X175210300Y-175728800D02*
X202286700Y-175728800D01*
X202286700Y-175728800D02*
X204725100Y-173290400D01*
X207595300Y-173290400D02*
X208865300Y-172020400D01*
X204725100Y-173290400D02*
X207595300Y-173290400D01*
%TO.N,.PHI2*%
X202718500Y-125386000D02*
X204902900Y-127570400D01*
X207595300Y-127570400D02*
X208865300Y-126300400D01*
X204902900Y-127570400D02*
X207595300Y-127570400D01*
X175337300Y-125386000D02*
X202718500Y-125386000D01*
%TO.N,.MPD_N*%
X206249100Y-172096600D02*
X206325300Y-172020400D01*
X204318700Y-172096600D02*
X206249100Y-172096600D01*
X175210300Y-173798400D02*
X202616900Y-173798400D01*
X202616900Y-173798400D02*
X204318700Y-172096600D01*
%TO.N,.EXTSEL_N*%
X178512300Y-163028800D02*
X179172700Y-163689200D01*
X201702500Y-163689200D02*
X205004500Y-166991200D01*
X206274500Y-166991200D02*
X206325300Y-166940400D01*
X178512300Y-161581000D02*
X178512300Y-163028800D01*
X205004500Y-166991200D02*
X206274500Y-166991200D01*
X179172700Y-163689200D02*
X201702500Y-163689200D01*
%TO.N,.RST_N*%
X185446500Y-177278200D02*
X206147500Y-177278200D01*
X206147500Y-177278200D02*
X208865300Y-174560400D01*
%TO.N,.IRQ_N*%
X203480500Y-176389200D02*
X205233100Y-174636600D01*
X175184900Y-176389200D02*
X203480500Y-176389200D01*
X205233100Y-174636600D02*
X206249100Y-174636600D01*
X206249100Y-174636600D02*
X206325300Y-174560400D01*
%TO.N,.CCTL_N*%
X175388100Y-123455600D02*
X203480500Y-123455600D01*
X203480500Y-123455600D02*
X206325300Y-126300400D01*
%TO.N,.S4_N*%
X207569900Y-165695800D02*
X208865300Y-164400400D01*
X205309300Y-165695800D02*
X207569900Y-165695800D01*
X180671300Y-163232000D02*
X202845500Y-163232000D01*
X179325100Y-161885800D02*
X180671300Y-163232000D01*
X179325100Y-161606400D02*
X179325100Y-161885800D01*
X202845500Y-163232000D02*
X205309300Y-165695800D01*
%TO.N,.S5_N*%
X179655300Y-129399200D02*
X179934700Y-129678600D01*
X179655300Y-129119800D02*
X179655300Y-129399200D01*
X179934700Y-129678600D02*
X200178500Y-129678600D01*
X204420300Y-133920400D02*
X206325300Y-133920400D01*
X200178500Y-129678600D02*
X204420300Y-133920400D01*
%TO.N,.RD4*%
X180112500Y-161606400D02*
X180137900Y-162038200D01*
X180137900Y-162038200D02*
X180747500Y-162647800D01*
X204572700Y-162647800D02*
X206325300Y-164400400D01*
X180747500Y-162647800D02*
X204572700Y-162647800D01*
%TO.N,.RD5*%
X175362700Y-126046400D02*
X202032700Y-126046400D01*
X204852100Y-128865800D02*
X206299900Y-128865800D01*
X202032700Y-126046400D02*
X204852100Y-128865800D01*
X206299900Y-128865800D02*
X206325300Y-128840400D01*
%TO.N,.A10*%
X201448500Y-128637200D02*
X204090100Y-131278800D01*
X175337300Y-128637200D02*
X201448500Y-128637200D01*
X204090100Y-131278800D02*
X206223700Y-131278800D01*
X206223700Y-131278800D02*
X206325300Y-131380400D01*
%TO.N,.A11*%
X180595100Y-129145200D02*
X200813500Y-129145200D01*
X207620700Y-132675800D02*
X208865300Y-131380400D01*
X204344100Y-132675800D02*
X207620700Y-132675800D01*
X200813500Y-129145200D02*
X204344100Y-132675800D01*
%TO.N,.A12*%
X205410900Y-142810400D02*
X207468300Y-142810400D01*
X203404300Y-140880000D02*
X205410900Y-142810400D01*
X207468300Y-142810400D02*
X208865300Y-141540400D01*
X175337300Y-140880000D02*
X203404300Y-140880000D01*
%TO.N,.A9*%
X175337300Y-143496200D02*
X202642300Y-143496200D01*
X207544500Y-145350400D02*
X208865300Y-144080400D01*
X202642300Y-143496200D02*
X204699700Y-145350400D01*
X204699700Y-145350400D02*
X207544500Y-145350400D01*
%TO.N,.A8*%
X204242500Y-147890400D02*
X207341300Y-147890400D01*
X200762700Y-144766200D02*
X204242500Y-147890400D01*
X180595100Y-144766200D02*
X200762700Y-144766200D01*
X207341300Y-147890400D02*
X208865300Y-146620400D01*
%TO.N,.A7*%
X179096500Y-144740800D02*
X179121900Y-145096400D01*
X204598100Y-150455800D02*
X207468300Y-150455800D01*
X179121900Y-145096400D02*
X180163300Y-145985400D01*
X207468300Y-150455800D02*
X208865300Y-149160400D01*
X180163300Y-145985400D02*
X200026100Y-145985400D01*
X200026100Y-145985400D02*
X204598100Y-150455800D01*
%TO.N,.A6*%
X207366700Y-152995800D02*
X208865300Y-151700400D01*
X178690100Y-147179200D02*
X198908500Y-147179200D01*
X204775900Y-152995800D02*
X207366700Y-152995800D01*
X177572500Y-144766200D02*
X177572500Y-146061600D01*
X177572500Y-146061600D02*
X178690100Y-147179200D01*
X198908500Y-147179200D02*
X204775900Y-152995800D01*
%TO.N,.A0*%
X206274500Y-154291200D02*
X206325300Y-154240400D01*
X175286500Y-155764400D02*
X203429700Y-155764400D01*
X203429700Y-155764400D02*
X204902900Y-154291200D01*
X204902900Y-154291200D02*
X206274500Y-154291200D01*
%TO.N,.A5*%
X205639500Y-155510400D02*
X207595300Y-155510400D01*
X175388100Y-157694800D02*
X203455100Y-157694800D01*
X207595300Y-155510400D02*
X208865300Y-154240400D01*
X203455100Y-157694800D02*
X205639500Y-155510400D01*
%TO.N,.A1*%
X175388100Y-158355200D02*
X203937700Y-158355200D01*
X203937700Y-158355200D02*
X205258500Y-157034400D01*
X206071300Y-157034400D02*
X206325300Y-156780400D01*
X205258500Y-157034400D02*
X206071300Y-157034400D01*
%TO.N,.A4*%
X207493700Y-158152000D02*
X208865300Y-156780400D01*
X205156900Y-158152000D02*
X207493700Y-158152000D01*
X175337300Y-160311000D02*
X202997900Y-160311000D01*
X202997900Y-160311000D02*
X205156900Y-158152000D01*
%TO.N,.A2*%
X205334700Y-159396600D02*
X206249100Y-159396600D01*
X206249100Y-159396600D02*
X206325300Y-159320400D01*
X203759900Y-160971400D02*
X205334700Y-159396600D01*
X175337300Y-160971400D02*
X203759900Y-160971400D01*
%TO.N,.A3*%
X204217100Y-162114400D02*
X205690300Y-160641200D01*
X180823700Y-161581000D02*
X180823700Y-161962000D01*
X205690300Y-160641200D02*
X207544500Y-160641200D01*
X180823700Y-161962000D02*
X180976100Y-162114400D01*
X207544500Y-160641200D02*
X208865300Y-159320400D01*
X180976100Y-162114400D02*
X204217100Y-162114400D01*
%TO.N,PORTA0*%
X185979900Y-56856800D02*
X185979900Y-60362000D01*
X189866100Y-52970600D02*
X185979900Y-56856800D01*
X186513300Y-60895400D02*
X187173700Y-60895400D01*
X185979900Y-60362000D02*
X186513300Y-60895400D01*
%TO.N,PORTA1*%
X185421100Y-56069400D02*
X185421100Y-62216200D01*
X185421100Y-62216200D02*
X185954500Y-62749600D01*
X188545300Y-52945200D02*
X185421100Y-56069400D01*
X185954500Y-62749600D02*
X187173700Y-62749600D01*
%TO.N,PORTA2*%
X185802100Y-63384600D02*
X187173700Y-63384600D01*
X184938500Y-62521000D02*
X185802100Y-63384600D01*
X184938500Y-55332800D02*
X184938500Y-62521000D01*
X187300700Y-52970600D02*
X184938500Y-55332800D01*
%TO.N,PORTA3*%
X186056100Y-53554800D02*
X184430500Y-55180400D01*
X184430500Y-55180400D02*
X184430500Y-63486200D01*
X187122900Y-65315000D02*
X187173700Y-65264200D01*
X186259300Y-65315000D02*
X187122900Y-65315000D01*
X186056100Y-52945200D02*
X186056100Y-53554800D01*
X184430500Y-63486200D02*
X186259300Y-65315000D01*
%TO.N,PORTA4*%
X195987500Y-65975400D02*
X196724100Y-65238800D01*
X187224500Y-65975400D02*
X195987500Y-65975400D01*
%TO.N,PORTA5*%
X197155900Y-52818200D02*
X199391100Y-52818200D01*
X199873700Y-52335600D02*
X199873700Y-50964000D01*
X199391100Y-52818200D02*
X199873700Y-52335600D01*
X199873700Y-50964000D02*
X200965900Y-50075000D01*
%TO.N,PORTA6*%
X196495500Y-53427800D02*
X199416500Y-53427800D01*
X200407100Y-51675200D02*
X200661100Y-51421200D01*
X200407100Y-52437200D02*
X200407100Y-51675200D01*
X196038300Y-52970600D02*
X196495500Y-53427800D01*
X200661100Y-51421200D02*
X200965900Y-51421200D01*
X199416500Y-53427800D02*
X200407100Y-52437200D01*
X196038300Y-52818200D02*
X196038300Y-52970600D01*
%TO.N,PORTA7*%
X199772100Y-53986600D02*
X200940500Y-52818200D01*
D38*
X194971500Y-61505000D02*
X194971500Y-53631000D01*
D37*
X194615900Y-52970600D02*
X194590500Y-52767400D01*
X194615900Y-53275400D02*
X194755600Y-53415100D01*
X200940500Y-52818200D02*
X200940500Y-52665800D01*
D38*
X194971500Y-53631000D02*
X194755600Y-53415100D01*
D37*
X195327100Y-53986600D02*
X199772100Y-53986600D01*
X194755600Y-53415100D02*
X195327100Y-53986600D01*
X194615900Y-53275400D02*
X194615900Y-52970600D01*
%TO.N,POT0*%
X189840700Y-77786400D02*
X196012900Y-77786400D01*
X196012900Y-77786400D02*
X199314900Y-74484400D01*
X215774100Y-59955600D02*
X211202100Y-59955600D01*
%TO.N,POT1*%
X215774100Y-63765600D02*
X212472100Y-63765600D01*
X200330900Y-73900200D02*
X200330900Y-77684800D01*
X200330900Y-77684800D02*
X200762700Y-78116600D01*
%TO.N,POT2*%
X199289500Y-79488200D02*
X208128700Y-79488200D01*
%TO.N,POT3*%
X202007300Y-75779800D02*
X208179500Y-75779800D01*
X215901100Y-67575600D02*
X213742100Y-67575600D01*
%TO.N,TRIG1*%
X192761700Y-62724200D02*
X197384500Y-62724200D01*
X197384500Y-62724200D02*
X197689300Y-62419400D01*
D38*
%TO.N,POTIN0*%
X196622500Y-36740000D02*
X195073100Y-35190600D01*
X211862500Y-46747600D02*
X211862500Y-37578200D01*
X195073100Y-35190600D02*
X195073100Y-28408800D01*
X211862500Y-37578200D02*
X211024300Y-36740000D01*
X185649700Y-27748400D02*
X182398500Y-30999600D01*
X211024300Y-36740000D02*
X196622500Y-36740000D01*
X194412700Y-27748400D02*
X185649700Y-27748400D01*
X195073100Y-28408800D02*
X194412700Y-27748400D01*
%TO.N,POTIN1*%
X193879300Y-35266800D02*
X193879300Y-29221600D01*
X193523700Y-28866000D02*
X185624300Y-28866000D01*
X196241500Y-37629000D02*
X193879300Y-35266800D01*
X210592500Y-37959200D02*
X210262300Y-37629000D01*
X210262300Y-37629000D02*
X196241500Y-37629000D01*
X185624300Y-28866000D02*
X185040100Y-29450200D01*
X210592500Y-46747600D02*
X210592500Y-37959200D01*
X193879300Y-29221600D02*
X193523700Y-28866000D01*
%TO.N,POTIN2*%
X213665900Y-31025000D02*
X213691300Y-30999600D01*
X214427900Y-35495400D02*
X213665900Y-34733400D01*
X214427900Y-46747600D02*
X214427900Y-35495400D01*
X213665900Y-34733400D02*
X213665900Y-31025000D01*
%TO.N,POTIN3*%
X212243500Y-35190600D02*
X212243500Y-33615800D01*
X213132500Y-36079600D02*
X212243500Y-35190600D01*
X212243500Y-33615800D02*
X212319700Y-33539600D01*
X213132500Y-46747600D02*
X213132500Y-36079600D01*
D42*
%TO.N,N$73*%
X192152100Y-79259600D02*
X192152100Y-81367800D01*
X192152100Y-81367800D02*
X192507700Y-81723400D01*
%TO.N,N$71*%
X205563300Y-89419600D02*
X207493700Y-89419600D01*
X207493700Y-89419600D02*
X207849300Y-89775200D01*
D38*
%TO.N,N$78*%
X218872900Y-107885400D02*
X217272700Y-106285200D01*
X217272700Y-106285200D02*
X217272700Y-91324600D01*
%TO.N,N$79*%
X216129700Y-92543800D02*
X216383700Y-92289800D01*
X216129700Y-107885400D02*
X216129700Y-92543800D01*
%TO.N,N$83*%
X214504100Y-110984200D02*
X214758100Y-110730200D01*
X214504100Y-112406600D02*
X214504100Y-110984200D01*
X207519100Y-111390600D02*
X209424100Y-113295600D01*
X209424100Y-113295600D02*
X213615100Y-113295600D01*
X213615100Y-113295600D02*
X214504100Y-112406600D01*
X207519100Y-96531600D02*
X207519100Y-111390600D01*
D37*
%TO.N,N$84*%
X97410100Y-179335600D02*
X97918100Y-179843600D01*
X97410100Y-171461600D02*
X80265100Y-154316600D01*
X97918100Y-179843600D02*
X100331100Y-179843600D01*
X100572400Y-179602300D02*
X100572400Y-177430600D01*
X100331100Y-179843600D02*
X100572400Y-179602300D01*
X97410100Y-171461600D02*
X97410100Y-179335600D01*
%TO.N,N$87*%
X98565800Y-170077300D02*
X80265100Y-151776600D01*
X98565800Y-170077300D02*
X98565800Y-177430600D01*
%TO.N,JIO13*%
X185522700Y-77837200D02*
X186487900Y-76846600D01*
X190247100Y-76846600D02*
X191999700Y-75119400D01*
X186487900Y-76846600D02*
X190247100Y-76846600D01*
%TO.N,JIO14*%
X187249900Y-77278400D02*
X190577300Y-77278400D01*
X192050500Y-75805200D02*
X192177500Y-75805200D01*
X190577300Y-77278400D02*
X192050500Y-75805200D01*
X186106900Y-78421400D02*
X187249900Y-77278400D01*
D42*
%TO.N,MIC_IN*%
X104344300Y-169709000D02*
X106884300Y-169709000D01*
X67412700Y-71995200D02*
X66295100Y-73112800D01*
X75185100Y-69023400D02*
X75185100Y-71411000D01*
X66295100Y-73112800D02*
X66295100Y-162216000D01*
X75185100Y-71411000D02*
X74600900Y-71995200D01*
X74600900Y-71995200D02*
X67412700Y-71995200D01*
X91110900Y-161250800D02*
X93066700Y-161250800D01*
X106884300Y-169709000D02*
X109424300Y-169709000D01*
X66295100Y-162216000D02*
X66396700Y-162317600D01*
X93066700Y-161250800D02*
X101524900Y-169709000D01*
X101524900Y-169709000D02*
X104344300Y-169709000D01*
%TO.N,MIC_SIO*%
X102642500Y-147865000D02*
X102642500Y-162927200D01*
X120854300Y-145528200D02*
X119812900Y-146569600D01*
X120854300Y-145528200D02*
X120854300Y-138543200D01*
X119812900Y-146569600D02*
X103937900Y-146569600D01*
X102642500Y-162927200D02*
X106884300Y-167169000D01*
X103937900Y-146569600D02*
X102642500Y-147865000D01*
%TO.N,MIC_PBI*%
X210592500Y-175881200D02*
X205385500Y-181088200D01*
X205385500Y-181088200D02*
X136805500Y-181088200D01*
X210338500Y-161860400D02*
X210592500Y-162114400D01*
X122886300Y-167169000D02*
X109424300Y-167169000D01*
X210592500Y-162114400D02*
X210592500Y-175881200D01*
X206325300Y-161860400D02*
X208865300Y-161860400D01*
X208865300Y-161860400D02*
X210338500Y-161860400D01*
X136805500Y-181088200D02*
X122886300Y-167169000D01*
%TO.N,N$81*%
X68250900Y-154570600D02*
X68250900Y-144740800D01*
X68250900Y-144740800D02*
X68327100Y-144664600D01*
%TD*%
M02*
