%
M48
M72
T01C0.0079
T02C0.0100
T03C0.0157
T04C0.0236
T05C0.0320
T06C0.0354
T07C0.0400
%
T01
X3449Y7324
X3764Y7954
X3764Y8269
X3764Y8584
X4079Y8584
X4079Y9214
X4079Y9529
X4079Y10158
X3764Y10158
X3764Y9529
X3449Y9843
X3449Y10158
X3134Y10158
X2819Y9529
X2819Y9214
X2819Y8584
X3134Y8584
X4079Y7954
X4079Y7639
X4394Y7324
X4394Y7009
X4709Y6694
X4709Y7954
X4709Y8269
X4394Y8269
X4394Y8899
X4394Y9529
X4394Y10158
X4709Y10158
X5024Y10158
X5024Y9843
X5339Y10158
X5654Y9214
X5339Y8584
X5339Y7639
X5339Y7324
X5339Y7009
X5969Y8269
X6284Y8269
X6284Y8899
X6284Y9214
X6284Y9529
X6284Y10158
X6599Y10158
X6599Y9529
X6599Y9214
X5969Y10158
T02
X6284Y10631
X6813Y10792
X6210Y12332
X5770Y12332
X5790Y11052
X5399Y10852
X5103Y12332
X4788Y12332
X4473Y12332
X4079Y12647
X3685Y12363
X3370Y12363
X2730Y13332
X2250Y12972
X1470Y14892
X1470Y15972
X2670Y16332
X2850Y15972
X3150Y15732
X3750Y15492
X3870Y16932
X3630Y17592
X3630Y17892
X4410Y16572
X4770Y16692
X5370Y17412
X5430Y17772
X5490Y18312
X5010Y18252
X5920Y17952
X6270Y18552
X6550Y17952
X7290Y19152
X6750Y19572
X6510Y16152
X6210Y16152
X5910Y16152
X5610Y16152
X5850Y15492
X5330Y14892
X5010Y14892
X4710Y14892
X4410Y14892
X2490Y20532
X6993Y6300
X6680Y5392
X6450Y4392
X6090Y4392
X5670Y4392
X5370Y4692
X5350Y4972
X5103Y4599
X4890Y4412
X5310Y4392
X5110Y5612
X4950Y5832
X4390Y4512
X4050Y4312
X3750Y4452
X3690Y4752
X3950Y1692
X3450Y1182
X2910Y1452
X6030Y2372
T03
X2741Y6300
X2610Y7317
X2610Y7836
X2610Y8316
X3930Y14952
T04
X970Y2772
X1290Y3192
X2490Y2992
X3210Y3012
X3870Y2952
X3570Y5712
X5250Y1612
X5670Y912
X6490Y2492
X6090Y3072
X6690Y3612
X8190Y2952
X8370Y1032
X8250Y5892
X3690Y18432
X2550Y912
T05
X1800Y1452
X1800Y2452
X1800Y3452
X1800Y4452
X1800Y5452
X1800Y6452
X1800Y7452
X1800Y8452
X1800Y9452
X1800Y10452
X1800Y11452
X1800Y12452
X1800Y13452
X1800Y14452
X1800Y15452
X1800Y16452
X1800Y17452
X1800Y18452
X1800Y19452
X1800Y20452
X7800Y20452
X7800Y19452
X7800Y18452
X7800Y17452
X7800Y16452
X7800Y15452
X7800Y14452
X7800Y13452
X7800Y12452
X7800Y11452
X7800Y10452
X7800Y9452
X7800Y8452
X7800Y7452
X7800Y6452
X7800Y5452
X7800Y4452
X7800Y3452
X7800Y2452
X7800Y1452
T06
X8510Y13958
X8510Y14958
X8510Y15958
X8510Y16959
X8510Y17959
X8510Y18959
X8510Y19959
T07
X5270Y19502
X5270Y20502
X4270Y20402
X4270Y19402
X3270Y19502
X3270Y20502
M30
