G75*
%MOIN*%
%OFA0B0*%
%FSLAX24Y24*%
%IPPOS*%
%LPD*%
%AMOC8*
5,1,8,0,0,1.08239X$1,22.5*
%
%ADD10OC8,0.0480*%
%ADD11OC8,0.0531*%
%ADD12C,0.0740*%
%ADD13C,0.0080*%
%ADD14OC8,0.0200*%
%ADD15OC8,0.0354*%
%ADD16C,0.0160*%
%ADD17C,0.0120*%
%ADD18OC8,0.0179*%
%ADD19OC8,0.0257*%
%ADD20C,0.0060*%
%ADD21C,0.0140*%
D10*
X001800Y001452D03*
X001800Y002452D03*
X001800Y003452D03*
X001800Y004452D03*
X001800Y005452D03*
X001800Y006452D03*
X001800Y007452D03*
X001800Y008452D03*
X001800Y009452D03*
X001800Y010452D03*
X001800Y011452D03*
X001800Y012452D03*
X001800Y013452D03*
X001800Y014452D03*
X001800Y015452D03*
X001800Y016452D03*
X001800Y017452D03*
X001800Y018452D03*
X001800Y019452D03*
X001800Y020452D03*
X007800Y020452D03*
X007800Y019452D03*
X007800Y018452D03*
X007800Y017452D03*
X007800Y016452D03*
X007800Y015452D03*
X007800Y014452D03*
X007800Y013452D03*
X007800Y012452D03*
X007800Y011452D03*
X007800Y010452D03*
X007800Y009452D03*
X007800Y008452D03*
X007800Y007452D03*
X007800Y006452D03*
X007800Y005452D03*
X007800Y004452D03*
X007800Y003452D03*
X007800Y002452D03*
X007800Y001452D03*
D11*
X008510Y013958D03*
X008510Y014958D03*
X008510Y015958D03*
X008510Y016959D03*
X008510Y017959D03*
X008510Y018959D03*
X008510Y019959D03*
D12*
X005270Y019502D03*
X005270Y020502D03*
X004270Y020402D03*
X004270Y019402D03*
X003270Y019502D03*
X003270Y020502D03*
D13*
X002745Y020673D02*
X002804Y020814D01*
X002825Y020835D01*
X000805Y020835D01*
X000805Y013084D01*
X001260Y013539D01*
X001383Y013662D01*
X001416Y013662D01*
X001626Y013872D01*
X001974Y013872D01*
X002220Y013626D01*
X002220Y013482D01*
X002457Y013482D01*
X002757Y013182D01*
X002763Y013182D01*
X002913Y013332D01*
X002523Y013722D01*
X002400Y013845D01*
X002400Y016206D01*
X002390Y016216D01*
X002390Y016448D01*
X002554Y016612D01*
X002786Y016612D01*
X002950Y016448D01*
X002950Y016252D01*
X002966Y016252D01*
X003130Y016088D01*
X003130Y016012D01*
X003266Y016012D01*
X003430Y015848D01*
X003430Y015616D01*
X003266Y015452D01*
X003167Y015452D01*
X003120Y015405D01*
X003120Y014079D01*
X003300Y013899D01*
X003300Y015339D01*
X003470Y015509D01*
X003470Y015608D01*
X003634Y015772D01*
X003866Y015772D01*
X004030Y015608D01*
X004030Y015376D01*
X003866Y015212D01*
X003767Y015212D01*
X003720Y015165D01*
X003720Y013005D01*
X003358Y012643D01*
X003486Y012643D01*
X003528Y012602D01*
X003569Y012643D01*
X003799Y012643D01*
X003799Y012763D01*
X003963Y012927D01*
X004195Y012927D01*
X004359Y012763D01*
X004359Y012612D01*
X004589Y012612D01*
X004630Y012571D01*
X004672Y012612D01*
X004904Y012612D01*
X004945Y012571D01*
X004987Y012612D01*
X005219Y012612D01*
X005383Y012448D01*
X005383Y012216D01*
X005234Y012067D01*
X005234Y011083D01*
X005283Y011132D01*
X005515Y011132D01*
X005679Y010968D01*
X005679Y010736D01*
X005579Y010636D01*
X005579Y010299D01*
X005608Y010270D01*
X005608Y010047D01*
X005451Y009889D01*
X005227Y009889D01*
X005181Y009935D01*
X005136Y009889D01*
X004912Y009889D01*
X004867Y009935D01*
X004821Y009889D01*
X004597Y009889D01*
X004552Y009935D01*
X004506Y009889D01*
X004283Y009889D01*
X004237Y009935D01*
X004191Y009889D01*
X003968Y009889D01*
X003922Y009935D01*
X003876Y009889D01*
X003653Y009889D01*
X003607Y009935D01*
X003561Y009889D01*
X003338Y009889D01*
X003180Y010047D01*
X003180Y010270D01*
X003239Y010329D01*
X003239Y012098D01*
X003090Y012247D01*
X003090Y012376D01*
X003057Y012342D01*
X002817Y012342D01*
X002700Y012225D01*
X002700Y009790D01*
X002708Y009798D01*
X002931Y009798D01*
X003089Y009640D01*
X003089Y009581D01*
X003495Y009581D01*
X003495Y009640D01*
X003653Y009798D01*
X003876Y009798D01*
X003922Y009752D01*
X003968Y009798D01*
X004191Y009798D01*
X004349Y009640D01*
X004349Y009454D01*
X005513Y009454D01*
X005542Y009483D01*
X005766Y009483D01*
X005923Y009325D01*
X005923Y009102D01*
X005894Y009073D01*
X005894Y008538D01*
X006080Y008538D01*
X006238Y008380D01*
X006238Y008157D01*
X006080Y007999D01*
X006039Y007999D01*
X005894Y007854D01*
X005894Y007434D01*
X005857Y007345D01*
X005790Y007278D01*
X005790Y007278D01*
X005632Y007120D01*
X005544Y007084D01*
X005480Y007084D01*
X005451Y007054D01*
X005227Y007054D01*
X005070Y007212D01*
X005070Y007399D01*
X004220Y007399D01*
X004191Y007369D01*
X003968Y007369D01*
X003938Y007399D01*
X003719Y007399D01*
X003719Y007394D01*
X003864Y007249D01*
X004253Y007249D01*
X004283Y007278D01*
X004506Y007278D01*
X004663Y007120D01*
X004663Y006897D01*
X004506Y006739D01*
X004283Y006739D01*
X004253Y006769D01*
X003716Y006769D01*
X003628Y006805D01*
X003379Y007054D01*
X003338Y007054D01*
X003308Y007084D01*
X002921Y007084D01*
X002811Y007081D01*
X002738Y007008D01*
X002580Y007008D01*
X002580Y005859D01*
X002877Y005562D01*
X003215Y005562D01*
X003213Y005564D01*
X003213Y005860D01*
X003422Y006069D01*
X003528Y006069D01*
X003554Y006096D01*
X003642Y006132D01*
X004938Y006132D01*
X004986Y006112D01*
X005066Y006112D01*
X005230Y005948D01*
X005230Y005716D01*
X005136Y005622D01*
X005877Y005622D01*
X006000Y005499D01*
X006660Y004839D01*
X006660Y004578D01*
X006730Y004508D01*
X006730Y004276D01*
X006566Y004112D01*
X006334Y004112D01*
X006270Y004176D01*
X006206Y004112D01*
X005974Y004112D01*
X005880Y004206D01*
X005786Y004112D01*
X005554Y004112D01*
X005520Y004146D01*
X005520Y004125D01*
X005160Y003765D01*
X005037Y003642D01*
X002204Y003642D01*
X002220Y003626D01*
X002220Y003572D01*
X002782Y003572D01*
X002877Y003533D01*
X002950Y003459D01*
X003070Y003339D01*
X003110Y003244D01*
X003110Y002912D01*
X003462Y002912D01*
X003513Y002963D01*
X003513Y003100D01*
X003722Y003309D01*
X004018Y003309D01*
X004055Y003272D01*
X005442Y003272D01*
X005750Y003579D01*
X005823Y003653D01*
X005918Y003692D01*
X006333Y003692D01*
X006333Y003760D01*
X006542Y003969D01*
X006838Y003969D01*
X007047Y003760D01*
X007047Y003464D01*
X007006Y003423D01*
X007218Y003212D01*
X007446Y003212D01*
X007380Y003278D01*
X007380Y003626D01*
X007626Y003872D01*
X007974Y003872D01*
X008220Y003626D01*
X008220Y003309D01*
X008338Y003309D01*
X008547Y003100D01*
X008547Y002804D01*
X008338Y002595D01*
X008220Y002595D01*
X008220Y002278D01*
X007974Y002032D01*
X007626Y002032D01*
X007380Y002278D01*
X007380Y002626D01*
X007446Y002692D01*
X007058Y002692D01*
X006963Y002732D01*
X006890Y002805D01*
X006890Y002805D01*
X006522Y003172D01*
X006078Y003172D01*
X005697Y002792D01*
X005602Y002752D01*
X004175Y002752D01*
X004035Y002612D01*
X005122Y002612D01*
X005217Y002573D01*
X005290Y002499D01*
X005470Y002319D01*
X005510Y002224D01*
X005510Y001872D01*
X006002Y001872D01*
X006172Y002042D01*
X006172Y002305D01*
X006133Y002344D01*
X006133Y002640D01*
X006342Y002849D01*
X006638Y002849D01*
X006847Y002640D01*
X006847Y002344D01*
X006692Y002189D01*
X006692Y001882D01*
X006652Y001787D01*
X006579Y001714D01*
X006257Y001392D01*
X006162Y001352D01*
X005495Y001352D01*
X005398Y001255D01*
X005320Y001255D01*
X005450Y000742D01*
X008850Y000742D01*
X008850Y013667D01*
X008695Y013512D01*
X008325Y013512D01*
X008220Y013618D01*
X008220Y013278D01*
X007974Y013032D01*
X007626Y013032D01*
X007380Y013278D01*
X007380Y013626D01*
X007626Y013872D01*
X007974Y013872D01*
X008064Y013782D01*
X008064Y014122D01*
X007974Y014032D01*
X007626Y014032D01*
X007380Y014278D01*
X007380Y014626D01*
X007626Y014872D01*
X007974Y014872D01*
X008064Y014782D01*
X008064Y015122D01*
X007974Y015032D01*
X007626Y015032D01*
X007380Y015278D01*
X007380Y015626D01*
X007626Y015872D01*
X007974Y015872D01*
X008064Y015782D01*
X008064Y016122D01*
X007974Y016032D01*
X007626Y016032D01*
X007380Y016278D01*
X007380Y016626D01*
X007626Y016872D01*
X007974Y016872D01*
X008220Y016626D01*
X008220Y016298D01*
X008325Y016404D01*
X008695Y016404D01*
X008850Y016249D01*
X008850Y016725D01*
X008678Y016553D01*
X008550Y016553D01*
X008550Y016919D01*
X008470Y016919D01*
X008104Y016919D01*
X008104Y016791D01*
X008342Y016553D01*
X008470Y016553D01*
X008470Y016919D01*
X008470Y016999D01*
X008470Y017364D01*
X008342Y017364D01*
X008104Y017127D01*
X008104Y016999D01*
X008470Y016999D01*
X008550Y016999D01*
X008550Y017364D01*
X008678Y017364D01*
X008850Y017193D01*
X008850Y017668D01*
X008695Y017513D01*
X008325Y017513D01*
X008220Y017618D01*
X008220Y017278D01*
X007974Y017032D01*
X007626Y017032D01*
X007426Y017232D01*
X006979Y017232D01*
X006899Y017312D01*
X006350Y017312D01*
X006350Y017280D01*
X007017Y016613D01*
X007017Y016613D01*
X007090Y016539D01*
X007130Y016444D01*
X007130Y013500D01*
X007510Y013119D01*
X007550Y013024D01*
X007550Y012796D01*
X007626Y012872D01*
X007974Y012872D01*
X008220Y012626D01*
X008220Y012278D01*
X008136Y012194D01*
X008470Y011859D01*
X008510Y011764D01*
X008510Y006137D01*
X008607Y006040D01*
X008607Y005744D01*
X008398Y005535D01*
X008220Y005535D01*
X008220Y005278D01*
X007974Y005032D01*
X007626Y005032D01*
X007380Y005278D01*
X007380Y005626D01*
X007626Y005872D01*
X007893Y005872D01*
X007893Y006032D01*
X007626Y006032D01*
X007380Y006278D01*
X007380Y006626D01*
X007626Y006872D01*
X007974Y006872D01*
X007990Y006856D01*
X007990Y007048D01*
X007974Y007032D01*
X007626Y007032D01*
X007380Y007278D01*
X007380Y007626D01*
X007626Y007872D01*
X007974Y007872D01*
X007990Y007856D01*
X007990Y008048D01*
X007974Y008032D01*
X007626Y008032D01*
X007380Y008278D01*
X007380Y008626D01*
X007626Y008872D01*
X007974Y008872D01*
X007990Y008856D01*
X007990Y009048D01*
X007974Y009032D01*
X007626Y009032D01*
X007380Y009278D01*
X007380Y009345D01*
X006846Y008812D01*
X006846Y008812D01*
X006723Y008689D01*
X006512Y008689D01*
X006256Y008944D01*
X006172Y008944D01*
X006014Y009102D01*
X006014Y009325D01*
X006060Y009371D01*
X006014Y009417D01*
X006014Y009640D01*
X006172Y009798D01*
X006240Y009798D01*
X006289Y009847D01*
X006327Y009889D01*
X006172Y009889D01*
X006126Y009935D01*
X006080Y009889D01*
X005857Y009889D01*
X005700Y010047D01*
X005700Y010270D01*
X005759Y010329D01*
X005759Y011018D01*
X005820Y011079D01*
X005820Y011985D01*
X005753Y012052D01*
X005654Y012052D01*
X005490Y012216D01*
X005490Y012448D01*
X005654Y012612D01*
X005886Y012612D01*
X005990Y012508D01*
X006094Y012612D01*
X006326Y012612D01*
X006490Y012448D01*
X006490Y012216D01*
X006360Y012086D01*
X006360Y011139D01*
X006720Y010779D01*
X006720Y010418D01*
X006840Y010298D01*
X006840Y010785D01*
X006663Y010962D01*
X006540Y011085D01*
X006540Y012585D01*
X004863Y014262D01*
X004563Y014262D01*
X004440Y014385D01*
X004200Y014625D01*
X004200Y014706D01*
X004130Y014776D01*
X004130Y015008D01*
X004294Y015172D01*
X004526Y015172D01*
X004560Y015138D01*
X004594Y015172D01*
X004826Y015172D01*
X004860Y015138D01*
X004894Y015172D01*
X005126Y015172D01*
X005170Y015128D01*
X005214Y015172D01*
X005446Y015172D01*
X005610Y015008D01*
X005610Y014776D01*
X005546Y014713D01*
X006610Y013649D01*
X006610Y015872D01*
X006394Y015872D01*
X006360Y015906D01*
X006326Y015872D01*
X006094Y015872D01*
X006060Y015906D01*
X006026Y015872D01*
X005794Y015872D01*
X005760Y015906D01*
X005726Y015872D01*
X005494Y015872D01*
X005434Y015932D01*
X004139Y015932D01*
X003410Y016661D01*
X003410Y016841D01*
X003170Y017081D01*
X003170Y017863D01*
X003299Y017992D01*
X003419Y018112D01*
X003454Y018112D01*
X003514Y018172D01*
X003746Y018172D01*
X003910Y018008D01*
X003910Y017776D01*
X003746Y017612D01*
X003610Y017612D01*
X003610Y017263D01*
X003708Y017166D01*
X003754Y017212D01*
X003986Y017212D01*
X004150Y017048D01*
X004150Y016816D01*
X004134Y016800D01*
X004381Y016552D01*
X004514Y016552D01*
X004490Y016576D01*
X004490Y016808D01*
X004654Y016972D01*
X004886Y016972D01*
X005050Y016808D01*
X005050Y016792D01*
X005499Y016792D01*
X005390Y016901D01*
X005390Y017381D01*
X005339Y017432D01*
X005210Y017561D01*
X005210Y017596D01*
X005150Y017656D01*
X005150Y017888D01*
X005314Y018052D01*
X005354Y018052D01*
X005210Y018196D01*
X005210Y018428D01*
X005374Y018592D01*
X005606Y018592D01*
X005770Y018428D01*
X005770Y018400D01*
X005890Y018279D01*
X005910Y018232D01*
X005979Y018232D01*
X005939Y018272D01*
X005810Y018401D01*
X005810Y018763D01*
X005939Y018892D01*
X006179Y019132D01*
X006359Y019132D01*
X006530Y019303D01*
X006530Y019396D01*
X006470Y019456D01*
X006470Y019688D01*
X006530Y019748D01*
X006530Y019903D01*
X006839Y020212D01*
X007446Y020212D01*
X007380Y020278D01*
X007380Y020626D01*
X007588Y020835D01*
X005715Y020835D01*
X005736Y020814D01*
X005820Y020612D01*
X005820Y020393D01*
X005736Y020191D01*
X005582Y020036D01*
X005448Y019981D01*
X005466Y019975D01*
X005537Y019938D01*
X005602Y019891D01*
X005659Y019834D01*
X005706Y019769D01*
X005743Y019698D01*
X005767Y019622D01*
X005780Y019542D01*
X005780Y019542D01*
X005310Y019542D01*
X005310Y019462D01*
X005310Y018992D01*
X005310Y018992D01*
X005389Y019005D01*
X005466Y019029D01*
X005537Y019066D01*
X005602Y019113D01*
X005659Y019170D01*
X005706Y019235D01*
X005743Y019306D01*
X005767Y019383D01*
X005780Y019462D01*
X005780Y019462D01*
X005310Y019462D01*
X005230Y019462D01*
X005230Y018992D01*
X005230Y018992D01*
X005151Y019005D01*
X005074Y019029D01*
X005003Y019066D01*
X004938Y019113D01*
X004881Y019170D01*
X004834Y019235D01*
X004813Y019276D01*
X004736Y019091D01*
X004582Y018936D01*
X004379Y018852D01*
X004161Y018852D01*
X003958Y018936D01*
X003804Y019091D01*
X003749Y019222D01*
X003736Y019191D01*
X003582Y019036D01*
X003379Y018952D01*
X003161Y018952D01*
X002958Y019036D01*
X002804Y019191D01*
X002720Y019393D01*
X002720Y019612D01*
X002800Y019805D01*
X002700Y019905D01*
X002280Y020325D01*
X002280Y020346D01*
X002210Y020416D01*
X002210Y020648D01*
X002374Y020812D01*
X002606Y020812D01*
X002745Y020673D01*
X002768Y020727D02*
X002691Y020727D01*
X002613Y020805D02*
X002800Y020805D01*
X002428Y020177D02*
X002062Y020177D01*
X001984Y020099D02*
X002506Y020099D01*
X002585Y020020D02*
X000805Y020020D01*
X000805Y019942D02*
X002663Y019942D01*
X002742Y019863D02*
X001983Y019863D01*
X001974Y019872D02*
X001626Y019872D01*
X001380Y019626D01*
X001380Y019278D01*
X001626Y019032D01*
X001974Y019032D01*
X002220Y019278D01*
X002220Y019626D01*
X001974Y019872D01*
X002061Y019785D02*
X002792Y019785D01*
X002759Y019706D02*
X002140Y019706D01*
X002218Y019628D02*
X002727Y019628D01*
X002720Y019549D02*
X002220Y019549D01*
X002220Y019471D02*
X002720Y019471D01*
X002720Y019392D02*
X002220Y019392D01*
X002220Y019314D02*
X002753Y019314D01*
X002785Y019235D02*
X002177Y019235D01*
X002099Y019157D02*
X002838Y019157D01*
X002916Y019078D02*
X002020Y019078D01*
X001974Y018872D02*
X001626Y018872D01*
X001380Y018626D01*
X001380Y018278D01*
X001626Y018032D01*
X001974Y018032D01*
X002220Y018278D01*
X002220Y018626D01*
X001974Y018872D01*
X002003Y018843D02*
X005889Y018843D01*
X005811Y018764D02*
X002082Y018764D01*
X002160Y018686D02*
X005810Y018686D01*
X005810Y018607D02*
X002220Y018607D01*
X002220Y018529D02*
X005311Y018529D01*
X005232Y018450D02*
X002220Y018450D01*
X002220Y018372D02*
X005210Y018372D01*
X005210Y018293D02*
X002220Y018293D01*
X002157Y018215D02*
X005210Y018215D01*
X005270Y018136D02*
X003782Y018136D01*
X003860Y018058D02*
X005348Y018058D01*
X005241Y017979D02*
X003910Y017979D01*
X003910Y017901D02*
X005163Y017901D01*
X005150Y017822D02*
X003910Y017822D01*
X003878Y017744D02*
X005150Y017744D01*
X005150Y017665D02*
X003799Y017665D01*
X003610Y017587D02*
X005210Y017587D01*
X005263Y017508D02*
X003610Y017508D01*
X003610Y017430D02*
X005341Y017430D01*
X005390Y017351D02*
X003610Y017351D01*
X003610Y017273D02*
X005390Y017273D01*
X005390Y017194D02*
X004004Y017194D01*
X004082Y017116D02*
X005390Y017116D01*
X005390Y017037D02*
X004150Y017037D01*
X004150Y016959D02*
X004641Y016959D01*
X004562Y016880D02*
X004150Y016880D01*
X004136Y016802D02*
X004490Y016802D01*
X004490Y016723D02*
X004210Y016723D01*
X004289Y016645D02*
X004490Y016645D01*
X004500Y016566D02*
X004367Y016566D01*
X004290Y016332D02*
X003870Y016752D01*
X003870Y016932D01*
X003736Y017194D02*
X003679Y017194D01*
X003630Y016932D02*
X003630Y016752D01*
X004230Y016152D01*
X005610Y016152D01*
X005730Y016392D02*
X005370Y016392D01*
X005310Y016332D01*
X004290Y016332D01*
X004054Y016017D02*
X003130Y016017D01*
X003123Y016095D02*
X003976Y016095D01*
X003897Y016174D02*
X003044Y016174D01*
X002950Y016252D02*
X003819Y016252D01*
X003740Y016331D02*
X002950Y016331D01*
X002950Y016409D02*
X003662Y016409D01*
X003583Y016488D02*
X002910Y016488D01*
X002832Y016566D02*
X003505Y016566D01*
X003426Y016645D02*
X002201Y016645D01*
X002220Y016626D02*
X001974Y016872D01*
X001626Y016872D01*
X001380Y016626D01*
X001380Y016278D01*
X001626Y016032D01*
X001974Y016032D01*
X002220Y016278D01*
X002220Y016626D01*
X002220Y016566D02*
X002508Y016566D01*
X002430Y016488D02*
X002220Y016488D01*
X002220Y016409D02*
X002390Y016409D01*
X002390Y016331D02*
X002220Y016331D01*
X002194Y016252D02*
X002390Y016252D01*
X002400Y016174D02*
X002116Y016174D01*
X002037Y016095D02*
X002400Y016095D01*
X002400Y016017D02*
X000805Y016017D01*
X000805Y016095D02*
X001563Y016095D01*
X001484Y016174D02*
X000805Y016174D01*
X000805Y016252D02*
X001406Y016252D01*
X001380Y016331D02*
X000805Y016331D01*
X000805Y016409D02*
X001380Y016409D01*
X001380Y016488D02*
X000805Y016488D01*
X000805Y016566D02*
X001380Y016566D01*
X001399Y016645D02*
X000805Y016645D01*
X000805Y016723D02*
X001477Y016723D01*
X001556Y016802D02*
X000805Y016802D01*
X000805Y016880D02*
X003371Y016880D01*
X003410Y016802D02*
X002044Y016802D01*
X002123Y016723D02*
X003410Y016723D01*
X003292Y016959D02*
X000805Y016959D01*
X000805Y017037D02*
X001621Y017037D01*
X001626Y017032D02*
X001974Y017032D01*
X002220Y017278D01*
X002220Y017626D01*
X001974Y017872D01*
X001626Y017872D01*
X001380Y017626D01*
X001380Y017278D01*
X001626Y017032D01*
X001542Y017116D02*
X000805Y017116D01*
X000805Y017194D02*
X001464Y017194D01*
X001385Y017273D02*
X000805Y017273D01*
X000805Y017351D02*
X001380Y017351D01*
X001380Y017430D02*
X000805Y017430D01*
X000805Y017508D02*
X001380Y017508D01*
X001380Y017587D02*
X000805Y017587D01*
X000805Y017665D02*
X001419Y017665D01*
X001498Y017744D02*
X000805Y017744D01*
X000805Y017822D02*
X001576Y017822D01*
X001600Y018058D02*
X000805Y018058D01*
X000805Y018136D02*
X001522Y018136D01*
X001443Y018215D02*
X000805Y018215D01*
X000805Y018293D02*
X001380Y018293D01*
X001380Y018372D02*
X000805Y018372D01*
X000805Y018450D02*
X001380Y018450D01*
X001380Y018529D02*
X000805Y018529D01*
X000805Y018607D02*
X001380Y018607D01*
X001440Y018686D02*
X000805Y018686D01*
X000805Y018764D02*
X001518Y018764D01*
X001597Y018843D02*
X000805Y018843D01*
X000805Y018921D02*
X003994Y018921D01*
X003895Y019000D02*
X003494Y019000D01*
X003624Y019078D02*
X003816Y019078D01*
X003776Y019157D02*
X003702Y019157D01*
X003478Y018136D02*
X002078Y018136D01*
X002000Y018058D02*
X003364Y018058D01*
X003286Y017979D02*
X000805Y017979D01*
X000805Y017901D02*
X003207Y017901D01*
X003170Y017822D02*
X002024Y017822D01*
X002102Y017744D02*
X003170Y017744D01*
X003170Y017665D02*
X002181Y017665D01*
X002220Y017587D02*
X003170Y017587D01*
X003170Y017508D02*
X002220Y017508D01*
X002220Y017430D02*
X003170Y017430D01*
X003170Y017351D02*
X002220Y017351D01*
X002215Y017273D02*
X003170Y017273D01*
X003170Y017194D02*
X002136Y017194D01*
X002058Y017116D02*
X003170Y017116D01*
X003214Y017037D02*
X001979Y017037D01*
X002400Y015938D02*
X000805Y015938D01*
X000805Y015860D02*
X001614Y015860D01*
X001626Y015872D02*
X001380Y015626D01*
X001380Y015278D01*
X001626Y015032D01*
X001974Y015032D01*
X002220Y015278D01*
X002220Y015626D01*
X001974Y015872D01*
X001626Y015872D01*
X001535Y015781D02*
X000805Y015781D01*
X000805Y015703D02*
X001457Y015703D01*
X001380Y015624D02*
X000805Y015624D01*
X000805Y015546D02*
X001380Y015546D01*
X001380Y015467D02*
X000805Y015467D01*
X000805Y015389D02*
X001380Y015389D01*
X001380Y015310D02*
X000805Y015310D01*
X000805Y015232D02*
X001426Y015232D01*
X001505Y015153D02*
X000805Y015153D01*
X000805Y015075D02*
X001583Y015075D01*
X001626Y014872D02*
X001380Y014626D01*
X001380Y014278D01*
X001626Y014032D01*
X001974Y014032D01*
X002220Y014278D01*
X002220Y014626D01*
X001974Y014872D01*
X001626Y014872D01*
X001593Y014839D02*
X000805Y014839D01*
X000805Y014761D02*
X001515Y014761D01*
X001436Y014682D02*
X000805Y014682D01*
X000805Y014604D02*
X001380Y014604D01*
X001380Y014525D02*
X000805Y014525D01*
X000805Y014447D02*
X001380Y014447D01*
X001380Y014368D02*
X000805Y014368D01*
X000805Y014290D02*
X001380Y014290D01*
X001447Y014211D02*
X000805Y014211D01*
X000805Y014133D02*
X001525Y014133D01*
X001604Y014054D02*
X000805Y014054D01*
X000805Y013976D02*
X002400Y013976D01*
X002400Y014054D02*
X001996Y014054D01*
X002075Y014133D02*
X002400Y014133D01*
X002400Y014211D02*
X002153Y014211D01*
X002220Y014290D02*
X002400Y014290D01*
X002400Y014368D02*
X002220Y014368D01*
X002220Y014447D02*
X002400Y014447D01*
X002400Y014525D02*
X002220Y014525D01*
X002220Y014604D02*
X002400Y014604D01*
X002400Y014682D02*
X002164Y014682D01*
X002085Y014761D02*
X002400Y014761D01*
X002400Y014839D02*
X002007Y014839D01*
X002017Y015075D02*
X002400Y015075D01*
X002400Y015153D02*
X002095Y015153D01*
X002174Y015232D02*
X002400Y015232D01*
X002400Y015310D02*
X002220Y015310D01*
X002220Y015389D02*
X002400Y015389D01*
X002400Y015467D02*
X002220Y015467D01*
X002220Y015546D02*
X002400Y015546D01*
X002400Y015624D02*
X002220Y015624D01*
X002143Y015703D02*
X002400Y015703D01*
X002400Y015781D02*
X002065Y015781D01*
X001986Y015860D02*
X002400Y015860D01*
X002400Y014996D02*
X000805Y014996D01*
X000805Y014918D02*
X002400Y014918D01*
X002400Y013897D02*
X000805Y013897D01*
X000805Y013819D02*
X001573Y013819D01*
X001494Y013740D02*
X000805Y013740D01*
X000805Y013662D02*
X001383Y013662D01*
X001304Y013583D02*
X000805Y013583D01*
X000805Y013505D02*
X001226Y013505D01*
X001147Y013426D02*
X000805Y013426D01*
X000805Y013348D02*
X001069Y013348D01*
X000990Y013269D02*
X000805Y013269D01*
X000805Y013191D02*
X000912Y013191D01*
X000833Y013112D02*
X000805Y013112D01*
X002027Y013819D02*
X002426Y013819D01*
X002505Y013740D02*
X002106Y013740D01*
X002184Y013662D02*
X002583Y013662D01*
X002662Y013583D02*
X002220Y013583D01*
X002220Y013505D02*
X002740Y013505D01*
X002819Y013426D02*
X002513Y013426D01*
X002591Y013348D02*
X002897Y013348D01*
X002850Y013269D02*
X002670Y013269D01*
X002748Y013191D02*
X002772Y013191D01*
X002802Y012327D02*
X003090Y012327D01*
X003090Y012249D02*
X002724Y012249D01*
X002700Y012170D02*
X003167Y012170D01*
X003239Y012092D02*
X002700Y012092D01*
X002700Y012013D02*
X003239Y012013D01*
X003239Y011935D02*
X002700Y011935D01*
X002700Y011856D02*
X003239Y011856D01*
X003239Y011778D02*
X002700Y011778D01*
X002700Y011699D02*
X003239Y011699D01*
X003239Y011621D02*
X002700Y011621D01*
X002700Y011542D02*
X003239Y011542D01*
X003239Y011464D02*
X002700Y011464D01*
X002700Y011385D02*
X003239Y011385D01*
X003239Y011307D02*
X002700Y011307D01*
X002700Y011228D02*
X003239Y011228D01*
X003239Y011150D02*
X002700Y011150D01*
X002700Y011071D02*
X003239Y011071D01*
X003239Y010993D02*
X002700Y010993D01*
X002700Y010914D02*
X003239Y010914D01*
X003239Y010836D02*
X002700Y010836D01*
X002700Y010757D02*
X003239Y010757D01*
X003239Y010679D02*
X002700Y010679D01*
X002700Y010600D02*
X003239Y010600D01*
X003239Y010522D02*
X002700Y010522D01*
X002700Y010443D02*
X003239Y010443D01*
X003239Y010365D02*
X002700Y010365D01*
X002700Y010286D02*
X003196Y010286D01*
X003180Y010208D02*
X002700Y010208D01*
X002700Y010129D02*
X003180Y010129D01*
X003180Y010051D02*
X002700Y010051D01*
X002700Y009972D02*
X003255Y009972D01*
X003333Y009894D02*
X002700Y009894D01*
X002700Y009815D02*
X006257Y009815D01*
X006168Y009894D02*
X006085Y009894D01*
X006111Y009737D02*
X004252Y009737D01*
X004330Y009658D02*
X006033Y009658D01*
X006014Y009580D02*
X004349Y009580D01*
X004349Y009501D02*
X006014Y009501D01*
X006014Y009423D02*
X005826Y009423D01*
X005904Y009344D02*
X006034Y009344D01*
X006014Y009266D02*
X005923Y009266D01*
X005923Y009187D02*
X006014Y009187D01*
X006014Y009109D02*
X005923Y009109D01*
X005894Y009030D02*
X006086Y009030D01*
X006165Y008952D02*
X005894Y008952D01*
X005894Y008873D02*
X006327Y008873D01*
X006406Y008795D02*
X005894Y008795D01*
X005894Y008716D02*
X006484Y008716D01*
X006751Y008716D02*
X007470Y008716D01*
X007392Y008638D02*
X005894Y008638D01*
X005894Y008559D02*
X007380Y008559D01*
X007380Y008481D02*
X006138Y008481D01*
X006216Y008402D02*
X007380Y008402D01*
X007380Y008324D02*
X006238Y008324D01*
X006238Y008245D02*
X007413Y008245D01*
X007492Y008167D02*
X006238Y008167D01*
X006169Y008088D02*
X007570Y008088D01*
X007607Y007853D02*
X005894Y007853D01*
X005894Y007774D02*
X007528Y007774D01*
X007450Y007696D02*
X005894Y007696D01*
X005894Y007617D02*
X007380Y007617D01*
X007380Y007539D02*
X005894Y007539D01*
X005894Y007460D02*
X007380Y007460D01*
X007380Y007382D02*
X005872Y007382D01*
X005815Y007303D02*
X007380Y007303D01*
X007434Y007225D02*
X005737Y007225D01*
X005658Y007146D02*
X007512Y007146D01*
X007591Y007068D02*
X005464Y007068D01*
X005214Y007068D02*
X004663Y007068D01*
X004663Y006989D02*
X007990Y006989D01*
X007990Y006911D02*
X004663Y006911D01*
X004598Y006832D02*
X007586Y006832D01*
X007508Y006754D02*
X004520Y006754D01*
X004638Y007146D02*
X005136Y007146D01*
X005070Y007225D02*
X004559Y007225D01*
X004203Y007382D02*
X005070Y007382D01*
X005070Y007303D02*
X003809Y007303D01*
X003731Y007382D02*
X003955Y007382D01*
X004034Y007908D02*
X004034Y008029D01*
X004253Y008029D01*
X004283Y007999D01*
X004506Y007999D01*
X004663Y008157D01*
X004663Y008380D01*
X004506Y008538D01*
X004349Y008538D01*
X004349Y008629D01*
X004506Y008629D01*
X004663Y008787D01*
X004663Y008974D01*
X005414Y008974D01*
X005414Y008526D01*
X005136Y008247D01*
X005099Y008159D01*
X005099Y007879D01*
X004220Y007879D01*
X004191Y007908D01*
X004034Y007908D01*
X004034Y007931D02*
X005099Y007931D01*
X005099Y008010D02*
X004516Y008010D01*
X004595Y008088D02*
X005099Y008088D01*
X005102Y008167D02*
X004663Y008167D01*
X004663Y008245D02*
X005135Y008245D01*
X005212Y008324D02*
X004663Y008324D01*
X004642Y008402D02*
X005291Y008402D01*
X005369Y008481D02*
X004563Y008481D01*
X004514Y008638D02*
X005414Y008638D01*
X005414Y008716D02*
X004593Y008716D01*
X004663Y008795D02*
X005414Y008795D01*
X005414Y008873D02*
X004663Y008873D01*
X004663Y008952D02*
X005414Y008952D01*
X005414Y008559D02*
X004349Y008559D01*
X004272Y008010D02*
X004034Y008010D01*
X003810Y008538D02*
X003653Y008538D01*
X003495Y008380D01*
X003495Y008157D01*
X003524Y008128D01*
X003524Y008095D01*
X003495Y008065D01*
X003495Y007879D01*
X003391Y007879D01*
X003338Y007932D01*
X003270Y008000D01*
X003182Y008036D01*
X003092Y008036D01*
X002824Y008059D01*
X002738Y008145D01*
X002482Y008145D01*
X002408Y008071D01*
X002340Y008139D01*
X002340Y008445D01*
X002412Y008374D01*
X002648Y008374D01*
X002708Y008314D01*
X002931Y008314D01*
X002977Y008360D01*
X003023Y008314D01*
X003246Y008314D01*
X003404Y008472D01*
X003404Y008682D01*
X003810Y008682D01*
X003810Y008538D01*
X003810Y008559D02*
X003404Y008559D01*
X003404Y008481D02*
X003595Y008481D01*
X003517Y008402D02*
X003334Y008402D01*
X003255Y008324D02*
X003495Y008324D01*
X003495Y008245D02*
X002340Y008245D01*
X002340Y008167D02*
X003495Y008167D01*
X003518Y008088D02*
X002794Y008088D01*
X002698Y008324D02*
X002340Y008324D01*
X002340Y008402D02*
X002383Y008402D01*
X002391Y008088D02*
X002426Y008088D01*
X002797Y007068D02*
X003324Y007068D01*
X003444Y006989D02*
X002580Y006989D01*
X002580Y006911D02*
X003523Y006911D01*
X003601Y006832D02*
X002580Y006832D01*
X002580Y006754D02*
X004268Y006754D01*
X003627Y006126D02*
X002580Y006126D01*
X002580Y006204D02*
X007454Y006204D01*
X007380Y006283D02*
X002580Y006283D01*
X002580Y006361D02*
X007380Y006361D01*
X007380Y006440D02*
X002580Y006440D01*
X002580Y006518D02*
X007380Y006518D01*
X007380Y006597D02*
X002580Y006597D01*
X002580Y006675D02*
X007429Y006675D01*
X007533Y006126D02*
X004953Y006126D01*
X005131Y006047D02*
X007611Y006047D01*
X007566Y005812D02*
X005230Y005812D01*
X005230Y005890D02*
X007893Y005890D01*
X007893Y005969D02*
X005209Y005969D01*
X005230Y005733D02*
X007487Y005733D01*
X007409Y005655D02*
X005168Y005655D01*
X005479Y004085D02*
X007574Y004085D01*
X007626Y004032D02*
X007974Y004032D01*
X008220Y004278D01*
X008220Y004626D01*
X007974Y004872D01*
X007626Y004872D01*
X007380Y004626D01*
X007380Y004278D01*
X007626Y004032D01*
X007603Y003849D02*
X006958Y003849D01*
X007037Y003771D02*
X007525Y003771D01*
X007446Y003692D02*
X007047Y003692D01*
X007047Y003614D02*
X007380Y003614D01*
X007380Y003535D02*
X007047Y003535D01*
X007040Y003457D02*
X007380Y003457D01*
X007380Y003378D02*
X007052Y003378D01*
X007130Y003300D02*
X007380Y003300D01*
X007437Y003221D02*
X007209Y003221D01*
X006944Y002750D02*
X006737Y002750D01*
X006816Y002672D02*
X007426Y002672D01*
X007380Y002593D02*
X006847Y002593D01*
X006847Y002515D02*
X007380Y002515D01*
X007380Y002436D02*
X006847Y002436D01*
X006847Y002358D02*
X007380Y002358D01*
X007380Y002279D02*
X006782Y002279D01*
X006704Y002201D02*
X007458Y002201D01*
X007536Y002122D02*
X006692Y002122D01*
X006692Y002044D02*
X007615Y002044D01*
X007626Y001872D02*
X007380Y001626D01*
X007380Y001278D01*
X007626Y001032D01*
X007974Y001032D01*
X008220Y001278D01*
X008220Y001626D01*
X007974Y001872D01*
X007626Y001872D01*
X007562Y001808D02*
X006661Y001808D01*
X006692Y001887D02*
X008850Y001887D01*
X008850Y001965D02*
X006692Y001965D01*
X006595Y001730D02*
X007484Y001730D01*
X007405Y001651D02*
X006517Y001651D01*
X006438Y001573D02*
X007380Y001573D01*
X007380Y001494D02*
X006360Y001494D01*
X006281Y001416D02*
X007380Y001416D01*
X007380Y001337D02*
X005480Y001337D01*
X005402Y001259D02*
X007400Y001259D01*
X007478Y001180D02*
X005339Y001180D01*
X005359Y001102D02*
X007557Y001102D01*
X007985Y002044D02*
X008850Y002044D01*
X008850Y002122D02*
X008064Y002122D01*
X008142Y002201D02*
X008850Y002201D01*
X008850Y002279D02*
X008220Y002279D01*
X008220Y002358D02*
X008850Y002358D01*
X008850Y002436D02*
X008220Y002436D01*
X008220Y002515D02*
X008850Y002515D01*
X008850Y002593D02*
X008220Y002593D01*
X008415Y002672D02*
X008850Y002672D01*
X008850Y002750D02*
X008493Y002750D01*
X008547Y002829D02*
X008850Y002829D01*
X008850Y002907D02*
X008547Y002907D01*
X008547Y002986D02*
X008850Y002986D01*
X008850Y003064D02*
X008547Y003064D01*
X008505Y003143D02*
X008850Y003143D01*
X008850Y003221D02*
X008426Y003221D01*
X008348Y003300D02*
X008850Y003300D01*
X008850Y003378D02*
X008220Y003378D01*
X008220Y003457D02*
X008850Y003457D01*
X008850Y003535D02*
X008220Y003535D01*
X008220Y003614D02*
X008850Y003614D01*
X008850Y003692D02*
X008154Y003692D01*
X008075Y003771D02*
X008850Y003771D01*
X008850Y003849D02*
X007997Y003849D01*
X008026Y004085D02*
X008850Y004085D01*
X008850Y004163D02*
X008105Y004163D01*
X008183Y004242D02*
X008850Y004242D01*
X008850Y004320D02*
X008220Y004320D01*
X008220Y004399D02*
X008850Y004399D01*
X008850Y004477D02*
X008220Y004477D01*
X008220Y004556D02*
X008850Y004556D01*
X008850Y004634D02*
X008212Y004634D01*
X008133Y004713D02*
X008850Y004713D01*
X008850Y004791D02*
X008055Y004791D01*
X007976Y004870D02*
X008850Y004870D01*
X008850Y004948D02*
X006551Y004948D01*
X006629Y004870D02*
X007624Y004870D01*
X007545Y004791D02*
X006660Y004791D01*
X006660Y004713D02*
X007467Y004713D01*
X007388Y004634D02*
X006660Y004634D01*
X006682Y004556D02*
X007380Y004556D01*
X007380Y004477D02*
X006730Y004477D01*
X006730Y004399D02*
X007380Y004399D01*
X007380Y004320D02*
X006730Y004320D01*
X006695Y004242D02*
X007417Y004242D01*
X007495Y004163D02*
X006617Y004163D01*
X006500Y003928D02*
X005322Y003928D01*
X005244Y003849D02*
X006422Y003849D01*
X006343Y003771D02*
X005165Y003771D01*
X005087Y003692D02*
X006333Y003692D01*
X006283Y004163D02*
X006257Y004163D01*
X005923Y004163D02*
X005837Y004163D01*
X005784Y003614D02*
X002220Y003614D01*
X002871Y003535D02*
X005705Y003535D01*
X005627Y003457D02*
X002953Y003457D01*
X003032Y003378D02*
X005548Y003378D01*
X005470Y003300D02*
X004028Y003300D01*
X004173Y002750D02*
X006243Y002750D01*
X006164Y002672D02*
X004095Y002672D01*
X003712Y003300D02*
X003087Y003300D01*
X003110Y003221D02*
X003634Y003221D01*
X003555Y003143D02*
X003110Y003143D01*
X003110Y003064D02*
X003513Y003064D01*
X003513Y002986D02*
X003110Y002986D01*
X002687Y002172D02*
X002707Y002152D01*
X004950Y002152D01*
X004950Y000742D01*
X002370Y000742D01*
X002370Y002172D01*
X002687Y002172D01*
X002370Y002122D02*
X004950Y002122D01*
X004950Y002044D02*
X002370Y002044D01*
X002370Y001965D02*
X004950Y001965D01*
X004950Y001887D02*
X002370Y001887D01*
X002370Y001808D02*
X004950Y001808D01*
X004950Y001730D02*
X002370Y001730D01*
X002370Y001651D02*
X002798Y001651D01*
X002819Y001672D02*
X002690Y001543D01*
X002690Y001361D01*
X002720Y001331D01*
X002720Y001313D01*
X002831Y001202D01*
X002950Y001083D01*
X002996Y001029D01*
X003005Y001029D01*
X003011Y001022D01*
X003082Y001022D01*
X003319Y001002D01*
X003359Y000962D01*
X003541Y000962D01*
X003670Y001091D01*
X003670Y001273D01*
X003541Y001402D01*
X003359Y001402D01*
X003339Y001382D01*
X003175Y001396D01*
X003130Y001441D01*
X003130Y001543D01*
X003001Y001672D01*
X002819Y001672D01*
X002719Y001573D02*
X002370Y001573D01*
X002370Y001494D02*
X002690Y001494D01*
X002690Y001416D02*
X002370Y001416D01*
X002370Y001337D02*
X002714Y001337D01*
X002775Y001259D02*
X002370Y001259D01*
X002370Y001180D02*
X002853Y001180D01*
X002932Y001102D02*
X002370Y001102D01*
X002370Y001023D02*
X003010Y001023D01*
X003155Y001416D02*
X004950Y001416D01*
X004950Y001494D02*
X003130Y001494D01*
X003101Y001573D02*
X004950Y001573D01*
X004950Y001651D02*
X003022Y001651D01*
X003606Y001337D02*
X004950Y001337D01*
X004950Y001259D02*
X003670Y001259D01*
X003670Y001180D02*
X004950Y001180D01*
X004950Y001102D02*
X003670Y001102D01*
X003602Y001023D02*
X004950Y001023D01*
X004950Y000945D02*
X002370Y000945D01*
X002370Y000866D02*
X004950Y000866D01*
X004950Y000788D02*
X002370Y000788D01*
X002863Y005576D02*
X003213Y005576D01*
X003213Y005655D02*
X002784Y005655D01*
X002706Y005733D02*
X003213Y005733D01*
X003213Y005812D02*
X002627Y005812D01*
X002580Y005890D02*
X003243Y005890D01*
X003321Y005969D02*
X002580Y005969D01*
X002580Y006047D02*
X003400Y006047D01*
X003339Y007931D02*
X003495Y007931D01*
X003495Y008010D02*
X003246Y008010D01*
X003338Y007932D02*
X003338Y007932D01*
X003013Y008324D02*
X002940Y008324D01*
X003404Y008638D02*
X003810Y008638D01*
X003513Y009658D02*
X003071Y009658D01*
X002992Y009737D02*
X003591Y009737D01*
X003565Y009894D02*
X003648Y009894D01*
X003880Y009894D02*
X003963Y009894D01*
X004195Y009894D02*
X004278Y009894D01*
X004510Y009894D02*
X004593Y009894D01*
X004825Y009894D02*
X004908Y009894D01*
X005140Y009894D02*
X005223Y009894D01*
X005455Y009894D02*
X005853Y009894D01*
X005774Y009972D02*
X005534Y009972D01*
X005608Y010051D02*
X005700Y010051D01*
X005700Y010129D02*
X005608Y010129D01*
X005608Y010208D02*
X005700Y010208D01*
X005716Y010286D02*
X005592Y010286D01*
X005579Y010365D02*
X005759Y010365D01*
X005759Y010443D02*
X005579Y010443D01*
X005579Y010522D02*
X005759Y010522D01*
X005759Y010600D02*
X005579Y010600D01*
X005621Y010679D02*
X005759Y010679D01*
X005759Y010757D02*
X005679Y010757D01*
X005679Y010836D02*
X005759Y010836D01*
X005759Y010914D02*
X005679Y010914D01*
X005654Y010993D02*
X005759Y010993D01*
X005812Y011071D02*
X005576Y011071D01*
X005820Y011150D02*
X005234Y011150D01*
X005234Y011228D02*
X005820Y011228D01*
X005820Y011307D02*
X005234Y011307D01*
X005234Y011385D02*
X005820Y011385D01*
X005820Y011464D02*
X005234Y011464D01*
X005234Y011542D02*
X005820Y011542D01*
X005820Y011621D02*
X005234Y011621D01*
X005234Y011699D02*
X005820Y011699D01*
X005820Y011778D02*
X005234Y011778D01*
X005234Y011856D02*
X005820Y011856D01*
X005820Y011935D02*
X005234Y011935D01*
X005234Y012013D02*
X005792Y012013D01*
X005614Y012092D02*
X005258Y012092D01*
X005337Y012170D02*
X005536Y012170D01*
X005490Y012249D02*
X005383Y012249D01*
X005383Y012327D02*
X005490Y012327D01*
X005490Y012406D02*
X005383Y012406D01*
X005347Y012484D02*
X005526Y012484D01*
X005605Y012563D02*
X005268Y012563D01*
X005620Y013505D02*
X003720Y013505D01*
X003720Y013583D02*
X005542Y013583D01*
X005463Y013662D02*
X003720Y013662D01*
X003720Y013740D02*
X005385Y013740D01*
X005306Y013819D02*
X003720Y013819D01*
X003720Y013897D02*
X005228Y013897D01*
X005149Y013976D02*
X003720Y013976D01*
X003720Y014054D02*
X005071Y014054D01*
X004992Y014133D02*
X003720Y014133D01*
X003720Y014211D02*
X004914Y014211D01*
X004535Y014290D02*
X003720Y014290D01*
X003720Y014368D02*
X004457Y014368D01*
X004378Y014447D02*
X003720Y014447D01*
X003720Y014525D02*
X004300Y014525D01*
X004221Y014604D02*
X003720Y014604D01*
X003720Y014682D02*
X004200Y014682D01*
X004145Y014761D02*
X003720Y014761D01*
X003720Y014839D02*
X004130Y014839D01*
X004130Y014918D02*
X003720Y014918D01*
X003720Y014996D02*
X004130Y014996D01*
X004197Y015075D02*
X003720Y015075D01*
X003720Y015153D02*
X004275Y015153D01*
X004030Y015389D02*
X006610Y015389D01*
X006610Y015467D02*
X004030Y015467D01*
X004030Y015546D02*
X006610Y015546D01*
X006610Y015624D02*
X004014Y015624D01*
X003935Y015703D02*
X006610Y015703D01*
X006610Y015781D02*
X003430Y015781D01*
X003430Y015703D02*
X003565Y015703D01*
X003486Y015624D02*
X003430Y015624D01*
X003470Y015546D02*
X003360Y015546D01*
X003428Y015467D02*
X003281Y015467D01*
X003350Y015389D02*
X003120Y015389D01*
X003120Y015310D02*
X003300Y015310D01*
X003300Y015232D02*
X003120Y015232D01*
X003120Y015153D02*
X003300Y015153D01*
X003300Y015075D02*
X003120Y015075D01*
X003120Y014996D02*
X003300Y014996D01*
X003300Y014918D02*
X003120Y014918D01*
X003120Y014839D02*
X003300Y014839D01*
X003300Y014761D02*
X003120Y014761D01*
X003120Y014682D02*
X003300Y014682D01*
X003300Y014604D02*
X003120Y014604D01*
X003120Y014525D02*
X003300Y014525D01*
X003300Y014447D02*
X003120Y014447D01*
X003120Y014368D02*
X003300Y014368D01*
X003300Y014290D02*
X003120Y014290D01*
X003120Y014211D02*
X003300Y014211D01*
X003300Y014133D02*
X003120Y014133D01*
X003145Y014054D02*
X003300Y014054D01*
X003300Y013976D02*
X003223Y013976D01*
X003720Y013426D02*
X005699Y013426D01*
X005777Y013348D02*
X003720Y013348D01*
X003720Y013269D02*
X005856Y013269D01*
X005934Y013191D02*
X003720Y013191D01*
X003720Y013112D02*
X006013Y013112D01*
X006091Y013034D02*
X003720Y013034D01*
X003670Y012955D02*
X006170Y012955D01*
X006248Y012877D02*
X004246Y012877D01*
X004324Y012798D02*
X006327Y012798D01*
X006405Y012720D02*
X004359Y012720D01*
X004359Y012641D02*
X006484Y012641D01*
X006540Y012563D02*
X006375Y012563D01*
X006454Y012484D02*
X006540Y012484D01*
X006540Y012406D02*
X006490Y012406D01*
X006490Y012327D02*
X006540Y012327D01*
X006540Y012249D02*
X006490Y012249D01*
X006444Y012170D02*
X006540Y012170D01*
X006540Y012092D02*
X006366Y012092D01*
X006360Y012013D02*
X006540Y012013D01*
X006540Y011935D02*
X006360Y011935D01*
X006360Y011856D02*
X006540Y011856D01*
X006540Y011778D02*
X006360Y011778D01*
X006360Y011699D02*
X006540Y011699D01*
X006540Y011621D02*
X006360Y011621D01*
X006360Y011542D02*
X006540Y011542D01*
X006540Y011464D02*
X006360Y011464D01*
X006360Y011385D02*
X006540Y011385D01*
X006540Y011307D02*
X006360Y011307D01*
X006360Y011228D02*
X006540Y011228D01*
X006540Y011150D02*
X006360Y011150D01*
X006428Y011071D02*
X006554Y011071D01*
X006506Y010993D02*
X006632Y010993D01*
X006585Y010914D02*
X006711Y010914D01*
X006663Y010836D02*
X006789Y010836D01*
X006840Y010757D02*
X006720Y010757D01*
X006720Y010679D02*
X006840Y010679D01*
X006840Y010600D02*
X006720Y010600D01*
X006720Y010522D02*
X006840Y010522D01*
X006840Y010443D02*
X006720Y010443D01*
X006774Y010365D02*
X006840Y010365D01*
X006599Y010183D02*
X006599Y010158D01*
X006599Y010183D02*
X006510Y010272D01*
X007065Y009030D02*
X007990Y009030D01*
X007990Y008952D02*
X006987Y008952D01*
X006908Y008873D02*
X007990Y008873D01*
X007990Y008010D02*
X006091Y008010D01*
X005971Y007931D02*
X007990Y007931D01*
X007549Y008795D02*
X006830Y008795D01*
X007144Y009109D02*
X007550Y009109D01*
X007471Y009187D02*
X007222Y009187D01*
X007301Y009266D02*
X007393Y009266D01*
X007379Y009344D02*
X007380Y009344D01*
X008510Y009344D02*
X008850Y009344D01*
X008850Y009266D02*
X008510Y009266D01*
X008510Y009187D02*
X008850Y009187D01*
X008850Y009109D02*
X008510Y009109D01*
X008510Y009030D02*
X008850Y009030D01*
X008850Y008952D02*
X008510Y008952D01*
X008510Y008873D02*
X008850Y008873D01*
X008850Y008795D02*
X008510Y008795D01*
X008510Y008716D02*
X008850Y008716D01*
X008850Y008638D02*
X008510Y008638D01*
X008510Y008559D02*
X008850Y008559D01*
X008850Y008481D02*
X008510Y008481D01*
X008510Y008402D02*
X008850Y008402D01*
X008850Y008324D02*
X008510Y008324D01*
X008510Y008245D02*
X008850Y008245D01*
X008850Y008167D02*
X008510Y008167D01*
X008510Y008088D02*
X008850Y008088D01*
X008850Y008010D02*
X008510Y008010D01*
X008510Y007931D02*
X008850Y007931D01*
X008850Y007853D02*
X008510Y007853D01*
X008510Y007774D02*
X008850Y007774D01*
X008850Y007696D02*
X008510Y007696D01*
X008510Y007617D02*
X008850Y007617D01*
X008850Y007539D02*
X008510Y007539D01*
X008510Y007460D02*
X008850Y007460D01*
X008850Y007382D02*
X008510Y007382D01*
X008510Y007303D02*
X008850Y007303D01*
X008850Y007225D02*
X008510Y007225D01*
X008510Y007146D02*
X008850Y007146D01*
X008850Y007068D02*
X008510Y007068D01*
X008510Y006989D02*
X008850Y006989D01*
X008850Y006911D02*
X008510Y006911D01*
X008510Y006832D02*
X008850Y006832D01*
X008850Y006754D02*
X008510Y006754D01*
X008510Y006675D02*
X008850Y006675D01*
X008850Y006597D02*
X008510Y006597D01*
X008510Y006518D02*
X008850Y006518D01*
X008850Y006440D02*
X008510Y006440D01*
X008510Y006361D02*
X008850Y006361D01*
X008850Y006283D02*
X008510Y006283D01*
X008510Y006204D02*
X008850Y006204D01*
X008850Y006126D02*
X008522Y006126D01*
X008600Y006047D02*
X008850Y006047D01*
X008850Y005969D02*
X008607Y005969D01*
X008607Y005890D02*
X008850Y005890D01*
X008850Y005812D02*
X008607Y005812D01*
X008596Y005733D02*
X008850Y005733D01*
X008850Y005655D02*
X008518Y005655D01*
X008439Y005576D02*
X008850Y005576D01*
X008850Y005498D02*
X008220Y005498D01*
X008220Y005419D02*
X008850Y005419D01*
X008850Y005341D02*
X008220Y005341D01*
X008204Y005262D02*
X008850Y005262D01*
X008850Y005184D02*
X008125Y005184D01*
X008047Y005105D02*
X008850Y005105D01*
X008850Y005027D02*
X006472Y005027D01*
X006394Y005105D02*
X007553Y005105D01*
X007475Y005184D02*
X006315Y005184D01*
X006237Y005262D02*
X007396Y005262D01*
X007380Y005341D02*
X006158Y005341D01*
X006080Y005419D02*
X007380Y005419D01*
X007380Y005498D02*
X006001Y005498D01*
X005923Y005576D02*
X007380Y005576D01*
X006880Y003928D02*
X008850Y003928D01*
X008850Y004006D02*
X005401Y004006D01*
X005813Y002907D02*
X006787Y002907D01*
X006709Y002986D02*
X005891Y002986D01*
X005970Y003064D02*
X006630Y003064D01*
X006552Y003143D02*
X006048Y003143D01*
X006133Y002593D02*
X005168Y002593D01*
X005275Y002515D02*
X006133Y002515D01*
X006133Y002436D02*
X005354Y002436D01*
X005432Y002358D02*
X006133Y002358D01*
X006172Y002279D02*
X005487Y002279D01*
X005510Y002201D02*
X006172Y002201D01*
X006172Y002122D02*
X005510Y002122D01*
X005510Y002044D02*
X006172Y002044D01*
X006095Y001965D02*
X005510Y001965D01*
X005510Y001887D02*
X006017Y001887D01*
X005734Y002829D02*
X006321Y002829D01*
X006659Y002829D02*
X006866Y002829D01*
X008038Y001808D02*
X008850Y001808D01*
X008850Y001730D02*
X008116Y001730D01*
X008195Y001651D02*
X008850Y001651D01*
X008850Y001573D02*
X008220Y001573D01*
X008220Y001494D02*
X008850Y001494D01*
X008850Y001416D02*
X008220Y001416D01*
X008220Y001337D02*
X008850Y001337D01*
X008850Y001259D02*
X008200Y001259D01*
X008122Y001180D02*
X008850Y001180D01*
X008850Y001102D02*
X008043Y001102D01*
X008850Y001023D02*
X005378Y001023D01*
X005398Y000945D02*
X008850Y000945D01*
X008850Y000866D02*
X005418Y000866D01*
X005438Y000788D02*
X008850Y000788D01*
X008850Y009423D02*
X008510Y009423D01*
X008510Y009501D02*
X008850Y009501D01*
X008850Y009580D02*
X008510Y009580D01*
X008510Y009658D02*
X008850Y009658D01*
X008850Y009737D02*
X008510Y009737D01*
X008510Y009815D02*
X008850Y009815D01*
X008850Y009894D02*
X008510Y009894D01*
X008510Y009972D02*
X008850Y009972D01*
X008850Y010051D02*
X008510Y010051D01*
X008510Y010129D02*
X008850Y010129D01*
X008850Y010208D02*
X008510Y010208D01*
X008510Y010286D02*
X008850Y010286D01*
X008850Y010365D02*
X008510Y010365D01*
X008510Y010443D02*
X008850Y010443D01*
X008850Y010522D02*
X008510Y010522D01*
X008510Y010600D02*
X008850Y010600D01*
X008850Y010679D02*
X008510Y010679D01*
X008510Y010757D02*
X008850Y010757D01*
X008850Y010836D02*
X008510Y010836D01*
X008510Y010914D02*
X008850Y010914D01*
X008850Y010993D02*
X008510Y010993D01*
X008510Y011071D02*
X008850Y011071D01*
X008850Y011150D02*
X008510Y011150D01*
X008510Y011228D02*
X008850Y011228D01*
X008850Y011307D02*
X008510Y011307D01*
X008510Y011385D02*
X008850Y011385D01*
X008850Y011464D02*
X008510Y011464D01*
X008510Y011542D02*
X008850Y011542D01*
X008850Y011621D02*
X008510Y011621D01*
X008510Y011699D02*
X008850Y011699D01*
X008850Y011778D02*
X008504Y011778D01*
X008472Y011856D02*
X008850Y011856D01*
X008850Y011935D02*
X008395Y011935D01*
X008317Y012013D02*
X008850Y012013D01*
X008850Y012092D02*
X008238Y012092D01*
X008160Y012170D02*
X008850Y012170D01*
X008850Y012249D02*
X008191Y012249D01*
X008220Y012327D02*
X008850Y012327D01*
X008850Y012406D02*
X008220Y012406D01*
X008220Y012484D02*
X008850Y012484D01*
X008850Y012563D02*
X008220Y012563D01*
X008205Y012641D02*
X008850Y012641D01*
X008850Y012720D02*
X008126Y012720D01*
X008048Y012798D02*
X008850Y012798D01*
X008850Y012877D02*
X007550Y012877D01*
X007550Y012955D02*
X008850Y012955D01*
X008850Y013034D02*
X007976Y013034D01*
X008054Y013112D02*
X008850Y013112D01*
X008850Y013191D02*
X008133Y013191D01*
X008211Y013269D02*
X008850Y013269D01*
X008850Y013348D02*
X008220Y013348D01*
X008220Y013426D02*
X008850Y013426D01*
X008850Y013505D02*
X008220Y013505D01*
X008220Y013583D02*
X008254Y013583D01*
X008064Y013819D02*
X008027Y013819D01*
X008064Y013897D02*
X007130Y013897D01*
X007130Y013819D02*
X007573Y013819D01*
X007494Y013740D02*
X007130Y013740D01*
X007130Y013662D02*
X007416Y013662D01*
X007380Y013583D02*
X007130Y013583D01*
X007130Y013505D02*
X007380Y013505D01*
X007380Y013426D02*
X007204Y013426D01*
X007282Y013348D02*
X007380Y013348D01*
X007389Y013269D02*
X007361Y013269D01*
X007439Y013191D02*
X007467Y013191D01*
X007513Y013112D02*
X007546Y013112D01*
X007546Y013034D02*
X007624Y013034D01*
X007552Y012798D02*
X007550Y012798D01*
X007130Y013976D02*
X008064Y013976D01*
X008064Y014054D02*
X007996Y014054D01*
X007604Y014054D02*
X007130Y014054D01*
X007130Y014133D02*
X007525Y014133D01*
X007447Y014211D02*
X007130Y014211D01*
X007130Y014290D02*
X007380Y014290D01*
X007380Y014368D02*
X007130Y014368D01*
X007130Y014447D02*
X007380Y014447D01*
X007380Y014525D02*
X007130Y014525D01*
X007130Y014604D02*
X007380Y014604D01*
X007436Y014682D02*
X007130Y014682D01*
X007130Y014761D02*
X007515Y014761D01*
X007593Y014839D02*
X007130Y014839D01*
X007130Y014918D02*
X008064Y014918D01*
X008064Y014996D02*
X007130Y014996D01*
X007130Y015075D02*
X007583Y015075D01*
X007505Y015153D02*
X007130Y015153D01*
X007130Y015232D02*
X007426Y015232D01*
X007380Y015310D02*
X007130Y015310D01*
X007130Y015389D02*
X007380Y015389D01*
X007380Y015467D02*
X007130Y015467D01*
X007130Y015546D02*
X007380Y015546D01*
X007380Y015624D02*
X007130Y015624D01*
X007130Y015703D02*
X007457Y015703D01*
X007535Y015781D02*
X007130Y015781D01*
X007130Y015860D02*
X007614Y015860D01*
X007563Y016095D02*
X007130Y016095D01*
X007130Y016017D02*
X008064Y016017D01*
X008064Y016095D02*
X008037Y016095D01*
X008064Y015938D02*
X007130Y015938D01*
X007130Y016174D02*
X007484Y016174D01*
X007406Y016252D02*
X007130Y016252D01*
X007130Y016331D02*
X007380Y016331D01*
X007380Y016409D02*
X007130Y016409D01*
X007112Y016488D02*
X007380Y016488D01*
X007380Y016566D02*
X007064Y016566D01*
X006985Y016645D02*
X007399Y016645D01*
X007477Y016723D02*
X006907Y016723D01*
X006828Y016802D02*
X007556Y016802D01*
X007621Y017037D02*
X006593Y017037D01*
X006671Y016959D02*
X008470Y016959D01*
X008470Y017037D02*
X008550Y017037D01*
X008550Y017116D02*
X008470Y017116D01*
X008470Y017194D02*
X008550Y017194D01*
X008550Y017273D02*
X008470Y017273D01*
X008470Y017351D02*
X008550Y017351D01*
X008691Y017351D02*
X008850Y017351D01*
X008850Y017273D02*
X008770Y017273D01*
X008848Y017194D02*
X008850Y017194D01*
X008850Y017430D02*
X008220Y017430D01*
X008220Y017508D02*
X008850Y017508D01*
X008850Y017587D02*
X008768Y017587D01*
X008847Y017665D02*
X008850Y017665D01*
X008510Y017959D02*
X007223Y017959D01*
X006990Y018192D01*
X006630Y018192D01*
X006270Y018552D01*
X006030Y018672D02*
X006270Y018912D01*
X006450Y018912D01*
X006750Y019212D01*
X006750Y019572D01*
X006750Y019812D01*
X006930Y019992D01*
X008477Y019992D01*
X008510Y019959D01*
X008510Y018959D02*
X007483Y018959D01*
X007290Y019152D01*
X007402Y020256D02*
X005763Y020256D01*
X005796Y020334D02*
X007380Y020334D01*
X007380Y020413D02*
X005820Y020413D01*
X005820Y020491D02*
X007380Y020491D01*
X007380Y020570D02*
X005820Y020570D01*
X005805Y020648D02*
X007402Y020648D01*
X007481Y020727D02*
X005772Y020727D01*
X005740Y020805D02*
X007559Y020805D01*
X006804Y020177D02*
X005723Y020177D01*
X005644Y020099D02*
X006725Y020099D01*
X006647Y020020D02*
X005544Y020020D01*
X005531Y019942D02*
X006568Y019942D01*
X006530Y019863D02*
X005630Y019863D01*
X005695Y019785D02*
X006530Y019785D01*
X006488Y019706D02*
X005738Y019706D01*
X005765Y019628D02*
X006470Y019628D01*
X006470Y019549D02*
X005779Y019549D01*
X005769Y019392D02*
X006530Y019392D01*
X006530Y019314D02*
X005745Y019314D01*
X005706Y019235D02*
X006462Y019235D01*
X006383Y019157D02*
X005646Y019157D01*
X005554Y019078D02*
X006125Y019078D01*
X006046Y019000D02*
X005358Y019000D01*
X005310Y019000D02*
X005230Y019000D01*
X005182Y019000D02*
X004645Y019000D01*
X004724Y019078D02*
X004986Y019078D01*
X004894Y019157D02*
X004764Y019157D01*
X004796Y019235D02*
X004834Y019235D01*
X004546Y018921D02*
X005968Y018921D01*
X006030Y018672D02*
X006030Y018492D01*
X006540Y017982D01*
X006540Y017962D01*
X006550Y017952D01*
X006357Y017273D02*
X006938Y017273D01*
X007070Y017452D02*
X006990Y017532D01*
X006210Y017532D01*
X005920Y017822D01*
X005920Y017952D01*
X005918Y018293D02*
X005877Y018293D01*
X005839Y018372D02*
X005798Y018372D01*
X005810Y018450D02*
X005748Y018450D01*
X005810Y018529D02*
X005669Y018529D01*
X005310Y019078D02*
X005230Y019078D01*
X005230Y019157D02*
X005310Y019157D01*
X005310Y019235D02*
X005230Y019235D01*
X005230Y019314D02*
X005310Y019314D01*
X005310Y019392D02*
X005230Y019392D01*
X005310Y019471D02*
X006470Y019471D01*
X005430Y017652D02*
X005610Y017472D01*
X005610Y016992D01*
X005790Y016812D01*
X006030Y016812D01*
X006510Y016332D01*
X006510Y016152D01*
X006610Y015860D02*
X003418Y015860D01*
X003340Y015938D02*
X004133Y015938D01*
X003964Y015310D02*
X006610Y015310D01*
X006610Y015232D02*
X003886Y015232D01*
X004545Y015153D02*
X004575Y015153D01*
X004845Y015153D02*
X004875Y015153D01*
X005145Y015153D02*
X005195Y015153D01*
X005465Y015153D02*
X006610Y015153D01*
X006610Y015075D02*
X005543Y015075D01*
X005610Y014996D02*
X006610Y014996D01*
X006610Y014918D02*
X005610Y014918D01*
X005610Y014839D02*
X006610Y014839D01*
X006610Y014761D02*
X005595Y014761D01*
X005577Y014682D02*
X006610Y014682D01*
X006610Y014604D02*
X005655Y014604D01*
X005734Y014525D02*
X006610Y014525D01*
X006610Y014447D02*
X005812Y014447D01*
X005891Y014368D02*
X006610Y014368D01*
X006610Y014290D02*
X005969Y014290D01*
X006048Y014211D02*
X006610Y014211D01*
X006610Y014133D02*
X006126Y014133D01*
X006205Y014054D02*
X006610Y014054D01*
X006610Y013976D02*
X006283Y013976D01*
X006362Y013897D02*
X006610Y013897D01*
X006610Y013819D02*
X006440Y013819D01*
X006519Y013740D02*
X006610Y013740D01*
X006610Y013662D02*
X006597Y013662D01*
X006045Y012563D02*
X005935Y012563D01*
X005910Y016152D02*
X005910Y016212D01*
X005730Y016392D01*
X005910Y016572D02*
X004890Y016572D01*
X004770Y016692D01*
X004978Y016880D02*
X005411Y016880D01*
X005390Y016959D02*
X004899Y016959D01*
X005050Y016802D02*
X005489Y016802D01*
X005430Y017652D02*
X005430Y017772D01*
X005910Y016572D02*
X006210Y016272D01*
X006210Y016152D01*
X006514Y017116D02*
X007542Y017116D01*
X007464Y017194D02*
X006436Y017194D01*
X006750Y016880D02*
X008104Y016880D01*
X008104Y016802D02*
X008044Y016802D01*
X008123Y016723D02*
X008172Y016723D01*
X008201Y016645D02*
X008250Y016645D01*
X008220Y016566D02*
X008329Y016566D01*
X008220Y016488D02*
X008850Y016488D01*
X008850Y016566D02*
X008691Y016566D01*
X008770Y016645D02*
X008850Y016645D01*
X008848Y016723D02*
X008850Y016723D01*
X008850Y016409D02*
X008220Y016409D01*
X008220Y016331D02*
X008252Y016331D01*
X008470Y016566D02*
X008550Y016566D01*
X008550Y016645D02*
X008470Y016645D01*
X008470Y016723D02*
X008550Y016723D01*
X008550Y016802D02*
X008470Y016802D01*
X008470Y016880D02*
X008550Y016880D01*
X008329Y017351D02*
X008220Y017351D01*
X008215Y017273D02*
X008250Y017273D01*
X008172Y017194D02*
X008136Y017194D01*
X008104Y017116D02*
X008058Y017116D01*
X008104Y017037D02*
X007979Y017037D01*
X007800Y017452D02*
X007070Y017452D01*
X007986Y015860D02*
X008064Y015860D01*
X008064Y015075D02*
X008017Y015075D01*
X008007Y014839D02*
X008064Y014839D01*
X008766Y013583D02*
X008850Y013583D01*
X008844Y013662D02*
X008850Y013662D01*
X008846Y016252D02*
X008850Y016252D01*
X008850Y016331D02*
X008768Y016331D01*
X008252Y017587D02*
X008220Y017587D01*
X003913Y012877D02*
X003592Y012877D01*
X003513Y012798D02*
X003834Y012798D01*
X003799Y012720D02*
X003435Y012720D01*
X003488Y012641D02*
X003567Y012641D01*
X003630Y016932D02*
X003390Y017172D01*
X003390Y017772D01*
X003510Y017892D01*
X003630Y017892D01*
X003046Y019000D02*
X000805Y019000D01*
X000805Y019078D02*
X001580Y019078D01*
X001501Y019157D02*
X000805Y019157D01*
X000805Y019235D02*
X001423Y019235D01*
X001380Y019314D02*
X000805Y019314D01*
X000805Y019392D02*
X001380Y019392D01*
X001380Y019471D02*
X000805Y019471D01*
X000805Y019549D02*
X001380Y019549D01*
X001382Y019628D02*
X000805Y019628D01*
X000805Y019706D02*
X001460Y019706D01*
X001539Y019785D02*
X000805Y019785D01*
X000805Y019863D02*
X001617Y019863D01*
X001643Y020072D02*
X001760Y020072D01*
X001760Y020412D01*
X001840Y020412D01*
X001840Y020072D01*
X001957Y020072D01*
X002180Y020295D01*
X002180Y020412D01*
X001840Y020412D01*
X001840Y020492D01*
X002180Y020492D01*
X002180Y020610D01*
X001957Y020832D01*
X001840Y020832D01*
X001840Y020492D01*
X001760Y020492D01*
X001760Y020412D01*
X001420Y020412D01*
X001420Y020295D01*
X001643Y020072D01*
X001616Y020099D02*
X000805Y020099D01*
X000805Y020177D02*
X001538Y020177D01*
X001459Y020256D02*
X000805Y020256D01*
X000805Y020334D02*
X001420Y020334D01*
X001420Y020492D02*
X001760Y020492D01*
X001760Y020832D01*
X001643Y020832D01*
X001420Y020610D01*
X001420Y020492D01*
X001420Y020570D02*
X000805Y020570D01*
X000805Y020648D02*
X001459Y020648D01*
X001537Y020727D02*
X000805Y020727D01*
X000805Y020805D02*
X001616Y020805D01*
X001760Y020805D02*
X001840Y020805D01*
X001840Y020727D02*
X001760Y020727D01*
X001760Y020648D02*
X001840Y020648D01*
X001840Y020570D02*
X001760Y020570D01*
X001760Y020491D02*
X000805Y020491D01*
X000805Y020413D02*
X001760Y020413D01*
X001760Y020334D02*
X001840Y020334D01*
X001840Y020256D02*
X001760Y020256D01*
X001760Y020177D02*
X001840Y020177D01*
X001840Y020099D02*
X001760Y020099D01*
X001840Y020413D02*
X002213Y020413D01*
X002210Y020491D02*
X001840Y020491D01*
X001984Y020805D02*
X002367Y020805D01*
X002289Y020727D02*
X002063Y020727D01*
X002141Y020648D02*
X002210Y020648D01*
X002210Y020570D02*
X002180Y020570D01*
X002180Y020334D02*
X002280Y020334D01*
X002349Y020256D02*
X002141Y020256D01*
D14*
X002490Y020532D03*
X003630Y017892D03*
X003630Y017592D03*
X003870Y016932D03*
X004410Y016572D03*
X004770Y016692D03*
X005370Y017412D03*
X005430Y017772D03*
X005490Y018312D03*
X005010Y018252D03*
X005920Y017952D03*
X006270Y018552D03*
X006550Y017952D03*
X007290Y019152D03*
X006750Y019572D03*
X006510Y016152D03*
X006210Y016152D03*
X005910Y016152D03*
X005610Y016152D03*
X005850Y015492D03*
X005330Y014892D03*
X005010Y014892D03*
X004710Y014892D03*
X004410Y014892D03*
X003750Y015492D03*
X003150Y015732D03*
X002850Y015972D03*
X002670Y016332D03*
X001470Y015972D03*
X001470Y014892D03*
X002250Y012972D03*
X002730Y013332D03*
X003370Y012363D03*
X003685Y012363D03*
X004079Y012647D03*
X004473Y012332D03*
X004788Y012332D03*
X005103Y012332D03*
X005770Y012332D03*
X006210Y012332D03*
X005790Y011052D03*
X005399Y010852D03*
X006284Y010631D03*
X006813Y010792D03*
X006993Y006300D03*
X006680Y005392D03*
X006450Y004392D03*
X006090Y004392D03*
X005670Y004392D03*
X005370Y004692D03*
X005350Y004972D03*
X005103Y004599D03*
X004890Y004412D03*
X005310Y004392D03*
X005110Y005612D03*
X004950Y005832D03*
X004390Y004512D03*
X004050Y004312D03*
X003750Y004452D03*
X003690Y004752D03*
X003950Y001692D03*
X003450Y001182D03*
X002910Y001452D03*
X006030Y002372D03*
D15*
X000970Y002772D03*
X001290Y003192D03*
X002490Y002992D03*
X003210Y003012D03*
X003870Y002952D03*
X003570Y005712D03*
X005250Y001612D03*
X005670Y000912D03*
X006490Y002492D03*
X006090Y003072D03*
X006690Y003612D03*
X008190Y002952D03*
X008370Y001032D03*
X008250Y005892D03*
X003690Y018432D03*
X002550Y000912D03*
D16*
X005670Y000912D01*
X005250Y001612D02*
X006110Y001612D01*
X006432Y001934D01*
X006432Y002434D01*
X006490Y002492D01*
X007110Y002952D02*
X006630Y003432D01*
X006450Y003432D01*
X005970Y003432D01*
X005550Y003012D01*
X003870Y003012D01*
X003870Y002952D02*
X003570Y002652D01*
X002970Y002652D01*
X002850Y002772D01*
X002850Y003192D01*
X002730Y003312D01*
X002250Y003312D01*
X002010Y003072D01*
X001470Y003072D01*
X001290Y003192D01*
X001470Y002832D02*
X001410Y002772D01*
X000970Y002772D01*
X001470Y002832D02*
X002310Y002832D01*
X002790Y002352D01*
X005070Y002352D01*
X005250Y002172D01*
X005250Y001612D01*
X007110Y002952D02*
X008190Y002952D01*
X008270Y002952D01*
X008430Y001212D02*
X008430Y001152D01*
X008490Y001092D01*
X008250Y005892D02*
X008250Y011712D01*
X007950Y012012D01*
X007650Y012012D01*
X007290Y012372D01*
X007290Y012972D01*
X006870Y013392D01*
X006870Y016392D01*
X006090Y017172D01*
X006090Y017352D01*
X005670Y017772D01*
X005670Y018132D01*
X005490Y018312D01*
X002550Y000912D02*
X002550Y000852D01*
D17*
X002310Y002832D02*
X002490Y002992D01*
X003570Y005712D02*
X003570Y005772D01*
X003690Y005892D01*
X004890Y005892D01*
X004950Y005832D01*
X005110Y005612D02*
X005310Y005772D01*
X005339Y007324D02*
X005496Y007324D01*
X005654Y007481D01*
X005654Y007954D01*
X005969Y008269D01*
X005654Y008426D02*
X005654Y009214D01*
X004079Y009214D01*
X004394Y008269D02*
X003764Y008269D01*
X003764Y007954D01*
X004079Y007639D02*
X003292Y007639D01*
X003134Y007796D01*
X003082Y007796D01*
X002610Y007836D01*
X002610Y007317D02*
X002918Y007324D01*
X003449Y007324D01*
X003764Y007009D01*
X004394Y007009D01*
X004079Y007639D02*
X005339Y007639D01*
X005339Y008111D01*
X005654Y008426D01*
X005890Y009686D02*
X006126Y009922D01*
X006756Y009922D01*
X006813Y009978D01*
X006813Y010792D01*
X005790Y010932D02*
X005730Y010872D01*
X005790Y010932D02*
X005790Y011052D01*
X005399Y010852D02*
X005339Y010792D01*
X005339Y010158D01*
X006690Y003612D02*
X006670Y003432D01*
X006450Y003432D01*
X003870Y003012D02*
X003870Y002952D01*
X001470Y015852D02*
X001470Y015972D01*
X003690Y018432D02*
X003690Y018492D01*
D18*
X003764Y010158D03*
X003764Y009529D03*
X004079Y009529D03*
X004079Y009214D03*
X004079Y008584D03*
X003764Y008584D03*
X003764Y008269D03*
X003764Y007954D03*
X004079Y007954D03*
X004079Y007639D03*
X004394Y007324D03*
X004394Y007009D03*
X004709Y006694D03*
X004709Y007954D03*
X004709Y008269D03*
X004394Y008269D03*
X004394Y008899D03*
X004394Y009529D03*
X004394Y010158D03*
X004709Y010158D03*
X005024Y010158D03*
X005024Y009843D03*
X005339Y010158D03*
X005654Y009214D03*
X005339Y008584D03*
X005339Y007639D03*
X005339Y007324D03*
X005339Y007009D03*
X005969Y008269D03*
X006284Y008269D03*
X006284Y008899D03*
X006284Y009214D03*
X006284Y009529D03*
X006284Y010158D03*
X006599Y010158D03*
X006599Y009529D03*
X006599Y009214D03*
X005969Y010158D03*
X004079Y010158D03*
X003449Y010158D03*
X003449Y009843D03*
X003134Y010158D03*
X002819Y009529D03*
X002819Y009214D03*
X002819Y008584D03*
X003134Y008584D03*
X003449Y007324D03*
D19*
X002741Y006300D03*
X002610Y007317D03*
X002610Y007836D03*
X002610Y008316D03*
X003930Y014952D03*
D20*
X003510Y015252D02*
X003750Y015492D01*
X003510Y015252D02*
X003510Y013092D01*
X002970Y012552D01*
X002730Y012552D01*
X002490Y012312D01*
X002490Y009132D01*
X002610Y009012D01*
X004281Y009012D01*
X004394Y008899D01*
X004867Y008426D02*
X004709Y008269D01*
X004079Y008584D02*
X004079Y008743D01*
X003930Y008892D01*
X002550Y008892D01*
X002370Y009072D01*
X002370Y012372D01*
X002670Y012672D01*
X002910Y012672D01*
X003390Y013152D01*
X003390Y013512D01*
X002910Y013992D01*
X002910Y015492D01*
X003150Y015732D01*
X002850Y015972D02*
X002790Y015912D01*
X002790Y013932D01*
X003270Y013452D01*
X003270Y013212D01*
X002910Y012852D01*
X002670Y012852D01*
X002250Y012432D01*
X002250Y009012D01*
X002490Y008772D01*
X002946Y008772D01*
X003134Y008584D01*
X002819Y008584D02*
X002499Y008584D01*
X002130Y008952D01*
X002130Y012792D01*
X002010Y012912D01*
X002010Y013092D01*
X002190Y013272D01*
X002370Y013272D01*
X002670Y012972D01*
X002850Y012972D01*
X003150Y013272D01*
X003150Y013392D01*
X002610Y013932D01*
X002610Y016272D01*
X002670Y016332D01*
X001800Y013452D02*
X001470Y013452D01*
X000990Y012972D01*
X000990Y004212D01*
X001350Y003852D01*
X004950Y003852D01*
X005310Y004212D01*
X005310Y004392D01*
X005370Y004392D01*
X005610Y004632D01*
X005610Y004872D01*
X005450Y005032D01*
X005350Y004972D01*
X005130Y004872D02*
X005310Y004692D01*
X005370Y004692D01*
X005103Y004599D02*
X005103Y004239D01*
X005130Y004212D01*
X004890Y003972D01*
X001590Y003972D01*
X001110Y004452D01*
X001110Y011762D01*
X001800Y012452D01*
X001800Y011452D02*
X001230Y010882D01*
X001230Y004512D01*
X001650Y004092D01*
X004770Y004092D01*
X004890Y004212D01*
X004890Y004412D01*
X004650Y004392D02*
X004650Y004512D01*
X005010Y004872D01*
X005130Y004872D01*
X004650Y004392D02*
X004590Y004312D01*
X004310Y004312D01*
X004130Y004512D01*
X003930Y004512D01*
X003870Y004452D01*
X003750Y004452D01*
X003690Y004752D02*
X002010Y004752D01*
X001950Y004812D01*
X001530Y004812D01*
X001350Y004992D01*
X001350Y010002D01*
X001800Y010452D01*
X001800Y009452D02*
X001830Y009422D01*
X001830Y008892D01*
X002130Y008592D01*
X002130Y008052D01*
X002370Y007812D01*
X002370Y005772D01*
X002790Y005352D01*
X004050Y005352D01*
X004110Y005412D01*
X005790Y005412D01*
X006450Y004752D01*
X006450Y004392D01*
X006390Y004392D01*
X006090Y004392D02*
X006090Y004872D01*
X005670Y005292D01*
X004170Y005292D01*
X004110Y005232D01*
X002730Y005232D01*
X002250Y005712D01*
X002250Y007692D01*
X001830Y008112D01*
X001830Y008422D01*
X001800Y008452D01*
X001800Y007452D02*
X002130Y007122D01*
X002130Y005652D01*
X002670Y005112D01*
X004170Y005112D01*
X004230Y005172D01*
X005610Y005172D01*
X005918Y004864D01*
X005918Y004640D01*
X005670Y004392D01*
X005610Y004392D01*
X004390Y004512D02*
X004390Y004712D01*
X004110Y004992D01*
X001650Y004992D01*
X001470Y005172D01*
X001470Y005772D01*
X001800Y006102D01*
X001800Y006452D01*
X002010Y004752D02*
X002550Y004212D01*
X003950Y004212D01*
X004050Y004312D01*
X002741Y006221D02*
X002741Y006300D01*
X002819Y009214D02*
X003764Y009214D01*
X004079Y009529D01*
X004079Y010158D02*
X004079Y012647D01*
X003764Y012284D02*
X003685Y012363D01*
X003764Y012284D02*
X003764Y010158D01*
X003764Y009529D02*
X003607Y009371D01*
X002992Y009371D01*
X002819Y009529D01*
X003449Y010158D02*
X003449Y012284D01*
X003370Y012363D01*
X004394Y012284D02*
X004394Y010158D01*
X004709Y010158D02*
X004709Y012284D01*
X004788Y012332D01*
X005024Y012284D02*
X005103Y012332D01*
X005024Y012284D02*
X005024Y010158D01*
X005969Y010158D02*
X005969Y010931D01*
X006030Y010992D01*
X006030Y012072D01*
X005770Y012332D01*
X006150Y012272D02*
X006210Y012332D01*
X006150Y012272D02*
X006150Y011052D01*
X006510Y010692D01*
X006510Y010272D01*
X006284Y010158D02*
X006284Y010631D01*
X006750Y011172D02*
X006750Y012672D01*
X004950Y014472D01*
X004650Y014472D01*
X004410Y014712D01*
X004410Y014892D01*
X004710Y014892D02*
X004710Y014712D01*
X004830Y014592D01*
X005010Y014592D01*
X006870Y012732D01*
X006870Y011232D01*
X007170Y010932D01*
X007170Y009863D01*
X006835Y009529D01*
X006599Y009529D01*
X006756Y009702D02*
X006441Y009702D01*
X006284Y009529D01*
X006284Y009214D02*
X006599Y008899D01*
X006636Y008899D01*
X007410Y009672D01*
X007410Y011052D01*
X007110Y011352D01*
X007110Y012852D01*
X005330Y014632D01*
X005330Y014892D01*
X005010Y014892D02*
X005010Y014772D01*
X006990Y012792D01*
X006990Y011292D01*
X007290Y010992D01*
X007290Y009747D01*
X006756Y009214D01*
X006599Y009214D01*
X006756Y009702D02*
X007050Y009980D01*
X007050Y010872D01*
X006750Y011172D01*
X004473Y012332D02*
X004394Y012284D01*
X002250Y012432D02*
X002250Y012972D01*
X004270Y019402D02*
X003680Y019992D01*
X002910Y019992D01*
X002490Y020412D01*
X002490Y020532D01*
D21*
X002910Y001452D02*
X002910Y001392D01*
X003090Y001212D01*
X003450Y001182D01*
M02*
