G75*
%MOIN*%
%OFA0B0*%
%FSLAX24Y24*%
%IPPOS*%
%LPD*%
%AMOC8*
5,1,8,0,0,1.08239X$1,22.5*
%
%ADD10C,0.0000*%
%ADD11C,0.0030*%
%ADD12C,0.0060*%
%ADD13R,0.0236X0.0118*%
%ADD14R,0.0118X0.0236*%
%ADD15C,0.0010*%
%ADD16C,0.0040*%
%ADD17C,0.0079*%
%ADD18C,0.0050*%
%ADD19C,0.0080*%
%ADD20C,0.0141*%
%ADD21C,0.0020*%
%ADD22R,0.0200X0.0200*%
%ADD23C,0.0020*%
D10*
X000615Y000552D02*
X009040Y000552D01*
X009040Y021025D01*
X000615Y021025D01*
X000615Y000552D01*
X004004Y016984D02*
X004004Y018204D01*
X005024Y018204D01*
X005024Y016984D01*
X004004Y016984D01*
X004004Y017144D02*
X004004Y017264D01*
X004004Y017334D02*
X004004Y017454D01*
X004004Y017534D02*
X004004Y017654D01*
X004004Y017704D02*
X004504Y018204D01*
X004474Y018204D02*
X004354Y018204D01*
X004554Y018204D02*
X004674Y018204D01*
X005024Y018044D02*
X005024Y017924D01*
X005024Y017854D02*
X005024Y017734D01*
X005024Y017654D02*
X005024Y017534D01*
X005024Y017454D02*
X005024Y017334D01*
X005024Y017264D02*
X005024Y017144D01*
X004674Y016984D02*
X004554Y016984D01*
X004474Y016984D02*
X004354Y016984D01*
X004004Y017734D02*
X004004Y017854D01*
X004004Y017924D02*
X004004Y018044D01*
D11*
X002895Y017952D02*
X002895Y017904D01*
X002701Y017710D01*
X002701Y017662D01*
X002600Y017662D02*
X002503Y017759D01*
X002552Y017759D02*
X002600Y017807D01*
X002600Y017904D01*
X002552Y017952D01*
X002406Y017952D01*
X002406Y017662D01*
X002406Y017759D02*
X002552Y017759D01*
X002701Y017952D02*
X002895Y017952D01*
X001325Y019295D02*
X001325Y019343D01*
X001276Y019392D01*
X001131Y019392D01*
X001131Y019295D01*
X001179Y019247D01*
X001276Y019247D01*
X001325Y019295D01*
X001228Y019489D02*
X001131Y019392D01*
X001030Y019392D02*
X001030Y019489D01*
X000982Y019537D01*
X000836Y019537D01*
X000836Y019247D01*
X000836Y019343D02*
X000982Y019343D01*
X001030Y019392D01*
X000933Y019343D02*
X001030Y019247D01*
X001228Y019489D02*
X001325Y019537D01*
X001267Y017866D02*
X001170Y017817D01*
X001073Y017721D01*
X001218Y017721D01*
X001267Y017672D01*
X001267Y017624D01*
X001218Y017575D01*
X001122Y017575D01*
X001073Y017624D01*
X001073Y017721D01*
X000972Y017817D02*
X000924Y017866D01*
X000827Y017866D01*
X000779Y017817D01*
X000779Y017624D01*
X000827Y017575D01*
X000924Y017575D01*
X000972Y017624D01*
X000882Y015147D02*
X000737Y015147D01*
X000737Y014857D01*
X000737Y014954D02*
X000882Y014954D01*
X000930Y015002D01*
X000930Y015099D01*
X000882Y015147D01*
X000834Y014954D02*
X000930Y014857D01*
X001032Y014857D02*
X001225Y014857D01*
X001128Y014857D02*
X001128Y015147D01*
X001032Y015050D01*
X000956Y012321D02*
X000811Y012321D01*
X000811Y012031D01*
X000811Y012128D02*
X000956Y012128D01*
X001005Y012176D01*
X001005Y012273D01*
X000956Y012321D01*
X000908Y012128D02*
X001005Y012031D01*
X001106Y012176D02*
X001300Y012176D01*
X001251Y012031D02*
X001251Y012321D01*
X001106Y012176D01*
X001128Y010543D02*
X001128Y010398D01*
X001224Y010446D01*
X001273Y010446D01*
X001321Y010398D01*
X001321Y010301D01*
X001273Y010253D01*
X001176Y010253D01*
X001128Y010301D01*
X001128Y010543D02*
X001321Y010543D01*
X001026Y010495D02*
X001026Y010398D01*
X000978Y010349D01*
X000833Y010349D01*
X000833Y010253D02*
X000833Y010543D01*
X000978Y010543D01*
X001026Y010495D01*
X000930Y010349D02*
X001026Y010253D01*
X000930Y009683D02*
X000834Y009683D01*
X000785Y009634D01*
X000785Y009586D01*
X000834Y009489D01*
X000689Y009489D01*
X000689Y009683D01*
X000737Y009388D02*
X000689Y009340D01*
X000689Y009243D01*
X000737Y009195D01*
X000930Y009195D01*
X000979Y009243D01*
X000979Y009340D01*
X000930Y009388D01*
X000930Y009489D02*
X000979Y009538D01*
X000979Y009634D01*
X000930Y009683D01*
X001026Y008501D02*
X001026Y008307D01*
X001026Y008404D02*
X000736Y008404D01*
X000833Y008307D01*
X000833Y008206D02*
X000881Y008158D01*
X000881Y008012D01*
X001026Y008012D02*
X000736Y008012D01*
X000736Y008158D01*
X000784Y008206D01*
X000833Y008206D01*
X000881Y008158D02*
X000929Y008206D01*
X000978Y008206D01*
X001026Y008158D01*
X001026Y008012D01*
X000881Y007814D02*
X000881Y007718D01*
X001026Y007718D02*
X000736Y007718D01*
X000736Y007911D01*
X000996Y007266D02*
X001058Y007266D01*
X001120Y007204D01*
X001120Y007019D01*
X001058Y006898D02*
X000996Y006898D01*
X000935Y006836D01*
X000935Y006713D01*
X000996Y006651D01*
X000935Y006529D02*
X001305Y006282D01*
X001305Y006161D02*
X001058Y006161D01*
X000935Y006038D01*
X001058Y005914D01*
X001305Y005914D01*
X001305Y005793D02*
X000935Y005793D01*
X001058Y005669D01*
X000935Y005546D01*
X001305Y005546D01*
X001305Y005301D02*
X001120Y005301D01*
X000996Y005424D01*
X000935Y005424D01*
X001120Y005301D02*
X000996Y005178D01*
X000935Y005178D01*
X000935Y005056D02*
X000935Y004809D01*
X001305Y004809D01*
X001305Y005056D01*
X001305Y004688D02*
X001120Y004503D01*
X001182Y004441D02*
X000935Y004688D01*
X001120Y004809D02*
X001120Y004933D01*
X000935Y004441D02*
X001305Y004441D01*
X001243Y004319D02*
X000996Y004319D01*
X000935Y004258D01*
X000935Y004134D01*
X000996Y004073D01*
X001243Y004073D01*
X001305Y004134D01*
X001305Y004258D01*
X001243Y004319D01*
X001120Y003951D02*
X001182Y003889D01*
X001182Y003704D01*
X001305Y003704D02*
X000935Y003704D01*
X000935Y003889D01*
X000996Y003951D01*
X001120Y003951D01*
X001120Y005914D02*
X001120Y006161D01*
X000935Y006282D02*
X001305Y006529D01*
X001305Y006651D02*
X001058Y006898D01*
X000935Y007019D02*
X000935Y007204D01*
X000996Y007266D01*
X001120Y007204D02*
X001182Y007266D01*
X001243Y007266D01*
X001305Y007204D01*
X001305Y007019D01*
X000935Y007019D01*
X001305Y006898D02*
X001305Y006651D01*
X002164Y004002D02*
X002115Y003954D01*
X002115Y003857D01*
X002164Y003808D01*
X002164Y003707D02*
X002260Y003707D01*
X002309Y003659D01*
X002309Y003514D01*
X002406Y003514D02*
X002115Y003514D01*
X002115Y003659D01*
X002164Y003707D01*
X002309Y003611D02*
X002406Y003707D01*
X002357Y003808D02*
X002406Y003857D01*
X002406Y003954D01*
X002357Y004002D01*
X002309Y004002D01*
X002260Y003954D01*
X002260Y003905D01*
X002260Y003954D02*
X002212Y004002D01*
X002164Y004002D01*
X002232Y002622D02*
X002184Y002573D01*
X002184Y002380D01*
X002232Y002331D01*
X002329Y002331D01*
X002377Y002380D01*
X002478Y002331D02*
X002672Y002525D01*
X002672Y002573D01*
X002623Y002622D01*
X002527Y002622D01*
X002478Y002573D01*
X002377Y002573D02*
X002329Y002622D01*
X002232Y002622D01*
X002478Y002331D02*
X002672Y002331D01*
X003462Y003562D02*
X003462Y003708D01*
X003511Y003756D01*
X003608Y003756D01*
X003656Y003708D01*
X003656Y003562D01*
X003753Y003562D02*
X003462Y003562D01*
X003656Y003659D02*
X003753Y003756D01*
X003753Y003857D02*
X003559Y004051D01*
X003511Y004051D01*
X003462Y004002D01*
X003462Y003905D01*
X003511Y003857D01*
X003753Y003857D02*
X003753Y004051D01*
X004081Y005411D02*
X004394Y005725D01*
X004394Y005568D02*
X004081Y005568D01*
X004081Y005725D02*
X004394Y005411D01*
X004237Y005411D02*
X004237Y005725D01*
X004733Y002792D02*
X004733Y002550D01*
X004781Y002502D01*
X004878Y002502D01*
X004927Y002550D01*
X004927Y002792D01*
X005028Y002744D02*
X005076Y002792D01*
X005173Y002792D01*
X005221Y002744D01*
X005173Y002647D02*
X005076Y002647D01*
X005028Y002695D01*
X005028Y002744D01*
X005125Y002840D02*
X005125Y002453D01*
X005173Y002502D02*
X005076Y002502D01*
X005028Y002550D01*
X005173Y002502D02*
X005221Y002550D01*
X005221Y002598D01*
X005173Y002647D01*
X005322Y002647D02*
X005516Y002647D01*
X005468Y002502D02*
X005468Y002792D01*
X005322Y002647D01*
X005452Y002263D02*
X005355Y002166D01*
X005452Y002263D02*
X005452Y001972D01*
X005355Y001972D02*
X005549Y001972D01*
X005254Y001972D02*
X005061Y001972D01*
X005061Y002263D01*
X004469Y000918D02*
X004517Y000870D01*
X004517Y000821D01*
X004469Y000773D01*
X004517Y000725D01*
X004517Y000676D01*
X004469Y000628D01*
X004372Y000628D01*
X004323Y000676D01*
X004222Y000676D02*
X004174Y000628D01*
X004077Y000628D01*
X004029Y000676D01*
X004029Y000870D01*
X004077Y000918D01*
X004174Y000918D01*
X004222Y000870D01*
X004323Y000870D02*
X004372Y000918D01*
X004469Y000918D01*
X004469Y000773D02*
X004420Y000773D01*
X005691Y005411D02*
X006005Y005725D01*
X006005Y005568D02*
X005691Y005568D01*
X005691Y005725D02*
X006005Y005411D01*
X005848Y005411D02*
X005848Y005725D01*
X006722Y002486D02*
X006722Y002244D01*
X006771Y002195D01*
X006867Y002195D01*
X006916Y002244D01*
X006916Y002486D01*
X007017Y002437D02*
X007065Y002486D01*
X007162Y002486D01*
X007210Y002437D01*
X007162Y002341D02*
X007210Y002292D01*
X007210Y002244D01*
X007162Y002195D01*
X007065Y002195D01*
X007017Y002244D01*
X007065Y002341D02*
X007017Y002389D01*
X007017Y002437D01*
X007065Y002341D02*
X007162Y002341D01*
X007114Y002534D02*
X007114Y002147D01*
X007312Y002195D02*
X007505Y002195D01*
X007408Y002195D02*
X007408Y002486D01*
X007312Y002389D01*
X008351Y002558D02*
X008399Y002510D01*
X008496Y002510D01*
X008544Y002558D01*
X008646Y002510D02*
X008839Y002510D01*
X008742Y002510D02*
X008742Y002800D01*
X008646Y002703D01*
X008544Y002751D02*
X008496Y002800D01*
X008399Y002800D01*
X008351Y002751D01*
X008351Y002558D01*
X008353Y011067D02*
X008305Y011115D01*
X008305Y011212D01*
X008353Y011261D01*
X008353Y011362D02*
X008402Y011362D01*
X008450Y011410D01*
X008450Y011507D01*
X008498Y011555D01*
X008547Y011555D01*
X008595Y011507D01*
X008595Y011410D01*
X008547Y011362D01*
X008547Y011261D02*
X008595Y011212D01*
X008595Y011115D01*
X008547Y011067D01*
X008353Y011067D01*
X008353Y011362D02*
X008305Y011410D01*
X008305Y011507D01*
X008353Y011555D01*
X008402Y011656D02*
X008305Y011753D01*
X008595Y011753D01*
X008595Y011656D02*
X008595Y011850D01*
X008621Y012823D02*
X008428Y013113D01*
X008327Y013113D02*
X008133Y013113D01*
X008133Y012823D01*
X008327Y012823D01*
X008428Y012823D02*
X008621Y013113D01*
X008722Y013113D02*
X008916Y013113D01*
X008819Y013113D02*
X008819Y012823D01*
X008230Y012968D02*
X008133Y012968D01*
X006894Y014491D02*
X006647Y014491D01*
X006894Y014738D01*
X006894Y014800D01*
X006832Y014861D01*
X006709Y014861D01*
X006647Y014800D01*
X006526Y014800D02*
X006464Y014861D01*
X006340Y014861D01*
X006279Y014800D01*
X006279Y014738D01*
X006340Y014676D01*
X006464Y014676D01*
X006526Y014615D01*
X006526Y014553D01*
X006464Y014491D01*
X006340Y014491D01*
X006279Y014553D01*
X006402Y014429D02*
X006402Y014923D01*
X006157Y014861D02*
X006157Y014553D01*
X006096Y014491D01*
X005972Y014491D01*
X005910Y014553D01*
X005910Y014861D01*
X006837Y017969D02*
X006934Y017969D01*
X006982Y018018D01*
X007083Y018018D02*
X007131Y017969D01*
X007228Y017969D01*
X007277Y018018D01*
X007277Y018211D01*
X007228Y018260D01*
X007131Y018260D01*
X007083Y018211D01*
X007083Y018163D01*
X007131Y018115D01*
X007277Y018115D01*
X006982Y018211D02*
X006934Y018260D01*
X006837Y018260D01*
X006788Y018211D01*
X006788Y018018D01*
X006837Y017969D01*
X006491Y018151D02*
X006443Y018102D01*
X006346Y018102D01*
X006298Y018151D01*
X006491Y018344D01*
X006491Y018151D01*
X006491Y018344D02*
X006443Y018393D01*
X006346Y018393D01*
X006298Y018344D01*
X006298Y018151D01*
X006197Y018102D02*
X006003Y018102D01*
X006100Y018102D02*
X006100Y018393D01*
X006003Y018296D01*
X005902Y018344D02*
X005854Y018393D01*
X005757Y018393D01*
X005709Y018344D01*
X005709Y018151D01*
X005757Y018102D01*
X005854Y018102D01*
X005902Y018151D01*
X005552Y018683D02*
X005358Y018683D01*
X005503Y018828D01*
X005503Y018538D01*
X005257Y018586D02*
X005209Y018538D01*
X005112Y018538D01*
X005063Y018586D01*
X005063Y018780D01*
X005112Y018828D01*
X005209Y018828D01*
X005257Y018780D01*
X008120Y020597D02*
X008120Y020790D01*
X008217Y020887D01*
X008313Y020790D01*
X008313Y020597D01*
X008415Y020645D02*
X008415Y020887D01*
X008313Y020742D02*
X008120Y020742D01*
X008415Y020645D02*
X008463Y020597D01*
X008560Y020597D01*
X008608Y020645D01*
X008608Y020887D01*
X008709Y020887D02*
X008709Y020597D01*
X008854Y020597D01*
X008903Y020645D01*
X008903Y020839D01*
X008854Y020887D01*
X008709Y020887D01*
D12*
X008760Y020459D02*
X009010Y020209D01*
X009010Y019709D01*
X008760Y019459D01*
X009010Y019209D01*
X009010Y018709D01*
X008760Y018459D01*
X008260Y018459D01*
X008010Y018709D01*
X008010Y019209D01*
X008260Y019459D01*
X008010Y019709D01*
X008010Y020209D01*
X008260Y020459D01*
X008760Y020459D01*
X008760Y019459D02*
X008260Y019459D01*
X008260Y018459D02*
X008010Y018209D01*
X008010Y017709D01*
X008260Y017459D01*
X008010Y017209D01*
X008010Y016709D01*
X008260Y016459D01*
X008760Y016459D01*
X009010Y016709D01*
X009010Y017209D01*
X008760Y017459D01*
X008260Y017459D01*
X008760Y017459D02*
X009010Y017709D01*
X009010Y018209D01*
X008760Y018459D01*
X008760Y016458D02*
X008260Y016458D01*
X008010Y016208D01*
X008010Y015708D01*
X008260Y015458D01*
X008760Y015458D01*
X009010Y015708D01*
X009010Y016208D01*
X008760Y016458D01*
X008760Y015458D02*
X009010Y015208D01*
X009010Y014708D01*
X008760Y014458D01*
X009010Y014208D01*
X009010Y013708D01*
X008760Y013458D01*
X008260Y013458D01*
X008010Y013708D01*
X008010Y014208D01*
X008260Y014458D01*
X008010Y014708D01*
X008010Y015208D01*
X008260Y015458D01*
X008260Y014458D02*
X008760Y014458D01*
X007010Y018722D02*
X007010Y018915D01*
X006834Y018915D02*
X006834Y018722D01*
X006304Y019022D02*
X006304Y019215D01*
X006127Y019215D02*
X006127Y019022D01*
X005150Y020952D02*
X007450Y020952D01*
X007450Y000952D01*
X002150Y000952D01*
X002150Y020952D01*
X004350Y020952D01*
X004352Y020913D01*
X004358Y020874D01*
X004367Y020836D01*
X004380Y020799D01*
X004397Y020763D01*
X004417Y020730D01*
X004441Y020698D01*
X004467Y020669D01*
X004496Y020643D01*
X004528Y020619D01*
X004561Y020599D01*
X004597Y020582D01*
X004634Y020569D01*
X004672Y020560D01*
X004711Y020554D01*
X004750Y020552D01*
X004789Y020554D01*
X004828Y020560D01*
X004866Y020569D01*
X004903Y020582D01*
X004939Y020599D01*
X004972Y020619D01*
X005004Y020643D01*
X005033Y020669D01*
X005059Y020698D01*
X005083Y020730D01*
X005103Y020763D01*
X005120Y020799D01*
X005133Y020836D01*
X005142Y020874D01*
X005148Y020913D01*
X005150Y020952D01*
X004617Y018720D02*
X004424Y018720D01*
X004424Y018544D02*
X004617Y018544D01*
X002698Y018576D02*
X002698Y018769D01*
X002522Y018769D02*
X002522Y018576D01*
X002577Y019233D02*
X002620Y019276D01*
X002620Y019320D01*
X002577Y019363D01*
X002360Y019363D01*
X002360Y019320D02*
X002360Y019406D01*
X002360Y019528D02*
X002360Y019701D01*
X002360Y019614D02*
X002620Y019614D01*
X002620Y019822D02*
X002446Y019822D01*
X002360Y019909D01*
X002446Y019996D01*
X002620Y019996D01*
X002577Y020117D02*
X002620Y020160D01*
X002620Y020247D01*
X002577Y020290D01*
X002490Y020290D01*
X002490Y020204D01*
X002403Y020290D02*
X002360Y020247D01*
X002360Y020160D01*
X002403Y020117D01*
X002577Y020117D01*
X002490Y019996D02*
X002490Y019822D01*
X001338Y016949D02*
X001338Y016756D01*
X001162Y016756D02*
X001162Y016949D01*
X001162Y014246D02*
X001162Y014053D01*
X001338Y014053D02*
X001338Y014246D01*
X001338Y013060D02*
X001338Y012867D01*
X001162Y012867D02*
X001162Y013060D01*
X001162Y011316D02*
X001162Y011123D01*
X001338Y011123D02*
X001338Y011316D01*
X001338Y009509D02*
X001338Y009316D01*
X001162Y009316D02*
X001162Y009509D01*
X001162Y008269D02*
X001162Y008076D01*
X001338Y008076D02*
X001338Y008269D01*
X002552Y005265D02*
X002552Y005072D01*
X002728Y005072D02*
X002728Y005265D01*
X003069Y005263D02*
X003069Y005070D01*
X003246Y005070D02*
X003246Y005263D01*
X003289Y003949D02*
X003289Y003756D01*
X003113Y003756D02*
X003113Y003949D01*
X002774Y003949D02*
X002774Y003756D01*
X002598Y003756D02*
X002598Y003949D01*
X003049Y001902D02*
X003049Y001282D01*
X003149Y001382D02*
X003749Y001382D01*
X003749Y001472D01*
X003749Y001712D01*
X003749Y001802D01*
X003149Y001802D01*
X003149Y001382D01*
X003354Y000970D02*
X003546Y000970D01*
X003546Y000794D02*
X003354Y000794D01*
X003749Y001472D02*
X003728Y001474D01*
X003708Y001479D01*
X003689Y001488D01*
X003672Y001500D01*
X003657Y001515D01*
X003645Y001532D01*
X003636Y001551D01*
X003631Y001571D01*
X003629Y001592D01*
X003631Y001613D01*
X003636Y001633D01*
X003645Y001652D01*
X003657Y001669D01*
X003672Y001684D01*
X003689Y001696D01*
X003708Y001705D01*
X003728Y001710D01*
X003749Y001712D01*
X003849Y001902D02*
X003849Y001282D01*
X002618Y001556D02*
X002618Y001749D01*
X002442Y001749D02*
X002442Y001556D01*
X003856Y004628D02*
X003856Y004718D01*
X003856Y004628D02*
X004156Y004628D01*
X004006Y004778D02*
X004006Y005578D01*
X004806Y005578D01*
X004806Y004778D01*
X004006Y004778D01*
X004006Y005078D02*
X004506Y005578D01*
X004656Y005728D02*
X004956Y005728D01*
X004956Y005638D01*
X004956Y004718D02*
X004956Y004628D01*
X004656Y004628D01*
X004156Y005728D02*
X003856Y005728D01*
X003856Y005638D01*
X005466Y005638D02*
X005466Y005728D01*
X005766Y005728D01*
X005616Y005578D02*
X005616Y004778D01*
X006416Y004778D01*
X006416Y005578D01*
X005616Y005578D01*
X005616Y005078D02*
X006116Y005578D01*
X006266Y005728D02*
X006566Y005728D01*
X006566Y005638D01*
X006566Y004718D02*
X006566Y004628D01*
X006266Y004628D01*
X005766Y004628D02*
X005466Y004628D01*
X005466Y004718D01*
X008282Y001969D02*
X008282Y001776D01*
X008458Y001776D02*
X008458Y001969D01*
X001138Y020136D02*
X001138Y020329D01*
X000962Y020329D02*
X000962Y020136D01*
D13*
X001048Y020071D03*
X001048Y020391D03*
X002612Y018833D03*
X002612Y018513D03*
X001248Y017011D03*
X001248Y016691D03*
X001252Y014311D03*
X001252Y013991D03*
X001252Y013124D03*
X001252Y012804D03*
X001248Y011379D03*
X001248Y011059D03*
X001252Y009573D03*
X001252Y009253D03*
X001252Y008333D03*
X001252Y008013D03*
X002638Y005328D03*
X002638Y005008D03*
X003155Y005005D03*
X003155Y005325D03*
X003199Y004011D03*
X003199Y003691D03*
X002688Y003693D03*
X002688Y004013D03*
X002528Y001811D03*
X002528Y001491D03*
X008368Y001711D03*
X008368Y002031D03*
X006920Y018658D03*
X006920Y018978D03*
X006213Y018958D03*
X006213Y019278D03*
D14*
X004679Y018634D03*
X004359Y018634D03*
X003609Y000884D03*
X003289Y000884D03*
D15*
X004988Y005103D02*
X004988Y005253D01*
X005088Y005253D01*
X005088Y005103D01*
X004988Y005103D01*
X004988Y005108D02*
X005088Y005108D01*
X005088Y005117D02*
X004988Y005117D01*
X004988Y005125D02*
X005088Y005125D01*
X005088Y005134D02*
X004988Y005134D01*
X004988Y005142D02*
X005088Y005142D01*
X005088Y005151D02*
X004988Y005151D01*
X004988Y005159D02*
X005088Y005159D01*
X005088Y005168D02*
X004988Y005168D01*
X004988Y005176D02*
X005088Y005176D01*
X005088Y005185D02*
X004988Y005185D01*
X004988Y005193D02*
X005088Y005193D01*
X005088Y005202D02*
X004988Y005202D01*
X004988Y005210D02*
X005088Y005210D01*
X005088Y005219D02*
X004988Y005219D01*
X004988Y005227D02*
X005088Y005227D01*
X005088Y005236D02*
X004988Y005236D01*
X004988Y005244D02*
X005088Y005244D01*
X005088Y005253D02*
X004988Y005253D01*
X004728Y005912D02*
X004575Y005912D01*
X004651Y005912D02*
X004651Y006142D01*
X004575Y006065D01*
X004507Y006027D02*
X004469Y005988D01*
X004354Y005988D01*
X004354Y005912D02*
X004354Y006142D01*
X004469Y006142D01*
X004507Y006103D01*
X004507Y006027D01*
X004286Y006142D02*
X004286Y005912D01*
X004133Y005912D02*
X004133Y006142D01*
X004209Y006065D01*
X004286Y006142D01*
X004065Y006103D02*
X004027Y006142D01*
X003950Y006142D01*
X003912Y006103D01*
X003912Y005950D01*
X003950Y005912D01*
X004027Y005912D01*
X004065Y005950D01*
X004065Y006103D01*
X003844Y006103D02*
X003806Y006142D01*
X003729Y006142D01*
X003691Y006103D01*
X003691Y005950D01*
X003729Y005912D01*
X003806Y005912D01*
X003844Y005950D01*
X005497Y005960D02*
X005536Y005922D01*
X005613Y005922D01*
X005651Y005960D01*
X005718Y005960D02*
X005757Y005922D01*
X005834Y005922D01*
X005872Y005960D01*
X005872Y006113D01*
X005834Y006152D01*
X005757Y006152D01*
X005718Y006113D01*
X005718Y005960D01*
X005651Y006113D02*
X005613Y006152D01*
X005536Y006152D01*
X005497Y006113D01*
X005497Y005960D01*
X005939Y005922D02*
X005939Y006152D01*
X006016Y006075D01*
X006093Y006152D01*
X006093Y005922D01*
X006160Y005922D02*
X006160Y006152D01*
X006276Y006152D01*
X006314Y006113D01*
X006314Y006037D01*
X006276Y005998D01*
X006160Y005998D01*
X006381Y005922D02*
X006535Y006075D01*
X006535Y006113D01*
X006496Y006152D01*
X006420Y006152D01*
X006381Y006113D01*
X006381Y005922D02*
X006535Y005922D01*
X006599Y005253D02*
X006699Y005253D01*
X006699Y005103D01*
X006599Y005103D01*
X006599Y005253D01*
X006699Y005253D01*
X006699Y005244D02*
X006599Y005244D01*
X006599Y005236D02*
X006699Y005236D01*
X006699Y005227D02*
X006599Y005227D01*
X006599Y005219D02*
X006699Y005219D01*
X006699Y005210D02*
X006599Y005210D01*
X006599Y005202D02*
X006699Y005202D01*
X006699Y005193D02*
X006599Y005193D01*
X006599Y005185D02*
X006699Y005185D01*
X006699Y005176D02*
X006599Y005176D01*
X006599Y005168D02*
X006699Y005168D01*
X006699Y005159D02*
X006599Y005159D01*
X006599Y005151D02*
X006699Y005151D01*
X006699Y005142D02*
X006599Y005142D01*
X006599Y005134D02*
X006699Y005134D01*
X006699Y005125D02*
X006599Y005125D01*
X006599Y005117D02*
X006699Y005117D01*
X006699Y005108D02*
X006599Y005108D01*
D16*
X005473Y005415D02*
X005166Y005722D01*
X005320Y005722D02*
X005320Y005415D01*
X005166Y005415D02*
X005473Y005722D01*
X005473Y005568D02*
X005166Y005568D01*
X003863Y005568D02*
X003556Y005568D01*
X003556Y005415D02*
X003863Y005722D01*
X003709Y005722D02*
X003709Y005415D01*
X003863Y005415D02*
X003556Y005722D01*
X003485Y010755D02*
X003485Y011062D01*
X003639Y011215D01*
X003792Y011062D01*
X003792Y010755D01*
X003792Y010985D02*
X003485Y010985D01*
X003332Y011215D02*
X003332Y010755D01*
X003178Y011062D02*
X003332Y011215D01*
X003178Y011062D02*
X003025Y011215D01*
X003025Y010755D01*
X003945Y010755D02*
X004252Y011215D01*
X004406Y011062D02*
X004559Y011215D01*
X004559Y010755D01*
X004406Y010755D02*
X004713Y010755D01*
X004866Y010832D02*
X004866Y011139D01*
X004943Y011215D01*
X005096Y011215D01*
X005173Y011139D01*
X004866Y010832D01*
X004943Y010755D01*
X005096Y010755D01*
X005173Y010832D01*
X005173Y011139D01*
X004252Y010755D02*
X003945Y011215D01*
X004498Y015903D02*
X004498Y016384D01*
X004558Y016324D02*
X004618Y016264D01*
X004558Y016324D02*
X004438Y016324D01*
X004378Y016264D01*
X004378Y016204D01*
X004438Y016144D01*
X004558Y016144D01*
X004618Y016084D01*
X004618Y016024D01*
X004558Y015963D01*
X004438Y015963D01*
X004378Y016024D01*
X004250Y016024D02*
X004250Y016324D01*
X004250Y016024D02*
X004190Y015963D01*
X004069Y015963D01*
X004009Y016024D01*
X004009Y016324D01*
X003988Y017990D02*
X003988Y018297D01*
X003834Y018297D02*
X004141Y017990D01*
X004141Y018144D02*
X003834Y018144D01*
X003834Y017990D02*
X004141Y018297D01*
X004806Y016324D02*
X004926Y016324D01*
X004986Y016264D01*
X004986Y016204D01*
X004926Y016144D01*
X004986Y016084D01*
X004986Y016024D01*
X004926Y015963D01*
X004806Y015963D01*
X004746Y016024D01*
X004746Y016264D02*
X004806Y016324D01*
X004866Y016144D02*
X004926Y016144D01*
X006618Y019435D02*
X006711Y019435D01*
X006758Y019482D01*
X006866Y019435D02*
X006866Y019715D01*
X007052Y019435D01*
X007052Y019715D01*
X007160Y019622D02*
X007254Y019715D01*
X007254Y019435D01*
X007347Y019435D02*
X007160Y019435D01*
X007236Y019971D02*
X007020Y019971D01*
X007018Y019987D01*
X007013Y020003D01*
X007005Y020017D01*
X006994Y020030D01*
X006981Y020039D01*
X006965Y020046D01*
X006949Y020050D01*
X006933Y020050D01*
X006917Y020046D01*
X006902Y020039D01*
X006888Y020030D01*
X006877Y020017D01*
X006869Y020003D01*
X006864Y019987D01*
X006862Y019971D01*
X006705Y019971D01*
X006703Y019987D01*
X006698Y020003D01*
X006690Y020017D01*
X006679Y020030D01*
X006666Y020039D01*
X006650Y020046D01*
X006634Y020050D01*
X006618Y020050D01*
X006602Y020046D01*
X006587Y020039D01*
X006573Y020030D01*
X006562Y020017D01*
X006554Y020003D01*
X006549Y019987D01*
X006547Y019971D01*
X006390Y019971D01*
X006388Y019987D01*
X006383Y020003D01*
X006375Y020017D01*
X006364Y020030D01*
X006351Y020039D01*
X006335Y020046D01*
X006319Y020050D01*
X006303Y020050D01*
X006287Y020046D01*
X006272Y020039D01*
X006258Y020030D01*
X006247Y020017D01*
X006239Y020003D01*
X006234Y019987D01*
X006232Y019971D01*
X006233Y019971D02*
X006016Y019971D01*
X006016Y020562D01*
X006233Y020562D01*
X006232Y020562D02*
X006234Y020546D01*
X006239Y020530D01*
X006247Y020516D01*
X006258Y020503D01*
X006272Y020494D01*
X006287Y020487D01*
X006303Y020483D01*
X006319Y020483D01*
X006335Y020487D01*
X006351Y020494D01*
X006364Y020503D01*
X006375Y020516D01*
X006383Y020530D01*
X006388Y020546D01*
X006390Y020562D01*
X006547Y020562D01*
X006549Y020546D01*
X006554Y020530D01*
X006562Y020516D01*
X006573Y020503D01*
X006587Y020494D01*
X006602Y020487D01*
X006618Y020483D01*
X006634Y020483D01*
X006650Y020487D01*
X006666Y020494D01*
X006679Y020503D01*
X006690Y020516D01*
X006698Y020530D01*
X006703Y020546D01*
X006705Y020562D01*
X006862Y020562D01*
X006864Y020546D01*
X006869Y020530D01*
X006877Y020516D01*
X006888Y020503D01*
X006902Y020494D01*
X006917Y020487D01*
X006933Y020483D01*
X006949Y020483D01*
X006965Y020487D01*
X006981Y020494D01*
X006994Y020503D01*
X007005Y020516D01*
X007013Y020530D01*
X007018Y020546D01*
X007020Y020562D01*
X007236Y020562D01*
X007236Y019971D01*
X006758Y019669D02*
X006711Y019715D01*
X006618Y019715D01*
X006571Y019669D01*
X006571Y019482D01*
X006618Y019435D01*
D17*
X002765Y011088D02*
X002767Y011100D01*
X002772Y011111D01*
X002781Y011120D01*
X002792Y011125D01*
X002804Y011127D01*
X002816Y011125D01*
X002827Y011120D01*
X002836Y011111D01*
X002841Y011100D01*
X002843Y011088D01*
X002841Y011076D01*
X002836Y011065D01*
X002827Y011056D01*
X002816Y011051D01*
X002804Y011049D01*
X002792Y011051D01*
X002781Y011056D01*
X002772Y011065D01*
X002767Y011076D01*
X002765Y011088D01*
X002767Y011100D01*
X002772Y011111D01*
X002781Y011120D01*
X002792Y011125D01*
X002804Y011127D01*
X002816Y011125D01*
X002827Y011120D01*
X002836Y011111D01*
X002841Y011100D01*
X002843Y011088D01*
X002841Y011076D01*
X002836Y011065D01*
X002827Y011056D01*
X002816Y011051D01*
X002804Y011049D01*
X002792Y011051D01*
X002781Y011056D01*
X002772Y011065D01*
X002767Y011076D01*
X002765Y011088D01*
X002701Y010591D02*
X002701Y010395D01*
X002898Y010591D01*
X007032Y010591D01*
X007032Y006261D01*
X002701Y006261D01*
X002701Y010395D01*
X002544Y010316D02*
X002546Y010328D01*
X002551Y010339D01*
X002560Y010348D01*
X002571Y010353D01*
X002583Y010355D01*
X002595Y010353D01*
X002606Y010348D01*
X002615Y010339D01*
X002620Y010328D01*
X002622Y010316D01*
X002620Y010304D01*
X002615Y010293D01*
X002606Y010284D01*
X002595Y010279D01*
X002583Y010277D01*
X002571Y010279D01*
X002560Y010284D01*
X002551Y010293D01*
X002546Y010304D01*
X002544Y010316D01*
X002701Y010591D02*
X002898Y010591D01*
X004277Y002654D02*
X004279Y002666D01*
X004284Y002677D01*
X004293Y002686D01*
X004304Y002691D01*
X004316Y002693D01*
X004328Y002691D01*
X004339Y002686D01*
X004348Y002677D01*
X004353Y002666D01*
X004355Y002654D01*
X004353Y002642D01*
X004348Y002631D01*
X004339Y002622D01*
X004328Y002617D01*
X004316Y002615D01*
X004304Y002617D01*
X004293Y002622D01*
X004284Y002631D01*
X004279Y002642D01*
X004277Y002654D01*
X004279Y002666D01*
X004284Y002677D01*
X004293Y002686D01*
X004304Y002691D01*
X004316Y002693D01*
X004328Y002691D01*
X004339Y002686D01*
X004348Y002677D01*
X004353Y002666D01*
X004355Y002654D01*
X004353Y002642D01*
X004348Y002631D01*
X004339Y002622D01*
X004328Y002617D01*
X004316Y002615D01*
X004304Y002617D01*
X004293Y002622D01*
X004284Y002631D01*
X004279Y002642D01*
X004277Y002654D01*
D18*
X004139Y003026D02*
X004099Y003026D01*
X004099Y003262D01*
X004099Y003026D02*
X005910Y003026D01*
X005871Y003026D01*
X005910Y003026D02*
X005910Y003262D01*
X005910Y003026D02*
X005910Y004049D01*
X005871Y004049D01*
X005910Y004049D02*
X005910Y003813D01*
X005910Y004049D02*
X004099Y004049D01*
X004139Y004049D01*
X004099Y004049D02*
X004099Y003813D01*
X004099Y004049D02*
X004099Y003026D01*
X003659Y001962D02*
X003661Y001972D01*
X003666Y001981D01*
X003674Y001988D01*
X003684Y001992D01*
X003694Y001992D01*
X003704Y001988D01*
X003712Y001981D01*
X003717Y001972D01*
X003719Y001962D01*
X003717Y001952D01*
X003712Y001943D01*
X003704Y001936D01*
X003694Y001932D01*
X003684Y001932D01*
X003674Y001936D01*
X003666Y001943D01*
X003661Y001952D01*
X003659Y001962D01*
X005990Y001826D02*
X005992Y001831D01*
X005996Y001835D01*
X006002Y001835D01*
X006006Y001831D01*
X006008Y001826D01*
X006006Y001821D01*
X006002Y001817D01*
X005996Y001817D01*
X005992Y001821D01*
X005990Y001826D01*
X006156Y001983D02*
X006156Y000960D01*
X006865Y000960D01*
X006865Y001983D01*
X006156Y001983D01*
X007268Y011950D02*
X002780Y011950D01*
X002780Y013721D01*
X007268Y013721D01*
X007268Y011950D01*
X007323Y011950D02*
X007323Y013721D01*
X007315Y016105D02*
X007315Y016335D01*
X007238Y016258D01*
X007133Y016335D02*
X007133Y016105D01*
X006980Y016335D01*
X006980Y016105D01*
X006876Y016105D02*
X006799Y016181D01*
X006837Y016181D02*
X006722Y016181D01*
X006722Y016105D02*
X006722Y016335D01*
X006837Y016335D01*
X006876Y016297D01*
X006876Y016220D01*
X006837Y016181D01*
X007238Y016105D02*
X007391Y016105D01*
X007276Y019766D02*
X005976Y019766D01*
X005976Y020766D01*
X007276Y020766D01*
X007276Y019766D01*
X002725Y013721D02*
X002725Y011950D01*
D19*
X005706Y016499D02*
X005706Y017788D01*
X007081Y017788D01*
X007081Y016499D01*
X005706Y016499D01*
X005706Y016768D02*
X007081Y016768D01*
X007081Y017518D01*
X005706Y017518D01*
X005706Y016768D01*
X005520Y018952D02*
X005020Y018952D01*
X004770Y019202D01*
X004770Y020702D01*
X005020Y020952D01*
X005520Y020952D01*
X005770Y020702D01*
X005770Y019202D01*
X005520Y018952D01*
X004770Y019202D02*
X004520Y018952D01*
X004020Y018952D01*
X003770Y019202D01*
X003770Y020702D01*
X004020Y020952D01*
X004520Y020952D01*
X004770Y020702D01*
X003770Y020702D02*
X003520Y020952D01*
X003020Y020952D01*
X002770Y020702D01*
X002770Y019202D01*
X003020Y018952D01*
X003520Y018952D01*
X003770Y019202D01*
X003520Y018820D02*
X003020Y018820D01*
D20*
X005926Y017094D03*
D21*
X003286Y005959D02*
X003139Y005959D01*
X003065Y005922D02*
X003028Y005959D01*
X002955Y005959D01*
X002918Y005922D01*
X002918Y005775D01*
X002955Y005738D01*
X003028Y005738D01*
X003065Y005775D01*
X003139Y005775D02*
X003139Y005738D01*
X003139Y005775D02*
X003286Y005922D01*
X003286Y005959D01*
X002620Y005953D02*
X002620Y005917D01*
X002584Y005880D01*
X002510Y005880D01*
X002474Y005917D01*
X002474Y005953D01*
X002510Y005990D01*
X002584Y005990D01*
X002620Y005953D01*
X002584Y005880D02*
X002620Y005843D01*
X002620Y005807D01*
X002584Y005770D01*
X002510Y005770D01*
X002474Y005807D01*
X002474Y005843D01*
X002510Y005880D01*
X002399Y005807D02*
X002363Y005770D01*
X002289Y005770D01*
X002253Y005807D01*
X002253Y005953D01*
X002289Y005990D01*
X002363Y005990D01*
X002399Y005953D01*
X002871Y002352D02*
X003022Y002352D01*
X003072Y002302D01*
X003072Y002202D01*
X003022Y002152D01*
X002871Y002152D01*
X002871Y002052D02*
X002871Y002352D01*
X002972Y002152D02*
X003072Y002052D01*
X003166Y002052D02*
X003366Y002052D01*
X003461Y002102D02*
X003461Y002302D01*
X003511Y002352D01*
X003611Y002352D01*
X003661Y002302D01*
X003661Y002202D02*
X003561Y002202D01*
X003661Y002202D02*
X003661Y002102D01*
X003611Y002052D01*
X003511Y002052D01*
X003461Y002102D01*
X003366Y002352D02*
X003166Y002352D01*
X003166Y002052D01*
X003166Y002202D02*
X003266Y002202D01*
X003755Y002252D02*
X003856Y002352D01*
X003856Y002052D01*
X003956Y002052D02*
X003755Y002052D01*
D22*
X008510Y013958D03*
X008510Y014958D03*
X008510Y015958D03*
X008510Y016959D03*
X008510Y017959D03*
X008510Y018959D03*
X008510Y019959D03*
X005270Y020452D03*
X005270Y019452D03*
X004270Y019452D03*
X004270Y020452D03*
X003270Y020452D03*
X003270Y019452D03*
D23*
X004100Y002172D02*
X004900Y002172D01*
X004900Y001172D01*
X004100Y001172D01*
X004100Y002172D01*
M02*
