G75*
%MOIN*%
%OFA0B0*%
%FSLAX24Y24*%
%IPPOS*%
%LPD*%
%AMOC8*
5,1,8,0,0,1.08239X$1,22.5*
%
%ADD10OC8,0.0480*%
%ADD11R,0.0354X0.0276*%
%ADD12R,0.0276X0.0354*%
%ADD13R,0.0268X0.0079*%
%ADD14R,0.0079X0.0268*%
%ADD15C,0.0167*%
%ADD16R,0.0200X0.0300*%
%ADD17R,0.0197X0.0354*%
%ADD18OC8,0.0531*%
%ADD19R,0.0256X0.0087*%
%ADD20R,0.0217X0.0087*%
%ADD21R,0.0087X0.0217*%
%ADD22C,0.0026*%
%ADD23R,0.1181X0.0394*%
%ADD24C,0.0018*%
%ADD25R,0.0118X0.0217*%
%ADD26R,0.0118X0.0205*%
%ADD27R,0.0787X0.0236*%
%ADD28R,0.0120X0.0320*%
%ADD29R,0.0320X0.0120*%
%ADD30R,0.0330X0.0530*%
%ADD31C,0.0740*%
%ADD32C,0.0140*%
%ADD33C,0.0120*%
%ADD34C,0.0080*%
%ADD35OC8,0.0200*%
%ADD36C,0.0160*%
%ADD37OC8,0.0354*%
%ADD38C,0.0100*%
%ADD39C,0.0110*%
%ADD40OC8,0.0179*%
%ADD41OC8,0.0257*%
%ADD42C,0.0060*%
%ADD43C,0.0090*%
%ADD44C,0.0130*%
D10*
X001800Y001452D03*
X001800Y002452D03*
X001800Y003452D03*
X001800Y004452D03*
X001800Y005452D03*
X001800Y006452D03*
X001800Y007452D03*
X001800Y008452D03*
X001800Y009452D03*
X001800Y010452D03*
X001800Y011452D03*
X001800Y012452D03*
X001800Y013452D03*
X001800Y014452D03*
X001800Y015452D03*
X001800Y016452D03*
X001800Y017452D03*
X001800Y018452D03*
X001800Y019452D03*
X001800Y020452D03*
X007800Y020452D03*
X007800Y019452D03*
X007800Y018452D03*
X007800Y017452D03*
X007800Y016452D03*
X007800Y015452D03*
X007800Y014452D03*
X007800Y013452D03*
X007800Y012452D03*
X007800Y011452D03*
X007800Y010452D03*
X007800Y009452D03*
X007800Y008452D03*
X007800Y007452D03*
X007800Y006452D03*
X007800Y005452D03*
X007800Y004452D03*
X007800Y003452D03*
X007800Y002452D03*
X007800Y001452D03*
D11*
X008370Y001616D03*
X008370Y002128D03*
X003201Y003596D03*
X003201Y004108D03*
X003157Y004910D03*
X003157Y005422D03*
X002640Y005425D03*
X002640Y004913D03*
X002686Y004108D03*
X002686Y003596D03*
X002530Y001908D03*
X002530Y001396D03*
X001250Y007916D03*
X001250Y008428D03*
X001250Y009156D03*
X001250Y009668D03*
X001250Y010964D03*
X001250Y011476D03*
X001250Y012707D03*
X001250Y013219D03*
X001250Y013894D03*
X001250Y014406D03*
X001250Y016596D03*
X001250Y017108D03*
X002610Y018416D03*
X002610Y018928D03*
X001050Y019976D03*
X001050Y020488D03*
X006215Y019374D03*
X006215Y018863D03*
X006922Y019075D03*
X006922Y018563D03*
D12*
X004776Y018632D03*
X004264Y018632D03*
X003706Y000882D03*
X003194Y000882D03*
D13*
X004057Y004863D03*
X004057Y005020D03*
X004057Y005178D03*
X004057Y005335D03*
X004057Y005493D03*
X004754Y005493D03*
X004754Y005335D03*
X004754Y005178D03*
X004754Y005020D03*
X004754Y004863D03*
X005668Y004863D03*
X005668Y005020D03*
X005668Y005178D03*
X005668Y005335D03*
X005668Y005493D03*
X006365Y005493D03*
X006365Y005335D03*
X006365Y005178D03*
X006365Y005020D03*
X006365Y004863D03*
D14*
X006115Y004829D03*
X005918Y004829D03*
X005918Y005526D03*
X006115Y005526D03*
X004504Y005526D03*
X004307Y005526D03*
X004307Y004829D03*
X004504Y004829D03*
D15*
X004552Y006536D03*
X004552Y006851D03*
X004552Y007166D03*
X004552Y007481D03*
X004552Y007796D03*
X004552Y008111D03*
X004552Y008426D03*
X004552Y008741D03*
X004552Y009056D03*
X004552Y009371D03*
X004552Y009686D03*
X004552Y010001D03*
X004552Y010316D03*
X004237Y010316D03*
X004237Y010001D03*
X004237Y009686D03*
X004237Y009371D03*
X004237Y009056D03*
X004237Y008741D03*
X004237Y008426D03*
X004237Y008111D03*
X004237Y007796D03*
X004237Y007481D03*
X004237Y007166D03*
X004237Y006851D03*
X004237Y006536D03*
X003922Y006536D03*
X003922Y006851D03*
X003922Y007166D03*
X003922Y007481D03*
X003922Y007796D03*
X003922Y008111D03*
X003922Y008426D03*
X003922Y008741D03*
X003922Y009056D03*
X003922Y009371D03*
X003922Y009686D03*
X003922Y010001D03*
X003922Y010316D03*
X003607Y010316D03*
X003607Y010001D03*
X003607Y009686D03*
X003607Y009371D03*
X003607Y009056D03*
X003607Y008741D03*
X003607Y008426D03*
X003607Y008111D03*
X003607Y007796D03*
X003607Y007481D03*
X003607Y007166D03*
X003607Y006851D03*
X003607Y006536D03*
X003292Y006536D03*
X003292Y006851D03*
X003292Y007166D03*
X003292Y007481D03*
X003292Y007796D03*
X003292Y008111D03*
X003292Y008426D03*
X003292Y008741D03*
X003292Y009056D03*
X003292Y009371D03*
X003292Y009686D03*
X003292Y010001D03*
X003292Y010316D03*
X002977Y010316D03*
X002977Y010001D03*
X002977Y009686D03*
X002977Y009371D03*
X002977Y009056D03*
X002977Y008741D03*
X002977Y008426D03*
X002977Y008111D03*
X002977Y007796D03*
X002977Y007481D03*
X002977Y007166D03*
X002977Y006851D03*
X002977Y006536D03*
X004867Y006536D03*
X004867Y006851D03*
X004867Y007166D03*
X004867Y007481D03*
X004867Y007796D03*
X004867Y008111D03*
X004867Y008426D03*
X004867Y008741D03*
X004867Y009056D03*
X004867Y009371D03*
X004867Y009686D03*
X004867Y010001D03*
X004867Y010316D03*
X005181Y010316D03*
X005181Y010001D03*
X005181Y009686D03*
X005181Y009371D03*
X005181Y009056D03*
X005181Y008741D03*
X005181Y008426D03*
X005181Y008111D03*
X005181Y007796D03*
X005181Y007481D03*
X005181Y007166D03*
X005181Y006851D03*
X005181Y006536D03*
X005496Y006536D03*
X005496Y006851D03*
X005496Y007166D03*
X005496Y007481D03*
X005496Y007796D03*
X005496Y008111D03*
X005496Y008426D03*
X005496Y008741D03*
X005496Y009056D03*
X005496Y009371D03*
X005496Y009686D03*
X005496Y010001D03*
X005496Y010316D03*
X005811Y010316D03*
X005811Y010001D03*
X005811Y009686D03*
X005811Y009371D03*
X005811Y009056D03*
X005811Y008741D03*
X005811Y008426D03*
X005811Y008111D03*
X005811Y007796D03*
X005811Y007481D03*
X005811Y007166D03*
X005811Y006851D03*
X005811Y006536D03*
X006126Y006536D03*
X006126Y006851D03*
X006126Y007166D03*
X006126Y007481D03*
X006126Y007796D03*
X006126Y008111D03*
X006126Y008426D03*
X006126Y008741D03*
X006126Y009056D03*
X006126Y009371D03*
X006126Y009686D03*
X006126Y010001D03*
X006126Y010316D03*
X006441Y010316D03*
X006441Y010001D03*
X006441Y009686D03*
X006441Y009371D03*
X006441Y009056D03*
X006441Y008741D03*
X006441Y008426D03*
X006441Y008111D03*
X006441Y007796D03*
X006441Y007481D03*
X006441Y007166D03*
X006441Y006851D03*
X006441Y006536D03*
X006756Y006536D03*
X006756Y006851D03*
X006756Y007166D03*
X006756Y007481D03*
X006756Y007796D03*
X006756Y008111D03*
X006756Y008426D03*
X006756Y008741D03*
X006756Y009056D03*
X006756Y009371D03*
X006756Y009686D03*
X006756Y010001D03*
X006756Y010316D03*
D16*
X006776Y019966D03*
X006476Y019966D03*
X006476Y020566D03*
X006776Y020566D03*
X007101Y020566D03*
X007101Y019966D03*
X006151Y019966D03*
X006151Y020566D03*
D17*
X006236Y017498D03*
X005921Y017498D03*
X005921Y016789D03*
X006236Y016789D03*
X006551Y016789D03*
X006866Y016789D03*
X006866Y017498D03*
X006551Y017498D03*
D18*
X008510Y017959D03*
X008510Y016959D03*
X008510Y015958D03*
X008510Y014958D03*
X008510Y013958D03*
X008510Y018959D03*
X008510Y019959D03*
D19*
X006225Y001708D03*
D20*
X006206Y001550D03*
X006206Y001393D03*
X006206Y001235D03*
X006816Y001235D03*
X006816Y001393D03*
X006816Y001550D03*
X006816Y001708D03*
D21*
X006747Y001934D03*
X006589Y001934D03*
X006432Y001934D03*
X006274Y001934D03*
X006274Y001009D03*
X006432Y001009D03*
X006589Y001009D03*
X006747Y001009D03*
D22*
X005732Y002915D02*
X005732Y003227D01*
X005732Y002915D02*
X005656Y002915D01*
X005656Y003227D01*
X005732Y003227D01*
X005732Y002940D02*
X005656Y002940D01*
X005656Y002965D02*
X005732Y002965D01*
X005732Y002990D02*
X005656Y002990D01*
X005656Y003015D02*
X005732Y003015D01*
X005732Y003040D02*
X005656Y003040D01*
X005656Y003065D02*
X005732Y003065D01*
X005732Y003090D02*
X005656Y003090D01*
X005656Y003115D02*
X005732Y003115D01*
X005732Y003140D02*
X005656Y003140D01*
X005656Y003165D02*
X005732Y003165D01*
X005732Y003190D02*
X005656Y003190D01*
X005656Y003215D02*
X005732Y003215D01*
X005709Y003477D02*
X006021Y003477D01*
X006021Y003401D01*
X005709Y003401D01*
X005709Y003477D01*
X005709Y003426D02*
X006021Y003426D01*
X006021Y003451D02*
X005709Y003451D01*
X005709Y003476D02*
X006021Y003476D01*
X006021Y003674D02*
X005709Y003674D01*
X006021Y003674D02*
X006021Y003598D01*
X005709Y003598D01*
X005709Y003674D01*
X005709Y003623D02*
X006021Y003623D01*
X006021Y003648D02*
X005709Y003648D01*
X005709Y003673D02*
X006021Y003673D01*
X005732Y003848D02*
X005732Y004160D01*
X005732Y003848D02*
X005656Y003848D01*
X005656Y004160D01*
X005732Y004160D01*
X005732Y003873D02*
X005656Y003873D01*
X005656Y003898D02*
X005732Y003898D01*
X005732Y003923D02*
X005656Y003923D01*
X005656Y003948D02*
X005732Y003948D01*
X005732Y003973D02*
X005656Y003973D01*
X005656Y003998D02*
X005732Y003998D01*
X005732Y004023D02*
X005656Y004023D01*
X005656Y004048D02*
X005732Y004048D01*
X005732Y004073D02*
X005656Y004073D01*
X005656Y004098D02*
X005732Y004098D01*
X005732Y004123D02*
X005656Y004123D01*
X005656Y004148D02*
X005732Y004148D01*
X005535Y004160D02*
X005535Y003848D01*
X005459Y003848D01*
X005459Y004160D01*
X005535Y004160D01*
X005535Y003873D02*
X005459Y003873D01*
X005459Y003898D02*
X005535Y003898D01*
X005535Y003923D02*
X005459Y003923D01*
X005459Y003948D02*
X005535Y003948D01*
X005535Y003973D02*
X005459Y003973D01*
X005459Y003998D02*
X005535Y003998D01*
X005535Y004023D02*
X005459Y004023D01*
X005459Y004048D02*
X005535Y004048D01*
X005535Y004073D02*
X005459Y004073D01*
X005459Y004098D02*
X005535Y004098D01*
X005535Y004123D02*
X005459Y004123D01*
X005459Y004148D02*
X005535Y004148D01*
X005338Y004160D02*
X005338Y003848D01*
X005262Y003848D01*
X005262Y004160D01*
X005338Y004160D01*
X005338Y003873D02*
X005262Y003873D01*
X005262Y003898D02*
X005338Y003898D01*
X005338Y003923D02*
X005262Y003923D01*
X005262Y003948D02*
X005338Y003948D01*
X005338Y003973D02*
X005262Y003973D01*
X005262Y003998D02*
X005338Y003998D01*
X005338Y004023D02*
X005262Y004023D01*
X005262Y004048D02*
X005338Y004048D01*
X005338Y004073D02*
X005262Y004073D01*
X005262Y004098D02*
X005338Y004098D01*
X005338Y004123D02*
X005262Y004123D01*
X005262Y004148D02*
X005338Y004148D01*
X005141Y004160D02*
X005141Y003848D01*
X005065Y003848D01*
X005065Y004160D01*
X005141Y004160D01*
X005141Y003873D02*
X005065Y003873D01*
X005065Y003898D02*
X005141Y003898D01*
X005141Y003923D02*
X005065Y003923D01*
X005065Y003948D02*
X005141Y003948D01*
X005141Y003973D02*
X005065Y003973D01*
X005065Y003998D02*
X005141Y003998D01*
X005141Y004023D02*
X005065Y004023D01*
X005065Y004048D02*
X005141Y004048D01*
X005141Y004073D02*
X005065Y004073D01*
X005065Y004098D02*
X005141Y004098D01*
X005141Y004123D02*
X005065Y004123D01*
X005065Y004148D02*
X005141Y004148D01*
X004944Y004160D02*
X004944Y003848D01*
X004868Y003848D01*
X004868Y004160D01*
X004944Y004160D01*
X004944Y003873D02*
X004868Y003873D01*
X004868Y003898D02*
X004944Y003898D01*
X004944Y003923D02*
X004868Y003923D01*
X004868Y003948D02*
X004944Y003948D01*
X004944Y003973D02*
X004868Y003973D01*
X004868Y003998D02*
X004944Y003998D01*
X004944Y004023D02*
X004868Y004023D01*
X004868Y004048D02*
X004944Y004048D01*
X004944Y004073D02*
X004868Y004073D01*
X004868Y004098D02*
X004944Y004098D01*
X004944Y004123D02*
X004868Y004123D01*
X004868Y004148D02*
X004944Y004148D01*
X004748Y004160D02*
X004748Y003848D01*
X004672Y003848D01*
X004672Y004160D01*
X004748Y004160D01*
X004748Y003873D02*
X004672Y003873D01*
X004672Y003898D02*
X004748Y003898D01*
X004748Y003923D02*
X004672Y003923D01*
X004672Y003948D02*
X004748Y003948D01*
X004748Y003973D02*
X004672Y003973D01*
X004672Y003998D02*
X004748Y003998D01*
X004748Y004023D02*
X004672Y004023D01*
X004672Y004048D02*
X004748Y004048D01*
X004748Y004073D02*
X004672Y004073D01*
X004672Y004098D02*
X004748Y004098D01*
X004748Y004123D02*
X004672Y004123D01*
X004672Y004148D02*
X004748Y004148D01*
X004551Y004160D02*
X004551Y003848D01*
X004475Y003848D01*
X004475Y004160D01*
X004551Y004160D01*
X004551Y003873D02*
X004475Y003873D01*
X004475Y003898D02*
X004551Y003898D01*
X004551Y003923D02*
X004475Y003923D01*
X004475Y003948D02*
X004551Y003948D01*
X004551Y003973D02*
X004475Y003973D01*
X004475Y003998D02*
X004551Y003998D01*
X004551Y004023D02*
X004475Y004023D01*
X004475Y004048D02*
X004551Y004048D01*
X004551Y004073D02*
X004475Y004073D01*
X004475Y004098D02*
X004551Y004098D01*
X004551Y004123D02*
X004475Y004123D01*
X004475Y004148D02*
X004551Y004148D01*
X004354Y004160D02*
X004354Y003848D01*
X004278Y003848D01*
X004278Y004160D01*
X004354Y004160D01*
X004354Y003873D02*
X004278Y003873D01*
X004278Y003898D02*
X004354Y003898D01*
X004354Y003923D02*
X004278Y003923D01*
X004278Y003948D02*
X004354Y003948D01*
X004354Y003973D02*
X004278Y003973D01*
X004278Y003998D02*
X004354Y003998D01*
X004354Y004023D02*
X004278Y004023D01*
X004278Y004048D02*
X004354Y004048D01*
X004354Y004073D02*
X004278Y004073D01*
X004278Y004098D02*
X004354Y004098D01*
X004354Y004123D02*
X004278Y004123D01*
X004278Y004148D02*
X004354Y004148D01*
X004301Y003674D02*
X003989Y003674D01*
X004301Y003674D02*
X004301Y003598D01*
X003989Y003598D01*
X003989Y003674D01*
X003989Y003623D02*
X004301Y003623D01*
X004301Y003648D02*
X003989Y003648D01*
X003989Y003673D02*
X004301Y003673D01*
X004301Y003477D02*
X003989Y003477D01*
X004301Y003477D02*
X004301Y003401D01*
X003989Y003401D01*
X003989Y003477D01*
X003989Y003426D02*
X004301Y003426D01*
X004301Y003451D02*
X003989Y003451D01*
X003989Y003476D02*
X004301Y003476D01*
X004354Y003227D02*
X004354Y002915D01*
X004278Y002915D01*
X004278Y003227D01*
X004354Y003227D01*
X004354Y002940D02*
X004278Y002940D01*
X004278Y002965D02*
X004354Y002965D01*
X004354Y002990D02*
X004278Y002990D01*
X004278Y003015D02*
X004354Y003015D01*
X004354Y003040D02*
X004278Y003040D01*
X004278Y003065D02*
X004354Y003065D01*
X004354Y003090D02*
X004278Y003090D01*
X004278Y003115D02*
X004354Y003115D01*
X004354Y003140D02*
X004278Y003140D01*
X004278Y003165D02*
X004354Y003165D01*
X004354Y003190D02*
X004278Y003190D01*
X004278Y003215D02*
X004354Y003215D01*
X004551Y003227D02*
X004551Y002915D01*
X004475Y002915D01*
X004475Y003227D01*
X004551Y003227D01*
X004551Y002940D02*
X004475Y002940D01*
X004475Y002965D02*
X004551Y002965D01*
X004551Y002990D02*
X004475Y002990D01*
X004475Y003015D02*
X004551Y003015D01*
X004551Y003040D02*
X004475Y003040D01*
X004475Y003065D02*
X004551Y003065D01*
X004551Y003090D02*
X004475Y003090D01*
X004475Y003115D02*
X004551Y003115D01*
X004551Y003140D02*
X004475Y003140D01*
X004475Y003165D02*
X004551Y003165D01*
X004551Y003190D02*
X004475Y003190D01*
X004475Y003215D02*
X004551Y003215D01*
X004748Y003227D02*
X004748Y002915D01*
X004672Y002915D01*
X004672Y003227D01*
X004748Y003227D01*
X004748Y002940D02*
X004672Y002940D01*
X004672Y002965D02*
X004748Y002965D01*
X004748Y002990D02*
X004672Y002990D01*
X004672Y003015D02*
X004748Y003015D01*
X004748Y003040D02*
X004672Y003040D01*
X004672Y003065D02*
X004748Y003065D01*
X004748Y003090D02*
X004672Y003090D01*
X004672Y003115D02*
X004748Y003115D01*
X004748Y003140D02*
X004672Y003140D01*
X004672Y003165D02*
X004748Y003165D01*
X004748Y003190D02*
X004672Y003190D01*
X004672Y003215D02*
X004748Y003215D01*
X004944Y003227D02*
X004944Y002915D01*
X004868Y002915D01*
X004868Y003227D01*
X004944Y003227D01*
X004944Y002940D02*
X004868Y002940D01*
X004868Y002965D02*
X004944Y002965D01*
X004944Y002990D02*
X004868Y002990D01*
X004868Y003015D02*
X004944Y003015D01*
X004944Y003040D02*
X004868Y003040D01*
X004868Y003065D02*
X004944Y003065D01*
X004944Y003090D02*
X004868Y003090D01*
X004868Y003115D02*
X004944Y003115D01*
X004944Y003140D02*
X004868Y003140D01*
X004868Y003165D02*
X004944Y003165D01*
X004944Y003190D02*
X004868Y003190D01*
X004868Y003215D02*
X004944Y003215D01*
X005141Y003227D02*
X005141Y002915D01*
X005065Y002915D01*
X005065Y003227D01*
X005141Y003227D01*
X005141Y002940D02*
X005065Y002940D01*
X005065Y002965D02*
X005141Y002965D01*
X005141Y002990D02*
X005065Y002990D01*
X005065Y003015D02*
X005141Y003015D01*
X005141Y003040D02*
X005065Y003040D01*
X005065Y003065D02*
X005141Y003065D01*
X005141Y003090D02*
X005065Y003090D01*
X005065Y003115D02*
X005141Y003115D01*
X005141Y003140D02*
X005065Y003140D01*
X005065Y003165D02*
X005141Y003165D01*
X005141Y003190D02*
X005065Y003190D01*
X005065Y003215D02*
X005141Y003215D01*
X005338Y003227D02*
X005338Y002915D01*
X005262Y002915D01*
X005262Y003227D01*
X005338Y003227D01*
X005338Y002940D02*
X005262Y002940D01*
X005262Y002965D02*
X005338Y002965D01*
X005338Y002990D02*
X005262Y002990D01*
X005262Y003015D02*
X005338Y003015D01*
X005338Y003040D02*
X005262Y003040D01*
X005262Y003065D02*
X005338Y003065D01*
X005338Y003090D02*
X005262Y003090D01*
X005262Y003115D02*
X005338Y003115D01*
X005338Y003140D02*
X005262Y003140D01*
X005262Y003165D02*
X005338Y003165D01*
X005338Y003190D02*
X005262Y003190D01*
X005262Y003215D02*
X005338Y003215D01*
X005535Y003227D02*
X005535Y002915D01*
X005459Y002915D01*
X005459Y003227D01*
X005535Y003227D01*
X005535Y002940D02*
X005459Y002940D01*
X005459Y002965D02*
X005535Y002965D01*
X005535Y002990D02*
X005459Y002990D01*
X005459Y003015D02*
X005535Y003015D01*
X005535Y003040D02*
X005459Y003040D01*
X005459Y003065D02*
X005535Y003065D01*
X005535Y003090D02*
X005459Y003090D01*
X005459Y003115D02*
X005535Y003115D01*
X005535Y003140D02*
X005459Y003140D01*
X005459Y003165D02*
X005535Y003165D01*
X005535Y003190D02*
X005459Y003190D01*
X005459Y003215D02*
X005535Y003215D01*
D23*
X005005Y003538D03*
D24*
X004971Y011385D02*
X004971Y012027D01*
X004971Y011385D02*
X004919Y011385D01*
X004919Y012027D01*
X004971Y012027D01*
X004971Y011402D02*
X004919Y011402D01*
X004919Y011419D02*
X004971Y011419D01*
X004971Y011436D02*
X004919Y011436D01*
X004919Y011453D02*
X004971Y011453D01*
X004971Y011470D02*
X004919Y011470D01*
X004919Y011487D02*
X004971Y011487D01*
X004971Y011504D02*
X004919Y011504D01*
X004919Y011521D02*
X004971Y011521D01*
X004971Y011538D02*
X004919Y011538D01*
X004919Y011555D02*
X004971Y011555D01*
X004971Y011572D02*
X004919Y011572D01*
X004919Y011589D02*
X004971Y011589D01*
X004971Y011606D02*
X004919Y011606D01*
X004919Y011623D02*
X004971Y011623D01*
X004971Y011640D02*
X004919Y011640D01*
X004919Y011657D02*
X004971Y011657D01*
X004971Y011674D02*
X004919Y011674D01*
X004919Y011691D02*
X004971Y011691D01*
X004971Y011708D02*
X004919Y011708D01*
X004919Y011725D02*
X004971Y011725D01*
X004971Y011742D02*
X004919Y011742D01*
X004919Y011759D02*
X004971Y011759D01*
X004971Y011776D02*
X004919Y011776D01*
X004919Y011793D02*
X004971Y011793D01*
X004971Y011810D02*
X004919Y011810D01*
X004919Y011827D02*
X004971Y011827D01*
X004971Y011844D02*
X004919Y011844D01*
X004919Y011861D02*
X004971Y011861D01*
X004971Y011878D02*
X004919Y011878D01*
X004919Y011895D02*
X004971Y011895D01*
X004971Y011912D02*
X004919Y011912D01*
X004919Y011929D02*
X004971Y011929D01*
X004971Y011946D02*
X004919Y011946D01*
X004919Y011963D02*
X004971Y011963D01*
X004971Y011980D02*
X004919Y011980D01*
X004919Y011997D02*
X004971Y011997D01*
X004971Y012014D02*
X004919Y012014D01*
X004814Y012027D02*
X004814Y011385D01*
X004762Y011385D01*
X004762Y012027D01*
X004814Y012027D01*
X004814Y011402D02*
X004762Y011402D01*
X004762Y011419D02*
X004814Y011419D01*
X004814Y011436D02*
X004762Y011436D01*
X004762Y011453D02*
X004814Y011453D01*
X004814Y011470D02*
X004762Y011470D01*
X004762Y011487D02*
X004814Y011487D01*
X004814Y011504D02*
X004762Y011504D01*
X004762Y011521D02*
X004814Y011521D01*
X004814Y011538D02*
X004762Y011538D01*
X004762Y011555D02*
X004814Y011555D01*
X004814Y011572D02*
X004762Y011572D01*
X004762Y011589D02*
X004814Y011589D01*
X004814Y011606D02*
X004762Y011606D01*
X004762Y011623D02*
X004814Y011623D01*
X004814Y011640D02*
X004762Y011640D01*
X004762Y011657D02*
X004814Y011657D01*
X004814Y011674D02*
X004762Y011674D01*
X004762Y011691D02*
X004814Y011691D01*
X004814Y011708D02*
X004762Y011708D01*
X004762Y011725D02*
X004814Y011725D01*
X004814Y011742D02*
X004762Y011742D01*
X004762Y011759D02*
X004814Y011759D01*
X004814Y011776D02*
X004762Y011776D01*
X004762Y011793D02*
X004814Y011793D01*
X004814Y011810D02*
X004762Y011810D01*
X004762Y011827D02*
X004814Y011827D01*
X004814Y011844D02*
X004762Y011844D01*
X004762Y011861D02*
X004814Y011861D01*
X004814Y011878D02*
X004762Y011878D01*
X004762Y011895D02*
X004814Y011895D01*
X004814Y011912D02*
X004762Y011912D01*
X004762Y011929D02*
X004814Y011929D01*
X004814Y011946D02*
X004762Y011946D01*
X004762Y011963D02*
X004814Y011963D01*
X004814Y011980D02*
X004762Y011980D01*
X004762Y011997D02*
X004814Y011997D01*
X004814Y012014D02*
X004762Y012014D01*
X004656Y012027D02*
X004656Y011385D01*
X004604Y011385D01*
X004604Y012027D01*
X004656Y012027D01*
X004656Y011402D02*
X004604Y011402D01*
X004604Y011419D02*
X004656Y011419D01*
X004656Y011436D02*
X004604Y011436D01*
X004604Y011453D02*
X004656Y011453D01*
X004656Y011470D02*
X004604Y011470D01*
X004604Y011487D02*
X004656Y011487D01*
X004656Y011504D02*
X004604Y011504D01*
X004604Y011521D02*
X004656Y011521D01*
X004656Y011538D02*
X004604Y011538D01*
X004604Y011555D02*
X004656Y011555D01*
X004656Y011572D02*
X004604Y011572D01*
X004604Y011589D02*
X004656Y011589D01*
X004656Y011606D02*
X004604Y011606D01*
X004604Y011623D02*
X004656Y011623D01*
X004656Y011640D02*
X004604Y011640D01*
X004604Y011657D02*
X004656Y011657D01*
X004656Y011674D02*
X004604Y011674D01*
X004604Y011691D02*
X004656Y011691D01*
X004656Y011708D02*
X004604Y011708D01*
X004604Y011725D02*
X004656Y011725D01*
X004656Y011742D02*
X004604Y011742D01*
X004604Y011759D02*
X004656Y011759D01*
X004656Y011776D02*
X004604Y011776D01*
X004604Y011793D02*
X004656Y011793D01*
X004656Y011810D02*
X004604Y011810D01*
X004604Y011827D02*
X004656Y011827D01*
X004656Y011844D02*
X004604Y011844D01*
X004604Y011861D02*
X004656Y011861D01*
X004656Y011878D02*
X004604Y011878D01*
X004604Y011895D02*
X004656Y011895D01*
X004656Y011912D02*
X004604Y011912D01*
X004604Y011929D02*
X004656Y011929D01*
X004656Y011946D02*
X004604Y011946D01*
X004604Y011963D02*
X004656Y011963D01*
X004656Y011980D02*
X004604Y011980D01*
X004604Y011997D02*
X004656Y011997D01*
X004656Y012014D02*
X004604Y012014D01*
X004499Y012027D02*
X004499Y011385D01*
X004447Y011385D01*
X004447Y012027D01*
X004499Y012027D01*
X004499Y011402D02*
X004447Y011402D01*
X004447Y011419D02*
X004499Y011419D01*
X004499Y011436D02*
X004447Y011436D01*
X004447Y011453D02*
X004499Y011453D01*
X004499Y011470D02*
X004447Y011470D01*
X004447Y011487D02*
X004499Y011487D01*
X004499Y011504D02*
X004447Y011504D01*
X004447Y011521D02*
X004499Y011521D01*
X004499Y011538D02*
X004447Y011538D01*
X004447Y011555D02*
X004499Y011555D01*
X004499Y011572D02*
X004447Y011572D01*
X004447Y011589D02*
X004499Y011589D01*
X004499Y011606D02*
X004447Y011606D01*
X004447Y011623D02*
X004499Y011623D01*
X004499Y011640D02*
X004447Y011640D01*
X004447Y011657D02*
X004499Y011657D01*
X004499Y011674D02*
X004447Y011674D01*
X004447Y011691D02*
X004499Y011691D01*
X004499Y011708D02*
X004447Y011708D01*
X004447Y011725D02*
X004499Y011725D01*
X004499Y011742D02*
X004447Y011742D01*
X004447Y011759D02*
X004499Y011759D01*
X004499Y011776D02*
X004447Y011776D01*
X004447Y011793D02*
X004499Y011793D01*
X004499Y011810D02*
X004447Y011810D01*
X004447Y011827D02*
X004499Y011827D01*
X004499Y011844D02*
X004447Y011844D01*
X004447Y011861D02*
X004499Y011861D01*
X004499Y011878D02*
X004447Y011878D01*
X004447Y011895D02*
X004499Y011895D01*
X004499Y011912D02*
X004447Y011912D01*
X004447Y011929D02*
X004499Y011929D01*
X004499Y011946D02*
X004447Y011946D01*
X004447Y011963D02*
X004499Y011963D01*
X004499Y011980D02*
X004447Y011980D01*
X004447Y011997D02*
X004499Y011997D01*
X004499Y012014D02*
X004447Y012014D01*
X004341Y012027D02*
X004341Y011385D01*
X004289Y011385D01*
X004289Y012027D01*
X004341Y012027D01*
X004341Y011402D02*
X004289Y011402D01*
X004289Y011419D02*
X004341Y011419D01*
X004341Y011436D02*
X004289Y011436D01*
X004289Y011453D02*
X004341Y011453D01*
X004341Y011470D02*
X004289Y011470D01*
X004289Y011487D02*
X004341Y011487D01*
X004341Y011504D02*
X004289Y011504D01*
X004289Y011521D02*
X004341Y011521D01*
X004341Y011538D02*
X004289Y011538D01*
X004289Y011555D02*
X004341Y011555D01*
X004341Y011572D02*
X004289Y011572D01*
X004289Y011589D02*
X004341Y011589D01*
X004341Y011606D02*
X004289Y011606D01*
X004289Y011623D02*
X004341Y011623D01*
X004341Y011640D02*
X004289Y011640D01*
X004289Y011657D02*
X004341Y011657D01*
X004341Y011674D02*
X004289Y011674D01*
X004289Y011691D02*
X004341Y011691D01*
X004341Y011708D02*
X004289Y011708D01*
X004289Y011725D02*
X004341Y011725D01*
X004341Y011742D02*
X004289Y011742D01*
X004289Y011759D02*
X004341Y011759D01*
X004341Y011776D02*
X004289Y011776D01*
X004289Y011793D02*
X004341Y011793D01*
X004341Y011810D02*
X004289Y011810D01*
X004289Y011827D02*
X004341Y011827D01*
X004341Y011844D02*
X004289Y011844D01*
X004289Y011861D02*
X004341Y011861D01*
X004341Y011878D02*
X004289Y011878D01*
X004289Y011895D02*
X004341Y011895D01*
X004341Y011912D02*
X004289Y011912D01*
X004289Y011929D02*
X004341Y011929D01*
X004341Y011946D02*
X004289Y011946D01*
X004289Y011963D02*
X004341Y011963D01*
X004341Y011980D02*
X004289Y011980D01*
X004289Y011997D02*
X004341Y011997D01*
X004341Y012014D02*
X004289Y012014D01*
X004184Y012027D02*
X004184Y011385D01*
X004132Y011385D01*
X004132Y012027D01*
X004184Y012027D01*
X004184Y011402D02*
X004132Y011402D01*
X004132Y011419D02*
X004184Y011419D01*
X004184Y011436D02*
X004132Y011436D01*
X004132Y011453D02*
X004184Y011453D01*
X004184Y011470D02*
X004132Y011470D01*
X004132Y011487D02*
X004184Y011487D01*
X004184Y011504D02*
X004132Y011504D01*
X004132Y011521D02*
X004184Y011521D01*
X004184Y011538D02*
X004132Y011538D01*
X004132Y011555D02*
X004184Y011555D01*
X004184Y011572D02*
X004132Y011572D01*
X004132Y011589D02*
X004184Y011589D01*
X004184Y011606D02*
X004132Y011606D01*
X004132Y011623D02*
X004184Y011623D01*
X004184Y011640D02*
X004132Y011640D01*
X004132Y011657D02*
X004184Y011657D01*
X004184Y011674D02*
X004132Y011674D01*
X004132Y011691D02*
X004184Y011691D01*
X004184Y011708D02*
X004132Y011708D01*
X004132Y011725D02*
X004184Y011725D01*
X004184Y011742D02*
X004132Y011742D01*
X004132Y011759D02*
X004184Y011759D01*
X004184Y011776D02*
X004132Y011776D01*
X004132Y011793D02*
X004184Y011793D01*
X004184Y011810D02*
X004132Y011810D01*
X004132Y011827D02*
X004184Y011827D01*
X004184Y011844D02*
X004132Y011844D01*
X004132Y011861D02*
X004184Y011861D01*
X004184Y011878D02*
X004132Y011878D01*
X004132Y011895D02*
X004184Y011895D01*
X004184Y011912D02*
X004132Y011912D01*
X004132Y011929D02*
X004184Y011929D01*
X004184Y011946D02*
X004132Y011946D01*
X004132Y011963D02*
X004184Y011963D01*
X004184Y011980D02*
X004132Y011980D01*
X004132Y011997D02*
X004184Y011997D01*
X004184Y012014D02*
X004132Y012014D01*
X004026Y012027D02*
X004026Y011385D01*
X003974Y011385D01*
X003974Y012027D01*
X004026Y012027D01*
X004026Y011402D02*
X003974Y011402D01*
X003974Y011419D02*
X004026Y011419D01*
X004026Y011436D02*
X003974Y011436D01*
X003974Y011453D02*
X004026Y011453D01*
X004026Y011470D02*
X003974Y011470D01*
X003974Y011487D02*
X004026Y011487D01*
X004026Y011504D02*
X003974Y011504D01*
X003974Y011521D02*
X004026Y011521D01*
X004026Y011538D02*
X003974Y011538D01*
X003974Y011555D02*
X004026Y011555D01*
X004026Y011572D02*
X003974Y011572D01*
X003974Y011589D02*
X004026Y011589D01*
X004026Y011606D02*
X003974Y011606D01*
X003974Y011623D02*
X004026Y011623D01*
X004026Y011640D02*
X003974Y011640D01*
X003974Y011657D02*
X004026Y011657D01*
X004026Y011674D02*
X003974Y011674D01*
X003974Y011691D02*
X004026Y011691D01*
X004026Y011708D02*
X003974Y011708D01*
X003974Y011725D02*
X004026Y011725D01*
X004026Y011742D02*
X003974Y011742D01*
X003974Y011759D02*
X004026Y011759D01*
X004026Y011776D02*
X003974Y011776D01*
X003974Y011793D02*
X004026Y011793D01*
X004026Y011810D02*
X003974Y011810D01*
X003974Y011827D02*
X004026Y011827D01*
X004026Y011844D02*
X003974Y011844D01*
X003974Y011861D02*
X004026Y011861D01*
X004026Y011878D02*
X003974Y011878D01*
X003974Y011895D02*
X004026Y011895D01*
X004026Y011912D02*
X003974Y011912D01*
X003974Y011929D02*
X004026Y011929D01*
X004026Y011946D02*
X003974Y011946D01*
X003974Y011963D02*
X004026Y011963D01*
X004026Y011980D02*
X003974Y011980D01*
X003974Y011997D02*
X004026Y011997D01*
X004026Y012014D02*
X003974Y012014D01*
X003869Y012027D02*
X003869Y011385D01*
X003817Y011385D01*
X003817Y012027D01*
X003869Y012027D01*
X003869Y011402D02*
X003817Y011402D01*
X003817Y011419D02*
X003869Y011419D01*
X003869Y011436D02*
X003817Y011436D01*
X003817Y011453D02*
X003869Y011453D01*
X003869Y011470D02*
X003817Y011470D01*
X003817Y011487D02*
X003869Y011487D01*
X003869Y011504D02*
X003817Y011504D01*
X003817Y011521D02*
X003869Y011521D01*
X003869Y011538D02*
X003817Y011538D01*
X003817Y011555D02*
X003869Y011555D01*
X003869Y011572D02*
X003817Y011572D01*
X003817Y011589D02*
X003869Y011589D01*
X003869Y011606D02*
X003817Y011606D01*
X003817Y011623D02*
X003869Y011623D01*
X003869Y011640D02*
X003817Y011640D01*
X003817Y011657D02*
X003869Y011657D01*
X003869Y011674D02*
X003817Y011674D01*
X003817Y011691D02*
X003869Y011691D01*
X003869Y011708D02*
X003817Y011708D01*
X003817Y011725D02*
X003869Y011725D01*
X003869Y011742D02*
X003817Y011742D01*
X003817Y011759D02*
X003869Y011759D01*
X003869Y011776D02*
X003817Y011776D01*
X003817Y011793D02*
X003869Y011793D01*
X003869Y011810D02*
X003817Y011810D01*
X003817Y011827D02*
X003869Y011827D01*
X003869Y011844D02*
X003817Y011844D01*
X003817Y011861D02*
X003869Y011861D01*
X003869Y011878D02*
X003817Y011878D01*
X003817Y011895D02*
X003869Y011895D01*
X003869Y011912D02*
X003817Y011912D01*
X003817Y011929D02*
X003869Y011929D01*
X003869Y011946D02*
X003817Y011946D01*
X003817Y011963D02*
X003869Y011963D01*
X003869Y011980D02*
X003817Y011980D01*
X003817Y011997D02*
X003869Y011997D01*
X003869Y012014D02*
X003817Y012014D01*
X003711Y012027D02*
X003711Y011385D01*
X003659Y011385D01*
X003659Y012027D01*
X003711Y012027D01*
X003711Y011402D02*
X003659Y011402D01*
X003659Y011419D02*
X003711Y011419D01*
X003711Y011436D02*
X003659Y011436D01*
X003659Y011453D02*
X003711Y011453D01*
X003711Y011470D02*
X003659Y011470D01*
X003659Y011487D02*
X003711Y011487D01*
X003711Y011504D02*
X003659Y011504D01*
X003659Y011521D02*
X003711Y011521D01*
X003711Y011538D02*
X003659Y011538D01*
X003659Y011555D02*
X003711Y011555D01*
X003711Y011572D02*
X003659Y011572D01*
X003659Y011589D02*
X003711Y011589D01*
X003711Y011606D02*
X003659Y011606D01*
X003659Y011623D02*
X003711Y011623D01*
X003711Y011640D02*
X003659Y011640D01*
X003659Y011657D02*
X003711Y011657D01*
X003711Y011674D02*
X003659Y011674D01*
X003659Y011691D02*
X003711Y011691D01*
X003711Y011708D02*
X003659Y011708D01*
X003659Y011725D02*
X003711Y011725D01*
X003711Y011742D02*
X003659Y011742D01*
X003659Y011759D02*
X003711Y011759D01*
X003711Y011776D02*
X003659Y011776D01*
X003659Y011793D02*
X003711Y011793D01*
X003711Y011810D02*
X003659Y011810D01*
X003659Y011827D02*
X003711Y011827D01*
X003711Y011844D02*
X003659Y011844D01*
X003659Y011861D02*
X003711Y011861D01*
X003711Y011878D02*
X003659Y011878D01*
X003659Y011895D02*
X003711Y011895D01*
X003711Y011912D02*
X003659Y011912D01*
X003659Y011929D02*
X003711Y011929D01*
X003711Y011946D02*
X003659Y011946D01*
X003659Y011963D02*
X003711Y011963D01*
X003711Y011980D02*
X003659Y011980D01*
X003659Y011997D02*
X003711Y011997D01*
X003711Y012014D02*
X003659Y012014D01*
X003554Y012027D02*
X003554Y011385D01*
X003502Y011385D01*
X003502Y012027D01*
X003554Y012027D01*
X003554Y011402D02*
X003502Y011402D01*
X003502Y011419D02*
X003554Y011419D01*
X003554Y011436D02*
X003502Y011436D01*
X003502Y011453D02*
X003554Y011453D01*
X003554Y011470D02*
X003502Y011470D01*
X003502Y011487D02*
X003554Y011487D01*
X003554Y011504D02*
X003502Y011504D01*
X003502Y011521D02*
X003554Y011521D01*
X003554Y011538D02*
X003502Y011538D01*
X003502Y011555D02*
X003554Y011555D01*
X003554Y011572D02*
X003502Y011572D01*
X003502Y011589D02*
X003554Y011589D01*
X003554Y011606D02*
X003502Y011606D01*
X003502Y011623D02*
X003554Y011623D01*
X003554Y011640D02*
X003502Y011640D01*
X003502Y011657D02*
X003554Y011657D01*
X003554Y011674D02*
X003502Y011674D01*
X003502Y011691D02*
X003554Y011691D01*
X003554Y011708D02*
X003502Y011708D01*
X003502Y011725D02*
X003554Y011725D01*
X003554Y011742D02*
X003502Y011742D01*
X003502Y011759D02*
X003554Y011759D01*
X003554Y011776D02*
X003502Y011776D01*
X003502Y011793D02*
X003554Y011793D01*
X003554Y011810D02*
X003502Y011810D01*
X003502Y011827D02*
X003554Y011827D01*
X003554Y011844D02*
X003502Y011844D01*
X003502Y011861D02*
X003554Y011861D01*
X003554Y011878D02*
X003502Y011878D01*
X003502Y011895D02*
X003554Y011895D01*
X003554Y011912D02*
X003502Y011912D01*
X003502Y011929D02*
X003554Y011929D01*
X003554Y011946D02*
X003502Y011946D01*
X003502Y011963D02*
X003554Y011963D01*
X003554Y011980D02*
X003502Y011980D01*
X003502Y011997D02*
X003554Y011997D01*
X003554Y012014D02*
X003502Y012014D01*
X003396Y012027D02*
X003396Y011385D01*
X003344Y011385D01*
X003344Y012027D01*
X003396Y012027D01*
X003396Y011402D02*
X003344Y011402D01*
X003344Y011419D02*
X003396Y011419D01*
X003396Y011436D02*
X003344Y011436D01*
X003344Y011453D02*
X003396Y011453D01*
X003396Y011470D02*
X003344Y011470D01*
X003344Y011487D02*
X003396Y011487D01*
X003396Y011504D02*
X003344Y011504D01*
X003344Y011521D02*
X003396Y011521D01*
X003396Y011538D02*
X003344Y011538D01*
X003344Y011555D02*
X003396Y011555D01*
X003396Y011572D02*
X003344Y011572D01*
X003344Y011589D02*
X003396Y011589D01*
X003396Y011606D02*
X003344Y011606D01*
X003344Y011623D02*
X003396Y011623D01*
X003396Y011640D02*
X003344Y011640D01*
X003344Y011657D02*
X003396Y011657D01*
X003396Y011674D02*
X003344Y011674D01*
X003344Y011691D02*
X003396Y011691D01*
X003396Y011708D02*
X003344Y011708D01*
X003344Y011725D02*
X003396Y011725D01*
X003396Y011742D02*
X003344Y011742D01*
X003344Y011759D02*
X003396Y011759D01*
X003396Y011776D02*
X003344Y011776D01*
X003344Y011793D02*
X003396Y011793D01*
X003396Y011810D02*
X003344Y011810D01*
X003344Y011827D02*
X003396Y011827D01*
X003396Y011844D02*
X003344Y011844D01*
X003344Y011861D02*
X003396Y011861D01*
X003396Y011878D02*
X003344Y011878D01*
X003344Y011895D02*
X003396Y011895D01*
X003396Y011912D02*
X003344Y011912D01*
X003344Y011929D02*
X003396Y011929D01*
X003396Y011946D02*
X003344Y011946D01*
X003344Y011963D02*
X003396Y011963D01*
X003396Y011980D02*
X003344Y011980D01*
X003344Y011997D02*
X003396Y011997D01*
X003396Y012014D02*
X003344Y012014D01*
X003239Y012027D02*
X003239Y011385D01*
X003187Y011385D01*
X003187Y012027D01*
X003239Y012027D01*
X003239Y011402D02*
X003187Y011402D01*
X003187Y011419D02*
X003239Y011419D01*
X003239Y011436D02*
X003187Y011436D01*
X003187Y011453D02*
X003239Y011453D01*
X003239Y011470D02*
X003187Y011470D01*
X003187Y011487D02*
X003239Y011487D01*
X003239Y011504D02*
X003187Y011504D01*
X003187Y011521D02*
X003239Y011521D01*
X003239Y011538D02*
X003187Y011538D01*
X003187Y011555D02*
X003239Y011555D01*
X003239Y011572D02*
X003187Y011572D01*
X003187Y011589D02*
X003239Y011589D01*
X003239Y011606D02*
X003187Y011606D01*
X003187Y011623D02*
X003239Y011623D01*
X003239Y011640D02*
X003187Y011640D01*
X003187Y011657D02*
X003239Y011657D01*
X003239Y011674D02*
X003187Y011674D01*
X003187Y011691D02*
X003239Y011691D01*
X003239Y011708D02*
X003187Y011708D01*
X003187Y011725D02*
X003239Y011725D01*
X003239Y011742D02*
X003187Y011742D01*
X003187Y011759D02*
X003239Y011759D01*
X003239Y011776D02*
X003187Y011776D01*
X003187Y011793D02*
X003239Y011793D01*
X003239Y011810D02*
X003187Y011810D01*
X003187Y011827D02*
X003239Y011827D01*
X003239Y011844D02*
X003187Y011844D01*
X003187Y011861D02*
X003239Y011861D01*
X003239Y011878D02*
X003187Y011878D01*
X003187Y011895D02*
X003239Y011895D01*
X003239Y011912D02*
X003187Y011912D01*
X003187Y011929D02*
X003239Y011929D01*
X003239Y011946D02*
X003187Y011946D01*
X003187Y011963D02*
X003239Y011963D01*
X003239Y011980D02*
X003187Y011980D01*
X003187Y011997D02*
X003239Y011997D01*
X003239Y012014D02*
X003187Y012014D01*
X003082Y012027D02*
X003082Y011385D01*
X003030Y011385D01*
X003030Y012027D01*
X003082Y012027D01*
X003082Y011402D02*
X003030Y011402D01*
X003030Y011419D02*
X003082Y011419D01*
X003082Y011436D02*
X003030Y011436D01*
X003030Y011453D02*
X003082Y011453D01*
X003082Y011470D02*
X003030Y011470D01*
X003030Y011487D02*
X003082Y011487D01*
X003082Y011504D02*
X003030Y011504D01*
X003030Y011521D02*
X003082Y011521D01*
X003082Y011538D02*
X003030Y011538D01*
X003030Y011555D02*
X003082Y011555D01*
X003082Y011572D02*
X003030Y011572D01*
X003030Y011589D02*
X003082Y011589D01*
X003082Y011606D02*
X003030Y011606D01*
X003030Y011623D02*
X003082Y011623D01*
X003082Y011640D02*
X003030Y011640D01*
X003030Y011657D02*
X003082Y011657D01*
X003082Y011674D02*
X003030Y011674D01*
X003030Y011691D02*
X003082Y011691D01*
X003082Y011708D02*
X003030Y011708D01*
X003030Y011725D02*
X003082Y011725D01*
X003082Y011742D02*
X003030Y011742D01*
X003030Y011759D02*
X003082Y011759D01*
X003082Y011776D02*
X003030Y011776D01*
X003030Y011793D02*
X003082Y011793D01*
X003082Y011810D02*
X003030Y011810D01*
X003030Y011827D02*
X003082Y011827D01*
X003082Y011844D02*
X003030Y011844D01*
X003030Y011861D02*
X003082Y011861D01*
X003082Y011878D02*
X003030Y011878D01*
X003030Y011895D02*
X003082Y011895D01*
X003082Y011912D02*
X003030Y011912D01*
X003030Y011929D02*
X003082Y011929D01*
X003082Y011946D02*
X003030Y011946D01*
X003030Y011963D02*
X003082Y011963D01*
X003082Y011980D02*
X003030Y011980D01*
X003030Y011997D02*
X003082Y011997D01*
X003082Y012014D02*
X003030Y012014D01*
X002924Y012027D02*
X002924Y011385D01*
X002872Y011385D01*
X002872Y012027D01*
X002924Y012027D01*
X002924Y011402D02*
X002872Y011402D01*
X002872Y011419D02*
X002924Y011419D01*
X002924Y011436D02*
X002872Y011436D01*
X002872Y011453D02*
X002924Y011453D01*
X002924Y011470D02*
X002872Y011470D01*
X002872Y011487D02*
X002924Y011487D01*
X002924Y011504D02*
X002872Y011504D01*
X002872Y011521D02*
X002924Y011521D01*
X002924Y011538D02*
X002872Y011538D01*
X002872Y011555D02*
X002924Y011555D01*
X002924Y011572D02*
X002872Y011572D01*
X002872Y011589D02*
X002924Y011589D01*
X002924Y011606D02*
X002872Y011606D01*
X002872Y011623D02*
X002924Y011623D01*
X002924Y011640D02*
X002872Y011640D01*
X002872Y011657D02*
X002924Y011657D01*
X002924Y011674D02*
X002872Y011674D01*
X002872Y011691D02*
X002924Y011691D01*
X002924Y011708D02*
X002872Y011708D01*
X002872Y011725D02*
X002924Y011725D01*
X002924Y011742D02*
X002872Y011742D01*
X002872Y011759D02*
X002924Y011759D01*
X002924Y011776D02*
X002872Y011776D01*
X002872Y011793D02*
X002924Y011793D01*
X002924Y011810D02*
X002872Y011810D01*
X002872Y011827D02*
X002924Y011827D01*
X002924Y011844D02*
X002872Y011844D01*
X002872Y011861D02*
X002924Y011861D01*
X002924Y011878D02*
X002872Y011878D01*
X002872Y011895D02*
X002924Y011895D01*
X002924Y011912D02*
X002872Y011912D01*
X002872Y011929D02*
X002924Y011929D01*
X002924Y011946D02*
X002872Y011946D01*
X002872Y011963D02*
X002924Y011963D01*
X002924Y011980D02*
X002872Y011980D01*
X002872Y011997D02*
X002924Y011997D01*
X002924Y012014D02*
X002872Y012014D01*
X002924Y013645D02*
X002924Y014287D01*
X002924Y013645D02*
X002872Y013645D01*
X002872Y014287D01*
X002924Y014287D01*
X002924Y013662D02*
X002872Y013662D01*
X002872Y013679D02*
X002924Y013679D01*
X002924Y013696D02*
X002872Y013696D01*
X002872Y013713D02*
X002924Y013713D01*
X002924Y013730D02*
X002872Y013730D01*
X002872Y013747D02*
X002924Y013747D01*
X002924Y013764D02*
X002872Y013764D01*
X002872Y013781D02*
X002924Y013781D01*
X002924Y013798D02*
X002872Y013798D01*
X002872Y013815D02*
X002924Y013815D01*
X002924Y013832D02*
X002872Y013832D01*
X002872Y013849D02*
X002924Y013849D01*
X002924Y013866D02*
X002872Y013866D01*
X002872Y013883D02*
X002924Y013883D01*
X002924Y013900D02*
X002872Y013900D01*
X002872Y013917D02*
X002924Y013917D01*
X002924Y013934D02*
X002872Y013934D01*
X002872Y013951D02*
X002924Y013951D01*
X002924Y013968D02*
X002872Y013968D01*
X002872Y013985D02*
X002924Y013985D01*
X002924Y014002D02*
X002872Y014002D01*
X002872Y014019D02*
X002924Y014019D01*
X002924Y014036D02*
X002872Y014036D01*
X002872Y014053D02*
X002924Y014053D01*
X002924Y014070D02*
X002872Y014070D01*
X002872Y014087D02*
X002924Y014087D01*
X002924Y014104D02*
X002872Y014104D01*
X002872Y014121D02*
X002924Y014121D01*
X002924Y014138D02*
X002872Y014138D01*
X002872Y014155D02*
X002924Y014155D01*
X002924Y014172D02*
X002872Y014172D01*
X002872Y014189D02*
X002924Y014189D01*
X002924Y014206D02*
X002872Y014206D01*
X002872Y014223D02*
X002924Y014223D01*
X002924Y014240D02*
X002872Y014240D01*
X002872Y014257D02*
X002924Y014257D01*
X002924Y014274D02*
X002872Y014274D01*
X003082Y014287D02*
X003082Y013645D01*
X003030Y013645D01*
X003030Y014287D01*
X003082Y014287D01*
X003082Y013662D02*
X003030Y013662D01*
X003030Y013679D02*
X003082Y013679D01*
X003082Y013696D02*
X003030Y013696D01*
X003030Y013713D02*
X003082Y013713D01*
X003082Y013730D02*
X003030Y013730D01*
X003030Y013747D02*
X003082Y013747D01*
X003082Y013764D02*
X003030Y013764D01*
X003030Y013781D02*
X003082Y013781D01*
X003082Y013798D02*
X003030Y013798D01*
X003030Y013815D02*
X003082Y013815D01*
X003082Y013832D02*
X003030Y013832D01*
X003030Y013849D02*
X003082Y013849D01*
X003082Y013866D02*
X003030Y013866D01*
X003030Y013883D02*
X003082Y013883D01*
X003082Y013900D02*
X003030Y013900D01*
X003030Y013917D02*
X003082Y013917D01*
X003082Y013934D02*
X003030Y013934D01*
X003030Y013951D02*
X003082Y013951D01*
X003082Y013968D02*
X003030Y013968D01*
X003030Y013985D02*
X003082Y013985D01*
X003082Y014002D02*
X003030Y014002D01*
X003030Y014019D02*
X003082Y014019D01*
X003082Y014036D02*
X003030Y014036D01*
X003030Y014053D02*
X003082Y014053D01*
X003082Y014070D02*
X003030Y014070D01*
X003030Y014087D02*
X003082Y014087D01*
X003082Y014104D02*
X003030Y014104D01*
X003030Y014121D02*
X003082Y014121D01*
X003082Y014138D02*
X003030Y014138D01*
X003030Y014155D02*
X003082Y014155D01*
X003082Y014172D02*
X003030Y014172D01*
X003030Y014189D02*
X003082Y014189D01*
X003082Y014206D02*
X003030Y014206D01*
X003030Y014223D02*
X003082Y014223D01*
X003082Y014240D02*
X003030Y014240D01*
X003030Y014257D02*
X003082Y014257D01*
X003082Y014274D02*
X003030Y014274D01*
X003239Y014287D02*
X003239Y013645D01*
X003187Y013645D01*
X003187Y014287D01*
X003239Y014287D01*
X003239Y013662D02*
X003187Y013662D01*
X003187Y013679D02*
X003239Y013679D01*
X003239Y013696D02*
X003187Y013696D01*
X003187Y013713D02*
X003239Y013713D01*
X003239Y013730D02*
X003187Y013730D01*
X003187Y013747D02*
X003239Y013747D01*
X003239Y013764D02*
X003187Y013764D01*
X003187Y013781D02*
X003239Y013781D01*
X003239Y013798D02*
X003187Y013798D01*
X003187Y013815D02*
X003239Y013815D01*
X003239Y013832D02*
X003187Y013832D01*
X003187Y013849D02*
X003239Y013849D01*
X003239Y013866D02*
X003187Y013866D01*
X003187Y013883D02*
X003239Y013883D01*
X003239Y013900D02*
X003187Y013900D01*
X003187Y013917D02*
X003239Y013917D01*
X003239Y013934D02*
X003187Y013934D01*
X003187Y013951D02*
X003239Y013951D01*
X003239Y013968D02*
X003187Y013968D01*
X003187Y013985D02*
X003239Y013985D01*
X003239Y014002D02*
X003187Y014002D01*
X003187Y014019D02*
X003239Y014019D01*
X003239Y014036D02*
X003187Y014036D01*
X003187Y014053D02*
X003239Y014053D01*
X003239Y014070D02*
X003187Y014070D01*
X003187Y014087D02*
X003239Y014087D01*
X003239Y014104D02*
X003187Y014104D01*
X003187Y014121D02*
X003239Y014121D01*
X003239Y014138D02*
X003187Y014138D01*
X003187Y014155D02*
X003239Y014155D01*
X003239Y014172D02*
X003187Y014172D01*
X003187Y014189D02*
X003239Y014189D01*
X003239Y014206D02*
X003187Y014206D01*
X003187Y014223D02*
X003239Y014223D01*
X003239Y014240D02*
X003187Y014240D01*
X003187Y014257D02*
X003239Y014257D01*
X003239Y014274D02*
X003187Y014274D01*
X003396Y014287D02*
X003396Y013645D01*
X003344Y013645D01*
X003344Y014287D01*
X003396Y014287D01*
X003396Y013662D02*
X003344Y013662D01*
X003344Y013679D02*
X003396Y013679D01*
X003396Y013696D02*
X003344Y013696D01*
X003344Y013713D02*
X003396Y013713D01*
X003396Y013730D02*
X003344Y013730D01*
X003344Y013747D02*
X003396Y013747D01*
X003396Y013764D02*
X003344Y013764D01*
X003344Y013781D02*
X003396Y013781D01*
X003396Y013798D02*
X003344Y013798D01*
X003344Y013815D02*
X003396Y013815D01*
X003396Y013832D02*
X003344Y013832D01*
X003344Y013849D02*
X003396Y013849D01*
X003396Y013866D02*
X003344Y013866D01*
X003344Y013883D02*
X003396Y013883D01*
X003396Y013900D02*
X003344Y013900D01*
X003344Y013917D02*
X003396Y013917D01*
X003396Y013934D02*
X003344Y013934D01*
X003344Y013951D02*
X003396Y013951D01*
X003396Y013968D02*
X003344Y013968D01*
X003344Y013985D02*
X003396Y013985D01*
X003396Y014002D02*
X003344Y014002D01*
X003344Y014019D02*
X003396Y014019D01*
X003396Y014036D02*
X003344Y014036D01*
X003344Y014053D02*
X003396Y014053D01*
X003396Y014070D02*
X003344Y014070D01*
X003344Y014087D02*
X003396Y014087D01*
X003396Y014104D02*
X003344Y014104D01*
X003344Y014121D02*
X003396Y014121D01*
X003396Y014138D02*
X003344Y014138D01*
X003344Y014155D02*
X003396Y014155D01*
X003396Y014172D02*
X003344Y014172D01*
X003344Y014189D02*
X003396Y014189D01*
X003396Y014206D02*
X003344Y014206D01*
X003344Y014223D02*
X003396Y014223D01*
X003396Y014240D02*
X003344Y014240D01*
X003344Y014257D02*
X003396Y014257D01*
X003396Y014274D02*
X003344Y014274D01*
X003554Y014287D02*
X003554Y013645D01*
X003502Y013645D01*
X003502Y014287D01*
X003554Y014287D01*
X003554Y013662D02*
X003502Y013662D01*
X003502Y013679D02*
X003554Y013679D01*
X003554Y013696D02*
X003502Y013696D01*
X003502Y013713D02*
X003554Y013713D01*
X003554Y013730D02*
X003502Y013730D01*
X003502Y013747D02*
X003554Y013747D01*
X003554Y013764D02*
X003502Y013764D01*
X003502Y013781D02*
X003554Y013781D01*
X003554Y013798D02*
X003502Y013798D01*
X003502Y013815D02*
X003554Y013815D01*
X003554Y013832D02*
X003502Y013832D01*
X003502Y013849D02*
X003554Y013849D01*
X003554Y013866D02*
X003502Y013866D01*
X003502Y013883D02*
X003554Y013883D01*
X003554Y013900D02*
X003502Y013900D01*
X003502Y013917D02*
X003554Y013917D01*
X003554Y013934D02*
X003502Y013934D01*
X003502Y013951D02*
X003554Y013951D01*
X003554Y013968D02*
X003502Y013968D01*
X003502Y013985D02*
X003554Y013985D01*
X003554Y014002D02*
X003502Y014002D01*
X003502Y014019D02*
X003554Y014019D01*
X003554Y014036D02*
X003502Y014036D01*
X003502Y014053D02*
X003554Y014053D01*
X003554Y014070D02*
X003502Y014070D01*
X003502Y014087D02*
X003554Y014087D01*
X003554Y014104D02*
X003502Y014104D01*
X003502Y014121D02*
X003554Y014121D01*
X003554Y014138D02*
X003502Y014138D01*
X003502Y014155D02*
X003554Y014155D01*
X003554Y014172D02*
X003502Y014172D01*
X003502Y014189D02*
X003554Y014189D01*
X003554Y014206D02*
X003502Y014206D01*
X003502Y014223D02*
X003554Y014223D01*
X003554Y014240D02*
X003502Y014240D01*
X003502Y014257D02*
X003554Y014257D01*
X003554Y014274D02*
X003502Y014274D01*
X003711Y014287D02*
X003711Y013645D01*
X003659Y013645D01*
X003659Y014287D01*
X003711Y014287D01*
X003711Y013662D02*
X003659Y013662D01*
X003659Y013679D02*
X003711Y013679D01*
X003711Y013696D02*
X003659Y013696D01*
X003659Y013713D02*
X003711Y013713D01*
X003711Y013730D02*
X003659Y013730D01*
X003659Y013747D02*
X003711Y013747D01*
X003711Y013764D02*
X003659Y013764D01*
X003659Y013781D02*
X003711Y013781D01*
X003711Y013798D02*
X003659Y013798D01*
X003659Y013815D02*
X003711Y013815D01*
X003711Y013832D02*
X003659Y013832D01*
X003659Y013849D02*
X003711Y013849D01*
X003711Y013866D02*
X003659Y013866D01*
X003659Y013883D02*
X003711Y013883D01*
X003711Y013900D02*
X003659Y013900D01*
X003659Y013917D02*
X003711Y013917D01*
X003711Y013934D02*
X003659Y013934D01*
X003659Y013951D02*
X003711Y013951D01*
X003711Y013968D02*
X003659Y013968D01*
X003659Y013985D02*
X003711Y013985D01*
X003711Y014002D02*
X003659Y014002D01*
X003659Y014019D02*
X003711Y014019D01*
X003711Y014036D02*
X003659Y014036D01*
X003659Y014053D02*
X003711Y014053D01*
X003711Y014070D02*
X003659Y014070D01*
X003659Y014087D02*
X003711Y014087D01*
X003711Y014104D02*
X003659Y014104D01*
X003659Y014121D02*
X003711Y014121D01*
X003711Y014138D02*
X003659Y014138D01*
X003659Y014155D02*
X003711Y014155D01*
X003711Y014172D02*
X003659Y014172D01*
X003659Y014189D02*
X003711Y014189D01*
X003711Y014206D02*
X003659Y014206D01*
X003659Y014223D02*
X003711Y014223D01*
X003711Y014240D02*
X003659Y014240D01*
X003659Y014257D02*
X003711Y014257D01*
X003711Y014274D02*
X003659Y014274D01*
X003869Y014287D02*
X003869Y013645D01*
X003817Y013645D01*
X003817Y014287D01*
X003869Y014287D01*
X003869Y013662D02*
X003817Y013662D01*
X003817Y013679D02*
X003869Y013679D01*
X003869Y013696D02*
X003817Y013696D01*
X003817Y013713D02*
X003869Y013713D01*
X003869Y013730D02*
X003817Y013730D01*
X003817Y013747D02*
X003869Y013747D01*
X003869Y013764D02*
X003817Y013764D01*
X003817Y013781D02*
X003869Y013781D01*
X003869Y013798D02*
X003817Y013798D01*
X003817Y013815D02*
X003869Y013815D01*
X003869Y013832D02*
X003817Y013832D01*
X003817Y013849D02*
X003869Y013849D01*
X003869Y013866D02*
X003817Y013866D01*
X003817Y013883D02*
X003869Y013883D01*
X003869Y013900D02*
X003817Y013900D01*
X003817Y013917D02*
X003869Y013917D01*
X003869Y013934D02*
X003817Y013934D01*
X003817Y013951D02*
X003869Y013951D01*
X003869Y013968D02*
X003817Y013968D01*
X003817Y013985D02*
X003869Y013985D01*
X003869Y014002D02*
X003817Y014002D01*
X003817Y014019D02*
X003869Y014019D01*
X003869Y014036D02*
X003817Y014036D01*
X003817Y014053D02*
X003869Y014053D01*
X003869Y014070D02*
X003817Y014070D01*
X003817Y014087D02*
X003869Y014087D01*
X003869Y014104D02*
X003817Y014104D01*
X003817Y014121D02*
X003869Y014121D01*
X003869Y014138D02*
X003817Y014138D01*
X003817Y014155D02*
X003869Y014155D01*
X003869Y014172D02*
X003817Y014172D01*
X003817Y014189D02*
X003869Y014189D01*
X003869Y014206D02*
X003817Y014206D01*
X003817Y014223D02*
X003869Y014223D01*
X003869Y014240D02*
X003817Y014240D01*
X003817Y014257D02*
X003869Y014257D01*
X003869Y014274D02*
X003817Y014274D01*
X004026Y014287D02*
X004026Y013645D01*
X003974Y013645D01*
X003974Y014287D01*
X004026Y014287D01*
X004026Y013662D02*
X003974Y013662D01*
X003974Y013679D02*
X004026Y013679D01*
X004026Y013696D02*
X003974Y013696D01*
X003974Y013713D02*
X004026Y013713D01*
X004026Y013730D02*
X003974Y013730D01*
X003974Y013747D02*
X004026Y013747D01*
X004026Y013764D02*
X003974Y013764D01*
X003974Y013781D02*
X004026Y013781D01*
X004026Y013798D02*
X003974Y013798D01*
X003974Y013815D02*
X004026Y013815D01*
X004026Y013832D02*
X003974Y013832D01*
X003974Y013849D02*
X004026Y013849D01*
X004026Y013866D02*
X003974Y013866D01*
X003974Y013883D02*
X004026Y013883D01*
X004026Y013900D02*
X003974Y013900D01*
X003974Y013917D02*
X004026Y013917D01*
X004026Y013934D02*
X003974Y013934D01*
X003974Y013951D02*
X004026Y013951D01*
X004026Y013968D02*
X003974Y013968D01*
X003974Y013985D02*
X004026Y013985D01*
X004026Y014002D02*
X003974Y014002D01*
X003974Y014019D02*
X004026Y014019D01*
X004026Y014036D02*
X003974Y014036D01*
X003974Y014053D02*
X004026Y014053D01*
X004026Y014070D02*
X003974Y014070D01*
X003974Y014087D02*
X004026Y014087D01*
X004026Y014104D02*
X003974Y014104D01*
X003974Y014121D02*
X004026Y014121D01*
X004026Y014138D02*
X003974Y014138D01*
X003974Y014155D02*
X004026Y014155D01*
X004026Y014172D02*
X003974Y014172D01*
X003974Y014189D02*
X004026Y014189D01*
X004026Y014206D02*
X003974Y014206D01*
X003974Y014223D02*
X004026Y014223D01*
X004026Y014240D02*
X003974Y014240D01*
X003974Y014257D02*
X004026Y014257D01*
X004026Y014274D02*
X003974Y014274D01*
X004184Y014287D02*
X004184Y013645D01*
X004132Y013645D01*
X004132Y014287D01*
X004184Y014287D01*
X004184Y013662D02*
X004132Y013662D01*
X004132Y013679D02*
X004184Y013679D01*
X004184Y013696D02*
X004132Y013696D01*
X004132Y013713D02*
X004184Y013713D01*
X004184Y013730D02*
X004132Y013730D01*
X004132Y013747D02*
X004184Y013747D01*
X004184Y013764D02*
X004132Y013764D01*
X004132Y013781D02*
X004184Y013781D01*
X004184Y013798D02*
X004132Y013798D01*
X004132Y013815D02*
X004184Y013815D01*
X004184Y013832D02*
X004132Y013832D01*
X004132Y013849D02*
X004184Y013849D01*
X004184Y013866D02*
X004132Y013866D01*
X004132Y013883D02*
X004184Y013883D01*
X004184Y013900D02*
X004132Y013900D01*
X004132Y013917D02*
X004184Y013917D01*
X004184Y013934D02*
X004132Y013934D01*
X004132Y013951D02*
X004184Y013951D01*
X004184Y013968D02*
X004132Y013968D01*
X004132Y013985D02*
X004184Y013985D01*
X004184Y014002D02*
X004132Y014002D01*
X004132Y014019D02*
X004184Y014019D01*
X004184Y014036D02*
X004132Y014036D01*
X004132Y014053D02*
X004184Y014053D01*
X004184Y014070D02*
X004132Y014070D01*
X004132Y014087D02*
X004184Y014087D01*
X004184Y014104D02*
X004132Y014104D01*
X004132Y014121D02*
X004184Y014121D01*
X004184Y014138D02*
X004132Y014138D01*
X004132Y014155D02*
X004184Y014155D01*
X004184Y014172D02*
X004132Y014172D01*
X004132Y014189D02*
X004184Y014189D01*
X004184Y014206D02*
X004132Y014206D01*
X004132Y014223D02*
X004184Y014223D01*
X004184Y014240D02*
X004132Y014240D01*
X004132Y014257D02*
X004184Y014257D01*
X004184Y014274D02*
X004132Y014274D01*
X004341Y014287D02*
X004341Y013645D01*
X004289Y013645D01*
X004289Y014287D01*
X004341Y014287D01*
X004341Y013662D02*
X004289Y013662D01*
X004289Y013679D02*
X004341Y013679D01*
X004341Y013696D02*
X004289Y013696D01*
X004289Y013713D02*
X004341Y013713D01*
X004341Y013730D02*
X004289Y013730D01*
X004289Y013747D02*
X004341Y013747D01*
X004341Y013764D02*
X004289Y013764D01*
X004289Y013781D02*
X004341Y013781D01*
X004341Y013798D02*
X004289Y013798D01*
X004289Y013815D02*
X004341Y013815D01*
X004341Y013832D02*
X004289Y013832D01*
X004289Y013849D02*
X004341Y013849D01*
X004341Y013866D02*
X004289Y013866D01*
X004289Y013883D02*
X004341Y013883D01*
X004341Y013900D02*
X004289Y013900D01*
X004289Y013917D02*
X004341Y013917D01*
X004341Y013934D02*
X004289Y013934D01*
X004289Y013951D02*
X004341Y013951D01*
X004341Y013968D02*
X004289Y013968D01*
X004289Y013985D02*
X004341Y013985D01*
X004341Y014002D02*
X004289Y014002D01*
X004289Y014019D02*
X004341Y014019D01*
X004341Y014036D02*
X004289Y014036D01*
X004289Y014053D02*
X004341Y014053D01*
X004341Y014070D02*
X004289Y014070D01*
X004289Y014087D02*
X004341Y014087D01*
X004341Y014104D02*
X004289Y014104D01*
X004289Y014121D02*
X004341Y014121D01*
X004341Y014138D02*
X004289Y014138D01*
X004289Y014155D02*
X004341Y014155D01*
X004341Y014172D02*
X004289Y014172D01*
X004289Y014189D02*
X004341Y014189D01*
X004341Y014206D02*
X004289Y014206D01*
X004289Y014223D02*
X004341Y014223D01*
X004341Y014240D02*
X004289Y014240D01*
X004289Y014257D02*
X004341Y014257D01*
X004341Y014274D02*
X004289Y014274D01*
X004499Y014287D02*
X004499Y013645D01*
X004447Y013645D01*
X004447Y014287D01*
X004499Y014287D01*
X004499Y013662D02*
X004447Y013662D01*
X004447Y013679D02*
X004499Y013679D01*
X004499Y013696D02*
X004447Y013696D01*
X004447Y013713D02*
X004499Y013713D01*
X004499Y013730D02*
X004447Y013730D01*
X004447Y013747D02*
X004499Y013747D01*
X004499Y013764D02*
X004447Y013764D01*
X004447Y013781D02*
X004499Y013781D01*
X004499Y013798D02*
X004447Y013798D01*
X004447Y013815D02*
X004499Y013815D01*
X004499Y013832D02*
X004447Y013832D01*
X004447Y013849D02*
X004499Y013849D01*
X004499Y013866D02*
X004447Y013866D01*
X004447Y013883D02*
X004499Y013883D01*
X004499Y013900D02*
X004447Y013900D01*
X004447Y013917D02*
X004499Y013917D01*
X004499Y013934D02*
X004447Y013934D01*
X004447Y013951D02*
X004499Y013951D01*
X004499Y013968D02*
X004447Y013968D01*
X004447Y013985D02*
X004499Y013985D01*
X004499Y014002D02*
X004447Y014002D01*
X004447Y014019D02*
X004499Y014019D01*
X004499Y014036D02*
X004447Y014036D01*
X004447Y014053D02*
X004499Y014053D01*
X004499Y014070D02*
X004447Y014070D01*
X004447Y014087D02*
X004499Y014087D01*
X004499Y014104D02*
X004447Y014104D01*
X004447Y014121D02*
X004499Y014121D01*
X004499Y014138D02*
X004447Y014138D01*
X004447Y014155D02*
X004499Y014155D01*
X004499Y014172D02*
X004447Y014172D01*
X004447Y014189D02*
X004499Y014189D01*
X004499Y014206D02*
X004447Y014206D01*
X004447Y014223D02*
X004499Y014223D01*
X004499Y014240D02*
X004447Y014240D01*
X004447Y014257D02*
X004499Y014257D01*
X004499Y014274D02*
X004447Y014274D01*
X004656Y014287D02*
X004656Y013645D01*
X004604Y013645D01*
X004604Y014287D01*
X004656Y014287D01*
X004656Y013662D02*
X004604Y013662D01*
X004604Y013679D02*
X004656Y013679D01*
X004656Y013696D02*
X004604Y013696D01*
X004604Y013713D02*
X004656Y013713D01*
X004656Y013730D02*
X004604Y013730D01*
X004604Y013747D02*
X004656Y013747D01*
X004656Y013764D02*
X004604Y013764D01*
X004604Y013781D02*
X004656Y013781D01*
X004656Y013798D02*
X004604Y013798D01*
X004604Y013815D02*
X004656Y013815D01*
X004656Y013832D02*
X004604Y013832D01*
X004604Y013849D02*
X004656Y013849D01*
X004656Y013866D02*
X004604Y013866D01*
X004604Y013883D02*
X004656Y013883D01*
X004656Y013900D02*
X004604Y013900D01*
X004604Y013917D02*
X004656Y013917D01*
X004656Y013934D02*
X004604Y013934D01*
X004604Y013951D02*
X004656Y013951D01*
X004656Y013968D02*
X004604Y013968D01*
X004604Y013985D02*
X004656Y013985D01*
X004656Y014002D02*
X004604Y014002D01*
X004604Y014019D02*
X004656Y014019D01*
X004656Y014036D02*
X004604Y014036D01*
X004604Y014053D02*
X004656Y014053D01*
X004656Y014070D02*
X004604Y014070D01*
X004604Y014087D02*
X004656Y014087D01*
X004656Y014104D02*
X004604Y014104D01*
X004604Y014121D02*
X004656Y014121D01*
X004656Y014138D02*
X004604Y014138D01*
X004604Y014155D02*
X004656Y014155D01*
X004656Y014172D02*
X004604Y014172D01*
X004604Y014189D02*
X004656Y014189D01*
X004656Y014206D02*
X004604Y014206D01*
X004604Y014223D02*
X004656Y014223D01*
X004656Y014240D02*
X004604Y014240D01*
X004604Y014257D02*
X004656Y014257D01*
X004656Y014274D02*
X004604Y014274D01*
X004814Y014287D02*
X004814Y013645D01*
X004762Y013645D01*
X004762Y014287D01*
X004814Y014287D01*
X004814Y013662D02*
X004762Y013662D01*
X004762Y013679D02*
X004814Y013679D01*
X004814Y013696D02*
X004762Y013696D01*
X004762Y013713D02*
X004814Y013713D01*
X004814Y013730D02*
X004762Y013730D01*
X004762Y013747D02*
X004814Y013747D01*
X004814Y013764D02*
X004762Y013764D01*
X004762Y013781D02*
X004814Y013781D01*
X004814Y013798D02*
X004762Y013798D01*
X004762Y013815D02*
X004814Y013815D01*
X004814Y013832D02*
X004762Y013832D01*
X004762Y013849D02*
X004814Y013849D01*
X004814Y013866D02*
X004762Y013866D01*
X004762Y013883D02*
X004814Y013883D01*
X004814Y013900D02*
X004762Y013900D01*
X004762Y013917D02*
X004814Y013917D01*
X004814Y013934D02*
X004762Y013934D01*
X004762Y013951D02*
X004814Y013951D01*
X004814Y013968D02*
X004762Y013968D01*
X004762Y013985D02*
X004814Y013985D01*
X004814Y014002D02*
X004762Y014002D01*
X004762Y014019D02*
X004814Y014019D01*
X004814Y014036D02*
X004762Y014036D01*
X004762Y014053D02*
X004814Y014053D01*
X004814Y014070D02*
X004762Y014070D01*
X004762Y014087D02*
X004814Y014087D01*
X004814Y014104D02*
X004762Y014104D01*
X004762Y014121D02*
X004814Y014121D01*
X004814Y014138D02*
X004762Y014138D01*
X004762Y014155D02*
X004814Y014155D01*
X004814Y014172D02*
X004762Y014172D01*
X004762Y014189D02*
X004814Y014189D01*
X004814Y014206D02*
X004762Y014206D01*
X004762Y014223D02*
X004814Y014223D01*
X004814Y014240D02*
X004762Y014240D01*
X004762Y014257D02*
X004814Y014257D01*
X004814Y014274D02*
X004762Y014274D01*
X004971Y014287D02*
X004971Y013645D01*
X004919Y013645D01*
X004919Y014287D01*
X004971Y014287D01*
X004971Y013662D02*
X004919Y013662D01*
X004919Y013679D02*
X004971Y013679D01*
X004971Y013696D02*
X004919Y013696D01*
X004919Y013713D02*
X004971Y013713D01*
X004971Y013730D02*
X004919Y013730D01*
X004919Y013747D02*
X004971Y013747D01*
X004971Y013764D02*
X004919Y013764D01*
X004919Y013781D02*
X004971Y013781D01*
X004971Y013798D02*
X004919Y013798D01*
X004919Y013815D02*
X004971Y013815D01*
X004971Y013832D02*
X004919Y013832D01*
X004919Y013849D02*
X004971Y013849D01*
X004971Y013866D02*
X004919Y013866D01*
X004919Y013883D02*
X004971Y013883D01*
X004971Y013900D02*
X004919Y013900D01*
X004919Y013917D02*
X004971Y013917D01*
X004971Y013934D02*
X004919Y013934D01*
X004919Y013951D02*
X004971Y013951D01*
X004971Y013968D02*
X004919Y013968D01*
X004919Y013985D02*
X004971Y013985D01*
X004971Y014002D02*
X004919Y014002D01*
X004919Y014019D02*
X004971Y014019D01*
X004971Y014036D02*
X004919Y014036D01*
X004919Y014053D02*
X004971Y014053D01*
X004971Y014070D02*
X004919Y014070D01*
X004919Y014087D02*
X004971Y014087D01*
X004971Y014104D02*
X004919Y014104D01*
X004919Y014121D02*
X004971Y014121D01*
X004971Y014138D02*
X004919Y014138D01*
X004919Y014155D02*
X004971Y014155D01*
X004971Y014172D02*
X004919Y014172D01*
X004919Y014189D02*
X004971Y014189D01*
X004971Y014206D02*
X004919Y014206D01*
X004919Y014223D02*
X004971Y014223D01*
X004971Y014240D02*
X004919Y014240D01*
X004919Y014257D02*
X004971Y014257D01*
X004971Y014274D02*
X004919Y014274D01*
X005129Y014287D02*
X005129Y013645D01*
X005077Y013645D01*
X005077Y014287D01*
X005129Y014287D01*
X005129Y013662D02*
X005077Y013662D01*
X005077Y013679D02*
X005129Y013679D01*
X005129Y013696D02*
X005077Y013696D01*
X005077Y013713D02*
X005129Y013713D01*
X005129Y013730D02*
X005077Y013730D01*
X005077Y013747D02*
X005129Y013747D01*
X005129Y013764D02*
X005077Y013764D01*
X005077Y013781D02*
X005129Y013781D01*
X005129Y013798D02*
X005077Y013798D01*
X005077Y013815D02*
X005129Y013815D01*
X005129Y013832D02*
X005077Y013832D01*
X005077Y013849D02*
X005129Y013849D01*
X005129Y013866D02*
X005077Y013866D01*
X005077Y013883D02*
X005129Y013883D01*
X005129Y013900D02*
X005077Y013900D01*
X005077Y013917D02*
X005129Y013917D01*
X005129Y013934D02*
X005077Y013934D01*
X005077Y013951D02*
X005129Y013951D01*
X005129Y013968D02*
X005077Y013968D01*
X005077Y013985D02*
X005129Y013985D01*
X005129Y014002D02*
X005077Y014002D01*
X005077Y014019D02*
X005129Y014019D01*
X005129Y014036D02*
X005077Y014036D01*
X005077Y014053D02*
X005129Y014053D01*
X005129Y014070D02*
X005077Y014070D01*
X005077Y014087D02*
X005129Y014087D01*
X005129Y014104D02*
X005077Y014104D01*
X005077Y014121D02*
X005129Y014121D01*
X005129Y014138D02*
X005077Y014138D01*
X005077Y014155D02*
X005129Y014155D01*
X005129Y014172D02*
X005077Y014172D01*
X005077Y014189D02*
X005129Y014189D01*
X005129Y014206D02*
X005077Y014206D01*
X005077Y014223D02*
X005129Y014223D01*
X005129Y014240D02*
X005077Y014240D01*
X005077Y014257D02*
X005129Y014257D01*
X005129Y014274D02*
X005077Y014274D01*
X005286Y014287D02*
X005286Y013645D01*
X005234Y013645D01*
X005234Y014287D01*
X005286Y014287D01*
X005286Y013662D02*
X005234Y013662D01*
X005234Y013679D02*
X005286Y013679D01*
X005286Y013696D02*
X005234Y013696D01*
X005234Y013713D02*
X005286Y013713D01*
X005286Y013730D02*
X005234Y013730D01*
X005234Y013747D02*
X005286Y013747D01*
X005286Y013764D02*
X005234Y013764D01*
X005234Y013781D02*
X005286Y013781D01*
X005286Y013798D02*
X005234Y013798D01*
X005234Y013815D02*
X005286Y013815D01*
X005286Y013832D02*
X005234Y013832D01*
X005234Y013849D02*
X005286Y013849D01*
X005286Y013866D02*
X005234Y013866D01*
X005234Y013883D02*
X005286Y013883D01*
X005286Y013900D02*
X005234Y013900D01*
X005234Y013917D02*
X005286Y013917D01*
X005286Y013934D02*
X005234Y013934D01*
X005234Y013951D02*
X005286Y013951D01*
X005286Y013968D02*
X005234Y013968D01*
X005234Y013985D02*
X005286Y013985D01*
X005286Y014002D02*
X005234Y014002D01*
X005234Y014019D02*
X005286Y014019D01*
X005286Y014036D02*
X005234Y014036D01*
X005234Y014053D02*
X005286Y014053D01*
X005286Y014070D02*
X005234Y014070D01*
X005234Y014087D02*
X005286Y014087D01*
X005286Y014104D02*
X005234Y014104D01*
X005234Y014121D02*
X005286Y014121D01*
X005286Y014138D02*
X005234Y014138D01*
X005234Y014155D02*
X005286Y014155D01*
X005286Y014172D02*
X005234Y014172D01*
X005234Y014189D02*
X005286Y014189D01*
X005286Y014206D02*
X005234Y014206D01*
X005234Y014223D02*
X005286Y014223D01*
X005286Y014240D02*
X005234Y014240D01*
X005234Y014257D02*
X005286Y014257D01*
X005286Y014274D02*
X005234Y014274D01*
X005444Y014287D02*
X005444Y013645D01*
X005392Y013645D01*
X005392Y014287D01*
X005444Y014287D01*
X005444Y013662D02*
X005392Y013662D01*
X005392Y013679D02*
X005444Y013679D01*
X005444Y013696D02*
X005392Y013696D01*
X005392Y013713D02*
X005444Y013713D01*
X005444Y013730D02*
X005392Y013730D01*
X005392Y013747D02*
X005444Y013747D01*
X005444Y013764D02*
X005392Y013764D01*
X005392Y013781D02*
X005444Y013781D01*
X005444Y013798D02*
X005392Y013798D01*
X005392Y013815D02*
X005444Y013815D01*
X005444Y013832D02*
X005392Y013832D01*
X005392Y013849D02*
X005444Y013849D01*
X005444Y013866D02*
X005392Y013866D01*
X005392Y013883D02*
X005444Y013883D01*
X005444Y013900D02*
X005392Y013900D01*
X005392Y013917D02*
X005444Y013917D01*
X005444Y013934D02*
X005392Y013934D01*
X005392Y013951D02*
X005444Y013951D01*
X005444Y013968D02*
X005392Y013968D01*
X005392Y013985D02*
X005444Y013985D01*
X005444Y014002D02*
X005392Y014002D01*
X005392Y014019D02*
X005444Y014019D01*
X005444Y014036D02*
X005392Y014036D01*
X005392Y014053D02*
X005444Y014053D01*
X005444Y014070D02*
X005392Y014070D01*
X005392Y014087D02*
X005444Y014087D01*
X005444Y014104D02*
X005392Y014104D01*
X005392Y014121D02*
X005444Y014121D01*
X005444Y014138D02*
X005392Y014138D01*
X005392Y014155D02*
X005444Y014155D01*
X005444Y014172D02*
X005392Y014172D01*
X005392Y014189D02*
X005444Y014189D01*
X005444Y014206D02*
X005392Y014206D01*
X005392Y014223D02*
X005444Y014223D01*
X005444Y014240D02*
X005392Y014240D01*
X005392Y014257D02*
X005444Y014257D01*
X005444Y014274D02*
X005392Y014274D01*
X005601Y014287D02*
X005601Y013645D01*
X005549Y013645D01*
X005549Y014287D01*
X005601Y014287D01*
X005601Y013662D02*
X005549Y013662D01*
X005549Y013679D02*
X005601Y013679D01*
X005601Y013696D02*
X005549Y013696D01*
X005549Y013713D02*
X005601Y013713D01*
X005601Y013730D02*
X005549Y013730D01*
X005549Y013747D02*
X005601Y013747D01*
X005601Y013764D02*
X005549Y013764D01*
X005549Y013781D02*
X005601Y013781D01*
X005601Y013798D02*
X005549Y013798D01*
X005549Y013815D02*
X005601Y013815D01*
X005601Y013832D02*
X005549Y013832D01*
X005549Y013849D02*
X005601Y013849D01*
X005601Y013866D02*
X005549Y013866D01*
X005549Y013883D02*
X005601Y013883D01*
X005601Y013900D02*
X005549Y013900D01*
X005549Y013917D02*
X005601Y013917D01*
X005601Y013934D02*
X005549Y013934D01*
X005549Y013951D02*
X005601Y013951D01*
X005601Y013968D02*
X005549Y013968D01*
X005549Y013985D02*
X005601Y013985D01*
X005601Y014002D02*
X005549Y014002D01*
X005549Y014019D02*
X005601Y014019D01*
X005601Y014036D02*
X005549Y014036D01*
X005549Y014053D02*
X005601Y014053D01*
X005601Y014070D02*
X005549Y014070D01*
X005549Y014087D02*
X005601Y014087D01*
X005601Y014104D02*
X005549Y014104D01*
X005549Y014121D02*
X005601Y014121D01*
X005601Y014138D02*
X005549Y014138D01*
X005549Y014155D02*
X005601Y014155D01*
X005601Y014172D02*
X005549Y014172D01*
X005549Y014189D02*
X005601Y014189D01*
X005601Y014206D02*
X005549Y014206D01*
X005549Y014223D02*
X005601Y014223D01*
X005601Y014240D02*
X005549Y014240D01*
X005549Y014257D02*
X005601Y014257D01*
X005601Y014274D02*
X005549Y014274D01*
X005759Y014287D02*
X005759Y013645D01*
X005707Y013645D01*
X005707Y014287D01*
X005759Y014287D01*
X005759Y013662D02*
X005707Y013662D01*
X005707Y013679D02*
X005759Y013679D01*
X005759Y013696D02*
X005707Y013696D01*
X005707Y013713D02*
X005759Y013713D01*
X005759Y013730D02*
X005707Y013730D01*
X005707Y013747D02*
X005759Y013747D01*
X005759Y013764D02*
X005707Y013764D01*
X005707Y013781D02*
X005759Y013781D01*
X005759Y013798D02*
X005707Y013798D01*
X005707Y013815D02*
X005759Y013815D01*
X005759Y013832D02*
X005707Y013832D01*
X005707Y013849D02*
X005759Y013849D01*
X005759Y013866D02*
X005707Y013866D01*
X005707Y013883D02*
X005759Y013883D01*
X005759Y013900D02*
X005707Y013900D01*
X005707Y013917D02*
X005759Y013917D01*
X005759Y013934D02*
X005707Y013934D01*
X005707Y013951D02*
X005759Y013951D01*
X005759Y013968D02*
X005707Y013968D01*
X005707Y013985D02*
X005759Y013985D01*
X005759Y014002D02*
X005707Y014002D01*
X005707Y014019D02*
X005759Y014019D01*
X005759Y014036D02*
X005707Y014036D01*
X005707Y014053D02*
X005759Y014053D01*
X005759Y014070D02*
X005707Y014070D01*
X005707Y014087D02*
X005759Y014087D01*
X005759Y014104D02*
X005707Y014104D01*
X005707Y014121D02*
X005759Y014121D01*
X005759Y014138D02*
X005707Y014138D01*
X005707Y014155D02*
X005759Y014155D01*
X005759Y014172D02*
X005707Y014172D01*
X005707Y014189D02*
X005759Y014189D01*
X005759Y014206D02*
X005707Y014206D01*
X005707Y014223D02*
X005759Y014223D01*
X005759Y014240D02*
X005707Y014240D01*
X005707Y014257D02*
X005759Y014257D01*
X005759Y014274D02*
X005707Y014274D01*
X005916Y014287D02*
X005916Y013645D01*
X005864Y013645D01*
X005864Y014287D01*
X005916Y014287D01*
X005916Y013662D02*
X005864Y013662D01*
X005864Y013679D02*
X005916Y013679D01*
X005916Y013696D02*
X005864Y013696D01*
X005864Y013713D02*
X005916Y013713D01*
X005916Y013730D02*
X005864Y013730D01*
X005864Y013747D02*
X005916Y013747D01*
X005916Y013764D02*
X005864Y013764D01*
X005864Y013781D02*
X005916Y013781D01*
X005916Y013798D02*
X005864Y013798D01*
X005864Y013815D02*
X005916Y013815D01*
X005916Y013832D02*
X005864Y013832D01*
X005864Y013849D02*
X005916Y013849D01*
X005916Y013866D02*
X005864Y013866D01*
X005864Y013883D02*
X005916Y013883D01*
X005916Y013900D02*
X005864Y013900D01*
X005864Y013917D02*
X005916Y013917D01*
X005916Y013934D02*
X005864Y013934D01*
X005864Y013951D02*
X005916Y013951D01*
X005916Y013968D02*
X005864Y013968D01*
X005864Y013985D02*
X005916Y013985D01*
X005916Y014002D02*
X005864Y014002D01*
X005864Y014019D02*
X005916Y014019D01*
X005916Y014036D02*
X005864Y014036D01*
X005864Y014053D02*
X005916Y014053D01*
X005916Y014070D02*
X005864Y014070D01*
X005864Y014087D02*
X005916Y014087D01*
X005916Y014104D02*
X005864Y014104D01*
X005864Y014121D02*
X005916Y014121D01*
X005916Y014138D02*
X005864Y014138D01*
X005864Y014155D02*
X005916Y014155D01*
X005916Y014172D02*
X005864Y014172D01*
X005864Y014189D02*
X005916Y014189D01*
X005916Y014206D02*
X005864Y014206D01*
X005864Y014223D02*
X005916Y014223D01*
X005916Y014240D02*
X005864Y014240D01*
X005864Y014257D02*
X005916Y014257D01*
X005916Y014274D02*
X005864Y014274D01*
X006074Y014287D02*
X006074Y013645D01*
X006022Y013645D01*
X006022Y014287D01*
X006074Y014287D01*
X006074Y013662D02*
X006022Y013662D01*
X006022Y013679D02*
X006074Y013679D01*
X006074Y013696D02*
X006022Y013696D01*
X006022Y013713D02*
X006074Y013713D01*
X006074Y013730D02*
X006022Y013730D01*
X006022Y013747D02*
X006074Y013747D01*
X006074Y013764D02*
X006022Y013764D01*
X006022Y013781D02*
X006074Y013781D01*
X006074Y013798D02*
X006022Y013798D01*
X006022Y013815D02*
X006074Y013815D01*
X006074Y013832D02*
X006022Y013832D01*
X006022Y013849D02*
X006074Y013849D01*
X006074Y013866D02*
X006022Y013866D01*
X006022Y013883D02*
X006074Y013883D01*
X006074Y013900D02*
X006022Y013900D01*
X006022Y013917D02*
X006074Y013917D01*
X006074Y013934D02*
X006022Y013934D01*
X006022Y013951D02*
X006074Y013951D01*
X006074Y013968D02*
X006022Y013968D01*
X006022Y013985D02*
X006074Y013985D01*
X006074Y014002D02*
X006022Y014002D01*
X006022Y014019D02*
X006074Y014019D01*
X006074Y014036D02*
X006022Y014036D01*
X006022Y014053D02*
X006074Y014053D01*
X006074Y014070D02*
X006022Y014070D01*
X006022Y014087D02*
X006074Y014087D01*
X006074Y014104D02*
X006022Y014104D01*
X006022Y014121D02*
X006074Y014121D01*
X006074Y014138D02*
X006022Y014138D01*
X006022Y014155D02*
X006074Y014155D01*
X006074Y014172D02*
X006022Y014172D01*
X006022Y014189D02*
X006074Y014189D01*
X006074Y014206D02*
X006022Y014206D01*
X006022Y014223D02*
X006074Y014223D01*
X006074Y014240D02*
X006022Y014240D01*
X006022Y014257D02*
X006074Y014257D01*
X006074Y014274D02*
X006022Y014274D01*
X006231Y014287D02*
X006231Y013645D01*
X006179Y013645D01*
X006179Y014287D01*
X006231Y014287D01*
X006231Y013662D02*
X006179Y013662D01*
X006179Y013679D02*
X006231Y013679D01*
X006231Y013696D02*
X006179Y013696D01*
X006179Y013713D02*
X006231Y013713D01*
X006231Y013730D02*
X006179Y013730D01*
X006179Y013747D02*
X006231Y013747D01*
X006231Y013764D02*
X006179Y013764D01*
X006179Y013781D02*
X006231Y013781D01*
X006231Y013798D02*
X006179Y013798D01*
X006179Y013815D02*
X006231Y013815D01*
X006231Y013832D02*
X006179Y013832D01*
X006179Y013849D02*
X006231Y013849D01*
X006231Y013866D02*
X006179Y013866D01*
X006179Y013883D02*
X006231Y013883D01*
X006231Y013900D02*
X006179Y013900D01*
X006179Y013917D02*
X006231Y013917D01*
X006231Y013934D02*
X006179Y013934D01*
X006179Y013951D02*
X006231Y013951D01*
X006231Y013968D02*
X006179Y013968D01*
X006179Y013985D02*
X006231Y013985D01*
X006231Y014002D02*
X006179Y014002D01*
X006179Y014019D02*
X006231Y014019D01*
X006231Y014036D02*
X006179Y014036D01*
X006179Y014053D02*
X006231Y014053D01*
X006231Y014070D02*
X006179Y014070D01*
X006179Y014087D02*
X006231Y014087D01*
X006231Y014104D02*
X006179Y014104D01*
X006179Y014121D02*
X006231Y014121D01*
X006231Y014138D02*
X006179Y014138D01*
X006179Y014155D02*
X006231Y014155D01*
X006231Y014172D02*
X006179Y014172D01*
X006179Y014189D02*
X006231Y014189D01*
X006231Y014206D02*
X006179Y014206D01*
X006179Y014223D02*
X006231Y014223D01*
X006231Y014240D02*
X006179Y014240D01*
X006179Y014257D02*
X006231Y014257D01*
X006231Y014274D02*
X006179Y014274D01*
X006389Y014287D02*
X006389Y013645D01*
X006337Y013645D01*
X006337Y014287D01*
X006389Y014287D01*
X006389Y013662D02*
X006337Y013662D01*
X006337Y013679D02*
X006389Y013679D01*
X006389Y013696D02*
X006337Y013696D01*
X006337Y013713D02*
X006389Y013713D01*
X006389Y013730D02*
X006337Y013730D01*
X006337Y013747D02*
X006389Y013747D01*
X006389Y013764D02*
X006337Y013764D01*
X006337Y013781D02*
X006389Y013781D01*
X006389Y013798D02*
X006337Y013798D01*
X006337Y013815D02*
X006389Y013815D01*
X006389Y013832D02*
X006337Y013832D01*
X006337Y013849D02*
X006389Y013849D01*
X006389Y013866D02*
X006337Y013866D01*
X006337Y013883D02*
X006389Y013883D01*
X006389Y013900D02*
X006337Y013900D01*
X006337Y013917D02*
X006389Y013917D01*
X006389Y013934D02*
X006337Y013934D01*
X006337Y013951D02*
X006389Y013951D01*
X006389Y013968D02*
X006337Y013968D01*
X006337Y013985D02*
X006389Y013985D01*
X006389Y014002D02*
X006337Y014002D01*
X006337Y014019D02*
X006389Y014019D01*
X006389Y014036D02*
X006337Y014036D01*
X006337Y014053D02*
X006389Y014053D01*
X006389Y014070D02*
X006337Y014070D01*
X006337Y014087D02*
X006389Y014087D01*
X006389Y014104D02*
X006337Y014104D01*
X006337Y014121D02*
X006389Y014121D01*
X006389Y014138D02*
X006337Y014138D01*
X006337Y014155D02*
X006389Y014155D01*
X006389Y014172D02*
X006337Y014172D01*
X006337Y014189D02*
X006389Y014189D01*
X006389Y014206D02*
X006337Y014206D01*
X006337Y014223D02*
X006389Y014223D01*
X006389Y014240D02*
X006337Y014240D01*
X006337Y014257D02*
X006389Y014257D01*
X006389Y014274D02*
X006337Y014274D01*
X006546Y014287D02*
X006546Y013645D01*
X006494Y013645D01*
X006494Y014287D01*
X006546Y014287D01*
X006546Y013662D02*
X006494Y013662D01*
X006494Y013679D02*
X006546Y013679D01*
X006546Y013696D02*
X006494Y013696D01*
X006494Y013713D02*
X006546Y013713D01*
X006546Y013730D02*
X006494Y013730D01*
X006494Y013747D02*
X006546Y013747D01*
X006546Y013764D02*
X006494Y013764D01*
X006494Y013781D02*
X006546Y013781D01*
X006546Y013798D02*
X006494Y013798D01*
X006494Y013815D02*
X006546Y013815D01*
X006546Y013832D02*
X006494Y013832D01*
X006494Y013849D02*
X006546Y013849D01*
X006546Y013866D02*
X006494Y013866D01*
X006494Y013883D02*
X006546Y013883D01*
X006546Y013900D02*
X006494Y013900D01*
X006494Y013917D02*
X006546Y013917D01*
X006546Y013934D02*
X006494Y013934D01*
X006494Y013951D02*
X006546Y013951D01*
X006546Y013968D02*
X006494Y013968D01*
X006494Y013985D02*
X006546Y013985D01*
X006546Y014002D02*
X006494Y014002D01*
X006494Y014019D02*
X006546Y014019D01*
X006546Y014036D02*
X006494Y014036D01*
X006494Y014053D02*
X006546Y014053D01*
X006546Y014070D02*
X006494Y014070D01*
X006494Y014087D02*
X006546Y014087D01*
X006546Y014104D02*
X006494Y014104D01*
X006494Y014121D02*
X006546Y014121D01*
X006546Y014138D02*
X006494Y014138D01*
X006494Y014155D02*
X006546Y014155D01*
X006546Y014172D02*
X006494Y014172D01*
X006494Y014189D02*
X006546Y014189D01*
X006546Y014206D02*
X006494Y014206D01*
X006494Y014223D02*
X006546Y014223D01*
X006546Y014240D02*
X006494Y014240D01*
X006494Y014257D02*
X006546Y014257D01*
X006546Y014274D02*
X006494Y014274D01*
X006704Y014287D02*
X006704Y013645D01*
X006652Y013645D01*
X006652Y014287D01*
X006704Y014287D01*
X006704Y013662D02*
X006652Y013662D01*
X006652Y013679D02*
X006704Y013679D01*
X006704Y013696D02*
X006652Y013696D01*
X006652Y013713D02*
X006704Y013713D01*
X006704Y013730D02*
X006652Y013730D01*
X006652Y013747D02*
X006704Y013747D01*
X006704Y013764D02*
X006652Y013764D01*
X006652Y013781D02*
X006704Y013781D01*
X006704Y013798D02*
X006652Y013798D01*
X006652Y013815D02*
X006704Y013815D01*
X006704Y013832D02*
X006652Y013832D01*
X006652Y013849D02*
X006704Y013849D01*
X006704Y013866D02*
X006652Y013866D01*
X006652Y013883D02*
X006704Y013883D01*
X006704Y013900D02*
X006652Y013900D01*
X006652Y013917D02*
X006704Y013917D01*
X006704Y013934D02*
X006652Y013934D01*
X006652Y013951D02*
X006704Y013951D01*
X006704Y013968D02*
X006652Y013968D01*
X006652Y013985D02*
X006704Y013985D01*
X006704Y014002D02*
X006652Y014002D01*
X006652Y014019D02*
X006704Y014019D01*
X006704Y014036D02*
X006652Y014036D01*
X006652Y014053D02*
X006704Y014053D01*
X006704Y014070D02*
X006652Y014070D01*
X006652Y014087D02*
X006704Y014087D01*
X006704Y014104D02*
X006652Y014104D01*
X006652Y014121D02*
X006704Y014121D01*
X006704Y014138D02*
X006652Y014138D01*
X006652Y014155D02*
X006704Y014155D01*
X006704Y014172D02*
X006652Y014172D01*
X006652Y014189D02*
X006704Y014189D01*
X006704Y014206D02*
X006652Y014206D01*
X006652Y014223D02*
X006704Y014223D01*
X006704Y014240D02*
X006652Y014240D01*
X006652Y014257D02*
X006704Y014257D01*
X006704Y014274D02*
X006652Y014274D01*
X006861Y014287D02*
X006861Y013645D01*
X006809Y013645D01*
X006809Y014287D01*
X006861Y014287D01*
X006861Y013662D02*
X006809Y013662D01*
X006809Y013679D02*
X006861Y013679D01*
X006861Y013696D02*
X006809Y013696D01*
X006809Y013713D02*
X006861Y013713D01*
X006861Y013730D02*
X006809Y013730D01*
X006809Y013747D02*
X006861Y013747D01*
X006861Y013764D02*
X006809Y013764D01*
X006809Y013781D02*
X006861Y013781D01*
X006861Y013798D02*
X006809Y013798D01*
X006809Y013815D02*
X006861Y013815D01*
X006861Y013832D02*
X006809Y013832D01*
X006809Y013849D02*
X006861Y013849D01*
X006861Y013866D02*
X006809Y013866D01*
X006809Y013883D02*
X006861Y013883D01*
X006861Y013900D02*
X006809Y013900D01*
X006809Y013917D02*
X006861Y013917D01*
X006861Y013934D02*
X006809Y013934D01*
X006809Y013951D02*
X006861Y013951D01*
X006861Y013968D02*
X006809Y013968D01*
X006809Y013985D02*
X006861Y013985D01*
X006861Y014002D02*
X006809Y014002D01*
X006809Y014019D02*
X006861Y014019D01*
X006861Y014036D02*
X006809Y014036D01*
X006809Y014053D02*
X006861Y014053D01*
X006861Y014070D02*
X006809Y014070D01*
X006809Y014087D02*
X006861Y014087D01*
X006861Y014104D02*
X006809Y014104D01*
X006809Y014121D02*
X006861Y014121D01*
X006861Y014138D02*
X006809Y014138D01*
X006809Y014155D02*
X006861Y014155D01*
X006861Y014172D02*
X006809Y014172D01*
X006809Y014189D02*
X006861Y014189D01*
X006861Y014206D02*
X006809Y014206D01*
X006809Y014223D02*
X006861Y014223D01*
X006861Y014240D02*
X006809Y014240D01*
X006809Y014257D02*
X006861Y014257D01*
X006861Y014274D02*
X006809Y014274D01*
X007019Y014287D02*
X007019Y013645D01*
X006967Y013645D01*
X006967Y014287D01*
X007019Y014287D01*
X007019Y013662D02*
X006967Y013662D01*
X006967Y013679D02*
X007019Y013679D01*
X007019Y013696D02*
X006967Y013696D01*
X006967Y013713D02*
X007019Y013713D01*
X007019Y013730D02*
X006967Y013730D01*
X006967Y013747D02*
X007019Y013747D01*
X007019Y013764D02*
X006967Y013764D01*
X006967Y013781D02*
X007019Y013781D01*
X007019Y013798D02*
X006967Y013798D01*
X006967Y013815D02*
X007019Y013815D01*
X007019Y013832D02*
X006967Y013832D01*
X006967Y013849D02*
X007019Y013849D01*
X007019Y013866D02*
X006967Y013866D01*
X006967Y013883D02*
X007019Y013883D01*
X007019Y013900D02*
X006967Y013900D01*
X006967Y013917D02*
X007019Y013917D01*
X007019Y013934D02*
X006967Y013934D01*
X006967Y013951D02*
X007019Y013951D01*
X007019Y013968D02*
X006967Y013968D01*
X006967Y013985D02*
X007019Y013985D01*
X007019Y014002D02*
X006967Y014002D01*
X006967Y014019D02*
X007019Y014019D01*
X007019Y014036D02*
X006967Y014036D01*
X006967Y014053D02*
X007019Y014053D01*
X007019Y014070D02*
X006967Y014070D01*
X006967Y014087D02*
X007019Y014087D01*
X007019Y014104D02*
X006967Y014104D01*
X006967Y014121D02*
X007019Y014121D01*
X007019Y014138D02*
X006967Y014138D01*
X006967Y014155D02*
X007019Y014155D01*
X007019Y014172D02*
X006967Y014172D01*
X006967Y014189D02*
X007019Y014189D01*
X007019Y014206D02*
X006967Y014206D01*
X006967Y014223D02*
X007019Y014223D01*
X007019Y014240D02*
X006967Y014240D01*
X006967Y014257D02*
X007019Y014257D01*
X007019Y014274D02*
X006967Y014274D01*
X007176Y014287D02*
X007176Y013645D01*
X007124Y013645D01*
X007124Y014287D01*
X007176Y014287D01*
X007176Y013662D02*
X007124Y013662D01*
X007124Y013679D02*
X007176Y013679D01*
X007176Y013696D02*
X007124Y013696D01*
X007124Y013713D02*
X007176Y013713D01*
X007176Y013730D02*
X007124Y013730D01*
X007124Y013747D02*
X007176Y013747D01*
X007176Y013764D02*
X007124Y013764D01*
X007124Y013781D02*
X007176Y013781D01*
X007176Y013798D02*
X007124Y013798D01*
X007124Y013815D02*
X007176Y013815D01*
X007176Y013832D02*
X007124Y013832D01*
X007124Y013849D02*
X007176Y013849D01*
X007176Y013866D02*
X007124Y013866D01*
X007124Y013883D02*
X007176Y013883D01*
X007176Y013900D02*
X007124Y013900D01*
X007124Y013917D02*
X007176Y013917D01*
X007176Y013934D02*
X007124Y013934D01*
X007124Y013951D02*
X007176Y013951D01*
X007176Y013968D02*
X007124Y013968D01*
X007124Y013985D02*
X007176Y013985D01*
X007176Y014002D02*
X007124Y014002D01*
X007124Y014019D02*
X007176Y014019D01*
X007176Y014036D02*
X007124Y014036D01*
X007124Y014053D02*
X007176Y014053D01*
X007176Y014070D02*
X007124Y014070D01*
X007124Y014087D02*
X007176Y014087D01*
X007176Y014104D02*
X007124Y014104D01*
X007124Y014121D02*
X007176Y014121D01*
X007176Y014138D02*
X007124Y014138D01*
X007124Y014155D02*
X007176Y014155D01*
X007176Y014172D02*
X007124Y014172D01*
X007124Y014189D02*
X007176Y014189D01*
X007176Y014206D02*
X007124Y014206D01*
X007124Y014223D02*
X007176Y014223D01*
X007176Y014240D02*
X007124Y014240D01*
X007124Y014257D02*
X007176Y014257D01*
X007176Y014274D02*
X007124Y014274D01*
X007176Y012027D02*
X007176Y011385D01*
X007124Y011385D01*
X007124Y012027D01*
X007176Y012027D01*
X007176Y011402D02*
X007124Y011402D01*
X007124Y011419D02*
X007176Y011419D01*
X007176Y011436D02*
X007124Y011436D01*
X007124Y011453D02*
X007176Y011453D01*
X007176Y011470D02*
X007124Y011470D01*
X007124Y011487D02*
X007176Y011487D01*
X007176Y011504D02*
X007124Y011504D01*
X007124Y011521D02*
X007176Y011521D01*
X007176Y011538D02*
X007124Y011538D01*
X007124Y011555D02*
X007176Y011555D01*
X007176Y011572D02*
X007124Y011572D01*
X007124Y011589D02*
X007176Y011589D01*
X007176Y011606D02*
X007124Y011606D01*
X007124Y011623D02*
X007176Y011623D01*
X007176Y011640D02*
X007124Y011640D01*
X007124Y011657D02*
X007176Y011657D01*
X007176Y011674D02*
X007124Y011674D01*
X007124Y011691D02*
X007176Y011691D01*
X007176Y011708D02*
X007124Y011708D01*
X007124Y011725D02*
X007176Y011725D01*
X007176Y011742D02*
X007124Y011742D01*
X007124Y011759D02*
X007176Y011759D01*
X007176Y011776D02*
X007124Y011776D01*
X007124Y011793D02*
X007176Y011793D01*
X007176Y011810D02*
X007124Y011810D01*
X007124Y011827D02*
X007176Y011827D01*
X007176Y011844D02*
X007124Y011844D01*
X007124Y011861D02*
X007176Y011861D01*
X007176Y011878D02*
X007124Y011878D01*
X007124Y011895D02*
X007176Y011895D01*
X007176Y011912D02*
X007124Y011912D01*
X007124Y011929D02*
X007176Y011929D01*
X007176Y011946D02*
X007124Y011946D01*
X007124Y011963D02*
X007176Y011963D01*
X007176Y011980D02*
X007124Y011980D01*
X007124Y011997D02*
X007176Y011997D01*
X007176Y012014D02*
X007124Y012014D01*
X007019Y012027D02*
X007019Y011385D01*
X006967Y011385D01*
X006967Y012027D01*
X007019Y012027D01*
X007019Y011402D02*
X006967Y011402D01*
X006967Y011419D02*
X007019Y011419D01*
X007019Y011436D02*
X006967Y011436D01*
X006967Y011453D02*
X007019Y011453D01*
X007019Y011470D02*
X006967Y011470D01*
X006967Y011487D02*
X007019Y011487D01*
X007019Y011504D02*
X006967Y011504D01*
X006967Y011521D02*
X007019Y011521D01*
X007019Y011538D02*
X006967Y011538D01*
X006967Y011555D02*
X007019Y011555D01*
X007019Y011572D02*
X006967Y011572D01*
X006967Y011589D02*
X007019Y011589D01*
X007019Y011606D02*
X006967Y011606D01*
X006967Y011623D02*
X007019Y011623D01*
X007019Y011640D02*
X006967Y011640D01*
X006967Y011657D02*
X007019Y011657D01*
X007019Y011674D02*
X006967Y011674D01*
X006967Y011691D02*
X007019Y011691D01*
X007019Y011708D02*
X006967Y011708D01*
X006967Y011725D02*
X007019Y011725D01*
X007019Y011742D02*
X006967Y011742D01*
X006967Y011759D02*
X007019Y011759D01*
X007019Y011776D02*
X006967Y011776D01*
X006967Y011793D02*
X007019Y011793D01*
X007019Y011810D02*
X006967Y011810D01*
X006967Y011827D02*
X007019Y011827D01*
X007019Y011844D02*
X006967Y011844D01*
X006967Y011861D02*
X007019Y011861D01*
X007019Y011878D02*
X006967Y011878D01*
X006967Y011895D02*
X007019Y011895D01*
X007019Y011912D02*
X006967Y011912D01*
X006967Y011929D02*
X007019Y011929D01*
X007019Y011946D02*
X006967Y011946D01*
X006967Y011963D02*
X007019Y011963D01*
X007019Y011980D02*
X006967Y011980D01*
X006967Y011997D02*
X007019Y011997D01*
X007019Y012014D02*
X006967Y012014D01*
X006861Y012027D02*
X006861Y011385D01*
X006809Y011385D01*
X006809Y012027D01*
X006861Y012027D01*
X006861Y011402D02*
X006809Y011402D01*
X006809Y011419D02*
X006861Y011419D01*
X006861Y011436D02*
X006809Y011436D01*
X006809Y011453D02*
X006861Y011453D01*
X006861Y011470D02*
X006809Y011470D01*
X006809Y011487D02*
X006861Y011487D01*
X006861Y011504D02*
X006809Y011504D01*
X006809Y011521D02*
X006861Y011521D01*
X006861Y011538D02*
X006809Y011538D01*
X006809Y011555D02*
X006861Y011555D01*
X006861Y011572D02*
X006809Y011572D01*
X006809Y011589D02*
X006861Y011589D01*
X006861Y011606D02*
X006809Y011606D01*
X006809Y011623D02*
X006861Y011623D01*
X006861Y011640D02*
X006809Y011640D01*
X006809Y011657D02*
X006861Y011657D01*
X006861Y011674D02*
X006809Y011674D01*
X006809Y011691D02*
X006861Y011691D01*
X006861Y011708D02*
X006809Y011708D01*
X006809Y011725D02*
X006861Y011725D01*
X006861Y011742D02*
X006809Y011742D01*
X006809Y011759D02*
X006861Y011759D01*
X006861Y011776D02*
X006809Y011776D01*
X006809Y011793D02*
X006861Y011793D01*
X006861Y011810D02*
X006809Y011810D01*
X006809Y011827D02*
X006861Y011827D01*
X006861Y011844D02*
X006809Y011844D01*
X006809Y011861D02*
X006861Y011861D01*
X006861Y011878D02*
X006809Y011878D01*
X006809Y011895D02*
X006861Y011895D01*
X006861Y011912D02*
X006809Y011912D01*
X006809Y011929D02*
X006861Y011929D01*
X006861Y011946D02*
X006809Y011946D01*
X006809Y011963D02*
X006861Y011963D01*
X006861Y011980D02*
X006809Y011980D01*
X006809Y011997D02*
X006861Y011997D01*
X006861Y012014D02*
X006809Y012014D01*
X006704Y012027D02*
X006704Y011385D01*
X006652Y011385D01*
X006652Y012027D01*
X006704Y012027D01*
X006704Y011402D02*
X006652Y011402D01*
X006652Y011419D02*
X006704Y011419D01*
X006704Y011436D02*
X006652Y011436D01*
X006652Y011453D02*
X006704Y011453D01*
X006704Y011470D02*
X006652Y011470D01*
X006652Y011487D02*
X006704Y011487D01*
X006704Y011504D02*
X006652Y011504D01*
X006652Y011521D02*
X006704Y011521D01*
X006704Y011538D02*
X006652Y011538D01*
X006652Y011555D02*
X006704Y011555D01*
X006704Y011572D02*
X006652Y011572D01*
X006652Y011589D02*
X006704Y011589D01*
X006704Y011606D02*
X006652Y011606D01*
X006652Y011623D02*
X006704Y011623D01*
X006704Y011640D02*
X006652Y011640D01*
X006652Y011657D02*
X006704Y011657D01*
X006704Y011674D02*
X006652Y011674D01*
X006652Y011691D02*
X006704Y011691D01*
X006704Y011708D02*
X006652Y011708D01*
X006652Y011725D02*
X006704Y011725D01*
X006704Y011742D02*
X006652Y011742D01*
X006652Y011759D02*
X006704Y011759D01*
X006704Y011776D02*
X006652Y011776D01*
X006652Y011793D02*
X006704Y011793D01*
X006704Y011810D02*
X006652Y011810D01*
X006652Y011827D02*
X006704Y011827D01*
X006704Y011844D02*
X006652Y011844D01*
X006652Y011861D02*
X006704Y011861D01*
X006704Y011878D02*
X006652Y011878D01*
X006652Y011895D02*
X006704Y011895D01*
X006704Y011912D02*
X006652Y011912D01*
X006652Y011929D02*
X006704Y011929D01*
X006704Y011946D02*
X006652Y011946D01*
X006652Y011963D02*
X006704Y011963D01*
X006704Y011980D02*
X006652Y011980D01*
X006652Y011997D02*
X006704Y011997D01*
X006704Y012014D02*
X006652Y012014D01*
X006546Y012027D02*
X006546Y011385D01*
X006494Y011385D01*
X006494Y012027D01*
X006546Y012027D01*
X006546Y011402D02*
X006494Y011402D01*
X006494Y011419D02*
X006546Y011419D01*
X006546Y011436D02*
X006494Y011436D01*
X006494Y011453D02*
X006546Y011453D01*
X006546Y011470D02*
X006494Y011470D01*
X006494Y011487D02*
X006546Y011487D01*
X006546Y011504D02*
X006494Y011504D01*
X006494Y011521D02*
X006546Y011521D01*
X006546Y011538D02*
X006494Y011538D01*
X006494Y011555D02*
X006546Y011555D01*
X006546Y011572D02*
X006494Y011572D01*
X006494Y011589D02*
X006546Y011589D01*
X006546Y011606D02*
X006494Y011606D01*
X006494Y011623D02*
X006546Y011623D01*
X006546Y011640D02*
X006494Y011640D01*
X006494Y011657D02*
X006546Y011657D01*
X006546Y011674D02*
X006494Y011674D01*
X006494Y011691D02*
X006546Y011691D01*
X006546Y011708D02*
X006494Y011708D01*
X006494Y011725D02*
X006546Y011725D01*
X006546Y011742D02*
X006494Y011742D01*
X006494Y011759D02*
X006546Y011759D01*
X006546Y011776D02*
X006494Y011776D01*
X006494Y011793D02*
X006546Y011793D01*
X006546Y011810D02*
X006494Y011810D01*
X006494Y011827D02*
X006546Y011827D01*
X006546Y011844D02*
X006494Y011844D01*
X006494Y011861D02*
X006546Y011861D01*
X006546Y011878D02*
X006494Y011878D01*
X006494Y011895D02*
X006546Y011895D01*
X006546Y011912D02*
X006494Y011912D01*
X006494Y011929D02*
X006546Y011929D01*
X006546Y011946D02*
X006494Y011946D01*
X006494Y011963D02*
X006546Y011963D01*
X006546Y011980D02*
X006494Y011980D01*
X006494Y011997D02*
X006546Y011997D01*
X006546Y012014D02*
X006494Y012014D01*
X006389Y012027D02*
X006389Y011385D01*
X006337Y011385D01*
X006337Y012027D01*
X006389Y012027D01*
X006389Y011402D02*
X006337Y011402D01*
X006337Y011419D02*
X006389Y011419D01*
X006389Y011436D02*
X006337Y011436D01*
X006337Y011453D02*
X006389Y011453D01*
X006389Y011470D02*
X006337Y011470D01*
X006337Y011487D02*
X006389Y011487D01*
X006389Y011504D02*
X006337Y011504D01*
X006337Y011521D02*
X006389Y011521D01*
X006389Y011538D02*
X006337Y011538D01*
X006337Y011555D02*
X006389Y011555D01*
X006389Y011572D02*
X006337Y011572D01*
X006337Y011589D02*
X006389Y011589D01*
X006389Y011606D02*
X006337Y011606D01*
X006337Y011623D02*
X006389Y011623D01*
X006389Y011640D02*
X006337Y011640D01*
X006337Y011657D02*
X006389Y011657D01*
X006389Y011674D02*
X006337Y011674D01*
X006337Y011691D02*
X006389Y011691D01*
X006389Y011708D02*
X006337Y011708D01*
X006337Y011725D02*
X006389Y011725D01*
X006389Y011742D02*
X006337Y011742D01*
X006337Y011759D02*
X006389Y011759D01*
X006389Y011776D02*
X006337Y011776D01*
X006337Y011793D02*
X006389Y011793D01*
X006389Y011810D02*
X006337Y011810D01*
X006337Y011827D02*
X006389Y011827D01*
X006389Y011844D02*
X006337Y011844D01*
X006337Y011861D02*
X006389Y011861D01*
X006389Y011878D02*
X006337Y011878D01*
X006337Y011895D02*
X006389Y011895D01*
X006389Y011912D02*
X006337Y011912D01*
X006337Y011929D02*
X006389Y011929D01*
X006389Y011946D02*
X006337Y011946D01*
X006337Y011963D02*
X006389Y011963D01*
X006389Y011980D02*
X006337Y011980D01*
X006337Y011997D02*
X006389Y011997D01*
X006389Y012014D02*
X006337Y012014D01*
X006231Y012027D02*
X006231Y011385D01*
X006179Y011385D01*
X006179Y012027D01*
X006231Y012027D01*
X006231Y011402D02*
X006179Y011402D01*
X006179Y011419D02*
X006231Y011419D01*
X006231Y011436D02*
X006179Y011436D01*
X006179Y011453D02*
X006231Y011453D01*
X006231Y011470D02*
X006179Y011470D01*
X006179Y011487D02*
X006231Y011487D01*
X006231Y011504D02*
X006179Y011504D01*
X006179Y011521D02*
X006231Y011521D01*
X006231Y011538D02*
X006179Y011538D01*
X006179Y011555D02*
X006231Y011555D01*
X006231Y011572D02*
X006179Y011572D01*
X006179Y011589D02*
X006231Y011589D01*
X006231Y011606D02*
X006179Y011606D01*
X006179Y011623D02*
X006231Y011623D01*
X006231Y011640D02*
X006179Y011640D01*
X006179Y011657D02*
X006231Y011657D01*
X006231Y011674D02*
X006179Y011674D01*
X006179Y011691D02*
X006231Y011691D01*
X006231Y011708D02*
X006179Y011708D01*
X006179Y011725D02*
X006231Y011725D01*
X006231Y011742D02*
X006179Y011742D01*
X006179Y011759D02*
X006231Y011759D01*
X006231Y011776D02*
X006179Y011776D01*
X006179Y011793D02*
X006231Y011793D01*
X006231Y011810D02*
X006179Y011810D01*
X006179Y011827D02*
X006231Y011827D01*
X006231Y011844D02*
X006179Y011844D01*
X006179Y011861D02*
X006231Y011861D01*
X006231Y011878D02*
X006179Y011878D01*
X006179Y011895D02*
X006231Y011895D01*
X006231Y011912D02*
X006179Y011912D01*
X006179Y011929D02*
X006231Y011929D01*
X006231Y011946D02*
X006179Y011946D01*
X006179Y011963D02*
X006231Y011963D01*
X006231Y011980D02*
X006179Y011980D01*
X006179Y011997D02*
X006231Y011997D01*
X006231Y012014D02*
X006179Y012014D01*
X006074Y012027D02*
X006074Y011385D01*
X006022Y011385D01*
X006022Y012027D01*
X006074Y012027D01*
X006074Y011402D02*
X006022Y011402D01*
X006022Y011419D02*
X006074Y011419D01*
X006074Y011436D02*
X006022Y011436D01*
X006022Y011453D02*
X006074Y011453D01*
X006074Y011470D02*
X006022Y011470D01*
X006022Y011487D02*
X006074Y011487D01*
X006074Y011504D02*
X006022Y011504D01*
X006022Y011521D02*
X006074Y011521D01*
X006074Y011538D02*
X006022Y011538D01*
X006022Y011555D02*
X006074Y011555D01*
X006074Y011572D02*
X006022Y011572D01*
X006022Y011589D02*
X006074Y011589D01*
X006074Y011606D02*
X006022Y011606D01*
X006022Y011623D02*
X006074Y011623D01*
X006074Y011640D02*
X006022Y011640D01*
X006022Y011657D02*
X006074Y011657D01*
X006074Y011674D02*
X006022Y011674D01*
X006022Y011691D02*
X006074Y011691D01*
X006074Y011708D02*
X006022Y011708D01*
X006022Y011725D02*
X006074Y011725D01*
X006074Y011742D02*
X006022Y011742D01*
X006022Y011759D02*
X006074Y011759D01*
X006074Y011776D02*
X006022Y011776D01*
X006022Y011793D02*
X006074Y011793D01*
X006074Y011810D02*
X006022Y011810D01*
X006022Y011827D02*
X006074Y011827D01*
X006074Y011844D02*
X006022Y011844D01*
X006022Y011861D02*
X006074Y011861D01*
X006074Y011878D02*
X006022Y011878D01*
X006022Y011895D02*
X006074Y011895D01*
X006074Y011912D02*
X006022Y011912D01*
X006022Y011929D02*
X006074Y011929D01*
X006074Y011946D02*
X006022Y011946D01*
X006022Y011963D02*
X006074Y011963D01*
X006074Y011980D02*
X006022Y011980D01*
X006022Y011997D02*
X006074Y011997D01*
X006074Y012014D02*
X006022Y012014D01*
X005916Y012027D02*
X005916Y011385D01*
X005864Y011385D01*
X005864Y012027D01*
X005916Y012027D01*
X005916Y011402D02*
X005864Y011402D01*
X005864Y011419D02*
X005916Y011419D01*
X005916Y011436D02*
X005864Y011436D01*
X005864Y011453D02*
X005916Y011453D01*
X005916Y011470D02*
X005864Y011470D01*
X005864Y011487D02*
X005916Y011487D01*
X005916Y011504D02*
X005864Y011504D01*
X005864Y011521D02*
X005916Y011521D01*
X005916Y011538D02*
X005864Y011538D01*
X005864Y011555D02*
X005916Y011555D01*
X005916Y011572D02*
X005864Y011572D01*
X005864Y011589D02*
X005916Y011589D01*
X005916Y011606D02*
X005864Y011606D01*
X005864Y011623D02*
X005916Y011623D01*
X005916Y011640D02*
X005864Y011640D01*
X005864Y011657D02*
X005916Y011657D01*
X005916Y011674D02*
X005864Y011674D01*
X005864Y011691D02*
X005916Y011691D01*
X005916Y011708D02*
X005864Y011708D01*
X005864Y011725D02*
X005916Y011725D01*
X005916Y011742D02*
X005864Y011742D01*
X005864Y011759D02*
X005916Y011759D01*
X005916Y011776D02*
X005864Y011776D01*
X005864Y011793D02*
X005916Y011793D01*
X005916Y011810D02*
X005864Y011810D01*
X005864Y011827D02*
X005916Y011827D01*
X005916Y011844D02*
X005864Y011844D01*
X005864Y011861D02*
X005916Y011861D01*
X005916Y011878D02*
X005864Y011878D01*
X005864Y011895D02*
X005916Y011895D01*
X005916Y011912D02*
X005864Y011912D01*
X005864Y011929D02*
X005916Y011929D01*
X005916Y011946D02*
X005864Y011946D01*
X005864Y011963D02*
X005916Y011963D01*
X005916Y011980D02*
X005864Y011980D01*
X005864Y011997D02*
X005916Y011997D01*
X005916Y012014D02*
X005864Y012014D01*
X005759Y012027D02*
X005759Y011385D01*
X005707Y011385D01*
X005707Y012027D01*
X005759Y012027D01*
X005759Y011402D02*
X005707Y011402D01*
X005707Y011419D02*
X005759Y011419D01*
X005759Y011436D02*
X005707Y011436D01*
X005707Y011453D02*
X005759Y011453D01*
X005759Y011470D02*
X005707Y011470D01*
X005707Y011487D02*
X005759Y011487D01*
X005759Y011504D02*
X005707Y011504D01*
X005707Y011521D02*
X005759Y011521D01*
X005759Y011538D02*
X005707Y011538D01*
X005707Y011555D02*
X005759Y011555D01*
X005759Y011572D02*
X005707Y011572D01*
X005707Y011589D02*
X005759Y011589D01*
X005759Y011606D02*
X005707Y011606D01*
X005707Y011623D02*
X005759Y011623D01*
X005759Y011640D02*
X005707Y011640D01*
X005707Y011657D02*
X005759Y011657D01*
X005759Y011674D02*
X005707Y011674D01*
X005707Y011691D02*
X005759Y011691D01*
X005759Y011708D02*
X005707Y011708D01*
X005707Y011725D02*
X005759Y011725D01*
X005759Y011742D02*
X005707Y011742D01*
X005707Y011759D02*
X005759Y011759D01*
X005759Y011776D02*
X005707Y011776D01*
X005707Y011793D02*
X005759Y011793D01*
X005759Y011810D02*
X005707Y011810D01*
X005707Y011827D02*
X005759Y011827D01*
X005759Y011844D02*
X005707Y011844D01*
X005707Y011861D02*
X005759Y011861D01*
X005759Y011878D02*
X005707Y011878D01*
X005707Y011895D02*
X005759Y011895D01*
X005759Y011912D02*
X005707Y011912D01*
X005707Y011929D02*
X005759Y011929D01*
X005759Y011946D02*
X005707Y011946D01*
X005707Y011963D02*
X005759Y011963D01*
X005759Y011980D02*
X005707Y011980D01*
X005707Y011997D02*
X005759Y011997D01*
X005759Y012014D02*
X005707Y012014D01*
X005601Y012027D02*
X005601Y011385D01*
X005549Y011385D01*
X005549Y012027D01*
X005601Y012027D01*
X005601Y011402D02*
X005549Y011402D01*
X005549Y011419D02*
X005601Y011419D01*
X005601Y011436D02*
X005549Y011436D01*
X005549Y011453D02*
X005601Y011453D01*
X005601Y011470D02*
X005549Y011470D01*
X005549Y011487D02*
X005601Y011487D01*
X005601Y011504D02*
X005549Y011504D01*
X005549Y011521D02*
X005601Y011521D01*
X005601Y011538D02*
X005549Y011538D01*
X005549Y011555D02*
X005601Y011555D01*
X005601Y011572D02*
X005549Y011572D01*
X005549Y011589D02*
X005601Y011589D01*
X005601Y011606D02*
X005549Y011606D01*
X005549Y011623D02*
X005601Y011623D01*
X005601Y011640D02*
X005549Y011640D01*
X005549Y011657D02*
X005601Y011657D01*
X005601Y011674D02*
X005549Y011674D01*
X005549Y011691D02*
X005601Y011691D01*
X005601Y011708D02*
X005549Y011708D01*
X005549Y011725D02*
X005601Y011725D01*
X005601Y011742D02*
X005549Y011742D01*
X005549Y011759D02*
X005601Y011759D01*
X005601Y011776D02*
X005549Y011776D01*
X005549Y011793D02*
X005601Y011793D01*
X005601Y011810D02*
X005549Y011810D01*
X005549Y011827D02*
X005601Y011827D01*
X005601Y011844D02*
X005549Y011844D01*
X005549Y011861D02*
X005601Y011861D01*
X005601Y011878D02*
X005549Y011878D01*
X005549Y011895D02*
X005601Y011895D01*
X005601Y011912D02*
X005549Y011912D01*
X005549Y011929D02*
X005601Y011929D01*
X005601Y011946D02*
X005549Y011946D01*
X005549Y011963D02*
X005601Y011963D01*
X005601Y011980D02*
X005549Y011980D01*
X005549Y011997D02*
X005601Y011997D01*
X005601Y012014D02*
X005549Y012014D01*
X005444Y012027D02*
X005444Y011385D01*
X005392Y011385D01*
X005392Y012027D01*
X005444Y012027D01*
X005444Y011402D02*
X005392Y011402D01*
X005392Y011419D02*
X005444Y011419D01*
X005444Y011436D02*
X005392Y011436D01*
X005392Y011453D02*
X005444Y011453D01*
X005444Y011470D02*
X005392Y011470D01*
X005392Y011487D02*
X005444Y011487D01*
X005444Y011504D02*
X005392Y011504D01*
X005392Y011521D02*
X005444Y011521D01*
X005444Y011538D02*
X005392Y011538D01*
X005392Y011555D02*
X005444Y011555D01*
X005444Y011572D02*
X005392Y011572D01*
X005392Y011589D02*
X005444Y011589D01*
X005444Y011606D02*
X005392Y011606D01*
X005392Y011623D02*
X005444Y011623D01*
X005444Y011640D02*
X005392Y011640D01*
X005392Y011657D02*
X005444Y011657D01*
X005444Y011674D02*
X005392Y011674D01*
X005392Y011691D02*
X005444Y011691D01*
X005444Y011708D02*
X005392Y011708D01*
X005392Y011725D02*
X005444Y011725D01*
X005444Y011742D02*
X005392Y011742D01*
X005392Y011759D02*
X005444Y011759D01*
X005444Y011776D02*
X005392Y011776D01*
X005392Y011793D02*
X005444Y011793D01*
X005444Y011810D02*
X005392Y011810D01*
X005392Y011827D02*
X005444Y011827D01*
X005444Y011844D02*
X005392Y011844D01*
X005392Y011861D02*
X005444Y011861D01*
X005444Y011878D02*
X005392Y011878D01*
X005392Y011895D02*
X005444Y011895D01*
X005444Y011912D02*
X005392Y011912D01*
X005392Y011929D02*
X005444Y011929D01*
X005444Y011946D02*
X005392Y011946D01*
X005392Y011963D02*
X005444Y011963D01*
X005444Y011980D02*
X005392Y011980D01*
X005392Y011997D02*
X005444Y011997D01*
X005444Y012014D02*
X005392Y012014D01*
X005286Y012027D02*
X005286Y011385D01*
X005234Y011385D01*
X005234Y012027D01*
X005286Y012027D01*
X005286Y011402D02*
X005234Y011402D01*
X005234Y011419D02*
X005286Y011419D01*
X005286Y011436D02*
X005234Y011436D01*
X005234Y011453D02*
X005286Y011453D01*
X005286Y011470D02*
X005234Y011470D01*
X005234Y011487D02*
X005286Y011487D01*
X005286Y011504D02*
X005234Y011504D01*
X005234Y011521D02*
X005286Y011521D01*
X005286Y011538D02*
X005234Y011538D01*
X005234Y011555D02*
X005286Y011555D01*
X005286Y011572D02*
X005234Y011572D01*
X005234Y011589D02*
X005286Y011589D01*
X005286Y011606D02*
X005234Y011606D01*
X005234Y011623D02*
X005286Y011623D01*
X005286Y011640D02*
X005234Y011640D01*
X005234Y011657D02*
X005286Y011657D01*
X005286Y011674D02*
X005234Y011674D01*
X005234Y011691D02*
X005286Y011691D01*
X005286Y011708D02*
X005234Y011708D01*
X005234Y011725D02*
X005286Y011725D01*
X005286Y011742D02*
X005234Y011742D01*
X005234Y011759D02*
X005286Y011759D01*
X005286Y011776D02*
X005234Y011776D01*
X005234Y011793D02*
X005286Y011793D01*
X005286Y011810D02*
X005234Y011810D01*
X005234Y011827D02*
X005286Y011827D01*
X005286Y011844D02*
X005234Y011844D01*
X005234Y011861D02*
X005286Y011861D01*
X005286Y011878D02*
X005234Y011878D01*
X005234Y011895D02*
X005286Y011895D01*
X005286Y011912D02*
X005234Y011912D01*
X005234Y011929D02*
X005286Y011929D01*
X005286Y011946D02*
X005234Y011946D01*
X005234Y011963D02*
X005286Y011963D01*
X005286Y011980D02*
X005234Y011980D01*
X005234Y011997D02*
X005286Y011997D01*
X005286Y012014D02*
X005234Y012014D01*
X005129Y012027D02*
X005129Y011385D01*
X005077Y011385D01*
X005077Y012027D01*
X005129Y012027D01*
X005129Y011402D02*
X005077Y011402D01*
X005077Y011419D02*
X005129Y011419D01*
X005129Y011436D02*
X005077Y011436D01*
X005077Y011453D02*
X005129Y011453D01*
X005129Y011470D02*
X005077Y011470D01*
X005077Y011487D02*
X005129Y011487D01*
X005129Y011504D02*
X005077Y011504D01*
X005077Y011521D02*
X005129Y011521D01*
X005129Y011538D02*
X005077Y011538D01*
X005077Y011555D02*
X005129Y011555D01*
X005129Y011572D02*
X005077Y011572D01*
X005077Y011589D02*
X005129Y011589D01*
X005129Y011606D02*
X005077Y011606D01*
X005077Y011623D02*
X005129Y011623D01*
X005129Y011640D02*
X005077Y011640D01*
X005077Y011657D02*
X005129Y011657D01*
X005129Y011674D02*
X005077Y011674D01*
X005077Y011691D02*
X005129Y011691D01*
X005129Y011708D02*
X005077Y011708D01*
X005077Y011725D02*
X005129Y011725D01*
X005129Y011742D02*
X005077Y011742D01*
X005077Y011759D02*
X005129Y011759D01*
X005129Y011776D02*
X005077Y011776D01*
X005077Y011793D02*
X005129Y011793D01*
X005129Y011810D02*
X005077Y011810D01*
X005077Y011827D02*
X005129Y011827D01*
X005129Y011844D02*
X005077Y011844D01*
X005077Y011861D02*
X005129Y011861D01*
X005129Y011878D02*
X005077Y011878D01*
X005077Y011895D02*
X005129Y011895D01*
X005129Y011912D02*
X005077Y011912D01*
X005077Y011929D02*
X005129Y011929D01*
X005129Y011946D02*
X005077Y011946D01*
X005077Y011963D02*
X005129Y011963D01*
X005129Y011980D02*
X005077Y011980D01*
X005077Y011997D02*
X005129Y011997D01*
X005129Y012014D02*
X005077Y012014D01*
D25*
X003646Y001732D03*
D26*
X003646Y001446D03*
X003449Y001446D03*
X003252Y001446D03*
X003252Y001738D03*
X003449Y001738D03*
D27*
X004500Y002046D03*
X004500Y001298D03*
D28*
X004414Y017024D03*
X004614Y017024D03*
X004614Y018164D03*
X004414Y018164D03*
D29*
X004044Y017984D03*
X004044Y017794D03*
X004044Y017594D03*
X004044Y017394D03*
X004044Y017204D03*
X004984Y017204D03*
X004984Y017394D03*
X004984Y017594D03*
X004984Y017794D03*
X004984Y017984D03*
D30*
X004514Y017594D03*
D31*
X004270Y019402D03*
X004270Y020402D03*
X003270Y020502D03*
X003270Y019502D03*
X005270Y019502D03*
X005270Y020502D03*
D32*
X002250Y006672D02*
X002430Y006492D01*
X002430Y005652D01*
X002658Y005425D01*
X002640Y005425D01*
X003157Y004760D02*
X002910Y004512D01*
X002370Y004512D01*
X002310Y004452D01*
X002310Y003972D01*
X002430Y003852D01*
X003157Y004760D02*
X003157Y004865D01*
X003201Y003741D02*
X003201Y003596D01*
X003510Y001992D02*
X003449Y001931D01*
X003252Y001830D02*
X003150Y001932D01*
X003252Y001830D02*
X003252Y001738D01*
X003449Y001446D02*
X003449Y001183D01*
X003192Y001331D02*
X002871Y001010D01*
X002530Y001351D01*
X002530Y001396D01*
X002871Y001010D02*
X003067Y001010D01*
X003194Y000882D01*
X003150Y000906D01*
X003706Y000882D02*
X003750Y000926D01*
X003750Y001092D01*
X003750Y001272D01*
X005497Y003071D02*
X005694Y003071D01*
X005694Y003096D01*
X005790Y003192D01*
X005790Y003364D01*
X005865Y003439D01*
X005695Y003072D02*
X005694Y003071D01*
X005695Y003072D02*
X006090Y003072D01*
D33*
X006089Y003071D01*
X006810Y003332D02*
X006690Y003612D01*
X006810Y003332D02*
X006810Y002352D01*
X005497Y003071D02*
X005300Y003071D01*
X005103Y003071D01*
X004906Y003071D01*
X004710Y003071D01*
X004513Y003071D01*
X004316Y003071D01*
X004145Y003636D02*
X003810Y003636D01*
X003810Y003012D01*
X003870Y002952D01*
X003374Y003596D02*
X003782Y004004D01*
X004316Y004004D01*
X003827Y005335D02*
X003707Y005335D01*
X003630Y005412D01*
X003620Y005422D01*
X003157Y005422D01*
X002741Y006300D02*
X002977Y006536D01*
X002977Y006851D01*
X002977Y007166D01*
X002977Y007481D01*
X002977Y007796D01*
X002977Y008111D01*
X002815Y008111D01*
X002610Y008316D01*
X002190Y008256D02*
X002610Y007836D01*
X002610Y007317D02*
X002415Y007317D01*
X002010Y006912D01*
X002190Y008256D02*
X002190Y008832D01*
X002045Y008977D01*
X001489Y008977D01*
X001250Y009156D01*
X002977Y010316D02*
X003134Y010158D01*
X003449Y009843D02*
X003607Y009686D01*
X003922Y009371D02*
X004079Y009214D01*
X004237Y009371D02*
X004394Y009529D01*
X004552Y009686D02*
X004867Y009686D01*
X005024Y009529D01*
X005181Y009686D01*
X005496Y010001D01*
X005339Y010158D01*
X005181Y010001D02*
X005024Y009843D01*
X005024Y009529D02*
X005181Y009371D01*
X004867Y009056D01*
X004867Y008741D01*
X004394Y008269D01*
X004709Y008269D02*
X004867Y008426D01*
X005181Y008426D02*
X004867Y008111D01*
X004709Y007954D02*
X004552Y007796D01*
X004552Y007481D01*
X004394Y007324D01*
X004552Y007166D02*
X004394Y007009D01*
X004552Y007166D02*
X004867Y007166D01*
X005181Y007166D01*
X005339Y007324D01*
X005496Y007481D02*
X005339Y007639D01*
X005496Y007166D02*
X005339Y007009D01*
X005210Y005832D02*
X004950Y005832D01*
X005387Y005635D02*
X005387Y005335D01*
X004709Y006694D02*
X004552Y006851D01*
X003922Y007481D02*
X004079Y007639D01*
X003922Y007796D02*
X004079Y007954D01*
X003764Y007954D02*
X003607Y007796D01*
X003607Y007481D01*
X003449Y007324D01*
X003764Y008269D02*
X003607Y008426D01*
X003292Y008741D01*
X003607Y008741D02*
X003764Y008584D01*
X004867Y008741D02*
X005181Y008426D01*
X005339Y008584D02*
X005496Y008741D01*
X005811Y008741D01*
X006126Y009056D01*
X006284Y008899D01*
X006126Y008741D02*
X006126Y008426D01*
X005969Y008269D01*
X006126Y008111D01*
X006126Y007796D01*
X006441Y008111D02*
X006284Y008269D01*
X005654Y009214D02*
X005811Y009371D01*
X005399Y010852D02*
X005418Y010871D01*
X006813Y010792D02*
X006914Y010691D01*
X006914Y010473D01*
X006756Y010316D01*
X006756Y006536D02*
X006993Y006300D01*
X003646Y001376D02*
X003750Y001272D01*
X003646Y001376D02*
X003646Y001446D01*
X003252Y001446D02*
X003252Y001391D01*
X003192Y001331D01*
X003210Y003012D02*
X003201Y003183D01*
X003201Y003596D01*
X003374Y003596D01*
X002686Y003596D02*
X002670Y003580D01*
X002670Y003192D01*
X002490Y002992D01*
X003630Y005412D02*
X003570Y005712D01*
X001250Y014406D02*
X001310Y014732D01*
X001470Y014892D01*
X001470Y015972D02*
X001250Y016192D01*
X001250Y016596D01*
X002610Y018928D02*
X002550Y018988D01*
X002550Y019992D01*
X002490Y019992D01*
X002310Y019812D01*
X001214Y019812D01*
X001050Y019976D01*
X002550Y019992D02*
X002550Y020052D01*
X003000Y020502D01*
X003270Y020502D01*
X003830Y018632D02*
X003690Y018432D01*
X003830Y018632D02*
X004264Y018632D01*
X004414Y018482D01*
X004414Y018164D01*
X004290Y018607D02*
X004264Y018632D01*
X005270Y019502D02*
X005310Y019542D01*
X005310Y019752D01*
X005850Y020292D01*
X005850Y020532D01*
X005884Y020566D01*
X006151Y020566D01*
X006476Y020566D01*
X006776Y020566D01*
X007101Y020566D01*
X003876Y015006D02*
X003930Y014952D01*
X004000Y014882D01*
D34*
X000805Y019716D02*
X000805Y000742D01*
X001452Y000742D01*
X001130Y001065D01*
X001090Y001160D01*
X001090Y002887D01*
X000933Y003044D01*
X000933Y003340D01*
X001090Y003497D01*
X001090Y004384D01*
X001130Y004479D01*
X001289Y004638D01*
X001120Y004807D01*
X001120Y005747D01*
X001435Y006062D01*
X001596Y006062D01*
X001380Y006278D01*
X001380Y006626D01*
X001626Y006872D01*
X001974Y006872D01*
X002150Y006696D01*
X002150Y007208D01*
X001974Y007032D01*
X001626Y007032D01*
X001380Y007278D01*
X001380Y007626D01*
X001392Y007638D01*
X001279Y007638D01*
X001279Y007887D01*
X001221Y007887D01*
X001221Y007638D01*
X001054Y007638D01*
X001019Y007648D01*
X000987Y007666D01*
X000961Y007692D01*
X000942Y007724D01*
X000933Y007760D01*
X000933Y007887D01*
X001221Y007887D01*
X001221Y007945D01*
X000933Y007945D01*
X000933Y008072D01*
X000942Y008108D01*
X000961Y008140D01*
X000965Y008144D01*
X000893Y008216D01*
X000893Y008640D01*
X000990Y008738D01*
X000990Y008847D01*
X000893Y008944D01*
X000893Y009369D01*
X000936Y009412D01*
X000893Y009456D01*
X000893Y009880D01*
X000998Y009986D01*
X001176Y009986D01*
X001310Y010119D01*
X001310Y010119D01*
X001383Y010193D01*
X001441Y010217D01*
X001380Y010278D01*
X001380Y010626D01*
X001400Y010646D01*
X000998Y010646D01*
X000893Y010752D01*
X000893Y011176D01*
X000965Y011248D01*
X000961Y011252D01*
X000942Y011284D01*
X000933Y011320D01*
X000933Y011447D01*
X001221Y011447D01*
X001221Y011505D01*
X001221Y011754D01*
X001054Y011754D01*
X001019Y011744D01*
X000987Y011726D01*
X000961Y011700D01*
X000942Y011668D01*
X000933Y011632D01*
X000933Y011505D01*
X001221Y011505D01*
X001279Y011505D01*
X001279Y011754D01*
X001372Y011754D01*
X001203Y011922D01*
X001080Y012045D01*
X001080Y012389D01*
X000998Y012389D01*
X000893Y012495D01*
X000893Y012920D01*
X000965Y012991D01*
X000961Y012995D01*
X000942Y013027D01*
X000933Y013063D01*
X000933Y013190D01*
X001221Y013190D01*
X001221Y013248D01*
X000933Y013248D01*
X000933Y013375D01*
X000942Y013411D01*
X000961Y013443D01*
X000987Y013469D01*
X001019Y013487D01*
X001054Y013497D01*
X001221Y013497D01*
X001221Y013248D01*
X001279Y013248D01*
X001279Y013497D01*
X001380Y013497D01*
X001380Y013576D01*
X000998Y013576D01*
X000893Y013681D01*
X000893Y014106D01*
X000936Y014150D01*
X000893Y014193D01*
X000893Y014618D01*
X000998Y014723D01*
X001064Y014723D01*
X001070Y014754D01*
X001070Y014780D01*
X001079Y014800D01*
X001083Y014822D01*
X001097Y014844D01*
X001107Y014868D01*
X001122Y014884D01*
X001134Y014903D01*
X001156Y014917D01*
X001190Y014952D01*
X001190Y015008D01*
X001354Y015172D01*
X001486Y015172D01*
X001380Y015278D01*
X001380Y015626D01*
X001446Y015692D01*
X001354Y015692D01*
X001190Y015856D01*
X001190Y015913D01*
X001114Y015989D01*
X001047Y016056D01*
X001010Y016144D01*
X001010Y016278D01*
X000998Y016278D01*
X000893Y016384D01*
X000893Y016809D01*
X000965Y016880D01*
X000961Y016884D01*
X000942Y016916D01*
X000933Y016952D01*
X000933Y017079D01*
X001221Y017079D01*
X001221Y017137D01*
X000933Y017137D01*
X000933Y017264D01*
X000942Y017300D01*
X000961Y017332D01*
X000987Y017358D01*
X001019Y017376D01*
X001054Y017386D01*
X001221Y017386D01*
X001221Y017137D01*
X001279Y017137D01*
X001521Y017137D01*
X001590Y017068D01*
X001590Y017055D01*
X001773Y016872D01*
X001626Y016872D01*
X001585Y016831D01*
X001535Y016880D01*
X001539Y016884D01*
X001558Y016916D01*
X001567Y016952D01*
X001567Y017079D01*
X001279Y017079D01*
X001279Y017137D01*
X001279Y017386D01*
X001380Y017386D01*
X001380Y017626D01*
X001626Y017872D01*
X001913Y017872D01*
X001753Y018032D01*
X001626Y018032D01*
X001380Y018278D01*
X001380Y018626D01*
X001626Y018872D01*
X001873Y018872D01*
X001713Y019032D01*
X001626Y019032D01*
X001380Y019278D01*
X001380Y019626D01*
X001596Y019842D01*
X001503Y019842D01*
X001380Y019965D01*
X001340Y020005D01*
X001079Y020005D01*
X001079Y019947D01*
X001079Y019698D01*
X001246Y019698D01*
X001281Y019708D01*
X001313Y019726D01*
X001339Y019752D01*
X001358Y019784D01*
X001367Y019820D01*
X001367Y019947D01*
X001079Y019947D01*
X001021Y019947D01*
X001021Y019698D01*
X000854Y019698D01*
X000819Y019708D01*
X000805Y019716D01*
X000805Y019706D02*
X000825Y019706D01*
X000805Y019628D02*
X001382Y019628D01*
X001380Y019549D02*
X000805Y019549D01*
X000805Y019471D02*
X001380Y019471D01*
X001380Y019392D02*
X000805Y019392D01*
X000805Y019314D02*
X001380Y019314D01*
X001423Y019235D02*
X000805Y019235D01*
X000805Y019157D02*
X001501Y019157D01*
X001580Y019078D02*
X000805Y019078D01*
X000805Y019000D02*
X001745Y019000D01*
X001824Y018921D02*
X000805Y018921D01*
X000805Y018843D02*
X001597Y018843D01*
X001518Y018764D02*
X000805Y018764D01*
X000805Y018686D02*
X001440Y018686D01*
X001380Y018607D02*
X000805Y018607D01*
X000805Y018529D02*
X001380Y018529D01*
X001380Y018450D02*
X000805Y018450D01*
X000805Y018372D02*
X001380Y018372D01*
X001380Y018293D02*
X000805Y018293D01*
X000805Y018215D02*
X001443Y018215D01*
X001522Y018136D02*
X000805Y018136D01*
X000805Y018058D02*
X001600Y018058D01*
X001576Y017822D02*
X000805Y017822D01*
X000805Y017744D02*
X001498Y017744D01*
X001419Y017665D02*
X000805Y017665D01*
X000805Y017587D02*
X001380Y017587D01*
X001380Y017508D02*
X000805Y017508D01*
X000805Y017430D02*
X001380Y017430D01*
X001279Y017351D02*
X001221Y017351D01*
X001221Y017273D02*
X001279Y017273D01*
X001279Y017194D02*
X001221Y017194D01*
X001221Y017116D02*
X000805Y017116D01*
X000805Y017194D02*
X000933Y017194D01*
X000935Y017273D02*
X000805Y017273D01*
X000805Y017351D02*
X000980Y017351D01*
X000933Y017037D02*
X000805Y017037D01*
X000805Y016959D02*
X000933Y016959D01*
X000964Y016880D02*
X000805Y016880D01*
X000805Y016802D02*
X000893Y016802D01*
X000893Y016723D02*
X000805Y016723D01*
X000805Y016645D02*
X000893Y016645D01*
X000893Y016566D02*
X000805Y016566D01*
X000805Y016488D02*
X000893Y016488D01*
X000893Y016409D02*
X000805Y016409D01*
X000805Y016331D02*
X000946Y016331D01*
X001010Y016252D02*
X000805Y016252D01*
X000805Y016174D02*
X001010Y016174D01*
X001030Y016095D02*
X000805Y016095D01*
X000805Y016017D02*
X001086Y016017D01*
X001165Y015938D02*
X000805Y015938D01*
X000805Y015860D02*
X001190Y015860D01*
X001265Y015781D02*
X000805Y015781D01*
X000805Y015703D02*
X001343Y015703D01*
X001380Y015624D02*
X000805Y015624D01*
X000805Y015546D02*
X001380Y015546D01*
X001380Y015467D02*
X000805Y015467D01*
X000805Y015389D02*
X001380Y015389D01*
X001380Y015310D02*
X000805Y015310D01*
X000805Y015232D02*
X001426Y015232D01*
X001335Y015153D02*
X000805Y015153D01*
X000805Y015075D02*
X001257Y015075D01*
X001190Y014996D02*
X000805Y014996D01*
X000805Y014918D02*
X001156Y014918D01*
X001093Y014839D02*
X000805Y014839D01*
X000805Y014761D02*
X001070Y014761D01*
X000957Y014682D02*
X000805Y014682D01*
X000805Y014604D02*
X000893Y014604D01*
X000893Y014525D02*
X000805Y014525D01*
X000805Y014447D02*
X000893Y014447D01*
X000893Y014368D02*
X000805Y014368D01*
X000805Y014290D02*
X000893Y014290D01*
X000893Y014211D02*
X000805Y014211D01*
X000805Y014133D02*
X000919Y014133D01*
X000893Y014054D02*
X000805Y014054D01*
X000805Y013976D02*
X000893Y013976D01*
X000893Y013897D02*
X000805Y013897D01*
X000805Y013819D02*
X000893Y013819D01*
X000893Y013740D02*
X000805Y013740D01*
X000805Y013662D02*
X000913Y013662D01*
X000991Y013583D02*
X000805Y013583D01*
X000805Y013505D02*
X001380Y013505D01*
X001279Y013426D02*
X001221Y013426D01*
X001221Y013348D02*
X001279Y013348D01*
X001279Y013269D02*
X001221Y013269D01*
X001221Y013191D02*
X000805Y013191D01*
X000805Y013269D02*
X000933Y013269D01*
X000933Y013348D02*
X000805Y013348D01*
X000805Y013426D02*
X000951Y013426D01*
X000933Y013112D02*
X000805Y013112D01*
X000805Y013034D02*
X000941Y013034D01*
X000928Y012955D02*
X000805Y012955D01*
X000805Y012877D02*
X000893Y012877D01*
X000893Y012798D02*
X000805Y012798D01*
X000805Y012720D02*
X000893Y012720D01*
X000893Y012641D02*
X000805Y012641D01*
X000805Y012563D02*
X000893Y012563D01*
X000904Y012484D02*
X000805Y012484D01*
X000805Y012406D02*
X000982Y012406D01*
X001080Y012327D02*
X000805Y012327D01*
X000805Y012249D02*
X001080Y012249D01*
X001080Y012170D02*
X000805Y012170D01*
X000805Y012092D02*
X001080Y012092D01*
X001112Y012013D02*
X000805Y012013D01*
X000805Y011935D02*
X001190Y011935D01*
X001269Y011856D02*
X000805Y011856D01*
X000805Y011778D02*
X001347Y011778D01*
X001279Y011699D02*
X001221Y011699D01*
X001221Y011621D02*
X001279Y011621D01*
X001279Y011542D02*
X001221Y011542D01*
X001221Y011464D02*
X000805Y011464D01*
X000805Y011542D02*
X000933Y011542D01*
X000933Y011621D02*
X000805Y011621D01*
X000805Y011699D02*
X000961Y011699D01*
X000933Y011385D02*
X000805Y011385D01*
X000805Y011307D02*
X000936Y011307D01*
X000945Y011228D02*
X000805Y011228D01*
X000805Y011150D02*
X000893Y011150D01*
X000893Y011071D02*
X000805Y011071D01*
X000805Y010993D02*
X000893Y010993D01*
X000893Y010914D02*
X000805Y010914D01*
X000805Y010836D02*
X000893Y010836D01*
X000893Y010757D02*
X000805Y010757D01*
X000805Y010679D02*
X000966Y010679D01*
X000805Y010600D02*
X001380Y010600D01*
X001380Y010522D02*
X000805Y010522D01*
X000805Y010443D02*
X001380Y010443D01*
X001380Y010365D02*
X000805Y010365D01*
X000805Y010286D02*
X001380Y010286D01*
X001419Y010208D02*
X000805Y010208D01*
X000805Y010129D02*
X001319Y010129D01*
X001241Y010051D02*
X000805Y010051D01*
X000805Y009972D02*
X000985Y009972D01*
X000906Y009894D02*
X000805Y009894D01*
X000805Y009815D02*
X000893Y009815D01*
X000893Y009737D02*
X000805Y009737D01*
X000805Y009658D02*
X000893Y009658D01*
X000893Y009580D02*
X000805Y009580D01*
X000805Y009501D02*
X000893Y009501D01*
X000926Y009423D02*
X000805Y009423D01*
X000805Y009344D02*
X000893Y009344D01*
X000893Y009266D02*
X000805Y009266D01*
X000805Y009187D02*
X000893Y009187D01*
X000893Y009109D02*
X000805Y009109D01*
X000805Y009030D02*
X000893Y009030D01*
X000893Y008952D02*
X000805Y008952D01*
X000805Y008873D02*
X000964Y008873D01*
X000990Y008795D02*
X000805Y008795D01*
X000805Y008716D02*
X000969Y008716D01*
X000893Y008638D02*
X000805Y008638D01*
X000805Y008559D02*
X000893Y008559D01*
X000893Y008481D02*
X000805Y008481D01*
X000805Y008402D02*
X000893Y008402D01*
X000893Y008324D02*
X000805Y008324D01*
X000805Y008245D02*
X000893Y008245D01*
X000942Y008167D02*
X000805Y008167D01*
X000805Y008088D02*
X000937Y008088D01*
X000933Y008010D02*
X000805Y008010D01*
X000805Y007931D02*
X001221Y007931D01*
X001279Y007931D02*
X002150Y007931D01*
X002150Y007956D02*
X002150Y007696D01*
X001974Y007872D01*
X001626Y007872D01*
X001567Y007813D01*
X001567Y007887D01*
X001279Y007887D01*
X001279Y007945D01*
X001567Y007945D01*
X001567Y008072D01*
X001560Y008098D01*
X001626Y008032D01*
X001974Y008032D01*
X002024Y008082D01*
X002150Y007956D01*
X002097Y008010D02*
X001567Y008010D01*
X001563Y008088D02*
X001570Y008088D01*
X001567Y007853D02*
X001607Y007853D01*
X001380Y007617D02*
X000805Y007617D01*
X000805Y007539D02*
X001380Y007539D01*
X001380Y007460D02*
X000805Y007460D01*
X000805Y007382D02*
X001380Y007382D01*
X001380Y007303D02*
X000805Y007303D01*
X000805Y007225D02*
X001434Y007225D01*
X001512Y007146D02*
X000805Y007146D01*
X000805Y007068D02*
X001591Y007068D01*
X001586Y006832D02*
X000805Y006832D01*
X000805Y006754D02*
X001508Y006754D01*
X001429Y006675D02*
X000805Y006675D01*
X000805Y006597D02*
X001380Y006597D01*
X001380Y006518D02*
X000805Y006518D01*
X000805Y006440D02*
X001380Y006440D01*
X001380Y006361D02*
X000805Y006361D01*
X000805Y006283D02*
X001380Y006283D01*
X001454Y006204D02*
X000805Y006204D01*
X000805Y006126D02*
X001533Y006126D01*
X001420Y006047D02*
X000805Y006047D01*
X000805Y005969D02*
X001341Y005969D01*
X001263Y005890D02*
X000805Y005890D01*
X000805Y005812D02*
X001184Y005812D01*
X001120Y005733D02*
X000805Y005733D01*
X000805Y005655D02*
X001120Y005655D01*
X001120Y005576D02*
X000805Y005576D01*
X000805Y005498D02*
X001120Y005498D01*
X001120Y005419D02*
X000805Y005419D01*
X000805Y005341D02*
X001120Y005341D01*
X001120Y005262D02*
X000805Y005262D01*
X000805Y005184D02*
X001120Y005184D01*
X001120Y005105D02*
X000805Y005105D01*
X000805Y005027D02*
X001120Y005027D01*
X001120Y004948D02*
X000805Y004948D01*
X000805Y004870D02*
X001120Y004870D01*
X001136Y004791D02*
X000805Y004791D01*
X000805Y004713D02*
X001214Y004713D01*
X001284Y004634D02*
X000805Y004634D01*
X000805Y004556D02*
X001206Y004556D01*
X001129Y004477D02*
X000805Y004477D01*
X000805Y004399D02*
X001096Y004399D01*
X001090Y004320D02*
X000805Y004320D01*
X000805Y004242D02*
X001090Y004242D01*
X001090Y004163D02*
X000805Y004163D01*
X000805Y004085D02*
X001090Y004085D01*
X001090Y004006D02*
X000805Y004006D01*
X000805Y003928D02*
X001090Y003928D01*
X001090Y003849D02*
X000805Y003849D01*
X000805Y003771D02*
X001090Y003771D01*
X001090Y003692D02*
X000805Y003692D01*
X000805Y003614D02*
X001090Y003614D01*
X001090Y003535D02*
X000805Y003535D01*
X000805Y003457D02*
X001049Y003457D01*
X000971Y003378D02*
X000805Y003378D01*
X000805Y003300D02*
X000933Y003300D01*
X000933Y003221D02*
X000805Y003221D01*
X000805Y003143D02*
X000933Y003143D01*
X000933Y003064D02*
X000805Y003064D01*
X000805Y002986D02*
X000991Y002986D01*
X001070Y002907D02*
X000805Y002907D01*
X000805Y002829D02*
X001090Y002829D01*
X001090Y002750D02*
X000805Y002750D01*
X000805Y002672D02*
X001090Y002672D01*
X001090Y002593D02*
X000805Y002593D01*
X000805Y002515D02*
X001090Y002515D01*
X001090Y002436D02*
X000805Y002436D01*
X000805Y002358D02*
X001090Y002358D01*
X001090Y002279D02*
X000805Y002279D01*
X000805Y002201D02*
X001090Y002201D01*
X001090Y002122D02*
X000805Y002122D01*
X000805Y002044D02*
X001090Y002044D01*
X001090Y001965D02*
X000805Y001965D01*
X000805Y001887D02*
X001090Y001887D01*
X001090Y001808D02*
X000805Y001808D01*
X000805Y001730D02*
X001090Y001730D01*
X001090Y001651D02*
X000805Y001651D01*
X000805Y001573D02*
X001090Y001573D01*
X001090Y001494D02*
X000805Y001494D01*
X000805Y001416D02*
X001090Y001416D01*
X001090Y001337D02*
X000805Y001337D01*
X000805Y001259D02*
X001090Y001259D01*
X001090Y001180D02*
X000805Y001180D01*
X000805Y001102D02*
X001114Y001102D01*
X001171Y001023D02*
X000805Y001023D01*
X000805Y000945D02*
X001250Y000945D01*
X001328Y000866D02*
X000805Y000866D01*
X000805Y000788D02*
X001407Y000788D01*
X002910Y001452D02*
X002910Y001812D01*
X003030Y001932D01*
X003150Y001932D01*
X002910Y001562D02*
X002910Y001452D01*
X003646Y001732D02*
X003850Y001732D01*
X003950Y001692D01*
X006030Y002372D02*
X006274Y002108D01*
X006274Y001934D01*
X006365Y005335D02*
X006658Y005335D01*
X006680Y005392D01*
X002150Y006754D02*
X002092Y006754D01*
X002150Y006832D02*
X002014Y006832D01*
X002009Y007068D02*
X002150Y007068D01*
X002150Y007146D02*
X002088Y007146D01*
X002150Y006989D02*
X000805Y006989D01*
X000805Y006911D02*
X002150Y006911D01*
X002150Y007774D02*
X002072Y007774D01*
X001993Y007853D02*
X002150Y007853D01*
X001279Y007853D02*
X001221Y007853D01*
X001221Y007774D02*
X001279Y007774D01*
X001279Y007696D02*
X001221Y007696D01*
X000959Y007696D02*
X000805Y007696D01*
X000805Y007774D02*
X000933Y007774D01*
X000933Y007853D02*
X000805Y007853D01*
X001536Y016880D02*
X001765Y016880D01*
X001686Y016959D02*
X001567Y016959D01*
X001567Y017037D02*
X001608Y017037D01*
X001542Y017116D02*
X001279Y017116D01*
X000805Y017901D02*
X001884Y017901D01*
X001806Y017979D02*
X000805Y017979D01*
X001021Y019706D02*
X001079Y019706D01*
X001079Y019785D02*
X001021Y019785D01*
X001021Y019863D02*
X001079Y019863D01*
X001079Y019942D02*
X001021Y019942D01*
X001275Y019706D02*
X001460Y019706D01*
X001539Y019785D02*
X001358Y019785D01*
X001367Y019863D02*
X001482Y019863D01*
X001403Y019942D02*
X001367Y019942D01*
X004044Y017204D02*
X003870Y017030D01*
X003870Y016932D01*
X004614Y017024D02*
X004770Y016868D01*
X004770Y016692D01*
X004986Y017592D02*
X004984Y017594D01*
X004986Y017592D02*
X005250Y017592D01*
X005430Y017772D01*
X005730Y018142D02*
X005920Y017952D01*
X005915Y017957D01*
X005920Y017952D02*
X005921Y017951D01*
X005921Y017498D01*
X006230Y017503D02*
X006236Y017498D01*
X006230Y017503D02*
X006230Y017952D01*
X006240Y017962D01*
X006240Y018042D01*
X005910Y018372D01*
X005910Y019069D01*
X006215Y019374D01*
X006476Y019635D01*
X006476Y019966D01*
X006776Y019966D02*
X006776Y019598D01*
X006750Y019572D01*
X007101Y019254D02*
X006922Y019075D01*
X006570Y018722D01*
X006570Y018372D01*
X006870Y018072D01*
X006870Y017952D01*
X006865Y017957D01*
X006870Y017952D02*
X006866Y017948D01*
X006866Y017498D01*
X006551Y017498D02*
X006551Y017951D01*
X006550Y017952D01*
X006551Y017953D01*
X006270Y018552D02*
X006270Y018808D01*
X006215Y018863D01*
X005850Y019272D02*
X005670Y019092D01*
X005670Y018552D01*
X005730Y018492D01*
X005730Y018142D01*
X005850Y019272D02*
X005850Y019665D01*
X006151Y019966D01*
X007290Y018931D02*
X006922Y018563D01*
X007101Y019254D02*
X007101Y019966D01*
X007290Y019152D02*
X007290Y018931D01*
X006866Y016789D02*
X006866Y016508D01*
X006510Y016152D01*
X006210Y016152D02*
X006551Y016493D01*
X006551Y016789D01*
X006236Y016789D02*
X006236Y016478D01*
X005910Y016152D01*
X005610Y016152D02*
X005921Y016463D01*
X005921Y016789D01*
D35*
X005910Y016152D03*
X005610Y016152D03*
X005850Y015492D03*
X006210Y016152D03*
X006510Y016152D03*
X006550Y017952D03*
X006270Y018552D03*
X005920Y017952D03*
X005430Y017772D03*
X005370Y017412D03*
X005490Y018312D03*
X005010Y018252D03*
X004770Y016692D03*
X004410Y016572D03*
X003870Y016932D03*
X003630Y017592D03*
X003630Y017892D03*
X002850Y015972D03*
X002670Y016332D03*
X003150Y015732D03*
X003750Y015492D03*
X004410Y014892D03*
X004710Y014892D03*
X005010Y014892D03*
X005330Y014892D03*
X005103Y012332D03*
X004788Y012332D03*
X004473Y012332D03*
X004079Y012647D03*
X003685Y012363D03*
X003370Y012363D03*
X002730Y013332D03*
X002250Y012972D03*
X001470Y014892D03*
X001470Y015972D03*
X002490Y020532D03*
X005770Y012332D03*
X006210Y012332D03*
X005790Y011052D03*
X005399Y010852D03*
X006284Y010631D03*
X006813Y010792D03*
X006993Y006300D03*
X006680Y005392D03*
X006450Y004392D03*
X006090Y004392D03*
X005670Y004392D03*
X005370Y004692D03*
X005350Y004972D03*
X005103Y004599D03*
X004890Y004412D03*
X005310Y004392D03*
X005110Y005612D03*
X004950Y005832D03*
X004390Y004512D03*
X004050Y004312D03*
X003750Y004452D03*
X003690Y004752D03*
X003950Y001692D03*
X003450Y001182D03*
X002910Y001452D03*
X006030Y002372D03*
X007290Y019152D03*
X006750Y019572D03*
D36*
X005490Y018312D02*
X005430Y018312D01*
X005190Y018552D01*
X004856Y018552D01*
X004776Y018632D01*
X002130Y009972D02*
X001530Y009972D01*
X001310Y009752D01*
X001250Y009668D01*
X001250Y009156D02*
X001250Y008428D01*
X002010Y006912D02*
X002250Y006672D01*
X002610Y008316D02*
X002490Y008436D01*
X002490Y008952D01*
X002310Y009132D01*
X002310Y009792D01*
X002130Y009972D01*
X002640Y004913D02*
X002642Y004910D01*
X003157Y004910D01*
X003157Y004865D01*
X003510Y001992D02*
X004306Y001992D01*
X004500Y002046D01*
X004500Y001298D02*
X004936Y001298D01*
X005250Y001612D01*
X004500Y001298D02*
X003956Y001298D01*
X003750Y001092D01*
X003450Y001182D02*
X003449Y001183D01*
X003150Y001932D02*
X002554Y001932D01*
X002530Y001908D01*
X002506Y001932D01*
X002310Y001932D01*
X002190Y001812D01*
X002190Y001092D01*
X002010Y000912D01*
X001650Y000912D01*
X001350Y001212D01*
X001350Y003132D01*
X001290Y003192D01*
X001350Y003252D01*
X001350Y004332D01*
X001470Y004452D01*
X001800Y004452D01*
X000990Y003012D02*
X000930Y002952D01*
X000970Y002772D01*
X002647Y001010D02*
X002550Y000912D01*
X002647Y001010D02*
X002871Y001010D01*
X008190Y002952D02*
X008370Y002772D01*
X008370Y002128D01*
X008370Y001616D02*
X008370Y001032D01*
X008190Y002952D02*
X008190Y003012D01*
X008490Y003312D01*
X008490Y005652D01*
X008250Y005892D01*
D37*
X008250Y005892D03*
X008190Y002952D03*
X008370Y001032D03*
X006690Y003612D03*
X006090Y003072D03*
X006490Y002492D03*
X005670Y000912D03*
X005250Y001612D03*
X003870Y002952D03*
X003210Y003012D03*
X002490Y002992D03*
X002550Y000912D03*
X001290Y003192D03*
X000970Y002772D03*
X003570Y005712D03*
X003690Y018432D03*
D38*
X003632Y017594D02*
X003630Y017592D01*
X003632Y017594D02*
X004044Y017594D01*
X004414Y017024D02*
X004414Y016576D01*
X004410Y016572D01*
X004984Y017394D02*
X005352Y017394D01*
X005370Y017412D01*
X004984Y017984D02*
X004984Y018286D01*
X005010Y018252D01*
X004674Y018530D02*
X004776Y018632D01*
X004614Y018470D01*
X004614Y018164D01*
X005850Y015492D02*
X005733Y015375D01*
X005733Y013966D01*
X005733Y011706D02*
X005733Y011115D01*
X005790Y011052D01*
X005418Y010871D02*
X005418Y011706D01*
X004000Y011706D02*
X004000Y012122D01*
X003930Y012192D01*
X003930Y012436D01*
X003843Y012523D01*
X003843Y012836D01*
X003986Y012979D01*
X004000Y012979D01*
X004000Y013966D01*
X004000Y014882D01*
X003056Y013966D02*
X003056Y013538D01*
X002730Y013332D01*
X002898Y013524D01*
X002898Y013966D01*
X002010Y005832D02*
X001530Y005832D01*
X001350Y005652D01*
X001350Y004902D01*
X001800Y004452D01*
X002190Y005172D02*
X002970Y005172D01*
X003157Y005360D01*
X003157Y005422D01*
X003090Y005490D01*
X003827Y005335D02*
X004057Y005335D01*
X004754Y005335D02*
X004993Y005335D01*
X005110Y005452D01*
X005110Y005612D01*
X005210Y005832D02*
X005387Y005635D01*
X005387Y005335D02*
X005668Y005335D01*
X006810Y002352D02*
X006589Y002131D01*
X006589Y001934D01*
X006432Y001009D02*
X006432Y000834D01*
X006390Y000772D01*
X005790Y000772D01*
X005670Y000912D01*
X002190Y005172D02*
X002190Y005652D01*
X002010Y005832D01*
D39*
X002430Y003852D02*
X003090Y003852D01*
X003201Y003741D01*
D40*
X004709Y006694D03*
X004394Y007009D03*
X004394Y007324D03*
X004709Y007954D03*
X004709Y008269D03*
X004394Y008269D03*
X004394Y008899D03*
X004394Y009529D03*
X004394Y010158D03*
X004709Y010158D03*
X005024Y010158D03*
X005024Y009843D03*
X005339Y010158D03*
X005654Y009214D03*
X005339Y008584D03*
X005339Y007639D03*
X005339Y007324D03*
X005339Y007009D03*
X005969Y008269D03*
X006284Y008269D03*
X006284Y008899D03*
X006284Y009214D03*
X006284Y009529D03*
X006284Y010158D03*
X006599Y010158D03*
X006599Y009529D03*
X006599Y009214D03*
X005969Y010158D03*
X004079Y010158D03*
X004079Y009529D03*
X004079Y009214D03*
X003764Y009529D03*
X003764Y010158D03*
X003449Y010158D03*
X003449Y009843D03*
X003134Y010158D03*
X002819Y009529D03*
X002819Y009214D03*
X002819Y008584D03*
X003134Y008584D03*
X003449Y007324D03*
X003764Y007954D03*
X003764Y008269D03*
X003764Y008584D03*
X004079Y008584D03*
X004079Y007954D03*
X004079Y007639D03*
D41*
X002741Y006300D03*
X002610Y007317D03*
X002610Y007836D03*
X002610Y008316D03*
X003930Y014952D03*
D42*
X004158Y015084D02*
X004050Y015192D01*
X003510Y015192D01*
X003210Y015492D01*
X002910Y015492D01*
X002430Y015972D01*
X002430Y017952D01*
X002310Y018072D01*
X002310Y018732D01*
X001800Y019242D01*
X001800Y019452D01*
X001590Y020052D02*
X002010Y020052D01*
X002490Y020532D01*
X003260Y019502D02*
X002910Y019152D01*
X002910Y018552D01*
X002850Y018492D01*
X002686Y018492D01*
X002610Y018416D01*
X002610Y016392D01*
X002670Y016332D01*
X003030Y016152D02*
X002850Y015972D01*
X003030Y016152D02*
X003030Y018552D01*
X003750Y019272D01*
X003750Y019882D01*
X004270Y020402D01*
X004270Y019402D02*
X004080Y019212D01*
X003870Y019212D01*
X003150Y018492D01*
X003150Y015732D01*
X003270Y015972D02*
X003750Y015492D01*
X003210Y015312D02*
X003843Y014679D01*
X003843Y013966D01*
X003685Y013966D02*
X003685Y014657D01*
X003150Y015192D01*
X002850Y015192D01*
X002190Y015852D01*
X002190Y016752D01*
X001800Y017142D01*
X001800Y017452D01*
X002310Y017772D02*
X001800Y018282D01*
X001800Y018452D01*
X002310Y017772D02*
X002310Y015912D01*
X002910Y015312D01*
X003210Y015312D01*
X003090Y015072D02*
X003528Y014634D01*
X003528Y013966D01*
X003370Y013966D02*
X003370Y014612D01*
X003030Y014952D01*
X002430Y014952D01*
X001930Y015452D01*
X001800Y015452D01*
X001800Y016062D02*
X002790Y015072D01*
X003090Y015072D01*
X003030Y014712D02*
X003213Y014529D01*
X003213Y013966D01*
X003030Y014712D02*
X002190Y014712D01*
X001930Y014452D01*
X001800Y014452D01*
X001988Y013894D02*
X002250Y013632D01*
X002250Y012972D01*
X001988Y013894D02*
X001250Y013894D01*
X001250Y012707D02*
X001290Y012687D01*
X001290Y012132D01*
X001470Y011952D01*
X001950Y011952D01*
X002130Y011772D01*
X002130Y010872D01*
X002370Y010632D01*
X002370Y010272D01*
X002610Y010032D01*
X002610Y009732D01*
X002817Y009525D01*
X002819Y009529D01*
X002819Y009214D02*
X002709Y009214D01*
X002490Y009432D01*
X002490Y009972D01*
X002250Y010212D01*
X002250Y010572D01*
X001890Y010932D01*
X001342Y010932D01*
X001250Y010964D01*
X002670Y010512D02*
X002670Y010152D01*
X002821Y010001D01*
X002977Y010001D01*
X002670Y010512D02*
X003056Y010898D01*
X003056Y011706D01*
X003213Y011706D02*
X003213Y010710D01*
X003292Y010631D01*
X003292Y010316D01*
X003449Y010158D02*
X003292Y010001D01*
X003607Y010001D02*
X003764Y010158D01*
X003922Y010001D02*
X004079Y010158D01*
X004237Y010001D02*
X004394Y010158D01*
X004552Y010001D02*
X004709Y010158D01*
X004867Y010001D02*
X005024Y010158D01*
X004867Y010316D02*
X004867Y010631D01*
X004945Y010710D01*
X004945Y011706D01*
X004788Y011706D02*
X004788Y012332D01*
X004770Y012672D02*
X004590Y012852D01*
X004530Y012912D01*
X004473Y012969D01*
X004473Y013966D01*
X004315Y013966D02*
X004315Y012887D01*
X004650Y012552D01*
X006630Y012552D01*
X006870Y012312D01*
X007050Y012312D01*
X007410Y011952D01*
X007410Y011232D01*
X007800Y010842D01*
X007800Y010452D01*
X007470Y010872D02*
X007470Y009852D01*
X007410Y009792D01*
X007410Y009789D01*
X006993Y009371D01*
X006756Y009371D01*
X006756Y009686D02*
X006993Y009686D01*
X007350Y010043D01*
X007350Y010812D01*
X006993Y011170D01*
X006993Y011706D01*
X006835Y011706D02*
X006835Y011147D01*
X007230Y010752D01*
X007230Y010238D01*
X006993Y010001D01*
X006756Y010001D01*
X006599Y010158D02*
X006441Y010001D01*
X006284Y010158D02*
X006126Y010001D01*
X006126Y010316D02*
X006126Y010476D01*
X006090Y010512D01*
X006090Y010812D01*
X006205Y010927D01*
X006205Y011706D01*
X006048Y011706D02*
X006048Y012104D01*
X005820Y012332D01*
X005770Y012332D01*
X005890Y011706D02*
X005890Y011312D01*
X006030Y011172D01*
X006030Y010932D01*
X005970Y010872D01*
X005970Y010789D01*
X005811Y010631D01*
X005811Y010316D01*
X005969Y010158D02*
X005811Y010001D01*
X006126Y009686D02*
X006284Y009529D01*
X006441Y009686D02*
X006599Y009529D01*
X006441Y009371D02*
X006599Y009214D01*
X006284Y009214D02*
X006126Y009371D01*
X006441Y010316D02*
X006441Y010503D01*
X006520Y010582D01*
X006520Y011706D01*
X006363Y011706D02*
X006363Y010710D01*
X006284Y010631D01*
X006284Y010710D01*
X006678Y011706D02*
X006678Y012072D01*
X006418Y012332D01*
X006210Y012332D01*
X006690Y012672D02*
X004770Y012672D01*
X004830Y012792D02*
X004630Y012992D01*
X004630Y013966D01*
X004788Y013966D02*
X004788Y013074D01*
X004950Y012912D01*
X006810Y012912D01*
X007050Y012672D01*
X007350Y012672D01*
X007570Y012452D01*
X007800Y012452D01*
X007830Y011892D02*
X007170Y012552D01*
X006990Y012552D01*
X006750Y012792D01*
X004830Y012792D01*
X005070Y013032D02*
X004945Y013157D01*
X004945Y013966D01*
X005103Y013966D02*
X005103Y013239D01*
X005190Y013152D01*
X006930Y013152D01*
X007170Y012912D01*
X008130Y012912D01*
X008430Y012612D01*
X008430Y007632D01*
X008250Y007452D01*
X007800Y007452D01*
X008550Y007392D02*
X007800Y006642D01*
X007800Y006452D01*
X008250Y006312D02*
X007770Y005832D01*
X007650Y005832D01*
X007470Y005652D01*
X007470Y005112D01*
X007710Y004872D01*
X007710Y004542D01*
X007800Y004452D01*
X008130Y004632D02*
X007830Y004932D01*
X007830Y005422D01*
X007800Y005452D01*
X007350Y005052D02*
X007470Y004932D01*
X007470Y003792D01*
X007230Y003552D01*
X007230Y001932D01*
X007110Y001812D01*
X007110Y001632D01*
X007028Y001550D01*
X006816Y001550D01*
X006816Y001393D02*
X007171Y001393D01*
X007230Y001452D01*
X007230Y001752D01*
X007350Y001872D01*
X007350Y003492D01*
X007650Y003792D01*
X007890Y003792D01*
X008130Y004032D01*
X008130Y004632D01*
X007800Y003452D02*
X007470Y003122D01*
X007470Y001812D01*
X007350Y001692D01*
X007350Y001392D01*
X007193Y001235D01*
X006816Y001235D01*
X006747Y001029D02*
X007287Y001029D01*
X007470Y001212D01*
X007470Y001632D01*
X007770Y001932D01*
X007770Y002422D01*
X007800Y002452D01*
X007800Y001452D02*
X007800Y000942D01*
X007590Y000732D01*
X006690Y000732D01*
X006589Y000833D01*
X006589Y001009D01*
X006747Y001009D02*
X006747Y001029D01*
X006816Y001708D02*
X006946Y001708D01*
X006990Y001752D01*
X006990Y001872D01*
X007110Y001992D01*
X007110Y003612D01*
X007350Y003852D01*
X007350Y004872D01*
X007230Y004992D01*
X007230Y006552D01*
X007170Y006612D01*
X007050Y006732D01*
X006931Y006851D01*
X006756Y006851D01*
X006756Y007166D02*
X006976Y007166D01*
X007350Y006792D01*
X007350Y005052D01*
X007230Y004812D02*
X007110Y004932D01*
X007110Y005892D01*
X006681Y006321D01*
X006441Y006321D01*
X006441Y006536D01*
X006630Y006192D02*
X006234Y006192D01*
X006126Y006300D01*
X006126Y006536D01*
X005811Y006291D02*
X006030Y006072D01*
X006570Y006072D01*
X006870Y005772D01*
X006870Y004512D01*
X006210Y003852D01*
X006210Y003372D01*
X006390Y003192D01*
X006390Y002952D01*
X006210Y002772D01*
X004230Y002772D01*
X004145Y002858D01*
X004145Y003439D01*
X004513Y004004D02*
X004513Y004229D01*
X004410Y004312D01*
X004050Y004312D01*
X003870Y004452D02*
X004050Y004632D01*
X004050Y004856D01*
X004057Y004863D01*
X004057Y005020D02*
X003810Y005020D01*
X003690Y004900D01*
X003690Y004752D01*
X003450Y004632D02*
X003630Y004452D01*
X003545Y004452D01*
X003201Y004108D01*
X003201Y004143D01*
X003201Y004108D02*
X002686Y004108D01*
X002130Y004692D02*
X002130Y002892D01*
X002370Y002652D01*
X005190Y002652D01*
X005970Y001872D01*
X005970Y001572D01*
X005992Y001550D01*
X006206Y001550D01*
X006206Y001393D02*
X005969Y001393D01*
X005850Y001512D01*
X005850Y001812D01*
X005130Y002532D01*
X002250Y002532D01*
X001800Y002982D01*
X001800Y003452D01*
X001800Y002452D02*
X001970Y002452D01*
X002010Y002412D01*
X005070Y002412D01*
X005730Y001752D01*
X005730Y001452D01*
X005910Y001272D01*
X006030Y001272D01*
X006067Y001235D01*
X006206Y001235D01*
X006274Y001009D02*
X006113Y001009D01*
X005970Y001152D01*
X005850Y001152D01*
X005610Y001392D01*
X005610Y001692D01*
X005010Y002292D01*
X002310Y002292D01*
X001800Y001782D01*
X001800Y001452D01*
X002130Y004692D02*
X001800Y005022D01*
X001800Y005452D01*
X002977Y008426D02*
X002819Y008584D01*
X003134Y008584D02*
X003292Y008426D01*
X003764Y009529D02*
X003922Y009686D01*
X004079Y009529D02*
X004237Y009686D01*
X004237Y010316D02*
X004237Y010631D01*
X004315Y010710D01*
X004315Y011706D01*
X004473Y011706D02*
X004473Y012332D01*
X004473Y012284D01*
X004158Y012568D02*
X004158Y011706D01*
X003843Y011706D02*
X003843Y010710D01*
X003922Y010631D01*
X003922Y010316D01*
X003607Y010316D02*
X003607Y010631D01*
X003528Y010710D01*
X003528Y011706D01*
X003370Y011706D02*
X003370Y012363D01*
X003370Y012284D01*
X003685Y012284D02*
X003685Y012363D01*
X003685Y011706D01*
X004158Y012568D02*
X004079Y012647D01*
X004630Y011706D02*
X004630Y010710D01*
X004552Y010631D01*
X004552Y010316D01*
X004394Y008899D02*
X004552Y008741D01*
X004552Y008426D02*
X004394Y008269D01*
X004079Y008584D02*
X004237Y008741D01*
X005181Y008111D02*
X005496Y008426D01*
X005496Y006536D02*
X005496Y006300D01*
X005604Y006192D01*
X005730Y006192D01*
X005970Y005952D01*
X006210Y005952D01*
X006365Y005797D01*
X006365Y005493D01*
X006365Y005557D01*
X006365Y005178D02*
X006370Y005172D01*
X006630Y005172D01*
X006690Y005112D01*
X006690Y004572D01*
X006510Y004392D01*
X006450Y004392D01*
X006450Y004272D01*
X005865Y003687D01*
X005865Y003636D01*
X005942Y004004D02*
X006090Y004152D01*
X006090Y004392D01*
X006365Y004667D01*
X006365Y004863D01*
X006365Y005020D02*
X006122Y005020D01*
X006115Y005027D01*
X005970Y005172D01*
X005674Y005172D01*
X005250Y005172D01*
X005130Y005052D01*
X005130Y004872D01*
X005310Y004692D01*
X005370Y004692D01*
X005610Y004692D01*
X005670Y004752D01*
X005670Y004861D01*
X005668Y004863D01*
X005668Y005020D02*
X005362Y005020D01*
X005350Y004972D01*
X005103Y004699D02*
X005103Y004599D01*
X005110Y004592D01*
X005103Y004599D02*
X005103Y004004D01*
X004906Y004004D02*
X004906Y004376D01*
X004890Y004412D01*
X004890Y004727D01*
X004754Y004863D01*
X004754Y005020D02*
X004502Y005020D01*
X004504Y005018D01*
X004504Y004829D01*
X004502Y005020D02*
X004350Y005172D01*
X004063Y005172D01*
X003570Y005172D01*
X003450Y005052D01*
X003450Y004632D01*
X003630Y004452D02*
X003750Y004452D01*
X003870Y004452D01*
X004063Y005172D02*
X004057Y005178D01*
X004057Y005493D02*
X004057Y005645D01*
X003570Y006132D01*
X003460Y006132D01*
X003292Y006300D01*
X003292Y006536D01*
X003607Y006536D02*
X003607Y006300D01*
X004307Y005600D01*
X004307Y005526D01*
X004504Y005526D02*
X004504Y005718D01*
X003922Y006300D01*
X003922Y006536D01*
X004237Y006536D02*
X004237Y006300D01*
X004754Y005783D01*
X004754Y005493D01*
X004754Y005178D02*
X004944Y005178D01*
X004990Y005112D01*
X004990Y004812D01*
X005103Y004699D01*
X005310Y004392D02*
X005300Y004382D01*
X005300Y004004D01*
X005497Y004004D02*
X005497Y004279D01*
X005550Y004332D01*
X005610Y004332D01*
X005670Y004392D01*
X005918Y004580D01*
X005918Y004829D01*
X006115Y004829D02*
X006115Y005027D01*
X006115Y005526D02*
X006115Y005747D01*
X006030Y005832D01*
X005910Y005832D01*
X005670Y006072D01*
X005550Y006072D01*
X005370Y006252D01*
X005230Y006252D01*
X005181Y006300D01*
X005181Y006536D01*
X005070Y006192D02*
X004975Y006192D01*
X004867Y006300D01*
X004867Y006536D01*
X004552Y006300D02*
X004780Y006072D01*
X005010Y006072D01*
X005070Y006012D01*
X005250Y006012D01*
X005430Y005832D01*
X005550Y005832D01*
X005668Y005714D01*
X005668Y005493D01*
X005668Y005178D02*
X005674Y005172D01*
X005918Y005526D02*
X005918Y005644D01*
X005610Y005952D01*
X005490Y005952D01*
X005310Y006132D01*
X005130Y006132D01*
X005070Y006192D01*
X004552Y006300D02*
X004552Y006536D01*
X004307Y004829D02*
X004307Y004675D01*
X004390Y004592D01*
X004390Y004512D01*
X004650Y004312D01*
X004650Y004272D01*
X004710Y004213D01*
X004710Y004004D01*
X005694Y004004D02*
X005942Y004004D01*
X006330Y003792D02*
X006330Y003432D01*
X006510Y003252D01*
X006510Y002892D01*
X006270Y002652D01*
X005790Y002652D01*
X005670Y002532D01*
X005670Y002352D01*
X006090Y001932D01*
X006090Y001812D01*
X006194Y001708D01*
X006225Y001708D01*
X006747Y001934D02*
X006747Y002049D01*
X006990Y002292D01*
X006990Y003672D01*
X007230Y003912D01*
X007230Y004812D01*
X006990Y004452D02*
X006330Y003792D01*
X006990Y004452D02*
X006990Y005832D01*
X006630Y006192D01*
X005811Y006291D02*
X005811Y006536D01*
X005496Y010316D02*
X005496Y010631D01*
X005610Y010744D01*
X005610Y010932D01*
X005575Y010967D01*
X005575Y011706D01*
X005260Y011706D02*
X005260Y011182D01*
X005181Y011104D01*
X005181Y010316D01*
X005103Y011706D02*
X005103Y012332D01*
X005070Y013032D02*
X006870Y013032D01*
X007110Y012792D01*
X008070Y012792D01*
X008310Y012552D01*
X008310Y008832D01*
X007930Y008452D01*
X007800Y008452D01*
X007800Y009452D02*
X007800Y009522D01*
X008190Y009912D01*
X008190Y011592D01*
X007890Y011892D01*
X007830Y011892D01*
X007800Y011742D02*
X007110Y012432D01*
X006930Y012432D01*
X006690Y012672D01*
X007230Y013032D02*
X006990Y013272D01*
X005370Y013272D01*
X005260Y013382D01*
X005260Y013966D01*
X005418Y013966D02*
X005418Y013464D01*
X005490Y013392D01*
X007410Y013392D01*
X007470Y013452D01*
X007800Y013452D01*
X007650Y013812D02*
X007350Y013512D01*
X005610Y013512D01*
X005575Y013547D01*
X005575Y013966D01*
X005890Y013966D02*
X005890Y015232D01*
X007230Y016572D01*
X007230Y017772D01*
X007290Y017832D01*
X007290Y018732D01*
X007530Y018972D01*
X007530Y019212D01*
X007470Y019272D01*
X007470Y020052D01*
X007800Y020382D01*
X007800Y020452D01*
X007800Y019452D02*
X007800Y019062D01*
X007410Y018672D01*
X007410Y017772D01*
X007350Y017712D01*
X007350Y016392D01*
X006048Y015090D01*
X006048Y013966D01*
X006205Y013966D02*
X006205Y015007D01*
X007470Y016272D01*
X007470Y017652D01*
X007800Y017982D01*
X007800Y018452D01*
X007800Y016452D02*
X007800Y016362D01*
X006363Y014925D01*
X006363Y013966D01*
X006520Y013966D02*
X006520Y014782D01*
X007696Y015958D01*
X008510Y015958D01*
X008510Y014958D02*
X007296Y014958D01*
X006835Y014497D01*
X006835Y013966D01*
X006993Y013966D02*
X006993Y014410D01*
X006990Y014412D01*
X007030Y014452D01*
X007800Y014452D01*
X007950Y013812D02*
X007650Y013812D01*
X007950Y013812D02*
X008250Y013512D01*
X008250Y013152D01*
X008670Y012732D01*
X008670Y007272D01*
X008250Y006852D01*
X008250Y006312D01*
X008550Y007392D02*
X008550Y012672D01*
X008190Y013032D01*
X007230Y013032D01*
X007158Y013958D02*
X007150Y013966D01*
X007158Y013958D02*
X008510Y013958D01*
X007800Y015452D02*
X007550Y015452D01*
X006678Y014580D01*
X006678Y013966D01*
X007150Y011706D02*
X007170Y011686D01*
X007170Y011172D01*
X007470Y010872D01*
X007800Y011452D02*
X007800Y011742D01*
X005330Y014892D02*
X005330Y014992D01*
X005190Y015132D01*
X005190Y016812D01*
X005670Y017292D01*
X005670Y017952D01*
X005550Y018072D01*
X005430Y018072D01*
X005152Y017794D01*
X004984Y017794D01*
X004984Y017204D02*
X005010Y017178D01*
X005010Y014892D01*
X004710Y014892D02*
X004710Y015912D01*
X003930Y016692D01*
X003750Y016692D01*
X003570Y016872D01*
X003570Y017232D01*
X003732Y017394D01*
X004044Y017394D01*
X004044Y017794D02*
X003728Y017794D01*
X003630Y017892D01*
X003750Y018132D02*
X003450Y018132D01*
X003390Y018072D01*
X003390Y016752D01*
X003630Y016512D01*
X003870Y016512D01*
X004410Y015972D01*
X004410Y014892D01*
X004158Y015084D02*
X004158Y013966D01*
X003270Y015972D02*
X003270Y018432D01*
X003870Y019032D01*
X003990Y018912D01*
X004590Y018912D01*
X004770Y019092D01*
X004770Y020002D01*
X005270Y020502D01*
X004044Y017984D02*
X003898Y017984D01*
X003750Y018132D01*
X003270Y019502D02*
X003260Y019502D01*
X001800Y016452D02*
X001800Y016062D01*
X001590Y020052D02*
X001154Y020488D01*
X001050Y020488D01*
D43*
X006490Y002492D02*
X006432Y002454D01*
X006432Y001934D01*
D44*
X003449Y001931D02*
X003449Y001738D01*
M02*
