%
M48
M72
T01C0.0079
T02C0.0100
T03C0.0197
T04C0.0236
T05C0.0276
T06C0.0320
T07C0.0354
T08C0.0400
%
T01
X2190Y3432
X1830Y4212
X3450Y5052
X3690Y5052
X3990Y5052
X4290Y5052
X4590Y5052
X4830Y5412
X4890Y5052
X5070Y4332
X5670Y4332
X6390Y4452
X6750Y4332
X6990Y4452
X7230Y4632
X6405Y6552
X6090Y6612
X5780Y6552
X6686Y6672
X6870Y7812
X6914Y8194
X6914Y8509
X6599Y8509
X6284Y8509
X5969Y8509
X5654Y8509
X5339Y9139
X5339Y9454
X5024Y10083
X4709Y10398
X4394Y10713
X4394Y11028
X4079Y11028
X4079Y11343
X3764Y11658
X3764Y11973
X3449Y11973
X3134Y11973
X2819Y11973
X3449Y11343
X2680Y11186
X2819Y10398
X3134Y10083
X3449Y10398
X3764Y10398
X4079Y10398
X3764Y9769
X3764Y9454
X3449Y9454
X4079Y9454
X4394Y9769
X4394Y8824
X4394Y8509
X4079Y8509
X3764Y8509
X3134Y8509
X2819Y8509
X2490Y9506
X2430Y7252
X2230Y7092
X2370Y6732
X3610Y6132
X3530Y5712
X4250Y6012
X3770Y6792
X5024Y8509
X4709Y8824
X5969Y9769
X6284Y10083
X5969Y10398
X5969Y10713
X6284Y11028
X6599Y11028
X6599Y11343
X6284Y11343
X6284Y11973
X6599Y11973
X6680Y12442
X6276Y12719
X5969Y11973
X5654Y11973
X5654Y11658
X5654Y11028
X5024Y11343
X4709Y11343
X5024Y11658
X5024Y11973
X4709Y11973
X4394Y11973
X4079Y11973
X4079Y12918
X3990Y14092
X3685Y14092
X3370Y14092
X3056Y14092
X3750Y14712
X4473Y14092
X4788Y14092
X5103Y14092
X5730Y14092
X6048Y14092
X6363Y14092
X6655Y14092
X5910Y15312
X5640Y15192
X5370Y15192
X5100Y15182
X4940Y16292
X4650Y16292
X3930Y16472
X3610Y16472
X2898Y17328
X4710Y18432
X4950Y18192
X5190Y18372
X5670Y18972
X5770Y18732
X5850Y19452
X6570Y19032
X6870Y19032
X7350Y18072
X7350Y17472
X6030Y17592
X5890Y17892
X5490Y17472
X4830Y19212
X4650Y20232
X6570Y20412
X8370Y15732
X8730Y13692
X7710Y10272
X2730Y13032
X2070Y14172
X3450Y1432
T02
X4950Y6372
X3870Y7272
T03
X5010Y7272
X7250Y4992
X6690Y3912
X6690Y3432
X6210Y2832
X6570Y2612
X5730Y2892
X4650Y3492
X3930Y1932
X2430Y4692
X2490Y6312
X1290Y7512
X1290Y10632
X1230Y12312
X2910Y14892
X3990Y14532
X2910Y16672
X3990Y18192
X3450Y18432
X1230Y17952
X1230Y16452
X1310Y15132
X1050Y19812
X6070Y18292
X7170Y20412
T04
X4170Y18792
X2550Y18792
X1550Y9157
X2550Y1132
X8430Y1132
X8430Y2592
T05
X5430Y1152
X5250Y1752
X2850Y2532
T06
X1800Y1692
X1800Y2692
X1800Y3692
X1800Y4692
X1800Y5692
X1800Y6692
X1800Y7692
X1800Y8692
X1800Y9692
X1800Y10692
X1800Y11692
X1800Y12692
X1800Y13692
X1800Y14692
X1800Y15692
X1800Y16692
X1800Y17692
X1800Y18692
X1800Y19692
X1800Y20692
X7800Y20692
X7800Y19692
X7800Y18692
X7800Y17692
X7800Y16692
X7800Y15692
X7800Y14692
X7800Y13692
X7800Y12692
X7800Y11692
X7800Y10692
X7800Y9692
X7800Y8692
X7800Y7692
X7800Y6692
X7800Y5692
X7800Y4692
X7800Y3692
X7800Y2692
X7800Y1692
T07
X8725Y3202
X8725Y4202
X8725Y5202
X8725Y6202
X8725Y7202
X8725Y8202
X8725Y9202
X8725Y10202
X8725Y11202
X8725Y12202
X8725Y13202
X8725Y14202
X8725Y15202
X8725Y16202
X8725Y17202
X8725Y18202
X8725Y19202
X8725Y20202
T08
X4950Y19742
X4950Y20742
X3950Y20642
X3950Y19642
X2950Y19742
X2950Y20742
M30
