G75*
%MOIN*%
%OFA0B0*%
%FSLAX24Y24*%
%IPPOS*%
%LPD*%
%AMOC8*
5,1,8,0,0,1.08239X$1,22.5*
%
%ADD10OC8,0.0480*%
%ADD11R,0.0200X0.0300*%
%ADD12R,0.0197X0.0354*%
%ADD13OC8,0.0531*%
%ADD14C,0.0740*%
%ADD15R,0.0354X0.0197*%
%ADD16R,0.0276X0.0354*%
%ADD17R,0.0354X0.0276*%
%ADD18OC8,0.0200*%
%ADD19OC8,0.0354*%
%ADD20OC8,0.0297*%
%ADD21OC8,0.0179*%
%ADD22OC8,0.0413*%
%ADD23C,0.0120*%
%ADD24C,0.0060*%
%ADD25C,0.0080*%
%ADD26C,0.0240*%
D10*
X001800Y001692D03*
X001800Y002692D03*
X001800Y003692D03*
X001800Y004692D03*
X001800Y005692D03*
X001800Y006692D03*
X001800Y007692D03*
X001800Y008692D03*
X001800Y009692D03*
X001800Y010692D03*
X001800Y011692D03*
X001800Y012692D03*
X001800Y013692D03*
X001800Y014692D03*
X001800Y015692D03*
X001800Y016692D03*
X001800Y017692D03*
X001800Y018692D03*
X001800Y019692D03*
X001800Y020692D03*
X007800Y020692D03*
X007800Y019692D03*
X007800Y018692D03*
X007800Y017692D03*
X007800Y016692D03*
X007800Y015692D03*
X007800Y014692D03*
X007800Y013692D03*
X007800Y012692D03*
X007800Y011692D03*
X007800Y010692D03*
X007800Y009692D03*
X007800Y008692D03*
X007800Y007692D03*
X007800Y006692D03*
X007800Y005692D03*
X007800Y004692D03*
X007800Y003692D03*
X007800Y002692D03*
X007800Y001692D03*
D11*
X004665Y016830D03*
X004340Y016830D03*
X004040Y016830D03*
X003715Y016830D03*
X003715Y017430D03*
X004040Y017430D03*
X004340Y017430D03*
X004665Y017430D03*
D12*
X004383Y016118D03*
X004068Y016118D03*
X003753Y016118D03*
X003438Y016118D03*
X003438Y015409D03*
X003753Y015409D03*
X004068Y015409D03*
X004383Y015409D03*
D13*
X008725Y015202D03*
X008725Y014202D03*
X008725Y013202D03*
X008725Y012202D03*
X008725Y011202D03*
X008725Y010202D03*
X008725Y009202D03*
X008725Y008202D03*
X008725Y007202D03*
X008725Y006202D03*
X008725Y005202D03*
X008725Y004202D03*
X008725Y003202D03*
X008725Y016202D03*
X008725Y017202D03*
X008725Y018202D03*
X008725Y019202D03*
X008725Y020202D03*
D14*
X004950Y019742D03*
X004950Y020742D03*
X003950Y020642D03*
X003950Y019642D03*
X002950Y019742D03*
X002950Y020742D03*
D15*
X006316Y016745D03*
X006316Y016430D03*
X006316Y016115D03*
X006316Y015800D03*
X007024Y015800D03*
X007024Y016115D03*
X007024Y016430D03*
X007024Y016745D03*
D16*
X005686Y016592D03*
X005686Y017132D03*
X005174Y017132D03*
X005174Y016592D03*
X005054Y015852D03*
X005566Y015852D03*
D17*
X006630Y017576D03*
X006630Y018088D03*
D18*
X003870Y007272D03*
X004950Y006372D03*
D19*
X001550Y009157D03*
X002550Y001132D03*
X008430Y001132D03*
X008430Y002592D03*
X004170Y018792D03*
X002550Y018792D03*
D20*
X003450Y018432D03*
X003990Y018192D03*
X002910Y016672D03*
X002910Y014892D03*
X003990Y014532D03*
X001310Y015132D03*
X001230Y016452D03*
X001230Y017952D03*
X001050Y019812D03*
X006070Y018292D03*
X007170Y020412D03*
X001230Y012312D03*
X001290Y010632D03*
X001290Y007512D03*
X002490Y006312D03*
X002430Y004692D03*
X004650Y003492D03*
X005730Y002892D03*
X006210Y002832D03*
X006570Y002612D03*
X006690Y003432D03*
X006690Y003912D03*
X007250Y004992D03*
X005010Y007272D03*
X003930Y001932D03*
D21*
X003450Y001432D03*
X002190Y003432D03*
X001830Y004212D03*
X003450Y005052D03*
X003690Y005052D03*
X003990Y005052D03*
X004290Y005052D03*
X004590Y005052D03*
X004830Y005412D03*
X004890Y005052D03*
X005070Y004332D03*
X005670Y004332D03*
X006390Y004452D03*
X006750Y004332D03*
X006990Y004452D03*
X007230Y004632D03*
X006405Y006552D03*
X006090Y006612D03*
X005780Y006552D03*
X006686Y006672D03*
X006870Y007812D03*
X006914Y008194D03*
X006914Y008509D03*
X006599Y008509D03*
X006284Y008509D03*
X005969Y008509D03*
X005654Y008509D03*
X005339Y009139D03*
X005339Y009454D03*
X005024Y010083D03*
X004709Y010398D03*
X004394Y010713D03*
X004394Y011028D03*
X004079Y011028D03*
X004079Y011343D03*
X003764Y011658D03*
X003764Y011973D03*
X003449Y011973D03*
X003134Y011973D03*
X002819Y011973D03*
X003449Y011343D03*
X002680Y011186D03*
X002819Y010398D03*
X003134Y010083D03*
X003449Y010398D03*
X003764Y010398D03*
X004079Y010398D03*
X003764Y009769D03*
X003764Y009454D03*
X003449Y009454D03*
X004079Y009454D03*
X004394Y009769D03*
X004394Y008824D03*
X004394Y008509D03*
X004079Y008509D03*
X003764Y008509D03*
X003134Y008509D03*
X002819Y008509D03*
X002490Y009506D03*
X002430Y007252D03*
X002230Y007092D03*
X002370Y006732D03*
X003610Y006132D03*
X003530Y005712D03*
X004250Y006012D03*
X003770Y006792D03*
X005024Y008509D03*
X004709Y008824D03*
X005969Y009769D03*
X006284Y010083D03*
X005969Y010398D03*
X005969Y010713D03*
X006284Y011028D03*
X006599Y011028D03*
X006599Y011343D03*
X006284Y011343D03*
X006284Y011973D03*
X006599Y011973D03*
X006680Y012442D03*
X006276Y012719D03*
X005969Y011973D03*
X005654Y011973D03*
X005654Y011658D03*
X005654Y011028D03*
X005024Y011343D03*
X004709Y011343D03*
X005024Y011658D03*
X005024Y011973D03*
X004709Y011973D03*
X004394Y011973D03*
X004079Y011973D03*
X004079Y012918D03*
X003990Y014092D03*
X003685Y014092D03*
X003370Y014092D03*
X003056Y014092D03*
X003750Y014712D03*
X004473Y014092D03*
X004788Y014092D03*
X005103Y014092D03*
X005730Y014092D03*
X006048Y014092D03*
X006363Y014092D03*
X006655Y014092D03*
X005910Y015312D03*
X005640Y015192D03*
X005370Y015192D03*
X005100Y015182D03*
X004940Y016292D03*
X004650Y016292D03*
X003930Y016472D03*
X003610Y016472D03*
X002898Y017328D03*
X004710Y018432D03*
X004950Y018192D03*
X005190Y018372D03*
X005670Y018972D03*
X005770Y018732D03*
X005850Y019452D03*
X006570Y019032D03*
X006870Y019032D03*
X007350Y018072D03*
X007350Y017472D03*
X006030Y017592D03*
X005890Y017892D03*
X005490Y017472D03*
X004830Y019212D03*
X004650Y020232D03*
X006570Y020412D03*
X008370Y015732D03*
X008730Y013692D03*
X007710Y010272D03*
X002730Y013032D03*
X002070Y014172D03*
D22*
X002850Y002532D03*
X005250Y001752D03*
X005430Y001152D03*
D23*
X004665Y017430D02*
X004340Y017430D01*
X004040Y017430D01*
X003715Y017430D01*
X003450Y018192D02*
X003450Y018432D01*
D24*
X003390Y019212D02*
X002790Y019212D01*
X002670Y019332D01*
X002250Y019332D01*
X002130Y019212D01*
X002130Y018312D01*
X002370Y018072D01*
X002370Y010812D01*
X002469Y010713D01*
X003764Y010713D01*
X004079Y010398D01*
X004079Y010713D02*
X003922Y010871D01*
X002691Y010871D01*
X002490Y011052D01*
X002490Y018252D01*
X002250Y018492D01*
X002250Y019032D01*
X002430Y019212D01*
X002550Y019212D01*
X002670Y019092D01*
X004110Y019092D01*
X004410Y019392D01*
X004410Y020112D01*
X004350Y020172D01*
X004350Y020352D01*
X004530Y020532D01*
X004740Y020532D01*
X004950Y020742D01*
X003950Y020642D02*
X003740Y020642D01*
X003330Y020232D01*
X001590Y020232D01*
X001350Y019992D01*
X001350Y019752D01*
X001290Y019692D01*
X001290Y018312D01*
X001530Y018072D01*
X002010Y018072D01*
X002130Y017952D01*
X002130Y014352D01*
X002070Y014292D01*
X002070Y014172D01*
X002130Y014112D01*
X002130Y010692D01*
X002739Y010083D01*
X003134Y010083D01*
X002819Y010398D02*
X002604Y010398D01*
X002250Y010752D01*
X002250Y018012D01*
X002070Y018192D01*
X001590Y018192D01*
X001410Y018372D01*
X001410Y019632D01*
X001470Y019692D01*
X001470Y019932D01*
X001590Y020052D01*
X002640Y020052D01*
X002950Y019742D01*
X003390Y019212D02*
X003820Y019642D01*
X003950Y019642D01*
X002898Y017328D02*
X002670Y017100D01*
X002670Y014532D01*
X002910Y014292D01*
X005238Y014292D01*
X005418Y014112D01*
X005418Y010083D01*
X005103Y009769D01*
X004394Y009769D01*
X003764Y009769D01*
X002977Y009056D02*
X002977Y008824D01*
X003134Y008666D01*
X003134Y008509D01*
X002977Y009056D02*
X002490Y009506D01*
X002564Y009506D01*
X002610Y009012D02*
X002610Y007692D01*
X003210Y007092D01*
X003750Y007092D01*
X004530Y006312D01*
X004530Y005412D01*
X004890Y005052D01*
X005070Y005172D02*
X004830Y005412D01*
X004590Y005052D02*
X004230Y005412D01*
X003570Y005412D01*
X003270Y005712D01*
X003270Y006852D01*
X002490Y007632D01*
X002490Y008472D01*
X002270Y008692D01*
X001800Y008692D01*
X001800Y007692D02*
X002250Y007692D01*
X003150Y006792D01*
X003150Y005652D01*
X003510Y005292D01*
X004050Y005292D01*
X004290Y005052D01*
X003990Y005052D02*
X003860Y004922D01*
X003860Y004659D01*
X003774Y004572D01*
X002970Y004572D01*
X002490Y005052D01*
X001050Y005052D01*
X000810Y005292D01*
X000810Y012852D01*
X001650Y013692D01*
X001800Y013692D01*
X001800Y012692D02*
X001190Y012692D01*
X000930Y012432D01*
X000930Y005352D01*
X001110Y005172D01*
X002550Y005172D01*
X003030Y004692D01*
X003450Y004692D01*
X003690Y005052D01*
X003450Y005052D02*
X003210Y004812D01*
X003090Y004812D01*
X002610Y005292D01*
X001170Y005292D01*
X001050Y005412D01*
X001050Y011472D01*
X001270Y011692D01*
X001800Y011692D01*
X002610Y011772D02*
X002724Y011658D01*
X003764Y011658D01*
X003843Y011343D02*
X003528Y011028D01*
X003449Y011028D01*
X003292Y011186D01*
X002680Y011186D01*
X002610Y011772D02*
X002610Y012912D01*
X002730Y013032D01*
X003056Y012052D02*
X003134Y011973D01*
X003056Y012052D02*
X003056Y014092D01*
X003370Y014092D02*
X003370Y012052D01*
X003449Y011973D01*
X003685Y012052D02*
X003764Y011973D01*
X003685Y012052D02*
X003685Y014092D01*
X003990Y014772D02*
X004110Y014772D01*
X004470Y014412D01*
X006690Y014412D01*
X006870Y014232D01*
X006870Y013932D01*
X006810Y013872D01*
X006810Y012612D01*
X006870Y012552D01*
X006870Y011732D01*
X006690Y011552D01*
X006441Y011552D01*
X006284Y011343D01*
X006599Y011343D02*
X006870Y011343D01*
X006990Y011463D01*
X006990Y014292D01*
X006750Y014532D01*
X004530Y014532D01*
X004170Y014892D01*
X004050Y014892D01*
X003753Y015189D01*
X003753Y015409D01*
X003438Y015409D02*
X003438Y015084D01*
X003570Y014952D01*
X003810Y014952D01*
X003990Y014772D01*
X004110Y015012D02*
X004230Y015012D01*
X004590Y014652D01*
X006810Y014652D01*
X007110Y014352D01*
X007110Y011232D01*
X006914Y011036D01*
X006914Y011028D01*
X006599Y011028D01*
X006599Y010713D02*
X006771Y010713D01*
X007230Y011172D01*
X007230Y014412D01*
X006870Y014772D01*
X004650Y014772D01*
X004383Y015039D01*
X004383Y015409D01*
X004068Y015409D02*
X004068Y015054D01*
X004110Y015012D01*
X004770Y015672D02*
X004890Y015552D01*
X005970Y015552D01*
X006270Y015252D01*
X007110Y015252D01*
X007170Y015192D01*
X008010Y015192D01*
X008370Y014832D01*
X008370Y014592D01*
X008130Y014352D01*
X008130Y014052D01*
X008370Y013812D01*
X008370Y013572D01*
X008130Y013332D01*
X008130Y013032D01*
X008310Y012852D01*
X008310Y012552D01*
X008130Y012372D01*
X008130Y012072D01*
X008250Y011952D01*
X008250Y011472D01*
X008130Y011352D01*
X008130Y010992D01*
X008250Y010872D01*
X008250Y010452D01*
X008130Y010332D01*
X008130Y009552D01*
X007800Y009222D01*
X007800Y008692D01*
X007470Y008412D02*
X007800Y008082D01*
X007800Y007692D01*
X007350Y007152D02*
X007350Y010932D01*
X007470Y011052D01*
X007470Y014532D01*
X006990Y015012D01*
X005550Y015012D01*
X005370Y015192D01*
X005100Y015182D02*
X005100Y014982D01*
X005190Y014892D01*
X006930Y014892D01*
X007350Y014472D01*
X007350Y011112D01*
X007230Y010992D01*
X007230Y005412D01*
X007800Y004842D01*
X007800Y004692D01*
X007230Y004632D02*
X005970Y005832D01*
X005970Y005952D01*
X005550Y006372D01*
X005550Y006612D01*
X005190Y006972D01*
X004950Y006972D01*
X004710Y007212D01*
X004710Y007632D01*
X005181Y008104D01*
X005181Y008351D01*
X005024Y008509D01*
X004552Y008351D02*
X004552Y007191D01*
X004890Y006852D01*
X005130Y006852D01*
X005430Y006552D01*
X005430Y006292D01*
X005811Y005910D01*
X005811Y005595D01*
X006715Y004692D01*
X006750Y004692D01*
X006990Y004452D01*
X006750Y004452D02*
X006750Y004332D01*
X006750Y004452D02*
X005654Y005548D01*
X005654Y005831D01*
X005310Y006175D01*
X005310Y006492D01*
X005070Y006732D01*
X004830Y006732D01*
X004630Y006932D01*
X004630Y006934D01*
X004315Y007249D01*
X004315Y008272D01*
X004079Y008509D01*
X003922Y008351D02*
X003922Y007643D01*
X004158Y007406D01*
X004158Y007170D01*
X004552Y006776D01*
X004552Y006771D01*
X004710Y006612D01*
X005010Y006612D01*
X005190Y006432D01*
X005190Y006076D01*
X005181Y006068D01*
X005490Y005759D01*
X005490Y004992D01*
X006030Y004452D01*
X006390Y004452D01*
X005670Y004332D02*
X005070Y004332D01*
X005070Y005172D01*
X004250Y006012D02*
X003950Y005712D01*
X003530Y005712D01*
X004110Y006152D02*
X004110Y006452D01*
X003770Y006792D01*
X004110Y006152D02*
X004250Y006012D01*
X005654Y006678D02*
X005780Y006552D01*
X005654Y006678D02*
X005654Y008509D01*
X005969Y008509D02*
X005969Y006733D01*
X006090Y006612D01*
X006284Y006673D02*
X006405Y006552D01*
X006284Y006673D02*
X006284Y008509D01*
X006599Y008509D02*
X006599Y006761D01*
X006686Y006672D01*
X007350Y007152D02*
X007470Y007032D01*
X007470Y007022D01*
X007800Y006692D01*
X007750Y006692D01*
X006870Y007812D02*
X007110Y008092D01*
X007110Y008272D01*
X006914Y008509D01*
X007470Y008412D02*
X007470Y010872D01*
X008130Y011532D01*
X008130Y011832D01*
X008010Y011952D01*
X008010Y012432D01*
X008130Y012552D01*
X008130Y012852D01*
X008010Y012972D01*
X008010Y013392D01*
X008250Y013632D01*
X008250Y013752D01*
X008010Y013992D01*
X008010Y014412D01*
X008250Y014652D01*
X008250Y014772D01*
X007950Y015072D01*
X007110Y015072D01*
X007050Y015132D01*
X005670Y015132D01*
X005640Y015162D01*
X005640Y015192D01*
X005566Y015852D02*
X005850Y015852D01*
X006270Y015432D01*
X006562Y015432D01*
X006930Y015800D01*
X008310Y015672D02*
X008310Y015072D01*
X008490Y014892D01*
X008490Y014532D01*
X008310Y014352D01*
X008310Y014052D01*
X008670Y013692D01*
X008730Y013692D01*
X008310Y015672D02*
X008370Y015732D01*
X006690Y014057D02*
X006655Y014092D01*
X006690Y014057D02*
X006690Y012972D01*
X006510Y012792D01*
X006510Y012612D01*
X006450Y012552D01*
X006450Y012372D01*
X006599Y012223D01*
X006599Y011973D01*
X006284Y011973D02*
X006284Y012487D01*
X006276Y012719D01*
X005969Y013031D02*
X005969Y011973D01*
X005654Y011973D02*
X005654Y013136D01*
X006048Y013530D01*
X006048Y014092D01*
X006363Y014092D02*
X006363Y013425D01*
X005969Y013031D01*
X005418Y014112D02*
X005418Y014178D01*
X005103Y014092D02*
X005103Y012052D01*
X005024Y011973D01*
X004788Y012052D02*
X004709Y011973D01*
X004788Y012052D02*
X004788Y014092D01*
X004473Y014092D02*
X004473Y012052D01*
X004394Y011973D01*
X004079Y011973D02*
X004079Y012918D01*
X004079Y011343D02*
X003843Y011343D01*
X004079Y010713D02*
X004394Y010713D01*
X004394Y008509D02*
X004552Y008351D01*
X003922Y008351D02*
X003764Y008509D01*
X002610Y009012D02*
X001930Y009692D01*
X001800Y009692D01*
X002230Y007092D02*
X002370Y007032D01*
X002370Y006732D01*
X001830Y004212D02*
X002190Y003852D01*
X002190Y003432D01*
X007800Y009692D02*
X007800Y010182D01*
X007710Y010272D01*
X006921Y011343D02*
X006870Y011343D01*
X006284Y011028D02*
X006599Y010713D01*
X008370Y008652D02*
X008725Y008297D01*
X008725Y008202D01*
X004770Y015672D02*
X004770Y016142D01*
X004650Y016292D01*
X004940Y016292D02*
X005054Y016228D01*
X005054Y015852D01*
X002898Y017328D02*
X002885Y017328D01*
D25*
X003450Y018192D02*
X003750Y017892D01*
X003750Y017465D01*
X003715Y017430D01*
X003715Y016830D02*
X003715Y016577D01*
X003610Y016472D01*
X003438Y016300D01*
X003438Y016118D01*
X003753Y016118D02*
X003753Y016295D01*
X003930Y016472D01*
X004040Y016582D01*
X004040Y016830D01*
X004136Y016918D01*
X004340Y016830D02*
X004340Y016562D01*
X004068Y016290D01*
X004068Y016118D01*
X004383Y016118D02*
X004383Y016305D01*
X004665Y016587D01*
X004665Y016830D01*
X004902Y016592D01*
X005174Y016592D01*
X005430Y016932D02*
X005430Y017412D01*
X005490Y017472D01*
X005490Y017712D02*
X005670Y017712D01*
X005790Y017592D01*
X006030Y017592D01*
X006270Y017772D02*
X006270Y017292D01*
X006090Y017112D01*
X005806Y017112D01*
X005686Y017132D01*
X005430Y016932D02*
X005610Y016752D01*
X005610Y016648D01*
X005686Y016592D01*
X005790Y016588D01*
X005790Y016332D01*
X006007Y016115D01*
X006316Y016115D01*
X006316Y015800D01*
X006690Y015912D02*
X006690Y016272D01*
X006810Y016392D01*
X007047Y016392D01*
X007024Y016430D01*
X006893Y016430D01*
X007024Y016745D02*
X007144Y016778D01*
X006750Y017172D01*
X006750Y017456D01*
X006630Y017576D01*
X006930Y017832D02*
X006330Y017832D01*
X006270Y017772D01*
X006630Y018088D02*
X006630Y018252D01*
X006510Y018372D01*
X006150Y018372D01*
X006070Y018292D01*
X005890Y018032D02*
X005790Y018132D01*
X005790Y018712D01*
X005770Y018732D01*
X005670Y018972D02*
X006270Y018972D01*
X006450Y018792D01*
X006630Y018792D01*
X006990Y018432D01*
X006990Y017892D01*
X006930Y017832D01*
X007050Y017592D02*
X007050Y017292D01*
X007290Y017052D01*
X008575Y017052D01*
X008725Y017202D01*
X008695Y017172D01*
X008610Y017712D02*
X008610Y018087D01*
X008725Y018202D01*
X008610Y017712D02*
X008130Y017232D01*
X007590Y017232D01*
X007350Y017472D01*
X007170Y017712D02*
X007050Y017592D01*
X007170Y017712D02*
X007170Y017892D01*
X007350Y018072D01*
X007350Y019032D02*
X006870Y019032D01*
X006570Y019032D02*
X005910Y019692D01*
X005730Y019692D01*
X005610Y019572D01*
X005610Y019452D01*
X004710Y018552D01*
X004710Y018432D01*
X004950Y018552D02*
X004950Y018192D01*
X005190Y018012D02*
X005490Y017712D01*
X005190Y018012D02*
X005190Y018372D01*
X004950Y018552D02*
X005850Y019452D01*
X005430Y019512D02*
X005430Y019812D01*
X005610Y019992D01*
X007290Y019992D01*
X007410Y020112D01*
X008635Y020112D01*
X008725Y020202D01*
X008715Y019212D02*
X008725Y019202D01*
X008715Y019212D02*
X007530Y019212D01*
X007350Y019032D01*
X006570Y020412D02*
X005370Y020412D01*
X005190Y020232D01*
X004650Y020232D01*
X004830Y019212D02*
X005130Y019212D01*
X005430Y019512D01*
X005890Y018032D02*
X005890Y017892D01*
X006090Y017112D02*
X006376Y016826D01*
X006316Y016745D01*
X006316Y016430D01*
X006690Y015912D02*
X006802Y015800D01*
X006930Y015800D01*
X007024Y015800D01*
X007092Y015792D01*
X007410Y015792D01*
X007710Y016092D01*
X008010Y016092D01*
X008130Y015972D01*
X008430Y015972D01*
X008725Y015677D01*
X008725Y015202D01*
X008725Y016202D02*
X008320Y016202D01*
X008250Y016272D01*
X007530Y016272D01*
X007470Y016332D01*
X007410Y016632D01*
X007358Y016745D01*
X007024Y016745D01*
X007122Y016152D02*
X007024Y016115D01*
X007122Y016152D02*
X007410Y016152D01*
X007530Y016272D01*
X005174Y017112D02*
X005174Y017132D01*
X005174Y017112D02*
X004470Y017112D01*
X004436Y017078D01*
X004340Y016830D01*
X004383Y016245D02*
X004383Y016118D01*
D26*
X006570Y002612D02*
X006950Y002232D01*
X008070Y002232D01*
X008430Y002592D01*
X003450Y001432D02*
X003050Y001432D01*
X002850Y001632D01*
X002850Y002532D01*
X002910Y002472D01*
M02*
