G75*
%MOIN*%
%OFA0B0*%
%FSLAX24Y24*%
%IPPOS*%
%LPD*%
%AMOC8*
5,1,8,0,0,1.08239X$1,22.5*
%
%ADD10C,0.0000*%
%ADD11C,0.0060*%
%ADD12R,0.0236X0.0118*%
%ADD13C,0.0020*%
%ADD14R,0.0118X0.0236*%
%ADD15C,0.0079*%
%ADD16C,0.0030*%
%ADD17C,0.0040*%
%ADD18C,0.0050*%
%ADD19C,0.0010*%
%ADD20C,0.0020*%
%ADD21C,0.0080*%
%ADD22R,0.0200X0.0200*%
%ADD23C,0.0157*%
%ADD24C,0.0141*%
D10*
X000553Y005331D02*
X009175Y005331D01*
X009175Y019898D01*
X000553Y019898D01*
X000553Y005331D01*
D11*
X001022Y006829D02*
X001022Y007022D01*
X001198Y007022D02*
X001198Y006829D01*
X001198Y008429D02*
X001198Y008622D01*
X001022Y008622D02*
X001022Y008429D01*
X000992Y010329D02*
X000992Y010522D01*
X001168Y010522D02*
X001168Y010329D01*
X001178Y011729D02*
X001178Y011922D01*
X001002Y011922D02*
X001002Y011729D01*
X001002Y012909D02*
X001002Y013102D01*
X001178Y013102D02*
X001178Y012909D01*
X001178Y014307D02*
X001178Y014500D01*
X001002Y014500D02*
X001002Y014307D01*
X001002Y015929D02*
X001002Y016122D01*
X001178Y016122D02*
X001178Y015929D01*
X001178Y017929D02*
X001178Y018122D01*
X001002Y018122D02*
X001002Y017929D01*
X001002Y019249D02*
X001002Y019442D01*
X001178Y019442D02*
X001178Y019249D01*
X002150Y019756D02*
X002150Y005856D01*
X007350Y005856D01*
X007350Y019756D01*
X005250Y019756D01*
X005248Y019712D01*
X005242Y019669D01*
X005233Y019627D01*
X005220Y019585D01*
X005203Y019545D01*
X005183Y019506D01*
X005160Y019469D01*
X005133Y019435D01*
X005104Y019402D01*
X005071Y019373D01*
X005037Y019346D01*
X005000Y019323D01*
X004961Y019303D01*
X004921Y019286D01*
X004879Y019273D01*
X004837Y019264D01*
X004794Y019258D01*
X004750Y019256D01*
X004706Y019258D01*
X004663Y019264D01*
X004621Y019273D01*
X004579Y019286D01*
X004539Y019303D01*
X004500Y019323D01*
X004463Y019346D01*
X004429Y019373D01*
X004396Y019402D01*
X004367Y019435D01*
X004340Y019469D01*
X004317Y019506D01*
X004297Y019545D01*
X004280Y019585D01*
X004267Y019627D01*
X004258Y019669D01*
X004252Y019712D01*
X004250Y019756D01*
X002150Y019756D01*
X005562Y018502D02*
X005562Y018309D01*
X005738Y018309D02*
X005738Y018502D01*
X006674Y018758D02*
X006866Y018758D01*
X006866Y018934D02*
X006674Y018934D01*
X006674Y019298D02*
X006866Y019298D01*
X006866Y019474D02*
X006674Y019474D01*
X008085Y018086D02*
X008085Y017586D01*
X008335Y017336D01*
X008835Y017336D01*
X009085Y017586D01*
X009085Y018086D01*
X008835Y018336D01*
X008335Y018336D01*
X008085Y018086D01*
X008335Y017336D02*
X008085Y017086D01*
X008085Y016586D01*
X008335Y016336D01*
X008835Y016336D01*
X009085Y016586D01*
X009085Y017086D01*
X008835Y017336D01*
X008835Y016336D02*
X008335Y016336D01*
X008085Y016086D01*
X008085Y015586D01*
X008335Y015336D01*
X008835Y015336D01*
X009085Y015586D01*
X009085Y016086D01*
X008835Y016336D01*
X008835Y015336D02*
X009085Y015086D01*
X009085Y014586D01*
X008835Y014336D01*
X009085Y014086D01*
X009085Y013586D01*
X008835Y013336D01*
X009085Y013086D01*
X009085Y012586D01*
X008835Y012336D01*
X009085Y012086D01*
X009085Y011586D01*
X008835Y011336D01*
X009085Y011086D01*
X009085Y010586D01*
X008835Y010336D01*
X009085Y010086D01*
X009085Y009586D01*
X008835Y009336D01*
X009085Y009086D01*
X009085Y008586D01*
X008835Y008336D01*
X008335Y008336D01*
X008085Y008586D01*
X008085Y009086D01*
X008335Y009336D01*
X008085Y009586D01*
X008085Y010086D01*
X008335Y010336D01*
X008085Y010586D01*
X008085Y011086D01*
X008335Y011336D01*
X008835Y011336D01*
X008335Y011336D01*
X008085Y011586D01*
X008085Y012086D01*
X008335Y012336D01*
X008085Y012586D01*
X008085Y013086D01*
X008335Y013336D01*
X008835Y013336D01*
X008335Y013336D01*
X008085Y013586D01*
X008085Y014086D01*
X008335Y014336D01*
X008085Y014586D01*
X008085Y015086D01*
X008335Y015336D01*
X008335Y014336D02*
X008835Y014336D01*
X008835Y012336D02*
X008335Y012336D01*
X008335Y010336D02*
X008835Y010336D01*
X008835Y009336D02*
X008335Y009336D01*
X008464Y006514D02*
X008656Y006514D01*
X008656Y006338D02*
X008464Y006338D01*
X008464Y005931D02*
X008656Y005931D01*
X008656Y005755D02*
X008464Y005755D01*
X007198Y006379D02*
X007198Y006572D01*
X007022Y006572D02*
X007022Y006379D01*
X006598Y006379D02*
X006598Y006572D01*
X006422Y006572D02*
X006422Y006379D01*
X005998Y006379D02*
X005998Y006572D01*
X005822Y006572D02*
X005822Y006379D01*
X005570Y006536D02*
X005570Y006736D01*
X005530Y006696D02*
X005050Y006696D01*
X005050Y006056D01*
X005530Y006056D01*
X005530Y006256D01*
X005530Y006696D01*
X005520Y006496D02*
X005499Y006493D01*
X005479Y006487D01*
X005461Y006477D01*
X005444Y006465D01*
X005430Y006449D01*
X005419Y006432D01*
X005411Y006412D01*
X005406Y006392D01*
X005405Y006371D01*
X005408Y006350D01*
X005414Y006330D01*
X005424Y006312D01*
X005436Y006295D01*
X005452Y006281D01*
X005469Y006270D01*
X005489Y006262D01*
X005509Y006257D01*
X005530Y006256D01*
X005570Y006216D02*
X005570Y006016D01*
X005010Y006016D02*
X005010Y006216D01*
X005010Y006536D02*
X005010Y006736D01*
X005360Y006946D02*
X005359Y006956D01*
X005361Y006967D01*
X005367Y006975D01*
X005375Y006982D01*
X005385Y006986D01*
X005395Y006986D01*
X005405Y006982D01*
X005413Y006975D01*
X005419Y006967D01*
X005421Y006956D01*
X005420Y006946D01*
X003709Y006681D02*
X003709Y006061D01*
X003609Y006161D02*
X003609Y006251D01*
X003609Y006491D01*
X003609Y006581D01*
X003009Y006581D01*
X003009Y006161D01*
X003609Y006161D01*
X003609Y006251D02*
X003588Y006253D01*
X003568Y006258D01*
X003549Y006267D01*
X003532Y006279D01*
X003517Y006294D01*
X003505Y006311D01*
X003496Y006330D01*
X003491Y006350D01*
X003489Y006371D01*
X003491Y006392D01*
X003496Y006412D01*
X003505Y006431D01*
X003517Y006448D01*
X003532Y006463D01*
X003549Y006475D01*
X003568Y006484D01*
X003588Y006489D01*
X003609Y006491D01*
X003406Y005750D02*
X003214Y005750D01*
X003214Y005573D02*
X003406Y005573D01*
X002909Y006061D02*
X002909Y006681D01*
X002478Y006528D02*
X002478Y006335D01*
X002302Y006335D02*
X002302Y006528D01*
X008374Y018968D02*
X008566Y018968D01*
X008566Y019144D02*
X008374Y019144D01*
X008374Y019478D02*
X008566Y019478D01*
X008566Y019654D02*
X008374Y019654D01*
D12*
X005652Y018567D03*
X005652Y018247D03*
X001088Y018185D03*
X001088Y017865D03*
X001092Y019187D03*
X001092Y019507D03*
X001088Y016185D03*
X001088Y015865D03*
X001092Y014564D03*
X001092Y014244D03*
X001092Y013167D03*
X001092Y012847D03*
X001088Y011985D03*
X001088Y011665D03*
X001078Y010585D03*
X001078Y010265D03*
X001112Y008687D03*
X001112Y008367D03*
X001112Y007087D03*
X001112Y006767D03*
X002388Y006591D03*
X002388Y006271D03*
X005908Y006315D03*
X005908Y006635D03*
X006508Y006635D03*
X006508Y006315D03*
X007112Y006317D03*
X007112Y006637D03*
D13*
X007106Y007206D02*
X006959Y007206D01*
X007032Y007206D02*
X007032Y007426D01*
X006959Y007353D01*
X006885Y007389D02*
X006885Y007316D01*
X006848Y007279D01*
X006738Y007279D01*
X006738Y007206D02*
X006738Y007426D01*
X006848Y007426D01*
X006885Y007389D01*
X006811Y007279D02*
X006885Y007206D01*
X006671Y005746D02*
X006561Y005636D01*
X006708Y005636D01*
X006671Y005526D02*
X006671Y005746D01*
X006487Y005709D02*
X006450Y005746D01*
X006377Y005746D01*
X006340Y005709D01*
X006340Y005563D01*
X006377Y005526D01*
X006450Y005526D01*
X006487Y005563D01*
X005928Y005563D02*
X005891Y005526D01*
X005818Y005526D01*
X005781Y005563D01*
X005707Y005563D02*
X005670Y005526D01*
X005597Y005526D01*
X005560Y005563D01*
X005560Y005709D01*
X005597Y005746D01*
X005670Y005746D01*
X005707Y005709D01*
X005781Y005709D02*
X005818Y005746D01*
X005891Y005746D01*
X005928Y005709D01*
X005928Y005673D01*
X005891Y005636D01*
X005928Y005599D01*
X005928Y005563D01*
X005891Y005636D02*
X005854Y005636D01*
X004503Y005487D02*
X004356Y005487D01*
X004282Y005487D02*
X004136Y005487D01*
X004136Y005707D01*
X004356Y005634D02*
X004430Y005707D01*
X004430Y005487D01*
X002609Y005421D02*
X002462Y005421D01*
X002536Y005421D02*
X002536Y005641D01*
X002462Y005568D01*
X002388Y005604D02*
X002351Y005641D01*
X002278Y005641D01*
X002241Y005604D01*
X002241Y005458D01*
X002278Y005421D01*
X002351Y005421D01*
X002388Y005458D01*
X002375Y007107D02*
X002302Y007107D01*
X002265Y007144D01*
X002265Y007290D01*
X002302Y007327D01*
X002375Y007327D01*
X002412Y007290D01*
X002486Y007290D02*
X002523Y007327D01*
X002596Y007327D01*
X002633Y007290D01*
X002633Y007254D01*
X002486Y007107D01*
X002633Y007107D01*
X002412Y007144D02*
X002375Y007107D01*
X000800Y007130D02*
X000800Y007010D01*
X000800Y007070D02*
X000620Y007070D01*
X000680Y007010D01*
X000680Y006946D02*
X000710Y006916D01*
X000710Y006826D01*
X000710Y006916D02*
X000740Y006946D01*
X000770Y006946D01*
X000800Y006916D01*
X000800Y006826D01*
X000620Y006826D01*
X000620Y006916D01*
X000650Y006946D01*
X000680Y006946D01*
X000620Y006761D02*
X000620Y006641D01*
X000800Y006641D01*
X000710Y006641D02*
X000710Y006701D01*
X000650Y008380D02*
X000770Y008380D01*
X000800Y008410D01*
X000800Y008470D01*
X000770Y008500D01*
X000770Y008564D02*
X000800Y008594D01*
X000800Y008654D01*
X000770Y008684D01*
X000710Y008684D01*
X000680Y008654D01*
X000680Y008624D01*
X000710Y008564D01*
X000620Y008564D01*
X000620Y008684D01*
X000650Y008500D02*
X000620Y008470D01*
X000620Y008410D01*
X000650Y008380D01*
X000650Y010151D02*
X000770Y010151D01*
X000800Y010181D01*
X000800Y010241D01*
X000770Y010271D01*
X000770Y010335D02*
X000800Y010365D01*
X000800Y010425D01*
X000770Y010455D01*
X000740Y010455D01*
X000710Y010425D01*
X000710Y010335D01*
X000770Y010335D01*
X000710Y010335D02*
X000650Y010395D01*
X000620Y010455D01*
X000650Y010271D02*
X000620Y010241D01*
X000620Y010181D01*
X000650Y010151D01*
X000620Y011653D02*
X000620Y011743D01*
X000650Y011773D01*
X000710Y011773D01*
X000740Y011743D01*
X000740Y011653D01*
X000800Y011653D02*
X000620Y011653D01*
X000740Y011713D02*
X000800Y011773D01*
X000800Y011837D02*
X000680Y011957D01*
X000650Y011957D01*
X000620Y011927D01*
X000620Y011867D01*
X000650Y011837D01*
X000800Y011837D02*
X000800Y011957D01*
X000800Y012804D02*
X000620Y012804D01*
X000620Y012894D01*
X000650Y012924D01*
X000710Y012924D01*
X000740Y012894D01*
X000740Y012804D01*
X000740Y012864D02*
X000800Y012924D01*
X000770Y012988D02*
X000800Y013018D01*
X000800Y013078D01*
X000770Y013108D01*
X000740Y013108D01*
X000710Y013078D01*
X000710Y013048D01*
X000710Y013078D02*
X000680Y013108D01*
X000650Y013108D01*
X000620Y013078D01*
X000620Y013018D01*
X000650Y012988D01*
X000620Y014191D02*
X000620Y014281D01*
X000650Y014311D01*
X000710Y014311D01*
X000740Y014281D01*
X000740Y014191D01*
X000740Y014251D02*
X000800Y014311D01*
X000710Y014375D02*
X000710Y014495D01*
X000800Y014465D02*
X000620Y014465D01*
X000710Y014375D01*
X000800Y014191D02*
X000620Y014191D01*
X000650Y015792D02*
X000770Y015792D01*
X000800Y015822D01*
X000800Y015882D01*
X000770Y015912D01*
X000770Y015976D02*
X000650Y016096D01*
X000620Y016096D01*
X000620Y015976D01*
X000650Y015912D02*
X000620Y015882D01*
X000620Y015822D01*
X000650Y015792D01*
X000770Y015976D02*
X000800Y015976D01*
X000800Y017833D02*
X000620Y017833D01*
X000620Y017923D01*
X000650Y017953D01*
X000710Y017953D01*
X000740Y017923D01*
X000740Y017833D01*
X000740Y017893D02*
X000800Y017953D01*
X000770Y018017D02*
X000800Y018047D01*
X000800Y018107D01*
X000770Y018137D01*
X000710Y018137D01*
X000680Y018107D01*
X000680Y018077D01*
X000710Y018017D01*
X000620Y018017D01*
X000620Y018137D01*
X000620Y019121D02*
X000620Y019211D01*
X000650Y019242D01*
X000710Y019242D01*
X000740Y019211D01*
X000740Y019121D01*
X000800Y019121D02*
X000620Y019121D01*
X000740Y019181D02*
X000800Y019242D01*
X000770Y019306D02*
X000800Y019336D01*
X000800Y019396D01*
X000770Y019426D01*
X000740Y019426D01*
X000710Y019396D01*
X000710Y019306D01*
X000770Y019306D01*
X000710Y019306D02*
X000650Y019366D01*
X000620Y019426D01*
X002317Y012647D02*
X002280Y012611D01*
X002280Y012537D01*
X002317Y012501D01*
X002280Y012426D02*
X002463Y012426D01*
X002500Y012390D01*
X002500Y012316D01*
X002463Y012280D01*
X002280Y012280D01*
X002500Y012501D02*
X002353Y012647D01*
X002317Y012647D01*
X002500Y012647D02*
X002500Y012501D01*
X004175Y015516D02*
X004139Y015553D01*
X004139Y015736D01*
X004175Y015516D02*
X004249Y015516D01*
X004286Y015553D01*
X004286Y015736D01*
X004360Y015663D02*
X004433Y015736D01*
X004433Y015516D01*
X004360Y015516D02*
X004507Y015516D01*
X005424Y018954D02*
X005497Y018954D01*
X005534Y018991D01*
X005608Y018991D02*
X005608Y019028D01*
X005645Y019065D01*
X005718Y019065D01*
X005755Y019028D01*
X005755Y018991D01*
X005718Y018954D01*
X005645Y018954D01*
X005608Y018991D01*
X005645Y019065D02*
X005608Y019101D01*
X005608Y019138D01*
X005645Y019175D01*
X005718Y019175D01*
X005755Y019138D01*
X005755Y019101D01*
X005718Y019065D01*
X005534Y019138D02*
X005497Y019175D01*
X005424Y019175D01*
X005387Y019138D01*
X005387Y018991D01*
X005424Y018954D01*
X005837Y019536D02*
X005910Y019536D01*
X005947Y019573D01*
X006021Y019573D02*
X006058Y019536D01*
X006131Y019536D01*
X006168Y019573D01*
X006168Y019719D01*
X006131Y019756D01*
X006058Y019756D01*
X006021Y019719D01*
X006021Y019683D01*
X006058Y019646D01*
X006168Y019646D01*
X005947Y019719D02*
X005910Y019756D01*
X005837Y019756D01*
X005800Y019719D01*
X005800Y019573D01*
X005837Y019536D01*
X007280Y018909D02*
X007280Y018763D01*
X007317Y018726D01*
X007390Y018726D01*
X007427Y018763D01*
X007501Y018726D02*
X007648Y018726D01*
X007574Y018726D02*
X007574Y018946D01*
X007501Y018873D01*
X007427Y018909D02*
X007390Y018946D01*
X007317Y018946D01*
X007280Y018909D01*
X007622Y019666D02*
X007622Y019846D01*
X007712Y019846D01*
X007742Y019816D01*
X007742Y019756D01*
X007712Y019726D01*
X007622Y019726D01*
X007682Y019726D02*
X007742Y019666D01*
X007806Y019666D02*
X007806Y019696D01*
X007926Y019816D01*
X007926Y019846D01*
X007806Y019846D01*
X007832Y018946D02*
X007759Y018946D01*
X007722Y018909D01*
X007722Y018763D01*
X007869Y018909D01*
X007869Y018763D01*
X007832Y018726D01*
X007759Y018726D01*
X007722Y018763D01*
X007869Y018909D02*
X007832Y018946D01*
X008410Y018756D02*
X008410Y018536D01*
X008410Y018609D02*
X008520Y018609D01*
X008557Y018646D01*
X008557Y018719D01*
X008520Y018756D01*
X008410Y018756D01*
X008483Y018609D02*
X008557Y018536D01*
X008631Y018573D02*
X008631Y018609D01*
X008668Y018646D01*
X008741Y018646D01*
X008778Y018609D01*
X008778Y018573D01*
X008741Y018536D01*
X008668Y018536D01*
X008631Y018573D01*
X008668Y018646D02*
X008631Y018683D01*
X008631Y018719D01*
X008668Y018756D01*
X008741Y018756D01*
X008778Y018719D01*
X008778Y018683D01*
X008741Y018646D01*
X008794Y008336D02*
X008794Y008116D01*
X008794Y008226D02*
X008940Y008226D01*
X009015Y008263D02*
X009088Y008336D01*
X009088Y008116D01*
X009015Y008116D02*
X009161Y008116D01*
X008940Y008116D02*
X008940Y008336D01*
X008988Y007897D02*
X008768Y007750D01*
X008842Y007676D02*
X008768Y007602D01*
X008842Y007529D01*
X008988Y007529D01*
X008988Y007455D02*
X008768Y007455D01*
X008842Y007381D01*
X008768Y007308D01*
X008988Y007308D01*
X008952Y007234D02*
X008805Y007234D01*
X008768Y007197D01*
X008768Y007087D01*
X008988Y007087D01*
X008988Y007197D01*
X008952Y007234D01*
X008988Y007013D02*
X008988Y006940D01*
X008988Y006976D02*
X008768Y006976D01*
X008768Y006940D02*
X008768Y007013D01*
X008805Y006865D02*
X008768Y006829D01*
X008768Y006755D01*
X008805Y006719D01*
X008842Y006719D01*
X008878Y006755D01*
X008878Y006829D01*
X008915Y006865D01*
X008952Y006865D01*
X008988Y006829D01*
X008988Y006755D01*
X008952Y006719D01*
X008878Y007529D02*
X008878Y007676D01*
X008842Y007676D02*
X008988Y007676D01*
X008988Y007750D02*
X008768Y007897D01*
X008315Y006875D02*
X008242Y006875D01*
X008205Y006838D01*
X008205Y006801D01*
X008242Y006765D01*
X008352Y006765D01*
X008352Y006838D02*
X008315Y006875D01*
X008352Y006838D02*
X008352Y006691D01*
X008315Y006655D01*
X008242Y006655D01*
X008205Y006691D01*
X008131Y006655D02*
X008058Y006728D01*
X008094Y006728D02*
X007984Y006728D01*
X007984Y006655D02*
X007984Y006875D01*
X008094Y006875D01*
X008131Y006838D01*
X008131Y006765D01*
X008094Y006728D01*
X008115Y005615D02*
X008005Y005615D01*
X008005Y005395D01*
X008005Y005468D02*
X008115Y005468D01*
X008152Y005505D01*
X008152Y005578D01*
X008115Y005615D01*
X008226Y005541D02*
X008299Y005615D01*
X008299Y005395D01*
X008226Y005395D02*
X008373Y005395D01*
X008447Y005431D02*
X008447Y005578D01*
X008484Y005615D01*
X008557Y005615D01*
X008594Y005578D01*
X008447Y005431D01*
X008484Y005395D01*
X008557Y005395D01*
X008594Y005431D01*
X008594Y005578D01*
X008152Y005395D02*
X008078Y005468D01*
D14*
X008401Y005841D03*
X008399Y006428D03*
X008719Y006428D03*
X008721Y005841D03*
X003469Y005663D03*
X003149Y005663D03*
X006611Y018844D03*
X006931Y018844D03*
X006931Y019384D03*
X006611Y019384D03*
X008309Y019568D03*
X008311Y019054D03*
X008631Y019054D03*
X008629Y019568D03*
D15*
X006892Y011828D02*
X006892Y007497D01*
X002561Y007497D01*
X002561Y011631D01*
X002758Y011828D01*
X006892Y011828D01*
X002758Y011828D02*
X002561Y011828D01*
X002561Y011631D01*
X002404Y011552D02*
X002406Y011564D01*
X002411Y011575D01*
X002420Y011584D01*
X002431Y011589D01*
X002443Y011591D01*
X002455Y011589D01*
X002466Y011584D01*
X002475Y011575D01*
X002480Y011564D01*
X002482Y011552D01*
X002480Y011540D01*
X002475Y011529D01*
X002466Y011520D01*
X002455Y011515D01*
X002443Y011513D01*
X002431Y011515D01*
X002420Y011520D01*
X002411Y011529D01*
X002406Y011540D01*
X002404Y011552D01*
X002551Y012048D02*
X002553Y012060D01*
X002558Y012071D01*
X002567Y012080D01*
X002578Y012085D01*
X002590Y012087D01*
X002602Y012085D01*
X002613Y012080D01*
X002622Y012071D01*
X002627Y012060D01*
X002629Y012048D01*
X002627Y012036D01*
X002622Y012025D01*
X002613Y012016D01*
X002602Y012011D01*
X002590Y012009D01*
X002578Y012011D01*
X002567Y012016D01*
X002558Y012025D01*
X002553Y012036D01*
X002551Y012048D01*
X002553Y012060D01*
X002558Y012071D01*
X002567Y012080D01*
X002578Y012085D01*
X002590Y012087D01*
X002602Y012085D01*
X002613Y012080D01*
X002622Y012071D01*
X002627Y012060D01*
X002629Y012048D01*
X002627Y012036D01*
X002622Y012025D01*
X002613Y012016D01*
X002602Y012011D01*
X002590Y012009D01*
X002578Y012011D01*
X002567Y012016D01*
X002558Y012025D01*
X002553Y012036D01*
X002551Y012048D01*
D16*
X002462Y010916D02*
X002413Y010916D01*
X002365Y010868D01*
X002365Y010820D01*
X002365Y010868D02*
X002317Y010916D01*
X002268Y010916D01*
X002220Y010868D01*
X002220Y010771D01*
X002268Y010723D01*
X002220Y010622D02*
X002462Y010622D01*
X002510Y010573D01*
X002510Y010477D01*
X002462Y010428D01*
X002220Y010428D01*
X002462Y010723D02*
X002510Y010771D01*
X002510Y010868D01*
X002462Y010916D01*
X005302Y017651D02*
X005267Y017686D01*
X005267Y017826D01*
X005302Y017861D01*
X005372Y017861D01*
X005407Y017826D01*
X005488Y017861D02*
X005628Y017651D01*
X005628Y017861D01*
X005709Y017791D02*
X005779Y017861D01*
X005779Y017651D01*
X005709Y017651D02*
X005849Y017651D01*
X005488Y017651D02*
X005488Y017861D01*
X005407Y017686D02*
X005372Y017651D01*
X005302Y017651D01*
D17*
X006060Y017770D02*
X006060Y018361D01*
X006276Y018361D01*
X006278Y018345D01*
X006283Y018329D01*
X006291Y018315D01*
X006302Y018302D01*
X006316Y018293D01*
X006331Y018286D01*
X006347Y018282D01*
X006363Y018282D01*
X006379Y018286D01*
X006395Y018293D01*
X006408Y018302D01*
X006419Y018315D01*
X006427Y018329D01*
X006432Y018345D01*
X006434Y018361D01*
X006591Y018361D01*
X006593Y018345D01*
X006598Y018329D01*
X006606Y018315D01*
X006617Y018302D01*
X006631Y018293D01*
X006646Y018286D01*
X006662Y018282D01*
X006678Y018282D01*
X006694Y018286D01*
X006710Y018293D01*
X006723Y018302D01*
X006734Y018315D01*
X006742Y018329D01*
X006747Y018345D01*
X006749Y018361D01*
X006906Y018361D01*
X006908Y018345D01*
X006913Y018329D01*
X006921Y018315D01*
X006932Y018302D01*
X006946Y018293D01*
X006961Y018286D01*
X006977Y018282D01*
X006993Y018282D01*
X007009Y018286D01*
X007025Y018293D01*
X007038Y018302D01*
X007049Y018315D01*
X007057Y018329D01*
X007062Y018345D01*
X007064Y018361D01*
X007280Y018361D01*
X007280Y017770D01*
X007064Y017770D01*
X007062Y017786D01*
X007057Y017802D01*
X007049Y017816D01*
X007038Y017829D01*
X007025Y017838D01*
X007009Y017845D01*
X006993Y017849D01*
X006977Y017849D01*
X006961Y017845D01*
X006946Y017838D01*
X006932Y017829D01*
X006921Y017816D01*
X006913Y017802D01*
X006908Y017786D01*
X006906Y017770D01*
X006749Y017770D01*
X006747Y017786D01*
X006742Y017802D01*
X006734Y017816D01*
X006723Y017829D01*
X006710Y017838D01*
X006694Y017845D01*
X006678Y017849D01*
X006662Y017849D01*
X006646Y017845D01*
X006631Y017838D01*
X006617Y017829D01*
X006606Y017816D01*
X006598Y017802D01*
X006593Y017786D01*
X006591Y017770D01*
X006434Y017770D01*
X006432Y017786D01*
X006427Y017802D01*
X006419Y017816D01*
X006408Y017829D01*
X006395Y017838D01*
X006379Y017845D01*
X006363Y017849D01*
X006347Y017849D01*
X006331Y017845D01*
X006316Y017838D01*
X006302Y017829D01*
X006291Y017816D01*
X006283Y017802D01*
X006278Y017786D01*
X006276Y017770D01*
X006060Y017770D01*
X006215Y017189D02*
X006215Y017055D01*
X006215Y017122D02*
X006015Y017122D01*
X006082Y017055D01*
X006015Y016968D02*
X006215Y016968D01*
X006015Y016834D01*
X006215Y016834D01*
X006215Y016747D02*
X006148Y016680D01*
X006148Y016713D02*
X006148Y016613D01*
X006215Y016613D02*
X006015Y016613D01*
X006015Y016713D01*
X006048Y016747D01*
X006115Y016747D01*
X006148Y016713D01*
X004374Y017593D02*
X004374Y017646D01*
X004321Y017646D01*
X004374Y017593D02*
X004348Y017566D01*
X004294Y017566D01*
X004267Y017593D01*
X004267Y017699D01*
X004294Y017726D01*
X004348Y017726D01*
X004374Y017699D01*
X004190Y017673D02*
X004190Y017566D01*
X004190Y017646D02*
X004083Y017646D01*
X004083Y017673D02*
X004137Y017726D01*
X004190Y017673D01*
X004083Y017673D02*
X004083Y017566D01*
X003953Y017566D02*
X003953Y017726D01*
X004006Y017726D02*
X003899Y017726D01*
X003822Y017726D02*
X003768Y017726D01*
X003795Y017726D02*
X003795Y017593D01*
X003768Y017566D01*
X003742Y017566D01*
X003715Y017593D01*
X002441Y017283D02*
X002407Y017283D01*
X002274Y017417D01*
X002240Y017417D01*
X002240Y017283D01*
X002240Y017196D02*
X002441Y017196D01*
X002240Y017062D01*
X002441Y017062D01*
X002441Y016975D02*
X002374Y016908D01*
X002374Y016941D02*
X002374Y016841D01*
X002441Y016841D02*
X002240Y016841D01*
X002240Y016941D01*
X002274Y016975D01*
X002340Y016975D01*
X002374Y016941D01*
X002374Y016595D02*
X002340Y016562D01*
X002340Y016462D01*
X002407Y016462D01*
X002441Y016495D01*
X002441Y016562D01*
X002407Y016595D01*
X002374Y016595D01*
X002274Y016529D02*
X002340Y016462D01*
X002274Y016529D02*
X002240Y016595D01*
X002240Y016374D02*
X002441Y016374D01*
X002240Y016241D01*
X002441Y016241D01*
X002441Y016153D02*
X002374Y016087D01*
X002374Y016120D02*
X002374Y016020D01*
X002441Y016020D02*
X002240Y016020D01*
X002240Y016120D01*
X002274Y016153D01*
X002340Y016153D01*
X002374Y016120D01*
D18*
X002511Y014682D02*
X002511Y012910D01*
X002566Y012910D02*
X007054Y012910D01*
X007054Y014682D01*
X002566Y014682D01*
X002566Y012910D01*
X004219Y016003D02*
X004219Y016141D01*
X004219Y016003D02*
X004357Y016003D01*
X004219Y016003D02*
X004219Y017184D01*
X004219Y017046D01*
X004219Y017184D02*
X004357Y017184D01*
X004219Y017184D02*
X005401Y017184D01*
X005401Y017046D01*
X005401Y017184D02*
X005263Y017184D01*
X005401Y017184D02*
X005401Y016003D01*
X005401Y016141D01*
X005401Y016003D02*
X005263Y016003D01*
X005401Y016003D02*
X004219Y016003D01*
X006020Y017566D02*
X006020Y018566D01*
X007320Y018566D01*
X007320Y017566D01*
X006020Y017566D01*
X007109Y014682D02*
X007109Y012910D01*
D19*
X005437Y007081D02*
X005381Y007081D01*
X005352Y007053D01*
X005300Y007053D02*
X005272Y007081D01*
X005215Y007081D01*
X005186Y007053D01*
X005186Y006939D01*
X005215Y006911D01*
X005272Y006911D01*
X005300Y006939D01*
X005300Y006996D01*
X005243Y006996D01*
X005134Y006911D02*
X005021Y006911D01*
X005021Y007081D01*
X005134Y007081D01*
X005077Y006996D02*
X005021Y006996D01*
X004968Y006996D02*
X004940Y006968D01*
X004855Y006968D01*
X004912Y006968D02*
X004968Y006911D01*
X004968Y006996D02*
X004968Y007053D01*
X004940Y007081D01*
X004855Y007081D01*
X004855Y006911D01*
X005352Y006911D02*
X005466Y007024D01*
X005466Y007053D01*
X005437Y007081D01*
X005466Y006911D02*
X005352Y006911D01*
X003711Y006874D02*
X003584Y006874D01*
X003647Y006874D02*
X003647Y007064D01*
X003584Y007001D01*
X003527Y007032D02*
X003495Y007064D01*
X003431Y007064D01*
X003400Y007032D01*
X003400Y006906D01*
X003431Y006874D01*
X003495Y006874D01*
X003527Y006906D01*
X003527Y006969D01*
X003463Y006969D01*
X003342Y007064D02*
X003216Y007064D01*
X003216Y006874D01*
X003342Y006874D01*
X003279Y006969D02*
X003216Y006969D01*
X003158Y006969D02*
X003127Y006937D01*
X003031Y006937D01*
X003031Y006874D02*
X003031Y007064D01*
X003127Y007064D01*
X003158Y007032D01*
X003158Y006969D01*
X003095Y006937D02*
X003158Y006874D01*
D20*
X003960Y006951D02*
X003960Y005951D01*
X004760Y005951D01*
X004760Y006951D01*
X003960Y006951D01*
D21*
X003504Y015615D02*
X002567Y015615D01*
X002567Y016591D01*
X003504Y016591D01*
X003504Y015615D01*
X003508Y015847D02*
X002563Y015847D01*
X002563Y016319D01*
X003508Y016319D01*
X003508Y015847D01*
X003504Y016796D02*
X003504Y017773D01*
X002567Y017773D01*
X002567Y016796D01*
X003504Y016796D01*
X003508Y017028D02*
X002563Y017028D01*
X002563Y017501D01*
X003508Y017501D01*
X003508Y017028D01*
X003560Y017826D02*
X004060Y017826D01*
X004310Y018076D01*
X004310Y019576D01*
X004560Y019826D01*
X005060Y019826D01*
X005310Y019576D01*
X005310Y018076D01*
X005060Y017826D01*
X004560Y017826D01*
X004310Y018076D01*
X003560Y017826D02*
X003310Y018076D01*
X003310Y019576D01*
X003560Y019826D01*
X004060Y019826D01*
X004310Y019576D01*
X003310Y019576D02*
X003060Y019826D01*
X002560Y019826D01*
X002310Y019576D01*
X002310Y018076D01*
X002560Y017826D01*
X003060Y017826D01*
X003310Y018076D01*
X003060Y017694D02*
X002560Y017694D01*
X006341Y017305D02*
X006341Y016328D01*
X007279Y016328D01*
X007279Y017305D01*
X006341Y017305D01*
X006338Y017033D02*
X007282Y017033D01*
X007282Y016560D01*
X006338Y016560D01*
X006338Y017033D01*
D22*
X004810Y018326D03*
X004810Y019326D03*
X003810Y019326D03*
X003810Y018326D03*
X002810Y018326D03*
X002810Y019326D03*
X008585Y017836D03*
X008585Y016836D03*
X008585Y015836D03*
X008585Y014836D03*
X008585Y013836D03*
X008585Y012836D03*
X008585Y011836D03*
X008585Y010836D03*
X008585Y009836D03*
X008585Y008836D03*
D23*
X003914Y016991D03*
X003914Y016991D03*
D24*
X003331Y017304D03*
X003331Y016123D03*
X007105Y016836D03*
M02*
