G75*
%MOIN*%
%OFA0B0*%
%FSLAX24Y24*%
%IPPOS*%
%LPD*%
%AMOC8*
5,1,8,0,0,1.08239X$1,22.5*
%
%ADD10R,0.0404X0.0326*%
%ADD11R,0.0326X0.0404*%
%ADD12C,0.0207*%
%ADD13R,0.0250X0.0350*%
%ADD14C,0.0030*%
%ADD15R,0.0168X0.0267*%
%ADD16R,0.0168X0.0255*%
%ADD17C,0.0010*%
%ADD18R,0.0837X0.0286*%
%ADD19C,0.0790*%
%ADD20C,0.0038*%
%ADD21OC8,0.0581*%
%ADD22OC8,0.0530*%
%ADD23R,0.0150X0.0310*%
%ADD24R,0.0390X0.0250*%
%ADD25R,0.0148X0.0290*%
%ADD26OC8,0.0404*%
D10*
X002390Y006176D03*
X002390Y006687D03*
X001110Y006670D03*
X001110Y007182D03*
X001110Y008270D03*
X001110Y008782D03*
X001080Y010170D03*
X001080Y010682D03*
X001090Y011570D03*
X001090Y012082D03*
X001090Y012750D03*
X001090Y013262D03*
X001090Y014148D03*
X001090Y014659D03*
X001090Y015770D03*
X001090Y016282D03*
X001090Y017770D03*
X001090Y018282D03*
X001090Y019090D03*
X001090Y019602D03*
X005650Y018662D03*
X005650Y018150D03*
X005910Y006732D03*
X005910Y006220D03*
X006510Y006220D03*
X006510Y006732D03*
X007110Y006732D03*
X007110Y006220D03*
D11*
X008304Y006426D03*
X008304Y005843D03*
X008816Y005843D03*
X008816Y006426D03*
X003566Y005661D03*
X003054Y005661D03*
X006514Y018846D03*
X006514Y019386D03*
X007026Y019386D03*
X007026Y018846D03*
X008214Y019056D03*
X008214Y019566D03*
X008726Y019566D03*
X008726Y019056D03*
D12*
X006616Y011552D03*
X006616Y011237D03*
X006616Y010922D03*
X006616Y010607D03*
X006616Y010292D03*
X006616Y009977D03*
X006616Y009662D03*
X006616Y009347D03*
X006616Y009032D03*
X006616Y008717D03*
X006616Y008402D03*
X006616Y008087D03*
X006616Y007772D03*
X006301Y007772D03*
X006301Y008087D03*
X006301Y008402D03*
X006301Y008717D03*
X006301Y009032D03*
X006301Y009347D03*
X006301Y009662D03*
X006301Y009977D03*
X006301Y010292D03*
X006301Y010607D03*
X006301Y010922D03*
X006301Y011237D03*
X006301Y011552D03*
X005986Y011552D03*
X005986Y011237D03*
X005986Y010922D03*
X005986Y010607D03*
X005986Y010292D03*
X005986Y009977D03*
X005986Y009662D03*
X005986Y009347D03*
X005986Y009032D03*
X005986Y008717D03*
X005986Y008402D03*
X005986Y008087D03*
X005986Y007772D03*
X005671Y007772D03*
X005671Y008087D03*
X005671Y008402D03*
X005671Y008717D03*
X005671Y009032D03*
X005671Y009347D03*
X005671Y009662D03*
X005671Y009977D03*
X005671Y010292D03*
X005671Y010607D03*
X005671Y010922D03*
X005671Y011237D03*
X005671Y011552D03*
X005356Y011552D03*
X005356Y011237D03*
X005356Y010922D03*
X005356Y010607D03*
X005356Y010292D03*
X005356Y009977D03*
X005356Y009662D03*
X005356Y009347D03*
X005356Y009032D03*
X005356Y008717D03*
X005356Y008402D03*
X005356Y008087D03*
X005356Y007772D03*
X005041Y007772D03*
X005041Y008087D03*
X005041Y008402D03*
X005041Y008717D03*
X005041Y009032D03*
X005041Y009347D03*
X005041Y009662D03*
X005041Y009977D03*
X005041Y010292D03*
X005041Y010607D03*
X005041Y010922D03*
X005041Y011237D03*
X005041Y011552D03*
X004727Y011552D03*
X004727Y011237D03*
X004727Y010922D03*
X004727Y010607D03*
X004727Y010292D03*
X004727Y009977D03*
X004727Y009662D03*
X004727Y009347D03*
X004727Y009032D03*
X004727Y008717D03*
X004727Y008402D03*
X004727Y008087D03*
X004727Y007772D03*
X004412Y007772D03*
X004412Y008087D03*
X004412Y008402D03*
X004412Y008717D03*
X004412Y009032D03*
X004412Y009347D03*
X004412Y009662D03*
X004412Y009977D03*
X004412Y010292D03*
X004412Y010607D03*
X004412Y010922D03*
X004412Y011237D03*
X004412Y011552D03*
X004097Y011552D03*
X004097Y011237D03*
X004097Y010922D03*
X004097Y010607D03*
X004097Y010292D03*
X004097Y009977D03*
X004097Y009662D03*
X004097Y009347D03*
X004097Y009032D03*
X004097Y008717D03*
X004097Y008402D03*
X004097Y008087D03*
X004097Y007772D03*
X003782Y007772D03*
X003782Y008087D03*
X003782Y008402D03*
X003782Y008717D03*
X003782Y009032D03*
X003782Y009347D03*
X003782Y009662D03*
X003782Y009977D03*
X003782Y010292D03*
X003782Y010607D03*
X003782Y010922D03*
X003782Y011237D03*
X003782Y011552D03*
X003467Y011552D03*
X003467Y011237D03*
X003467Y010922D03*
X003467Y010607D03*
X003467Y010292D03*
X003467Y009977D03*
X003467Y009662D03*
X003467Y009347D03*
X003467Y009032D03*
X003467Y008717D03*
X003467Y008402D03*
X003467Y008087D03*
X003467Y007772D03*
X003152Y007772D03*
X003152Y008087D03*
X003152Y008402D03*
X003152Y008717D03*
X003152Y009032D03*
X003152Y009347D03*
X003152Y009662D03*
X003152Y009977D03*
X003152Y010292D03*
X003152Y010607D03*
X003152Y010922D03*
X003152Y011237D03*
X003152Y011552D03*
X002837Y011552D03*
X002837Y011237D03*
X002837Y010922D03*
X002837Y010607D03*
X002837Y010292D03*
X002837Y009977D03*
X002837Y009662D03*
X002837Y009347D03*
X002837Y009032D03*
X002837Y008717D03*
X002837Y008402D03*
X002837Y008087D03*
X002837Y007772D03*
D13*
X006195Y017766D03*
X006520Y017766D03*
X006820Y017766D03*
X007145Y017766D03*
X007145Y018366D03*
X006820Y018366D03*
X006520Y018366D03*
X006195Y018366D03*
D14*
X006194Y015266D02*
X006194Y014586D01*
X006104Y014586D01*
X006104Y015266D01*
X006194Y015266D01*
X006194Y014615D02*
X006104Y014615D01*
X006104Y014644D02*
X006194Y014644D01*
X006194Y014673D02*
X006104Y014673D01*
X006104Y014702D02*
X006194Y014702D01*
X006194Y014731D02*
X006104Y014731D01*
X006104Y014760D02*
X006194Y014760D01*
X006194Y014789D02*
X006104Y014789D01*
X006104Y014818D02*
X006194Y014818D01*
X006194Y014847D02*
X006104Y014847D01*
X006104Y014876D02*
X006194Y014876D01*
X006194Y014905D02*
X006104Y014905D01*
X006104Y014934D02*
X006194Y014934D01*
X006194Y014963D02*
X006104Y014963D01*
X006104Y014992D02*
X006194Y014992D01*
X006194Y015021D02*
X006104Y015021D01*
X006104Y015050D02*
X006194Y015050D01*
X006194Y015079D02*
X006104Y015079D01*
X006104Y015108D02*
X006194Y015108D01*
X006194Y015137D02*
X006104Y015137D01*
X006104Y015166D02*
X006194Y015166D01*
X006194Y015195D02*
X006104Y015195D01*
X006104Y015224D02*
X006194Y015224D01*
X006194Y015253D02*
X006104Y015253D01*
X006036Y015266D02*
X006036Y014586D01*
X005946Y014586D01*
X005946Y015266D01*
X006036Y015266D01*
X006036Y014615D02*
X005946Y014615D01*
X005946Y014644D02*
X006036Y014644D01*
X006036Y014673D02*
X005946Y014673D01*
X005946Y014702D02*
X006036Y014702D01*
X006036Y014731D02*
X005946Y014731D01*
X005946Y014760D02*
X006036Y014760D01*
X006036Y014789D02*
X005946Y014789D01*
X005946Y014818D02*
X006036Y014818D01*
X006036Y014847D02*
X005946Y014847D01*
X005946Y014876D02*
X006036Y014876D01*
X006036Y014905D02*
X005946Y014905D01*
X005946Y014934D02*
X006036Y014934D01*
X006036Y014963D02*
X005946Y014963D01*
X005946Y014992D02*
X006036Y014992D01*
X006036Y015021D02*
X005946Y015021D01*
X005946Y015050D02*
X006036Y015050D01*
X006036Y015079D02*
X005946Y015079D01*
X005946Y015108D02*
X006036Y015108D01*
X006036Y015137D02*
X005946Y015137D01*
X005946Y015166D02*
X006036Y015166D01*
X006036Y015195D02*
X005946Y015195D01*
X005946Y015224D02*
X006036Y015224D01*
X006036Y015253D02*
X005946Y015253D01*
X005879Y015266D02*
X005879Y014586D01*
X005789Y014586D01*
X005789Y015266D01*
X005879Y015266D01*
X005879Y014615D02*
X005789Y014615D01*
X005789Y014644D02*
X005879Y014644D01*
X005879Y014673D02*
X005789Y014673D01*
X005789Y014702D02*
X005879Y014702D01*
X005879Y014731D02*
X005789Y014731D01*
X005789Y014760D02*
X005879Y014760D01*
X005879Y014789D02*
X005789Y014789D01*
X005789Y014818D02*
X005879Y014818D01*
X005879Y014847D02*
X005789Y014847D01*
X005789Y014876D02*
X005879Y014876D01*
X005879Y014905D02*
X005789Y014905D01*
X005789Y014934D02*
X005879Y014934D01*
X005879Y014963D02*
X005789Y014963D01*
X005789Y014992D02*
X005879Y014992D01*
X005879Y015021D02*
X005789Y015021D01*
X005789Y015050D02*
X005879Y015050D01*
X005879Y015079D02*
X005789Y015079D01*
X005789Y015108D02*
X005879Y015108D01*
X005879Y015137D02*
X005789Y015137D01*
X005789Y015166D02*
X005879Y015166D01*
X005879Y015195D02*
X005789Y015195D01*
X005789Y015224D02*
X005879Y015224D01*
X005879Y015253D02*
X005789Y015253D01*
X005721Y015266D02*
X005721Y014586D01*
X005631Y014586D01*
X005631Y015266D01*
X005721Y015266D01*
X005721Y014615D02*
X005631Y014615D01*
X005631Y014644D02*
X005721Y014644D01*
X005721Y014673D02*
X005631Y014673D01*
X005631Y014702D02*
X005721Y014702D01*
X005721Y014731D02*
X005631Y014731D01*
X005631Y014760D02*
X005721Y014760D01*
X005721Y014789D02*
X005631Y014789D01*
X005631Y014818D02*
X005721Y014818D01*
X005721Y014847D02*
X005631Y014847D01*
X005631Y014876D02*
X005721Y014876D01*
X005721Y014905D02*
X005631Y014905D01*
X005631Y014934D02*
X005721Y014934D01*
X005721Y014963D02*
X005631Y014963D01*
X005631Y014992D02*
X005721Y014992D01*
X005721Y015021D02*
X005631Y015021D01*
X005631Y015050D02*
X005721Y015050D01*
X005721Y015079D02*
X005631Y015079D01*
X005631Y015108D02*
X005721Y015108D01*
X005721Y015137D02*
X005631Y015137D01*
X005631Y015166D02*
X005721Y015166D01*
X005721Y015195D02*
X005631Y015195D01*
X005631Y015224D02*
X005721Y015224D01*
X005721Y015253D02*
X005631Y015253D01*
X005564Y015266D02*
X005564Y014586D01*
X005474Y014586D01*
X005474Y015266D01*
X005564Y015266D01*
X005564Y014615D02*
X005474Y014615D01*
X005474Y014644D02*
X005564Y014644D01*
X005564Y014673D02*
X005474Y014673D01*
X005474Y014702D02*
X005564Y014702D01*
X005564Y014731D02*
X005474Y014731D01*
X005474Y014760D02*
X005564Y014760D01*
X005564Y014789D02*
X005474Y014789D01*
X005474Y014818D02*
X005564Y014818D01*
X005564Y014847D02*
X005474Y014847D01*
X005474Y014876D02*
X005564Y014876D01*
X005564Y014905D02*
X005474Y014905D01*
X005474Y014934D02*
X005564Y014934D01*
X005564Y014963D02*
X005474Y014963D01*
X005474Y014992D02*
X005564Y014992D01*
X005564Y015021D02*
X005474Y015021D01*
X005474Y015050D02*
X005564Y015050D01*
X005564Y015079D02*
X005474Y015079D01*
X005474Y015108D02*
X005564Y015108D01*
X005564Y015137D02*
X005474Y015137D01*
X005474Y015166D02*
X005564Y015166D01*
X005564Y015195D02*
X005474Y015195D01*
X005474Y015224D02*
X005564Y015224D01*
X005564Y015253D02*
X005474Y015253D01*
X005406Y015266D02*
X005406Y014586D01*
X005316Y014586D01*
X005316Y015266D01*
X005406Y015266D01*
X005406Y014615D02*
X005316Y014615D01*
X005316Y014644D02*
X005406Y014644D01*
X005406Y014673D02*
X005316Y014673D01*
X005316Y014702D02*
X005406Y014702D01*
X005406Y014731D02*
X005316Y014731D01*
X005316Y014760D02*
X005406Y014760D01*
X005406Y014789D02*
X005316Y014789D01*
X005316Y014818D02*
X005406Y014818D01*
X005406Y014847D02*
X005316Y014847D01*
X005316Y014876D02*
X005406Y014876D01*
X005406Y014905D02*
X005316Y014905D01*
X005316Y014934D02*
X005406Y014934D01*
X005406Y014963D02*
X005316Y014963D01*
X005316Y014992D02*
X005406Y014992D01*
X005406Y015021D02*
X005316Y015021D01*
X005316Y015050D02*
X005406Y015050D01*
X005406Y015079D02*
X005316Y015079D01*
X005316Y015108D02*
X005406Y015108D01*
X005406Y015137D02*
X005316Y015137D01*
X005316Y015166D02*
X005406Y015166D01*
X005406Y015195D02*
X005316Y015195D01*
X005316Y015224D02*
X005406Y015224D01*
X005406Y015253D02*
X005316Y015253D01*
X005249Y015266D02*
X005249Y014586D01*
X005159Y014586D01*
X005159Y015266D01*
X005249Y015266D01*
X005249Y014615D02*
X005159Y014615D01*
X005159Y014644D02*
X005249Y014644D01*
X005249Y014673D02*
X005159Y014673D01*
X005159Y014702D02*
X005249Y014702D01*
X005249Y014731D02*
X005159Y014731D01*
X005159Y014760D02*
X005249Y014760D01*
X005249Y014789D02*
X005159Y014789D01*
X005159Y014818D02*
X005249Y014818D01*
X005249Y014847D02*
X005159Y014847D01*
X005159Y014876D02*
X005249Y014876D01*
X005249Y014905D02*
X005159Y014905D01*
X005159Y014934D02*
X005249Y014934D01*
X005249Y014963D02*
X005159Y014963D01*
X005159Y014992D02*
X005249Y014992D01*
X005249Y015021D02*
X005159Y015021D01*
X005159Y015050D02*
X005249Y015050D01*
X005249Y015079D02*
X005159Y015079D01*
X005159Y015108D02*
X005249Y015108D01*
X005249Y015137D02*
X005159Y015137D01*
X005159Y015166D02*
X005249Y015166D01*
X005249Y015195D02*
X005159Y015195D01*
X005159Y015224D02*
X005249Y015224D01*
X005249Y015253D02*
X005159Y015253D01*
X005091Y015266D02*
X005091Y014586D01*
X005001Y014586D01*
X005001Y015266D01*
X005091Y015266D01*
X005091Y014615D02*
X005001Y014615D01*
X005001Y014644D02*
X005091Y014644D01*
X005091Y014673D02*
X005001Y014673D01*
X005001Y014702D02*
X005091Y014702D01*
X005091Y014731D02*
X005001Y014731D01*
X005001Y014760D02*
X005091Y014760D01*
X005091Y014789D02*
X005001Y014789D01*
X005001Y014818D02*
X005091Y014818D01*
X005091Y014847D02*
X005001Y014847D01*
X005001Y014876D02*
X005091Y014876D01*
X005091Y014905D02*
X005001Y014905D01*
X005001Y014934D02*
X005091Y014934D01*
X005091Y014963D02*
X005001Y014963D01*
X005001Y014992D02*
X005091Y014992D01*
X005091Y015021D02*
X005001Y015021D01*
X005001Y015050D02*
X005091Y015050D01*
X005091Y015079D02*
X005001Y015079D01*
X005001Y015108D02*
X005091Y015108D01*
X005091Y015137D02*
X005001Y015137D01*
X005001Y015166D02*
X005091Y015166D01*
X005091Y015195D02*
X005001Y015195D01*
X005001Y015224D02*
X005091Y015224D01*
X005091Y015253D02*
X005001Y015253D01*
X004934Y015266D02*
X004934Y014586D01*
X004844Y014586D01*
X004844Y015266D01*
X004934Y015266D01*
X004934Y014615D02*
X004844Y014615D01*
X004844Y014644D02*
X004934Y014644D01*
X004934Y014673D02*
X004844Y014673D01*
X004844Y014702D02*
X004934Y014702D01*
X004934Y014731D02*
X004844Y014731D01*
X004844Y014760D02*
X004934Y014760D01*
X004934Y014789D02*
X004844Y014789D01*
X004844Y014818D02*
X004934Y014818D01*
X004934Y014847D02*
X004844Y014847D01*
X004844Y014876D02*
X004934Y014876D01*
X004934Y014905D02*
X004844Y014905D01*
X004844Y014934D02*
X004934Y014934D01*
X004934Y014963D02*
X004844Y014963D01*
X004844Y014992D02*
X004934Y014992D01*
X004934Y015021D02*
X004844Y015021D01*
X004844Y015050D02*
X004934Y015050D01*
X004934Y015079D02*
X004844Y015079D01*
X004844Y015108D02*
X004934Y015108D01*
X004934Y015137D02*
X004844Y015137D01*
X004844Y015166D02*
X004934Y015166D01*
X004934Y015195D02*
X004844Y015195D01*
X004844Y015224D02*
X004934Y015224D01*
X004934Y015253D02*
X004844Y015253D01*
X004776Y015266D02*
X004776Y014586D01*
X004686Y014586D01*
X004686Y015266D01*
X004776Y015266D01*
X004776Y014615D02*
X004686Y014615D01*
X004686Y014644D02*
X004776Y014644D01*
X004776Y014673D02*
X004686Y014673D01*
X004686Y014702D02*
X004776Y014702D01*
X004776Y014731D02*
X004686Y014731D01*
X004686Y014760D02*
X004776Y014760D01*
X004776Y014789D02*
X004686Y014789D01*
X004686Y014818D02*
X004776Y014818D01*
X004776Y014847D02*
X004686Y014847D01*
X004686Y014876D02*
X004776Y014876D01*
X004776Y014905D02*
X004686Y014905D01*
X004686Y014934D02*
X004776Y014934D01*
X004776Y014963D02*
X004686Y014963D01*
X004686Y014992D02*
X004776Y014992D01*
X004776Y015021D02*
X004686Y015021D01*
X004686Y015050D02*
X004776Y015050D01*
X004776Y015079D02*
X004686Y015079D01*
X004686Y015108D02*
X004776Y015108D01*
X004776Y015137D02*
X004686Y015137D01*
X004686Y015166D02*
X004776Y015166D01*
X004776Y015195D02*
X004686Y015195D01*
X004686Y015224D02*
X004776Y015224D01*
X004776Y015253D02*
X004686Y015253D01*
X004619Y015266D02*
X004619Y014586D01*
X004529Y014586D01*
X004529Y015266D01*
X004619Y015266D01*
X004619Y014615D02*
X004529Y014615D01*
X004529Y014644D02*
X004619Y014644D01*
X004619Y014673D02*
X004529Y014673D01*
X004529Y014702D02*
X004619Y014702D01*
X004619Y014731D02*
X004529Y014731D01*
X004529Y014760D02*
X004619Y014760D01*
X004619Y014789D02*
X004529Y014789D01*
X004529Y014818D02*
X004619Y014818D01*
X004619Y014847D02*
X004529Y014847D01*
X004529Y014876D02*
X004619Y014876D01*
X004619Y014905D02*
X004529Y014905D01*
X004529Y014934D02*
X004619Y014934D01*
X004619Y014963D02*
X004529Y014963D01*
X004529Y014992D02*
X004619Y014992D01*
X004619Y015021D02*
X004529Y015021D01*
X004529Y015050D02*
X004619Y015050D01*
X004619Y015079D02*
X004529Y015079D01*
X004529Y015108D02*
X004619Y015108D01*
X004619Y015137D02*
X004529Y015137D01*
X004529Y015166D02*
X004619Y015166D01*
X004619Y015195D02*
X004529Y015195D01*
X004529Y015224D02*
X004619Y015224D01*
X004619Y015253D02*
X004529Y015253D01*
X004461Y015266D02*
X004461Y014586D01*
X004371Y014586D01*
X004371Y015266D01*
X004461Y015266D01*
X004461Y014615D02*
X004371Y014615D01*
X004371Y014644D02*
X004461Y014644D01*
X004461Y014673D02*
X004371Y014673D01*
X004371Y014702D02*
X004461Y014702D01*
X004461Y014731D02*
X004371Y014731D01*
X004371Y014760D02*
X004461Y014760D01*
X004461Y014789D02*
X004371Y014789D01*
X004371Y014818D02*
X004461Y014818D01*
X004461Y014847D02*
X004371Y014847D01*
X004371Y014876D02*
X004461Y014876D01*
X004461Y014905D02*
X004371Y014905D01*
X004371Y014934D02*
X004461Y014934D01*
X004461Y014963D02*
X004371Y014963D01*
X004371Y014992D02*
X004461Y014992D01*
X004461Y015021D02*
X004371Y015021D01*
X004371Y015050D02*
X004461Y015050D01*
X004461Y015079D02*
X004371Y015079D01*
X004371Y015108D02*
X004461Y015108D01*
X004461Y015137D02*
X004371Y015137D01*
X004371Y015166D02*
X004461Y015166D01*
X004461Y015195D02*
X004371Y015195D01*
X004371Y015224D02*
X004461Y015224D01*
X004461Y015253D02*
X004371Y015253D01*
X004304Y015266D02*
X004304Y014586D01*
X004214Y014586D01*
X004214Y015266D01*
X004304Y015266D01*
X004304Y014615D02*
X004214Y014615D01*
X004214Y014644D02*
X004304Y014644D01*
X004304Y014673D02*
X004214Y014673D01*
X004214Y014702D02*
X004304Y014702D01*
X004304Y014731D02*
X004214Y014731D01*
X004214Y014760D02*
X004304Y014760D01*
X004304Y014789D02*
X004214Y014789D01*
X004214Y014818D02*
X004304Y014818D01*
X004304Y014847D02*
X004214Y014847D01*
X004214Y014876D02*
X004304Y014876D01*
X004304Y014905D02*
X004214Y014905D01*
X004214Y014934D02*
X004304Y014934D01*
X004304Y014963D02*
X004214Y014963D01*
X004214Y014992D02*
X004304Y014992D01*
X004304Y015021D02*
X004214Y015021D01*
X004214Y015050D02*
X004304Y015050D01*
X004304Y015079D02*
X004214Y015079D01*
X004214Y015108D02*
X004304Y015108D01*
X004304Y015137D02*
X004214Y015137D01*
X004214Y015166D02*
X004304Y015166D01*
X004304Y015195D02*
X004214Y015195D01*
X004214Y015224D02*
X004304Y015224D01*
X004304Y015253D02*
X004214Y015253D01*
X004146Y015266D02*
X004146Y014586D01*
X004056Y014586D01*
X004056Y015266D01*
X004146Y015266D01*
X004146Y014615D02*
X004056Y014615D01*
X004056Y014644D02*
X004146Y014644D01*
X004146Y014673D02*
X004056Y014673D01*
X004056Y014702D02*
X004146Y014702D01*
X004146Y014731D02*
X004056Y014731D01*
X004056Y014760D02*
X004146Y014760D01*
X004146Y014789D02*
X004056Y014789D01*
X004056Y014818D02*
X004146Y014818D01*
X004146Y014847D02*
X004056Y014847D01*
X004056Y014876D02*
X004146Y014876D01*
X004146Y014905D02*
X004056Y014905D01*
X004056Y014934D02*
X004146Y014934D01*
X004146Y014963D02*
X004056Y014963D01*
X004056Y014992D02*
X004146Y014992D01*
X004146Y015021D02*
X004056Y015021D01*
X004056Y015050D02*
X004146Y015050D01*
X004146Y015079D02*
X004056Y015079D01*
X004056Y015108D02*
X004146Y015108D01*
X004146Y015137D02*
X004056Y015137D01*
X004056Y015166D02*
X004146Y015166D01*
X004146Y015195D02*
X004056Y015195D01*
X004056Y015224D02*
X004146Y015224D01*
X004146Y015253D02*
X004056Y015253D01*
X003989Y015266D02*
X003989Y014586D01*
X003899Y014586D01*
X003899Y015266D01*
X003989Y015266D01*
X003989Y014615D02*
X003899Y014615D01*
X003899Y014644D02*
X003989Y014644D01*
X003989Y014673D02*
X003899Y014673D01*
X003899Y014702D02*
X003989Y014702D01*
X003989Y014731D02*
X003899Y014731D01*
X003899Y014760D02*
X003989Y014760D01*
X003989Y014789D02*
X003899Y014789D01*
X003899Y014818D02*
X003989Y014818D01*
X003989Y014847D02*
X003899Y014847D01*
X003899Y014876D02*
X003989Y014876D01*
X003989Y014905D02*
X003899Y014905D01*
X003899Y014934D02*
X003989Y014934D01*
X003989Y014963D02*
X003899Y014963D01*
X003899Y014992D02*
X003989Y014992D01*
X003989Y015021D02*
X003899Y015021D01*
X003899Y015050D02*
X003989Y015050D01*
X003989Y015079D02*
X003899Y015079D01*
X003899Y015108D02*
X003989Y015108D01*
X003989Y015137D02*
X003899Y015137D01*
X003899Y015166D02*
X003989Y015166D01*
X003989Y015195D02*
X003899Y015195D01*
X003899Y015224D02*
X003989Y015224D01*
X003989Y015253D02*
X003899Y015253D01*
X003831Y015266D02*
X003831Y014586D01*
X003741Y014586D01*
X003741Y015266D01*
X003831Y015266D01*
X003831Y014615D02*
X003741Y014615D01*
X003741Y014644D02*
X003831Y014644D01*
X003831Y014673D02*
X003741Y014673D01*
X003741Y014702D02*
X003831Y014702D01*
X003831Y014731D02*
X003741Y014731D01*
X003741Y014760D02*
X003831Y014760D01*
X003831Y014789D02*
X003741Y014789D01*
X003741Y014818D02*
X003831Y014818D01*
X003831Y014847D02*
X003741Y014847D01*
X003741Y014876D02*
X003831Y014876D01*
X003831Y014905D02*
X003741Y014905D01*
X003741Y014934D02*
X003831Y014934D01*
X003831Y014963D02*
X003741Y014963D01*
X003741Y014992D02*
X003831Y014992D01*
X003831Y015021D02*
X003741Y015021D01*
X003741Y015050D02*
X003831Y015050D01*
X003831Y015079D02*
X003741Y015079D01*
X003741Y015108D02*
X003831Y015108D01*
X003831Y015137D02*
X003741Y015137D01*
X003741Y015166D02*
X003831Y015166D01*
X003831Y015195D02*
X003741Y015195D01*
X003741Y015224D02*
X003831Y015224D01*
X003831Y015253D02*
X003741Y015253D01*
X003674Y015266D02*
X003674Y014586D01*
X003584Y014586D01*
X003584Y015266D01*
X003674Y015266D01*
X003674Y014615D02*
X003584Y014615D01*
X003584Y014644D02*
X003674Y014644D01*
X003674Y014673D02*
X003584Y014673D01*
X003584Y014702D02*
X003674Y014702D01*
X003674Y014731D02*
X003584Y014731D01*
X003584Y014760D02*
X003674Y014760D01*
X003674Y014789D02*
X003584Y014789D01*
X003584Y014818D02*
X003674Y014818D01*
X003674Y014847D02*
X003584Y014847D01*
X003584Y014876D02*
X003674Y014876D01*
X003674Y014905D02*
X003584Y014905D01*
X003584Y014934D02*
X003674Y014934D01*
X003674Y014963D02*
X003584Y014963D01*
X003584Y014992D02*
X003674Y014992D01*
X003674Y015021D02*
X003584Y015021D01*
X003584Y015050D02*
X003674Y015050D01*
X003674Y015079D02*
X003584Y015079D01*
X003584Y015108D02*
X003674Y015108D01*
X003674Y015137D02*
X003584Y015137D01*
X003584Y015166D02*
X003674Y015166D01*
X003674Y015195D02*
X003584Y015195D01*
X003584Y015224D02*
X003674Y015224D01*
X003674Y015253D02*
X003584Y015253D01*
X003516Y015266D02*
X003516Y014586D01*
X003426Y014586D01*
X003426Y015266D01*
X003516Y015266D01*
X003516Y014615D02*
X003426Y014615D01*
X003426Y014644D02*
X003516Y014644D01*
X003516Y014673D02*
X003426Y014673D01*
X003426Y014702D02*
X003516Y014702D01*
X003516Y014731D02*
X003426Y014731D01*
X003426Y014760D02*
X003516Y014760D01*
X003516Y014789D02*
X003426Y014789D01*
X003426Y014818D02*
X003516Y014818D01*
X003516Y014847D02*
X003426Y014847D01*
X003426Y014876D02*
X003516Y014876D01*
X003516Y014905D02*
X003426Y014905D01*
X003426Y014934D02*
X003516Y014934D01*
X003516Y014963D02*
X003426Y014963D01*
X003426Y014992D02*
X003516Y014992D01*
X003516Y015021D02*
X003426Y015021D01*
X003426Y015050D02*
X003516Y015050D01*
X003516Y015079D02*
X003426Y015079D01*
X003426Y015108D02*
X003516Y015108D01*
X003516Y015137D02*
X003426Y015137D01*
X003426Y015166D02*
X003516Y015166D01*
X003516Y015195D02*
X003426Y015195D01*
X003426Y015224D02*
X003516Y015224D01*
X003516Y015253D02*
X003426Y015253D01*
X003359Y015266D02*
X003359Y014586D01*
X003269Y014586D01*
X003269Y015266D01*
X003359Y015266D01*
X003359Y014615D02*
X003269Y014615D01*
X003269Y014644D02*
X003359Y014644D01*
X003359Y014673D02*
X003269Y014673D01*
X003269Y014702D02*
X003359Y014702D01*
X003359Y014731D02*
X003269Y014731D01*
X003269Y014760D02*
X003359Y014760D01*
X003359Y014789D02*
X003269Y014789D01*
X003269Y014818D02*
X003359Y014818D01*
X003359Y014847D02*
X003269Y014847D01*
X003269Y014876D02*
X003359Y014876D01*
X003359Y014905D02*
X003269Y014905D01*
X003269Y014934D02*
X003359Y014934D01*
X003359Y014963D02*
X003269Y014963D01*
X003269Y014992D02*
X003359Y014992D01*
X003359Y015021D02*
X003269Y015021D01*
X003269Y015050D02*
X003359Y015050D01*
X003359Y015079D02*
X003269Y015079D01*
X003269Y015108D02*
X003359Y015108D01*
X003359Y015137D02*
X003269Y015137D01*
X003269Y015166D02*
X003359Y015166D01*
X003359Y015195D02*
X003269Y015195D01*
X003269Y015224D02*
X003359Y015224D01*
X003359Y015253D02*
X003269Y015253D01*
X003201Y015266D02*
X003201Y014586D01*
X003111Y014586D01*
X003111Y015266D01*
X003201Y015266D01*
X003201Y014615D02*
X003111Y014615D01*
X003111Y014644D02*
X003201Y014644D01*
X003201Y014673D02*
X003111Y014673D01*
X003111Y014702D02*
X003201Y014702D01*
X003201Y014731D02*
X003111Y014731D01*
X003111Y014760D02*
X003201Y014760D01*
X003201Y014789D02*
X003111Y014789D01*
X003111Y014818D02*
X003201Y014818D01*
X003201Y014847D02*
X003111Y014847D01*
X003111Y014876D02*
X003201Y014876D01*
X003201Y014905D02*
X003111Y014905D01*
X003111Y014934D02*
X003201Y014934D01*
X003201Y014963D02*
X003111Y014963D01*
X003111Y014992D02*
X003201Y014992D01*
X003201Y015021D02*
X003111Y015021D01*
X003111Y015050D02*
X003201Y015050D01*
X003201Y015079D02*
X003111Y015079D01*
X003111Y015108D02*
X003201Y015108D01*
X003201Y015137D02*
X003111Y015137D01*
X003111Y015166D02*
X003201Y015166D01*
X003201Y015195D02*
X003111Y015195D01*
X003111Y015224D02*
X003201Y015224D01*
X003201Y015253D02*
X003111Y015253D01*
X003044Y015266D02*
X003044Y014586D01*
X002954Y014586D01*
X002954Y015266D01*
X003044Y015266D01*
X003044Y014615D02*
X002954Y014615D01*
X002954Y014644D02*
X003044Y014644D01*
X003044Y014673D02*
X002954Y014673D01*
X002954Y014702D02*
X003044Y014702D01*
X003044Y014731D02*
X002954Y014731D01*
X002954Y014760D02*
X003044Y014760D01*
X003044Y014789D02*
X002954Y014789D01*
X002954Y014818D02*
X003044Y014818D01*
X003044Y014847D02*
X002954Y014847D01*
X002954Y014876D02*
X003044Y014876D01*
X003044Y014905D02*
X002954Y014905D01*
X002954Y014934D02*
X003044Y014934D01*
X003044Y014963D02*
X002954Y014963D01*
X002954Y014992D02*
X003044Y014992D01*
X003044Y015021D02*
X002954Y015021D01*
X002954Y015050D02*
X003044Y015050D01*
X003044Y015079D02*
X002954Y015079D01*
X002954Y015108D02*
X003044Y015108D01*
X003044Y015137D02*
X002954Y015137D01*
X002954Y015166D02*
X003044Y015166D01*
X003044Y015195D02*
X002954Y015195D01*
X002954Y015224D02*
X003044Y015224D01*
X003044Y015253D02*
X002954Y015253D01*
X002886Y015266D02*
X002886Y014586D01*
X002796Y014586D01*
X002796Y015266D01*
X002886Y015266D01*
X002886Y014615D02*
X002796Y014615D01*
X002796Y014644D02*
X002886Y014644D01*
X002886Y014673D02*
X002796Y014673D01*
X002796Y014702D02*
X002886Y014702D01*
X002886Y014731D02*
X002796Y014731D01*
X002796Y014760D02*
X002886Y014760D01*
X002886Y014789D02*
X002796Y014789D01*
X002796Y014818D02*
X002886Y014818D01*
X002886Y014847D02*
X002796Y014847D01*
X002796Y014876D02*
X002886Y014876D01*
X002886Y014905D02*
X002796Y014905D01*
X002796Y014934D02*
X002886Y014934D01*
X002886Y014963D02*
X002796Y014963D01*
X002796Y014992D02*
X002886Y014992D01*
X002886Y015021D02*
X002796Y015021D01*
X002796Y015050D02*
X002886Y015050D01*
X002886Y015079D02*
X002796Y015079D01*
X002796Y015108D02*
X002886Y015108D01*
X002886Y015137D02*
X002796Y015137D01*
X002796Y015166D02*
X002886Y015166D01*
X002886Y015195D02*
X002796Y015195D01*
X002796Y015224D02*
X002886Y015224D01*
X002886Y015253D02*
X002796Y015253D01*
X002729Y015266D02*
X002729Y014586D01*
X002639Y014586D01*
X002639Y015266D01*
X002729Y015266D01*
X002729Y014615D02*
X002639Y014615D01*
X002639Y014644D02*
X002729Y014644D01*
X002729Y014673D02*
X002639Y014673D01*
X002639Y014702D02*
X002729Y014702D01*
X002729Y014731D02*
X002639Y014731D01*
X002639Y014760D02*
X002729Y014760D01*
X002729Y014789D02*
X002639Y014789D01*
X002639Y014818D02*
X002729Y014818D01*
X002729Y014847D02*
X002639Y014847D01*
X002639Y014876D02*
X002729Y014876D01*
X002729Y014905D02*
X002639Y014905D01*
X002639Y014934D02*
X002729Y014934D01*
X002729Y014963D02*
X002639Y014963D01*
X002639Y014992D02*
X002729Y014992D01*
X002729Y015021D02*
X002639Y015021D01*
X002639Y015050D02*
X002729Y015050D01*
X002729Y015079D02*
X002639Y015079D01*
X002639Y015108D02*
X002729Y015108D01*
X002729Y015137D02*
X002639Y015137D01*
X002639Y015166D02*
X002729Y015166D01*
X002729Y015195D02*
X002639Y015195D01*
X002639Y015224D02*
X002729Y015224D01*
X002729Y015253D02*
X002639Y015253D01*
X002729Y013006D02*
X002729Y012326D01*
X002639Y012326D01*
X002639Y013006D01*
X002729Y013006D01*
X002729Y012355D02*
X002639Y012355D01*
X002639Y012384D02*
X002729Y012384D01*
X002729Y012413D02*
X002639Y012413D01*
X002639Y012442D02*
X002729Y012442D01*
X002729Y012471D02*
X002639Y012471D01*
X002639Y012500D02*
X002729Y012500D01*
X002729Y012529D02*
X002639Y012529D01*
X002639Y012558D02*
X002729Y012558D01*
X002729Y012587D02*
X002639Y012587D01*
X002639Y012616D02*
X002729Y012616D01*
X002729Y012645D02*
X002639Y012645D01*
X002639Y012674D02*
X002729Y012674D01*
X002729Y012703D02*
X002639Y012703D01*
X002639Y012732D02*
X002729Y012732D01*
X002729Y012761D02*
X002639Y012761D01*
X002639Y012790D02*
X002729Y012790D01*
X002729Y012819D02*
X002639Y012819D01*
X002639Y012848D02*
X002729Y012848D01*
X002729Y012877D02*
X002639Y012877D01*
X002639Y012906D02*
X002729Y012906D01*
X002729Y012935D02*
X002639Y012935D01*
X002639Y012964D02*
X002729Y012964D01*
X002729Y012993D02*
X002639Y012993D01*
X002886Y013006D02*
X002886Y012326D01*
X002796Y012326D01*
X002796Y013006D01*
X002886Y013006D01*
X002886Y012355D02*
X002796Y012355D01*
X002796Y012384D02*
X002886Y012384D01*
X002886Y012413D02*
X002796Y012413D01*
X002796Y012442D02*
X002886Y012442D01*
X002886Y012471D02*
X002796Y012471D01*
X002796Y012500D02*
X002886Y012500D01*
X002886Y012529D02*
X002796Y012529D01*
X002796Y012558D02*
X002886Y012558D01*
X002886Y012587D02*
X002796Y012587D01*
X002796Y012616D02*
X002886Y012616D01*
X002886Y012645D02*
X002796Y012645D01*
X002796Y012674D02*
X002886Y012674D01*
X002886Y012703D02*
X002796Y012703D01*
X002796Y012732D02*
X002886Y012732D01*
X002886Y012761D02*
X002796Y012761D01*
X002796Y012790D02*
X002886Y012790D01*
X002886Y012819D02*
X002796Y012819D01*
X002796Y012848D02*
X002886Y012848D01*
X002886Y012877D02*
X002796Y012877D01*
X002796Y012906D02*
X002886Y012906D01*
X002886Y012935D02*
X002796Y012935D01*
X002796Y012964D02*
X002886Y012964D01*
X002886Y012993D02*
X002796Y012993D01*
X003044Y013006D02*
X003044Y012326D01*
X002954Y012326D01*
X002954Y013006D01*
X003044Y013006D01*
X003044Y012355D02*
X002954Y012355D01*
X002954Y012384D02*
X003044Y012384D01*
X003044Y012413D02*
X002954Y012413D01*
X002954Y012442D02*
X003044Y012442D01*
X003044Y012471D02*
X002954Y012471D01*
X002954Y012500D02*
X003044Y012500D01*
X003044Y012529D02*
X002954Y012529D01*
X002954Y012558D02*
X003044Y012558D01*
X003044Y012587D02*
X002954Y012587D01*
X002954Y012616D02*
X003044Y012616D01*
X003044Y012645D02*
X002954Y012645D01*
X002954Y012674D02*
X003044Y012674D01*
X003044Y012703D02*
X002954Y012703D01*
X002954Y012732D02*
X003044Y012732D01*
X003044Y012761D02*
X002954Y012761D01*
X002954Y012790D02*
X003044Y012790D01*
X003044Y012819D02*
X002954Y012819D01*
X002954Y012848D02*
X003044Y012848D01*
X003044Y012877D02*
X002954Y012877D01*
X002954Y012906D02*
X003044Y012906D01*
X003044Y012935D02*
X002954Y012935D01*
X002954Y012964D02*
X003044Y012964D01*
X003044Y012993D02*
X002954Y012993D01*
X003201Y013006D02*
X003201Y012326D01*
X003111Y012326D01*
X003111Y013006D01*
X003201Y013006D01*
X003201Y012355D02*
X003111Y012355D01*
X003111Y012384D02*
X003201Y012384D01*
X003201Y012413D02*
X003111Y012413D01*
X003111Y012442D02*
X003201Y012442D01*
X003201Y012471D02*
X003111Y012471D01*
X003111Y012500D02*
X003201Y012500D01*
X003201Y012529D02*
X003111Y012529D01*
X003111Y012558D02*
X003201Y012558D01*
X003201Y012587D02*
X003111Y012587D01*
X003111Y012616D02*
X003201Y012616D01*
X003201Y012645D02*
X003111Y012645D01*
X003111Y012674D02*
X003201Y012674D01*
X003201Y012703D02*
X003111Y012703D01*
X003111Y012732D02*
X003201Y012732D01*
X003201Y012761D02*
X003111Y012761D01*
X003111Y012790D02*
X003201Y012790D01*
X003201Y012819D02*
X003111Y012819D01*
X003111Y012848D02*
X003201Y012848D01*
X003201Y012877D02*
X003111Y012877D01*
X003111Y012906D02*
X003201Y012906D01*
X003201Y012935D02*
X003111Y012935D01*
X003111Y012964D02*
X003201Y012964D01*
X003201Y012993D02*
X003111Y012993D01*
X003359Y013006D02*
X003359Y012326D01*
X003269Y012326D01*
X003269Y013006D01*
X003359Y013006D01*
X003359Y012355D02*
X003269Y012355D01*
X003269Y012384D02*
X003359Y012384D01*
X003359Y012413D02*
X003269Y012413D01*
X003269Y012442D02*
X003359Y012442D01*
X003359Y012471D02*
X003269Y012471D01*
X003269Y012500D02*
X003359Y012500D01*
X003359Y012529D02*
X003269Y012529D01*
X003269Y012558D02*
X003359Y012558D01*
X003359Y012587D02*
X003269Y012587D01*
X003269Y012616D02*
X003359Y012616D01*
X003359Y012645D02*
X003269Y012645D01*
X003269Y012674D02*
X003359Y012674D01*
X003359Y012703D02*
X003269Y012703D01*
X003269Y012732D02*
X003359Y012732D01*
X003359Y012761D02*
X003269Y012761D01*
X003269Y012790D02*
X003359Y012790D01*
X003359Y012819D02*
X003269Y012819D01*
X003269Y012848D02*
X003359Y012848D01*
X003359Y012877D02*
X003269Y012877D01*
X003269Y012906D02*
X003359Y012906D01*
X003359Y012935D02*
X003269Y012935D01*
X003269Y012964D02*
X003359Y012964D01*
X003359Y012993D02*
X003269Y012993D01*
X003516Y013006D02*
X003516Y012326D01*
X003426Y012326D01*
X003426Y013006D01*
X003516Y013006D01*
X003516Y012355D02*
X003426Y012355D01*
X003426Y012384D02*
X003516Y012384D01*
X003516Y012413D02*
X003426Y012413D01*
X003426Y012442D02*
X003516Y012442D01*
X003516Y012471D02*
X003426Y012471D01*
X003426Y012500D02*
X003516Y012500D01*
X003516Y012529D02*
X003426Y012529D01*
X003426Y012558D02*
X003516Y012558D01*
X003516Y012587D02*
X003426Y012587D01*
X003426Y012616D02*
X003516Y012616D01*
X003516Y012645D02*
X003426Y012645D01*
X003426Y012674D02*
X003516Y012674D01*
X003516Y012703D02*
X003426Y012703D01*
X003426Y012732D02*
X003516Y012732D01*
X003516Y012761D02*
X003426Y012761D01*
X003426Y012790D02*
X003516Y012790D01*
X003516Y012819D02*
X003426Y012819D01*
X003426Y012848D02*
X003516Y012848D01*
X003516Y012877D02*
X003426Y012877D01*
X003426Y012906D02*
X003516Y012906D01*
X003516Y012935D02*
X003426Y012935D01*
X003426Y012964D02*
X003516Y012964D01*
X003516Y012993D02*
X003426Y012993D01*
X003674Y013006D02*
X003674Y012326D01*
X003584Y012326D01*
X003584Y013006D01*
X003674Y013006D01*
X003674Y012355D02*
X003584Y012355D01*
X003584Y012384D02*
X003674Y012384D01*
X003674Y012413D02*
X003584Y012413D01*
X003584Y012442D02*
X003674Y012442D01*
X003674Y012471D02*
X003584Y012471D01*
X003584Y012500D02*
X003674Y012500D01*
X003674Y012529D02*
X003584Y012529D01*
X003584Y012558D02*
X003674Y012558D01*
X003674Y012587D02*
X003584Y012587D01*
X003584Y012616D02*
X003674Y012616D01*
X003674Y012645D02*
X003584Y012645D01*
X003584Y012674D02*
X003674Y012674D01*
X003674Y012703D02*
X003584Y012703D01*
X003584Y012732D02*
X003674Y012732D01*
X003674Y012761D02*
X003584Y012761D01*
X003584Y012790D02*
X003674Y012790D01*
X003674Y012819D02*
X003584Y012819D01*
X003584Y012848D02*
X003674Y012848D01*
X003674Y012877D02*
X003584Y012877D01*
X003584Y012906D02*
X003674Y012906D01*
X003674Y012935D02*
X003584Y012935D01*
X003584Y012964D02*
X003674Y012964D01*
X003674Y012993D02*
X003584Y012993D01*
X003831Y013006D02*
X003831Y012326D01*
X003741Y012326D01*
X003741Y013006D01*
X003831Y013006D01*
X003831Y012355D02*
X003741Y012355D01*
X003741Y012384D02*
X003831Y012384D01*
X003831Y012413D02*
X003741Y012413D01*
X003741Y012442D02*
X003831Y012442D01*
X003831Y012471D02*
X003741Y012471D01*
X003741Y012500D02*
X003831Y012500D01*
X003831Y012529D02*
X003741Y012529D01*
X003741Y012558D02*
X003831Y012558D01*
X003831Y012587D02*
X003741Y012587D01*
X003741Y012616D02*
X003831Y012616D01*
X003831Y012645D02*
X003741Y012645D01*
X003741Y012674D02*
X003831Y012674D01*
X003831Y012703D02*
X003741Y012703D01*
X003741Y012732D02*
X003831Y012732D01*
X003831Y012761D02*
X003741Y012761D01*
X003741Y012790D02*
X003831Y012790D01*
X003831Y012819D02*
X003741Y012819D01*
X003741Y012848D02*
X003831Y012848D01*
X003831Y012877D02*
X003741Y012877D01*
X003741Y012906D02*
X003831Y012906D01*
X003831Y012935D02*
X003741Y012935D01*
X003741Y012964D02*
X003831Y012964D01*
X003831Y012993D02*
X003741Y012993D01*
X003989Y013006D02*
X003989Y012326D01*
X003899Y012326D01*
X003899Y013006D01*
X003989Y013006D01*
X003989Y012355D02*
X003899Y012355D01*
X003899Y012384D02*
X003989Y012384D01*
X003989Y012413D02*
X003899Y012413D01*
X003899Y012442D02*
X003989Y012442D01*
X003989Y012471D02*
X003899Y012471D01*
X003899Y012500D02*
X003989Y012500D01*
X003989Y012529D02*
X003899Y012529D01*
X003899Y012558D02*
X003989Y012558D01*
X003989Y012587D02*
X003899Y012587D01*
X003899Y012616D02*
X003989Y012616D01*
X003989Y012645D02*
X003899Y012645D01*
X003899Y012674D02*
X003989Y012674D01*
X003989Y012703D02*
X003899Y012703D01*
X003899Y012732D02*
X003989Y012732D01*
X003989Y012761D02*
X003899Y012761D01*
X003899Y012790D02*
X003989Y012790D01*
X003989Y012819D02*
X003899Y012819D01*
X003899Y012848D02*
X003989Y012848D01*
X003989Y012877D02*
X003899Y012877D01*
X003899Y012906D02*
X003989Y012906D01*
X003989Y012935D02*
X003899Y012935D01*
X003899Y012964D02*
X003989Y012964D01*
X003989Y012993D02*
X003899Y012993D01*
X004146Y013006D02*
X004146Y012326D01*
X004056Y012326D01*
X004056Y013006D01*
X004146Y013006D01*
X004146Y012355D02*
X004056Y012355D01*
X004056Y012384D02*
X004146Y012384D01*
X004146Y012413D02*
X004056Y012413D01*
X004056Y012442D02*
X004146Y012442D01*
X004146Y012471D02*
X004056Y012471D01*
X004056Y012500D02*
X004146Y012500D01*
X004146Y012529D02*
X004056Y012529D01*
X004056Y012558D02*
X004146Y012558D01*
X004146Y012587D02*
X004056Y012587D01*
X004056Y012616D02*
X004146Y012616D01*
X004146Y012645D02*
X004056Y012645D01*
X004056Y012674D02*
X004146Y012674D01*
X004146Y012703D02*
X004056Y012703D01*
X004056Y012732D02*
X004146Y012732D01*
X004146Y012761D02*
X004056Y012761D01*
X004056Y012790D02*
X004146Y012790D01*
X004146Y012819D02*
X004056Y012819D01*
X004056Y012848D02*
X004146Y012848D01*
X004146Y012877D02*
X004056Y012877D01*
X004056Y012906D02*
X004146Y012906D01*
X004146Y012935D02*
X004056Y012935D01*
X004056Y012964D02*
X004146Y012964D01*
X004146Y012993D02*
X004056Y012993D01*
X004304Y013006D02*
X004304Y012326D01*
X004214Y012326D01*
X004214Y013006D01*
X004304Y013006D01*
X004304Y012355D02*
X004214Y012355D01*
X004214Y012384D02*
X004304Y012384D01*
X004304Y012413D02*
X004214Y012413D01*
X004214Y012442D02*
X004304Y012442D01*
X004304Y012471D02*
X004214Y012471D01*
X004214Y012500D02*
X004304Y012500D01*
X004304Y012529D02*
X004214Y012529D01*
X004214Y012558D02*
X004304Y012558D01*
X004304Y012587D02*
X004214Y012587D01*
X004214Y012616D02*
X004304Y012616D01*
X004304Y012645D02*
X004214Y012645D01*
X004214Y012674D02*
X004304Y012674D01*
X004304Y012703D02*
X004214Y012703D01*
X004214Y012732D02*
X004304Y012732D01*
X004304Y012761D02*
X004214Y012761D01*
X004214Y012790D02*
X004304Y012790D01*
X004304Y012819D02*
X004214Y012819D01*
X004214Y012848D02*
X004304Y012848D01*
X004304Y012877D02*
X004214Y012877D01*
X004214Y012906D02*
X004304Y012906D01*
X004304Y012935D02*
X004214Y012935D01*
X004214Y012964D02*
X004304Y012964D01*
X004304Y012993D02*
X004214Y012993D01*
X004461Y013006D02*
X004461Y012326D01*
X004371Y012326D01*
X004371Y013006D01*
X004461Y013006D01*
X004461Y012355D02*
X004371Y012355D01*
X004371Y012384D02*
X004461Y012384D01*
X004461Y012413D02*
X004371Y012413D01*
X004371Y012442D02*
X004461Y012442D01*
X004461Y012471D02*
X004371Y012471D01*
X004371Y012500D02*
X004461Y012500D01*
X004461Y012529D02*
X004371Y012529D01*
X004371Y012558D02*
X004461Y012558D01*
X004461Y012587D02*
X004371Y012587D01*
X004371Y012616D02*
X004461Y012616D01*
X004461Y012645D02*
X004371Y012645D01*
X004371Y012674D02*
X004461Y012674D01*
X004461Y012703D02*
X004371Y012703D01*
X004371Y012732D02*
X004461Y012732D01*
X004461Y012761D02*
X004371Y012761D01*
X004371Y012790D02*
X004461Y012790D01*
X004461Y012819D02*
X004371Y012819D01*
X004371Y012848D02*
X004461Y012848D01*
X004461Y012877D02*
X004371Y012877D01*
X004371Y012906D02*
X004461Y012906D01*
X004461Y012935D02*
X004371Y012935D01*
X004371Y012964D02*
X004461Y012964D01*
X004461Y012993D02*
X004371Y012993D01*
X004619Y013006D02*
X004619Y012326D01*
X004529Y012326D01*
X004529Y013006D01*
X004619Y013006D01*
X004619Y012355D02*
X004529Y012355D01*
X004529Y012384D02*
X004619Y012384D01*
X004619Y012413D02*
X004529Y012413D01*
X004529Y012442D02*
X004619Y012442D01*
X004619Y012471D02*
X004529Y012471D01*
X004529Y012500D02*
X004619Y012500D01*
X004619Y012529D02*
X004529Y012529D01*
X004529Y012558D02*
X004619Y012558D01*
X004619Y012587D02*
X004529Y012587D01*
X004529Y012616D02*
X004619Y012616D01*
X004619Y012645D02*
X004529Y012645D01*
X004529Y012674D02*
X004619Y012674D01*
X004619Y012703D02*
X004529Y012703D01*
X004529Y012732D02*
X004619Y012732D01*
X004619Y012761D02*
X004529Y012761D01*
X004529Y012790D02*
X004619Y012790D01*
X004619Y012819D02*
X004529Y012819D01*
X004529Y012848D02*
X004619Y012848D01*
X004619Y012877D02*
X004529Y012877D01*
X004529Y012906D02*
X004619Y012906D01*
X004619Y012935D02*
X004529Y012935D01*
X004529Y012964D02*
X004619Y012964D01*
X004619Y012993D02*
X004529Y012993D01*
X004776Y013006D02*
X004776Y012326D01*
X004686Y012326D01*
X004686Y013006D01*
X004776Y013006D01*
X004776Y012355D02*
X004686Y012355D01*
X004686Y012384D02*
X004776Y012384D01*
X004776Y012413D02*
X004686Y012413D01*
X004686Y012442D02*
X004776Y012442D01*
X004776Y012471D02*
X004686Y012471D01*
X004686Y012500D02*
X004776Y012500D01*
X004776Y012529D02*
X004686Y012529D01*
X004686Y012558D02*
X004776Y012558D01*
X004776Y012587D02*
X004686Y012587D01*
X004686Y012616D02*
X004776Y012616D01*
X004776Y012645D02*
X004686Y012645D01*
X004686Y012674D02*
X004776Y012674D01*
X004776Y012703D02*
X004686Y012703D01*
X004686Y012732D02*
X004776Y012732D01*
X004776Y012761D02*
X004686Y012761D01*
X004686Y012790D02*
X004776Y012790D01*
X004776Y012819D02*
X004686Y012819D01*
X004686Y012848D02*
X004776Y012848D01*
X004776Y012877D02*
X004686Y012877D01*
X004686Y012906D02*
X004776Y012906D01*
X004776Y012935D02*
X004686Y012935D01*
X004686Y012964D02*
X004776Y012964D01*
X004776Y012993D02*
X004686Y012993D01*
X004934Y013006D02*
X004934Y012326D01*
X004844Y012326D01*
X004844Y013006D01*
X004934Y013006D01*
X004934Y012355D02*
X004844Y012355D01*
X004844Y012384D02*
X004934Y012384D01*
X004934Y012413D02*
X004844Y012413D01*
X004844Y012442D02*
X004934Y012442D01*
X004934Y012471D02*
X004844Y012471D01*
X004844Y012500D02*
X004934Y012500D01*
X004934Y012529D02*
X004844Y012529D01*
X004844Y012558D02*
X004934Y012558D01*
X004934Y012587D02*
X004844Y012587D01*
X004844Y012616D02*
X004934Y012616D01*
X004934Y012645D02*
X004844Y012645D01*
X004844Y012674D02*
X004934Y012674D01*
X004934Y012703D02*
X004844Y012703D01*
X004844Y012732D02*
X004934Y012732D01*
X004934Y012761D02*
X004844Y012761D01*
X004844Y012790D02*
X004934Y012790D01*
X004934Y012819D02*
X004844Y012819D01*
X004844Y012848D02*
X004934Y012848D01*
X004934Y012877D02*
X004844Y012877D01*
X004844Y012906D02*
X004934Y012906D01*
X004934Y012935D02*
X004844Y012935D01*
X004844Y012964D02*
X004934Y012964D01*
X004934Y012993D02*
X004844Y012993D01*
X005091Y013006D02*
X005091Y012326D01*
X005001Y012326D01*
X005001Y013006D01*
X005091Y013006D01*
X005091Y012355D02*
X005001Y012355D01*
X005001Y012384D02*
X005091Y012384D01*
X005091Y012413D02*
X005001Y012413D01*
X005001Y012442D02*
X005091Y012442D01*
X005091Y012471D02*
X005001Y012471D01*
X005001Y012500D02*
X005091Y012500D01*
X005091Y012529D02*
X005001Y012529D01*
X005001Y012558D02*
X005091Y012558D01*
X005091Y012587D02*
X005001Y012587D01*
X005001Y012616D02*
X005091Y012616D01*
X005091Y012645D02*
X005001Y012645D01*
X005001Y012674D02*
X005091Y012674D01*
X005091Y012703D02*
X005001Y012703D01*
X005001Y012732D02*
X005091Y012732D01*
X005091Y012761D02*
X005001Y012761D01*
X005001Y012790D02*
X005091Y012790D01*
X005091Y012819D02*
X005001Y012819D01*
X005001Y012848D02*
X005091Y012848D01*
X005091Y012877D02*
X005001Y012877D01*
X005001Y012906D02*
X005091Y012906D01*
X005091Y012935D02*
X005001Y012935D01*
X005001Y012964D02*
X005091Y012964D01*
X005091Y012993D02*
X005001Y012993D01*
X005249Y013006D02*
X005249Y012326D01*
X005159Y012326D01*
X005159Y013006D01*
X005249Y013006D01*
X005249Y012355D02*
X005159Y012355D01*
X005159Y012384D02*
X005249Y012384D01*
X005249Y012413D02*
X005159Y012413D01*
X005159Y012442D02*
X005249Y012442D01*
X005249Y012471D02*
X005159Y012471D01*
X005159Y012500D02*
X005249Y012500D01*
X005249Y012529D02*
X005159Y012529D01*
X005159Y012558D02*
X005249Y012558D01*
X005249Y012587D02*
X005159Y012587D01*
X005159Y012616D02*
X005249Y012616D01*
X005249Y012645D02*
X005159Y012645D01*
X005159Y012674D02*
X005249Y012674D01*
X005249Y012703D02*
X005159Y012703D01*
X005159Y012732D02*
X005249Y012732D01*
X005249Y012761D02*
X005159Y012761D01*
X005159Y012790D02*
X005249Y012790D01*
X005249Y012819D02*
X005159Y012819D01*
X005159Y012848D02*
X005249Y012848D01*
X005249Y012877D02*
X005159Y012877D01*
X005159Y012906D02*
X005249Y012906D01*
X005249Y012935D02*
X005159Y012935D01*
X005159Y012964D02*
X005249Y012964D01*
X005249Y012993D02*
X005159Y012993D01*
X005406Y013006D02*
X005406Y012326D01*
X005316Y012326D01*
X005316Y013006D01*
X005406Y013006D01*
X005406Y012355D02*
X005316Y012355D01*
X005316Y012384D02*
X005406Y012384D01*
X005406Y012413D02*
X005316Y012413D01*
X005316Y012442D02*
X005406Y012442D01*
X005406Y012471D02*
X005316Y012471D01*
X005316Y012500D02*
X005406Y012500D01*
X005406Y012529D02*
X005316Y012529D01*
X005316Y012558D02*
X005406Y012558D01*
X005406Y012587D02*
X005316Y012587D01*
X005316Y012616D02*
X005406Y012616D01*
X005406Y012645D02*
X005316Y012645D01*
X005316Y012674D02*
X005406Y012674D01*
X005406Y012703D02*
X005316Y012703D01*
X005316Y012732D02*
X005406Y012732D01*
X005406Y012761D02*
X005316Y012761D01*
X005316Y012790D02*
X005406Y012790D01*
X005406Y012819D02*
X005316Y012819D01*
X005316Y012848D02*
X005406Y012848D01*
X005406Y012877D02*
X005316Y012877D01*
X005316Y012906D02*
X005406Y012906D01*
X005406Y012935D02*
X005316Y012935D01*
X005316Y012964D02*
X005406Y012964D01*
X005406Y012993D02*
X005316Y012993D01*
X005564Y013006D02*
X005564Y012326D01*
X005474Y012326D01*
X005474Y013006D01*
X005564Y013006D01*
X005564Y012355D02*
X005474Y012355D01*
X005474Y012384D02*
X005564Y012384D01*
X005564Y012413D02*
X005474Y012413D01*
X005474Y012442D02*
X005564Y012442D01*
X005564Y012471D02*
X005474Y012471D01*
X005474Y012500D02*
X005564Y012500D01*
X005564Y012529D02*
X005474Y012529D01*
X005474Y012558D02*
X005564Y012558D01*
X005564Y012587D02*
X005474Y012587D01*
X005474Y012616D02*
X005564Y012616D01*
X005564Y012645D02*
X005474Y012645D01*
X005474Y012674D02*
X005564Y012674D01*
X005564Y012703D02*
X005474Y012703D01*
X005474Y012732D02*
X005564Y012732D01*
X005564Y012761D02*
X005474Y012761D01*
X005474Y012790D02*
X005564Y012790D01*
X005564Y012819D02*
X005474Y012819D01*
X005474Y012848D02*
X005564Y012848D01*
X005564Y012877D02*
X005474Y012877D01*
X005474Y012906D02*
X005564Y012906D01*
X005564Y012935D02*
X005474Y012935D01*
X005474Y012964D02*
X005564Y012964D01*
X005564Y012993D02*
X005474Y012993D01*
X005721Y013006D02*
X005721Y012326D01*
X005631Y012326D01*
X005631Y013006D01*
X005721Y013006D01*
X005721Y012355D02*
X005631Y012355D01*
X005631Y012384D02*
X005721Y012384D01*
X005721Y012413D02*
X005631Y012413D01*
X005631Y012442D02*
X005721Y012442D01*
X005721Y012471D02*
X005631Y012471D01*
X005631Y012500D02*
X005721Y012500D01*
X005721Y012529D02*
X005631Y012529D01*
X005631Y012558D02*
X005721Y012558D01*
X005721Y012587D02*
X005631Y012587D01*
X005631Y012616D02*
X005721Y012616D01*
X005721Y012645D02*
X005631Y012645D01*
X005631Y012674D02*
X005721Y012674D01*
X005721Y012703D02*
X005631Y012703D01*
X005631Y012732D02*
X005721Y012732D01*
X005721Y012761D02*
X005631Y012761D01*
X005631Y012790D02*
X005721Y012790D01*
X005721Y012819D02*
X005631Y012819D01*
X005631Y012848D02*
X005721Y012848D01*
X005721Y012877D02*
X005631Y012877D01*
X005631Y012906D02*
X005721Y012906D01*
X005721Y012935D02*
X005631Y012935D01*
X005631Y012964D02*
X005721Y012964D01*
X005721Y012993D02*
X005631Y012993D01*
X005879Y013006D02*
X005879Y012326D01*
X005789Y012326D01*
X005789Y013006D01*
X005879Y013006D01*
X005879Y012355D02*
X005789Y012355D01*
X005789Y012384D02*
X005879Y012384D01*
X005879Y012413D02*
X005789Y012413D01*
X005789Y012442D02*
X005879Y012442D01*
X005879Y012471D02*
X005789Y012471D01*
X005789Y012500D02*
X005879Y012500D01*
X005879Y012529D02*
X005789Y012529D01*
X005789Y012558D02*
X005879Y012558D01*
X005879Y012587D02*
X005789Y012587D01*
X005789Y012616D02*
X005879Y012616D01*
X005879Y012645D02*
X005789Y012645D01*
X005789Y012674D02*
X005879Y012674D01*
X005879Y012703D02*
X005789Y012703D01*
X005789Y012732D02*
X005879Y012732D01*
X005879Y012761D02*
X005789Y012761D01*
X005789Y012790D02*
X005879Y012790D01*
X005879Y012819D02*
X005789Y012819D01*
X005789Y012848D02*
X005879Y012848D01*
X005879Y012877D02*
X005789Y012877D01*
X005789Y012906D02*
X005879Y012906D01*
X005879Y012935D02*
X005789Y012935D01*
X005789Y012964D02*
X005879Y012964D01*
X005879Y012993D02*
X005789Y012993D01*
X006036Y013006D02*
X006036Y012326D01*
X005946Y012326D01*
X005946Y013006D01*
X006036Y013006D01*
X006036Y012355D02*
X005946Y012355D01*
X005946Y012384D02*
X006036Y012384D01*
X006036Y012413D02*
X005946Y012413D01*
X005946Y012442D02*
X006036Y012442D01*
X006036Y012471D02*
X005946Y012471D01*
X005946Y012500D02*
X006036Y012500D01*
X006036Y012529D02*
X005946Y012529D01*
X005946Y012558D02*
X006036Y012558D01*
X006036Y012587D02*
X005946Y012587D01*
X005946Y012616D02*
X006036Y012616D01*
X006036Y012645D02*
X005946Y012645D01*
X005946Y012674D02*
X006036Y012674D01*
X006036Y012703D02*
X005946Y012703D01*
X005946Y012732D02*
X006036Y012732D01*
X006036Y012761D02*
X005946Y012761D01*
X005946Y012790D02*
X006036Y012790D01*
X006036Y012819D02*
X005946Y012819D01*
X005946Y012848D02*
X006036Y012848D01*
X006036Y012877D02*
X005946Y012877D01*
X005946Y012906D02*
X006036Y012906D01*
X006036Y012935D02*
X005946Y012935D01*
X005946Y012964D02*
X006036Y012964D01*
X006036Y012993D02*
X005946Y012993D01*
X006194Y013006D02*
X006194Y012326D01*
X006104Y012326D01*
X006104Y013006D01*
X006194Y013006D01*
X006194Y012355D02*
X006104Y012355D01*
X006104Y012384D02*
X006194Y012384D01*
X006194Y012413D02*
X006104Y012413D01*
X006104Y012442D02*
X006194Y012442D01*
X006194Y012471D02*
X006104Y012471D01*
X006104Y012500D02*
X006194Y012500D01*
X006194Y012529D02*
X006104Y012529D01*
X006104Y012558D02*
X006194Y012558D01*
X006194Y012587D02*
X006104Y012587D01*
X006104Y012616D02*
X006194Y012616D01*
X006194Y012645D02*
X006104Y012645D01*
X006104Y012674D02*
X006194Y012674D01*
X006194Y012703D02*
X006104Y012703D01*
X006104Y012732D02*
X006194Y012732D01*
X006194Y012761D02*
X006104Y012761D01*
X006104Y012790D02*
X006194Y012790D01*
X006194Y012819D02*
X006104Y012819D01*
X006104Y012848D02*
X006194Y012848D01*
X006194Y012877D02*
X006104Y012877D01*
X006104Y012906D02*
X006194Y012906D01*
X006194Y012935D02*
X006104Y012935D01*
X006104Y012964D02*
X006194Y012964D01*
X006194Y012993D02*
X006104Y012993D01*
X006351Y013006D02*
X006351Y012326D01*
X006261Y012326D01*
X006261Y013006D01*
X006351Y013006D01*
X006351Y012355D02*
X006261Y012355D01*
X006261Y012384D02*
X006351Y012384D01*
X006351Y012413D02*
X006261Y012413D01*
X006261Y012442D02*
X006351Y012442D01*
X006351Y012471D02*
X006261Y012471D01*
X006261Y012500D02*
X006351Y012500D01*
X006351Y012529D02*
X006261Y012529D01*
X006261Y012558D02*
X006351Y012558D01*
X006351Y012587D02*
X006261Y012587D01*
X006261Y012616D02*
X006351Y012616D01*
X006351Y012645D02*
X006261Y012645D01*
X006261Y012674D02*
X006351Y012674D01*
X006351Y012703D02*
X006261Y012703D01*
X006261Y012732D02*
X006351Y012732D01*
X006351Y012761D02*
X006261Y012761D01*
X006261Y012790D02*
X006351Y012790D01*
X006351Y012819D02*
X006261Y012819D01*
X006261Y012848D02*
X006351Y012848D01*
X006351Y012877D02*
X006261Y012877D01*
X006261Y012906D02*
X006351Y012906D01*
X006351Y012935D02*
X006261Y012935D01*
X006261Y012964D02*
X006351Y012964D01*
X006351Y012993D02*
X006261Y012993D01*
X006509Y013006D02*
X006509Y012326D01*
X006419Y012326D01*
X006419Y013006D01*
X006509Y013006D01*
X006509Y012355D02*
X006419Y012355D01*
X006419Y012384D02*
X006509Y012384D01*
X006509Y012413D02*
X006419Y012413D01*
X006419Y012442D02*
X006509Y012442D01*
X006509Y012471D02*
X006419Y012471D01*
X006419Y012500D02*
X006509Y012500D01*
X006509Y012529D02*
X006419Y012529D01*
X006419Y012558D02*
X006509Y012558D01*
X006509Y012587D02*
X006419Y012587D01*
X006419Y012616D02*
X006509Y012616D01*
X006509Y012645D02*
X006419Y012645D01*
X006419Y012674D02*
X006509Y012674D01*
X006509Y012703D02*
X006419Y012703D01*
X006419Y012732D02*
X006509Y012732D01*
X006509Y012761D02*
X006419Y012761D01*
X006419Y012790D02*
X006509Y012790D01*
X006509Y012819D02*
X006419Y012819D01*
X006419Y012848D02*
X006509Y012848D01*
X006509Y012877D02*
X006419Y012877D01*
X006419Y012906D02*
X006509Y012906D01*
X006509Y012935D02*
X006419Y012935D01*
X006419Y012964D02*
X006509Y012964D01*
X006509Y012993D02*
X006419Y012993D01*
X006666Y013006D02*
X006666Y012326D01*
X006576Y012326D01*
X006576Y013006D01*
X006666Y013006D01*
X006666Y012355D02*
X006576Y012355D01*
X006576Y012384D02*
X006666Y012384D01*
X006666Y012413D02*
X006576Y012413D01*
X006576Y012442D02*
X006666Y012442D01*
X006666Y012471D02*
X006576Y012471D01*
X006576Y012500D02*
X006666Y012500D01*
X006666Y012529D02*
X006576Y012529D01*
X006576Y012558D02*
X006666Y012558D01*
X006666Y012587D02*
X006576Y012587D01*
X006576Y012616D02*
X006666Y012616D01*
X006666Y012645D02*
X006576Y012645D01*
X006576Y012674D02*
X006666Y012674D01*
X006666Y012703D02*
X006576Y012703D01*
X006576Y012732D02*
X006666Y012732D01*
X006666Y012761D02*
X006576Y012761D01*
X006576Y012790D02*
X006666Y012790D01*
X006666Y012819D02*
X006576Y012819D01*
X006576Y012848D02*
X006666Y012848D01*
X006666Y012877D02*
X006576Y012877D01*
X006576Y012906D02*
X006666Y012906D01*
X006666Y012935D02*
X006576Y012935D01*
X006576Y012964D02*
X006666Y012964D01*
X006666Y012993D02*
X006576Y012993D01*
X006824Y013006D02*
X006824Y012326D01*
X006734Y012326D01*
X006734Y013006D01*
X006824Y013006D01*
X006824Y012355D02*
X006734Y012355D01*
X006734Y012384D02*
X006824Y012384D01*
X006824Y012413D02*
X006734Y012413D01*
X006734Y012442D02*
X006824Y012442D01*
X006824Y012471D02*
X006734Y012471D01*
X006734Y012500D02*
X006824Y012500D01*
X006824Y012529D02*
X006734Y012529D01*
X006734Y012558D02*
X006824Y012558D01*
X006824Y012587D02*
X006734Y012587D01*
X006734Y012616D02*
X006824Y012616D01*
X006824Y012645D02*
X006734Y012645D01*
X006734Y012674D02*
X006824Y012674D01*
X006824Y012703D02*
X006734Y012703D01*
X006734Y012732D02*
X006824Y012732D01*
X006824Y012761D02*
X006734Y012761D01*
X006734Y012790D02*
X006824Y012790D01*
X006824Y012819D02*
X006734Y012819D01*
X006734Y012848D02*
X006824Y012848D01*
X006824Y012877D02*
X006734Y012877D01*
X006734Y012906D02*
X006824Y012906D01*
X006824Y012935D02*
X006734Y012935D01*
X006734Y012964D02*
X006824Y012964D01*
X006824Y012993D02*
X006734Y012993D01*
X006981Y013006D02*
X006981Y012326D01*
X006891Y012326D01*
X006891Y013006D01*
X006981Y013006D01*
X006981Y012355D02*
X006891Y012355D01*
X006891Y012384D02*
X006981Y012384D01*
X006981Y012413D02*
X006891Y012413D01*
X006891Y012442D02*
X006981Y012442D01*
X006981Y012471D02*
X006891Y012471D01*
X006891Y012500D02*
X006981Y012500D01*
X006981Y012529D02*
X006891Y012529D01*
X006891Y012558D02*
X006981Y012558D01*
X006981Y012587D02*
X006891Y012587D01*
X006891Y012616D02*
X006981Y012616D01*
X006981Y012645D02*
X006891Y012645D01*
X006891Y012674D02*
X006981Y012674D01*
X006981Y012703D02*
X006891Y012703D01*
X006891Y012732D02*
X006981Y012732D01*
X006981Y012761D02*
X006891Y012761D01*
X006891Y012790D02*
X006981Y012790D01*
X006981Y012819D02*
X006891Y012819D01*
X006891Y012848D02*
X006981Y012848D01*
X006981Y012877D02*
X006891Y012877D01*
X006891Y012906D02*
X006981Y012906D01*
X006981Y012935D02*
X006891Y012935D01*
X006891Y012964D02*
X006981Y012964D01*
X006981Y012993D02*
X006891Y012993D01*
X006981Y014586D02*
X006981Y015266D01*
X006981Y014586D02*
X006891Y014586D01*
X006891Y015266D01*
X006981Y015266D01*
X006981Y014615D02*
X006891Y014615D01*
X006891Y014644D02*
X006981Y014644D01*
X006981Y014673D02*
X006891Y014673D01*
X006891Y014702D02*
X006981Y014702D01*
X006981Y014731D02*
X006891Y014731D01*
X006891Y014760D02*
X006981Y014760D01*
X006981Y014789D02*
X006891Y014789D01*
X006891Y014818D02*
X006981Y014818D01*
X006981Y014847D02*
X006891Y014847D01*
X006891Y014876D02*
X006981Y014876D01*
X006981Y014905D02*
X006891Y014905D01*
X006891Y014934D02*
X006981Y014934D01*
X006981Y014963D02*
X006891Y014963D01*
X006891Y014992D02*
X006981Y014992D01*
X006981Y015021D02*
X006891Y015021D01*
X006891Y015050D02*
X006981Y015050D01*
X006981Y015079D02*
X006891Y015079D01*
X006891Y015108D02*
X006981Y015108D01*
X006981Y015137D02*
X006891Y015137D01*
X006891Y015166D02*
X006981Y015166D01*
X006981Y015195D02*
X006891Y015195D01*
X006891Y015224D02*
X006981Y015224D01*
X006981Y015253D02*
X006891Y015253D01*
X006824Y015266D02*
X006824Y014586D01*
X006734Y014586D01*
X006734Y015266D01*
X006824Y015266D01*
X006824Y014615D02*
X006734Y014615D01*
X006734Y014644D02*
X006824Y014644D01*
X006824Y014673D02*
X006734Y014673D01*
X006734Y014702D02*
X006824Y014702D01*
X006824Y014731D02*
X006734Y014731D01*
X006734Y014760D02*
X006824Y014760D01*
X006824Y014789D02*
X006734Y014789D01*
X006734Y014818D02*
X006824Y014818D01*
X006824Y014847D02*
X006734Y014847D01*
X006734Y014876D02*
X006824Y014876D01*
X006824Y014905D02*
X006734Y014905D01*
X006734Y014934D02*
X006824Y014934D01*
X006824Y014963D02*
X006734Y014963D01*
X006734Y014992D02*
X006824Y014992D01*
X006824Y015021D02*
X006734Y015021D01*
X006734Y015050D02*
X006824Y015050D01*
X006824Y015079D02*
X006734Y015079D01*
X006734Y015108D02*
X006824Y015108D01*
X006824Y015137D02*
X006734Y015137D01*
X006734Y015166D02*
X006824Y015166D01*
X006824Y015195D02*
X006734Y015195D01*
X006734Y015224D02*
X006824Y015224D01*
X006824Y015253D02*
X006734Y015253D01*
X006666Y015266D02*
X006666Y014586D01*
X006576Y014586D01*
X006576Y015266D01*
X006666Y015266D01*
X006666Y014615D02*
X006576Y014615D01*
X006576Y014644D02*
X006666Y014644D01*
X006666Y014673D02*
X006576Y014673D01*
X006576Y014702D02*
X006666Y014702D01*
X006666Y014731D02*
X006576Y014731D01*
X006576Y014760D02*
X006666Y014760D01*
X006666Y014789D02*
X006576Y014789D01*
X006576Y014818D02*
X006666Y014818D01*
X006666Y014847D02*
X006576Y014847D01*
X006576Y014876D02*
X006666Y014876D01*
X006666Y014905D02*
X006576Y014905D01*
X006576Y014934D02*
X006666Y014934D01*
X006666Y014963D02*
X006576Y014963D01*
X006576Y014992D02*
X006666Y014992D01*
X006666Y015021D02*
X006576Y015021D01*
X006576Y015050D02*
X006666Y015050D01*
X006666Y015079D02*
X006576Y015079D01*
X006576Y015108D02*
X006666Y015108D01*
X006666Y015137D02*
X006576Y015137D01*
X006576Y015166D02*
X006666Y015166D01*
X006666Y015195D02*
X006576Y015195D01*
X006576Y015224D02*
X006666Y015224D01*
X006666Y015253D02*
X006576Y015253D01*
X006509Y015266D02*
X006509Y014586D01*
X006419Y014586D01*
X006419Y015266D01*
X006509Y015266D01*
X006509Y014615D02*
X006419Y014615D01*
X006419Y014644D02*
X006509Y014644D01*
X006509Y014673D02*
X006419Y014673D01*
X006419Y014702D02*
X006509Y014702D01*
X006509Y014731D02*
X006419Y014731D01*
X006419Y014760D02*
X006509Y014760D01*
X006509Y014789D02*
X006419Y014789D01*
X006419Y014818D02*
X006509Y014818D01*
X006509Y014847D02*
X006419Y014847D01*
X006419Y014876D02*
X006509Y014876D01*
X006509Y014905D02*
X006419Y014905D01*
X006419Y014934D02*
X006509Y014934D01*
X006509Y014963D02*
X006419Y014963D01*
X006419Y014992D02*
X006509Y014992D01*
X006509Y015021D02*
X006419Y015021D01*
X006419Y015050D02*
X006509Y015050D01*
X006509Y015079D02*
X006419Y015079D01*
X006419Y015108D02*
X006509Y015108D01*
X006509Y015137D02*
X006419Y015137D01*
X006419Y015166D02*
X006509Y015166D01*
X006509Y015195D02*
X006419Y015195D01*
X006419Y015224D02*
X006509Y015224D01*
X006509Y015253D02*
X006419Y015253D01*
X006351Y015266D02*
X006351Y014586D01*
X006261Y014586D01*
X006261Y015266D01*
X006351Y015266D01*
X006351Y014615D02*
X006261Y014615D01*
X006261Y014644D02*
X006351Y014644D01*
X006351Y014673D02*
X006261Y014673D01*
X006261Y014702D02*
X006351Y014702D01*
X006351Y014731D02*
X006261Y014731D01*
X006261Y014760D02*
X006351Y014760D01*
X006351Y014789D02*
X006261Y014789D01*
X006261Y014818D02*
X006351Y014818D01*
X006351Y014847D02*
X006261Y014847D01*
X006261Y014876D02*
X006351Y014876D01*
X006351Y014905D02*
X006261Y014905D01*
X006261Y014934D02*
X006351Y014934D01*
X006351Y014963D02*
X006261Y014963D01*
X006261Y014992D02*
X006351Y014992D01*
X006351Y015021D02*
X006261Y015021D01*
X006261Y015050D02*
X006351Y015050D01*
X006351Y015079D02*
X006261Y015079D01*
X006261Y015108D02*
X006351Y015108D01*
X006351Y015137D02*
X006261Y015137D01*
X006261Y015166D02*
X006351Y015166D01*
X006351Y015195D02*
X006261Y015195D01*
X006261Y015224D02*
X006351Y015224D01*
X006351Y015253D02*
X006261Y015253D01*
D15*
X003506Y006511D03*
D16*
X003309Y006517D03*
X003112Y006517D03*
X003112Y006226D03*
X003309Y006226D03*
X003506Y006226D03*
D17*
X003419Y006226D02*
X003593Y006226D01*
X003593Y006218D02*
X003419Y006218D01*
X003419Y006209D02*
X003593Y006209D01*
X003593Y006201D02*
X003419Y006201D01*
X003419Y006192D02*
X003593Y006192D01*
X003593Y006184D02*
X003419Y006184D01*
X003419Y006175D02*
X003593Y006175D01*
X003593Y006167D02*
X003419Y006167D01*
X003419Y006158D02*
X003593Y006158D01*
X003593Y006150D02*
X003419Y006150D01*
X003419Y006141D02*
X003593Y006141D01*
X003593Y006133D02*
X003419Y006133D01*
X003419Y006124D02*
X003593Y006124D01*
X003593Y006116D02*
X003419Y006116D01*
X003419Y006107D02*
X003593Y006107D01*
X003593Y006099D02*
X003419Y006099D01*
X003419Y006096D02*
X003593Y006096D01*
X003593Y006356D01*
X003419Y006356D01*
X003419Y006096D01*
X003396Y006096D02*
X003396Y006356D01*
X003223Y006356D01*
X003223Y006096D01*
X003396Y006096D01*
X003396Y006099D02*
X003223Y006099D01*
X003223Y006107D02*
X003396Y006107D01*
X003396Y006116D02*
X003223Y006116D01*
X003223Y006124D02*
X003396Y006124D01*
X003396Y006133D02*
X003223Y006133D01*
X003223Y006141D02*
X003396Y006141D01*
X003396Y006150D02*
X003223Y006150D01*
X003223Y006158D02*
X003396Y006158D01*
X003396Y006167D02*
X003223Y006167D01*
X003223Y006175D02*
X003396Y006175D01*
X003396Y006184D02*
X003223Y006184D01*
X003223Y006192D02*
X003396Y006192D01*
X003396Y006201D02*
X003223Y006201D01*
X003223Y006209D02*
X003396Y006209D01*
X003396Y006218D02*
X003223Y006218D01*
X003223Y006226D02*
X003396Y006226D01*
X003396Y006235D02*
X003223Y006235D01*
X003223Y006243D02*
X003396Y006243D01*
X003396Y006252D02*
X003223Y006252D01*
X003223Y006260D02*
X003396Y006260D01*
X003396Y006269D02*
X003223Y006269D01*
X003223Y006277D02*
X003396Y006277D01*
X003396Y006286D02*
X003223Y006286D01*
X003223Y006294D02*
X003396Y006294D01*
X003396Y006303D02*
X003223Y006303D01*
X003223Y006311D02*
X003396Y006311D01*
X003396Y006320D02*
X003223Y006320D01*
X003223Y006328D02*
X003396Y006328D01*
X003396Y006337D02*
X003223Y006337D01*
X003223Y006345D02*
X003396Y006345D01*
X003396Y006354D02*
X003223Y006354D01*
X003199Y006354D02*
X003026Y006354D01*
X003026Y006356D02*
X003026Y006096D01*
X003199Y006096D01*
X003199Y006356D01*
X003026Y006356D01*
X003026Y006345D02*
X003199Y006345D01*
X003199Y006337D02*
X003026Y006337D01*
X003026Y006328D02*
X003199Y006328D01*
X003199Y006320D02*
X003026Y006320D01*
X003026Y006311D02*
X003199Y006311D01*
X003199Y006303D02*
X003026Y006303D01*
X003026Y006294D02*
X003199Y006294D01*
X003199Y006286D02*
X003026Y006286D01*
X003026Y006277D02*
X003199Y006277D01*
X003199Y006269D02*
X003026Y006269D01*
X003026Y006260D02*
X003199Y006260D01*
X003199Y006252D02*
X003026Y006252D01*
X003026Y006243D02*
X003199Y006243D01*
X003199Y006235D02*
X003026Y006235D01*
X003026Y006226D02*
X003199Y006226D01*
X003199Y006218D02*
X003026Y006218D01*
X003026Y006209D02*
X003199Y006209D01*
X003199Y006201D02*
X003026Y006201D01*
X003026Y006192D02*
X003199Y006192D01*
X003199Y006184D02*
X003026Y006184D01*
X003026Y006175D02*
X003199Y006175D01*
X003199Y006167D02*
X003026Y006167D01*
X003026Y006158D02*
X003199Y006158D01*
X003199Y006150D02*
X003026Y006150D01*
X003026Y006141D02*
X003199Y006141D01*
X003199Y006133D02*
X003026Y006133D01*
X003026Y006124D02*
X003199Y006124D01*
X003199Y006116D02*
X003026Y006116D01*
X003026Y006107D02*
X003199Y006107D01*
X003199Y006099D02*
X003026Y006099D01*
X003026Y006387D02*
X003199Y006387D01*
X003199Y006647D01*
X003026Y006647D01*
X003026Y006387D01*
X003026Y006388D02*
X003199Y006388D01*
X003199Y006396D02*
X003026Y006396D01*
X003026Y006405D02*
X003199Y006405D01*
X003199Y006413D02*
X003026Y006413D01*
X003026Y006422D02*
X003199Y006422D01*
X003199Y006430D02*
X003026Y006430D01*
X003026Y006439D02*
X003199Y006439D01*
X003199Y006447D02*
X003026Y006447D01*
X003026Y006456D02*
X003199Y006456D01*
X003199Y006464D02*
X003026Y006464D01*
X003026Y006473D02*
X003199Y006473D01*
X003199Y006481D02*
X003026Y006481D01*
X003026Y006490D02*
X003199Y006490D01*
X003199Y006498D02*
X003026Y006498D01*
X003026Y006507D02*
X003199Y006507D01*
X003199Y006515D02*
X003026Y006515D01*
X003026Y006524D02*
X003199Y006524D01*
X003199Y006532D02*
X003026Y006532D01*
X003026Y006541D02*
X003199Y006541D01*
X003199Y006549D02*
X003026Y006549D01*
X003026Y006558D02*
X003199Y006558D01*
X003199Y006566D02*
X003026Y006566D01*
X003026Y006575D02*
X003199Y006575D01*
X003199Y006583D02*
X003026Y006583D01*
X003026Y006592D02*
X003199Y006592D01*
X003199Y006600D02*
X003026Y006600D01*
X003026Y006609D02*
X003199Y006609D01*
X003199Y006617D02*
X003026Y006617D01*
X003026Y006626D02*
X003199Y006626D01*
X003199Y006634D02*
X003026Y006634D01*
X003026Y006643D02*
X003199Y006643D01*
X003223Y006643D02*
X003396Y006643D01*
X003396Y006647D02*
X003396Y006387D01*
X003223Y006387D01*
X003223Y006647D01*
X003396Y006647D01*
X003396Y006634D02*
X003223Y006634D01*
X003223Y006626D02*
X003396Y006626D01*
X003396Y006617D02*
X003223Y006617D01*
X003223Y006609D02*
X003396Y006609D01*
X003396Y006600D02*
X003223Y006600D01*
X003223Y006592D02*
X003396Y006592D01*
X003396Y006583D02*
X003223Y006583D01*
X003223Y006575D02*
X003396Y006575D01*
X003396Y006566D02*
X003223Y006566D01*
X003223Y006558D02*
X003396Y006558D01*
X003396Y006549D02*
X003223Y006549D01*
X003223Y006541D02*
X003396Y006541D01*
X003396Y006532D02*
X003223Y006532D01*
X003223Y006524D02*
X003396Y006524D01*
X003396Y006515D02*
X003223Y006515D01*
X003223Y006507D02*
X003396Y006507D01*
X003396Y006498D02*
X003223Y006498D01*
X003223Y006490D02*
X003396Y006490D01*
X003396Y006481D02*
X003223Y006481D01*
X003223Y006473D02*
X003396Y006473D01*
X003396Y006464D02*
X003223Y006464D01*
X003223Y006456D02*
X003396Y006456D01*
X003396Y006447D02*
X003223Y006447D01*
X003223Y006439D02*
X003396Y006439D01*
X003396Y006430D02*
X003223Y006430D01*
X003223Y006422D02*
X003396Y006422D01*
X003396Y006413D02*
X003223Y006413D01*
X003223Y006405D02*
X003396Y006405D01*
X003396Y006396D02*
X003223Y006396D01*
X003223Y006388D02*
X003396Y006388D01*
X003419Y006388D02*
X003593Y006388D01*
X003593Y006387D02*
X003593Y006647D01*
X003419Y006647D01*
X003419Y006387D01*
X003593Y006387D01*
X003593Y006396D02*
X003419Y006396D01*
X003419Y006405D02*
X003593Y006405D01*
X003593Y006413D02*
X003419Y006413D01*
X003419Y006422D02*
X003593Y006422D01*
X003593Y006430D02*
X003419Y006430D01*
X003419Y006439D02*
X003593Y006439D01*
X003593Y006447D02*
X003419Y006447D01*
X003419Y006456D02*
X003593Y006456D01*
X003593Y006464D02*
X003419Y006464D01*
X003419Y006473D02*
X003593Y006473D01*
X003593Y006481D02*
X003419Y006481D01*
X003419Y006490D02*
X003593Y006490D01*
X003593Y006498D02*
X003419Y006498D01*
X003419Y006507D02*
X003593Y006507D01*
X003593Y006515D02*
X003419Y006515D01*
X003419Y006524D02*
X003593Y006524D01*
X003593Y006532D02*
X003419Y006532D01*
X003419Y006541D02*
X003593Y006541D01*
X003593Y006549D02*
X003419Y006549D01*
X003419Y006558D02*
X003593Y006558D01*
X003593Y006566D02*
X003419Y006566D01*
X003419Y006575D02*
X003593Y006575D01*
X003593Y006583D02*
X003419Y006583D01*
X003419Y006592D02*
X003593Y006592D01*
X003593Y006600D02*
X003419Y006600D01*
X003419Y006609D02*
X003593Y006609D01*
X003593Y006617D02*
X003419Y006617D01*
X003419Y006626D02*
X003593Y006626D01*
X003593Y006634D02*
X003419Y006634D01*
X003419Y006643D02*
X003593Y006643D01*
X003593Y006354D02*
X003419Y006354D01*
X003419Y006345D02*
X003593Y006345D01*
X003593Y006337D02*
X003419Y006337D01*
X003419Y006328D02*
X003593Y006328D01*
X003593Y006320D02*
X003419Y006320D01*
X003419Y006311D02*
X003593Y006311D01*
X003593Y006303D02*
X003419Y006303D01*
X003419Y006294D02*
X003593Y006294D01*
X003593Y006286D02*
X003419Y006286D01*
X003419Y006277D02*
X003593Y006277D01*
X003593Y006269D02*
X003419Y006269D01*
X003419Y006260D02*
X003593Y006260D01*
X003593Y006252D02*
X003419Y006252D01*
X003419Y006243D02*
X003593Y006243D01*
X003593Y006235D02*
X003419Y006235D01*
D18*
X004360Y006077D03*
X004360Y006825D03*
D19*
X003810Y018276D03*
X003810Y019276D03*
X002810Y019376D03*
X002810Y018376D03*
X004810Y018376D03*
X004810Y019376D03*
D20*
X004769Y017329D02*
X004769Y016987D01*
X004655Y016987D01*
X004655Y017329D01*
X004769Y017329D01*
X004769Y017024D02*
X004655Y017024D01*
X004655Y017061D02*
X004769Y017061D01*
X004769Y017098D02*
X004655Y017098D01*
X004655Y017135D02*
X004769Y017135D01*
X004769Y017172D02*
X004655Y017172D01*
X004655Y017209D02*
X004769Y017209D01*
X004769Y017246D02*
X004655Y017246D01*
X004655Y017283D02*
X004769Y017283D01*
X004769Y017320D02*
X004655Y017320D01*
X004572Y017329D02*
X004572Y016987D01*
X004458Y016987D01*
X004458Y017329D01*
X004572Y017329D01*
X004572Y017024D02*
X004458Y017024D01*
X004458Y017061D02*
X004572Y017061D01*
X004572Y017098D02*
X004458Y017098D01*
X004458Y017135D02*
X004572Y017135D01*
X004572Y017172D02*
X004458Y017172D01*
X004458Y017209D02*
X004572Y017209D01*
X004572Y017246D02*
X004458Y017246D01*
X004458Y017283D02*
X004572Y017283D01*
X004572Y017320D02*
X004458Y017320D01*
X004416Y016832D02*
X004074Y016832D01*
X004074Y016946D01*
X004416Y016946D01*
X004416Y016832D01*
X004416Y016869D02*
X004074Y016869D01*
X004074Y016906D02*
X004416Y016906D01*
X004416Y016943D02*
X004074Y016943D01*
X004074Y016635D02*
X004416Y016635D01*
X004074Y016635D02*
X004074Y016749D01*
X004416Y016749D01*
X004416Y016635D01*
X004416Y016672D02*
X004074Y016672D01*
X004074Y016709D02*
X004416Y016709D01*
X004416Y016746D02*
X004074Y016746D01*
X004074Y016438D02*
X004416Y016438D01*
X004074Y016438D02*
X004074Y016552D01*
X004416Y016552D01*
X004416Y016438D01*
X004416Y016475D02*
X004074Y016475D01*
X004074Y016512D02*
X004416Y016512D01*
X004416Y016549D02*
X004074Y016549D01*
X004074Y016241D02*
X004416Y016241D01*
X004074Y016241D02*
X004074Y016355D01*
X004416Y016355D01*
X004416Y016241D01*
X004416Y016278D02*
X004074Y016278D01*
X004074Y016315D02*
X004416Y016315D01*
X004416Y016352D02*
X004074Y016352D01*
X004572Y016200D02*
X004572Y015858D01*
X004458Y015858D01*
X004458Y016200D01*
X004572Y016200D01*
X004572Y015895D02*
X004458Y015895D01*
X004458Y015932D02*
X004572Y015932D01*
X004572Y015969D02*
X004458Y015969D01*
X004458Y016006D02*
X004572Y016006D01*
X004572Y016043D02*
X004458Y016043D01*
X004458Y016080D02*
X004572Y016080D01*
X004572Y016117D02*
X004458Y016117D01*
X004458Y016154D02*
X004572Y016154D01*
X004572Y016191D02*
X004458Y016191D01*
X004769Y016200D02*
X004769Y015858D01*
X004655Y015858D01*
X004655Y016200D01*
X004769Y016200D01*
X004769Y015895D02*
X004655Y015895D01*
X004655Y015932D02*
X004769Y015932D01*
X004769Y015969D02*
X004655Y015969D01*
X004655Y016006D02*
X004769Y016006D01*
X004769Y016043D02*
X004655Y016043D01*
X004655Y016080D02*
X004769Y016080D01*
X004769Y016117D02*
X004655Y016117D01*
X004655Y016154D02*
X004769Y016154D01*
X004769Y016191D02*
X004655Y016191D01*
X004965Y016200D02*
X004965Y015858D01*
X004851Y015858D01*
X004851Y016200D01*
X004965Y016200D01*
X004965Y015895D02*
X004851Y015895D01*
X004851Y015932D02*
X004965Y015932D01*
X004965Y015969D02*
X004851Y015969D01*
X004851Y016006D02*
X004965Y016006D01*
X004965Y016043D02*
X004851Y016043D01*
X004851Y016080D02*
X004965Y016080D01*
X004965Y016117D02*
X004851Y016117D01*
X004851Y016154D02*
X004965Y016154D01*
X004965Y016191D02*
X004851Y016191D01*
X005162Y016200D02*
X005162Y015858D01*
X005048Y015858D01*
X005048Y016200D01*
X005162Y016200D01*
X005162Y015895D02*
X005048Y015895D01*
X005048Y015932D02*
X005162Y015932D01*
X005162Y015969D02*
X005048Y015969D01*
X005048Y016006D02*
X005162Y016006D01*
X005162Y016043D02*
X005048Y016043D01*
X005048Y016080D02*
X005162Y016080D01*
X005162Y016117D02*
X005048Y016117D01*
X005048Y016154D02*
X005162Y016154D01*
X005162Y016191D02*
X005048Y016191D01*
X005204Y016241D02*
X005546Y016241D01*
X005204Y016241D02*
X005204Y016355D01*
X005546Y016355D01*
X005546Y016241D01*
X005546Y016278D02*
X005204Y016278D01*
X005204Y016315D02*
X005546Y016315D01*
X005546Y016352D02*
X005204Y016352D01*
X005204Y016438D02*
X005546Y016438D01*
X005204Y016438D02*
X005204Y016552D01*
X005546Y016552D01*
X005546Y016438D01*
X005546Y016475D02*
X005204Y016475D01*
X005204Y016512D02*
X005546Y016512D01*
X005546Y016549D02*
X005204Y016549D01*
X005204Y016635D02*
X005546Y016635D01*
X005204Y016635D02*
X005204Y016749D01*
X005546Y016749D01*
X005546Y016635D01*
X005546Y016672D02*
X005204Y016672D01*
X005204Y016709D02*
X005546Y016709D01*
X005546Y016746D02*
X005204Y016746D01*
X005204Y016832D02*
X005546Y016832D01*
X005204Y016832D02*
X005204Y016946D01*
X005546Y016946D01*
X005546Y016832D01*
X005546Y016869D02*
X005204Y016869D01*
X005204Y016906D02*
X005546Y016906D01*
X005546Y016943D02*
X005204Y016943D01*
X005162Y016987D02*
X005162Y017329D01*
X005162Y016987D02*
X005048Y016987D01*
X005048Y017329D01*
X005162Y017329D01*
X005162Y017024D02*
X005048Y017024D01*
X005048Y017061D02*
X005162Y017061D01*
X005162Y017098D02*
X005048Y017098D01*
X005048Y017135D02*
X005162Y017135D01*
X005162Y017172D02*
X005048Y017172D01*
X005048Y017209D02*
X005162Y017209D01*
X005162Y017246D02*
X005048Y017246D01*
X005048Y017283D02*
X005162Y017283D01*
X005162Y017320D02*
X005048Y017320D01*
X004965Y017329D02*
X004965Y016987D01*
X004851Y016987D01*
X004851Y017329D01*
X004965Y017329D01*
X004965Y017024D02*
X004851Y017024D01*
X004851Y017061D02*
X004965Y017061D01*
X004965Y017098D02*
X004851Y017098D01*
X004851Y017135D02*
X004965Y017135D01*
X004965Y017172D02*
X004851Y017172D01*
X004851Y017209D02*
X004965Y017209D01*
X004965Y017246D02*
X004851Y017246D01*
X004851Y017283D02*
X004965Y017283D01*
X004965Y017320D02*
X004851Y017320D01*
D21*
X008585Y016836D03*
X008585Y017836D03*
X008585Y015836D03*
X008585Y014836D03*
X008585Y013836D03*
X008585Y012836D03*
X008585Y011836D03*
X008585Y010836D03*
X008585Y009836D03*
X008585Y008836D03*
D22*
X007750Y009306D03*
X007750Y010306D03*
X007750Y011306D03*
X007750Y012306D03*
X007750Y013306D03*
X007750Y014306D03*
X007750Y015306D03*
X007750Y016306D03*
X007750Y017306D03*
X007750Y018306D03*
X007750Y019306D03*
X007750Y008306D03*
X007750Y007306D03*
X007750Y006306D03*
X001750Y006306D03*
X001750Y007306D03*
X001750Y008306D03*
X001750Y009306D03*
X001750Y010306D03*
X001750Y011306D03*
X001750Y012306D03*
X001750Y013306D03*
X001750Y014306D03*
X001750Y015306D03*
X001750Y016306D03*
X001750Y017306D03*
X001750Y018306D03*
X001750Y019306D03*
D23*
X005190Y006681D03*
X005390Y006681D03*
X005390Y006071D03*
X005190Y006071D03*
D24*
X005290Y006376D03*
D25*
X003331Y015847D03*
X003134Y015847D03*
X002937Y015847D03*
X002740Y015847D03*
X002740Y016359D03*
X002937Y016359D03*
X003134Y016359D03*
X003331Y016359D03*
X003331Y017028D03*
X003134Y017028D03*
X002937Y017028D03*
X002740Y017028D03*
X002740Y017540D03*
X002937Y017540D03*
X003134Y017540D03*
X003331Y017540D03*
X006515Y017072D03*
X006712Y017072D03*
X006908Y017072D03*
X007105Y017072D03*
X007105Y016560D03*
X006908Y016560D03*
X006712Y016560D03*
X006515Y016560D03*
D26*
X000890Y005666D03*
X001210Y006026D03*
X001310Y007766D03*
X001090Y009166D03*
X002210Y008806D03*
X004870Y005666D03*
X007426Y005688D03*
M02*
