G75*
%MOIN*%
%OFA0B0*%
%FSLAX24Y24*%
%IPPOS*%
%LPD*%
%AMOC8*
5,1,8,0,0,1.08239X$1,22.5*
%
%ADD10C,0.0740*%
%ADD11OC8,0.0531*%
%ADD12OC8,0.0480*%
%ADD13C,0.0100*%
%ADD14OC8,0.0354*%
%ADD15OC8,0.0179*%
%ADD16OC8,0.0297*%
%ADD17C,0.0060*%
%ADD18C,0.0080*%
%ADD19C,0.0060*%
%ADD20C,0.0140*%
D10*
X002810Y018376D03*
X002810Y019376D03*
X003810Y019276D03*
X003810Y018276D03*
X004810Y018376D03*
X004810Y019376D03*
D11*
X008585Y017836D03*
X008585Y016836D03*
X008585Y015836D03*
X008585Y014836D03*
X008585Y013836D03*
X008585Y012836D03*
X008585Y011836D03*
X008585Y010836D03*
X008585Y009836D03*
X008585Y008836D03*
D12*
X007750Y009306D03*
X007750Y010306D03*
X007750Y011306D03*
X007750Y012306D03*
X007750Y013306D03*
X007750Y014306D03*
X007750Y015306D03*
X007750Y016306D03*
X007750Y017306D03*
X007750Y018306D03*
X007750Y019306D03*
X007750Y008306D03*
X007750Y007306D03*
X007750Y006306D03*
X001750Y006306D03*
X001750Y007306D03*
X001750Y008306D03*
X001750Y009306D03*
X001750Y010306D03*
X001750Y011306D03*
X001750Y012306D03*
X001750Y013306D03*
X001750Y014306D03*
X001750Y015306D03*
X001750Y016306D03*
X001750Y017306D03*
X001750Y018306D03*
X001750Y019306D03*
D13*
X002556Y017756D02*
X003192Y017756D01*
X003280Y017844D01*
X003415Y017978D01*
X003532Y017861D01*
X003713Y017786D01*
X003907Y017786D01*
X004088Y017861D01*
X004225Y017998D01*
X004300Y018178D01*
X004300Y018272D01*
X004303Y018254D01*
X004328Y018176D01*
X004365Y018103D01*
X004413Y018037D01*
X004471Y017979D01*
X004537Y017931D01*
X004610Y017894D01*
X004688Y017869D01*
X004760Y017857D01*
X004760Y018326D01*
X004300Y018326D01*
X004300Y018373D01*
X004225Y018554D01*
X004088Y018691D01*
X003907Y018766D01*
X003713Y018766D01*
X003532Y018691D01*
X003395Y018554D01*
X003320Y018373D01*
X003320Y018296D01*
X003308Y018296D01*
X003300Y018288D01*
X003300Y018473D01*
X003225Y018654D01*
X003163Y018716D01*
X003462Y018716D01*
X003585Y018839D01*
X003713Y018786D01*
X003907Y018786D01*
X004088Y018861D01*
X004225Y018998D01*
X004300Y019178D01*
X004300Y019373D01*
X004225Y019554D01*
X004088Y019691D01*
X004071Y019698D01*
X004439Y019698D01*
X004395Y019654D01*
X004320Y019473D01*
X004320Y019278D01*
X004395Y019098D01*
X004532Y018961D01*
X004711Y018887D01*
X004688Y018883D01*
X004610Y018858D01*
X004537Y018821D01*
X004471Y018773D01*
X004413Y018715D01*
X004365Y018648D01*
X004328Y018576D01*
X004303Y018498D01*
X004291Y018426D01*
X004760Y018426D01*
X004760Y018326D01*
X004860Y018326D01*
X004860Y018426D01*
X005329Y018426D01*
X005317Y018498D01*
X005292Y018576D01*
X005255Y018648D01*
X005207Y018715D01*
X005149Y018773D01*
X005083Y018821D01*
X005010Y018858D01*
X004932Y018883D01*
X004909Y018887D01*
X005088Y018961D01*
X005225Y019098D01*
X005300Y019278D01*
X005300Y019473D01*
X005225Y019654D01*
X005181Y019698D01*
X008975Y019698D01*
X008975Y012033D01*
X008757Y012252D01*
X008623Y012252D01*
X008623Y011875D01*
X008546Y011875D01*
X008546Y012252D01*
X008413Y012252D01*
X008169Y012008D01*
X008169Y011875D01*
X008546Y011875D01*
X008546Y011797D01*
X008623Y011797D01*
X008623Y011420D01*
X008757Y011420D01*
X008975Y011639D01*
X008975Y005531D01*
X005156Y005531D01*
X005167Y005543D01*
X005167Y005789D01*
X004993Y005963D01*
X004747Y005963D01*
X004648Y005864D01*
X004648Y006985D01*
X004022Y006985D01*
X003919Y007088D01*
X002915Y007088D01*
X002875Y007128D01*
X002702Y007128D01*
X002579Y007005D01*
X002579Y006985D01*
X002128Y006985D01*
X002128Y006479D01*
X001912Y006696D01*
X001780Y006696D01*
X001780Y006336D01*
X001720Y006336D01*
X001720Y006696D01*
X001588Y006696D01*
X001360Y006467D01*
X001360Y006336D01*
X001720Y006336D01*
X001720Y006276D01*
X001380Y006276D01*
X001333Y006323D01*
X001087Y006323D01*
X001060Y006296D01*
X000960Y006396D01*
X000960Y009784D01*
X001232Y009512D01*
X001447Y009512D01*
X001390Y009455D01*
X001390Y009157D01*
X001601Y008946D01*
X001899Y008946D01*
X002110Y009157D01*
X002110Y009355D01*
X002848Y009355D01*
X002908Y009295D01*
X003081Y009295D01*
X003139Y009354D01*
X003139Y009316D01*
X003100Y009276D01*
X002110Y009276D01*
X002110Y009177D02*
X003057Y009177D01*
X003100Y009221D02*
X002855Y008976D01*
X002460Y008976D01*
X002333Y009103D01*
X002087Y009103D01*
X001913Y008929D01*
X001913Y008683D01*
X002087Y008509D01*
X002333Y008509D01*
X002460Y008636D01*
X002996Y008636D01*
X003340Y008980D01*
X003396Y008980D01*
X003519Y009103D01*
X003519Y009276D01*
X004415Y009276D01*
X004399Y009260D02*
X003869Y008730D01*
X003750Y008730D01*
X003711Y008769D01*
X003537Y008769D01*
X003415Y008647D01*
X003415Y008473D01*
X003454Y008434D01*
X003454Y008315D01*
X003239Y008100D01*
X002924Y008100D01*
X002824Y008000D01*
X002688Y007864D01*
X002609Y007864D01*
X002561Y007816D01*
X002089Y007816D01*
X001962Y007942D01*
X001554Y007942D01*
X001433Y008063D01*
X001187Y008063D01*
X001013Y007889D01*
X001013Y007643D01*
X001187Y007469D01*
X001404Y007469D01*
X001390Y007455D01*
X001390Y007157D01*
X001601Y006946D01*
X001899Y006946D01*
X002110Y007157D01*
X002110Y007455D01*
X002089Y007476D01*
X002702Y007476D01*
X002750Y007524D01*
X002828Y007524D01*
X003065Y007760D01*
X003380Y007760D01*
X003794Y008174D01*
X003794Y008390D01*
X004010Y008390D01*
X004069Y008449D01*
X004115Y008402D01*
X004045Y008332D01*
X004045Y008158D01*
X004084Y008119D01*
X004084Y008056D01*
X004045Y008017D01*
X004045Y007843D01*
X004167Y007721D01*
X004341Y007721D01*
X004463Y007843D01*
X004463Y008017D01*
X004424Y008056D01*
X004424Y008119D01*
X004463Y008158D01*
X004463Y008332D01*
X004393Y008402D01*
X004463Y008473D01*
X004463Y008529D01*
X004600Y008665D01*
X004656Y008665D01*
X004727Y008736D01*
X004797Y008665D01*
X004971Y008665D01*
X005030Y008725D01*
X005068Y008725D01*
X004990Y008647D01*
X004990Y008473D01*
X005112Y008350D01*
X005182Y008350D01*
X005410Y008122D01*
X005305Y008017D01*
X005305Y007843D01*
X005354Y007794D01*
X005354Y007391D01*
X005826Y006919D01*
X005920Y006825D01*
X006368Y006825D01*
X006476Y006933D01*
X006546Y006933D01*
X006651Y007039D01*
X006708Y006982D01*
X006795Y006982D01*
X006845Y006933D01*
X007018Y006933D01*
X007141Y007056D01*
X007141Y007229D01*
X007115Y007255D01*
X007179Y007319D01*
X007179Y007388D01*
X007376Y007557D01*
X007477Y007557D01*
X007599Y007679D01*
X007599Y007853D01*
X007477Y007975D01*
X007303Y007975D01*
X007181Y007853D01*
X007181Y007784D01*
X006984Y007615D01*
X006883Y007615D01*
X006761Y007493D01*
X006761Y007382D01*
X006698Y007445D01*
X006604Y007539D01*
X006289Y007539D01*
X006225Y007602D01*
X006225Y008075D01*
X006126Y008174D01*
X006249Y008174D01*
X006249Y008158D01*
X006320Y008087D01*
X006249Y008017D01*
X006249Y007843D01*
X006372Y007721D01*
X006546Y007721D01*
X006605Y007780D01*
X006884Y007780D01*
X006937Y007774D01*
X006945Y007780D01*
X006954Y007780D01*
X006992Y007818D01*
X007264Y008035D01*
X007372Y008035D01*
X007442Y008105D01*
X007601Y007946D01*
X007899Y007946D01*
X008110Y008157D01*
X008110Y008455D01*
X007900Y008665D01*
X008042Y008665D01*
X008164Y008788D01*
X008164Y008961D01*
X008042Y009084D01*
X008037Y009084D01*
X008110Y009157D01*
X008110Y009453D01*
X008120Y009453D01*
X008243Y009575D01*
X008243Y009632D01*
X008425Y009450D01*
X008745Y009450D01*
X008971Y009676D01*
X008971Y009996D01*
X008745Y010222D01*
X008425Y010222D01*
X008199Y009996D01*
X008199Y009793D01*
X008120Y009872D01*
X007947Y009872D01*
X007888Y009812D01*
X007499Y009812D01*
X007420Y009733D01*
X007420Y010127D01*
X007601Y009946D01*
X007899Y009946D01*
X008110Y010157D01*
X008110Y010455D01*
X007899Y010666D01*
X007601Y010666D01*
X007540Y010605D01*
X007540Y011007D01*
X007601Y010946D01*
X007899Y010946D01*
X008110Y011157D01*
X008110Y011455D01*
X007899Y011666D01*
X007601Y011666D01*
X007540Y011605D01*
X007540Y011968D01*
X007240Y012268D01*
X007240Y013168D01*
X006700Y013708D01*
X006612Y013796D01*
X005949Y013796D01*
X005429Y014285D01*
X005429Y014363D01*
X005307Y014485D01*
X005150Y014485D01*
X005150Y014540D01*
X005945Y015335D01*
X006043Y015237D01*
X006217Y015237D01*
X006339Y015359D01*
X006339Y015443D01*
X006341Y015444D01*
X006341Y015359D01*
X006463Y015237D01*
X006637Y015237D01*
X006696Y015296D01*
X006848Y015296D01*
X007480Y014664D01*
X007539Y014604D01*
X007390Y014455D01*
X007390Y014157D01*
X007601Y013946D01*
X007899Y013946D01*
X008020Y014067D01*
X008020Y013545D01*
X007899Y013666D01*
X007601Y013666D01*
X007390Y013455D01*
X007390Y013157D01*
X007601Y012946D01*
X007781Y012946D01*
X007781Y012899D01*
X007840Y012840D01*
X007840Y012666D01*
X007601Y012666D01*
X007390Y012455D01*
X007390Y012157D01*
X007601Y011946D01*
X007899Y011946D01*
X008110Y012157D01*
X008110Y012454D01*
X008140Y012484D01*
X008140Y012840D01*
X008199Y012899D01*
X008199Y012676D01*
X008425Y012450D01*
X008745Y012450D01*
X008971Y012676D01*
X008971Y012996D01*
X008745Y013222D01*
X008425Y013222D01*
X008418Y013215D01*
X008320Y013313D01*
X008320Y013555D01*
X008425Y013450D01*
X008745Y013450D01*
X008971Y013676D01*
X008971Y013996D01*
X008745Y014222D01*
X008425Y014222D01*
X008320Y014117D01*
X008320Y014555D01*
X008425Y014450D01*
X008745Y014450D01*
X008971Y014676D01*
X008971Y014996D01*
X008745Y015222D01*
X008425Y015222D01*
X008199Y014996D01*
X007949Y014996D01*
X008110Y015157D01*
X008110Y015455D01*
X008029Y015536D01*
X008292Y015536D01*
X008316Y015560D01*
X008425Y015450D01*
X008745Y015450D01*
X008971Y015676D01*
X008971Y015996D01*
X008745Y016222D01*
X008425Y016222D01*
X008199Y015996D01*
X008199Y015867D01*
X008168Y015836D01*
X007536Y015836D01*
X007599Y015899D01*
X007599Y015947D01*
X007601Y015946D01*
X007899Y015946D01*
X008110Y016157D01*
X008110Y016455D01*
X007899Y016666D01*
X007756Y016666D01*
X007910Y016820D01*
X007910Y016957D01*
X008110Y017157D01*
X008110Y017455D01*
X007899Y017666D01*
X007601Y017666D01*
X007390Y017455D01*
X007390Y017157D01*
X007590Y016957D01*
X007590Y016952D01*
X007264Y016626D01*
X007170Y016532D01*
X007170Y016022D01*
X007117Y016075D01*
X006943Y016075D01*
X006880Y016012D01*
X006817Y016075D01*
X006643Y016075D01*
X006576Y016008D01*
X006279Y015971D01*
X006279Y016013D01*
X006157Y016135D01*
X005983Y016135D01*
X005861Y016013D01*
X005861Y015943D01*
X005723Y015806D01*
X005723Y015880D01*
X006006Y016196D01*
X006050Y016240D01*
X006050Y016245D01*
X006053Y016249D01*
X006053Y016257D01*
X006123Y016187D01*
X006297Y016187D01*
X006416Y016306D01*
X006496Y016306D01*
X006830Y016640D01*
X006830Y017239D01*
X006870Y017279D01*
X006870Y017453D01*
X006747Y017575D01*
X006574Y017575D01*
X006451Y017453D01*
X006451Y017279D01*
X006510Y017220D01*
X006510Y016772D01*
X006364Y016626D01*
X006350Y016626D01*
X006350Y017200D01*
X006404Y017254D01*
X006404Y017427D01*
X006282Y017550D01*
X006548Y017550D01*
X006451Y017451D02*
X006380Y017451D01*
X006404Y017353D02*
X006451Y017353D01*
X006476Y017254D02*
X006404Y017254D01*
X006350Y017156D02*
X006510Y017156D01*
X006510Y017057D02*
X006350Y017057D01*
X006350Y016959D02*
X006510Y016959D01*
X006510Y016860D02*
X006350Y016860D01*
X006350Y016762D02*
X006500Y016762D01*
X006401Y016663D02*
X006350Y016663D01*
X006558Y016368D02*
X007170Y016368D01*
X007170Y016466D02*
X006657Y016466D01*
X006755Y016565D02*
X007203Y016565D01*
X007301Y016663D02*
X006830Y016663D01*
X006830Y016762D02*
X007400Y016762D01*
X007498Y016860D02*
X006830Y016860D01*
X006830Y016959D02*
X007588Y016959D01*
X007489Y017057D02*
X006830Y017057D01*
X006830Y017156D02*
X007391Y017156D01*
X007390Y017254D02*
X006845Y017254D01*
X006870Y017353D02*
X007390Y017353D01*
X007390Y017451D02*
X006870Y017451D01*
X006772Y017550D02*
X007485Y017550D01*
X007583Y017648D02*
X006039Y017648D01*
X006108Y017550D02*
X005986Y017427D01*
X005986Y017254D01*
X006030Y017210D01*
X006030Y017152D01*
X005956Y017226D01*
X005596Y017226D01*
X005510Y017312D01*
X005510Y017330D01*
X005563Y017277D01*
X005737Y017277D01*
X005859Y017399D01*
X005859Y017469D01*
X006496Y018106D01*
X007441Y018106D01*
X007601Y017946D01*
X007899Y017946D01*
X008110Y018157D01*
X008110Y018455D01*
X007899Y018666D01*
X007601Y018666D01*
X007390Y018455D01*
X007390Y018426D01*
X006364Y018426D01*
X006270Y018332D01*
X006170Y018232D01*
X006170Y018670D01*
X006279Y018779D01*
X006279Y018953D01*
X006157Y019075D01*
X005990Y019075D01*
X005990Y019100D01*
X006087Y019197D01*
X006157Y019197D01*
X006279Y019319D01*
X006279Y019493D01*
X006157Y019615D01*
X005983Y019615D01*
X005861Y019493D01*
X005861Y019423D01*
X005670Y019232D01*
X005670Y018272D01*
X005499Y018102D01*
X005499Y018233D01*
X005377Y018355D01*
X005203Y018355D01*
X005174Y018326D01*
X004860Y018326D01*
X004860Y017882D01*
X004684Y017706D01*
X004481Y017706D01*
X004469Y017715D01*
X004417Y017706D01*
X004364Y017706D01*
X004353Y017695D01*
X004338Y017693D01*
X004333Y017685D01*
X004293Y017685D01*
X004205Y017597D01*
X004156Y017646D01*
X003724Y017646D01*
X003630Y017552D01*
X003194Y017116D01*
X003180Y017116D01*
X003080Y017016D01*
X003080Y016896D01*
X003060Y016876D01*
X002855Y016876D01*
X002815Y016915D01*
X002642Y016915D01*
X002519Y016793D01*
X002519Y016619D01*
X002642Y016497D01*
X002815Y016497D01*
X002855Y016536D01*
X003200Y016536D01*
X003252Y016588D01*
X003343Y016497D01*
X003390Y016497D01*
X003390Y016352D01*
X003304Y016266D01*
X002726Y016266D01*
X002677Y016315D01*
X002503Y016315D01*
X002381Y016193D01*
X002381Y016019D01*
X002503Y015897D01*
X002677Y015897D01*
X002726Y015946D01*
X003401Y015946D01*
X003401Y015839D01*
X003523Y015717D01*
X003697Y015717D01*
X003819Y015839D01*
X003819Y015909D01*
X003890Y015980D01*
X003890Y016057D01*
X004017Y016057D01*
X004066Y016106D01*
X004796Y016106D01*
X004887Y016197D01*
X004957Y016197D01*
X005079Y016319D01*
X005079Y016469D01*
X005098Y016488D01*
X005168Y016546D01*
X005176Y016546D01*
X005218Y016588D01*
X005263Y016625D01*
X005264Y016634D01*
X005270Y016640D01*
X005270Y016699D01*
X005275Y016757D01*
X005270Y016764D01*
X005270Y016952D01*
X005210Y017012D01*
X005210Y017160D01*
X005370Y017000D01*
X005464Y016906D01*
X005824Y016906D01*
X005854Y016875D01*
X005861Y016766D01*
X004738Y015606D01*
X004706Y015606D01*
X004657Y015655D01*
X004483Y015655D01*
X004361Y015533D01*
X004361Y015359D01*
X004483Y015237D01*
X004657Y015237D01*
X004706Y015286D01*
X004740Y015286D01*
X004742Y015285D01*
X004807Y015286D01*
X004850Y015286D01*
X004509Y014831D01*
X004470Y014792D01*
X001540Y014792D01*
X001540Y014890D02*
X004553Y014890D01*
X004627Y014989D02*
X001942Y014989D01*
X001899Y014946D02*
X002110Y015157D01*
X002110Y015455D01*
X001899Y015666D01*
X001642Y015666D01*
X001752Y015776D01*
X001932Y015776D01*
X002172Y016016D01*
X002260Y016104D01*
X002260Y016588D01*
X002140Y016708D01*
X002140Y016944D01*
X002172Y016976D01*
X002260Y017064D01*
X002260Y017364D01*
X002353Y017457D01*
X002437Y017457D01*
X002559Y017579D01*
X002559Y017753D01*
X002556Y017756D01*
X002559Y017747D02*
X004725Y017747D01*
X004823Y017845D02*
X004051Y017845D01*
X004171Y017944D02*
X004520Y017944D01*
X004410Y018042D02*
X004244Y018042D01*
X004284Y018141D02*
X004346Y018141D01*
X004308Y018239D02*
X004300Y018239D01*
X004300Y018338D02*
X004760Y018338D01*
X004760Y018239D02*
X004860Y018239D01*
X004860Y018141D02*
X004760Y018141D01*
X004760Y018042D02*
X004860Y018042D01*
X004860Y017944D02*
X004760Y017944D01*
X004860Y018338D02*
X005186Y018338D01*
X005327Y018436D02*
X005670Y018436D01*
X005670Y018338D02*
X005394Y018338D01*
X005493Y018239D02*
X005637Y018239D01*
X005539Y018141D02*
X005499Y018141D01*
X005670Y018535D02*
X005305Y018535D01*
X005262Y018634D02*
X005670Y018634D01*
X005670Y018732D02*
X005189Y018732D01*
X005155Y019028D02*
X005670Y019028D01*
X005670Y019126D02*
X005237Y019126D01*
X005278Y019225D02*
X005670Y019225D01*
X005761Y019323D02*
X005300Y019323D01*
X005300Y019422D02*
X005859Y019422D01*
X005888Y019520D02*
X005281Y019520D01*
X005240Y019619D02*
X007553Y019619D01*
X007601Y019666D02*
X007390Y019455D01*
X007390Y019157D01*
X007601Y018946D01*
X007899Y018946D01*
X008110Y019157D01*
X008110Y019455D01*
X007899Y019666D01*
X007601Y019666D01*
X007455Y019520D02*
X006252Y019520D01*
X006279Y019422D02*
X007390Y019422D01*
X007390Y019323D02*
X006279Y019323D01*
X006185Y019225D02*
X007390Y019225D01*
X007421Y019126D02*
X006016Y019126D01*
X006205Y019028D02*
X007519Y019028D01*
X007568Y018634D02*
X006170Y018634D01*
X006170Y018535D02*
X007470Y018535D01*
X007390Y018436D02*
X006170Y018436D01*
X006170Y018338D02*
X006276Y018338D01*
X006177Y018239D02*
X006170Y018239D01*
X006236Y017845D02*
X008199Y017845D01*
X008199Y017747D02*
X006137Y017747D01*
X006108Y017550D02*
X006282Y017550D01*
X006108Y017550D02*
X005940Y017550D01*
X006010Y017451D02*
X005859Y017451D01*
X005813Y017353D02*
X005986Y017353D01*
X005986Y017254D02*
X005568Y017254D01*
X005312Y017057D02*
X005210Y017057D01*
X005210Y017156D02*
X005214Y017156D01*
X005263Y016959D02*
X005411Y016959D01*
X005272Y016762D02*
X005857Y016762D01*
X005855Y016860D02*
X005270Y016860D01*
X005270Y016663D02*
X005762Y016663D01*
X005666Y016565D02*
X005195Y016565D01*
X005079Y016466D02*
X005571Y016466D01*
X005476Y016368D02*
X005079Y016368D01*
X005030Y016269D02*
X005380Y016269D01*
X005285Y016171D02*
X004861Y016171D01*
X004999Y015875D02*
X003819Y015875D01*
X003757Y015777D02*
X004903Y015777D01*
X004808Y015678D02*
X001655Y015678D01*
X001933Y015777D02*
X003463Y015777D01*
X003401Y015875D02*
X002032Y015875D01*
X002130Y015974D02*
X002426Y015974D01*
X002381Y016072D02*
X002229Y016072D01*
X002260Y016171D02*
X002381Y016171D01*
X002457Y016269D02*
X002260Y016269D01*
X002260Y016368D02*
X003390Y016368D01*
X003390Y016466D02*
X002260Y016466D01*
X002260Y016565D02*
X002574Y016565D01*
X002519Y016663D02*
X002185Y016663D01*
X002140Y016762D02*
X002519Y016762D01*
X002587Y016860D02*
X002140Y016860D01*
X002155Y016959D02*
X003080Y016959D01*
X003121Y017057D02*
X002254Y017057D01*
X002260Y017156D02*
X003234Y017156D01*
X003332Y017254D02*
X002260Y017254D01*
X002260Y017353D02*
X003431Y017353D01*
X003529Y017451D02*
X002348Y017451D01*
X002530Y017550D02*
X003628Y017550D01*
X003610Y017606D02*
X003490Y017546D01*
X003569Y017845D02*
X003282Y017845D01*
X003380Y017944D02*
X003449Y017944D01*
X003320Y018338D02*
X003300Y018338D01*
X003300Y018436D02*
X003346Y018436D01*
X003387Y018535D02*
X003274Y018535D01*
X003234Y018634D02*
X003475Y018634D01*
X003478Y018732D02*
X003631Y018732D01*
X003605Y018831D02*
X003577Y018831D01*
X003989Y018732D02*
X004431Y018732D01*
X004358Y018634D02*
X004145Y018634D01*
X004233Y018535D02*
X004315Y018535D01*
X004293Y018436D02*
X004274Y018436D01*
X004015Y018831D02*
X004557Y018831D01*
X004609Y018929D02*
X004156Y018929D01*
X004237Y019028D02*
X004465Y019028D01*
X004383Y019126D02*
X004278Y019126D01*
X004300Y019225D02*
X004342Y019225D01*
X004320Y019323D02*
X004300Y019323D01*
X004280Y019422D02*
X004320Y019422D01*
X004339Y019520D02*
X004239Y019520D01*
X004160Y019619D02*
X004380Y019619D01*
X005011Y018929D02*
X005670Y018929D01*
X005670Y018831D02*
X005063Y018831D01*
X004256Y017648D02*
X002559Y017648D01*
X002729Y016706D02*
X003130Y016706D01*
X003250Y016826D01*
X003250Y016946D01*
X003229Y016565D02*
X003275Y016565D01*
X003307Y016269D02*
X002723Y016269D01*
X002230Y015806D02*
X002170Y015806D01*
X001985Y015580D02*
X004408Y015580D01*
X004361Y015481D02*
X002084Y015481D01*
X002110Y015383D02*
X004361Y015383D01*
X004435Y015284D02*
X002110Y015284D01*
X002110Y015186D02*
X004775Y015186D01*
X004705Y015284D02*
X004849Y015284D01*
X004701Y015087D02*
X002041Y015087D01*
X001899Y014946D02*
X001601Y014946D01*
X001540Y015007D01*
X001540Y014605D01*
X001601Y014666D01*
X001899Y014666D01*
X002110Y014455D01*
X002110Y014157D01*
X001899Y013946D01*
X001601Y013946D01*
X001600Y013947D01*
X001600Y013665D01*
X001601Y013666D01*
X001899Y013666D01*
X002110Y013455D01*
X002110Y013157D01*
X001899Y012946D01*
X001601Y012946D01*
X001440Y013107D01*
X001440Y012505D01*
X001601Y012666D01*
X001899Y012666D01*
X002110Y012455D01*
X002110Y012157D01*
X002001Y012047D01*
X002514Y011534D01*
X002514Y011308D01*
X002785Y011308D01*
X002785Y011481D01*
X002844Y011541D01*
X002844Y013075D01*
X002810Y013075D01*
X002687Y013197D01*
X002687Y013371D01*
X002810Y013494D01*
X002921Y013494D01*
X002921Y013613D01*
X002960Y013652D01*
X002960Y013696D01*
X002379Y014277D01*
X002323Y014277D01*
X002201Y014399D01*
X002201Y014573D01*
X002323Y014695D01*
X002497Y014695D01*
X002619Y014573D01*
X002619Y014517D01*
X003300Y013836D01*
X003300Y013652D01*
X003339Y013613D01*
X003339Y013453D01*
X003380Y013494D01*
X003553Y013494D01*
X003676Y013371D01*
X003676Y013287D01*
X003774Y013189D01*
X003774Y011541D01*
X003782Y011533D01*
X003789Y011541D01*
X003789Y013286D01*
X003790Y013287D01*
X003790Y013371D01*
X003912Y013494D01*
X004086Y013494D01*
X004127Y013453D01*
X004167Y013494D01*
X004341Y013494D01*
X004382Y013453D01*
X004422Y013494D01*
X004596Y013494D01*
X004637Y013453D01*
X004677Y013494D01*
X004851Y013494D01*
X004973Y013371D01*
X004973Y013197D01*
X004923Y013147D01*
X005024Y011550D01*
X005093Y011481D01*
X005093Y011308D01*
X004971Y011185D01*
X004797Y011185D01*
X004727Y011256D01*
X004656Y011185D01*
X004482Y011185D01*
X004412Y011256D01*
X004341Y011185D01*
X004167Y011185D01*
X004097Y011256D01*
X004078Y011237D01*
X004149Y011166D01*
X004149Y011092D01*
X004325Y011092D01*
X004582Y010835D01*
X004582Y010756D01*
X004876Y010462D01*
X005663Y010462D01*
X005742Y010383D01*
X005837Y010383D01*
X006022Y010568D01*
X005995Y010595D01*
X005955Y010595D01*
X005916Y010555D01*
X005742Y010555D01*
X005671Y010626D01*
X005601Y010555D01*
X005427Y010555D01*
X005356Y010626D01*
X005286Y010555D01*
X005112Y010555D01*
X004990Y010678D01*
X004990Y010851D01*
X005039Y010901D01*
X005039Y010910D01*
X005118Y010988D01*
X005118Y011720D01*
X005210Y011812D01*
X005210Y012840D01*
X005130Y012920D01*
X005130Y013460D01*
X004984Y013606D01*
X004804Y013606D01*
X004470Y013940D01*
X004470Y014715D01*
X004462Y014769D01*
X004470Y014779D01*
X004470Y014792D01*
X004470Y014693D02*
X002499Y014693D01*
X002597Y014595D02*
X004470Y014595D01*
X004470Y014496D02*
X002640Y014496D01*
X002738Y014398D02*
X004470Y014398D01*
X004470Y014299D02*
X002837Y014299D01*
X002935Y014201D02*
X004470Y014201D01*
X004470Y014102D02*
X003034Y014102D01*
X003132Y014004D02*
X004470Y014004D01*
X004504Y013905D02*
X003231Y013905D01*
X003300Y013807D02*
X004603Y013807D01*
X004701Y013708D02*
X003300Y013708D01*
X003339Y013610D02*
X004800Y013610D01*
X004931Y013413D02*
X005130Y013413D01*
X005130Y013314D02*
X004973Y013314D01*
X004973Y013216D02*
X005130Y013216D01*
X005130Y013117D02*
X004925Y013117D01*
X004931Y013019D02*
X005130Y013019D01*
X005130Y012920D02*
X004937Y012920D01*
X004944Y012822D02*
X005210Y012822D01*
X005210Y012723D02*
X004950Y012723D01*
X004956Y012625D02*
X005210Y012625D01*
X005210Y012526D02*
X004962Y012526D01*
X004969Y012428D02*
X005210Y012428D01*
X005210Y012329D02*
X004975Y012329D01*
X004981Y012231D02*
X005210Y012231D01*
X005210Y012132D02*
X004987Y012132D01*
X004994Y012034D02*
X005210Y012034D01*
X005210Y011935D02*
X005000Y011935D01*
X005006Y011837D02*
X005210Y011837D01*
X005136Y011738D02*
X005012Y011738D01*
X005019Y011640D02*
X005118Y011640D01*
X005118Y011541D02*
X005033Y011541D01*
X005093Y011443D02*
X005118Y011443D01*
X005118Y011344D02*
X005093Y011344D01*
X005118Y011246D02*
X005032Y011246D01*
X005041Y011237D02*
X004884Y011079D01*
X004990Y010852D02*
X004565Y010852D01*
X004584Y010753D02*
X004990Y010753D01*
X005012Y010655D02*
X004683Y010655D01*
X004781Y010556D02*
X005111Y010556D01*
X005287Y010556D02*
X005426Y010556D01*
X005602Y010556D02*
X005741Y010556D01*
X005667Y010458D02*
X005912Y010458D01*
X005917Y010556D02*
X006010Y010556D01*
X006144Y010450D02*
X005908Y010213D01*
X005671Y010213D01*
X005593Y010292D01*
X004805Y010292D01*
X004412Y010686D01*
X004412Y010765D01*
X004254Y010922D01*
X004097Y010922D01*
X003939Y010765D01*
X003753Y010655D02*
X003631Y010655D01*
X003608Y010678D02*
X002112Y010678D01*
X002042Y010748D01*
X001954Y010836D01*
X001482Y010836D01*
X001440Y010877D01*
X001440Y011107D01*
X001601Y010946D01*
X001899Y010946D01*
X002057Y011104D01*
X002057Y011096D01*
X002302Y010851D01*
X003326Y010851D01*
X003483Y010693D01*
X003730Y010693D01*
X003730Y010678D01*
X003852Y010555D01*
X004026Y010555D01*
X004149Y010678D01*
X004149Y010733D01*
X004167Y010752D01*
X004184Y010752D01*
X004242Y010694D01*
X004242Y010615D01*
X004341Y010516D01*
X004735Y010122D01*
X005522Y010122D01*
X005601Y010043D01*
X005978Y010043D01*
X006078Y010143D01*
X006214Y010280D01*
X006289Y010280D01*
X006289Y009575D01*
X006073Y009360D01*
X005758Y009360D01*
X005659Y009260D01*
X005514Y009115D01*
X005269Y009360D01*
X004499Y009360D01*
X004399Y009260D01*
X004316Y009177D02*
X003519Y009177D01*
X003519Y009276D02*
X003479Y009316D01*
X003479Y009379D01*
X003519Y009418D01*
X003519Y009591D01*
X003396Y009714D01*
X003222Y009714D01*
X003152Y009643D01*
X003133Y009662D01*
X003204Y009733D01*
X003204Y009906D01*
X003133Y009977D01*
X003204Y010048D01*
X003204Y010221D01*
X003405Y010221D01*
X003596Y010029D01*
X003537Y010029D01*
X003415Y009906D01*
X003415Y009733D01*
X003537Y009610D01*
X003711Y009610D01*
X003750Y009650D01*
X004128Y009650D01*
X004167Y009610D01*
X004341Y009610D01*
X004463Y009733D01*
X004463Y009906D01*
X004393Y009977D01*
X004463Y010048D01*
X004463Y010221D01*
X004341Y010344D01*
X004257Y010344D01*
X004168Y010433D01*
X004080Y010521D01*
X003765Y010521D01*
X003695Y010590D01*
X003608Y010678D01*
X003695Y010590D02*
X003695Y010590D01*
X003729Y010556D02*
X003851Y010556D01*
X004027Y010556D02*
X004300Y010556D01*
X004242Y010655D02*
X004126Y010655D01*
X004097Y010607D02*
X004254Y010450D01*
X004241Y010359D02*
X004497Y010359D01*
X004424Y010261D02*
X004596Y010261D01*
X004694Y010162D02*
X004463Y010162D01*
X004463Y010064D02*
X005580Y010064D01*
X005703Y009990D02*
X005325Y009990D01*
X005286Y010029D01*
X005112Y010029D01*
X004990Y009906D01*
X004990Y009733D01*
X005112Y009610D01*
X005286Y009610D01*
X005325Y009650D01*
X005703Y009650D01*
X005742Y009610D01*
X005916Y009610D01*
X006038Y009733D01*
X006038Y009906D01*
X005916Y010029D01*
X005742Y010029D01*
X005703Y009990D01*
X005829Y009820D02*
X005199Y009820D01*
X005049Y009965D02*
X004404Y009965D01*
X004463Y009867D02*
X004990Y009867D01*
X004990Y009768D02*
X004463Y009768D01*
X004401Y009670D02*
X005053Y009670D01*
X004884Y009505D02*
X004727Y009662D01*
X004569Y009190D02*
X005199Y009190D01*
X005514Y008875D01*
X005829Y009190D01*
X006144Y009190D01*
X006459Y009505D01*
X006459Y010371D01*
X006380Y010450D01*
X006065Y010765D01*
X005829Y010765D01*
X005980Y010935D02*
X006038Y010993D01*
X006038Y011166D01*
X005968Y011237D01*
X005986Y011256D01*
X006057Y011185D01*
X006231Y011185D01*
X006301Y011256D01*
X006372Y011185D01*
X006546Y011185D01*
X006668Y011308D01*
X006668Y011481D01*
X006609Y011541D01*
X006609Y011576D01*
X006880Y011576D01*
X006880Y009508D01*
X006475Y009104D01*
X006298Y009104D01*
X006529Y009335D01*
X006629Y009434D01*
X006629Y010441D01*
X006550Y010520D01*
X006136Y010935D01*
X005980Y010935D01*
X005996Y010950D02*
X006880Y010950D01*
X006880Y010852D02*
X006218Y010852D01*
X006317Y010753D02*
X006880Y010753D01*
X006880Y010655D02*
X006415Y010655D01*
X006514Y010556D02*
X006880Y010556D01*
X006880Y010458D02*
X006612Y010458D01*
X006629Y010359D02*
X006880Y010359D01*
X006880Y010261D02*
X006629Y010261D01*
X006629Y010162D02*
X006880Y010162D01*
X006880Y010064D02*
X006629Y010064D01*
X006629Y009965D02*
X006880Y009965D01*
X006880Y009867D02*
X006629Y009867D01*
X006629Y009768D02*
X006880Y009768D01*
X006880Y009670D02*
X006629Y009670D01*
X006629Y009571D02*
X006880Y009571D01*
X006845Y009473D02*
X006629Y009473D01*
X006569Y009374D02*
X006746Y009374D01*
X006648Y009276D02*
X006471Y009276D01*
X006549Y009177D02*
X006372Y009177D01*
X006088Y009374D02*
X003479Y009374D01*
X003519Y009473D02*
X006187Y009473D01*
X006285Y009571D02*
X003519Y009571D01*
X003478Y009670D02*
X003440Y009670D01*
X003415Y009768D02*
X003204Y009768D01*
X003204Y009867D02*
X003415Y009867D01*
X003474Y009965D02*
X003145Y009965D01*
X003204Y010064D02*
X003561Y010064D01*
X003467Y009977D02*
X003309Y010135D01*
X003309Y009820D01*
X003624Y009505D01*
X003624Y009190D01*
X003782Y009032D01*
X004021Y008882D02*
X003242Y008882D01*
X003143Y008783D02*
X003922Y008783D01*
X003939Y008560D02*
X004569Y009190D01*
X004569Y008875D02*
X004254Y008560D01*
X004103Y008389D02*
X003794Y008389D01*
X003794Y008291D02*
X004045Y008291D01*
X004045Y008192D02*
X003794Y008192D01*
X003714Y008094D02*
X004084Y008094D01*
X004045Y007995D02*
X003615Y007995D01*
X003517Y007897D02*
X004045Y007897D01*
X004089Y007798D02*
X003418Y007798D01*
X003309Y007930D02*
X003624Y008245D01*
X003624Y008560D01*
X003939Y008560D01*
X004119Y008980D02*
X003396Y008980D01*
X003495Y009079D02*
X004218Y009079D01*
X004521Y008586D02*
X004990Y008586D01*
X004990Y008488D02*
X004463Y008488D01*
X004406Y008389D02*
X005073Y008389D01*
X005199Y008245D02*
X005041Y008087D01*
X005016Y008094D02*
X005382Y008094D01*
X005340Y008192D02*
X004463Y008192D01*
X004463Y008291D02*
X005242Y008291D01*
X005305Y007995D02*
X005093Y007995D01*
X005093Y008017D02*
X004971Y008139D01*
X004797Y008139D01*
X004675Y008017D01*
X004675Y007843D01*
X004734Y007784D01*
X004734Y007761D01*
X004675Y007702D01*
X004675Y007528D01*
X004797Y007406D01*
X004971Y007406D01*
X005093Y007528D01*
X005093Y007702D01*
X005034Y007761D01*
X005034Y007784D01*
X005093Y007843D01*
X005093Y008017D01*
X005093Y007897D02*
X005305Y007897D01*
X005349Y007798D02*
X005049Y007798D01*
X005093Y007700D02*
X005354Y007700D01*
X005354Y007601D02*
X005093Y007601D01*
X005068Y007503D02*
X005354Y007503D01*
X005354Y007404D02*
X002110Y007404D01*
X002110Y007306D02*
X005439Y007306D01*
X005538Y007207D02*
X002110Y007207D01*
X002062Y007109D02*
X002683Y007109D01*
X002585Y007010D02*
X001964Y007010D01*
X002128Y006912D02*
X000960Y006912D01*
X000960Y007010D02*
X001536Y007010D01*
X001438Y007109D02*
X000960Y007109D01*
X000960Y007207D02*
X001390Y007207D01*
X001390Y007306D02*
X000960Y007306D01*
X000960Y007404D02*
X001390Y007404D01*
X001153Y007503D02*
X000960Y007503D01*
X000960Y007601D02*
X001054Y007601D01*
X001013Y007700D02*
X000960Y007700D01*
X000960Y007798D02*
X001013Y007798D01*
X001021Y007897D02*
X000960Y007897D01*
X000960Y007995D02*
X001119Y007995D01*
X001310Y007766D02*
X001439Y007772D01*
X001892Y007772D01*
X002018Y007646D01*
X002632Y007646D01*
X002679Y007694D01*
X002758Y007694D01*
X002994Y007930D01*
X003309Y007930D01*
X003331Y008192D02*
X002110Y008192D01*
X002110Y008157D02*
X001899Y007946D01*
X001601Y007946D01*
X001390Y008157D01*
X001390Y008455D01*
X001601Y008666D01*
X001899Y008666D01*
X002110Y008455D01*
X002110Y008157D01*
X002047Y008094D02*
X002918Y008094D01*
X002819Y007995D02*
X001949Y007995D01*
X002008Y007897D02*
X002721Y007897D01*
X002679Y007930D02*
X002679Y008087D01*
X002906Y007601D02*
X004675Y007601D01*
X004675Y007700D02*
X003005Y007700D01*
X002729Y007503D02*
X004700Y007503D01*
X004719Y007798D02*
X004419Y007798D01*
X004463Y007897D02*
X004675Y007897D01*
X004675Y007995D02*
X004463Y007995D01*
X004412Y008087D02*
X004569Y007930D01*
X004424Y008094D02*
X004752Y008094D01*
X004778Y008685D02*
X004675Y008685D01*
X004990Y008685D02*
X005028Y008685D01*
X005353Y009276D02*
X005675Y009276D01*
X005576Y009177D02*
X005452Y009177D01*
X005975Y009670D02*
X006289Y009670D01*
X006289Y009768D02*
X006038Y009768D01*
X006038Y009867D02*
X006289Y009867D01*
X006289Y009965D02*
X005979Y009965D01*
X005999Y010064D02*
X006289Y010064D01*
X006289Y010162D02*
X006097Y010162D01*
X006196Y010261D02*
X006289Y010261D01*
X006380Y010450D02*
X006144Y010450D01*
X006038Y011049D02*
X006880Y011049D01*
X006880Y011147D02*
X006038Y011147D01*
X005996Y011246D02*
X005977Y011246D01*
X006291Y011246D02*
X006311Y011246D01*
X006459Y011079D02*
X006774Y011394D01*
X006616Y011552D01*
X006609Y011541D02*
X006880Y011541D01*
X006880Y011443D02*
X006668Y011443D01*
X006668Y011344D02*
X006880Y011344D01*
X006880Y011246D02*
X006606Y011246D01*
X007277Y012231D02*
X007390Y012231D01*
X007390Y012329D02*
X007240Y012329D01*
X007240Y012428D02*
X007390Y012428D01*
X007461Y012526D02*
X007240Y012526D01*
X007240Y012625D02*
X007560Y012625D01*
X007781Y012920D02*
X007240Y012920D01*
X007240Y012822D02*
X007840Y012822D01*
X007840Y012723D02*
X007240Y012723D01*
X007240Y013019D02*
X007528Y013019D01*
X007429Y013117D02*
X007240Y013117D01*
X007192Y013216D02*
X007390Y013216D01*
X007390Y013314D02*
X007094Y013314D01*
X006995Y013413D02*
X007390Y013413D01*
X007446Y013511D02*
X006897Y013511D01*
X006798Y013610D02*
X007545Y013610D01*
X007543Y014004D02*
X005728Y014004D01*
X005623Y014102D02*
X007444Y014102D01*
X007390Y014201D02*
X005519Y014201D01*
X005590Y014246D02*
X005530Y014546D01*
X005394Y014398D02*
X007390Y014398D01*
X007390Y014299D02*
X005429Y014299D01*
X005205Y014595D02*
X007530Y014595D01*
X007450Y014693D02*
X005304Y014693D01*
X005402Y014792D02*
X007352Y014792D01*
X007253Y014890D02*
X005501Y014890D01*
X005599Y014989D02*
X007155Y014989D01*
X007056Y015087D02*
X005698Y015087D01*
X005796Y015186D02*
X006958Y015186D01*
X006859Y015284D02*
X006685Y015284D01*
X006415Y015284D02*
X006265Y015284D01*
X006339Y015383D02*
X006341Y015383D01*
X005995Y015284D02*
X005895Y015284D01*
X005793Y015875D02*
X005723Y015875D01*
X005808Y015974D02*
X005861Y015974D01*
X005896Y016072D02*
X005920Y016072D01*
X005984Y016171D02*
X007170Y016171D01*
X007170Y016269D02*
X006380Y016269D01*
X006220Y016072D02*
X006640Y016072D01*
X006820Y016072D02*
X006940Y016072D01*
X007120Y016072D02*
X007170Y016072D01*
X007576Y015875D02*
X008199Y015875D01*
X008199Y015974D02*
X007927Y015974D01*
X008026Y016072D02*
X008276Y016072D01*
X008374Y016171D02*
X008110Y016171D01*
X008110Y016269D02*
X008975Y016269D01*
X008975Y016171D02*
X008795Y016171D01*
X008894Y016072D02*
X008975Y016072D01*
X008971Y015974D02*
X008975Y015974D01*
X008971Y015875D02*
X008975Y015875D01*
X008971Y015777D02*
X008975Y015777D01*
X008971Y015678D02*
X008975Y015678D01*
X008975Y015580D02*
X008874Y015580D01*
X008776Y015481D02*
X008975Y015481D01*
X008975Y015383D02*
X008110Y015383D01*
X008110Y015284D02*
X008975Y015284D01*
X008975Y015186D02*
X008780Y015186D01*
X008879Y015087D02*
X008975Y015087D01*
X008971Y014989D02*
X008975Y014989D01*
X008971Y014890D02*
X008975Y014890D01*
X008971Y014792D02*
X008975Y014792D01*
X008971Y014693D02*
X008975Y014693D01*
X008975Y014595D02*
X008889Y014595D01*
X008975Y014496D02*
X008791Y014496D01*
X008975Y014398D02*
X008320Y014398D01*
X008320Y014496D02*
X008379Y014496D01*
X008320Y014299D02*
X008975Y014299D01*
X008975Y014201D02*
X008765Y014201D01*
X008864Y014102D02*
X008975Y014102D01*
X008962Y014004D02*
X008975Y014004D01*
X008971Y013905D02*
X008975Y013905D01*
X008971Y013807D02*
X008975Y013807D01*
X008971Y013708D02*
X008975Y013708D01*
X008975Y013610D02*
X008904Y013610D01*
X008975Y013511D02*
X008806Y013511D01*
X008975Y013413D02*
X008320Y013413D01*
X008320Y013511D02*
X008364Y013511D01*
X008320Y013314D02*
X008975Y013314D01*
X008975Y013216D02*
X008750Y013216D01*
X008849Y013117D02*
X008975Y013117D01*
X008975Y013019D02*
X008947Y013019D01*
X008971Y012920D02*
X008975Y012920D01*
X008971Y012822D02*
X008975Y012822D01*
X008971Y012723D02*
X008975Y012723D01*
X008975Y012625D02*
X008919Y012625D01*
X008975Y012526D02*
X008821Y012526D01*
X008975Y012428D02*
X008110Y012428D01*
X008110Y012329D02*
X008975Y012329D01*
X008975Y012231D02*
X008778Y012231D01*
X008876Y012132D02*
X008975Y012132D01*
X008975Y012034D02*
X008975Y012034D01*
X008975Y011541D02*
X008878Y011541D01*
X008975Y011443D02*
X008780Y011443D01*
X008623Y011443D02*
X008546Y011443D01*
X008546Y011420D02*
X008546Y011797D01*
X008169Y011797D01*
X008169Y011664D01*
X008413Y011420D01*
X008546Y011420D01*
X008546Y011541D02*
X008623Y011541D01*
X008623Y011640D02*
X008546Y011640D01*
X008546Y011738D02*
X008623Y011738D01*
X008546Y011837D02*
X007540Y011837D01*
X007540Y011935D02*
X008169Y011935D01*
X008195Y012034D02*
X007987Y012034D01*
X008086Y012132D02*
X008293Y012132D01*
X008392Y012231D02*
X008110Y012231D01*
X008140Y012526D02*
X008349Y012526D01*
X008250Y012625D02*
X008140Y012625D01*
X008140Y012723D02*
X008199Y012723D01*
X008199Y012822D02*
X008140Y012822D01*
X008417Y013216D02*
X008419Y013216D01*
X008020Y013610D02*
X007955Y013610D01*
X008020Y013708D02*
X006700Y013708D01*
X007431Y014496D02*
X005150Y014496D01*
X005078Y013511D02*
X003339Y013511D01*
X003130Y013526D02*
X003130Y013766D01*
X002410Y014486D01*
X002300Y014299D02*
X002110Y014299D01*
X002110Y014201D02*
X002455Y014201D01*
X002553Y014102D02*
X002056Y014102D01*
X001957Y014004D02*
X002652Y014004D01*
X002750Y013905D02*
X001600Y013905D01*
X001600Y013807D02*
X002849Y013807D01*
X002947Y013708D02*
X001600Y013708D01*
X001528Y013019D02*
X001440Y013019D01*
X001440Y012920D02*
X002844Y012920D01*
X002844Y012822D02*
X001440Y012822D01*
X001440Y012723D02*
X002844Y012723D01*
X002844Y012625D02*
X001940Y012625D01*
X002039Y012526D02*
X002844Y012526D01*
X002844Y012428D02*
X002110Y012428D01*
X002110Y012329D02*
X002844Y012329D01*
X002844Y012231D02*
X002110Y012231D01*
X002086Y012132D02*
X002844Y012132D01*
X002844Y012034D02*
X002014Y012034D01*
X002113Y011935D02*
X002844Y011935D01*
X002844Y011837D02*
X002211Y011837D01*
X002310Y011738D02*
X002844Y011738D01*
X002844Y011640D02*
X002408Y011640D01*
X002507Y011541D02*
X002844Y011541D01*
X002837Y011552D02*
X002739Y011874D01*
X002785Y011443D02*
X002514Y011443D01*
X002514Y011344D02*
X002785Y011344D01*
X002301Y010852D02*
X001465Y010852D01*
X001440Y010950D02*
X001596Y010950D01*
X001498Y011049D02*
X001440Y011049D01*
X001904Y010950D02*
X002202Y010950D01*
X002104Y011049D02*
X002002Y011049D01*
X002036Y010753D02*
X003423Y010753D01*
X003463Y010162D02*
X003204Y010162D01*
X003178Y009670D02*
X003141Y009670D01*
X003309Y009505D02*
X003309Y009190D01*
X002925Y008806D01*
X002210Y008806D01*
X002077Y008488D02*
X003415Y008488D01*
X003415Y008586D02*
X002411Y008586D01*
X002456Y008980D02*
X002860Y008980D01*
X002958Y009079D02*
X002357Y009079D01*
X002063Y009079D02*
X002032Y009079D01*
X001964Y008980D02*
X001934Y008980D01*
X001913Y008882D02*
X000960Y008882D01*
X000960Y008980D02*
X001566Y008980D01*
X001468Y009079D02*
X000960Y009079D01*
X000960Y009177D02*
X001390Y009177D01*
X001390Y009276D02*
X000960Y009276D01*
X000960Y009374D02*
X001390Y009374D01*
X001408Y009473D02*
X000960Y009473D01*
X000960Y009571D02*
X001172Y009571D01*
X001074Y009670D02*
X000960Y009670D01*
X000960Y009768D02*
X000975Y009768D01*
X001090Y009266D02*
X001090Y009166D01*
X000960Y008783D02*
X001913Y008783D01*
X001913Y008685D02*
X000960Y008685D01*
X000960Y008586D02*
X001521Y008586D01*
X001423Y008488D02*
X000960Y008488D01*
X000960Y008389D02*
X001390Y008389D01*
X001390Y008291D02*
X000960Y008291D01*
X000960Y008192D02*
X001390Y008192D01*
X001453Y008094D02*
X000960Y008094D01*
X001501Y007995D02*
X001551Y007995D01*
X001979Y008586D02*
X002009Y008586D01*
X002110Y008389D02*
X003454Y008389D01*
X003430Y008291D02*
X002110Y008291D01*
X002128Y006813D02*
X000960Y006813D01*
X000960Y006715D02*
X002128Y006715D01*
X002128Y006616D02*
X001991Y006616D01*
X002090Y006518D02*
X002128Y006518D01*
X002128Y006133D02*
X002128Y005856D01*
X001460Y005856D01*
X001507Y005903D01*
X001507Y005997D01*
X001588Y005916D01*
X001720Y005916D01*
X001720Y006276D01*
X001780Y006276D01*
X001780Y005916D01*
X001912Y005916D01*
X002128Y006133D01*
X002128Y006124D02*
X002120Y006124D01*
X002128Y006025D02*
X002021Y006025D01*
X001923Y005927D02*
X002128Y005927D01*
X001780Y005927D02*
X001720Y005927D01*
X001720Y006025D02*
X001780Y006025D01*
X001780Y006124D02*
X001720Y006124D01*
X001720Y006222D02*
X001780Y006222D01*
X001750Y006306D02*
X003418Y006306D01*
X003782Y006591D01*
X004018Y006749D02*
X003848Y006918D01*
X002789Y006918D01*
X002894Y007109D02*
X005636Y007109D01*
X005735Y007010D02*
X003997Y007010D01*
X004018Y006749D02*
X004018Y006434D01*
X003545Y005961D01*
X003325Y005961D01*
X003310Y005946D01*
X004254Y007930D02*
X004254Y008245D01*
X003453Y008685D02*
X003045Y008685D01*
X003100Y009221D02*
X003100Y009276D01*
X003624Y009820D02*
X004254Y009820D01*
X004143Y010458D02*
X004399Y010458D01*
X004466Y010950D02*
X005080Y010950D01*
X005118Y011049D02*
X004368Y011049D01*
X004402Y011246D02*
X004421Y011246D01*
X004149Y011147D02*
X005118Y011147D01*
X004736Y011246D02*
X004717Y011246D01*
X004106Y011246D02*
X004087Y011246D01*
X003789Y011541D02*
X003774Y011541D01*
X003774Y011640D02*
X003789Y011640D01*
X003789Y011738D02*
X003774Y011738D01*
X003774Y011837D02*
X003789Y011837D01*
X003789Y011935D02*
X003774Y011935D01*
X003774Y012034D02*
X003789Y012034D01*
X003789Y012132D02*
X003774Y012132D01*
X003774Y012231D02*
X003789Y012231D01*
X003789Y012329D02*
X003774Y012329D01*
X003774Y012428D02*
X003789Y012428D01*
X003789Y012526D02*
X003774Y012526D01*
X003774Y012625D02*
X003789Y012625D01*
X003789Y012723D02*
X003774Y012723D01*
X003774Y012822D02*
X003789Y012822D01*
X003789Y012920D02*
X003774Y012920D01*
X003774Y013019D02*
X003789Y013019D01*
X003789Y013117D02*
X003774Y013117D01*
X003789Y013216D02*
X003747Y013216D01*
X003730Y013286D02*
X003730Y013526D01*
X003634Y013413D02*
X003832Y013413D01*
X003790Y013314D02*
X003676Y013314D01*
X003790Y014406D02*
X003790Y014486D01*
X003884Y015974D02*
X005094Y015974D01*
X005189Y016072D02*
X004033Y016072D01*
X002921Y013610D02*
X001955Y013610D01*
X002054Y013511D02*
X002921Y013511D01*
X002729Y013413D02*
X002110Y013413D01*
X002110Y013314D02*
X002687Y013314D01*
X002687Y013216D02*
X002110Y013216D01*
X002071Y013117D02*
X002767Y013117D01*
X002844Y013019D02*
X001972Y013019D01*
X001560Y012625D02*
X001440Y012625D01*
X001440Y012526D02*
X001461Y012526D01*
X002042Y010748D02*
X002042Y010748D01*
X002110Y014398D02*
X002202Y014398D01*
X002201Y014496D02*
X002069Y014496D01*
X001970Y014595D02*
X002223Y014595D01*
X002321Y014693D02*
X001540Y014693D01*
X001540Y014989D02*
X001558Y014989D01*
X002350Y014906D02*
X002350Y014846D01*
X000790Y016586D02*
X001050Y016826D01*
X000790Y016586D02*
X000790Y006326D01*
X001090Y006026D01*
X001210Y006026D01*
X001085Y006321D02*
X001035Y006321D01*
X000960Y006419D02*
X001360Y006419D01*
X001335Y006321D02*
X001720Y006321D01*
X001720Y006419D02*
X001780Y006419D01*
X001780Y006518D02*
X001720Y006518D01*
X001720Y006616D02*
X001780Y006616D01*
X001509Y006616D02*
X000960Y006616D01*
X000960Y006518D02*
X001410Y006518D01*
X001507Y005927D02*
X001577Y005927D01*
X004648Y005927D02*
X004711Y005927D01*
X004648Y006025D02*
X007521Y006025D01*
X007601Y005946D02*
X007899Y005946D01*
X008110Y006157D01*
X008110Y006455D01*
X007899Y006666D01*
X007601Y006666D01*
X007390Y006455D01*
X007390Y006157D01*
X007601Y005946D01*
X007423Y006124D02*
X004648Y006124D01*
X004648Y006222D02*
X007390Y006222D01*
X007390Y006321D02*
X004648Y006321D01*
X004648Y006419D02*
X007390Y006419D01*
X007453Y006518D02*
X004648Y006518D01*
X004648Y006616D02*
X007551Y006616D01*
X007601Y006946D02*
X007899Y006946D01*
X008110Y007157D01*
X008110Y007455D01*
X007899Y007666D01*
X007601Y007666D01*
X007390Y007455D01*
X007390Y007157D01*
X007601Y006946D01*
X007536Y007010D02*
X007095Y007010D01*
X007141Y007109D02*
X007438Y007109D01*
X007390Y007207D02*
X007141Y007207D01*
X007166Y007306D02*
X007390Y007306D01*
X007390Y007404D02*
X007199Y007404D01*
X007314Y007503D02*
X007438Y007503D01*
X007522Y007601D02*
X007536Y007601D01*
X007599Y007700D02*
X008374Y007700D01*
X008380Y007706D02*
X008320Y007647D01*
X008320Y007473D01*
X008443Y007351D01*
X008616Y007351D01*
X008739Y007473D01*
X008739Y007647D01*
X008680Y007706D01*
X008680Y007934D01*
X008687Y007943D01*
X008680Y007995D01*
X008680Y008044D01*
X008715Y008079D01*
X008715Y008253D01*
X008593Y008375D01*
X008419Y008375D01*
X008297Y008253D01*
X008297Y008079D01*
X008377Y008000D01*
X008380Y007975D01*
X008380Y007706D01*
X008380Y007798D02*
X007599Y007798D01*
X007555Y007897D02*
X008380Y007897D01*
X008377Y007995D02*
X007949Y007995D01*
X008047Y008094D02*
X008297Y008094D01*
X008297Y008192D02*
X008110Y008192D01*
X008110Y008291D02*
X008335Y008291D01*
X008425Y008450D02*
X008745Y008450D01*
X008971Y008676D01*
X008971Y008996D01*
X008745Y009222D01*
X008425Y009222D01*
X008199Y008996D01*
X008199Y008676D01*
X008425Y008450D01*
X008387Y008488D02*
X008077Y008488D01*
X008110Y008389D02*
X008975Y008389D01*
X008975Y008291D02*
X008677Y008291D01*
X008715Y008192D02*
X008975Y008192D01*
X008975Y008094D02*
X008715Y008094D01*
X008680Y007995D02*
X008975Y007995D01*
X008975Y007897D02*
X008680Y007897D01*
X008680Y007798D02*
X008975Y007798D01*
X008975Y007700D02*
X008686Y007700D01*
X008739Y007601D02*
X008975Y007601D01*
X008975Y007503D02*
X008739Y007503D01*
X008670Y007404D02*
X008975Y007404D01*
X008975Y007306D02*
X008110Y007306D01*
X008110Y007404D02*
X008389Y007404D01*
X008320Y007503D02*
X008062Y007503D01*
X007964Y007601D02*
X008320Y007601D01*
X008110Y007207D02*
X008975Y007207D01*
X008975Y007109D02*
X008062Y007109D01*
X007964Y007010D02*
X008975Y007010D01*
X008975Y006912D02*
X006455Y006912D01*
X006623Y007010D02*
X006680Y007010D01*
X006738Y007404D02*
X006761Y007404D01*
X006771Y007503D02*
X006640Y007503D01*
X006774Y007615D02*
X006616Y007772D01*
X006869Y007601D02*
X006226Y007601D01*
X006225Y007700D02*
X007083Y007700D01*
X007181Y007798D02*
X006973Y007798D01*
X007091Y007897D02*
X007225Y007897D01*
X007214Y007995D02*
X007551Y007995D01*
X007453Y008094D02*
X007431Y008094D01*
X007979Y008586D02*
X008289Y008586D01*
X008199Y008685D02*
X008061Y008685D01*
X008160Y008783D02*
X008199Y008783D01*
X008199Y008882D02*
X008164Y008882D01*
X008145Y008980D02*
X008199Y008980D01*
X008282Y009079D02*
X008047Y009079D01*
X008110Y009177D02*
X008381Y009177D01*
X008110Y009276D02*
X008975Y009276D01*
X008975Y009374D02*
X008110Y009374D01*
X008141Y009473D02*
X008402Y009473D01*
X008304Y009571D02*
X008239Y009571D01*
X008199Y009867D02*
X008125Y009867D01*
X008199Y009965D02*
X007919Y009965D01*
X007942Y009867D02*
X007420Y009867D01*
X007420Y009965D02*
X007581Y009965D01*
X007483Y010064D02*
X007420Y010064D01*
X007420Y009768D02*
X007455Y009768D01*
X007540Y010655D02*
X007590Y010655D01*
X007540Y010753D02*
X008199Y010753D01*
X008199Y010676D02*
X008425Y010450D01*
X008745Y010450D01*
X008971Y010676D01*
X008971Y010996D01*
X008745Y011222D01*
X008425Y011222D01*
X008199Y010996D01*
X008199Y010676D01*
X008220Y010655D02*
X007910Y010655D01*
X008009Y010556D02*
X008319Y010556D01*
X008417Y010458D02*
X008107Y010458D01*
X008110Y010359D02*
X008975Y010359D01*
X008975Y010261D02*
X008110Y010261D01*
X008110Y010162D02*
X008366Y010162D01*
X008267Y010064D02*
X008017Y010064D01*
X008199Y010852D02*
X007540Y010852D01*
X007540Y010950D02*
X007596Y010950D01*
X007904Y010950D02*
X008199Y010950D01*
X008252Y011049D02*
X008002Y011049D01*
X008101Y011147D02*
X008351Y011147D01*
X008390Y011443D02*
X008110Y011443D01*
X008110Y011344D02*
X008975Y011344D01*
X008975Y011246D02*
X008110Y011246D01*
X008024Y011541D02*
X008291Y011541D01*
X008193Y011640D02*
X007925Y011640D01*
X008169Y011738D02*
X007540Y011738D01*
X007540Y011640D02*
X007575Y011640D01*
X007513Y012034D02*
X007474Y012034D01*
X007414Y012132D02*
X007376Y012132D01*
X008020Y013807D02*
X005938Y013807D01*
X005833Y013905D02*
X008020Y013905D01*
X008020Y014004D02*
X007957Y014004D01*
X008320Y014201D02*
X008404Y014201D01*
X008291Y015087D02*
X008041Y015087D01*
X008110Y015186D02*
X008389Y015186D01*
X008394Y015481D02*
X008084Y015481D01*
X008110Y016368D02*
X008975Y016368D01*
X008975Y016466D02*
X008761Y016466D01*
X008745Y016450D02*
X008971Y016676D01*
X008971Y016996D01*
X008745Y017222D01*
X008425Y017222D01*
X008199Y016996D01*
X008199Y016676D01*
X008425Y016450D01*
X008745Y016450D01*
X008859Y016565D02*
X008975Y016565D01*
X008975Y016663D02*
X008958Y016663D01*
X008971Y016762D02*
X008975Y016762D01*
X008971Y016860D02*
X008975Y016860D01*
X008971Y016959D02*
X008975Y016959D01*
X008975Y017057D02*
X008909Y017057D01*
X008975Y017156D02*
X008810Y017156D01*
X008975Y017254D02*
X008110Y017254D01*
X008109Y017156D02*
X008359Y017156D01*
X008261Y017057D02*
X008011Y017057D01*
X007912Y016959D02*
X008199Y016959D01*
X008199Y016860D02*
X007910Y016860D01*
X007852Y016762D02*
X008199Y016762D01*
X008212Y016663D02*
X007902Y016663D01*
X008000Y016565D02*
X008310Y016565D01*
X008409Y016466D02*
X008099Y016466D01*
X008110Y017353D02*
X008975Y017353D01*
X008975Y017451D02*
X008746Y017451D01*
X008745Y017450D02*
X008971Y017676D01*
X008971Y017996D01*
X008745Y018222D01*
X008425Y018222D01*
X008199Y017996D01*
X008199Y017676D01*
X008425Y017450D01*
X008745Y017450D01*
X008844Y017550D02*
X008975Y017550D01*
X008975Y017648D02*
X008943Y017648D01*
X008971Y017747D02*
X008975Y017747D01*
X008971Y017845D02*
X008975Y017845D01*
X008971Y017944D02*
X008975Y017944D01*
X008975Y018042D02*
X008924Y018042D01*
X008975Y018141D02*
X008825Y018141D01*
X008975Y018239D02*
X008110Y018239D01*
X008110Y018338D02*
X008975Y018338D01*
X008975Y018436D02*
X008110Y018436D01*
X008030Y018535D02*
X008975Y018535D01*
X008975Y018634D02*
X007932Y018634D01*
X007981Y019028D02*
X008975Y019028D01*
X008975Y019126D02*
X008079Y019126D01*
X008110Y019225D02*
X008975Y019225D01*
X008975Y019323D02*
X008110Y019323D01*
X008110Y019422D02*
X008975Y019422D01*
X008975Y019520D02*
X008045Y019520D01*
X007947Y019619D02*
X008975Y019619D01*
X008975Y018929D02*
X006279Y018929D01*
X006279Y018831D02*
X008975Y018831D01*
X008975Y018732D02*
X006232Y018732D01*
X006433Y018042D02*
X007504Y018042D01*
X007996Y018042D02*
X008246Y018042D01*
X008199Y017944D02*
X006334Y017944D01*
X006030Y017156D02*
X006026Y017156D01*
X006279Y015974D02*
X006304Y015974D01*
X007917Y017648D02*
X008227Y017648D01*
X008325Y017550D02*
X008015Y017550D01*
X008110Y017451D02*
X008424Y017451D01*
X008344Y018141D02*
X008094Y018141D01*
X008546Y012231D02*
X008623Y012231D01*
X008623Y012132D02*
X008546Y012132D01*
X008546Y012034D02*
X008623Y012034D01*
X008623Y011935D02*
X008546Y011935D01*
X008819Y011147D02*
X008975Y011147D01*
X008975Y011049D02*
X008917Y011049D01*
X008971Y010950D02*
X008975Y010950D01*
X008971Y010852D02*
X008975Y010852D01*
X008971Y010753D02*
X008975Y010753D01*
X008975Y010655D02*
X008949Y010655D01*
X008975Y010556D02*
X008851Y010556D01*
X008752Y010458D02*
X008975Y010458D01*
X008975Y010162D02*
X008804Y010162D01*
X008902Y010064D02*
X008975Y010064D01*
X008971Y009965D02*
X008975Y009965D01*
X008971Y009867D02*
X008975Y009867D01*
X008971Y009768D02*
X008975Y009768D01*
X008964Y009670D02*
X008975Y009670D01*
X008975Y009571D02*
X008866Y009571D01*
X008767Y009473D02*
X008975Y009473D01*
X008975Y009177D02*
X008789Y009177D01*
X008887Y009079D02*
X008975Y009079D01*
X008971Y008980D02*
X008975Y008980D01*
X008971Y008882D02*
X008975Y008882D01*
X008971Y008783D02*
X008975Y008783D01*
X008971Y008685D02*
X008975Y008685D01*
X008975Y008586D02*
X008881Y008586D01*
X008975Y008488D02*
X008782Y008488D01*
X008975Y006813D02*
X004648Y006813D01*
X004648Y006715D02*
X008975Y006715D01*
X008975Y006616D02*
X007949Y006616D01*
X008047Y006518D02*
X008975Y006518D01*
X008975Y006419D02*
X008110Y006419D01*
X008110Y006321D02*
X008975Y006321D01*
X008975Y006222D02*
X008110Y006222D01*
X008077Y006124D02*
X008975Y006124D01*
X008975Y006025D02*
X007979Y006025D01*
X007426Y005688D02*
X006130Y005726D01*
X005833Y006912D02*
X004648Y006912D01*
X005029Y005927D02*
X008975Y005927D01*
X008975Y005828D02*
X005128Y005828D01*
X005167Y005730D02*
X008975Y005730D01*
X008975Y005631D02*
X005167Y005631D01*
X005157Y005533D02*
X008975Y005533D01*
X006294Y007798D02*
X006225Y007798D01*
X006225Y007897D02*
X006249Y007897D01*
X006249Y007995D02*
X006225Y007995D01*
X006206Y008094D02*
X006314Y008094D01*
X005829Y007497D02*
X006144Y007182D01*
X005829Y007497D02*
X005829Y007930D01*
D14*
X000890Y005666D03*
X001210Y006026D03*
X001310Y007766D03*
X001090Y009166D03*
X002210Y008806D03*
X004870Y005666D03*
X007426Y005688D03*
D15*
X006931Y007142D03*
X006970Y007406D03*
X006774Y007615D03*
X006459Y007930D03*
X006459Y008245D03*
X006774Y008560D03*
X006459Y009190D03*
X006144Y009505D03*
X005829Y009820D03*
X006144Y010135D03*
X005829Y010450D03*
X005829Y010765D03*
X005829Y011079D03*
X005829Y011394D03*
X006144Y011394D03*
X006459Y011394D03*
X006774Y011394D03*
X006810Y012026D03*
X006310Y012026D03*
X006710Y013226D03*
X006459Y013284D03*
X006144Y013284D03*
X005829Y013284D03*
X005590Y014246D03*
X005220Y014276D03*
X004764Y013284D03*
X004509Y013284D03*
X004254Y013284D03*
X003999Y013284D03*
X003730Y013286D03*
X003467Y013284D03*
X003152Y013284D03*
X003130Y013526D03*
X002897Y013284D03*
X002410Y014486D03*
X002350Y014906D03*
X002590Y016106D03*
X002729Y016706D03*
X002530Y017486D03*
X002350Y017666D03*
X001330Y018686D03*
X003430Y016706D03*
X003610Y015926D03*
X003930Y016266D03*
X004210Y016026D03*
X004570Y016466D03*
X004850Y016826D03*
X004870Y016406D03*
X004570Y015446D03*
X005170Y015446D03*
X005514Y015886D03*
X006070Y015926D03*
X006130Y015446D03*
X006550Y015446D03*
X006730Y015866D03*
X007030Y015866D03*
X007390Y015986D03*
X006660Y017366D03*
X006195Y017341D03*
X006210Y016396D03*
X005650Y017486D03*
X005290Y018146D03*
X005050Y017526D03*
X004380Y017476D03*
X003970Y017246D03*
X003610Y017606D03*
X003790Y014406D03*
X002739Y011874D03*
X002994Y011394D03*
X003309Y011394D03*
X003624Y011394D03*
X003624Y011079D03*
X003939Y011079D03*
X003939Y010765D03*
X004254Y010450D03*
X004254Y010135D03*
X004254Y009820D03*
X003939Y010135D03*
X003624Y009820D03*
X003309Y010135D03*
X002994Y010135D03*
X002994Y009820D03*
X002994Y009505D03*
X003309Y009505D03*
X003309Y009190D03*
X003624Y009190D03*
X003624Y008560D03*
X004254Y008560D03*
X004254Y008245D03*
X004254Y007930D03*
X004569Y007930D03*
X004884Y007930D03*
X004884Y007615D03*
X005199Y008245D03*
X005199Y008560D03*
X005514Y008875D03*
X005829Y008560D03*
X006144Y008560D03*
X005829Y007930D03*
X005514Y007930D03*
X006144Y007182D03*
X006459Y007142D03*
X007286Y008245D03*
X007390Y007766D03*
X007392Y008926D03*
X007955Y008875D03*
X008034Y009662D03*
X008506Y008166D03*
X008530Y007560D03*
X007990Y012986D03*
X005514Y010765D03*
X005199Y010765D03*
X004884Y011079D03*
X004884Y011394D03*
X004569Y011394D03*
X004254Y011394D03*
X003939Y011394D03*
X003309Y010765D03*
X004569Y008875D03*
X004884Y008875D03*
X004884Y009505D03*
X005199Y009820D03*
X005154Y011964D03*
X002994Y007615D03*
X002679Y007930D03*
X002789Y006918D03*
X003310Y005946D03*
X003782Y006591D03*
X001810Y011726D03*
X001580Y011906D03*
X001120Y013766D03*
X006070Y018866D03*
X006070Y019406D03*
D16*
X005750Y016786D03*
X002170Y015806D03*
X001050Y016826D03*
D17*
X001090Y016586D02*
X001150Y016586D01*
X001330Y016766D01*
X001330Y016886D01*
X001090Y017126D01*
X001090Y018446D01*
X001330Y018686D01*
X001210Y018266D02*
X001810Y018866D01*
X003400Y018866D01*
X003810Y019276D01*
X003810Y018276D02*
X003680Y018146D01*
X003370Y018146D01*
X003130Y017906D01*
X001630Y017906D01*
X001390Y017666D01*
X001390Y017186D01*
X001570Y017006D01*
X001570Y016646D01*
X001270Y016346D01*
X001270Y013946D01*
X001330Y013886D01*
X001330Y013706D01*
X001170Y013546D01*
X001170Y010146D01*
X001390Y009926D01*
X001919Y009926D01*
X002364Y010371D01*
X003467Y010371D01*
X003703Y010135D01*
X003939Y010135D01*
X004018Y010371D02*
X003703Y010371D01*
X003545Y010528D01*
X002049Y010528D01*
X001892Y010686D01*
X001419Y010686D01*
X001290Y010815D01*
X001290Y013486D01*
X001450Y013646D01*
X001450Y013946D01*
X001390Y014006D01*
X001390Y015626D01*
X001690Y015926D01*
X001870Y015926D01*
X002110Y016166D01*
X002110Y016526D01*
X001990Y016646D01*
X001990Y017006D01*
X002110Y017126D01*
X002110Y017426D01*
X002350Y017666D01*
X002230Y017546D01*
X001450Y016946D02*
X001450Y016706D01*
X001110Y016366D01*
X001110Y013776D01*
X001120Y013766D01*
X001050Y013706D01*
X001050Y010086D01*
X001330Y009806D01*
X002203Y009806D01*
X002216Y009820D01*
X002994Y009820D01*
X002994Y009505D02*
X002128Y009505D01*
X001971Y009662D01*
X001294Y009662D01*
X000930Y010026D01*
X000930Y016426D01*
X001090Y016586D01*
X001450Y016946D02*
X001210Y017186D01*
X001210Y018266D01*
X003999Y013284D02*
X003939Y013224D01*
X003939Y011394D01*
X003939Y011079D02*
X003703Y010843D01*
X003545Y010843D01*
X003388Y011001D01*
X002364Y011001D01*
X002207Y011158D01*
X002207Y011449D01*
X001930Y011726D01*
X001810Y011726D01*
X001930Y011906D02*
X001580Y011906D01*
X001570Y011906D01*
X001930Y011906D02*
X002364Y011472D01*
X002364Y011237D01*
X002443Y011158D01*
X003545Y011158D01*
X003624Y011079D01*
X004018Y010371D02*
X004254Y010135D01*
X004884Y008875D02*
X005199Y008875D01*
X005514Y008560D01*
X005908Y008954D01*
X006538Y008954D01*
X007030Y009446D01*
X007030Y011666D01*
X006970Y011726D01*
X006610Y011726D01*
X006310Y012026D01*
X006370Y012206D02*
X006190Y012206D01*
X006100Y012116D01*
X006100Y011936D01*
X006250Y011786D01*
X006370Y011786D01*
X006459Y011697D01*
X006459Y011394D01*
X006144Y011394D02*
X006144Y011712D01*
X005950Y011906D01*
X005950Y012146D01*
X006010Y012206D01*
X006070Y012266D01*
X006130Y012326D01*
X006130Y013270D01*
X006144Y013284D01*
X005890Y013646D02*
X005220Y014276D01*
X005890Y013646D02*
X006550Y013646D01*
X007090Y013106D01*
X007090Y012206D01*
X007390Y011906D01*
X007390Y010406D01*
X007490Y010306D01*
X007750Y010306D01*
X007561Y009662D02*
X008034Y009662D01*
X007955Y008875D02*
X007404Y008560D01*
X007167Y008560D01*
X006853Y008245D01*
X006459Y008245D01*
X006223Y008324D02*
X006565Y008666D01*
X006790Y008823D01*
X007219Y009112D01*
X007357Y008973D01*
X007392Y008926D01*
X007423Y008717D02*
X007640Y008875D01*
X007640Y008934D01*
X007404Y009170D01*
X007404Y009505D01*
X007561Y009662D01*
X007270Y009146D02*
X007219Y009112D01*
X007270Y009146D02*
X007270Y011846D01*
X006970Y012146D01*
X006970Y012206D01*
X006790Y012386D01*
X006790Y013106D01*
X006710Y013226D01*
X006459Y013284D02*
X006430Y013255D01*
X006430Y012266D01*
X006370Y012206D01*
X006810Y012026D02*
X006910Y012026D01*
X007150Y011786D01*
X007150Y009266D01*
X006606Y008843D01*
X006370Y008786D01*
X006144Y008560D01*
X006065Y008324D02*
X006223Y008324D01*
X006065Y008324D02*
X005829Y008560D01*
X006459Y007930D02*
X006892Y007930D01*
X007286Y008245D01*
X006931Y008560D02*
X007089Y008717D01*
X007423Y008717D01*
X007390Y007766D02*
X006970Y007406D01*
X006931Y008560D02*
X006774Y008560D01*
X008506Y008166D02*
X008530Y007985D01*
X008530Y007560D01*
X007750Y012306D02*
X007990Y012546D01*
X007990Y012986D01*
X008170Y013251D02*
X008585Y012836D01*
X008170Y013251D02*
X008170Y014546D01*
X007990Y014726D01*
X007630Y014726D01*
X006910Y015446D01*
X006550Y015446D01*
X006730Y015626D02*
X006670Y015686D01*
X006370Y015686D01*
X006130Y015446D01*
X006730Y015626D02*
X006910Y015626D01*
X007690Y014846D01*
X008575Y014846D01*
X008585Y014836D01*
X008230Y015686D02*
X007210Y015686D01*
X007030Y015866D01*
X008230Y015686D02*
X008380Y015836D01*
X008585Y015836D01*
X004884Y007930D02*
X004884Y007615D01*
D18*
X005671Y008087D02*
X005199Y008560D01*
X005514Y007930D02*
X005514Y007457D01*
X005986Y006985D01*
X006301Y006985D01*
X006459Y007142D01*
X006538Y007379D02*
X006223Y007379D01*
X006065Y007536D01*
X006065Y008009D01*
X005908Y008166D01*
X005829Y008166D01*
X005671Y008087D01*
X006538Y007379D02*
X006774Y007142D01*
X006931Y007142D01*
X005514Y010765D02*
X005514Y010843D01*
X005435Y010922D01*
X005435Y011571D01*
X005530Y011666D01*
X005530Y012986D01*
X005470Y013046D01*
X005470Y013586D01*
X005170Y013906D01*
X004990Y013906D01*
X004810Y014066D01*
X004810Y014666D01*
X006070Y015926D01*
X006250Y015806D02*
X006130Y015686D01*
X006070Y015686D01*
X004990Y014606D01*
X004990Y014186D01*
X005110Y014066D01*
X005230Y014066D01*
X005630Y013666D01*
X005630Y013166D01*
X005690Y013126D01*
X005690Y011583D01*
X005593Y011486D01*
X005593Y011158D01*
X005671Y011079D01*
X005829Y011079D01*
X005278Y010922D02*
X005278Y011654D01*
X005370Y011746D01*
X005370Y012906D01*
X005290Y012986D01*
X005290Y013526D01*
X005050Y013766D01*
X004870Y013766D01*
X004630Y014006D01*
X004630Y014726D01*
X005170Y015446D01*
X005514Y015886D02*
X005890Y016306D01*
X005890Y016346D01*
X006190Y016646D01*
X006190Y017336D01*
X006195Y017341D01*
X005890Y017066D02*
X006010Y016946D01*
X006026Y016706D01*
X004805Y015446D01*
X004570Y015446D01*
X004730Y016266D02*
X004870Y016406D01*
X004990Y016606D02*
X004750Y016606D01*
X004630Y016706D01*
X004210Y016706D01*
X004150Y016646D01*
X003730Y016646D01*
X003550Y016466D01*
X003550Y016286D01*
X003370Y016106D01*
X002590Y016106D01*
X003250Y016946D02*
X003790Y017486D01*
X004090Y017486D01*
X004210Y017366D01*
X004210Y017126D01*
X004450Y016886D01*
X004690Y016886D01*
X004750Y016826D01*
X004850Y016826D01*
X005050Y016946D02*
X005050Y017526D01*
X005170Y017546D01*
X005830Y018206D01*
X005830Y019166D01*
X006070Y019406D01*
X006070Y018866D02*
X006010Y018806D01*
X006010Y018146D01*
X005350Y017486D01*
X005350Y017246D01*
X005530Y017066D01*
X005890Y017066D01*
X005650Y017486D02*
X006430Y018266D01*
X007710Y018266D01*
X007750Y018306D01*
X007750Y017306D02*
X007750Y016886D01*
X007330Y016466D01*
X007330Y016046D01*
X007390Y015986D01*
X006730Y015866D02*
X006250Y015806D01*
X006210Y016396D02*
X006280Y016466D01*
X006430Y016466D01*
X006670Y016706D01*
X006670Y017296D01*
X006660Y017366D01*
X005290Y018146D02*
X004990Y017786D01*
X004750Y017546D01*
X004430Y017546D01*
X004380Y017476D01*
X003970Y017246D02*
X003430Y016706D01*
X003730Y016406D02*
X003730Y016046D01*
X003610Y015926D01*
X003930Y016266D02*
X004730Y016266D01*
X004570Y016466D02*
X003790Y016466D01*
X003730Y016406D01*
X004930Y017426D02*
X005050Y017526D01*
X005050Y016946D02*
X005110Y016886D01*
X005110Y016706D01*
X004990Y016606D01*
X005278Y010922D02*
X005199Y010843D01*
X005199Y010765D01*
D19*
X004884Y011394D02*
X004764Y013284D01*
X004509Y013284D02*
X004569Y011394D01*
X004254Y011394D02*
X004254Y013284D01*
X003624Y013127D02*
X003467Y013284D01*
X003624Y013127D02*
X003624Y011394D01*
X003309Y011394D02*
X003309Y013127D01*
X003152Y013284D01*
X002994Y013127D02*
X002994Y011394D01*
X002994Y013127D02*
X002897Y013284D01*
X005829Y013284D02*
X005829Y011394D01*
D20*
X004870Y005666D02*
X000890Y005666D01*
M02*
