%
M48
M72
T01C0.0079
T02C0.0197
T03C0.0236
T04C0.0320
T05C0.0354
T06C0.0400
%
T01
X3310Y5946
X3782Y6591
X4254Y7930
X4254Y8245
X4254Y8560
X4569Y8875
X4884Y8875
X5199Y8560
X5199Y8245
X5514Y7930
X5829Y7930
X5829Y8560
X6144Y8560
X6459Y8245
X6459Y7930
X6774Y7615
X6970Y7406
X6931Y7142
X7390Y7766
X7286Y8245
X7392Y8926
X7955Y8875
X8034Y9662
X8506Y8166
X8530Y7560
X6774Y8560
X6459Y9190
X6144Y9505
X5829Y9820
X6144Y10135
X5829Y10450
X5829Y10765
X5829Y11079
X5829Y11394
X6144Y11394
X6459Y11394
X6774Y11394
X6810Y12026
X6310Y12026
X6710Y13226
X6459Y13284
X6144Y13284
X5829Y13284
X5590Y14246
X5220Y14276
X4764Y13284
X4509Y13284
X4254Y13284
X3999Y13284
X3730Y13286
X3467Y13284
X3152Y13284
X3130Y13526
X2897Y13284
X2410Y14486
X2350Y14906
X2590Y16106
X2729Y16706
X2530Y17486
X2350Y17666
X1330Y18686
X3430Y16706
X3610Y15926
X3930Y16266
X4210Y16026
X4570Y16466
X4850Y16826
X4870Y16406
X4570Y15446
X5170Y15446
X5514Y15886
X6070Y15926
X6130Y15446
X6550Y15446
X6730Y15866
X7030Y15866
X7390Y15986
X6660Y17366
X6195Y17341
X6210Y16396
X5650Y17486
X5290Y18146
X5050Y17526
X4380Y17476
X3970Y17246
X3610Y17606
X3790Y14406
X2739Y11874
X2994Y11394
X3309Y11394
X3624Y11394
X3624Y11079
X3939Y11079
X3939Y10765
X4254Y10450
X4254Y10135
X4254Y9820
X3939Y10135
X3624Y9820
X3309Y10135
X2994Y10135
X2994Y9820
X2994Y9505
X3309Y9505
X3309Y9190
X3624Y9190
X3624Y8560
X2994Y7615
X2679Y7930
X2789Y6918
X4569Y7930
X4884Y7930
X4884Y7615
X5514Y8875
X5199Y9820
X4884Y9505
X5199Y10765
X5514Y10765
X4884Y11079
X4884Y11394
X4569Y11394
X4254Y11394
X3939Y11394
X3309Y10765
X1810Y11726
X1580Y11906
X1120Y13766
X5154Y11964
X6144Y7182
X6459Y7142
X7990Y12986
X6070Y18866
X6070Y19406
T02
X5750Y16786
X2170Y15806
X1050Y16826
T03
X890Y5666
X1210Y6026
X1310Y7766
X1090Y9166
X2210Y8806
X4870Y5666
X7426Y5688
T04
X7750Y6306
X7750Y7306
X7750Y8306
X7750Y9306
X7750Y10306
X7750Y11306
X7750Y12306
X7750Y13306
X7750Y14306
X7750Y15306
X7750Y16306
X7750Y17306
X7750Y18306
X7750Y19306
X1750Y19306
X1750Y18306
X1750Y17306
X1750Y16306
X1750Y15306
X1750Y14306
X1750Y13306
X1750Y12306
X1750Y11306
X1750Y10306
X1750Y9306
X1750Y8306
X1750Y7306
X1750Y6306
T05
X8585Y8836
X8585Y9836
X8585Y10836
X8585Y11836
X8585Y12836
X8585Y13836
X8585Y14836
X8585Y15836
X8585Y16836
X8585Y17836
T06
X4810Y18376
X4810Y19376
X3810Y19276
X3810Y18276
X2810Y18376
X2810Y19376
M30
