%
M48
M72
T01C0.0079
T02C0.0157
T03C0.0197
T04C0.0236
T05C0.0320
T06C0.0400
%
T01
X2789Y6798
X3310Y5826
X3782Y6471
X4140Y10015
X4170Y11218
X3930Y11218
X4450Y12378
X4254Y13007
X4254Y13322
X4254Y13637
X3939Y13322
X3730Y12818
X3610Y12498
X3310Y12977
X3174Y12692
X2994Y12456
X2820Y12669
X2994Y13322
X2994Y13637
X3309Y13637
X3309Y13322
X3624Y13637
X3624Y13952
X3939Y14267
X3624Y14582
X3624Y15211
X3939Y15526
X4254Y15526
X4254Y15211
X4254Y15841
X3939Y16156
X3939Y16471
X3939Y16786
X3624Y16786
X3624Y16471
X3309Y16156
X3309Y16786
X2994Y16786
X2739Y17266
X2679Y16786
X2679Y16471
X2994Y15526
X2994Y15211
X2994Y14897
X3309Y14897
X3309Y14582
X3309Y15526
X4254Y16786
X4569Y16786
X4884Y16786
X4884Y16471
X5154Y17356
X5199Y16156
X5514Y16156
X5829Y16156
X5829Y15841
X5829Y16471
X5829Y16786
X6144Y16786
X6459Y16786
X6459Y16471
X6414Y17446
X6339Y18538
X6084Y18538
X5829Y18538
X5530Y19638
X6120Y19838
X6350Y19818
X6580Y19808
X6950Y18538
X7090Y19278
X7330Y19098
X7810Y21318
X8350Y20418
X8230Y19578
X7090Y21378
X6730Y21378
X6490Y21378
X6135Y22192
X6310Y22378
X6250Y23658
X5630Y23418
X5510Y22518
X5700Y21728
X4930Y22918
X4850Y22218
X4870Y21798
X4570Y21858
X4890Y20998
X4380Y22868
X4690Y23258
X4050Y21433
X4050Y20958
X3790Y19798
X3730Y18678
X3467Y18676
X3152Y18676
X2897Y18618
X2781Y18869
X3070Y19158
X2507Y20298
X2590Y21498
X2729Y22098
X2530Y22878
X1870Y22338
X1716Y23428
X1419Y24482
X986Y24078
X1120Y19158
X1750Y17248
X3430Y22098
X3610Y22998
X3970Y22638
X3999Y18676
X4254Y18676
X4509Y18676
X4764Y18676
X5199Y15211
X5514Y14267
X5514Y13952
X5514Y13637
X5470Y12968
X5199Y13007
X5199Y13322
X5199Y13637
X4884Y13637
X4569Y13637
X4569Y13322
X4930Y12456
X4810Y11178
X5580Y12368
X5710Y12938
X5829Y13637
X5960Y12943
X6144Y13322
X6144Y13637
X6144Y13952
X6459Y13952
X6459Y14267
X6459Y14582
X6459Y15211
X6144Y14897
X6144Y15526
X5829Y15211
X6430Y12968
X6774Y13322
X6790Y13948
X6790Y14598
X6790Y14898
X7510Y14298
X7930Y12518
X7640Y12368
X7630Y11378
X7870Y10458
X7510Y10278
X7630Y9258
X8050Y9138
X7810Y8298
X7516Y7258
X7010Y6798
X6710Y6778
X6930Y9918
X6850Y10938
X6550Y10998
X6370Y10698
X6190Y10998
X5890Y11196
X5950Y9918
X4884Y14897
X3010Y10938
X2350Y7938
X950Y10938
T02
X1971Y20408
X1020Y22456
T03
X2110Y16338
X2030Y14518
X1470Y13438
X1040Y11898
X1050Y11418
X2770Y11118
X5230Y11158
X5593Y10135
X5356Y7858
X6550Y6038
X7010Y6008
X4340Y21078
X6024Y21518
T04
X1090Y14778
X970Y9506
X1202Y6291
X4450Y5546
T05
X1727Y5869
X1727Y6869
X1727Y7869
X1727Y8869
X1727Y9869
X1727Y10869
X1727Y11869
X1727Y12869
X1727Y13869
X1727Y14869
X1727Y15869
X1727Y16869
X1727Y17869
X1727Y18869
X1727Y19869
X1727Y20869
X1727Y21869
X1727Y22869
X1727Y23869
X1727Y24869
X7727Y24869
X7727Y23869
X7727Y22869
X7727Y21869
X7727Y20869
X7727Y19869
X7727Y18869
X7727Y17869
X7727Y16869
X7727Y15869
X7727Y14869
X7727Y13869
X7727Y12869
X7727Y11869
X7727Y10869
X7727Y9869
X7727Y8869
X7727Y7869
X7727Y6869
X7727Y5869
T06
X6805Y7389
X6805Y8389
X5805Y8389
X5805Y7389
X4805Y7389
X4805Y8389
X3805Y8389
X3805Y7389
X2805Y7389
X2805Y8389
X3670Y23668
X3670Y24668
X2670Y24768
X2670Y23768
X4670Y23768
X4670Y24768
X5750Y24438
X5750Y25438
X6750Y25438
X6750Y24438
M30
