G75*
%MOIN*%
%OFA0B0*%
%FSLAX24Y24*%
%IPPOS*%
%LPD*%
%AMOC8*
5,1,8,0,0,1.08239X$1,22.5*
%
%ADD10C,0.0740*%
%ADD11OC8,0.0480*%
%ADD12OC8,0.0600*%
%ADD13OC8,0.0354*%
%ADD14C,0.0100*%
%ADD15OC8,0.0179*%
%ADD16OC8,0.0297*%
%ADD17C,0.0060*%
%ADD18OC8,0.0257*%
%ADD19C,0.0060*%
%ADD20C,0.0140*%
%ADD21C,0.0080*%
D10*
X003670Y023668D03*
X003670Y024668D03*
X002670Y024768D03*
X002670Y023768D03*
X004670Y023768D03*
X004670Y024768D03*
D11*
X001727Y024869D03*
X001727Y023869D03*
X001727Y022869D03*
X001727Y021869D03*
X001727Y020869D03*
X001727Y019869D03*
X001727Y018869D03*
X001727Y017869D03*
X001727Y016869D03*
X001727Y015869D03*
X001727Y014869D03*
X001727Y013869D03*
X001727Y012869D03*
X001727Y011869D03*
X001727Y010869D03*
X001727Y009869D03*
X001727Y008869D03*
X001727Y007869D03*
X001727Y006869D03*
X001727Y005869D03*
X007727Y005869D03*
X007727Y006869D03*
X007727Y007869D03*
X007727Y008869D03*
X007727Y009869D03*
X007727Y010869D03*
X007727Y011869D03*
X007727Y012869D03*
X007727Y013869D03*
X007727Y014869D03*
X007727Y015869D03*
X007727Y016869D03*
X007727Y017869D03*
X007727Y018869D03*
X007727Y019869D03*
X007727Y020869D03*
X007727Y021869D03*
X007727Y022869D03*
X007727Y023869D03*
X007727Y024869D03*
D12*
X006750Y024438D03*
X006750Y025438D03*
X005750Y025438D03*
X005750Y024438D03*
X005805Y008389D03*
X005805Y007389D03*
X004805Y007389D03*
X004805Y008389D03*
X003805Y008389D03*
X003805Y007389D03*
X002805Y007389D03*
X002805Y008389D03*
X006805Y008389D03*
X006805Y007389D03*
D13*
X004450Y005546D03*
X001202Y006291D03*
X000970Y009506D03*
X001090Y014778D03*
D14*
X001090Y014658D01*
X000960Y014668D02*
X001419Y014668D01*
X001367Y014720D02*
X001367Y015018D01*
X001456Y015108D01*
X001168Y015108D01*
X000960Y015316D01*
X000960Y012166D01*
X001151Y012166D01*
X001308Y012009D01*
X001308Y011867D01*
X001367Y011807D01*
X001367Y012018D01*
X001577Y012229D01*
X001876Y012229D01*
X002087Y012018D01*
X002087Y011720D01*
X001954Y011588D01*
X002420Y011588D01*
X002640Y011368D01*
X002659Y011386D01*
X002881Y011386D01*
X003038Y011229D01*
X003038Y011147D01*
X003097Y011147D01*
X003219Y011024D01*
X003219Y010851D01*
X003097Y010728D01*
X003013Y010728D01*
X003012Y010728D01*
X006161Y010728D01*
X006161Y010784D02*
X006161Y010611D01*
X006283Y010488D01*
X006457Y010488D01*
X006579Y010611D01*
X006579Y010784D01*
X006575Y010788D01*
X006637Y010788D01*
X006670Y010822D01*
X006763Y010728D01*
X006937Y010728D01*
X007059Y010851D01*
X007059Y011024D01*
X007000Y011084D01*
X007000Y011120D01*
X006912Y011208D01*
X006820Y011300D01*
X006820Y012048D01*
X007092Y012048D01*
X007300Y012256D01*
X007300Y012376D01*
X007400Y012276D01*
X007437Y012233D01*
X007443Y012232D01*
X007448Y012228D01*
X007484Y012228D01*
X007530Y012182D01*
X007367Y012018D01*
X007367Y011720D01*
X007577Y011509D01*
X007876Y011509D01*
X007960Y011593D01*
X007960Y011540D01*
X007778Y011358D01*
X007478Y011358D01*
X007328Y011208D01*
X007240Y011120D01*
X007240Y010580D01*
X007180Y010520D01*
X007180Y008608D01*
X006979Y008809D01*
X006631Y008809D01*
X006385Y008563D01*
X006385Y008215D01*
X006631Y007969D01*
X006979Y007969D01*
X007180Y008169D01*
X007180Y007608D01*
X006979Y007809D01*
X006631Y007809D01*
X006385Y007563D01*
X006385Y007215D01*
X006618Y006982D01*
X006501Y006864D01*
X006501Y006691D01*
X006623Y006568D01*
X006797Y006568D01*
X006870Y006642D01*
X006923Y006588D01*
X007097Y006588D01*
X007219Y006711D01*
X007219Y006767D01*
X007367Y006914D01*
X007367Y006720D01*
X007577Y006509D01*
X007876Y006509D01*
X008087Y006720D01*
X008087Y007018D01*
X007876Y007229D01*
X007726Y007229D01*
X007726Y007344D01*
X007603Y007467D01*
X007480Y007467D01*
X007480Y007606D01*
X007577Y007509D01*
X007876Y007509D01*
X008087Y007720D01*
X008087Y008018D01*
X007876Y008229D01*
X007671Y008229D01*
X007660Y008240D01*
X007660Y008356D01*
X007692Y008388D01*
X007932Y008388D01*
X008200Y008656D01*
X008200Y008799D01*
X008380Y008979D01*
X008380Y009320D01*
X008320Y009380D01*
X008320Y010936D01*
X008500Y011116D01*
X008500Y014300D01*
X008412Y014388D01*
X008380Y014420D01*
X008380Y015436D01*
X008503Y015559D01*
X008503Y005411D01*
X006682Y005411D01*
X007010Y005739D01*
X007121Y005739D01*
X007278Y005897D01*
X007278Y006119D01*
X007121Y006276D01*
X006899Y006276D01*
X006742Y006119D01*
X006742Y006008D01*
X006361Y005628D01*
X006204Y005628D01*
X006204Y006944D01*
X003985Y006902D01*
X003919Y006968D01*
X002915Y006968D01*
X002915Y006969D01*
X002979Y006969D01*
X003225Y007215D01*
X003225Y007563D01*
X002979Y007809D01*
X002631Y007809D01*
X002440Y007617D01*
X002440Y007732D01*
X002559Y007851D01*
X002559Y008024D01*
X002437Y008147D01*
X002263Y008147D01*
X002141Y008024D01*
X002141Y007941D01*
X002140Y007940D01*
X002140Y007580D01*
X001900Y007340D01*
X001900Y007205D01*
X001876Y007229D01*
X001577Y007229D01*
X001367Y007018D01*
X001367Y006720D01*
X001577Y006509D01*
X001876Y006509D01*
X001900Y006533D01*
X001900Y006380D01*
X001749Y006229D01*
X001577Y006229D01*
X001367Y006018D01*
X001367Y005720D01*
X001459Y005628D01*
X001149Y005628D01*
X001040Y005736D01*
X001040Y009209D01*
X001093Y009209D01*
X001267Y009383D01*
X001267Y009629D01*
X001093Y009803D01*
X000847Y009803D01*
X000753Y009710D01*
X000753Y010838D01*
X000863Y010728D01*
X001037Y010728D01*
X001159Y010851D01*
X001159Y010935D01*
X001312Y011088D01*
X001436Y011088D01*
X001367Y011018D01*
X001367Y010720D01*
X001577Y010509D01*
X001876Y010509D01*
X002087Y010720D01*
X002087Y011018D01*
X002017Y011088D01*
X002228Y011088D01*
X002588Y010728D01*
X002087Y010728D01*
X002087Y010826D02*
X002489Y010826D01*
X002391Y010925D02*
X002087Y010925D01*
X002081Y011023D02*
X002292Y011023D01*
X002610Y011158D02*
X002350Y011418D01*
X001510Y011418D01*
X001040Y011898D01*
X000960Y012205D02*
X001554Y012205D01*
X001455Y012107D02*
X001211Y012107D01*
X001308Y012008D02*
X001367Y012008D01*
X001367Y011910D02*
X001308Y011910D01*
X001363Y011811D02*
X001367Y011811D01*
X001050Y011418D02*
X000790Y011678D01*
X000790Y022299D01*
X001020Y022456D01*
X000859Y022646D02*
X000753Y022646D01*
X000771Y022559D02*
X000771Y022492D01*
X000753Y022479D01*
X000753Y025799D01*
X005475Y025799D01*
X005300Y025624D01*
X005300Y025488D01*
X005700Y025488D01*
X005700Y025388D01*
X005300Y025388D01*
X005300Y025251D01*
X005564Y024988D01*
X005700Y024988D01*
X005700Y025388D01*
X005800Y025388D01*
X005800Y025488D01*
X006200Y025488D01*
X006200Y025624D01*
X006025Y025799D01*
X006517Y025799D01*
X006330Y025612D01*
X006330Y025264D01*
X006576Y025018D01*
X006924Y025018D01*
X007170Y025264D01*
X007170Y025612D01*
X006983Y025799D01*
X008503Y025799D01*
X008503Y020561D01*
X008437Y020627D01*
X008263Y020627D01*
X008141Y020504D01*
X008141Y020359D01*
X007992Y020508D01*
X007508Y020508D01*
X007420Y020420D01*
X006981Y019981D01*
X006718Y019966D01*
X006667Y020017D01*
X006493Y020017D01*
X006470Y019994D01*
X006437Y020027D01*
X006263Y020027D01*
X006245Y020009D01*
X006207Y020047D01*
X006033Y020047D01*
X005911Y019924D01*
X005911Y019751D01*
X006033Y019628D01*
X006047Y019628D01*
X006308Y019368D01*
X006884Y019368D01*
X006881Y019364D01*
X006881Y019191D01*
X007003Y019068D01*
X007121Y019068D01*
X007121Y019011D01*
X007243Y018888D01*
X007367Y018888D01*
X007367Y018720D01*
X007577Y018509D01*
X007159Y018509D01*
X007159Y018451D02*
X007159Y018624D01*
X007037Y018747D01*
X006863Y018747D01*
X006745Y018629D01*
X006722Y018621D01*
X006704Y018587D01*
X006629Y018511D01*
X006629Y017326D01*
X006624Y017321D01*
X006624Y016917D01*
X006609Y016932D01*
X006609Y017151D01*
X006520Y017240D01*
X006432Y017328D01*
X006312Y017328D01*
X006250Y017390D01*
X006250Y017446D01*
X006312Y017508D01*
X006400Y017596D01*
X006400Y018314D01*
X006407Y018328D01*
X006426Y018328D01*
X006548Y018451D01*
X006548Y018624D01*
X006426Y018747D01*
X006252Y018747D01*
X006211Y018706D01*
X006171Y018747D01*
X005997Y018747D01*
X005956Y018706D01*
X005916Y018747D01*
X005790Y018747D01*
X005790Y019304D01*
X005510Y019584D01*
X005510Y019991D01*
X006016Y020498D01*
X006436Y020498D01*
X007107Y021168D01*
X007177Y021168D01*
X007299Y021291D01*
X007299Y021464D01*
X007660Y021464D01*
X007705Y021509D02*
X007601Y021404D01*
X007601Y021231D01*
X007603Y021229D01*
X007577Y021229D01*
X007367Y021018D01*
X007367Y020720D01*
X007577Y020509D01*
X007876Y020509D01*
X008087Y020720D01*
X008087Y021018D01*
X007946Y021158D01*
X008019Y021231D01*
X008019Y021255D01*
X008112Y021348D01*
X008200Y021436D01*
X008200Y023608D01*
X008087Y023721D01*
X008087Y024018D01*
X007876Y024229D01*
X007577Y024229D01*
X007367Y024018D01*
X007367Y023720D01*
X007577Y023509D01*
X007874Y023509D01*
X007900Y023483D01*
X007900Y023205D01*
X007876Y023229D01*
X007577Y023229D01*
X007367Y023018D01*
X007367Y022720D01*
X007577Y022509D01*
X007876Y022509D01*
X007900Y022533D01*
X007900Y022205D01*
X007876Y022229D01*
X007577Y022229D01*
X007367Y022018D01*
X007367Y021720D01*
X007577Y021509D01*
X007705Y021509D01*
X007601Y021366D02*
X007299Y021366D01*
X007299Y021464D02*
X007177Y021587D01*
X007003Y021587D01*
X006910Y021494D01*
X006817Y021587D01*
X006643Y021587D01*
X006610Y021554D01*
X006577Y021587D01*
X006403Y021587D01*
X006281Y021464D01*
X005210Y021464D01*
X005210Y021366D02*
X006252Y021366D01*
X006281Y021395D02*
X006064Y021178D01*
X005764Y021178D01*
X005670Y021084D01*
X004830Y020244D01*
X004830Y019331D01*
X004924Y019238D01*
X005130Y019031D01*
X005130Y017851D01*
X005210Y017771D01*
X005210Y017204D01*
X005118Y017112D01*
X005118Y016380D01*
X005039Y016301D01*
X005039Y016292D01*
X004990Y016243D01*
X004990Y016070D01*
X005112Y015947D01*
X005286Y015947D01*
X005356Y016018D01*
X005427Y015947D01*
X005601Y015947D01*
X005671Y016018D01*
X005742Y015947D01*
X005916Y015947D01*
X005955Y015986D01*
X005995Y015986D01*
X006022Y015959D01*
X005837Y015775D01*
X005742Y015775D01*
X005663Y015854D01*
X004876Y015854D01*
X004582Y016148D01*
X004582Y016227D01*
X004325Y016484D01*
X004149Y016484D01*
X004149Y016558D01*
X004078Y016629D01*
X004097Y016648D01*
X004167Y016577D01*
X004341Y016577D01*
X004412Y016648D01*
X004482Y016577D01*
X004656Y016577D01*
X004727Y016648D01*
X004797Y016577D01*
X004971Y016577D01*
X005093Y016700D01*
X005093Y016873D01*
X004971Y016996D01*
X004887Y016996D01*
X004840Y017042D01*
X004840Y018467D01*
X004851Y018467D01*
X004973Y018589D01*
X004973Y018763D01*
X004851Y018885D01*
X004677Y018885D01*
X004637Y018845D01*
X004596Y018885D01*
X004422Y018885D01*
X004382Y018845D01*
X004341Y018885D01*
X004167Y018885D01*
X004127Y018845D01*
X004086Y018885D01*
X003912Y018885D01*
X003790Y018763D01*
X003790Y018679D01*
X003789Y018678D01*
X003789Y016932D01*
X003782Y016925D01*
X003774Y016932D01*
X003774Y018581D01*
X003676Y018679D01*
X003676Y018763D01*
X003553Y018885D01*
X003380Y018885D01*
X003309Y018815D01*
X003238Y018885D01*
X003065Y018885D01*
X002995Y018816D01*
X002991Y018820D01*
X002991Y018866D01*
X003073Y018948D01*
X003157Y018948D01*
X003279Y019071D01*
X003279Y019244D01*
X003157Y019367D01*
X002983Y019367D01*
X002861Y019244D01*
X002861Y019161D01*
X002778Y019078D01*
X002694Y019078D01*
X002572Y018956D01*
X002572Y018782D01*
X002687Y018667D01*
X002687Y018531D01*
X002810Y018408D01*
X002844Y018408D01*
X002844Y016932D01*
X002837Y016925D01*
X002766Y016996D01*
X002593Y016996D01*
X002470Y016873D01*
X002470Y016700D01*
X002541Y016629D01*
X002470Y016558D01*
X002470Y016385D01*
X002593Y016262D01*
X002677Y016262D01*
X002735Y016203D01*
X003353Y016203D01*
X003535Y016112D01*
X003562Y016085D01*
X003589Y016085D01*
X003613Y016073D01*
X003649Y016085D01*
X003730Y016085D01*
X003730Y016070D01*
X003852Y015947D01*
X004026Y015947D01*
X004149Y016070D01*
X004149Y016125D01*
X004167Y016144D01*
X004184Y016144D01*
X004242Y016086D01*
X004242Y016007D01*
X004341Y015908D01*
X004735Y015514D01*
X005522Y015514D01*
X005601Y015435D01*
X005978Y015435D01*
X006214Y015671D01*
X006260Y015671D01*
X006260Y015568D01*
X006080Y015388D01*
X006080Y015067D01*
X006180Y014968D01*
X006235Y014913D01*
X006073Y014752D01*
X005758Y014752D01*
X005659Y014652D01*
X005514Y014507D01*
X005269Y014752D01*
X003869Y014752D01*
X003769Y014652D01*
X003467Y014350D01*
X003420Y014396D01*
X003519Y014495D01*
X003519Y014668D01*
X003785Y014668D01*
X003769Y014652D02*
X003769Y014652D01*
X003686Y014569D02*
X003519Y014569D01*
X003519Y014668D02*
X003479Y014708D01*
X003479Y014770D01*
X003519Y014810D01*
X003519Y014983D01*
X003396Y015106D01*
X003222Y015106D01*
X003152Y015035D01*
X003133Y015054D01*
X003204Y015125D01*
X003204Y015298D01*
X003133Y015369D01*
X003204Y015440D01*
X003204Y015613D01*
X003228Y015613D01*
X003548Y015421D01*
X003537Y015421D01*
X003415Y015298D01*
X003415Y015125D01*
X003537Y015002D01*
X003711Y015002D01*
X003750Y015041D01*
X004128Y015041D01*
X004167Y015002D01*
X004341Y015002D01*
X004463Y015125D01*
X004463Y015298D01*
X004393Y015369D01*
X004463Y015440D01*
X004463Y015613D01*
X004341Y015736D01*
X004225Y015736D01*
X004038Y015876D01*
X004001Y015913D01*
X003989Y015913D01*
X003979Y015920D01*
X003928Y015913D01*
X003699Y015913D01*
X003437Y016043D01*
X003411Y016070D01*
X003384Y016070D01*
X003360Y016082D01*
X003324Y016070D01*
X002775Y016070D01*
X002687Y015982D01*
X002451Y015746D01*
X002451Y015676D01*
X002348Y015676D01*
X002275Y015750D01*
X002260Y016003D01*
X002260Y016061D01*
X002256Y016065D01*
X002256Y016070D01*
X002213Y016108D01*
X001996Y016324D01*
X001952Y016368D01*
X001952Y016368D01*
X001952Y016368D01*
X001890Y016368D01*
X001440Y016368D01*
X001440Y016646D01*
X001577Y016509D01*
X001876Y016509D01*
X002087Y016720D01*
X002087Y017018D01*
X001951Y017153D01*
X001959Y017161D01*
X001959Y017334D01*
X001900Y017394D01*
X001900Y017420D01*
X001877Y017443D01*
X001877Y017510D01*
X002087Y017720D01*
X002087Y018018D01*
X001876Y018229D01*
X001577Y018229D01*
X001440Y018092D01*
X001440Y018646D01*
X001577Y018509D01*
X001440Y018509D01*
X001440Y018411D02*
X002808Y018411D01*
X002844Y018312D02*
X001440Y018312D01*
X001440Y018214D02*
X001562Y018214D01*
X001464Y018115D02*
X001440Y018115D01*
X001577Y018509D02*
X001876Y018509D01*
X002709Y018509D01*
X002687Y018608D02*
X001975Y018608D01*
X002073Y018706D02*
X002648Y018706D01*
X002572Y018805D02*
X002087Y018805D01*
X002087Y018720D02*
X002087Y019018D01*
X001876Y019229D01*
X001600Y019229D01*
X001600Y019400D01*
X001540Y019460D01*
X001540Y019546D01*
X001577Y019509D01*
X001876Y019509D01*
X002087Y019720D01*
X002087Y020018D01*
X001876Y020229D01*
X001577Y020229D01*
X001540Y020192D01*
X001540Y020546D01*
X001577Y020509D01*
X001876Y020509D01*
X002087Y020720D01*
X002087Y021018D01*
X001876Y021229D01*
X001577Y021229D01*
X001540Y021192D01*
X001540Y021546D01*
X001577Y021509D01*
X001876Y021509D01*
X002087Y021720D01*
X002087Y022018D01*
X001966Y022138D01*
X002079Y022251D01*
X002079Y022335D01*
X002320Y022576D01*
X002320Y023180D01*
X002260Y023240D01*
X002260Y023485D01*
X002392Y023352D01*
X002573Y023278D01*
X002767Y023278D01*
X002948Y023352D01*
X003085Y023490D01*
X003160Y023670D01*
X003160Y023865D01*
X003085Y024045D01*
X002948Y024183D01*
X002767Y024258D01*
X002573Y024258D01*
X002392Y024183D01*
X002255Y024045D01*
X002180Y023865D01*
X002180Y023800D01*
X002172Y023808D01*
X002087Y023893D01*
X002087Y024018D01*
X001876Y024229D01*
X001648Y024229D01*
X001648Y024465D01*
X001634Y024479D01*
X001697Y024479D01*
X001697Y024839D01*
X001757Y024839D01*
X001757Y024899D01*
X002117Y024899D01*
X002117Y025030D01*
X002007Y025140D01*
X002349Y025140D01*
X002255Y025045D01*
X002180Y024865D01*
X002180Y024670D01*
X002255Y024490D01*
X002392Y024352D01*
X002573Y024278D01*
X002767Y024278D01*
X002948Y024352D01*
X003085Y024490D01*
X003160Y024670D01*
X003160Y024865D01*
X003085Y025045D01*
X002991Y025140D01*
X003247Y025140D01*
X003348Y025039D01*
X003255Y024945D01*
X003180Y024765D01*
X003180Y024570D01*
X003255Y024390D01*
X003392Y024252D01*
X003573Y024178D01*
X003767Y024178D01*
X003948Y024252D01*
X004085Y024390D01*
X004160Y024570D01*
X004160Y024765D01*
X004085Y024945D01*
X003948Y025083D01*
X003767Y025158D01*
X003654Y025158D01*
X003459Y025352D01*
X003371Y025440D01*
X001357Y025440D01*
X001033Y025116D01*
X001033Y024287D01*
X000900Y024287D01*
X000777Y024164D01*
X000777Y023991D01*
X000797Y023971D01*
X000797Y022787D01*
X000885Y022699D01*
X000893Y022699D01*
X000902Y022690D01*
X000771Y022559D01*
X000771Y022548D02*
X000753Y022548D01*
X000753Y022745D02*
X000839Y022745D01*
X000797Y022843D02*
X000753Y022843D01*
X000753Y022942D02*
X000797Y022942D01*
X000797Y023040D02*
X000753Y023040D01*
X000753Y023139D02*
X000797Y023139D01*
X000797Y023237D02*
X000753Y023237D01*
X000753Y023336D02*
X000797Y023336D01*
X000797Y023434D02*
X000753Y023434D01*
X000753Y023533D02*
X000797Y023533D01*
X000797Y023631D02*
X000753Y023631D01*
X000753Y023730D02*
X000797Y023730D01*
X000797Y023828D02*
X000753Y023828D01*
X000753Y023927D02*
X000797Y023927D01*
X000777Y024025D02*
X000753Y024025D01*
X000753Y024124D02*
X000777Y024124D01*
X000753Y024222D02*
X000835Y024222D01*
X000753Y024321D02*
X001033Y024321D01*
X001033Y024419D02*
X000753Y024419D01*
X000753Y024518D02*
X001033Y024518D01*
X001033Y024616D02*
X000753Y024616D01*
X000753Y024715D02*
X001033Y024715D01*
X001033Y024813D02*
X000753Y024813D01*
X000753Y024912D02*
X001033Y024912D01*
X001033Y025010D02*
X000753Y025010D01*
X000753Y025109D02*
X001033Y025109D01*
X001124Y025207D02*
X000753Y025207D01*
X000753Y025306D02*
X001223Y025306D01*
X001321Y025404D02*
X000753Y025404D01*
X000753Y025503D02*
X005300Y025503D01*
X005300Y025601D02*
X000753Y025601D01*
X000753Y025700D02*
X005376Y025700D01*
X005474Y025798D02*
X000753Y025798D01*
X001337Y024995D02*
X001337Y024899D01*
X001697Y024899D01*
X001697Y024839D01*
X001337Y024839D01*
X001337Y024707D01*
X001353Y024691D01*
X001333Y024691D01*
X001333Y024992D01*
X001337Y024995D01*
X001333Y024912D02*
X001337Y024912D01*
X001333Y024813D02*
X001337Y024813D01*
X001333Y024715D02*
X001337Y024715D01*
X001648Y024419D02*
X002325Y024419D01*
X002243Y024518D02*
X001927Y024518D01*
X001888Y024479D02*
X002117Y024707D01*
X002117Y024839D01*
X001757Y024839D01*
X001757Y024479D01*
X001888Y024479D01*
X002025Y024616D02*
X002202Y024616D01*
X002180Y024715D02*
X002117Y024715D01*
X002117Y024813D02*
X002180Y024813D01*
X002199Y024912D02*
X002117Y024912D01*
X002117Y025010D02*
X002240Y025010D01*
X002318Y025109D02*
X002038Y025109D01*
X001757Y024813D02*
X001697Y024813D01*
X001697Y024715D02*
X001757Y024715D01*
X001757Y024616D02*
X001697Y024616D01*
X001697Y024518D02*
X001757Y024518D01*
X001648Y024321D02*
X002469Y024321D01*
X002487Y024222D02*
X001882Y024222D01*
X001981Y024124D02*
X002333Y024124D01*
X002246Y024025D02*
X002079Y024025D01*
X002087Y023927D02*
X002206Y023927D01*
X002180Y023828D02*
X002152Y023828D01*
X002260Y023434D02*
X002310Y023434D01*
X002260Y023336D02*
X002432Y023336D01*
X002263Y023237D02*
X003429Y023237D01*
X003392Y023252D02*
X003573Y023178D01*
X003767Y023178D01*
X003948Y023252D01*
X004085Y023390D01*
X004160Y023570D01*
X004160Y023664D01*
X004163Y023646D01*
X004188Y023568D01*
X004225Y023495D01*
X004273Y023429D01*
X004331Y023371D01*
X004397Y023323D01*
X004470Y023286D01*
X004481Y023283D01*
X004481Y023269D01*
X004301Y023077D01*
X004293Y023077D01*
X004205Y022989D01*
X004156Y023038D01*
X003724Y023038D01*
X003630Y022944D01*
X003194Y022508D01*
X003180Y022508D01*
X003080Y022408D01*
X003080Y022288D01*
X003060Y022268D01*
X002855Y022268D01*
X002815Y022307D01*
X002642Y022307D01*
X002519Y022184D01*
X002519Y022011D01*
X002642Y021888D01*
X002815Y021888D01*
X002855Y021928D01*
X003200Y021928D01*
X003252Y021980D01*
X003259Y021973D01*
X002944Y021658D01*
X002726Y021658D01*
X002677Y021707D01*
X002503Y021707D01*
X002381Y021584D01*
X002381Y021411D01*
X002503Y021288D01*
X002677Y021288D01*
X002726Y021338D01*
X003076Y021338D01*
X003436Y021698D01*
X003570Y021698D01*
X003570Y021454D01*
X003560Y021404D01*
X003570Y021389D01*
X003570Y021371D01*
X003606Y021336D01*
X003841Y020983D01*
X003841Y020871D01*
X003963Y020748D01*
X004137Y020748D01*
X004259Y020871D01*
X004259Y021044D01*
X004137Y021167D01*
X004103Y021167D01*
X004065Y021223D01*
X004137Y021223D01*
X004259Y021346D01*
X004259Y021416D01*
X004341Y021498D01*
X004796Y021498D01*
X004887Y021588D01*
X004890Y021588D01*
X004890Y021224D01*
X004873Y021207D01*
X004803Y021207D01*
X004681Y021084D01*
X004681Y020911D01*
X004803Y020788D01*
X004977Y020788D01*
X005099Y020911D01*
X005099Y020981D01*
X005210Y021091D01*
X005210Y021622D01*
X005409Y021871D01*
X005450Y021911D01*
X005450Y021922D01*
X005456Y021930D01*
X005450Y021987D01*
X005450Y022308D01*
X005597Y022308D01*
X005666Y022378D01*
X006024Y022378D01*
X005926Y022279D01*
X005926Y022194D01*
X005669Y021937D01*
X005613Y021937D01*
X005491Y021814D01*
X005491Y021641D01*
X005613Y021518D01*
X005787Y021518D01*
X005909Y021641D01*
X005909Y021697D01*
X006196Y021983D01*
X006222Y021983D01*
X006344Y022106D01*
X006344Y022168D01*
X006397Y022168D01*
X006519Y022291D01*
X006519Y022464D01*
X006397Y022587D01*
X006315Y022587D01*
X006240Y022654D01*
X006196Y022698D01*
X006191Y022698D01*
X006187Y022701D01*
X006125Y022698D01*
X005626Y022698D01*
X005597Y022727D01*
X005450Y022727D01*
X005450Y022751D01*
X006076Y023378D01*
X006196Y023378D01*
X006267Y023448D01*
X006337Y023448D01*
X006459Y023571D01*
X006459Y023744D01*
X006337Y023867D01*
X006163Y023867D01*
X006041Y023744D01*
X006041Y023698D01*
X005944Y023698D01*
X005850Y023604D01*
X005795Y023549D01*
X005717Y023627D01*
X005543Y023627D01*
X005421Y023504D01*
X005421Y023435D01*
X005084Y023098D01*
X005046Y023098D01*
X005017Y023127D01*
X004855Y023127D01*
X004899Y023171D01*
X004899Y023301D01*
X004943Y023323D01*
X005009Y023371D01*
X005067Y023429D01*
X005115Y023495D01*
X005152Y023568D01*
X005177Y023646D01*
X005189Y023718D01*
X004720Y023718D01*
X004720Y023818D01*
X005189Y023818D01*
X005177Y023890D01*
X005152Y023967D01*
X005115Y024040D01*
X005067Y024107D01*
X005009Y024164D01*
X004943Y024213D01*
X004870Y024250D01*
X004792Y024275D01*
X004769Y024279D01*
X004948Y024352D01*
X005085Y024490D01*
X005160Y024670D01*
X005160Y024865D01*
X005085Y025045D01*
X004948Y025183D01*
X004767Y025258D01*
X004573Y025258D01*
X004392Y025183D01*
X004255Y025045D01*
X004180Y024865D01*
X004180Y024670D01*
X004255Y024490D01*
X004392Y024352D01*
X004571Y024279D01*
X004548Y024275D01*
X004470Y024250D01*
X004397Y024213D01*
X004331Y024164D01*
X004273Y024107D01*
X004225Y024040D01*
X004188Y023967D01*
X004163Y023890D01*
X004151Y023818D01*
X004620Y023818D01*
X004620Y023718D01*
X004160Y023718D01*
X004160Y023765D01*
X004085Y023945D01*
X003948Y024083D01*
X003767Y024158D01*
X003573Y024158D01*
X003392Y024083D01*
X003255Y023945D01*
X003180Y023765D01*
X003180Y023570D01*
X003255Y023390D01*
X003392Y023252D01*
X003309Y023336D02*
X002908Y023336D01*
X003030Y023434D02*
X003236Y023434D01*
X003196Y023533D02*
X003103Y023533D01*
X003144Y023631D02*
X003180Y023631D01*
X003180Y023730D02*
X003160Y023730D01*
X003160Y023828D02*
X003206Y023828D01*
X003247Y023927D02*
X003134Y023927D01*
X003094Y024025D02*
X003335Y024025D01*
X003324Y024321D02*
X002871Y024321D01*
X002853Y024222D02*
X003465Y024222D01*
X003491Y024124D02*
X003007Y024124D01*
X003015Y024419D02*
X003243Y024419D01*
X003202Y024518D02*
X003097Y024518D01*
X003138Y024616D02*
X003180Y024616D01*
X003180Y024715D02*
X003160Y024715D01*
X003160Y024813D02*
X003200Y024813D01*
X003241Y024912D02*
X003141Y024912D01*
X003100Y025010D02*
X003320Y025010D01*
X003278Y025109D02*
X003022Y025109D01*
X003407Y025404D02*
X005700Y025404D01*
X005700Y025306D02*
X005800Y025306D01*
X005800Y025388D02*
X005800Y024988D01*
X005936Y024988D01*
X006200Y025251D01*
X006200Y025388D01*
X005800Y025388D01*
X005800Y025404D02*
X006330Y025404D01*
X006330Y025306D02*
X006200Y025306D01*
X006156Y025207D02*
X006386Y025207D01*
X006485Y025109D02*
X006057Y025109D01*
X005959Y025010D02*
X007367Y025010D01*
X007367Y025018D02*
X007367Y024720D01*
X007577Y024509D01*
X007876Y024509D01*
X008087Y024720D01*
X008087Y025018D01*
X007876Y025229D01*
X007577Y025229D01*
X007367Y025018D01*
X007367Y024912D02*
X005141Y024912D01*
X005160Y024813D02*
X005532Y024813D01*
X005576Y024858D02*
X005330Y024612D01*
X005330Y024264D01*
X005576Y024018D01*
X005924Y024018D01*
X006170Y024264D01*
X006170Y024612D01*
X005924Y024858D01*
X005576Y024858D01*
X005541Y025010D02*
X005100Y025010D01*
X005022Y025109D02*
X005443Y025109D01*
X005344Y025207D02*
X004889Y025207D01*
X005160Y024715D02*
X005433Y024715D01*
X005335Y024616D02*
X005138Y024616D01*
X005097Y024518D02*
X005330Y024518D01*
X005330Y024419D02*
X005015Y024419D01*
X004923Y024222D02*
X005371Y024222D01*
X005330Y024321D02*
X004871Y024321D01*
X005049Y024124D02*
X005470Y024124D01*
X005568Y024025D02*
X005122Y024025D01*
X005165Y023927D02*
X007367Y023927D01*
X007374Y024025D02*
X006932Y024025D01*
X006924Y024018D02*
X007170Y024264D01*
X007170Y024612D01*
X006924Y024858D01*
X006576Y024858D01*
X006330Y024612D01*
X006330Y024264D01*
X006576Y024018D01*
X006924Y024018D01*
X007030Y024124D02*
X007472Y024124D01*
X007571Y024222D02*
X007129Y024222D01*
X007170Y024321D02*
X008503Y024321D01*
X008503Y024419D02*
X007170Y024419D01*
X007170Y024518D02*
X007569Y024518D01*
X007470Y024616D02*
X007165Y024616D01*
X007067Y024715D02*
X007372Y024715D01*
X007367Y024813D02*
X006968Y024813D01*
X007015Y025109D02*
X007457Y025109D01*
X007556Y025207D02*
X007114Y025207D01*
X007170Y025306D02*
X008503Y025306D01*
X008503Y025404D02*
X007170Y025404D01*
X007170Y025503D02*
X008503Y025503D01*
X008503Y025601D02*
X007170Y025601D01*
X007082Y025700D02*
X008503Y025700D01*
X008503Y025798D02*
X006983Y025798D01*
X006517Y025798D02*
X006026Y025798D01*
X006124Y025700D02*
X006418Y025700D01*
X006330Y025601D02*
X006200Y025601D01*
X006200Y025503D02*
X006330Y025503D01*
X006532Y024813D02*
X005968Y024813D01*
X006067Y024715D02*
X006433Y024715D01*
X006335Y024616D02*
X006165Y024616D01*
X006170Y024518D02*
X006330Y024518D01*
X006330Y024419D02*
X006170Y024419D01*
X006170Y024321D02*
X006330Y024321D01*
X006371Y024222D02*
X006129Y024222D01*
X006124Y023828D02*
X005187Y023828D01*
X005172Y023631D02*
X005877Y023631D01*
X005850Y023604D02*
X005850Y023604D01*
X005936Y023237D02*
X007900Y023237D01*
X007900Y023336D02*
X006034Y023336D01*
X006041Y023730D02*
X004720Y023730D01*
X004620Y023730D02*
X004160Y023730D01*
X004153Y023828D02*
X004134Y023828D01*
X004093Y023927D02*
X004175Y023927D01*
X004218Y024025D02*
X004005Y024025D01*
X004016Y024321D02*
X004469Y024321D01*
X004417Y024222D02*
X003875Y024222D01*
X003849Y024124D02*
X004291Y024124D01*
X004325Y024419D02*
X004097Y024419D01*
X004138Y024518D02*
X004243Y024518D01*
X004202Y024616D02*
X004160Y024616D01*
X004160Y024715D02*
X004180Y024715D01*
X004180Y024813D02*
X004140Y024813D01*
X004099Y024912D02*
X004199Y024912D01*
X004240Y025010D02*
X004020Y025010D01*
X003886Y025109D02*
X004318Y025109D01*
X004451Y025207D02*
X003604Y025207D01*
X003506Y025306D02*
X005300Y025306D01*
X005700Y025207D02*
X005800Y025207D01*
X005800Y025109D02*
X005700Y025109D01*
X005700Y025010D02*
X005800Y025010D01*
X006030Y024124D02*
X006470Y024124D01*
X006568Y024025D02*
X005932Y024025D01*
X006253Y023434D02*
X007900Y023434D01*
X008087Y023730D02*
X008503Y023730D01*
X008503Y023828D02*
X008087Y023828D01*
X008087Y023927D02*
X008503Y023927D01*
X008503Y024025D02*
X008079Y024025D01*
X007981Y024124D02*
X008503Y024124D01*
X008503Y024222D02*
X007882Y024222D01*
X007885Y024518D02*
X008503Y024518D01*
X008503Y024616D02*
X007983Y024616D01*
X008082Y024715D02*
X008503Y024715D01*
X008503Y024813D02*
X008087Y024813D01*
X008087Y024912D02*
X008503Y024912D01*
X008503Y025010D02*
X008087Y025010D01*
X007996Y025109D02*
X008503Y025109D01*
X008503Y025207D02*
X007897Y025207D01*
X007367Y023828D02*
X006376Y023828D01*
X006459Y023730D02*
X007367Y023730D01*
X007455Y023631D02*
X006459Y023631D01*
X006421Y023533D02*
X007554Y023533D01*
X007487Y023139D02*
X005837Y023139D01*
X005739Y023040D02*
X007389Y023040D01*
X007367Y022942D02*
X005640Y022942D01*
X005542Y022843D02*
X007367Y022843D01*
X007367Y022745D02*
X005450Y022745D01*
X005639Y022351D02*
X005997Y022351D01*
X005926Y022252D02*
X005450Y022252D01*
X005450Y022154D02*
X005886Y022154D01*
X005787Y022055D02*
X005450Y022055D01*
X005453Y021957D02*
X005689Y021957D01*
X005700Y021728D02*
X006135Y022163D01*
X006135Y022192D01*
X006294Y022055D02*
X007404Y022055D01*
X007367Y021957D02*
X006169Y021957D01*
X006071Y021858D02*
X007367Y021858D01*
X007367Y021760D02*
X005972Y021760D01*
X005909Y021661D02*
X007425Y021661D01*
X007524Y021563D02*
X007201Y021563D01*
X007276Y021267D02*
X007601Y021267D01*
X007517Y021169D02*
X007177Y021169D01*
X007009Y021070D02*
X007419Y021070D01*
X007367Y020972D02*
X006910Y020972D01*
X006812Y020873D02*
X007367Y020873D01*
X007367Y020775D02*
X006713Y020775D01*
X006615Y020676D02*
X007410Y020676D01*
X007509Y020578D02*
X006516Y020578D01*
X006697Y019987D02*
X006987Y019987D01*
X007085Y020085D02*
X005604Y020085D01*
X005510Y019987D02*
X005973Y019987D01*
X005911Y019888D02*
X005510Y019888D01*
X005510Y019790D02*
X005911Y019790D01*
X005970Y019691D02*
X005510Y019691D01*
X005510Y019593D02*
X006083Y019593D01*
X006181Y019494D02*
X005600Y019494D01*
X005698Y019396D02*
X006280Y019396D01*
X006466Y018706D02*
X006822Y018706D01*
X006715Y018608D02*
X006548Y018608D01*
X006548Y018509D02*
X006629Y018509D01*
X006629Y018411D02*
X006508Y018411D01*
X006400Y018312D02*
X006629Y018312D01*
X006629Y018214D02*
X006400Y018214D01*
X006400Y018115D02*
X006629Y018115D01*
X006629Y018017D02*
X006400Y018017D01*
X006400Y017918D02*
X006629Y017918D01*
X006629Y017820D02*
X006400Y017820D01*
X006400Y017721D02*
X006629Y017721D01*
X006629Y017623D02*
X006400Y017623D01*
X006329Y017524D02*
X006629Y017524D01*
X006629Y017426D02*
X006250Y017426D01*
X006433Y017327D02*
X006629Y017327D01*
X006624Y017229D02*
X006531Y017229D01*
X006609Y017130D02*
X006624Y017130D01*
X006624Y017032D02*
X006609Y017032D01*
X006609Y016933D02*
X006624Y016933D01*
X006837Y016638D02*
X007449Y016638D01*
X007367Y016720D02*
X007367Y017018D01*
X007577Y017229D01*
X006929Y017229D01*
X006929Y017201D02*
X006929Y018328D01*
X007037Y018328D01*
X007159Y018451D01*
X007119Y018411D02*
X007960Y018411D01*
X007960Y018509D02*
X007876Y018509D01*
X007960Y018593D01*
X007960Y018145D01*
X007876Y018229D01*
X007577Y018229D01*
X007367Y018018D01*
X007367Y017720D01*
X007577Y017509D01*
X007876Y017509D01*
X007960Y017593D01*
X007960Y017145D01*
X007876Y017229D01*
X007960Y017229D01*
X007876Y017229D02*
X007577Y017229D01*
X007479Y017130D02*
X006924Y017130D01*
X006924Y017197D02*
X006924Y016724D01*
X006668Y016469D01*
X006668Y016385D01*
X006546Y016262D01*
X006372Y016262D01*
X006249Y016385D01*
X006249Y016558D01*
X006320Y016629D01*
X006301Y016648D01*
X006231Y016577D01*
X006057Y016577D01*
X005986Y016648D01*
X005968Y016629D01*
X006038Y016558D01*
X006038Y016385D01*
X005980Y016326D01*
X006136Y016326D01*
X006550Y015912D01*
X006550Y015912D01*
X006600Y015862D01*
X006600Y015427D01*
X006570Y015397D01*
X006605Y015361D01*
X006838Y015361D01*
X007092Y015108D01*
X007180Y015020D01*
X007180Y014900D01*
X007240Y014840D01*
X007240Y014716D01*
X007240Y014540D01*
X007348Y014432D01*
X007423Y014507D01*
X007597Y014507D01*
X007656Y014448D01*
X007932Y014448D01*
X007960Y014420D01*
X007960Y014593D01*
X007876Y014509D01*
X007577Y014509D01*
X007367Y014720D01*
X007367Y015018D01*
X007577Y015229D01*
X007600Y015229D01*
X007600Y015440D01*
X007669Y015509D01*
X007577Y015509D01*
X007367Y015720D01*
X007367Y016018D01*
X007577Y016229D01*
X007634Y016229D01*
X007960Y016555D01*
X007960Y016593D01*
X007876Y016509D01*
X007577Y016509D01*
X007367Y016720D01*
X007367Y016736D02*
X006924Y016736D01*
X006924Y016835D02*
X007367Y016835D01*
X007367Y016933D02*
X006924Y016933D01*
X006924Y017032D02*
X007380Y017032D01*
X007547Y016539D02*
X006739Y016539D01*
X006668Y016441D02*
X007846Y016441D01*
X007906Y016539D02*
X007945Y016539D01*
X007748Y016342D02*
X006626Y016342D01*
X006514Y015948D02*
X007367Y015948D01*
X007367Y015850D02*
X006600Y015850D01*
X006600Y015751D02*
X007367Y015751D01*
X007434Y015653D02*
X006600Y015653D01*
X006600Y015554D02*
X007532Y015554D01*
X007616Y015456D02*
X006600Y015456D01*
X006430Y015498D02*
X006430Y015791D01*
X006380Y015841D01*
X006065Y016156D01*
X005829Y016156D01*
X005917Y015948D02*
X006010Y015948D01*
X005912Y015850D02*
X005667Y015850D01*
X005602Y015948D02*
X005741Y015948D01*
X005593Y015684D02*
X005671Y015605D01*
X005908Y015605D01*
X006144Y015841D01*
X006380Y015841D01*
X006415Y016047D02*
X007395Y016047D01*
X007494Y016145D02*
X006317Y016145D01*
X006218Y016244D02*
X007649Y016244D01*
X007600Y015357D02*
X006843Y015357D01*
X006941Y015259D02*
X007600Y015259D01*
X007509Y015160D02*
X007040Y015160D01*
X007138Y015062D02*
X007410Y015062D01*
X007367Y014963D02*
X007180Y014963D01*
X007215Y014865D02*
X007367Y014865D01*
X007367Y014766D02*
X007240Y014766D01*
X007240Y014668D02*
X007419Y014668D01*
X007517Y014569D02*
X007240Y014569D01*
X007309Y014471D02*
X007387Y014471D01*
X007633Y014471D02*
X007960Y014471D01*
X007960Y014569D02*
X007936Y014569D01*
X008380Y014569D02*
X008503Y014569D01*
X008503Y014471D02*
X008380Y014471D01*
X008428Y014372D02*
X008503Y014372D01*
X008500Y014274D02*
X008503Y014274D01*
X008500Y014175D02*
X008503Y014175D01*
X008500Y014077D02*
X008503Y014077D01*
X008500Y013978D02*
X008503Y013978D01*
X008500Y013880D02*
X008503Y013880D01*
X008500Y013781D02*
X008503Y013781D01*
X008500Y013683D02*
X008503Y013683D01*
X008500Y013584D02*
X008503Y013584D01*
X008500Y013486D02*
X008503Y013486D01*
X008500Y013387D02*
X008503Y013387D01*
X008500Y013289D02*
X008503Y013289D01*
X008500Y013190D02*
X008503Y013190D01*
X008500Y013092D02*
X008503Y013092D01*
X008500Y012993D02*
X008503Y012993D01*
X008500Y012895D02*
X008503Y012895D01*
X008500Y012796D02*
X008503Y012796D01*
X008500Y012698D02*
X008503Y012698D01*
X008500Y012599D02*
X008503Y012599D01*
X008500Y012501D02*
X008503Y012501D01*
X008500Y012402D02*
X008503Y012402D01*
X008500Y012304D02*
X008503Y012304D01*
X008500Y012205D02*
X008503Y012205D01*
X008500Y012107D02*
X008503Y012107D01*
X008500Y012008D02*
X008503Y012008D01*
X008500Y011910D02*
X008503Y011910D01*
X008500Y011811D02*
X008503Y011811D01*
X008500Y011713D02*
X008503Y011713D01*
X008500Y011614D02*
X008503Y011614D01*
X008500Y011516D02*
X008503Y011516D01*
X008500Y011417D02*
X008503Y011417D01*
X008500Y011319D02*
X008503Y011319D01*
X008500Y011220D02*
X008503Y011220D01*
X008500Y011122D02*
X008503Y011122D01*
X008503Y011023D02*
X008408Y011023D01*
X008320Y010925D02*
X008503Y010925D01*
X008503Y010826D02*
X008320Y010826D01*
X008320Y010728D02*
X008503Y010728D01*
X008503Y010629D02*
X008320Y010629D01*
X008320Y010531D02*
X008503Y010531D01*
X008503Y010432D02*
X008320Y010432D01*
X008320Y010334D02*
X008503Y010334D01*
X008503Y010235D02*
X008320Y010235D01*
X008320Y010137D02*
X008503Y010137D01*
X008503Y010038D02*
X008320Y010038D01*
X008320Y009940D02*
X008503Y009940D01*
X008503Y009841D02*
X008320Y009841D01*
X008320Y009743D02*
X008503Y009743D01*
X008503Y009644D02*
X008320Y009644D01*
X008320Y009546D02*
X008503Y009546D01*
X008503Y009447D02*
X008320Y009447D01*
X008351Y009349D02*
X008503Y009349D01*
X008503Y009250D02*
X008380Y009250D01*
X008380Y009152D02*
X008503Y009152D01*
X008503Y009053D02*
X008380Y009053D01*
X008356Y008955D02*
X008503Y008955D01*
X008503Y008856D02*
X008257Y008856D01*
X008200Y008758D02*
X008503Y008758D01*
X008503Y008659D02*
X008200Y008659D01*
X008105Y008561D02*
X008503Y008561D01*
X008503Y008462D02*
X008007Y008462D01*
X007938Y008167D02*
X008503Y008167D01*
X008503Y008265D02*
X007660Y008265D01*
X007668Y008364D02*
X008503Y008364D01*
X008503Y008068D02*
X008036Y008068D01*
X008087Y007970D02*
X008503Y007970D01*
X008503Y007871D02*
X008087Y007871D01*
X008087Y007773D02*
X008503Y007773D01*
X008503Y007674D02*
X008041Y007674D01*
X007942Y007576D02*
X008503Y007576D01*
X008503Y007477D02*
X007480Y007477D01*
X007480Y007576D02*
X007511Y007576D01*
X007516Y007258D02*
X007470Y007258D01*
X007010Y006798D01*
X007099Y006591D02*
X007496Y006591D01*
X007397Y006689D02*
X007198Y006689D01*
X007240Y006788D02*
X007367Y006788D01*
X007367Y006886D02*
X007339Y006886D01*
X007692Y007379D02*
X008503Y007379D01*
X008503Y007280D02*
X007726Y007280D01*
X007923Y007182D02*
X008503Y007182D01*
X008503Y007083D02*
X008021Y007083D01*
X008087Y006985D02*
X008503Y006985D01*
X008503Y006886D02*
X008087Y006886D01*
X008087Y006788D02*
X008503Y006788D01*
X008503Y006689D02*
X008056Y006689D01*
X007957Y006591D02*
X008503Y006591D01*
X008503Y006492D02*
X006204Y006492D01*
X006204Y006394D02*
X008503Y006394D01*
X008503Y006295D02*
X006204Y006295D01*
X006204Y006197D02*
X006819Y006197D01*
X006742Y006098D02*
X006204Y006098D01*
X006204Y006000D02*
X006733Y006000D01*
X006635Y005901D02*
X006204Y005901D01*
X006204Y005803D02*
X006536Y005803D01*
X006438Y005704D02*
X006204Y005704D01*
X006204Y006591D02*
X006601Y006591D01*
X006502Y006689D02*
X006204Y006689D01*
X006204Y006788D02*
X006501Y006788D01*
X006522Y006886D02*
X006204Y006886D01*
X006094Y007083D02*
X006517Y007083D01*
X006615Y006985D02*
X005995Y006985D01*
X005979Y006969D02*
X006225Y007215D01*
X006225Y007563D01*
X005979Y007809D01*
X005631Y007809D01*
X005625Y007802D01*
X005625Y007969D01*
X005526Y008067D01*
X005526Y008073D01*
X005631Y007969D01*
X005979Y007969D01*
X006225Y008215D01*
X006225Y008563D01*
X005979Y008809D01*
X005631Y008809D01*
X005526Y008704D01*
X005526Y009099D01*
X005705Y009867D01*
X005861Y010023D01*
X005861Y010246D01*
X005704Y010403D01*
X005481Y010403D01*
X005324Y010246D01*
X005324Y010023D01*
X005379Y009968D01*
X005202Y009204D01*
X005186Y009189D01*
X005186Y009138D01*
X005175Y009088D01*
X005186Y009070D01*
X005186Y008601D01*
X004979Y008809D01*
X004631Y008809D01*
X004385Y008563D01*
X004385Y008215D01*
X004631Y007969D01*
X004979Y007969D01*
X005186Y008176D01*
X005186Y008067D01*
X005088Y007969D01*
X005088Y007747D01*
X005245Y007589D01*
X005412Y007589D01*
X005385Y007563D01*
X005385Y007215D01*
X005631Y006969D01*
X005979Y006969D01*
X006192Y007182D02*
X006418Y007182D01*
X006385Y007280D02*
X006225Y007280D01*
X006225Y007379D02*
X006385Y007379D01*
X006385Y007477D02*
X006225Y007477D01*
X006212Y007576D02*
X006398Y007576D01*
X006497Y007674D02*
X006114Y007674D01*
X006015Y007773D02*
X006595Y007773D01*
X006630Y007970D02*
X005980Y007970D01*
X006079Y008068D02*
X006532Y008068D01*
X006433Y008167D02*
X006177Y008167D01*
X006225Y008265D02*
X006385Y008265D01*
X006385Y008364D02*
X006225Y008364D01*
X006225Y008462D02*
X006385Y008462D01*
X006385Y008561D02*
X006225Y008561D01*
X006129Y008659D02*
X006482Y008659D01*
X006580Y008758D02*
X006030Y008758D01*
X005676Y009743D02*
X007180Y009743D01*
X007180Y009841D02*
X005699Y009841D01*
X005777Y009940D02*
X007180Y009940D01*
X007180Y010038D02*
X005861Y010038D01*
X005861Y010137D02*
X007180Y010137D01*
X007180Y010235D02*
X005861Y010235D01*
X005773Y010334D02*
X007180Y010334D01*
X007180Y010432D02*
X000753Y010432D01*
X000753Y010334D02*
X005412Y010334D01*
X005324Y010235D02*
X000753Y010235D01*
X000753Y010137D02*
X001485Y010137D01*
X001577Y010229D02*
X001367Y010018D01*
X001367Y009720D01*
X001577Y009509D01*
X001876Y009509D01*
X002087Y009720D01*
X002087Y010018D01*
X001876Y010229D01*
X001577Y010229D01*
X001556Y010531D02*
X000753Y010531D01*
X000753Y010629D02*
X001457Y010629D01*
X001367Y010728D02*
X000753Y010728D01*
X000753Y010826D02*
X000765Y010826D01*
X000753Y010038D02*
X001387Y010038D01*
X001367Y009940D02*
X000753Y009940D01*
X000753Y009841D02*
X001367Y009841D01*
X001367Y009743D02*
X001153Y009743D01*
X001252Y009644D02*
X001442Y009644D01*
X001541Y009546D02*
X001267Y009546D01*
X001267Y009447D02*
X005258Y009447D01*
X005235Y009349D02*
X001233Y009349D01*
X001135Y009250D02*
X005213Y009250D01*
X005186Y009152D02*
X001953Y009152D01*
X001876Y009229D02*
X001577Y009229D01*
X001367Y009018D01*
X001367Y008720D01*
X001577Y008509D01*
X001876Y008509D01*
X002087Y008720D01*
X002087Y009018D01*
X001876Y009229D01*
X002051Y009053D02*
X005186Y009053D01*
X005186Y008955D02*
X002087Y008955D01*
X002087Y008856D02*
X005186Y008856D01*
X005186Y008758D02*
X005030Y008758D01*
X005129Y008659D02*
X005186Y008659D01*
X005356Y009118D02*
X005356Y007858D01*
X005398Y007576D02*
X005212Y007576D01*
X005225Y007563D02*
X004979Y007809D01*
X004631Y007809D01*
X004385Y007563D01*
X004385Y007215D01*
X004631Y006969D01*
X004979Y006969D01*
X005225Y007215D01*
X005225Y007563D01*
X005225Y007477D02*
X005385Y007477D01*
X005385Y007379D02*
X005225Y007379D01*
X005225Y007280D02*
X005385Y007280D01*
X005418Y007182D02*
X005192Y007182D01*
X005094Y007083D02*
X005517Y007083D01*
X005615Y006985D02*
X004995Y006985D01*
X005114Y007674D02*
X005160Y007674D01*
X005088Y007773D02*
X005015Y007773D01*
X005088Y007871D02*
X002559Y007871D01*
X002559Y007970D02*
X002630Y007970D01*
X002631Y007969D02*
X002979Y007969D01*
X003225Y008215D01*
X003225Y008563D01*
X002979Y008809D01*
X002631Y008809D01*
X002385Y008563D01*
X002385Y008215D01*
X002631Y007969D01*
X002532Y008068D02*
X002516Y008068D01*
X002433Y008167D02*
X001938Y008167D01*
X001876Y008229D02*
X001577Y008229D01*
X001367Y008018D01*
X001367Y007720D01*
X001577Y007509D01*
X001876Y007509D01*
X002087Y007720D01*
X002087Y008018D01*
X001876Y008229D01*
X002036Y008068D02*
X002184Y008068D01*
X002141Y007970D02*
X002087Y007970D01*
X002087Y007871D02*
X002140Y007871D01*
X002140Y007773D02*
X002087Y007773D01*
X002041Y007674D02*
X002140Y007674D01*
X002136Y007576D02*
X001942Y007576D01*
X002037Y007477D02*
X001040Y007477D01*
X001040Y007379D02*
X001939Y007379D01*
X001900Y007280D02*
X001040Y007280D01*
X001040Y007182D02*
X001530Y007182D01*
X001432Y007083D02*
X001040Y007083D01*
X001040Y006985D02*
X001367Y006985D01*
X001367Y006886D02*
X001040Y006886D01*
X001040Y006788D02*
X001367Y006788D01*
X001397Y006689D02*
X001040Y006689D01*
X001040Y006591D02*
X001496Y006591D01*
X001545Y006197D02*
X001040Y006197D01*
X001040Y006295D02*
X001815Y006295D01*
X001900Y006394D02*
X001040Y006394D01*
X001040Y006492D02*
X001900Y006492D01*
X001511Y007576D02*
X001040Y007576D01*
X001040Y007674D02*
X001412Y007674D01*
X001367Y007773D02*
X001040Y007773D01*
X001040Y007871D02*
X001367Y007871D01*
X001367Y007970D02*
X001040Y007970D01*
X001040Y008068D02*
X001417Y008068D01*
X001515Y008167D02*
X001040Y008167D01*
X001040Y008265D02*
X002385Y008265D01*
X002385Y008364D02*
X001040Y008364D01*
X001040Y008462D02*
X002385Y008462D01*
X002385Y008561D02*
X001927Y008561D01*
X002026Y008659D02*
X002482Y008659D01*
X002580Y008758D02*
X002087Y008758D01*
X001912Y009546D02*
X005281Y009546D01*
X005304Y009644D02*
X002011Y009644D01*
X002087Y009743D02*
X005327Y009743D01*
X005350Y009841D02*
X002087Y009841D01*
X002087Y009940D02*
X005373Y009940D01*
X005324Y010038D02*
X002066Y010038D01*
X001968Y010137D02*
X005324Y010137D01*
X005593Y010135D02*
X005356Y009118D01*
X005526Y009053D02*
X007180Y009053D01*
X007180Y008955D02*
X005526Y008955D01*
X005526Y008856D02*
X007180Y008856D01*
X007180Y008758D02*
X007030Y008758D01*
X007129Y008659D02*
X007180Y008659D01*
X007177Y008167D02*
X007180Y008167D01*
X007180Y008068D02*
X007079Y008068D01*
X006980Y007970D02*
X007180Y007970D01*
X007180Y007871D02*
X005625Y007871D01*
X005624Y007970D02*
X005630Y007970D01*
X005532Y008068D02*
X005526Y008068D01*
X005526Y008758D02*
X005580Y008758D01*
X005539Y009152D02*
X007180Y009152D01*
X007180Y009250D02*
X005562Y009250D01*
X005585Y009349D02*
X007180Y009349D01*
X007180Y009447D02*
X005607Y009447D01*
X005630Y009546D02*
X007180Y009546D01*
X007180Y009644D02*
X005653Y009644D01*
X006103Y010788D02*
X005981Y010911D01*
X005981Y011084D01*
X006100Y011204D01*
X006100Y012787D01*
X006047Y012733D01*
X005873Y012733D01*
X005838Y012769D01*
X005797Y012728D01*
X005623Y012728D01*
X005575Y012777D01*
X005557Y012758D01*
X005556Y012758D01*
X005532Y012734D01*
X005104Y012306D01*
X005076Y012306D01*
X005017Y012246D01*
X004843Y012246D01*
X004818Y012272D01*
X004818Y012130D01*
X005300Y011648D01*
X005400Y011548D01*
X005400Y011367D01*
X005498Y011269D01*
X005498Y011047D01*
X005341Y010889D01*
X005119Y010889D01*
X004968Y011040D01*
X004897Y010968D01*
X004723Y010968D01*
X004601Y011091D01*
X004601Y011264D01*
X004660Y011324D01*
X004660Y011596D01*
X004388Y011868D01*
X004388Y011868D01*
X004300Y011956D01*
X004300Y012232D01*
X004241Y012291D01*
X004241Y012464D01*
X004363Y012587D01*
X004478Y012587D01*
X004478Y012762D01*
X004577Y012862D01*
X004577Y012862D01*
X004714Y012998D01*
X004714Y013002D01*
X004820Y013108D01*
X004820Y013427D01*
X004797Y013427D01*
X004675Y013550D01*
X004675Y013723D01*
X004797Y013846D01*
X004971Y013846D01*
X005041Y013775D01*
X005112Y013846D01*
X005286Y013846D01*
X005345Y013787D01*
X005368Y013787D01*
X005427Y013846D01*
X005601Y013846D01*
X005671Y013775D01*
X005742Y013846D01*
X005916Y013846D01*
X005986Y013775D01*
X006005Y013794D01*
X005934Y013865D01*
X005934Y014038D01*
X006057Y014161D01*
X006231Y014161D01*
X006301Y014090D01*
X006320Y014109D01*
X006249Y014180D01*
X006249Y014353D01*
X006372Y014476D01*
X006546Y014476D01*
X006634Y014388D01*
X006700Y014388D01*
X006700Y014392D01*
X006581Y014511D01*
X006581Y014684D01*
X006644Y014748D01*
X006597Y014794D01*
X006214Y014412D01*
X005899Y014412D01*
X005723Y014236D01*
X005723Y014180D01*
X005601Y014057D01*
X005427Y014057D01*
X005305Y014180D01*
X005305Y014236D01*
X005129Y014412D01*
X004010Y014412D01*
X003735Y014137D01*
X003834Y014038D01*
X003834Y013865D01*
X003763Y013794D01*
X003834Y013723D01*
X003834Y013608D01*
X003856Y013578D01*
X003892Y013541D01*
X003892Y013531D01*
X004026Y013531D01*
X004097Y013460D01*
X004104Y013468D01*
X004104Y013491D01*
X004045Y013550D01*
X004045Y013723D01*
X004167Y013846D01*
X004341Y013846D01*
X004463Y013723D01*
X004463Y013550D01*
X004404Y013491D01*
X004404Y013468D01*
X004412Y013460D01*
X004482Y013531D01*
X004656Y013531D01*
X004778Y013408D01*
X004778Y013235D01*
X004656Y013112D01*
X004572Y013112D01*
X004463Y013004D01*
X004463Y012920D01*
X004341Y012797D01*
X004167Y012797D01*
X004089Y012876D01*
X004089Y011355D01*
X004139Y011304D01*
X004139Y011131D01*
X004017Y011008D01*
X003843Y011008D01*
X003721Y011131D01*
X003721Y011304D01*
X003789Y011373D01*
X003789Y012381D01*
X003697Y012288D01*
X003523Y012288D01*
X003401Y012411D01*
X003401Y012495D01*
X003395Y012500D01*
X003395Y012767D01*
X003384Y012767D01*
X003384Y012605D01*
X003261Y012482D01*
X003204Y012482D01*
X003204Y012369D01*
X003081Y012246D01*
X002908Y012246D01*
X002785Y012369D01*
X002785Y012542D01*
X002844Y012602D01*
X002844Y012708D01*
X002766Y012787D01*
X002766Y012945D01*
X002608Y013102D01*
X002608Y013463D01*
X002696Y013550D01*
X002785Y013639D01*
X002785Y013723D01*
X002908Y013846D01*
X003081Y013846D01*
X003152Y013775D01*
X003222Y013846D01*
X003396Y013846D01*
X003467Y013775D01*
X003486Y013794D01*
X003415Y013865D01*
X003415Y013921D01*
X003396Y013939D01*
X003396Y013939D01*
X003297Y014039D01*
X003297Y014039D01*
X003268Y014068D01*
X002037Y014068D01*
X002087Y014018D01*
X002087Y013720D01*
X001876Y013509D01*
X001738Y013509D01*
X001738Y013327D01*
X001641Y013229D01*
X001876Y013229D01*
X002087Y013018D01*
X002087Y012720D01*
X001876Y012509D01*
X001577Y012509D01*
X001367Y012720D01*
X001367Y013018D01*
X001518Y013169D01*
X001359Y013169D01*
X001202Y013327D01*
X001202Y013421D01*
X001199Y013426D01*
X001202Y013439D01*
X001202Y013549D01*
X001210Y013557D01*
X001210Y013990D01*
X001208Y013992D01*
X001210Y014060D01*
X001210Y014128D01*
X001212Y014130D01*
X001212Y014133D01*
X001261Y014180D01*
X001310Y014228D01*
X001312Y014228D01*
X001451Y014360D01*
X001500Y014408D01*
X001502Y014408D01*
X001504Y014410D01*
X001572Y014408D01*
X001762Y014408D01*
X001762Y014509D01*
X001577Y014509D01*
X001367Y014720D01*
X001367Y014766D02*
X000960Y014766D01*
X000960Y014865D02*
X001367Y014865D01*
X001367Y014963D02*
X000960Y014963D01*
X000960Y015062D02*
X001410Y015062D01*
X001517Y014569D02*
X000960Y014569D01*
X000960Y014471D02*
X001762Y014471D01*
X001570Y014238D02*
X001380Y014058D01*
X001380Y013458D01*
X001470Y013438D01*
X001338Y013190D02*
X000960Y013190D01*
X000960Y013092D02*
X001440Y013092D01*
X001367Y012993D02*
X000960Y012993D01*
X000960Y012895D02*
X001367Y012895D01*
X001367Y012796D02*
X000960Y012796D01*
X000960Y012698D02*
X001389Y012698D01*
X001487Y012599D02*
X000960Y012599D01*
X000960Y012501D02*
X002785Y012501D01*
X002785Y012402D02*
X000960Y012402D01*
X000960Y012304D02*
X002850Y012304D01*
X002842Y012599D02*
X001966Y012599D01*
X002064Y012698D02*
X002844Y012698D01*
X002766Y012796D02*
X002087Y012796D01*
X002087Y012895D02*
X002766Y012895D01*
X002717Y012993D02*
X002087Y012993D01*
X002013Y013092D02*
X002618Y013092D01*
X002608Y013190D02*
X001914Y013190D01*
X001951Y013584D02*
X002730Y013584D01*
X002785Y013683D02*
X002049Y013683D01*
X002087Y013781D02*
X002843Y013781D01*
X002631Y013486D02*
X001738Y013486D01*
X001738Y013387D02*
X002608Y013387D01*
X002608Y013289D02*
X001701Y013289D01*
X001570Y014238D02*
X003338Y014238D01*
X003467Y014109D01*
X003939Y014582D01*
X005199Y014582D01*
X005514Y014267D01*
X005829Y014582D01*
X006144Y014582D01*
X006459Y014897D01*
X006459Y014929D01*
X006250Y015138D01*
X006250Y015318D01*
X006430Y015498D01*
X006246Y015554D02*
X006097Y015554D01*
X006148Y015456D02*
X005999Y015456D01*
X005916Y015421D02*
X005742Y015421D01*
X005703Y015381D01*
X005325Y015381D01*
X005286Y015421D01*
X005112Y015421D01*
X004990Y015298D01*
X004990Y015125D01*
X005112Y015002D01*
X005286Y015002D01*
X005325Y015041D01*
X005703Y015041D01*
X005742Y015002D01*
X005916Y015002D01*
X006038Y015125D01*
X006038Y015298D01*
X005916Y015421D01*
X005979Y015357D02*
X006080Y015357D01*
X006080Y015259D02*
X006038Y015259D01*
X006038Y015160D02*
X006080Y015160D01*
X006086Y015062D02*
X005975Y015062D01*
X005829Y015211D02*
X005199Y015211D01*
X005053Y015062D02*
X004401Y015062D01*
X004463Y015160D02*
X004990Y015160D01*
X004990Y015259D02*
X004463Y015259D01*
X004404Y015357D02*
X005049Y015357D01*
X004727Y015054D02*
X004884Y014897D01*
X004694Y015554D02*
X004463Y015554D01*
X004463Y015456D02*
X005580Y015456D01*
X005593Y015684D02*
X004805Y015684D01*
X004412Y016078D01*
X004412Y016156D01*
X004254Y016314D01*
X004097Y016314D01*
X003939Y016156D01*
X003851Y015948D02*
X003628Y015948D01*
X003753Y016047D02*
X003434Y016047D01*
X003468Y016145D02*
X002176Y016145D01*
X002260Y016047D02*
X002751Y016047D01*
X002653Y015948D02*
X002263Y015948D01*
X002269Y015850D02*
X002554Y015850D01*
X002456Y015751D02*
X002274Y015751D01*
X002077Y016244D02*
X002695Y016244D01*
X002512Y016342D02*
X001978Y016342D01*
X001906Y016539D02*
X002470Y016539D01*
X002470Y016441D02*
X001440Y016441D01*
X001440Y016539D02*
X001547Y016539D01*
X001449Y016638D02*
X001440Y016638D01*
X001894Y017426D02*
X002844Y017426D01*
X002844Y017524D02*
X001891Y017524D01*
X001990Y017623D02*
X002844Y017623D01*
X002844Y017721D02*
X002087Y017721D01*
X002087Y017820D02*
X002844Y017820D01*
X002844Y017918D02*
X002087Y017918D01*
X002087Y018017D02*
X002844Y018017D01*
X002844Y018115D02*
X001989Y018115D01*
X001891Y018214D02*
X002844Y018214D01*
X003028Y018903D02*
X005130Y018903D01*
X005130Y018805D02*
X004931Y018805D01*
X004973Y018706D02*
X005130Y018706D01*
X005130Y018608D02*
X004973Y018608D01*
X004893Y018509D02*
X005130Y018509D01*
X005130Y018411D02*
X004840Y018411D01*
X004840Y018312D02*
X005130Y018312D01*
X005130Y018214D02*
X004840Y018214D01*
X004840Y018115D02*
X005130Y018115D01*
X005130Y018017D02*
X004840Y018017D01*
X004840Y017918D02*
X005130Y017918D01*
X005162Y017820D02*
X004840Y017820D01*
X004840Y017721D02*
X005210Y017721D01*
X005210Y017623D02*
X004840Y017623D01*
X004840Y017524D02*
X005210Y017524D01*
X005210Y017426D02*
X004840Y017426D01*
X004840Y017327D02*
X005210Y017327D01*
X005210Y017229D02*
X004840Y017229D01*
X004840Y017130D02*
X005136Y017130D01*
X005118Y017032D02*
X004851Y017032D01*
X004736Y016638D02*
X004717Y016638D01*
X004884Y016471D02*
X005041Y016629D01*
X005032Y016638D02*
X005118Y016638D01*
X005118Y016736D02*
X005093Y016736D01*
X005093Y016835D02*
X005118Y016835D01*
X005118Y016933D02*
X005033Y016933D01*
X005118Y016539D02*
X004149Y016539D01*
X004106Y016638D02*
X004087Y016638D01*
X004402Y016638D02*
X004421Y016638D01*
X004368Y016441D02*
X005118Y016441D01*
X005080Y016342D02*
X004466Y016342D01*
X004565Y016244D02*
X004990Y016244D01*
X004990Y016145D02*
X004584Y016145D01*
X004683Y016047D02*
X005012Y016047D01*
X005111Y015948D02*
X004781Y015948D01*
X004596Y015653D02*
X004424Y015653D01*
X004497Y015751D02*
X004204Y015751D01*
X004254Y015841D02*
X004097Y015999D01*
X004126Y016047D02*
X004242Y016047D01*
X004300Y015948D02*
X004027Y015948D01*
X004073Y015850D02*
X004399Y015850D01*
X004254Y015211D02*
X003624Y015211D01*
X003624Y014897D02*
X003309Y015211D01*
X003309Y015526D01*
X003467Y015369D01*
X003474Y015357D02*
X003145Y015357D01*
X003204Y015259D02*
X003415Y015259D01*
X003415Y015160D02*
X003204Y015160D01*
X003178Y015062D02*
X003141Y015062D01*
X003204Y015456D02*
X003490Y015456D01*
X003478Y015062D02*
X003440Y015062D01*
X003519Y014963D02*
X006184Y014963D01*
X006187Y014865D02*
X003519Y014865D01*
X003479Y014766D02*
X006088Y014766D01*
X006274Y014471D02*
X006367Y014471D01*
X006372Y014569D02*
X006581Y014569D01*
X006581Y014668D02*
X006471Y014668D01*
X006569Y014766D02*
X006625Y014766D01*
X006621Y014471D02*
X006551Y014471D01*
X006268Y014372D02*
X005860Y014372D01*
X005762Y014274D02*
X006249Y014274D01*
X006254Y014175D02*
X005719Y014175D01*
X005620Y014077D02*
X005973Y014077D01*
X005934Y013978D02*
X003834Y013978D01*
X003834Y013880D02*
X005934Y013880D01*
X005980Y013781D02*
X005992Y013781D01*
X005677Y013781D02*
X005665Y013781D01*
X005408Y014077D02*
X003795Y014077D01*
X003773Y014175D02*
X005309Y014175D01*
X005266Y014274D02*
X003872Y014274D01*
X003970Y014372D02*
X005168Y014372D01*
X005353Y014668D02*
X005675Y014668D01*
X005576Y014569D02*
X005452Y014569D01*
X005048Y013781D02*
X005035Y013781D01*
X004884Y013637D02*
X004990Y013531D01*
X004990Y013038D01*
X004884Y012932D01*
X004884Y012928D01*
X004648Y012692D01*
X004648Y012060D01*
X005230Y011478D01*
X005230Y011158D01*
X005377Y010925D02*
X005981Y010925D01*
X005981Y011023D02*
X005475Y011023D01*
X005498Y011122D02*
X006018Y011122D01*
X006100Y011220D02*
X005498Y011220D01*
X005449Y011319D02*
X006100Y011319D01*
X006100Y011417D02*
X005400Y011417D01*
X005400Y011516D02*
X006100Y011516D01*
X006100Y011614D02*
X005334Y011614D01*
X005235Y011713D02*
X006100Y011713D01*
X006100Y011811D02*
X005137Y011811D01*
X005038Y011910D02*
X006100Y011910D01*
X006100Y012008D02*
X004940Y012008D01*
X004841Y012107D02*
X006100Y012107D01*
X006100Y012205D02*
X004818Y012205D01*
X004641Y011614D02*
X004089Y011614D01*
X004089Y011516D02*
X004660Y011516D01*
X004660Y011417D02*
X004089Y011417D01*
X004125Y011319D02*
X004655Y011319D01*
X004601Y011220D02*
X004139Y011220D01*
X004130Y011122D02*
X004601Y011122D01*
X004668Y011023D02*
X004032Y011023D01*
X003828Y011023D02*
X003219Y011023D01*
X003219Y010925D02*
X005083Y010925D01*
X004985Y011023D02*
X004952Y011023D01*
X004543Y011713D02*
X004089Y011713D01*
X004089Y011811D02*
X004444Y011811D01*
X004346Y011910D02*
X004089Y011910D01*
X004089Y012008D02*
X004300Y012008D01*
X004300Y012107D02*
X004089Y012107D01*
X004089Y012205D02*
X004300Y012205D01*
X004241Y012304D02*
X004089Y012304D01*
X004089Y012402D02*
X004241Y012402D01*
X004277Y012501D02*
X004089Y012501D01*
X004089Y012599D02*
X004478Y012599D01*
X004478Y012698D02*
X004089Y012698D01*
X004089Y012796D02*
X004512Y012796D01*
X004438Y012895D02*
X004610Y012895D01*
X004709Y012993D02*
X004463Y012993D01*
X004551Y013092D02*
X004804Y013092D01*
X004820Y013190D02*
X004734Y013190D01*
X004778Y013289D02*
X004820Y013289D01*
X004820Y013387D02*
X004778Y013387D01*
X004739Y013486D02*
X004701Y013486D01*
X004675Y013584D02*
X004463Y013584D01*
X004463Y013683D02*
X004675Y013683D01*
X004733Y013781D02*
X004406Y013781D01*
X004569Y013637D02*
X004412Y013479D01*
X004404Y013486D02*
X004437Y013486D01*
X004104Y013486D02*
X004071Y013486D01*
X004045Y013584D02*
X003851Y013584D01*
X003834Y013683D02*
X004045Y013683D01*
X004103Y013781D02*
X003776Y013781D01*
X003624Y013952D02*
X003467Y014109D01*
X003357Y013978D02*
X002087Y013978D01*
X002087Y013880D02*
X003415Y013880D01*
X003461Y013781D02*
X003473Y013781D01*
X003444Y014372D02*
X003489Y014372D01*
X003495Y014471D02*
X003588Y014471D01*
X003624Y014582D02*
X003624Y014897D01*
X003309Y014897D02*
X003309Y014582D01*
X002278Y014582D01*
X002030Y014518D01*
X001464Y014372D02*
X000960Y014372D01*
X000960Y014274D02*
X001361Y014274D01*
X001257Y014175D02*
X000960Y014175D01*
X000960Y014077D02*
X001210Y014077D01*
X001210Y013978D02*
X000960Y013978D01*
X000960Y013880D02*
X001210Y013880D01*
X001210Y013781D02*
X000960Y013781D01*
X000960Y013683D02*
X001210Y013683D01*
X001210Y013584D02*
X000960Y013584D01*
X000960Y013486D02*
X001202Y013486D01*
X001202Y013387D02*
X000960Y013387D01*
X000960Y013289D02*
X001239Y013289D01*
X001899Y012205D02*
X003789Y012205D01*
X003789Y012107D02*
X001998Y012107D01*
X002087Y012008D02*
X003789Y012008D01*
X003789Y011910D02*
X002087Y011910D01*
X002087Y011811D02*
X003789Y011811D01*
X003789Y011713D02*
X002079Y011713D01*
X001981Y011614D02*
X003789Y011614D01*
X003789Y011516D02*
X002492Y011516D01*
X002591Y011417D02*
X003789Y011417D01*
X003735Y011319D02*
X002949Y011319D01*
X003038Y011220D02*
X003721Y011220D01*
X003730Y011122D02*
X003122Y011122D01*
X003195Y010826D02*
X006065Y010826D01*
X006103Y010788D02*
X006165Y010788D01*
X006161Y010784D01*
X006161Y010629D02*
X001996Y010629D01*
X001897Y010531D02*
X006241Y010531D01*
X006499Y010531D02*
X007191Y010531D01*
X007240Y010629D02*
X006579Y010629D01*
X006579Y010728D02*
X007240Y010728D01*
X007240Y010826D02*
X007035Y010826D01*
X007059Y010925D02*
X007240Y010925D01*
X007240Y011023D02*
X007059Y011023D01*
X006998Y011122D02*
X007242Y011122D01*
X007340Y011220D02*
X006900Y011220D01*
X006820Y011319D02*
X007439Y011319D01*
X007571Y011516D02*
X006820Y011516D01*
X006820Y011614D02*
X007472Y011614D01*
X007374Y011713D02*
X006820Y011713D01*
X006820Y011811D02*
X007367Y011811D01*
X007367Y011910D02*
X006820Y011910D01*
X006820Y012008D02*
X007367Y012008D01*
X007455Y012107D02*
X007151Y012107D01*
X007250Y012205D02*
X007506Y012205D01*
X007372Y012304D02*
X007300Y012304D01*
X006820Y011417D02*
X007837Y011417D01*
X007882Y011516D02*
X007936Y011516D01*
X008380Y014668D02*
X008503Y014668D01*
X008503Y014766D02*
X008380Y014766D01*
X008380Y014865D02*
X008503Y014865D01*
X008503Y014963D02*
X008380Y014963D01*
X008380Y015062D02*
X008503Y015062D01*
X008503Y015160D02*
X008380Y015160D01*
X008380Y015259D02*
X008503Y015259D01*
X008503Y015357D02*
X008380Y015357D01*
X008400Y015456D02*
X008503Y015456D01*
X008499Y015554D02*
X008503Y015554D01*
X007960Y017327D02*
X006929Y017327D01*
X006929Y017426D02*
X007960Y017426D01*
X007960Y017524D02*
X007891Y017524D01*
X007891Y018214D02*
X007960Y018214D01*
X007960Y018312D02*
X006929Y018312D01*
X006929Y018214D02*
X007562Y018214D01*
X007464Y018115D02*
X006929Y018115D01*
X006929Y018017D02*
X007367Y018017D01*
X007367Y017918D02*
X006929Y017918D01*
X006929Y017820D02*
X007367Y017820D01*
X007367Y017721D02*
X006929Y017721D01*
X006929Y017623D02*
X007464Y017623D01*
X007562Y017524D02*
X006929Y017524D01*
X006929Y017201D02*
X006924Y017197D01*
X007159Y018608D02*
X007479Y018608D01*
X007380Y018706D02*
X007078Y018706D01*
X007228Y018903D02*
X005790Y018903D01*
X005790Y018805D02*
X007367Y018805D01*
X007577Y018509D02*
X007876Y018509D01*
X007282Y020282D02*
X005801Y020282D01*
X005702Y020184D02*
X007184Y020184D01*
X007381Y020381D02*
X005899Y020381D01*
X005998Y020479D02*
X007479Y020479D01*
X007945Y020578D02*
X008214Y020578D01*
X008141Y020479D02*
X008021Y020479D01*
X008119Y020381D02*
X008141Y020381D01*
X008043Y020676D02*
X008503Y020676D01*
X008503Y020578D02*
X008486Y020578D01*
X008503Y020775D02*
X008087Y020775D01*
X008087Y020873D02*
X008503Y020873D01*
X008503Y020972D02*
X008087Y020972D01*
X008034Y021070D02*
X008503Y021070D01*
X008503Y021169D02*
X007957Y021169D01*
X008032Y021267D02*
X008503Y021267D01*
X008503Y021366D02*
X008130Y021366D01*
X008200Y021464D02*
X008503Y021464D01*
X008503Y021563D02*
X008200Y021563D01*
X008200Y021661D02*
X008503Y021661D01*
X008503Y021760D02*
X008200Y021760D01*
X008200Y021858D02*
X008503Y021858D01*
X008503Y021957D02*
X008200Y021957D01*
X008200Y022055D02*
X008503Y022055D01*
X008503Y022154D02*
X008200Y022154D01*
X008200Y022252D02*
X008503Y022252D01*
X008503Y022351D02*
X008200Y022351D01*
X008200Y022449D02*
X008503Y022449D01*
X008503Y022548D02*
X008200Y022548D01*
X008200Y022646D02*
X008503Y022646D01*
X008503Y022745D02*
X008200Y022745D01*
X008200Y022843D02*
X008503Y022843D01*
X008503Y022942D02*
X008200Y022942D01*
X008200Y023040D02*
X008503Y023040D01*
X008503Y023139D02*
X008200Y023139D01*
X008200Y023237D02*
X008503Y023237D01*
X008503Y023336D02*
X008200Y023336D01*
X008200Y023434D02*
X008503Y023434D01*
X008503Y023533D02*
X008200Y023533D01*
X008176Y023631D02*
X008503Y023631D01*
X007900Y022449D02*
X006519Y022449D01*
X006519Y022351D02*
X007900Y022351D01*
X007900Y022252D02*
X006481Y022252D01*
X006344Y022154D02*
X007502Y022154D01*
X007539Y022548D02*
X006436Y022548D01*
X006249Y022646D02*
X007440Y022646D01*
X006979Y021563D02*
X006841Y021563D01*
X006619Y021563D02*
X006601Y021563D01*
X006379Y021563D02*
X005831Y021563D01*
X005755Y021169D02*
X005210Y021169D01*
X005210Y021267D02*
X006153Y021267D01*
X006281Y021395D02*
X006281Y021464D01*
X005569Y021563D02*
X005210Y021563D01*
X005242Y021661D02*
X005491Y021661D01*
X005491Y021760D02*
X005321Y021760D01*
X005399Y021858D02*
X005534Y021858D01*
X005656Y021070D02*
X005189Y021070D01*
X005099Y020972D02*
X005558Y020972D01*
X005459Y020873D02*
X005062Y020873D01*
X005164Y020578D02*
X001945Y020578D01*
X001971Y020408D02*
X001813Y020330D01*
X001921Y020184D02*
X004830Y020184D01*
X004830Y020085D02*
X002019Y020085D01*
X002087Y019987D02*
X004830Y019987D01*
X004830Y019888D02*
X002087Y019888D01*
X002087Y019790D02*
X004830Y019790D01*
X004830Y019691D02*
X002058Y019691D01*
X001960Y019593D02*
X004830Y019593D01*
X004830Y019494D02*
X001540Y019494D01*
X001600Y019396D02*
X004830Y019396D01*
X004864Y019297D02*
X003227Y019297D01*
X003279Y019199D02*
X004963Y019199D01*
X005061Y019100D02*
X003279Y019100D01*
X003210Y019002D02*
X005130Y019002D01*
X004868Y020282D02*
X001540Y020282D01*
X001540Y020381D02*
X004967Y020381D01*
X005065Y020479D02*
X001540Y020479D01*
X001540Y021267D02*
X003651Y021267D01*
X003717Y021169D02*
X001936Y021169D01*
X002034Y021070D02*
X003783Y021070D01*
X003841Y020972D02*
X002087Y020972D01*
X002087Y020873D02*
X003841Y020873D01*
X003937Y020775D02*
X002087Y020775D01*
X002043Y020676D02*
X005262Y020676D01*
X005361Y020775D02*
X004163Y020775D01*
X004259Y020873D02*
X004718Y020873D01*
X004681Y020972D02*
X004259Y020972D01*
X004234Y021070D02*
X004681Y021070D01*
X004765Y021169D02*
X004102Y021169D01*
X004181Y021267D02*
X004890Y021267D01*
X004890Y021366D02*
X004259Y021366D01*
X004308Y021464D02*
X004890Y021464D01*
X004890Y021563D02*
X004861Y021563D01*
X004867Y023139D02*
X005125Y023139D01*
X005223Y023237D02*
X004899Y023237D01*
X004960Y023336D02*
X005322Y023336D01*
X005420Y023434D02*
X005070Y023434D01*
X005134Y023533D02*
X005449Y023533D01*
X004451Y023237D02*
X003911Y023237D01*
X004031Y023336D02*
X004380Y023336D01*
X004270Y023434D02*
X004104Y023434D01*
X004144Y023533D02*
X004206Y023533D01*
X004168Y023631D02*
X004160Y023631D01*
X004359Y023139D02*
X002320Y023139D01*
X002320Y023040D02*
X004256Y023040D01*
X003628Y022942D02*
X002320Y022942D01*
X002320Y022843D02*
X003529Y022843D01*
X003490Y022938D02*
X003610Y022998D01*
X003431Y022745D02*
X002320Y022745D01*
X002320Y022646D02*
X003332Y022646D01*
X003234Y022548D02*
X002292Y022548D01*
X002194Y022449D02*
X003121Y022449D01*
X003080Y022351D02*
X002095Y022351D01*
X002079Y022252D02*
X002587Y022252D01*
X002519Y022154D02*
X001982Y022154D01*
X002049Y022055D02*
X002519Y022055D01*
X002574Y021957D02*
X002087Y021957D01*
X002087Y021858D02*
X003144Y021858D01*
X003229Y021957D02*
X003243Y021957D01*
X003130Y022098D02*
X003250Y022218D01*
X003250Y022338D01*
X003130Y022098D02*
X002729Y022098D01*
X002723Y021661D02*
X002947Y021661D01*
X003046Y021760D02*
X002087Y021760D01*
X002028Y021661D02*
X002457Y021661D01*
X002381Y021563D02*
X001930Y021563D01*
X001540Y021464D02*
X002381Y021464D01*
X002426Y021366D02*
X001540Y021366D01*
X001600Y019297D02*
X002913Y019297D01*
X002861Y019199D02*
X001906Y019199D01*
X002004Y019100D02*
X002800Y019100D01*
X002618Y019002D02*
X002087Y019002D01*
X002087Y018903D02*
X002572Y018903D01*
X002087Y018720D02*
X001876Y018509D01*
X001479Y018608D02*
X001440Y018608D01*
X001959Y017327D02*
X002844Y017327D01*
X002844Y017229D02*
X001959Y017229D01*
X001974Y017130D02*
X002844Y017130D01*
X002844Y017032D02*
X002073Y017032D01*
X002087Y016933D02*
X002530Y016933D01*
X002470Y016835D02*
X002087Y016835D01*
X002087Y016736D02*
X002470Y016736D01*
X002532Y016638D02*
X002004Y016638D01*
X002837Y016944D02*
X002739Y017266D01*
X002828Y016933D02*
X002844Y016933D01*
X003204Y015554D02*
X003326Y015554D01*
X003774Y016933D02*
X003789Y016933D01*
X003789Y017032D02*
X003774Y017032D01*
X003774Y017130D02*
X003789Y017130D01*
X003789Y017229D02*
X003774Y017229D01*
X003774Y017327D02*
X003789Y017327D01*
X003789Y017426D02*
X003774Y017426D01*
X003774Y017524D02*
X003789Y017524D01*
X003789Y017623D02*
X003774Y017623D01*
X003774Y017721D02*
X003789Y017721D01*
X003789Y017820D02*
X003774Y017820D01*
X003774Y017918D02*
X003789Y017918D01*
X003789Y018017D02*
X003774Y018017D01*
X003774Y018115D02*
X003789Y018115D01*
X003789Y018214D02*
X003774Y018214D01*
X003774Y018312D02*
X003789Y018312D01*
X003789Y018411D02*
X003774Y018411D01*
X003774Y018509D02*
X003789Y018509D01*
X003789Y018608D02*
X003747Y018608D01*
X003730Y018678D02*
X003730Y018918D01*
X003634Y018805D02*
X003832Y018805D01*
X003790Y018706D02*
X003676Y018706D01*
X003790Y019798D02*
X003790Y019878D01*
X003576Y021366D02*
X003104Y021366D01*
X003203Y021464D02*
X003570Y021464D01*
X003570Y021563D02*
X003301Y021563D01*
X003400Y021661D02*
X003570Y021661D01*
X002507Y020298D02*
X002350Y020238D01*
X001017Y015259D02*
X000960Y015259D01*
X000960Y015160D02*
X001115Y015160D01*
X001248Y011023D02*
X001372Y011023D01*
X001367Y010925D02*
X001159Y010925D01*
X001135Y010826D02*
X001367Y010826D01*
X000970Y009506D02*
X000850Y009386D01*
X000850Y009258D01*
X000787Y009743D02*
X000753Y009743D01*
X001040Y009152D02*
X001500Y009152D01*
X001402Y009053D02*
X001040Y009053D01*
X001040Y008955D02*
X001367Y008955D01*
X001367Y008856D02*
X001040Y008856D01*
X001040Y008758D02*
X001367Y008758D01*
X001427Y008659D02*
X001040Y008659D01*
X001040Y008561D02*
X001526Y008561D01*
X001447Y006098D02*
X001040Y006098D01*
X001040Y006000D02*
X001367Y006000D01*
X001367Y005901D02*
X001040Y005901D01*
X001040Y005803D02*
X001367Y005803D01*
X001382Y005704D02*
X001072Y005704D01*
X002440Y007674D02*
X002497Y007674D01*
X002481Y007773D02*
X002595Y007773D01*
X002789Y006798D02*
X003848Y006798D01*
X004018Y006629D01*
X004018Y006314D01*
X003545Y005841D01*
X003325Y005841D01*
X003310Y005826D01*
X003418Y006186D02*
X003782Y006471D01*
X003631Y006969D02*
X003979Y006969D01*
X004225Y007215D01*
X004225Y007563D01*
X003979Y007809D01*
X003631Y007809D01*
X003385Y007563D01*
X003385Y007215D01*
X003631Y006969D01*
X003615Y006985D02*
X002995Y006985D01*
X003094Y007083D02*
X003517Y007083D01*
X003418Y007182D02*
X003192Y007182D01*
X003225Y007280D02*
X003385Y007280D01*
X003385Y007379D02*
X003225Y007379D01*
X003225Y007477D02*
X003385Y007477D01*
X003398Y007576D02*
X003212Y007576D01*
X003114Y007674D02*
X003497Y007674D01*
X003595Y007773D02*
X003015Y007773D01*
X002980Y007970D02*
X003630Y007970D01*
X003631Y007969D02*
X003979Y007969D01*
X004225Y008215D01*
X004225Y008563D01*
X003979Y008809D01*
X003631Y008809D01*
X003385Y008563D01*
X003385Y008215D01*
X003631Y007969D01*
X003532Y008068D02*
X003079Y008068D01*
X003177Y008167D02*
X003433Y008167D01*
X003385Y008265D02*
X003225Y008265D01*
X003225Y008364D02*
X003385Y008364D01*
X003385Y008462D02*
X003225Y008462D01*
X003225Y008561D02*
X003385Y008561D01*
X003482Y008659D02*
X003129Y008659D01*
X003030Y008758D02*
X003580Y008758D01*
X003980Y007970D02*
X004630Y007970D01*
X004532Y008068D02*
X004079Y008068D01*
X004015Y007773D02*
X004595Y007773D01*
X004497Y007674D02*
X004114Y007674D01*
X004212Y007576D02*
X004398Y007576D01*
X004385Y007477D02*
X004225Y007477D01*
X004225Y007379D02*
X004385Y007379D01*
X004385Y007280D02*
X004225Y007280D01*
X004192Y007182D02*
X004418Y007182D01*
X004517Y007083D02*
X004094Y007083D01*
X003995Y006985D02*
X004615Y006985D01*
X004980Y007970D02*
X005089Y007970D01*
X005079Y008068D02*
X005186Y008068D01*
X005177Y008167D02*
X005186Y008167D01*
X004580Y008758D02*
X004030Y008758D01*
X004129Y008659D02*
X004482Y008659D01*
X004385Y008561D02*
X004225Y008561D01*
X004225Y008462D02*
X004385Y008462D01*
X004385Y008364D02*
X004225Y008364D01*
X004225Y008265D02*
X004385Y008265D01*
X004433Y008167D02*
X004177Y008167D01*
X003012Y010728D02*
X002588Y010728D01*
X002770Y011118D02*
X002730Y011158D01*
X002610Y011158D01*
X003139Y012304D02*
X003508Y012304D01*
X003409Y012402D02*
X003204Y012402D01*
X003279Y012501D02*
X003395Y012501D01*
X003395Y012599D02*
X003378Y012599D01*
X003384Y012698D02*
X003395Y012698D01*
X003712Y012304D02*
X003789Y012304D01*
X003158Y013781D02*
X003146Y013781D01*
X005074Y012304D02*
X006100Y012304D01*
X006100Y012402D02*
X005200Y012402D01*
X005299Y012501D02*
X006100Y012501D01*
X006100Y012599D02*
X005397Y012599D01*
X005496Y012698D02*
X006100Y012698D01*
X006196Y015653D02*
X006260Y015653D01*
X006292Y016342D02*
X005996Y016342D01*
X006038Y016441D02*
X006249Y016441D01*
X006249Y016539D02*
X006038Y016539D01*
X005996Y016638D02*
X005977Y016638D01*
X006291Y016638D02*
X006311Y016638D01*
X005790Y019002D02*
X007130Y019002D01*
X006971Y019100D02*
X005790Y019100D01*
X005790Y019199D02*
X006881Y019199D01*
X006881Y019297D02*
X005790Y019297D01*
X005426Y015948D02*
X005287Y015948D01*
X007015Y007773D02*
X007180Y007773D01*
X007180Y007674D02*
X007114Y007674D01*
X006921Y006591D02*
X006819Y006591D01*
X006975Y005704D02*
X007382Y005704D01*
X007367Y005720D02*
X007577Y005509D01*
X007876Y005509D01*
X008087Y005720D01*
X008087Y006018D01*
X007876Y006229D01*
X007577Y006229D01*
X007367Y006018D01*
X007367Y005720D01*
X007367Y005803D02*
X007185Y005803D01*
X007278Y005901D02*
X007367Y005901D01*
X007367Y006000D02*
X007278Y006000D01*
X007278Y006098D02*
X007447Y006098D01*
X007545Y006197D02*
X007201Y006197D01*
X007481Y005606D02*
X006877Y005606D01*
X006778Y005507D02*
X008503Y005507D01*
X008503Y005606D02*
X007972Y005606D01*
X008071Y005704D02*
X008503Y005704D01*
X008503Y005803D02*
X008087Y005803D01*
X008087Y005901D02*
X008503Y005901D01*
X008503Y006000D02*
X008087Y006000D01*
X008006Y006098D02*
X008503Y006098D01*
X008503Y006197D02*
X007908Y006197D01*
D15*
X007516Y007258D03*
X007810Y008298D03*
X008050Y009138D03*
X007630Y009258D03*
X007510Y010278D03*
X007870Y010458D03*
X007630Y011378D03*
X007640Y012368D03*
X007930Y012518D03*
X007510Y014298D03*
X006790Y014598D03*
X006790Y014898D03*
X006459Y015211D03*
X006459Y014582D03*
X006459Y014267D03*
X006459Y013952D03*
X006144Y013952D03*
X006144Y013637D03*
X006144Y013322D03*
X005960Y012943D03*
X005829Y013637D03*
X005710Y012938D03*
X005514Y013637D03*
X005514Y013952D03*
X005514Y014267D03*
X005199Y013637D03*
X005199Y013322D03*
X005199Y013007D03*
X005470Y012968D03*
X005580Y012368D03*
X005890Y011196D03*
X006190Y010998D03*
X006370Y010698D03*
X006550Y010998D03*
X006850Y010938D03*
X006930Y009918D03*
X005950Y009918D03*
X004930Y012456D03*
X004569Y013322D03*
X004569Y013637D03*
X004884Y013637D03*
X004884Y014897D03*
X005199Y015211D03*
X005199Y016156D03*
X005514Y016156D03*
X005829Y016156D03*
X005829Y015841D03*
X005829Y016471D03*
X005829Y016786D03*
X006144Y016786D03*
X006459Y016786D03*
X006459Y016471D03*
X006414Y017446D03*
X006339Y018538D03*
X006084Y018538D03*
X005829Y018538D03*
X005530Y019638D03*
X006120Y019838D03*
X006350Y019818D03*
X006580Y019808D03*
X006950Y018538D03*
X007090Y019278D03*
X007330Y019098D03*
X007810Y021318D03*
X008350Y020418D03*
X008230Y019578D03*
X007090Y021378D03*
X006730Y021378D03*
X006490Y021378D03*
X006135Y022192D03*
X006310Y022378D03*
X006250Y023658D03*
X005630Y023418D03*
X005510Y022518D03*
X005700Y021728D03*
X004930Y022918D03*
X004850Y022218D03*
X004870Y021798D03*
X004570Y021858D03*
X004890Y020998D03*
X004380Y022868D03*
X004690Y023258D03*
X004050Y021433D03*
X004050Y020958D03*
X003790Y019798D03*
X003730Y018678D03*
X003467Y018676D03*
X003152Y018676D03*
X002897Y018618D03*
X002781Y018869D03*
X003070Y019158D03*
X002507Y020298D03*
X002590Y021498D03*
X002729Y022098D03*
X002530Y022878D03*
X001870Y022338D03*
X001716Y023428D03*
X001419Y024482D03*
X000986Y024078D03*
X001120Y019158D03*
X001750Y017248D03*
X002679Y016786D03*
X002679Y016471D03*
X002739Y017266D03*
X002994Y016786D03*
X003309Y016786D03*
X003309Y016156D03*
X003309Y015526D03*
X003309Y014897D03*
X003309Y014582D03*
X002994Y014897D03*
X002994Y015211D03*
X002994Y015526D03*
X003624Y015211D03*
X003624Y014582D03*
X003939Y014267D03*
X003624Y013952D03*
X003624Y013637D03*
X003939Y013322D03*
X003730Y012818D03*
X003610Y012498D03*
X003310Y012977D03*
X003174Y012692D03*
X002994Y012456D03*
X002820Y012669D03*
X002994Y013322D03*
X002994Y013637D03*
X003309Y013637D03*
X003309Y013322D03*
X003930Y011218D03*
X004170Y011218D03*
X004450Y012378D03*
X004254Y013007D03*
X004254Y013322D03*
X004254Y013637D03*
X004254Y015211D03*
X004254Y015526D03*
X004254Y015841D03*
X003939Y015526D03*
X003939Y016156D03*
X003939Y016471D03*
X003939Y016786D03*
X003624Y016786D03*
X003624Y016471D03*
X004254Y016786D03*
X004569Y016786D03*
X004884Y016786D03*
X004884Y016471D03*
X005154Y017356D03*
X004764Y018676D03*
X004509Y018676D03*
X004254Y018676D03*
X003999Y018676D03*
X003430Y022098D03*
X003610Y022998D03*
X003970Y022638D03*
X006144Y015526D03*
X006144Y014897D03*
X005829Y015211D03*
X006430Y012968D03*
X006774Y013322D03*
X006790Y013948D03*
X004810Y011178D03*
X004140Y010015D03*
X003010Y010938D03*
X002350Y007938D03*
X002789Y006798D03*
X003310Y005826D03*
X003782Y006471D03*
X000950Y010938D03*
X006710Y006778D03*
X007010Y006798D03*
D16*
X007010Y006008D03*
X006550Y006038D03*
X005356Y007858D03*
X005593Y010135D03*
X005230Y011158D03*
X002770Y011118D03*
X002030Y014518D03*
X001470Y013438D03*
X001040Y011898D03*
X001050Y011418D03*
X002110Y016338D03*
X004340Y021078D03*
X006024Y021518D03*
D17*
X006120Y019838D02*
X006130Y019758D01*
X006370Y019518D01*
X007330Y019518D01*
X007570Y019758D01*
X007615Y019758D01*
X007727Y019869D01*
X007390Y019998D02*
X007630Y020238D01*
X007889Y020238D01*
X008050Y020077D01*
X008050Y019518D01*
X008350Y019218D01*
X008350Y015798D01*
X008110Y015558D01*
X008110Y014298D01*
X008230Y014178D01*
X008230Y011372D01*
X007727Y010869D01*
X007840Y011208D02*
X007540Y011208D01*
X007390Y011058D01*
X007390Y010518D01*
X007330Y010458D01*
X007330Y007338D01*
X006970Y006978D01*
X006910Y006978D01*
X006710Y006778D01*
X007727Y007961D02*
X007510Y008178D01*
X007510Y008418D01*
X007630Y008538D01*
X007870Y008538D01*
X008050Y008718D01*
X008050Y008861D01*
X008230Y009041D01*
X008230Y009258D01*
X008170Y009318D01*
X008170Y010998D01*
X008350Y011178D01*
X008350Y014238D01*
X008230Y014358D01*
X008230Y015498D01*
X008470Y015738D01*
X008470Y020298D01*
X008350Y020418D01*
X008170Y020118D02*
X008170Y019739D01*
X008230Y019578D01*
X007990Y019338D02*
X008230Y019098D01*
X008230Y015858D01*
X007750Y015378D01*
X007750Y014892D01*
X007727Y014869D01*
X007870Y014298D02*
X008110Y014058D01*
X008110Y011478D01*
X007840Y011208D01*
X007690Y011358D02*
X007630Y011378D01*
X007640Y012368D02*
X007510Y012378D01*
X007270Y012618D01*
X007270Y014118D01*
X006970Y014418D01*
X006970Y014718D01*
X006790Y014898D01*
X007030Y014958D02*
X006776Y015211D01*
X006459Y015211D01*
X006459Y014267D02*
X006488Y014238D01*
X006790Y014238D01*
X007030Y013998D01*
X007030Y012378D01*
X006970Y012318D01*
X006610Y012318D01*
X006550Y012258D01*
X006550Y010998D01*
X006670Y011238D02*
X006670Y012138D01*
X006730Y012198D01*
X007030Y012198D01*
X007150Y012318D01*
X007150Y014058D01*
X006850Y014358D01*
X006850Y014538D01*
X006790Y014598D01*
X006790Y014538D01*
X007090Y014778D02*
X007030Y014838D01*
X007030Y014958D01*
X007090Y014778D02*
X007090Y014478D01*
X007390Y014178D01*
X007390Y012678D01*
X007510Y012538D01*
X007910Y012538D01*
X007930Y012518D01*
X007870Y014298D02*
X007510Y014298D01*
X007727Y015869D02*
X007727Y016109D01*
X008110Y016492D01*
X008110Y019038D01*
X007930Y019218D01*
X007450Y019218D01*
X007330Y019098D01*
X007330Y019278D02*
X007390Y019338D01*
X007990Y019338D01*
X008170Y020118D02*
X007930Y020358D01*
X007570Y020358D01*
X007110Y019898D01*
X007110Y019838D01*
X006580Y019808D01*
X006490Y019638D02*
X006370Y019758D01*
X006350Y019818D01*
X006490Y019638D02*
X007150Y019638D01*
X007390Y019878D01*
X007390Y019998D01*
X007330Y019278D02*
X007090Y019278D01*
X006950Y018538D02*
X006827Y018498D01*
X006779Y018449D01*
X006779Y017263D01*
X006774Y017259D01*
X006774Y016786D01*
X006459Y016471D01*
X006459Y016786D02*
X006459Y017089D01*
X006370Y017178D01*
X006250Y017178D01*
X006100Y017328D01*
X006100Y017508D01*
X006250Y017658D01*
X006250Y018347D01*
X006339Y018538D01*
X006130Y018492D02*
X006084Y018538D01*
X006130Y018492D02*
X006130Y017718D01*
X005950Y017538D01*
X005950Y017298D01*
X006144Y017104D01*
X006144Y016786D01*
X006459Y014267D02*
X006550Y014238D01*
X006459Y013952D02*
X006774Y013952D01*
X006790Y013948D01*
X006774Y013322D02*
X006610Y013158D01*
X006610Y012858D01*
X006490Y012678D01*
X006370Y012558D01*
X006370Y010698D01*
X006190Y010998D02*
X006250Y011058D01*
X006250Y013098D01*
X006370Y013218D01*
X006370Y013458D01*
X006191Y013637D01*
X006144Y013637D01*
X006176Y013892D02*
X006490Y013578D01*
X006490Y013018D01*
X006430Y012968D01*
X006144Y013322D02*
X005990Y013168D01*
X005960Y012943D01*
X006050Y013228D02*
X006144Y013322D01*
X006176Y013892D02*
X006176Y013952D01*
X006144Y013952D01*
X005829Y013637D02*
X005829Y013218D01*
X005710Y013099D01*
X005710Y012938D01*
X005514Y013637D02*
X005199Y013637D01*
X005199Y013322D02*
X005199Y013007D01*
X005470Y012968D02*
X005470Y012884D01*
X005041Y012456D01*
X004930Y012456D01*
X004450Y012018D02*
X004810Y011658D01*
X004810Y011178D01*
X004450Y012018D02*
X004450Y012378D01*
X004254Y013007D02*
X004569Y013322D01*
X004254Y013322D02*
X004254Y013637D01*
X003939Y013322D02*
X003939Y013282D01*
X003900Y013282D01*
X003939Y013243D01*
X003939Y011227D01*
X003930Y011218D01*
X004140Y010015D02*
X004018Y009857D01*
X003610Y012498D02*
X003545Y012562D01*
X003545Y013400D01*
X003309Y013637D01*
X003309Y013322D02*
X003309Y012978D01*
X003310Y012977D01*
X003174Y012814D02*
X003130Y012858D01*
X003130Y013186D01*
X002994Y013322D01*
X002758Y013400D02*
X002994Y013637D01*
X002758Y013164D02*
X002916Y013007D01*
X002916Y012849D01*
X002994Y012771D01*
X002994Y012456D01*
X003174Y012692D02*
X003174Y012814D01*
X002758Y013164D02*
X002758Y013400D01*
X002711Y014897D02*
X002530Y015078D01*
X002110Y015078D01*
X001930Y015258D01*
X001230Y015258D01*
X000930Y015558D01*
X000930Y022078D01*
X001230Y022358D01*
X001230Y022558D01*
X000959Y022849D01*
X000947Y022849D01*
X000947Y024038D01*
X000986Y024078D01*
X001104Y023952D02*
X001104Y022863D01*
X001350Y022618D01*
X001350Y022298D01*
X001110Y022078D01*
X001110Y019168D01*
X001120Y019158D01*
X001050Y019098D01*
X001050Y015678D01*
X001350Y015378D01*
X001990Y015378D01*
X002156Y015211D01*
X002994Y015211D01*
X002994Y014897D02*
X002711Y014897D01*
X002601Y015369D02*
X002758Y015526D01*
X002758Y015617D01*
X002904Y015763D01*
X003270Y015763D01*
X003664Y015526D01*
X003939Y015526D01*
X003939Y015763D02*
X003664Y015763D01*
X003349Y015920D01*
X002837Y015920D01*
X002601Y015684D01*
X002601Y015605D01*
X002522Y015526D01*
X002286Y015526D01*
X002128Y015684D01*
X002110Y015999D01*
X001890Y016218D01*
X001350Y016218D01*
X001290Y016278D01*
X001290Y018878D01*
X001450Y019048D01*
X001450Y019338D01*
X001390Y019398D01*
X001390Y021998D01*
X001608Y022216D01*
X001608Y022436D01*
X001690Y022518D01*
X001870Y022518D01*
X002050Y022698D01*
X002050Y023077D01*
X001716Y023428D01*
X001727Y023869D02*
X001899Y023869D01*
X002110Y023658D01*
X002110Y023178D01*
X002170Y023118D01*
X002170Y022638D01*
X001870Y022338D01*
X001470Y022238D02*
X001470Y022658D01*
X001262Y022886D01*
X001262Y023873D01*
X001341Y023952D01*
X001341Y024109D01*
X001498Y024267D01*
X001498Y024403D01*
X001419Y024482D01*
X001183Y024030D02*
X001183Y025054D01*
X001419Y025290D01*
X003309Y025290D01*
X003810Y024789D01*
X003670Y024668D01*
X003070Y019158D02*
X002781Y018869D01*
X002679Y016786D02*
X002916Y016550D01*
X003467Y016550D01*
X003545Y016471D01*
X003624Y016471D01*
X003624Y016235D02*
X003388Y016353D01*
X002797Y016353D01*
X002679Y016471D01*
X002157Y015498D02*
X002286Y015369D01*
X002601Y015369D01*
X002157Y015498D02*
X001470Y015498D01*
X001170Y015798D01*
X001170Y018938D01*
X001330Y019098D01*
X001330Y019278D01*
X001270Y019338D01*
X001270Y022058D01*
X001470Y022238D01*
X001104Y023952D02*
X001183Y024030D01*
X001727Y017869D02*
X001727Y017381D01*
X001750Y017358D01*
X001750Y017248D01*
X003624Y016235D02*
X003703Y016235D01*
X003939Y016471D01*
X003939Y016786D02*
X003939Y018616D01*
X003999Y018676D01*
X004690Y018558D02*
X004690Y016980D01*
X004884Y016786D01*
X003939Y015763D02*
X004254Y015526D01*
X003624Y013637D02*
X003742Y013479D01*
X003742Y013164D01*
X003730Y012818D01*
X003010Y010938D02*
X002950Y010878D01*
X002650Y010878D01*
X002290Y011238D01*
X001250Y011238D01*
X000950Y010938D01*
X002350Y007938D02*
X002290Y007878D01*
X002290Y007518D01*
X002050Y007278D01*
X002050Y006318D01*
X001727Y005994D01*
X001727Y005869D01*
X005750Y009778D02*
X005950Y009918D01*
X006850Y011058D02*
X006670Y011238D01*
X006850Y011058D02*
X006850Y010938D01*
X007510Y010278D02*
X007690Y010458D01*
X007870Y010458D01*
X007930Y009258D02*
X007630Y009258D01*
X007930Y009258D02*
X008050Y009138D01*
X007870Y008298D02*
X007810Y008298D01*
X007727Y007961D02*
X007727Y007869D01*
X004690Y018558D02*
X004764Y018632D01*
X004764Y018676D01*
X008050Y023545D02*
X007727Y023869D01*
X008050Y023545D02*
X008050Y021498D01*
X007870Y021318D01*
X007810Y021318D01*
D18*
X001971Y020408D03*
X001020Y022456D03*
D19*
X002897Y018618D02*
X002994Y018519D01*
X002994Y016786D01*
X003309Y016786D02*
X003309Y018519D01*
X003152Y018676D01*
X003467Y018676D02*
X003624Y018519D01*
X003624Y016786D01*
X004254Y016786D02*
X004254Y018676D01*
X004509Y018676D02*
X004569Y016786D01*
X005829Y016786D02*
X005829Y018538D01*
D20*
X000850Y005658D02*
X001070Y005438D01*
X004342Y005438D01*
X004450Y005546D01*
X004502Y005546D01*
X004630Y005438D01*
X006440Y005438D01*
X007010Y006008D01*
X000850Y005658D02*
X000850Y009258D01*
D21*
X005290Y019098D02*
X004990Y019398D01*
X004990Y020178D01*
X005830Y021018D01*
X006130Y021018D01*
X006490Y021378D01*
X006730Y021258D02*
X006430Y020958D01*
X006310Y020958D01*
X006190Y020838D01*
X005890Y020838D01*
X005170Y020118D01*
X005170Y019458D01*
X005470Y019158D01*
X005470Y018078D01*
X005530Y018018D01*
X005530Y017058D01*
X005435Y016963D01*
X005435Y016314D01*
X005514Y016235D01*
X005514Y016156D01*
X005671Y016471D02*
X005593Y016550D01*
X005593Y016878D01*
X005690Y016975D01*
X005690Y018138D01*
X005630Y018198D01*
X005630Y019238D01*
X005350Y019518D01*
X005350Y020058D01*
X005950Y020658D01*
X006370Y020658D01*
X007090Y021378D01*
X006730Y021378D02*
X006730Y021258D01*
X006310Y022378D02*
X006130Y022538D01*
X005530Y022538D01*
X005510Y022518D01*
X005290Y022818D02*
X005290Y021978D01*
X005050Y021678D01*
X005050Y021158D01*
X004890Y020998D01*
X004730Y021658D02*
X004275Y021658D01*
X004050Y021433D01*
X003730Y021438D02*
X004050Y020958D01*
X003730Y021438D02*
X003730Y021798D01*
X003790Y021858D01*
X004570Y021858D01*
X004750Y021998D02*
X004630Y022098D01*
X004210Y022098D01*
X004150Y022038D01*
X003730Y022038D01*
X003550Y021858D01*
X003370Y021858D01*
X003010Y021498D01*
X002590Y021498D01*
X003250Y022338D02*
X003790Y022878D01*
X004090Y022878D01*
X004210Y022758D01*
X004210Y022518D01*
X004450Y022278D01*
X004690Y022278D01*
X004750Y022218D01*
X004850Y022218D01*
X004750Y021998D02*
X004990Y021998D01*
X005110Y022098D01*
X005110Y022278D01*
X005050Y022338D01*
X005050Y022798D01*
X004930Y022918D01*
X004950Y022938D01*
X005150Y022938D01*
X005630Y023418D01*
X006010Y023538D02*
X005290Y022818D01*
X004930Y022818D02*
X004930Y022918D01*
X004690Y023258D02*
X004380Y022928D01*
X004380Y022868D01*
X004870Y021798D02*
X004730Y021658D01*
X003970Y022638D02*
X003430Y022098D01*
X005370Y017138D02*
X005278Y017045D01*
X005278Y016314D01*
X005199Y016235D01*
X005199Y016156D01*
X005370Y017138D02*
X005370Y017838D01*
X005290Y017918D01*
X005290Y019098D01*
X005671Y016471D02*
X005829Y016471D01*
X006010Y023538D02*
X006130Y023538D01*
X006250Y023658D01*
M02*
