G75*
%MOIN*%
%OFA0B0*%
%FSLAX24Y24*%
%IPPOS*%
%LPD*%
%AMOC8*
5,1,8,0,0,1.08239X$1,22.5*
%
%ADD10C,0.0600*%
%ADD11C,0.0480*%
%ADD12C,0.0354*%
%ADD13C,0.0179*%
%ADD14C,0.0297*%
%ADD15C,0.0257*%
%ADD16C,0.0160*%
D10*
X002805Y007389D03*
X002805Y008389D03*
X003805Y008389D03*
X003805Y007389D03*
X004805Y007389D03*
X004805Y008389D03*
X005805Y008389D03*
X005805Y007389D03*
X006805Y007389D03*
X006805Y008389D03*
X003670Y023668D03*
X003670Y024668D03*
X002670Y024768D03*
X002670Y023768D03*
X004670Y023768D03*
X004670Y024768D03*
X005750Y024438D03*
X005750Y025438D03*
X006750Y025438D03*
X006750Y024438D03*
D11*
X007727Y024869D03*
X007727Y023869D03*
X007727Y022869D03*
X007727Y021869D03*
X007727Y020869D03*
X007727Y019869D03*
X007727Y018869D03*
X007727Y017869D03*
X007727Y016869D03*
X007727Y015869D03*
X007727Y014869D03*
X007727Y013869D03*
X007727Y012869D03*
X007727Y011869D03*
X007727Y010869D03*
X007727Y009869D03*
X007727Y008869D03*
X007727Y007869D03*
X007727Y006869D03*
X007727Y005869D03*
X001727Y005869D03*
X001727Y006869D03*
X001727Y007869D03*
X001727Y008869D03*
X001727Y009869D03*
X001727Y010869D03*
X001727Y011869D03*
X001727Y012869D03*
X001727Y013869D03*
X001727Y014869D03*
X001727Y015869D03*
X001727Y016869D03*
X001727Y017869D03*
X001727Y018869D03*
X001727Y019869D03*
X001727Y020869D03*
X001727Y021869D03*
X001727Y022869D03*
X001727Y023869D03*
X001727Y024869D03*
D12*
X001090Y014778D03*
X000970Y009506D03*
X001202Y006291D03*
X004450Y005546D03*
D13*
X003782Y006471D03*
X003310Y005826D03*
X002789Y006798D03*
X002350Y007938D03*
X003010Y010938D03*
X002994Y012456D03*
X002820Y012669D03*
X002994Y013322D03*
X002994Y013637D03*
X003309Y013637D03*
X003309Y013322D03*
X003310Y012977D03*
X003174Y012692D03*
X003610Y012498D03*
X003730Y012818D03*
X003939Y013322D03*
X004254Y013322D03*
X004254Y013637D03*
X004254Y013007D03*
X004450Y012378D03*
X004569Y013322D03*
X004569Y013637D03*
X004884Y013637D03*
X005199Y013637D03*
X005199Y013322D03*
X005199Y013007D03*
X005470Y012968D03*
X005514Y013637D03*
X005514Y013952D03*
X005514Y014267D03*
X005829Y013637D03*
X005960Y012943D03*
X006144Y013322D03*
X006144Y013637D03*
X006144Y013952D03*
X006459Y013952D03*
X006459Y014267D03*
X006459Y014582D03*
X006459Y015211D03*
X006144Y014897D03*
X006144Y015526D03*
X005829Y015211D03*
X005829Y015841D03*
X005829Y016156D03*
X005829Y016471D03*
X005829Y016786D03*
X005514Y016156D03*
X005199Y016156D03*
X004884Y016471D03*
X004884Y016786D03*
X004569Y016786D03*
X004254Y016786D03*
X003939Y016786D03*
X003939Y016471D03*
X003939Y016156D03*
X004254Y015841D03*
X004254Y015526D03*
X004254Y015211D03*
X003939Y015526D03*
X003624Y015211D03*
X003624Y014582D03*
X003939Y014267D03*
X003624Y013952D03*
X003624Y013637D03*
X003309Y014582D03*
X003309Y014897D03*
X003309Y015526D03*
X002994Y015526D03*
X002994Y015211D03*
X002994Y014897D03*
X003309Y016156D03*
X003309Y016786D03*
X002994Y016786D03*
X002739Y017266D03*
X002679Y016786D03*
X002679Y016471D03*
X002897Y018618D03*
X003152Y018676D03*
X003070Y019158D03*
X002781Y018869D03*
X002507Y020298D03*
X002590Y021498D03*
X002729Y022098D03*
X002530Y022878D03*
X001870Y022338D03*
X001716Y023428D03*
X001419Y024482D03*
X000986Y024078D03*
X001120Y019158D03*
X001750Y017248D03*
X003430Y022098D03*
X003610Y022998D03*
X003970Y022638D03*
X004050Y021433D03*
X004050Y020958D03*
X003790Y019798D03*
X003730Y018678D03*
X003467Y018676D03*
X003999Y018676D03*
X004254Y018676D03*
X004509Y018676D03*
X004764Y018676D03*
X005154Y017356D03*
X005829Y018538D03*
X006084Y018538D03*
X006339Y018538D03*
X006414Y017446D03*
X006459Y016786D03*
X006459Y016471D03*
X006144Y016786D03*
X006790Y014898D03*
X006790Y014598D03*
X006790Y013948D03*
X006774Y013322D03*
X006430Y012968D03*
X005890Y011196D03*
X006190Y010998D03*
X006370Y010698D03*
X006550Y010998D03*
X006850Y010938D03*
X006930Y009918D03*
X007510Y010278D03*
X007630Y009258D03*
X008050Y009138D03*
X007810Y008298D03*
X007516Y007258D03*
X007010Y006798D03*
X006710Y006778D03*
X005950Y009918D03*
X005580Y012368D03*
X005710Y012938D03*
X004930Y012456D03*
X004810Y011178D03*
X004170Y011218D03*
X003930Y011218D03*
X004140Y010015D03*
X004884Y014897D03*
X005199Y015211D03*
X003624Y016471D03*
X003624Y016786D03*
X004890Y020998D03*
X004870Y021798D03*
X004850Y022218D03*
X004930Y022918D03*
X004690Y023258D03*
X004380Y022868D03*
X004570Y021858D03*
X005510Y022518D03*
X005700Y021728D03*
X006135Y022192D03*
X006310Y022378D03*
X006490Y021378D03*
X006730Y021378D03*
X007090Y021378D03*
X006580Y019808D03*
X006350Y019818D03*
X006120Y019838D03*
X005530Y019638D03*
X005630Y023418D03*
X006250Y023658D03*
X007090Y019278D03*
X007330Y019098D03*
X006950Y018538D03*
X007810Y021318D03*
X008350Y020418D03*
X008230Y019578D03*
X007510Y014298D03*
X007930Y012518D03*
X007640Y012368D03*
X007630Y011378D03*
X007870Y010458D03*
X000950Y010938D03*
D14*
X001050Y011418D03*
X001040Y011898D03*
X001470Y013438D03*
X002030Y014518D03*
X002110Y016338D03*
X002770Y011118D03*
X005230Y011158D03*
X005593Y010135D03*
X005356Y007858D03*
X006550Y006038D03*
X007010Y006008D03*
X004340Y021078D03*
X006024Y021518D03*
D15*
X001971Y020408D03*
X001020Y022456D03*
D16*
X000783Y009230D02*
X000783Y005441D01*
X002110Y005441D01*
X002110Y005776D01*
X002057Y005648D01*
X001947Y005538D01*
X001804Y005479D01*
X001649Y005479D01*
X001506Y005538D01*
X001396Y005648D01*
X001337Y005791D01*
X001337Y005947D01*
X001396Y006090D01*
X001506Y006200D01*
X001649Y006259D01*
X001804Y006259D01*
X001947Y006200D01*
X002057Y006090D01*
X002110Y005962D01*
X002110Y006776D01*
X002057Y006648D01*
X001947Y006538D01*
X001804Y006479D01*
X001649Y006479D01*
X001506Y006538D01*
X001396Y006648D01*
X001337Y006791D01*
X001337Y006947D01*
X001396Y007090D01*
X001506Y007200D01*
X001649Y007259D01*
X001804Y007259D01*
X001947Y007200D01*
X002057Y007090D01*
X002110Y006962D01*
X002110Y006978D01*
X002621Y006978D01*
X002550Y007007D01*
X002424Y007134D01*
X002355Y007299D01*
X002355Y007478D01*
X002424Y007644D01*
X002550Y007770D01*
X002716Y007839D01*
X002895Y007839D01*
X003060Y007770D01*
X003187Y007644D01*
X003255Y007478D01*
X003255Y007299D01*
X003187Y007134D01*
X003060Y007007D01*
X002989Y006978D01*
X003621Y006978D01*
X003550Y007007D01*
X003424Y007134D01*
X003355Y007299D01*
X003355Y007478D01*
X003424Y007644D01*
X003550Y007770D01*
X003716Y007839D01*
X003895Y007839D01*
X004060Y007770D01*
X004187Y007644D01*
X004255Y007478D01*
X004255Y007299D01*
X004187Y007134D01*
X004060Y007007D01*
X003989Y006978D01*
X004621Y006978D01*
X004550Y007007D01*
X004424Y007134D01*
X004355Y007299D01*
X004355Y007478D01*
X004424Y007644D01*
X004550Y007770D01*
X004716Y007839D01*
X004895Y007839D01*
X005060Y007770D01*
X005077Y007754D01*
X005058Y007798D01*
X005058Y007917D01*
X005103Y008027D01*
X005187Y008111D01*
X005297Y008156D01*
X005414Y008156D01*
X005355Y008299D01*
X005355Y008478D01*
X005424Y008644D01*
X005550Y008770D01*
X005716Y008839D01*
X005895Y008839D01*
X006060Y008770D01*
X006187Y008644D01*
X006255Y008478D01*
X006255Y008299D01*
X006187Y008134D01*
X006060Y008007D01*
X005895Y007939D01*
X005716Y007939D01*
X005632Y007974D01*
X005655Y007917D01*
X005655Y007813D01*
X005716Y007839D01*
X005895Y007839D01*
X006060Y007770D01*
X006187Y007644D01*
X006255Y007478D01*
X006255Y007299D01*
X006187Y007134D01*
X006060Y007007D01*
X005989Y006978D01*
X006250Y006978D01*
X006250Y005441D01*
X008473Y005441D01*
X008473Y020210D01*
X008398Y020178D01*
X008302Y020178D01*
X008214Y020215D01*
X008147Y020282D01*
X008111Y020370D01*
X008111Y020465D01*
X008147Y020553D01*
X008214Y020621D01*
X008302Y020657D01*
X008398Y020657D01*
X008473Y020626D01*
X008473Y025769D01*
X007055Y025769D01*
X007131Y025693D01*
X007200Y025527D01*
X007200Y025348D01*
X007131Y025183D01*
X007005Y025056D01*
X006840Y024988D01*
X006660Y024988D01*
X006495Y025056D01*
X006369Y025183D01*
X006300Y025348D01*
X006300Y025527D01*
X006369Y025693D01*
X006445Y025769D01*
X006098Y025769D01*
X006116Y025750D01*
X006161Y025689D01*
X006195Y025622D01*
X006218Y025550D01*
X006230Y025476D01*
X006230Y025458D01*
X005770Y025458D01*
X005770Y025418D01*
X006230Y025418D01*
X006230Y025400D01*
X006218Y025325D01*
X006195Y025254D01*
X006161Y025186D01*
X006116Y025125D01*
X006063Y025072D01*
X006002Y025027D01*
X005934Y024993D01*
X005862Y024970D01*
X005788Y024958D01*
X005770Y024958D01*
X005770Y025418D01*
X005730Y025418D01*
X005270Y025418D01*
X005270Y025400D01*
X005282Y025325D01*
X005305Y025254D01*
X005339Y025186D01*
X005384Y025125D01*
X005437Y025072D01*
X005498Y025027D01*
X005566Y024993D01*
X005638Y024970D01*
X005712Y024958D01*
X005730Y024958D01*
X005730Y025418D01*
X005730Y025458D01*
X005270Y025458D01*
X005270Y025476D01*
X005282Y025550D01*
X005305Y025622D01*
X005339Y025689D01*
X005384Y025750D01*
X005402Y025769D01*
X000783Y025769D01*
X000783Y024213D01*
X000783Y024213D01*
X000851Y024281D01*
X000939Y024317D01*
X001034Y024317D01*
X001122Y024281D01*
X001189Y024213D01*
X001226Y024125D01*
X001226Y024030D01*
X001189Y023942D01*
X001122Y023875D01*
X001034Y023838D01*
X000939Y023838D01*
X000851Y023875D01*
X000783Y023942D01*
X000783Y023943D01*
X000783Y022613D01*
X000784Y022613D01*
X000862Y022692D01*
X000965Y022734D01*
X001075Y022734D01*
X001178Y022692D01*
X001256Y022613D01*
X001299Y022511D01*
X001299Y022400D01*
X001256Y022298D01*
X001178Y022219D01*
X001075Y022177D01*
X000965Y022177D01*
X000862Y022219D01*
X000784Y022298D01*
X000783Y022299D01*
X000783Y012058D01*
X000787Y012067D01*
X000871Y012151D01*
X000981Y012196D01*
X001099Y012196D01*
X001209Y012151D01*
X001293Y012067D01*
X001338Y011957D01*
X001338Y011951D01*
X001396Y012090D01*
X001506Y012200D01*
X001649Y012259D01*
X001804Y012259D01*
X001947Y012200D01*
X002057Y012090D01*
X002117Y011947D01*
X002117Y011791D01*
X002057Y011648D01*
X001947Y011538D01*
X001804Y011479D01*
X001649Y011479D01*
X001506Y011538D01*
X001396Y011648D01*
X001337Y011791D01*
X001337Y011834D01*
X001293Y011729D01*
X001227Y011663D01*
X001303Y011587D01*
X001348Y011477D01*
X001348Y011358D01*
X001303Y011249D01*
X001219Y011165D01*
X001109Y011119D01*
X001107Y011119D01*
X001153Y011073D01*
X001189Y010985D01*
X001189Y010890D01*
X001153Y010802D01*
X001086Y010735D01*
X000998Y010698D01*
X000902Y010698D01*
X000814Y010735D01*
X000783Y010766D01*
X000783Y009782D01*
X000785Y009783D01*
X000905Y009833D01*
X001035Y009833D01*
X001155Y009783D01*
X001247Y009691D01*
X001297Y009571D01*
X001297Y009441D01*
X001247Y009321D01*
X001155Y009229D01*
X001035Y009179D01*
X000905Y009179D01*
X000785Y009229D01*
X000783Y009230D01*
X000783Y009097D02*
X001403Y009097D01*
X001396Y009090D02*
X001337Y008947D01*
X001337Y008791D01*
X001396Y008648D01*
X001506Y008538D01*
X001649Y008479D01*
X001804Y008479D01*
X001947Y008538D01*
X002057Y008648D01*
X002117Y008791D01*
X002117Y008947D01*
X002057Y009090D01*
X001947Y009200D01*
X001804Y009259D01*
X001649Y009259D01*
X001506Y009200D01*
X001396Y009090D01*
X001337Y008939D02*
X000783Y008939D01*
X000783Y008780D02*
X001341Y008780D01*
X001422Y008622D02*
X000783Y008622D01*
X000783Y008463D02*
X002355Y008463D01*
X002355Y008478D02*
X002355Y008299D01*
X002408Y008173D01*
X002398Y008177D01*
X002302Y008177D01*
X002214Y008141D01*
X002147Y008073D01*
X002111Y007985D01*
X002111Y007961D01*
X002057Y008090D01*
X001947Y008200D01*
X001804Y008259D01*
X001649Y008259D01*
X001506Y008200D01*
X001396Y008090D01*
X001337Y007947D01*
X001337Y007791D01*
X001396Y007648D01*
X001506Y007538D01*
X001649Y007479D01*
X001804Y007479D01*
X001947Y007538D01*
X002057Y007648D01*
X002117Y007791D01*
X002117Y007876D01*
X002147Y007802D01*
X002214Y007735D01*
X002302Y007698D01*
X002398Y007698D01*
X002486Y007735D01*
X002553Y007802D01*
X002589Y007890D01*
X002589Y007985D01*
X002587Y007992D01*
X002716Y007939D01*
X002895Y007939D01*
X003060Y008007D01*
X003187Y008134D01*
X003255Y008299D01*
X003255Y008478D01*
X003187Y008644D01*
X003060Y008770D01*
X002895Y008839D01*
X002716Y008839D01*
X002550Y008770D01*
X002424Y008644D01*
X002355Y008478D01*
X002415Y008622D02*
X002031Y008622D01*
X002112Y008780D02*
X002575Y008780D01*
X002355Y008305D02*
X000783Y008305D01*
X000783Y008146D02*
X001452Y008146D01*
X001354Y007988D02*
X000783Y007988D01*
X000783Y007829D02*
X001337Y007829D01*
X001386Y007671D02*
X000783Y007671D01*
X000783Y007512D02*
X001569Y007512D01*
X001501Y007195D02*
X000783Y007195D01*
X000783Y007037D02*
X001374Y007037D01*
X001337Y006878D02*
X000783Y006878D01*
X000783Y006720D02*
X001366Y006720D01*
X001483Y006561D02*
X000783Y006561D01*
X000783Y006403D02*
X002110Y006403D01*
X002110Y006561D02*
X001970Y006561D01*
X002087Y006720D02*
X002110Y006720D01*
X002079Y007037D02*
X002521Y007037D01*
X002398Y007195D02*
X001952Y007195D01*
X001885Y007512D02*
X002369Y007512D01*
X002355Y007354D02*
X000783Y007354D01*
X000783Y006244D02*
X001614Y006244D01*
X001840Y006244D02*
X002110Y006244D01*
X002110Y006086D02*
X002059Y006086D01*
X002107Y005769D02*
X002110Y005769D01*
X002110Y005610D02*
X002019Y005610D01*
X002110Y005452D02*
X000783Y005452D01*
X000783Y005610D02*
X001434Y005610D01*
X001346Y005769D02*
X000783Y005769D01*
X000783Y005927D02*
X001337Y005927D01*
X001394Y006086D02*
X000783Y006086D01*
X001182Y009256D02*
X001641Y009256D01*
X001649Y009479D02*
X001804Y009479D01*
X001947Y009538D01*
X002057Y009648D01*
X002117Y009791D01*
X002117Y009947D01*
X002057Y010090D01*
X001947Y010200D01*
X001804Y010259D01*
X001649Y010259D01*
X001506Y010200D01*
X001396Y010090D01*
X001337Y009947D01*
X001337Y009791D01*
X001396Y009648D01*
X001506Y009538D01*
X001649Y009479D01*
X001471Y009573D02*
X001296Y009573D01*
X001286Y009414D02*
X007448Y009414D01*
X007427Y009393D02*
X007391Y009305D01*
X007391Y009210D01*
X007427Y009122D01*
X007428Y009122D01*
X007396Y009090D01*
X007337Y008947D01*
X007337Y008791D01*
X007396Y008648D01*
X007506Y008538D01*
X007649Y008479D01*
X007804Y008479D01*
X007947Y008538D01*
X008057Y008648D01*
X008117Y008791D01*
X008117Y008906D01*
X008186Y008935D01*
X008253Y009002D01*
X008289Y009090D01*
X008289Y009185D01*
X008253Y009273D01*
X008186Y009341D01*
X008098Y009377D01*
X008002Y009377D01*
X007914Y009341D01*
X007869Y009296D01*
X007869Y009305D01*
X007833Y009393D01*
X007766Y009461D01*
X007722Y009479D01*
X007804Y009479D01*
X007947Y009538D01*
X008057Y009648D01*
X008117Y009791D01*
X008117Y009947D01*
X008057Y010090D01*
X007947Y010200D01*
X007902Y010218D01*
X007918Y010218D01*
X008006Y010255D01*
X008073Y010322D01*
X008109Y010410D01*
X008109Y010505D01*
X008073Y010593D01*
X008038Y010629D01*
X008057Y010648D01*
X008117Y010791D01*
X008117Y010947D01*
X008057Y011090D01*
X007947Y011200D01*
X007804Y011259D01*
X007649Y011259D01*
X007506Y011200D01*
X007396Y011090D01*
X007337Y010947D01*
X007337Y010791D01*
X007396Y010648D01*
X007506Y010538D01*
X007557Y010517D01*
X007462Y010517D01*
X007374Y010481D01*
X007307Y010413D01*
X007271Y010325D01*
X007271Y010230D01*
X007307Y010142D01*
X007374Y010075D01*
X007387Y010069D01*
X007337Y009947D01*
X007337Y009791D01*
X007396Y009648D01*
X007506Y009538D01*
X007605Y009497D01*
X007582Y009497D01*
X007494Y009461D01*
X007427Y009393D01*
X007391Y009256D02*
X001812Y009256D01*
X001982Y009573D02*
X007471Y009573D01*
X007361Y009731D02*
X002092Y009731D01*
X002117Y009890D02*
X005415Y009890D01*
X005424Y009882D02*
X005533Y009836D01*
X005652Y009836D01*
X005762Y009882D01*
X005846Y009966D01*
X005891Y010075D01*
X005891Y010194D01*
X005846Y010304D01*
X005762Y010388D01*
X005652Y010433D01*
X005533Y010433D01*
X005424Y010388D01*
X005340Y010304D01*
X005294Y010194D01*
X005294Y010075D01*
X005340Y009966D01*
X005424Y009882D01*
X005305Y010048D02*
X002074Y010048D01*
X001930Y010207D02*
X005300Y010207D01*
X005401Y010365D02*
X000783Y010365D01*
X000783Y010207D02*
X001523Y010207D01*
X001649Y010479D02*
X001506Y010538D01*
X001396Y010648D01*
X001337Y010791D01*
X001337Y010947D01*
X001396Y011090D01*
X001506Y011200D01*
X001649Y011259D01*
X001804Y011259D01*
X001947Y011200D01*
X002057Y011090D01*
X002117Y010947D01*
X002117Y010791D01*
X002057Y010648D01*
X001947Y010538D01*
X001804Y010479D01*
X001649Y010479D01*
X001541Y010524D02*
X000783Y010524D01*
X000783Y010682D02*
X001382Y010682D01*
X001337Y010841D02*
X001169Y010841D01*
X001184Y010999D02*
X001358Y010999D01*
X001464Y011158D02*
X001202Y011158D01*
X001331Y011316D02*
X002546Y011316D01*
X002517Y011287D02*
X002472Y011177D01*
X002472Y011058D01*
X002517Y010949D01*
X002601Y010865D01*
X002711Y010819D01*
X002800Y010819D01*
X002807Y010802D01*
X002874Y010735D01*
X002962Y010698D01*
X003058Y010698D01*
X003146Y010735D01*
X003213Y010802D01*
X003249Y010890D01*
X003249Y010985D01*
X003213Y011073D01*
X003146Y011141D01*
X003068Y011173D01*
X003068Y011177D01*
X003023Y011287D01*
X002939Y011371D01*
X002829Y011416D01*
X002711Y011416D01*
X002601Y011371D01*
X002517Y011287D01*
X002472Y011158D02*
X001989Y011158D01*
X002095Y010999D02*
X002496Y010999D01*
X002659Y010841D02*
X002117Y010841D01*
X002071Y010682D02*
X006131Y010682D01*
X006131Y010650D02*
X006167Y010562D01*
X006234Y010495D01*
X006322Y010458D01*
X006418Y010458D01*
X006506Y010495D01*
X006573Y010562D01*
X006609Y010650D01*
X006609Y010745D01*
X006603Y010761D01*
X006664Y010786D01*
X006714Y010735D01*
X006802Y010698D01*
X006898Y010698D01*
X006986Y010735D01*
X007053Y010802D01*
X007089Y010890D01*
X007089Y010985D01*
X007053Y011073D01*
X006986Y011141D01*
X006898Y011177D01*
X006802Y011177D01*
X006736Y011150D01*
X006686Y011201D01*
X006598Y011237D01*
X006502Y011237D01*
X006414Y011201D01*
X006370Y011156D01*
X006326Y011201D01*
X006238Y011237D01*
X006142Y011237D01*
X006054Y011201D01*
X005987Y011133D01*
X005951Y011045D01*
X005951Y010950D01*
X005987Y010862D01*
X006054Y010795D01*
X006137Y010761D01*
X006131Y010745D01*
X006131Y010650D01*
X006205Y010524D02*
X001912Y010524D01*
X002042Y011633D02*
X007411Y011633D01*
X007396Y011648D02*
X007506Y011538D01*
X007649Y011479D01*
X007804Y011479D01*
X007947Y011538D01*
X008057Y011648D01*
X008117Y011791D01*
X008117Y011947D01*
X008057Y012090D01*
X007947Y012200D01*
X007847Y012241D01*
X007865Y012286D01*
X007882Y012278D01*
X007978Y012278D01*
X008066Y012315D01*
X008133Y012382D01*
X008169Y012470D01*
X008169Y012565D01*
X008133Y012653D01*
X008081Y012705D01*
X008117Y012791D01*
X008117Y012947D01*
X008057Y013090D01*
X007947Y013200D01*
X007804Y013259D01*
X007649Y013259D01*
X007506Y013200D01*
X007396Y013090D01*
X007337Y012947D01*
X007337Y012791D01*
X007396Y012648D01*
X007489Y012555D01*
X007437Y012503D01*
X007401Y012415D01*
X007401Y012320D01*
X007437Y012232D01*
X007488Y012182D01*
X007396Y012090D01*
X007337Y011947D01*
X007337Y011791D01*
X007396Y011648D01*
X007337Y011792D02*
X002117Y011792D01*
X002115Y011950D02*
X007338Y011950D01*
X007415Y012109D02*
X002038Y012109D01*
X001804Y012479D02*
X001947Y012538D01*
X002057Y012648D01*
X002117Y012791D01*
X002117Y012947D01*
X002057Y013090D01*
X001947Y013200D01*
X001804Y013259D01*
X001713Y013259D01*
X001723Y013269D01*
X001768Y013378D01*
X001768Y013479D01*
X001804Y013479D01*
X001947Y013538D01*
X002057Y013648D01*
X002117Y013791D01*
X002117Y013947D01*
X002057Y014090D01*
X001947Y014200D01*
X001804Y014259D01*
X001649Y014259D01*
X001506Y014200D01*
X001396Y014090D01*
X001337Y013947D01*
X001337Y013791D01*
X001367Y013718D01*
X001301Y013691D01*
X001217Y013607D01*
X001172Y013497D01*
X001172Y013378D01*
X001217Y013269D01*
X001301Y013185D01*
X001411Y013139D01*
X001445Y013139D01*
X001396Y013090D01*
X001337Y012947D01*
X001337Y012791D01*
X001396Y012648D01*
X001506Y012538D01*
X001649Y012479D01*
X001804Y012479D01*
X001993Y012584D02*
X002788Y012584D01*
X002791Y012591D02*
X002755Y012503D01*
X002755Y012408D01*
X002791Y012320D01*
X002859Y012253D01*
X002947Y012216D01*
X003042Y012216D01*
X003130Y012253D01*
X003197Y012320D01*
X003234Y012408D01*
X003234Y012457D01*
X003310Y012489D01*
X003374Y012553D01*
X003371Y012545D01*
X003371Y012450D01*
X003407Y012362D01*
X003474Y012295D01*
X003562Y012258D01*
X003658Y012258D01*
X003746Y012295D01*
X003813Y012362D01*
X003849Y012450D01*
X003849Y012545D01*
X003827Y012599D01*
X003866Y012615D01*
X003933Y012682D01*
X003969Y012770D01*
X003969Y012865D01*
X003933Y012953D01*
X003866Y013021D01*
X003778Y013057D01*
X003682Y013057D01*
X003594Y013021D01*
X003549Y012976D01*
X003549Y013024D01*
X003513Y013112D01*
X003476Y013150D01*
X003512Y013186D01*
X003549Y013274D01*
X003549Y013369D01*
X003529Y013417D01*
X003577Y013397D01*
X003672Y013397D01*
X003720Y013417D01*
X003700Y013369D01*
X003700Y013274D01*
X003736Y013186D01*
X003804Y013119D01*
X003892Y013082D01*
X003987Y013082D01*
X004035Y013102D01*
X004015Y013054D01*
X004015Y012959D01*
X004051Y012871D01*
X004119Y012804D01*
X004206Y012767D01*
X004302Y012767D01*
X004390Y012804D01*
X004457Y012871D01*
X004493Y012959D01*
X004493Y013054D01*
X004474Y013102D01*
X004521Y013082D01*
X004617Y013082D01*
X004705Y013119D01*
X004772Y013186D01*
X004808Y013274D01*
X004808Y013369D01*
X004789Y013417D01*
X004836Y013397D01*
X004932Y013397D01*
X004979Y013417D01*
X004960Y013369D01*
X004960Y013274D01*
X004996Y013186D01*
X005018Y013164D01*
X004996Y013142D01*
X004960Y013054D01*
X004960Y012959D01*
X004996Y012871D01*
X005063Y012804D01*
X005151Y012767D01*
X005247Y012767D01*
X005307Y012792D01*
X005334Y012765D01*
X005422Y012728D01*
X005518Y012728D01*
X005562Y012747D01*
X005574Y012735D01*
X005662Y012698D01*
X005758Y012698D01*
X005841Y012733D01*
X005912Y012703D01*
X006008Y012703D01*
X006096Y012740D01*
X006163Y012807D01*
X006199Y012895D01*
X006199Y012899D01*
X006227Y012832D01*
X006294Y012765D01*
X006382Y012728D01*
X006478Y012728D01*
X006566Y012765D01*
X006633Y012832D01*
X006669Y012920D01*
X006669Y013015D01*
X006633Y013103D01*
X006566Y013171D01*
X006478Y013207D01*
X006382Y013207D01*
X006350Y013194D01*
X006383Y013274D01*
X006383Y013369D01*
X006347Y013457D01*
X006325Y013479D01*
X006347Y013501D01*
X006383Y013589D01*
X006383Y013684D01*
X006363Y013732D01*
X006411Y013712D01*
X006506Y013712D01*
X006594Y013749D01*
X006622Y013777D01*
X006654Y013745D01*
X006742Y013708D01*
X006838Y013708D01*
X006926Y013745D01*
X006993Y013812D01*
X007029Y013900D01*
X007029Y013995D01*
X006993Y014083D01*
X006926Y014151D01*
X006838Y014187D01*
X006742Y014187D01*
X006673Y014158D01*
X006698Y014219D01*
X006698Y014314D01*
X006667Y014390D01*
X006742Y014358D01*
X006838Y014358D01*
X006926Y014395D01*
X006993Y014462D01*
X007029Y014550D01*
X007029Y014645D01*
X007399Y014645D01*
X007396Y014648D02*
X007506Y014538D01*
X007508Y014537D01*
X007462Y014537D01*
X007374Y014501D01*
X007307Y014433D01*
X007271Y014345D01*
X007271Y014250D01*
X007307Y014162D01*
X007374Y014095D01*
X007395Y014087D01*
X007337Y013947D01*
X007337Y013791D01*
X007396Y013648D01*
X007506Y013538D01*
X007649Y013479D01*
X007804Y013479D01*
X007947Y013538D01*
X008057Y013648D01*
X008117Y013791D01*
X008117Y013947D01*
X008057Y014090D01*
X007947Y014200D01*
X007804Y014259D01*
X007749Y014259D01*
X007749Y014345D01*
X007713Y014433D01*
X007667Y014479D01*
X007804Y014479D01*
X007947Y014538D01*
X008057Y014648D01*
X008117Y014791D01*
X008117Y014947D01*
X008057Y015090D01*
X007947Y015200D01*
X007804Y015259D01*
X007649Y015259D01*
X007506Y015200D01*
X007396Y015090D01*
X007337Y014947D01*
X007337Y014791D01*
X007396Y014648D01*
X007360Y014486D02*
X007003Y014486D01*
X007029Y014645D02*
X006993Y014733D01*
X006979Y014748D01*
X006993Y014762D01*
X007029Y014850D01*
X007029Y014945D01*
X006993Y015033D01*
X006926Y015101D01*
X006838Y015137D01*
X006742Y015137D01*
X006676Y015109D01*
X006698Y015164D01*
X006698Y015259D01*
X006662Y015347D01*
X006594Y015414D01*
X006506Y015451D01*
X006411Y015451D01*
X006323Y015414D01*
X006256Y015347D01*
X006219Y015259D01*
X006219Y015164D01*
X006256Y015076D01*
X006323Y015009D01*
X006411Y014972D01*
X006506Y014972D01*
X006573Y015000D01*
X006551Y014945D01*
X006551Y014850D01*
X006587Y014762D01*
X006601Y014748D01*
X006587Y014733D01*
X006551Y014645D01*
X003542Y014645D01*
X003549Y014629D02*
X003512Y014717D01*
X003490Y014739D01*
X003512Y014761D01*
X003549Y014849D01*
X003549Y014944D01*
X003529Y014992D01*
X003577Y014972D01*
X003672Y014972D01*
X003760Y015009D01*
X003827Y015076D01*
X003864Y015164D01*
X003864Y015259D01*
X003844Y015307D01*
X003892Y015287D01*
X003987Y015287D01*
X004035Y015307D01*
X004015Y015259D01*
X004015Y015164D01*
X004051Y015076D01*
X004119Y015009D01*
X004206Y014972D01*
X004302Y014972D01*
X004390Y015009D01*
X004457Y015076D01*
X004493Y015164D01*
X004493Y015259D01*
X004457Y015347D01*
X004435Y015369D01*
X004457Y015391D01*
X004493Y015479D01*
X004493Y015574D01*
X004457Y015662D01*
X004390Y015729D01*
X004302Y015766D01*
X004206Y015766D01*
X004119Y015729D01*
X004097Y015707D01*
X004075Y015729D01*
X003987Y015766D01*
X003892Y015766D01*
X003804Y015729D01*
X003736Y015662D01*
X003700Y015574D01*
X003700Y015479D01*
X003720Y015431D01*
X003672Y015451D01*
X003577Y015451D01*
X003489Y015414D01*
X003421Y015347D01*
X003385Y015259D01*
X003385Y015164D01*
X003405Y015116D01*
X003357Y015136D01*
X003262Y015136D01*
X003214Y015116D01*
X003234Y015164D01*
X003234Y015259D01*
X003197Y015347D01*
X003175Y015369D01*
X003197Y015391D01*
X003234Y015479D01*
X003234Y015574D01*
X003197Y015662D01*
X003130Y015729D01*
X003042Y015766D01*
X002947Y015766D01*
X002859Y015729D01*
X002791Y015662D01*
X002755Y015574D01*
X002755Y015479D01*
X002791Y015391D01*
X002813Y015369D01*
X002791Y015347D01*
X002755Y015259D01*
X002755Y015164D01*
X002791Y015076D01*
X002813Y015054D01*
X002791Y015032D01*
X002755Y014944D01*
X002755Y014849D01*
X002791Y014761D01*
X002859Y014694D01*
X002947Y014657D01*
X003042Y014657D01*
X003090Y014677D01*
X003070Y014629D01*
X003070Y014534D01*
X003106Y014446D01*
X003174Y014379D01*
X003262Y014342D01*
X003357Y014342D01*
X003445Y014379D01*
X003512Y014446D01*
X003549Y014534D01*
X003549Y014629D01*
X003529Y014486D02*
X005419Y014486D01*
X005378Y014470D02*
X005466Y014506D01*
X005562Y014506D01*
X005650Y014470D01*
X005717Y014402D01*
X005753Y014314D01*
X005753Y014219D01*
X005717Y014131D01*
X005650Y014064D01*
X005562Y014027D01*
X005466Y014027D01*
X005378Y014064D01*
X005311Y014131D01*
X005275Y014219D01*
X005275Y014314D01*
X005311Y014402D01*
X005378Y014470D01*
X005280Y014328D02*
X002262Y014328D01*
X002283Y014349D02*
X002328Y014458D01*
X002328Y014577D01*
X002283Y014687D01*
X002199Y014771D01*
X002117Y014805D01*
X002117Y014947D01*
X002057Y015090D01*
X001947Y015200D01*
X001804Y015259D01*
X001649Y015259D01*
X001506Y015200D01*
X001396Y015090D01*
X001337Y014947D01*
X001337Y014791D01*
X001396Y014648D01*
X001506Y014538D01*
X001649Y014479D01*
X001732Y014479D01*
X001732Y014458D01*
X001777Y014349D01*
X001861Y014265D01*
X001971Y014219D01*
X002089Y014219D01*
X002199Y014265D01*
X002283Y014349D01*
X002328Y014486D02*
X003090Y014486D01*
X003076Y014645D02*
X002300Y014645D01*
X002121Y014803D02*
X002774Y014803D01*
X002762Y014962D02*
X002110Y014962D01*
X002027Y015120D02*
X002773Y015120D01*
X002763Y015279D02*
X000783Y015279D01*
X000783Y015437D02*
X002772Y015437D01*
X002764Y015596D02*
X002005Y015596D01*
X002057Y015648D02*
X001947Y015538D01*
X001804Y015479D01*
X001649Y015479D01*
X001506Y015538D01*
X001396Y015648D01*
X001337Y015791D01*
X001337Y015947D01*
X001396Y016090D01*
X001506Y016200D01*
X001649Y016259D01*
X001804Y016259D01*
X001947Y016200D01*
X002057Y016090D01*
X002117Y015947D01*
X002117Y015791D01*
X002057Y015648D01*
X002101Y015754D02*
X002919Y015754D01*
X003070Y015754D02*
X003864Y015754D01*
X003892Y015917D02*
X003804Y015953D01*
X003736Y016021D01*
X003700Y016109D01*
X003700Y016204D01*
X003720Y016252D01*
X003672Y016232D01*
X003577Y016232D01*
X003489Y016268D01*
X003421Y016336D01*
X003385Y016424D01*
X003385Y016519D01*
X003405Y016567D01*
X003357Y016547D01*
X003262Y016547D01*
X003174Y016583D01*
X003152Y016605D01*
X003130Y016583D01*
X003042Y016547D01*
X002947Y016547D01*
X002899Y016567D01*
X002919Y016519D01*
X002919Y016424D01*
X002882Y016336D01*
X002815Y016268D01*
X002727Y016232D01*
X002632Y016232D01*
X002544Y016268D01*
X002476Y016336D01*
X002440Y016424D01*
X002440Y016519D01*
X002476Y016607D01*
X002498Y016629D01*
X002476Y016651D01*
X002440Y016739D01*
X002440Y016834D01*
X002476Y016922D01*
X002544Y016989D01*
X002632Y017026D01*
X002727Y017026D01*
X002815Y016989D01*
X002837Y016967D01*
X002859Y016989D01*
X002947Y017026D01*
X003042Y017026D01*
X003130Y016989D01*
X003152Y016967D01*
X003174Y016989D01*
X003262Y017026D01*
X003357Y017026D01*
X003445Y016989D01*
X003467Y016967D01*
X003489Y016989D01*
X003577Y017026D01*
X003672Y017026D01*
X003760Y016989D01*
X003782Y016967D01*
X003804Y016989D01*
X003892Y017026D01*
X003987Y017026D01*
X004075Y016989D01*
X004097Y016967D01*
X004119Y016989D01*
X004206Y017026D01*
X004302Y017026D01*
X004390Y016989D01*
X004412Y016967D01*
X004433Y016989D01*
X004521Y017026D01*
X004617Y017026D01*
X004705Y016989D01*
X004727Y016967D01*
X004748Y016989D01*
X004836Y017026D01*
X004932Y017026D01*
X005020Y016989D01*
X005087Y016922D01*
X005123Y016834D01*
X005123Y016739D01*
X005087Y016651D01*
X005020Y016583D01*
X004932Y016547D01*
X004836Y016547D01*
X004748Y016583D01*
X004727Y016605D01*
X004705Y016583D01*
X004617Y016547D01*
X004521Y016547D01*
X004433Y016583D01*
X004412Y016605D01*
X004390Y016583D01*
X004302Y016547D01*
X004206Y016547D01*
X004159Y016567D01*
X004179Y016519D01*
X004179Y016424D01*
X004142Y016336D01*
X004120Y016314D01*
X004142Y016292D01*
X004179Y016204D01*
X004179Y016109D01*
X004142Y016021D01*
X004075Y015953D01*
X003987Y015917D01*
X003892Y015917D01*
X003715Y016071D02*
X002065Y016071D01*
X002117Y015913D02*
X007337Y015913D01*
X007337Y015947D02*
X007337Y015791D01*
X007396Y015648D01*
X007506Y015538D01*
X007649Y015479D01*
X007804Y015479D01*
X007947Y015538D01*
X008057Y015648D01*
X008117Y015791D01*
X008117Y015947D01*
X008057Y016090D01*
X007947Y016200D01*
X007804Y016259D01*
X007649Y016259D01*
X007506Y016200D01*
X007396Y016090D01*
X007337Y015947D01*
X007388Y016071D02*
X006053Y016071D01*
X006068Y016109D02*
X006068Y016204D01*
X006032Y016292D01*
X006010Y016314D01*
X006032Y016336D01*
X006068Y016424D01*
X006068Y016519D01*
X006048Y016567D01*
X006096Y016547D01*
X006191Y016547D01*
X006239Y016567D01*
X006219Y016519D01*
X006219Y016424D01*
X006256Y016336D01*
X006323Y016268D01*
X006411Y016232D01*
X006506Y016232D01*
X006594Y016268D01*
X006662Y016336D01*
X006698Y016424D01*
X006698Y016519D01*
X006662Y016607D01*
X006640Y016629D01*
X006662Y016651D01*
X006698Y016739D01*
X006698Y016834D01*
X006662Y016922D01*
X006594Y016989D01*
X006506Y017026D01*
X006411Y017026D01*
X006323Y016989D01*
X006301Y016967D01*
X006279Y016989D01*
X006191Y017026D01*
X006096Y017026D01*
X006008Y016989D01*
X005986Y016967D01*
X005964Y016989D01*
X005877Y017026D01*
X005781Y017026D01*
X005693Y016989D01*
X005626Y016922D01*
X005590Y016834D01*
X005590Y016739D01*
X005626Y016651D01*
X005648Y016629D01*
X005626Y016607D01*
X005590Y016519D01*
X005590Y016424D01*
X005609Y016376D01*
X005562Y016396D01*
X005466Y016396D01*
X005378Y016359D01*
X005356Y016337D01*
X005335Y016359D01*
X005247Y016396D01*
X005151Y016396D01*
X005063Y016359D01*
X004996Y016292D01*
X004960Y016204D01*
X004960Y016109D01*
X004996Y016021D01*
X005063Y015953D01*
X005151Y015917D01*
X005247Y015917D01*
X005335Y015953D01*
X005356Y015975D01*
X005378Y015953D01*
X005466Y015917D01*
X005562Y015917D01*
X005650Y015953D01*
X005671Y015975D01*
X005693Y015953D01*
X005781Y015917D01*
X005877Y015917D01*
X005964Y015953D01*
X006032Y016021D01*
X006068Y016109D01*
X006058Y016230D02*
X007579Y016230D01*
X007649Y016479D02*
X007506Y016538D01*
X007396Y016648D01*
X007337Y016791D01*
X007337Y016947D01*
X007396Y017090D01*
X007506Y017200D01*
X007649Y017259D01*
X007804Y017259D01*
X007947Y017200D01*
X008057Y017090D01*
X008117Y016947D01*
X008117Y016791D01*
X008057Y016648D01*
X007947Y016538D01*
X007804Y016479D01*
X007649Y016479D01*
X007497Y016547D02*
X006687Y016547D01*
X006684Y016705D02*
X007372Y016705D01*
X007337Y016864D02*
X006686Y016864D01*
X006684Y016388D02*
X008473Y016388D01*
X008473Y016230D02*
X007875Y016230D01*
X007956Y016547D02*
X008473Y016547D01*
X008473Y016705D02*
X008081Y016705D01*
X008117Y016864D02*
X008473Y016864D01*
X008473Y017022D02*
X008085Y017022D01*
X007966Y017181D02*
X008473Y017181D01*
X008473Y017339D02*
X001971Y017339D01*
X001989Y017295D02*
X001953Y017383D01*
X001886Y017451D01*
X001811Y017482D01*
X001947Y017538D01*
X002057Y017648D01*
X002117Y017791D01*
X002117Y017947D01*
X002057Y018090D01*
X001947Y018200D01*
X001804Y018259D01*
X001649Y018259D01*
X001506Y018200D01*
X001396Y018090D01*
X001337Y017947D01*
X001337Y017791D01*
X001396Y017648D01*
X001506Y017538D01*
X001649Y017479D01*
X001683Y017479D01*
X001614Y017451D01*
X001547Y017383D01*
X001511Y017295D01*
X001511Y017202D01*
X001506Y017200D01*
X001396Y017090D01*
X001337Y016947D01*
X001337Y016791D01*
X001396Y016648D01*
X001506Y016538D01*
X001649Y016479D01*
X001804Y016479D01*
X001947Y016538D01*
X002057Y016648D01*
X002117Y016791D01*
X002117Y016947D01*
X002057Y017090D01*
X001977Y017170D01*
X001989Y017200D01*
X001989Y017295D01*
X001981Y017181D02*
X007487Y017181D01*
X007368Y017022D02*
X006515Y017022D01*
X006403Y017022D02*
X006200Y017022D01*
X006088Y017022D02*
X005885Y017022D01*
X005773Y017022D02*
X004940Y017022D01*
X004828Y017022D02*
X004625Y017022D01*
X004513Y017022D02*
X004310Y017022D01*
X004198Y017022D02*
X003995Y017022D01*
X003883Y017022D02*
X003680Y017022D01*
X003568Y017022D02*
X003365Y017022D01*
X003254Y017022D02*
X003050Y017022D01*
X002939Y017022D02*
X002735Y017022D01*
X002624Y017022D02*
X002085Y017022D01*
X002117Y016864D02*
X002452Y016864D01*
X002454Y016705D02*
X002081Y016705D01*
X001956Y016547D02*
X002451Y016547D01*
X002455Y016388D02*
X000783Y016388D01*
X000783Y016230D02*
X001579Y016230D01*
X001497Y016547D02*
X000783Y016547D01*
X000783Y016705D02*
X001372Y016705D01*
X001337Y016864D02*
X000783Y016864D01*
X000783Y017022D02*
X001368Y017022D01*
X001487Y017181D02*
X000783Y017181D01*
X000783Y017339D02*
X001529Y017339D01*
X001603Y017498D02*
X000783Y017498D01*
X000783Y017656D02*
X001392Y017656D01*
X001337Y017815D02*
X000783Y017815D01*
X000783Y017973D02*
X001348Y017973D01*
X001438Y018132D02*
X000783Y018132D01*
X000783Y018290D02*
X008473Y018290D01*
X008473Y018132D02*
X008015Y018132D01*
X008057Y018090D02*
X007947Y018200D01*
X007804Y018259D01*
X007649Y018259D01*
X007506Y018200D01*
X007396Y018090D01*
X007337Y017947D01*
X007337Y017791D01*
X007396Y017648D01*
X007506Y017538D01*
X007649Y017479D01*
X007804Y017479D01*
X007947Y017538D01*
X008057Y017648D01*
X008117Y017791D01*
X008117Y017947D01*
X008057Y018090D01*
X008105Y017973D02*
X008473Y017973D01*
X008473Y017815D02*
X008117Y017815D01*
X008061Y017656D02*
X008473Y017656D01*
X008473Y017498D02*
X007850Y017498D01*
X007603Y017498D02*
X001850Y017498D01*
X002015Y018132D02*
X007438Y018132D01*
X007348Y017973D02*
X002105Y017973D01*
X002117Y017815D02*
X007337Y017815D01*
X007392Y017656D02*
X002061Y017656D01*
X001804Y018479D02*
X001947Y018538D01*
X002057Y018648D01*
X002117Y018791D01*
X002117Y018947D01*
X002057Y019090D01*
X001947Y019200D01*
X001804Y019259D01*
X001649Y019259D01*
X001506Y019200D01*
X001396Y019090D01*
X001337Y018947D01*
X001337Y018791D01*
X001396Y018648D01*
X001506Y018538D01*
X001649Y018479D01*
X001804Y018479D01*
X002016Y018607D02*
X002657Y018607D01*
X002657Y018570D02*
X002694Y018482D01*
X002761Y018415D01*
X002849Y018378D01*
X002944Y018378D01*
X003032Y018415D01*
X003069Y018451D01*
X003104Y018437D01*
X003199Y018437D01*
X003287Y018473D01*
X003309Y018495D01*
X003331Y018473D01*
X003419Y018437D01*
X003514Y018437D01*
X003602Y018473D01*
X003670Y018540D01*
X003706Y018628D01*
X003706Y018724D01*
X003670Y018812D01*
X003602Y018879D01*
X003514Y018915D01*
X003419Y018915D01*
X003331Y018879D01*
X003309Y018857D01*
X003287Y018879D01*
X003199Y018915D01*
X003104Y018915D01*
X003021Y018881D01*
X003021Y018917D01*
X003019Y018920D01*
X003022Y018918D01*
X003118Y018918D01*
X003206Y018955D01*
X003273Y019022D01*
X003309Y019110D01*
X003309Y019205D01*
X003273Y019293D01*
X003206Y019361D01*
X003118Y019397D01*
X003022Y019397D01*
X002934Y019361D01*
X002867Y019293D01*
X002831Y019205D01*
X002831Y019110D01*
X002832Y019107D01*
X002829Y019108D01*
X002734Y019108D01*
X002646Y019072D01*
X002578Y019005D01*
X002542Y018917D01*
X002542Y018821D01*
X002578Y018733D01*
X002646Y018666D01*
X002657Y018661D01*
X002657Y018570D01*
X002727Y018449D02*
X000783Y018449D01*
X000783Y018607D02*
X001437Y018607D01*
X001347Y018766D02*
X000783Y018766D01*
X000783Y018924D02*
X001058Y018924D01*
X001072Y018918D02*
X001168Y018918D01*
X001256Y018955D01*
X001323Y019022D01*
X001359Y019110D01*
X001359Y019205D01*
X001323Y019293D01*
X001256Y019361D01*
X001168Y019397D01*
X001072Y019397D01*
X000984Y019361D01*
X000917Y019293D01*
X000881Y019205D01*
X000881Y019110D01*
X000917Y019022D01*
X000984Y018955D01*
X001072Y018918D01*
X001182Y018924D02*
X001337Y018924D01*
X001348Y019083D02*
X001393Y019083D01*
X001344Y019241D02*
X001606Y019241D01*
X001649Y019479D02*
X001804Y019479D01*
X001947Y019538D01*
X002057Y019648D01*
X002117Y019791D01*
X002117Y019947D01*
X002057Y020090D01*
X001947Y020200D01*
X001804Y020259D01*
X001649Y020259D01*
X001506Y020200D01*
X001396Y020090D01*
X001337Y019947D01*
X001337Y019791D01*
X001396Y019648D01*
X001506Y019538D01*
X001649Y019479D01*
X001486Y019558D02*
X000783Y019558D01*
X000783Y019400D02*
X006881Y019400D01*
X006887Y019413D02*
X006851Y019325D01*
X006851Y019230D01*
X006887Y019142D01*
X006954Y019075D01*
X007042Y019038D01*
X007095Y019038D01*
X007127Y018962D01*
X007194Y018895D01*
X007282Y018858D01*
X007337Y018858D01*
X007337Y018791D01*
X007396Y018648D01*
X007506Y018538D01*
X007649Y018479D01*
X007804Y018479D01*
X007947Y018538D01*
X008057Y018648D01*
X008117Y018791D01*
X008117Y018947D01*
X008057Y019090D01*
X007947Y019200D01*
X007804Y019259D01*
X007649Y019259D01*
X007541Y019214D01*
X007533Y019233D01*
X007466Y019301D01*
X007378Y019337D01*
X007324Y019337D01*
X007293Y019413D01*
X007226Y019481D01*
X007138Y019517D01*
X007042Y019517D01*
X006954Y019481D01*
X006887Y019413D01*
X006851Y019241D02*
X003294Y019241D01*
X003298Y019083D02*
X006946Y019083D01*
X006902Y018777D02*
X006814Y018741D01*
X006747Y018673D01*
X006711Y018585D01*
X006711Y018490D01*
X006747Y018402D01*
X006814Y018335D01*
X006902Y018298D01*
X006998Y018298D01*
X007086Y018335D01*
X007153Y018402D01*
X007189Y018490D01*
X007189Y018585D01*
X007153Y018673D01*
X007086Y018741D01*
X006998Y018777D01*
X006902Y018777D01*
X006875Y018766D02*
X006414Y018766D01*
X006386Y018777D02*
X006474Y018741D01*
X006542Y018673D01*
X006578Y018585D01*
X006578Y018490D01*
X006542Y018402D01*
X006474Y018335D01*
X006386Y018298D01*
X006291Y018298D01*
X006211Y018331D01*
X006131Y018298D01*
X006036Y018298D01*
X005956Y018331D01*
X005877Y018298D01*
X005781Y018298D01*
X005693Y018335D01*
X005626Y018402D01*
X005590Y018490D01*
X005590Y018585D01*
X005626Y018673D01*
X005693Y018741D01*
X005781Y018777D01*
X005877Y018777D01*
X005956Y018744D01*
X006036Y018777D01*
X006131Y018777D01*
X006211Y018744D01*
X006291Y018777D01*
X006386Y018777D01*
X006264Y018766D02*
X006159Y018766D01*
X006009Y018766D02*
X005904Y018766D01*
X005754Y018766D02*
X004986Y018766D01*
X005003Y018724D02*
X004967Y018812D01*
X004900Y018879D01*
X004812Y018915D01*
X004716Y018915D01*
X004637Y018882D01*
X004557Y018915D01*
X004461Y018915D01*
X004382Y018882D01*
X004302Y018915D01*
X004206Y018915D01*
X004127Y018882D01*
X004047Y018915D01*
X003952Y018915D01*
X003864Y018879D01*
X003796Y018812D01*
X003760Y018724D01*
X003760Y018628D01*
X003796Y018540D01*
X003864Y018473D01*
X003952Y018437D01*
X004047Y018437D01*
X004127Y018470D01*
X004206Y018437D01*
X004302Y018437D01*
X004382Y018470D01*
X004461Y018437D01*
X004557Y018437D01*
X004637Y018470D01*
X004716Y018437D01*
X004812Y018437D01*
X004900Y018473D01*
X004967Y018540D01*
X005003Y018628D01*
X005003Y018724D01*
X004995Y018607D02*
X005599Y018607D01*
X005607Y018449D02*
X004841Y018449D01*
X004687Y018449D02*
X004586Y018449D01*
X004432Y018449D02*
X004331Y018449D01*
X004177Y018449D02*
X004076Y018449D01*
X003922Y018449D02*
X003544Y018449D01*
X003697Y018607D02*
X003769Y018607D01*
X003777Y018766D02*
X003689Y018766D01*
X003390Y018449D02*
X003229Y018449D01*
X003075Y018449D02*
X003066Y018449D01*
X003132Y018924D02*
X007165Y018924D01*
X007180Y018607D02*
X007437Y018607D01*
X007347Y018766D02*
X007025Y018766D01*
X007172Y018449D02*
X008473Y018449D01*
X008473Y018607D02*
X008016Y018607D01*
X008106Y018766D02*
X008473Y018766D01*
X008473Y018924D02*
X008117Y018924D01*
X008060Y019083D02*
X008473Y019083D01*
X008473Y019241D02*
X007847Y019241D01*
X007804Y019479D02*
X007947Y019538D01*
X007991Y019581D01*
X007991Y019530D01*
X008027Y019442D01*
X008094Y019375D01*
X008182Y019338D01*
X008278Y019338D01*
X008366Y019375D01*
X008433Y019442D01*
X008469Y019530D01*
X008469Y019625D01*
X008433Y019713D01*
X008366Y019781D01*
X008278Y019817D01*
X008182Y019817D01*
X008116Y019790D01*
X008117Y019791D01*
X008117Y019947D01*
X008057Y020090D01*
X007947Y020200D01*
X007804Y020259D01*
X007649Y020259D01*
X007506Y020200D01*
X007396Y020090D01*
X007337Y019947D01*
X007337Y019791D01*
X007396Y019648D01*
X007506Y019538D01*
X007649Y019479D01*
X007804Y019479D01*
X007967Y019558D02*
X007991Y019558D01*
X008069Y019400D02*
X007299Y019400D01*
X007367Y019717D02*
X006801Y019717D01*
X006819Y019760D02*
X006783Y019672D01*
X006716Y019605D01*
X006628Y019568D01*
X006532Y019568D01*
X006453Y019601D01*
X006398Y019578D01*
X006302Y019578D01*
X006214Y019615D01*
X006212Y019617D01*
X006168Y019598D01*
X006072Y019598D01*
X005984Y019635D01*
X005917Y019702D01*
X005881Y019790D01*
X005881Y019885D01*
X005917Y019973D01*
X005984Y020041D01*
X006072Y020077D01*
X006168Y020077D01*
X006256Y020041D01*
X006258Y020039D01*
X006302Y020057D01*
X006398Y020057D01*
X006477Y020024D01*
X006532Y020047D01*
X006628Y020047D01*
X006716Y020011D01*
X006783Y019943D01*
X006819Y019855D01*
X006819Y019760D01*
X006811Y019875D02*
X007337Y019875D01*
X007373Y020034D02*
X006660Y020034D01*
X006500Y020034D02*
X006454Y020034D01*
X005978Y020034D02*
X002080Y020034D01*
X002117Y019875D02*
X005881Y019875D01*
X005911Y019717D02*
X002086Y019717D01*
X001967Y019558D02*
X007486Y019558D01*
X007525Y019241D02*
X007606Y019241D01*
X007498Y020192D02*
X001955Y020192D01*
X001804Y020479D02*
X001947Y020538D01*
X002057Y020648D01*
X002117Y020791D01*
X002117Y020947D01*
X002057Y021090D01*
X001947Y021200D01*
X001804Y021259D01*
X001649Y021259D01*
X001506Y021200D01*
X001396Y021090D01*
X001337Y020947D01*
X001337Y020791D01*
X001396Y020648D01*
X001506Y020538D01*
X001649Y020479D01*
X001804Y020479D01*
X001877Y020509D02*
X007576Y020509D01*
X007506Y020538D02*
X007649Y020479D01*
X007804Y020479D01*
X007947Y020538D01*
X008057Y020648D01*
X008117Y020791D01*
X008117Y020947D01*
X008057Y021090D01*
X007989Y021158D01*
X008013Y021182D01*
X008049Y021270D01*
X008049Y021365D01*
X008013Y021453D01*
X007946Y021521D01*
X007925Y021529D01*
X007947Y021538D01*
X008057Y021648D01*
X008117Y021791D01*
X008117Y021947D01*
X008057Y022090D01*
X007947Y022200D01*
X007804Y022259D01*
X007649Y022259D01*
X007506Y022200D01*
X007396Y022090D01*
X007337Y021947D01*
X007337Y021791D01*
X007396Y021648D01*
X007506Y021538D01*
X007637Y021484D01*
X007607Y021453D01*
X007571Y021365D01*
X007571Y021270D01*
X007586Y021233D01*
X007506Y021200D01*
X007396Y021090D01*
X007337Y020947D01*
X007337Y020791D01*
X007396Y020648D01*
X007506Y020538D01*
X007388Y020668D02*
X002065Y020668D01*
X002117Y020826D02*
X003845Y020826D01*
X003847Y020822D02*
X003914Y020755D01*
X004002Y020718D01*
X004098Y020718D01*
X004186Y020755D01*
X004253Y020822D01*
X004289Y020910D01*
X004289Y021005D01*
X004253Y021093D01*
X004186Y021161D01*
X004102Y021195D01*
X004186Y021230D01*
X004253Y021297D01*
X004289Y021385D01*
X004289Y021480D01*
X004253Y021568D01*
X004186Y021636D01*
X004098Y021672D01*
X004002Y021672D01*
X003914Y021636D01*
X003847Y021568D01*
X003811Y021480D01*
X003811Y021385D01*
X003847Y021297D01*
X003914Y021230D01*
X003998Y021195D01*
X003914Y021161D01*
X003847Y021093D01*
X003811Y021005D01*
X003811Y020910D01*
X003847Y020822D01*
X003811Y020985D02*
X002101Y020985D01*
X002004Y021143D02*
X003897Y021143D01*
X003845Y021302D02*
X002733Y021302D01*
X002726Y021295D02*
X002793Y021362D01*
X002829Y021450D01*
X002829Y021545D01*
X002793Y021633D01*
X002726Y021701D01*
X002638Y021737D01*
X002542Y021737D01*
X002454Y021701D01*
X002387Y021633D01*
X002351Y021545D01*
X002351Y021450D01*
X002387Y021362D01*
X002454Y021295D01*
X002542Y021258D01*
X002638Y021258D01*
X002726Y021295D01*
X002829Y021460D02*
X003811Y021460D01*
X003898Y021619D02*
X002799Y021619D01*
X002776Y021858D02*
X002864Y021895D01*
X002932Y021962D01*
X002968Y022050D01*
X002968Y022145D01*
X002932Y022233D01*
X002864Y022301D01*
X002776Y022337D01*
X002681Y022337D01*
X002593Y022301D01*
X002526Y022233D01*
X002489Y022145D01*
X002489Y022050D01*
X002526Y021962D01*
X002593Y021895D01*
X002681Y021858D01*
X002776Y021858D01*
X002905Y021936D02*
X003253Y021936D01*
X003227Y021962D02*
X003294Y021895D01*
X003382Y021858D01*
X003478Y021858D01*
X003566Y021895D01*
X003633Y021962D01*
X003669Y022050D01*
X003669Y022145D01*
X003633Y022233D01*
X003566Y022301D01*
X003478Y022337D01*
X003382Y022337D01*
X003294Y022301D01*
X003227Y022233D01*
X003191Y022145D01*
X003191Y022050D01*
X003227Y021962D01*
X003191Y022094D02*
X002968Y022094D01*
X002912Y022253D02*
X003247Y022253D01*
X003613Y022253D02*
X004611Y022253D01*
X004611Y022265D02*
X004611Y022170D01*
X004646Y022086D01*
X004618Y022097D01*
X004522Y022097D01*
X004434Y022061D01*
X004367Y021993D01*
X004331Y021905D01*
X004331Y021810D01*
X004367Y021722D01*
X004434Y021655D01*
X004522Y021618D01*
X004618Y021618D01*
X004684Y021646D01*
X004734Y021595D01*
X004822Y021558D01*
X004918Y021558D01*
X005006Y021595D01*
X005073Y021662D01*
X005109Y021750D01*
X005109Y021845D01*
X005073Y021933D01*
X005006Y022001D01*
X004979Y022012D01*
X004986Y022015D01*
X005053Y022082D01*
X005089Y022170D01*
X005089Y022265D01*
X005053Y022353D01*
X004986Y022421D01*
X004898Y022457D01*
X004802Y022457D01*
X004714Y022421D01*
X004647Y022353D01*
X004611Y022265D01*
X004624Y022094D02*
X004642Y022094D01*
X004705Y022411D02*
X004049Y022411D01*
X004018Y022398D02*
X004106Y022435D01*
X004173Y022502D01*
X004209Y022590D01*
X004209Y022685D01*
X004199Y022710D01*
X004244Y022665D01*
X004332Y022628D01*
X004428Y022628D01*
X004516Y022665D01*
X004583Y022732D01*
X004619Y022820D01*
X004619Y022915D01*
X004583Y023003D01*
X004516Y023071D01*
X004428Y023107D01*
X004332Y023107D01*
X004244Y023071D01*
X004177Y023003D01*
X004141Y022915D01*
X004141Y022820D01*
X004151Y022795D01*
X004106Y022841D01*
X004018Y022877D01*
X003922Y022877D01*
X003834Y022841D01*
X003767Y022773D01*
X003731Y022685D01*
X003731Y022590D01*
X003767Y022502D01*
X003834Y022435D01*
X003922Y022398D01*
X004018Y022398D01*
X003891Y022411D02*
X002099Y022411D01*
X002109Y022385D02*
X002073Y022473D01*
X002006Y022541D01*
X001966Y022557D01*
X002057Y022648D01*
X002117Y022791D01*
X002117Y022947D01*
X002057Y023090D01*
X001947Y023200D01*
X001862Y023235D01*
X001919Y023292D01*
X001956Y023380D01*
X001956Y023475D01*
X001932Y023532D01*
X001947Y023538D01*
X002057Y023648D01*
X002117Y023791D01*
X002117Y023947D01*
X002057Y024090D01*
X001947Y024200D01*
X001804Y024259D01*
X001649Y024259D01*
X001506Y024200D01*
X001396Y024090D01*
X001337Y023947D01*
X001337Y023791D01*
X001396Y023648D01*
X001504Y023540D01*
X001477Y023475D01*
X001477Y023380D01*
X001513Y023292D01*
X001577Y023229D01*
X001506Y023200D01*
X001396Y023090D01*
X001337Y022947D01*
X001337Y022791D01*
X001396Y022648D01*
X001506Y022538D01*
X001649Y022479D01*
X001673Y022479D01*
X001667Y022473D01*
X001631Y022385D01*
X001631Y022290D01*
X001644Y022257D01*
X001506Y022200D01*
X001396Y022090D01*
X001337Y021947D01*
X001337Y021791D01*
X001396Y021648D01*
X001506Y021538D01*
X001649Y021479D01*
X001804Y021479D01*
X001947Y021538D01*
X002057Y021648D01*
X002117Y021791D01*
X002117Y021947D01*
X002057Y022090D01*
X002009Y022138D01*
X002073Y022202D01*
X002109Y022290D01*
X002109Y022385D01*
X002094Y022253D02*
X002545Y022253D01*
X002489Y022094D02*
X002053Y022094D01*
X002117Y021936D02*
X002552Y021936D01*
X002381Y021619D02*
X002028Y021619D01*
X002111Y021777D02*
X004344Y021777D01*
X004343Y021936D02*
X003607Y021936D01*
X003669Y022094D02*
X004516Y022094D01*
X004521Y021619D02*
X004202Y021619D01*
X004289Y021460D02*
X006265Y021460D01*
X006251Y021425D02*
X006251Y021330D01*
X006287Y021242D01*
X006354Y021175D01*
X006442Y021138D01*
X006538Y021138D01*
X006610Y021168D01*
X006682Y021138D01*
X006778Y021138D01*
X006866Y021175D01*
X006910Y021219D01*
X006954Y021175D01*
X007042Y021138D01*
X007138Y021138D01*
X007226Y021175D01*
X007293Y021242D01*
X007329Y021330D01*
X007329Y021425D01*
X007293Y021513D01*
X007226Y021581D01*
X007138Y021617D01*
X007042Y021617D01*
X006954Y021581D01*
X006910Y021536D01*
X006866Y021581D01*
X006778Y021617D01*
X006682Y021617D01*
X006610Y021587D01*
X006538Y021617D01*
X006442Y021617D01*
X006354Y021581D01*
X006287Y021513D01*
X006251Y021425D01*
X006262Y021302D02*
X004255Y021302D01*
X004203Y021143D02*
X004697Y021143D01*
X004687Y021133D02*
X004651Y021045D01*
X004651Y020950D01*
X004687Y020862D01*
X004754Y020795D01*
X004842Y020758D01*
X004938Y020758D01*
X005026Y020795D01*
X005093Y020862D01*
X005129Y020950D01*
X005129Y021045D01*
X005093Y021133D01*
X005026Y021201D01*
X004938Y021237D01*
X004842Y021237D01*
X004754Y021201D01*
X004687Y021133D01*
X004651Y020985D02*
X004289Y020985D01*
X004255Y020826D02*
X004723Y020826D01*
X004710Y021619D02*
X004619Y021619D01*
X004995Y022411D02*
X005295Y022411D01*
X005307Y022382D02*
X005374Y022315D01*
X005462Y022278D01*
X005558Y022278D01*
X005646Y022315D01*
X005713Y022382D01*
X005749Y022470D01*
X005749Y022565D01*
X005713Y022653D01*
X005646Y022721D01*
X005558Y022757D01*
X005462Y022757D01*
X005374Y022721D01*
X005307Y022653D01*
X005271Y022565D01*
X005271Y022470D01*
X005307Y022382D01*
X005272Y022570D02*
X004201Y022570D01*
X004141Y022887D02*
X002117Y022887D01*
X002090Y022728D02*
X003748Y022728D01*
X003739Y022570D02*
X001979Y022570D01*
X002076Y023045D02*
X004219Y023045D01*
X004418Y023357D02*
X004357Y023402D01*
X004304Y023455D01*
X004259Y023516D01*
X004225Y023584D01*
X004202Y023655D01*
X004190Y023730D01*
X004190Y023748D01*
X004650Y023748D01*
X004650Y023788D01*
X004650Y024248D01*
X004632Y024248D01*
X004558Y024236D01*
X004486Y024213D01*
X004418Y024178D01*
X004357Y024134D01*
X004304Y024080D01*
X004259Y024019D01*
X004225Y023952D01*
X004202Y023880D01*
X004190Y023806D01*
X004190Y023788D01*
X004650Y023788D01*
X004690Y023788D01*
X004690Y024248D01*
X004708Y024248D01*
X004782Y024236D01*
X004854Y024213D01*
X004922Y024178D01*
X004983Y024134D01*
X005036Y024080D01*
X005081Y024019D01*
X005115Y023952D01*
X005138Y023880D01*
X005150Y023806D01*
X005150Y023788D01*
X004690Y023788D01*
X004690Y023748D01*
X005150Y023748D01*
X005150Y023730D01*
X005138Y023655D01*
X005115Y023584D01*
X005081Y023516D01*
X005036Y023455D01*
X004983Y023402D01*
X004922Y023357D01*
X004910Y023351D01*
X004929Y023305D01*
X004929Y023210D01*
X004907Y023157D01*
X004978Y023157D01*
X005066Y023121D01*
X005133Y023053D01*
X005169Y022965D01*
X005169Y022870D01*
X005133Y022782D01*
X005066Y022715D01*
X004978Y022678D01*
X004882Y022678D01*
X004794Y022715D01*
X004727Y022782D01*
X004691Y022870D01*
X004691Y022965D01*
X004713Y023018D01*
X004642Y023018D01*
X004554Y023055D01*
X004487Y023122D01*
X004451Y023210D01*
X004451Y023305D01*
X004463Y023335D01*
X004418Y023357D01*
X004411Y023362D02*
X004001Y023362D01*
X004051Y023413D02*
X004120Y023578D01*
X004120Y023757D01*
X004051Y023923D01*
X003925Y024049D01*
X003760Y024118D01*
X003580Y024118D01*
X003415Y024049D01*
X003289Y023923D01*
X003220Y023757D01*
X003220Y023578D01*
X003289Y023413D01*
X003415Y023286D01*
X003580Y023218D01*
X003760Y023218D01*
X003925Y023286D01*
X004051Y023413D01*
X004096Y023521D02*
X004257Y023521D01*
X004198Y023679D02*
X004120Y023679D01*
X004087Y023838D02*
X004195Y023838D01*
X004248Y023996D02*
X003978Y023996D01*
X003925Y024286D02*
X004051Y024413D01*
X004120Y024578D01*
X004120Y024757D01*
X004051Y024923D01*
X003925Y025049D01*
X003760Y025118D01*
X003580Y025118D01*
X003415Y025049D01*
X003289Y024923D01*
X003220Y024757D01*
X003220Y024578D01*
X003289Y024413D01*
X003415Y024286D01*
X003580Y024218D01*
X003760Y024218D01*
X003925Y024286D01*
X003952Y024313D02*
X005314Y024313D01*
X005300Y024348D02*
X005369Y024183D01*
X005495Y024056D01*
X005660Y023988D01*
X005840Y023988D01*
X006005Y024056D01*
X006131Y024183D01*
X006200Y024348D01*
X006200Y024527D01*
X006131Y024693D01*
X006005Y024819D01*
X005840Y024888D01*
X005660Y024888D01*
X005495Y024819D01*
X005369Y024693D01*
X005300Y024527D01*
X005300Y024348D01*
X005300Y024472D02*
X005010Y024472D01*
X005051Y024513D02*
X004925Y024386D01*
X004760Y024318D01*
X004580Y024318D01*
X004415Y024386D01*
X004289Y024513D01*
X004220Y024678D01*
X004220Y024857D01*
X004289Y025023D01*
X004415Y025149D01*
X004580Y025218D01*
X004760Y025218D01*
X004925Y025149D01*
X005051Y025023D01*
X005120Y024857D01*
X005120Y024678D01*
X005051Y024513D01*
X005100Y024630D02*
X005343Y024630D01*
X005465Y024789D02*
X005120Y024789D01*
X005083Y024947D02*
X007337Y024947D01*
X007337Y024791D01*
X007396Y024648D01*
X007506Y024538D01*
X007649Y024479D01*
X007804Y024479D01*
X007947Y024538D01*
X008057Y024648D01*
X008117Y024791D01*
X008117Y024947D01*
X008057Y025090D01*
X007947Y025200D01*
X007804Y025259D01*
X007649Y025259D01*
X007506Y025200D01*
X007396Y025090D01*
X007337Y024947D01*
X007338Y024789D02*
X007035Y024789D01*
X007005Y024819D02*
X006840Y024888D01*
X006660Y024888D01*
X006495Y024819D01*
X006369Y024693D01*
X006300Y024527D01*
X006300Y024348D01*
X006369Y024183D01*
X006495Y024056D01*
X006660Y023988D01*
X006840Y023988D01*
X007005Y024056D01*
X007131Y024183D01*
X007200Y024348D01*
X007200Y024527D01*
X007131Y024693D01*
X007005Y024819D01*
X007054Y025106D02*
X007412Y025106D01*
X007165Y025264D02*
X008473Y025264D01*
X008473Y025106D02*
X008041Y025106D01*
X008116Y024947D02*
X008473Y024947D01*
X008473Y024789D02*
X008115Y024789D01*
X008039Y024630D02*
X008473Y024630D01*
X008473Y024472D02*
X007200Y024472D01*
X007186Y024313D02*
X008473Y024313D01*
X008473Y024155D02*
X007992Y024155D01*
X007947Y024200D02*
X008057Y024090D01*
X008117Y023947D01*
X008117Y023791D01*
X008057Y023648D01*
X007947Y023538D01*
X007804Y023479D01*
X007649Y023479D01*
X007506Y023538D01*
X007396Y023648D01*
X007337Y023791D01*
X007337Y023947D01*
X007396Y024090D01*
X007506Y024200D01*
X007649Y024259D01*
X007804Y024259D01*
X007947Y024200D01*
X008096Y023996D02*
X008473Y023996D01*
X008473Y023838D02*
X008117Y023838D01*
X008070Y023679D02*
X008473Y023679D01*
X008473Y023521D02*
X007905Y023521D01*
X007804Y023259D02*
X007649Y023259D01*
X007506Y023200D01*
X007396Y023090D01*
X007337Y022947D01*
X007337Y022791D01*
X007396Y022648D01*
X007506Y022538D01*
X007649Y022479D01*
X007804Y022479D01*
X007947Y022538D01*
X008057Y022648D01*
X008117Y022791D01*
X008117Y022947D01*
X008057Y023090D01*
X007947Y023200D01*
X007804Y023259D01*
X007937Y023204D02*
X008473Y023204D01*
X008473Y023362D02*
X005866Y023362D01*
X005869Y023370D02*
X005833Y023282D01*
X005766Y023215D01*
X005678Y023178D01*
X005582Y023178D01*
X005494Y023215D01*
X005427Y023282D01*
X005391Y023370D01*
X005391Y023465D01*
X005427Y023553D01*
X005494Y023621D01*
X005582Y023657D01*
X005678Y023657D01*
X005766Y023621D01*
X005833Y023553D01*
X005869Y023465D01*
X005869Y023370D01*
X005846Y023521D02*
X006048Y023521D01*
X006047Y023522D02*
X006114Y023455D01*
X006202Y023418D01*
X006298Y023418D01*
X006386Y023455D01*
X006453Y023522D01*
X006489Y023610D01*
X006489Y023705D01*
X006453Y023793D01*
X006386Y023861D01*
X006298Y023897D01*
X006202Y023897D01*
X006114Y023861D01*
X006047Y023793D01*
X006011Y023705D01*
X006011Y023610D01*
X006047Y023522D01*
X006011Y023679D02*
X005142Y023679D01*
X005145Y023838D02*
X006092Y023838D01*
X006103Y024155D02*
X006397Y024155D01*
X006314Y024313D02*
X006186Y024313D01*
X006200Y024472D02*
X006300Y024472D01*
X006343Y024630D02*
X006157Y024630D01*
X006035Y024789D02*
X006465Y024789D01*
X006446Y025106D02*
X006097Y025106D01*
X006198Y025264D02*
X006335Y025264D01*
X006300Y025423D02*
X005770Y025423D01*
X005730Y025423D02*
X000783Y025423D01*
X000783Y025581D02*
X005292Y025581D01*
X005376Y025740D02*
X000783Y025740D01*
X000783Y025264D02*
X001584Y025264D01*
X001565Y025258D02*
X001628Y025279D01*
X001693Y025289D01*
X001727Y025289D01*
X001760Y025289D01*
X001825Y025279D01*
X001888Y025258D01*
X001947Y025228D01*
X002000Y025189D01*
X002047Y025143D01*
X002086Y025089D01*
X002116Y025030D01*
X002136Y024967D01*
X002147Y024902D01*
X002147Y024869D01*
X001727Y024869D01*
X001727Y024869D01*
X002147Y024869D01*
X002147Y024836D01*
X002136Y024771D01*
X002116Y024708D01*
X002086Y024649D01*
X002047Y024595D01*
X002000Y024549D01*
X001947Y024510D01*
X001888Y024480D01*
X001825Y024459D01*
X001760Y024449D01*
X001727Y024449D01*
X001727Y024869D01*
X001727Y024869D01*
X001727Y025289D01*
X001727Y024869D01*
X001727Y024869D01*
X001727Y024449D01*
X001693Y024449D01*
X001659Y024454D01*
X001659Y024434D01*
X001622Y024346D01*
X001555Y024279D01*
X001467Y024242D01*
X001372Y024242D01*
X001284Y024279D01*
X001217Y024346D01*
X001180Y024434D01*
X001180Y024529D01*
X001217Y024617D01*
X001284Y024685D01*
X001338Y024707D01*
X001337Y024708D01*
X001317Y024771D01*
X001307Y024836D01*
X001307Y024869D01*
X001727Y024869D01*
X001727Y024869D01*
X001307Y024869D01*
X001307Y024902D01*
X001317Y024967D01*
X001337Y025030D01*
X001367Y025089D01*
X001406Y025143D01*
X001453Y025189D01*
X001506Y025228D01*
X001565Y025258D01*
X001727Y025264D02*
X001727Y025264D01*
X001727Y025106D02*
X001727Y025106D01*
X001727Y024947D02*
X001727Y024947D01*
X001727Y024789D02*
X001727Y024789D01*
X001727Y024630D02*
X001727Y024630D01*
X001727Y024472D02*
X001727Y024472D01*
X001589Y024313D02*
X003388Y024313D01*
X003264Y024472D02*
X003010Y024472D01*
X003051Y024513D02*
X003120Y024678D01*
X003120Y024857D01*
X003051Y025023D01*
X002925Y025149D01*
X002760Y025218D01*
X002580Y025218D01*
X002415Y025149D01*
X002289Y025023D01*
X002220Y024857D01*
X002220Y024678D01*
X002289Y024513D01*
X002415Y024386D01*
X002580Y024318D01*
X002760Y024318D01*
X002925Y024386D01*
X003051Y024513D01*
X003100Y024630D02*
X003220Y024630D01*
X003233Y024789D02*
X003120Y024789D01*
X003083Y024947D02*
X003313Y024947D01*
X003552Y025106D02*
X002968Y025106D01*
X002760Y024218D02*
X002580Y024218D01*
X002415Y024149D01*
X002289Y024023D01*
X002220Y023857D01*
X002220Y023678D01*
X002289Y023513D01*
X002415Y023386D01*
X002580Y023318D01*
X002760Y023318D01*
X002925Y023386D01*
X003051Y023513D01*
X003120Y023678D01*
X003120Y023857D01*
X003051Y024023D01*
X002925Y024149D01*
X002760Y024218D01*
X002912Y024155D02*
X004386Y024155D01*
X004330Y024472D02*
X004076Y024472D01*
X004120Y024630D02*
X004240Y024630D01*
X004220Y024789D02*
X004107Y024789D01*
X004027Y024947D02*
X004257Y024947D01*
X004372Y025106D02*
X003788Y025106D01*
X003362Y023996D02*
X003062Y023996D01*
X003120Y023838D02*
X003253Y023838D01*
X003220Y023679D02*
X003120Y023679D01*
X003055Y023521D02*
X003244Y023521D01*
X003339Y023362D02*
X002867Y023362D01*
X002473Y023362D02*
X001948Y023362D01*
X001937Y023204D02*
X004453Y023204D01*
X004541Y023045D02*
X004577Y023045D01*
X004619Y022887D02*
X004691Y022887D01*
X004781Y022728D02*
X004579Y022728D01*
X004927Y023204D02*
X005521Y023204D01*
X005394Y023362D02*
X004929Y023362D01*
X005083Y023521D02*
X005414Y023521D01*
X005640Y023996D02*
X005092Y023996D01*
X004954Y024155D02*
X005397Y024155D01*
X005403Y025106D02*
X004968Y025106D01*
X005302Y025264D02*
X001869Y025264D01*
X002074Y025106D02*
X002372Y025106D01*
X002257Y024947D02*
X002139Y024947D01*
X002139Y024789D02*
X002220Y024789D01*
X002240Y024630D02*
X002072Y024630D01*
X001863Y024472D02*
X002330Y024472D01*
X002428Y024155D02*
X001992Y024155D01*
X002096Y023996D02*
X002278Y023996D01*
X002220Y023838D02*
X002117Y023838D01*
X002070Y023679D02*
X002220Y023679D01*
X002285Y023521D02*
X001937Y023521D01*
X001496Y023521D02*
X000783Y023521D01*
X000783Y023679D02*
X001383Y023679D01*
X001337Y023838D02*
X000783Y023838D01*
X000783Y024313D02*
X000929Y024313D01*
X001043Y024313D02*
X001249Y024313D01*
X001214Y024155D02*
X001461Y024155D01*
X001357Y023996D02*
X001212Y023996D01*
X001180Y024472D02*
X000783Y024472D01*
X000783Y024630D02*
X001229Y024630D01*
X001314Y024789D02*
X000783Y024789D01*
X000783Y024947D02*
X001314Y024947D01*
X001379Y025106D02*
X000783Y025106D01*
X000783Y023362D02*
X001484Y023362D01*
X001516Y023204D02*
X000783Y023204D01*
X000783Y023045D02*
X001377Y023045D01*
X001337Y022887D02*
X000783Y022887D01*
X000783Y022728D02*
X000950Y022728D01*
X001090Y022728D02*
X001363Y022728D01*
X001274Y022570D02*
X001474Y022570D01*
X001641Y022411D02*
X001299Y022411D01*
X001211Y022253D02*
X001634Y022253D01*
X001400Y022094D02*
X000783Y022094D01*
X000783Y021936D02*
X001337Y021936D01*
X001342Y021777D02*
X000783Y021777D01*
X000783Y021619D02*
X001425Y021619D01*
X001449Y021143D02*
X000783Y021143D01*
X000783Y020985D02*
X001352Y020985D01*
X001337Y020826D02*
X000783Y020826D01*
X000783Y020668D02*
X001388Y020668D01*
X001576Y020509D02*
X000783Y020509D01*
X000783Y020351D02*
X008119Y020351D01*
X008129Y020509D02*
X007877Y020509D01*
X007955Y020192D02*
X008269Y020192D01*
X008431Y020192D02*
X008473Y020192D01*
X008473Y020034D02*
X008080Y020034D01*
X008117Y019875D02*
X008473Y019875D01*
X008473Y019717D02*
X008429Y019717D01*
X008469Y019558D02*
X008473Y019558D01*
X008473Y019400D02*
X008391Y019400D01*
X008473Y020668D02*
X008065Y020668D01*
X008117Y020826D02*
X008473Y020826D01*
X008473Y020985D02*
X008101Y020985D01*
X008004Y021143D02*
X008473Y021143D01*
X008473Y021302D02*
X008049Y021302D01*
X008006Y021460D02*
X008473Y021460D01*
X008473Y021619D02*
X008028Y021619D01*
X008111Y021777D02*
X008473Y021777D01*
X008473Y021936D02*
X008117Y021936D01*
X008053Y022094D02*
X008473Y022094D01*
X008473Y022253D02*
X007819Y022253D01*
X007979Y022570D02*
X008473Y022570D01*
X008473Y022728D02*
X008090Y022728D01*
X008117Y022887D02*
X008473Y022887D01*
X008473Y023045D02*
X008076Y023045D01*
X008473Y022411D02*
X006549Y022411D01*
X006549Y022425D02*
X006549Y022330D01*
X006513Y022242D01*
X006446Y022175D01*
X006374Y022145D01*
X006374Y022145D01*
X006338Y022057D01*
X006271Y021990D01*
X006183Y021953D01*
X006087Y021953D01*
X005999Y021990D01*
X005932Y022057D01*
X005896Y022145D01*
X005896Y022240D01*
X005932Y022328D01*
X005999Y022395D01*
X006071Y022425D01*
X006071Y022425D01*
X006107Y022513D01*
X006174Y022581D01*
X006262Y022617D01*
X006358Y022617D01*
X006446Y022581D01*
X006513Y022513D01*
X006549Y022425D01*
X006456Y022570D02*
X007474Y022570D01*
X007363Y022728D02*
X005627Y022728D01*
X005748Y022570D02*
X006164Y022570D01*
X006038Y022411D02*
X005725Y022411D01*
X005748Y021967D02*
X005652Y021967D01*
X005564Y021931D01*
X005497Y021863D01*
X005461Y021775D01*
X005461Y021680D01*
X005497Y021592D01*
X005564Y021525D01*
X005652Y021488D01*
X005748Y021488D01*
X005836Y021525D01*
X005903Y021592D01*
X005939Y021680D01*
X005939Y021775D01*
X005903Y021863D01*
X005836Y021931D01*
X005748Y021967D01*
X005823Y021936D02*
X007337Y021936D01*
X007342Y021777D02*
X005939Y021777D01*
X005914Y021619D02*
X007425Y021619D01*
X007318Y021302D02*
X007571Y021302D01*
X007614Y021460D02*
X007315Y021460D01*
X007449Y021143D02*
X007149Y021143D01*
X007031Y021143D02*
X006789Y021143D01*
X006671Y021143D02*
X006549Y021143D01*
X006431Y021143D02*
X005083Y021143D01*
X005129Y020985D02*
X007352Y020985D01*
X007337Y020826D02*
X005057Y020826D01*
X005030Y021619D02*
X005486Y021619D01*
X005461Y021777D02*
X005109Y021777D01*
X005070Y021936D02*
X005577Y021936D01*
X005917Y022094D02*
X005058Y022094D01*
X005089Y022253D02*
X005901Y022253D01*
X005739Y023204D02*
X007516Y023204D01*
X007377Y023045D02*
X005136Y023045D01*
X005169Y022887D02*
X007337Y022887D01*
X007548Y023521D02*
X006452Y023521D01*
X006489Y023679D02*
X007383Y023679D01*
X007337Y023838D02*
X006408Y023838D01*
X006640Y023996D02*
X005860Y023996D01*
X005770Y025106D02*
X005730Y025106D01*
X005730Y025264D02*
X005770Y025264D01*
X006124Y025740D02*
X006416Y025740D01*
X006322Y025581D02*
X006208Y025581D01*
X006860Y023996D02*
X007357Y023996D01*
X007461Y024155D02*
X007103Y024155D01*
X007157Y024630D02*
X007414Y024630D01*
X007200Y025423D02*
X008473Y025423D01*
X008473Y025581D02*
X007178Y025581D01*
X007084Y025740D02*
X008473Y025740D01*
X007634Y022253D02*
X006517Y022253D01*
X006353Y022094D02*
X007400Y022094D01*
X006720Y018607D02*
X006569Y018607D01*
X006561Y018449D02*
X006728Y018449D01*
X006231Y016547D02*
X006057Y016547D01*
X006054Y016388D02*
X006234Y016388D01*
X006378Y015437D02*
X005909Y015437D01*
X005877Y015451D02*
X005781Y015451D01*
X005693Y015414D01*
X005626Y015347D01*
X005590Y015259D01*
X005590Y015164D01*
X005626Y015076D01*
X005693Y015009D01*
X005781Y014972D01*
X005877Y014972D01*
X005964Y015009D01*
X006032Y015076D01*
X006068Y015164D01*
X006068Y015259D01*
X006032Y015347D01*
X005964Y015414D01*
X005877Y015451D01*
X005749Y015437D02*
X005279Y015437D01*
X005247Y015451D02*
X005151Y015451D01*
X005063Y015414D01*
X004996Y015347D01*
X004960Y015259D01*
X004960Y015164D01*
X004996Y015076D01*
X005063Y015009D01*
X005151Y014972D01*
X005247Y014972D01*
X005335Y015009D01*
X005402Y015076D01*
X005438Y015164D01*
X005438Y015259D01*
X005402Y015347D01*
X005335Y015414D01*
X005247Y015451D01*
X005119Y015437D02*
X004476Y015437D01*
X004485Y015279D02*
X004968Y015279D01*
X004978Y015120D02*
X004475Y015120D01*
X004484Y015596D02*
X007448Y015596D01*
X007352Y015754D02*
X004330Y015754D01*
X004179Y015754D02*
X004015Y015754D01*
X004163Y016071D02*
X004975Y016071D01*
X004970Y016230D02*
X004168Y016230D01*
X004164Y016388D02*
X005133Y016388D01*
X005265Y016388D02*
X005448Y016388D01*
X005579Y016388D02*
X005604Y016388D01*
X005601Y016547D02*
X004167Y016547D01*
X003717Y015437D02*
X003705Y015437D01*
X003709Y015596D02*
X003225Y015596D01*
X003216Y015437D02*
X003544Y015437D01*
X003393Y015279D02*
X003225Y015279D01*
X003216Y015120D02*
X003224Y015120D01*
X003394Y015120D02*
X003403Y015120D01*
X003541Y014962D02*
X006557Y014962D01*
X006570Y014803D02*
X003530Y014803D01*
X003845Y015120D02*
X004033Y015120D01*
X004023Y015279D02*
X003855Y015279D01*
X003710Y016230D02*
X001875Y016230D01*
X001448Y015596D02*
X000783Y015596D01*
X000783Y015754D02*
X001352Y015754D01*
X001337Y015913D02*
X000783Y015913D01*
X000783Y016071D02*
X001388Y016071D01*
X001426Y015120D02*
X000783Y015120D01*
X000783Y014962D02*
X001343Y014962D01*
X001337Y014803D02*
X000783Y014803D01*
X000783Y014645D02*
X001399Y014645D01*
X001631Y014486D02*
X000783Y014486D01*
X000783Y014328D02*
X001798Y014328D01*
X001978Y014169D02*
X003524Y014169D01*
X003489Y014155D02*
X003421Y014087D01*
X003385Y013999D01*
X003385Y013904D01*
X003405Y013856D01*
X003357Y013876D01*
X003262Y013876D01*
X003174Y013840D01*
X003152Y013818D01*
X003130Y013840D01*
X003042Y013876D01*
X002947Y013876D01*
X002859Y013840D01*
X002791Y013772D01*
X002755Y013684D01*
X002755Y013589D01*
X002791Y013501D01*
X002813Y013479D01*
X002791Y013457D01*
X002755Y013369D01*
X002755Y013274D01*
X002791Y013186D01*
X002859Y013119D01*
X002947Y013082D01*
X003042Y013082D01*
X003106Y013109D01*
X003071Y013024D01*
X003071Y012929D01*
X003078Y012911D01*
X003039Y012895D01*
X002971Y012827D01*
X002935Y012739D01*
X002935Y012690D01*
X002859Y012658D01*
X002791Y012591D01*
X002755Y012426D02*
X000783Y012426D01*
X000783Y012584D02*
X001460Y012584D01*
X001357Y012743D02*
X000783Y012743D01*
X000783Y012901D02*
X001337Y012901D01*
X001383Y013060D02*
X000783Y013060D01*
X000783Y013218D02*
X001267Y013218D01*
X001172Y013377D02*
X000783Y013377D01*
X000783Y013535D02*
X001187Y013535D01*
X001308Y013694D02*
X000783Y013694D01*
X000783Y013852D02*
X001337Y013852D01*
X001363Y014011D02*
X000783Y014011D01*
X000783Y014169D02*
X001475Y014169D01*
X001768Y013377D02*
X002758Y013377D01*
X002777Y013535D02*
X001940Y013535D01*
X001902Y013218D02*
X002778Y013218D01*
X002759Y013694D02*
X002076Y013694D01*
X002117Y013852D02*
X002889Y013852D01*
X003099Y013852D02*
X003204Y013852D01*
X003390Y014011D02*
X002090Y014011D01*
X002070Y013060D02*
X003085Y013060D01*
X003055Y012901D02*
X002117Y012901D01*
X002096Y012743D02*
X002936Y012743D01*
X002844Y012267D02*
X000783Y012267D01*
X000783Y012109D02*
X000829Y012109D01*
X001251Y012109D02*
X001415Y012109D01*
X001337Y011792D02*
X001319Y011792D01*
X001257Y011633D02*
X001411Y011633D01*
X001348Y011475D02*
X008473Y011475D01*
X008473Y011633D02*
X008042Y011633D01*
X008117Y011792D02*
X008473Y011792D01*
X008473Y011950D02*
X008115Y011950D01*
X008038Y012109D02*
X008473Y012109D01*
X008473Y012267D02*
X007857Y012267D01*
X008151Y012426D02*
X008473Y012426D01*
X008473Y012584D02*
X008162Y012584D01*
X008096Y012743D02*
X008473Y012743D01*
X008473Y012901D02*
X008117Y012901D01*
X008070Y013060D02*
X008473Y013060D01*
X008473Y013218D02*
X007902Y013218D01*
X007940Y013535D02*
X008473Y013535D01*
X008473Y013377D02*
X007010Y013377D01*
X007013Y013369D02*
X006977Y013457D01*
X006909Y013525D01*
X006821Y013561D01*
X006726Y013561D01*
X006638Y013525D01*
X006571Y013457D01*
X006534Y013369D01*
X006534Y013274D01*
X006571Y013186D01*
X006638Y013119D01*
X006726Y013082D01*
X006821Y013082D01*
X006909Y013119D01*
X006977Y013186D01*
X007013Y013274D01*
X007013Y013369D01*
X006990Y013218D02*
X007551Y013218D01*
X007513Y013535D02*
X006884Y013535D01*
X007010Y013852D02*
X007337Y013852D01*
X007363Y014011D02*
X007023Y014011D01*
X006881Y014169D02*
X007304Y014169D01*
X007271Y014328D02*
X006693Y014328D01*
X006678Y014169D02*
X006699Y014169D01*
X006582Y014475D02*
X006506Y014506D01*
X006411Y014506D01*
X006323Y014470D01*
X006256Y014402D01*
X006219Y014314D01*
X006219Y014219D01*
X006239Y014171D01*
X006191Y014191D01*
X006096Y014191D01*
X006008Y014155D01*
X005941Y014087D01*
X005904Y013999D01*
X005904Y013904D01*
X005924Y013856D01*
X005877Y013876D01*
X005781Y013876D01*
X005693Y013840D01*
X005671Y013818D01*
X005650Y013840D01*
X005562Y013876D01*
X005466Y013876D01*
X005378Y013840D01*
X005356Y013818D01*
X005335Y013840D01*
X005247Y013876D01*
X005151Y013876D01*
X005063Y013840D01*
X005041Y013818D01*
X005020Y013840D01*
X004932Y013876D01*
X004836Y013876D01*
X004748Y013840D01*
X004681Y013772D01*
X004645Y013684D01*
X004645Y013589D01*
X004664Y013541D01*
X004617Y013561D01*
X004521Y013561D01*
X004474Y013541D01*
X004493Y013589D01*
X004493Y013684D01*
X004457Y013772D01*
X004390Y013840D01*
X004302Y013876D01*
X004206Y013876D01*
X004119Y013840D01*
X004051Y013772D01*
X004015Y013684D01*
X004015Y013589D01*
X004035Y013541D01*
X003987Y013561D01*
X003892Y013561D01*
X003844Y013541D01*
X003864Y013589D01*
X003864Y013684D01*
X003827Y013772D01*
X003805Y013794D01*
X003827Y013816D01*
X003864Y013904D01*
X003864Y013999D01*
X003827Y014087D01*
X003760Y014155D01*
X003672Y014191D01*
X003577Y014191D01*
X003489Y014155D01*
X003724Y014169D02*
X005295Y014169D01*
X005304Y013852D02*
X005409Y013852D01*
X005619Y013852D02*
X005724Y013852D01*
X005733Y014169D02*
X006044Y014169D01*
X005909Y014011D02*
X003859Y014011D01*
X003842Y013852D02*
X004149Y013852D01*
X004019Y013694D02*
X003860Y013694D01*
X003723Y013218D02*
X003525Y013218D01*
X003535Y013060D02*
X004017Y013060D01*
X004039Y012901D02*
X003954Y012901D01*
X003958Y012743D02*
X005388Y012743D01*
X005552Y012743D02*
X005566Y012743D01*
X005136Y012584D02*
X007460Y012584D01*
X007405Y012426D02*
X005169Y012426D01*
X005169Y012408D02*
X005133Y012320D01*
X005066Y012253D01*
X004978Y012216D01*
X004882Y012216D01*
X004794Y012253D01*
X004727Y012320D01*
X004691Y012408D01*
X004691Y012503D01*
X004727Y012591D01*
X004794Y012658D01*
X004882Y012695D01*
X004978Y012695D01*
X005066Y012658D01*
X005133Y012591D01*
X005169Y012503D01*
X005169Y012408D01*
X005080Y012267D02*
X007423Y012267D01*
X007357Y012743D02*
X006512Y012743D01*
X006662Y012901D02*
X007337Y012901D01*
X007383Y013060D02*
X006651Y013060D01*
X006558Y013218D02*
X006360Y013218D01*
X006380Y013377D02*
X006538Y013377D01*
X006664Y013535D02*
X006361Y013535D01*
X006379Y013694D02*
X007377Y013694D01*
X007749Y014328D02*
X008473Y014328D01*
X008473Y014486D02*
X007822Y014486D01*
X007978Y014169D02*
X008473Y014169D01*
X008473Y014011D02*
X008090Y014011D01*
X008117Y013852D02*
X008473Y013852D01*
X008473Y013694D02*
X008076Y013694D01*
X008054Y014645D02*
X008473Y014645D01*
X008473Y014803D02*
X008117Y014803D01*
X008110Y014962D02*
X008473Y014962D01*
X008473Y015120D02*
X008027Y015120D01*
X008005Y015596D02*
X008473Y015596D01*
X008473Y015754D02*
X008101Y015754D01*
X008117Y015913D02*
X008473Y015913D01*
X008473Y016071D02*
X008065Y016071D01*
X008473Y015437D02*
X006539Y015437D01*
X006680Y015120D02*
X006702Y015120D01*
X006690Y015279D02*
X008473Y015279D01*
X007426Y015120D02*
X006878Y015120D01*
X007023Y014962D02*
X007343Y014962D01*
X007337Y014803D02*
X007010Y014803D01*
X006551Y014645D02*
X006551Y014550D01*
X006582Y014475D01*
X006577Y014486D02*
X006554Y014486D01*
X006364Y014486D02*
X005609Y014486D01*
X005748Y014328D02*
X006225Y014328D01*
X006237Y015120D02*
X006050Y015120D01*
X006060Y015279D02*
X006228Y015279D01*
X005598Y015279D02*
X005430Y015279D01*
X005420Y015120D02*
X005608Y015120D01*
X005094Y013852D02*
X004989Y013852D01*
X004779Y013852D02*
X004359Y013852D01*
X004490Y013694D02*
X004649Y013694D01*
X004805Y013377D02*
X004963Y013377D01*
X004983Y013218D02*
X004785Y013218D01*
X004962Y013060D02*
X004491Y013060D01*
X004470Y012901D02*
X004984Y012901D01*
X004780Y012267D02*
X004663Y012267D01*
X004653Y012242D02*
X004689Y012330D01*
X004689Y012425D01*
X004653Y012513D01*
X004586Y012581D01*
X004498Y012617D01*
X004402Y012617D01*
X004314Y012581D01*
X004247Y012513D01*
X004211Y012425D01*
X004211Y012330D01*
X004247Y012242D01*
X004314Y012175D01*
X004402Y012138D01*
X004498Y012138D01*
X004586Y012175D01*
X004653Y012242D01*
X004689Y012426D02*
X004691Y012426D01*
X004724Y012584D02*
X004577Y012584D01*
X004323Y012584D02*
X003833Y012584D01*
X003839Y012426D02*
X004211Y012426D01*
X004237Y012267D02*
X003679Y012267D01*
X003541Y012267D02*
X003144Y012267D01*
X003234Y012426D02*
X003381Y012426D01*
X003545Y013377D02*
X003703Y013377D01*
X003882Y011457D02*
X003794Y011421D01*
X003727Y011353D01*
X003691Y011265D01*
X003691Y011170D01*
X003727Y011082D01*
X003794Y011015D01*
X003882Y010978D01*
X003978Y010978D01*
X004066Y011015D01*
X004133Y011082D01*
X004169Y011170D01*
X004169Y011265D01*
X004133Y011353D01*
X004066Y011421D01*
X003978Y011457D01*
X003882Y011457D01*
X003712Y011316D02*
X002994Y011316D01*
X003104Y011158D02*
X003696Y011158D01*
X003832Y010999D02*
X003244Y010999D01*
X003229Y010841D02*
X006008Y010841D01*
X005951Y010999D02*
X005487Y010999D01*
X005483Y010989D02*
X005528Y011098D01*
X005528Y011217D01*
X005483Y011327D01*
X005399Y011411D01*
X005289Y011456D01*
X005171Y011456D01*
X005061Y011411D01*
X004988Y011338D01*
X004946Y011381D01*
X004858Y011417D01*
X004762Y011417D01*
X004674Y011381D01*
X004607Y011313D01*
X004571Y011225D01*
X004571Y011130D01*
X004607Y011042D01*
X004674Y010975D01*
X004762Y010938D01*
X004858Y010938D01*
X004946Y010975D01*
X004972Y011001D01*
X004977Y010989D01*
X005061Y010905D01*
X005171Y010859D01*
X005289Y010859D01*
X005399Y010905D01*
X005483Y010989D01*
X005528Y011158D02*
X006011Y011158D01*
X005784Y010365D02*
X007287Y010365D01*
X007280Y010207D02*
X005886Y010207D01*
X005880Y010048D02*
X007379Y010048D01*
X007337Y009890D02*
X005770Y009890D01*
X005575Y008780D02*
X005036Y008780D01*
X005060Y008770D02*
X004895Y008839D01*
X004716Y008839D01*
X004550Y008770D01*
X004424Y008644D01*
X004355Y008478D01*
X004355Y008299D01*
X004424Y008134D01*
X004550Y008007D01*
X004716Y007939D01*
X004895Y007939D01*
X005060Y008007D01*
X005187Y008134D01*
X005255Y008299D01*
X005255Y008478D01*
X005187Y008644D01*
X005060Y008770D01*
X005196Y008622D02*
X005415Y008622D01*
X005355Y008463D02*
X005255Y008463D01*
X005255Y008305D02*
X005355Y008305D01*
X005273Y008146D02*
X005192Y008146D01*
X005087Y007988D02*
X005013Y007988D01*
X005058Y007829D02*
X004917Y007829D01*
X004693Y007829D02*
X003917Y007829D01*
X003895Y007939D02*
X004060Y008007D01*
X004187Y008134D01*
X004255Y008299D01*
X004255Y008478D01*
X004187Y008644D01*
X004060Y008770D01*
X003895Y008839D01*
X003716Y008839D01*
X003550Y008770D01*
X003424Y008644D01*
X003355Y008478D01*
X003355Y008299D01*
X003424Y008134D01*
X003550Y008007D01*
X003716Y007939D01*
X003895Y007939D01*
X004013Y007988D02*
X004597Y007988D01*
X004419Y008146D02*
X004192Y008146D01*
X004255Y008305D02*
X004355Y008305D01*
X004355Y008463D02*
X004255Y008463D01*
X004196Y008622D02*
X004415Y008622D01*
X004575Y008780D02*
X004036Y008780D01*
X003693Y007829D02*
X002917Y007829D01*
X003013Y007988D02*
X003597Y007988D01*
X003451Y007671D02*
X003160Y007671D01*
X003241Y007512D02*
X003369Y007512D01*
X003355Y007354D02*
X003255Y007354D01*
X003212Y007195D02*
X003398Y007195D01*
X003521Y007037D02*
X003090Y007037D01*
X002693Y007829D02*
X002564Y007829D01*
X002588Y007988D02*
X002597Y007988D01*
X002451Y007671D02*
X002067Y007671D01*
X002117Y007829D02*
X002136Y007829D01*
X002112Y007988D02*
X002099Y007988D01*
X002001Y008146D02*
X002228Y008146D01*
X002117Y008939D02*
X007337Y008939D01*
X007341Y008780D02*
X007036Y008780D01*
X007060Y008770D02*
X006895Y008839D01*
X006716Y008839D01*
X006550Y008770D01*
X006424Y008644D01*
X006355Y008478D01*
X006355Y008299D01*
X006424Y008134D01*
X006550Y008007D01*
X006716Y007939D01*
X006895Y007939D01*
X007060Y008007D01*
X007187Y008134D01*
X007255Y008299D01*
X007255Y008478D01*
X007187Y008644D01*
X007060Y008770D01*
X007196Y008622D02*
X007422Y008622D01*
X007255Y008463D02*
X008473Y008463D01*
X008473Y008305D02*
X007255Y008305D01*
X007192Y008146D02*
X007452Y008146D01*
X007506Y008200D02*
X007396Y008090D01*
X007337Y007947D01*
X007337Y007791D01*
X007396Y007648D01*
X007506Y007538D01*
X007649Y007479D01*
X007804Y007479D01*
X007947Y007538D01*
X008057Y007648D01*
X008117Y007791D01*
X008117Y007947D01*
X008057Y008090D01*
X007947Y008200D01*
X007804Y008259D01*
X007649Y008259D01*
X007506Y008200D01*
X007354Y007988D02*
X007013Y007988D01*
X006917Y007829D02*
X007337Y007829D01*
X007386Y007671D02*
X007160Y007671D01*
X007187Y007644D02*
X007060Y007770D01*
X006895Y007839D01*
X006716Y007839D01*
X006550Y007770D01*
X006424Y007644D01*
X006355Y007478D01*
X006355Y007299D01*
X006424Y007134D01*
X006550Y007007D01*
X006594Y006989D01*
X006574Y006981D01*
X006507Y006913D01*
X006471Y006825D01*
X006471Y006730D01*
X006507Y006642D01*
X006574Y006575D01*
X006662Y006538D01*
X006758Y006538D01*
X006846Y006575D01*
X006870Y006599D01*
X006874Y006595D01*
X006962Y006558D01*
X007058Y006558D01*
X007146Y006595D01*
X007213Y006662D01*
X007249Y006750D01*
X007249Y006845D01*
X007213Y006933D01*
X007146Y007001D01*
X007081Y007028D01*
X007187Y007134D01*
X007255Y007299D01*
X007255Y007478D01*
X007187Y007644D01*
X007241Y007512D02*
X007569Y007512D01*
X007564Y007497D02*
X007469Y007497D01*
X007381Y007461D01*
X007314Y007393D01*
X007277Y007305D01*
X007277Y007210D01*
X007314Y007122D01*
X007381Y007055D01*
X007381Y007055D01*
X007337Y006947D01*
X007337Y006791D01*
X007396Y006648D01*
X007506Y006538D01*
X007649Y006479D01*
X007804Y006479D01*
X007947Y006538D01*
X008057Y006648D01*
X008117Y006791D01*
X008117Y006947D01*
X008057Y007090D01*
X007947Y007200D01*
X007804Y007259D01*
X007756Y007259D01*
X007756Y007305D01*
X007719Y007393D01*
X007652Y007461D01*
X007564Y007497D01*
X007736Y007354D02*
X008473Y007354D01*
X008473Y007512D02*
X007885Y007512D01*
X007952Y007195D02*
X008473Y007195D01*
X008473Y007037D02*
X008079Y007037D01*
X008117Y006878D02*
X008473Y006878D01*
X008473Y006720D02*
X008087Y006720D01*
X007970Y006561D02*
X008473Y006561D01*
X008473Y006403D02*
X006250Y006403D01*
X006250Y006561D02*
X006607Y006561D01*
X006841Y006261D02*
X006757Y006177D01*
X006712Y006067D01*
X006712Y005948D01*
X006757Y005839D01*
X006841Y005755D01*
X006951Y005709D01*
X007069Y005709D01*
X007179Y005755D01*
X007263Y005839D01*
X007308Y005948D01*
X007308Y006067D01*
X007263Y006177D01*
X007179Y006261D01*
X007069Y006306D01*
X006951Y006306D01*
X006841Y006261D01*
X006824Y006244D02*
X006250Y006244D01*
X006250Y006086D02*
X006719Y006086D01*
X006720Y005927D02*
X006250Y005927D01*
X006250Y005769D02*
X006827Y005769D01*
X006813Y006561D02*
X006955Y006561D01*
X007065Y006561D02*
X007483Y006561D01*
X007366Y006720D02*
X007237Y006720D01*
X007236Y006878D02*
X007337Y006878D01*
X007374Y007037D02*
X007090Y007037D01*
X007212Y007195D02*
X007283Y007195D01*
X007297Y007354D02*
X007255Y007354D01*
X007196Y006244D02*
X007614Y006244D01*
X007649Y006259D02*
X007506Y006200D01*
X007396Y006090D01*
X007337Y005947D01*
X007337Y005791D01*
X007396Y005648D01*
X007506Y005538D01*
X007649Y005479D01*
X007804Y005479D01*
X007947Y005538D01*
X008057Y005648D01*
X008117Y005791D01*
X008117Y005947D01*
X008057Y006090D01*
X007947Y006200D01*
X007804Y006259D01*
X007649Y006259D01*
X007840Y006244D02*
X008473Y006244D01*
X008473Y006086D02*
X008059Y006086D01*
X008117Y005927D02*
X008473Y005927D01*
X008473Y005769D02*
X008107Y005769D01*
X008019Y005610D02*
X008473Y005610D01*
X008473Y005452D02*
X006250Y005452D01*
X006250Y005610D02*
X007434Y005610D01*
X007346Y005769D02*
X007193Y005769D01*
X007300Y005927D02*
X007337Y005927D01*
X007301Y006086D02*
X007394Y006086D01*
X008067Y007671D02*
X008473Y007671D01*
X008473Y007829D02*
X008117Y007829D01*
X008099Y007988D02*
X008473Y007988D01*
X008473Y008146D02*
X008001Y008146D01*
X008031Y008622D02*
X008473Y008622D01*
X008473Y008780D02*
X008112Y008780D01*
X008190Y008939D02*
X008473Y008939D01*
X008473Y009097D02*
X008289Y009097D01*
X008260Y009256D02*
X008473Y009256D01*
X008473Y009414D02*
X007812Y009414D01*
X007982Y009573D02*
X008473Y009573D01*
X008473Y009731D02*
X008092Y009731D01*
X008117Y009890D02*
X008473Y009890D01*
X008473Y010048D02*
X008074Y010048D01*
X008091Y010365D02*
X008473Y010365D01*
X008473Y010207D02*
X007930Y010207D01*
X008102Y010524D02*
X008473Y010524D01*
X008473Y010682D02*
X008071Y010682D01*
X008117Y010841D02*
X008473Y010841D01*
X008473Y010999D02*
X008095Y010999D01*
X007989Y011158D02*
X008473Y011158D01*
X008473Y011316D02*
X005487Y011316D01*
X004973Y010999D02*
X004970Y010999D01*
X004650Y010999D02*
X004028Y010999D01*
X004164Y011158D02*
X004571Y011158D01*
X004610Y011316D02*
X004148Y011316D01*
X003575Y008780D02*
X003036Y008780D01*
X003196Y008622D02*
X003415Y008622D01*
X003355Y008463D02*
X003255Y008463D01*
X003255Y008305D02*
X003355Y008305D01*
X003419Y008146D02*
X003192Y008146D01*
X004160Y007671D02*
X004451Y007671D01*
X004369Y007512D02*
X004241Y007512D01*
X004255Y007354D02*
X004355Y007354D01*
X004398Y007195D02*
X004212Y007195D01*
X004090Y007037D02*
X004521Y007037D01*
X005655Y007829D02*
X005693Y007829D01*
X005917Y007829D02*
X006693Y007829D01*
X006597Y007988D02*
X006013Y007988D01*
X006192Y008146D02*
X006419Y008146D01*
X006355Y008305D02*
X006255Y008305D01*
X006255Y008463D02*
X006355Y008463D01*
X006415Y008622D02*
X006196Y008622D01*
X006036Y008780D02*
X006575Y008780D01*
X006451Y007671D02*
X006160Y007671D01*
X006241Y007512D02*
X006369Y007512D01*
X006355Y007354D02*
X006255Y007354D01*
X006212Y007195D02*
X006398Y007195D01*
X006493Y006878D02*
X006250Y006878D01*
X006250Y006720D02*
X006475Y006720D01*
X006521Y007037D02*
X006090Y007037D01*
X006535Y010524D02*
X007541Y010524D01*
X007382Y010682D02*
X006609Y010682D01*
X006729Y011158D02*
X006756Y011158D01*
X006944Y011158D02*
X007464Y011158D01*
X007358Y010999D02*
X007084Y010999D01*
X007069Y010841D02*
X007337Y010841D01*
X007403Y009097D02*
X002050Y009097D01*
X001361Y009731D02*
X001207Y009731D01*
X001337Y009890D02*
X000783Y009890D01*
X000783Y010048D02*
X001379Y010048D01*
X002904Y016388D02*
X003399Y016388D01*
X003396Y016547D02*
X002907Y016547D01*
X002565Y018766D02*
X002106Y018766D01*
X002117Y018924D02*
X002545Y018924D01*
X002672Y019083D02*
X002060Y019083D01*
X001847Y019241D02*
X002846Y019241D01*
X002447Y021302D02*
X000783Y021302D01*
X000783Y021460D02*
X002351Y021460D01*
X001498Y020192D02*
X000783Y020192D01*
X000783Y020034D02*
X001373Y020034D01*
X001337Y019875D02*
X000783Y019875D01*
X000783Y019717D02*
X001367Y019717D01*
X000896Y019241D02*
X000783Y019241D01*
X000783Y019083D02*
X000892Y019083D01*
X000829Y022253D02*
X000783Y022253D01*
X004650Y023838D02*
X004690Y023838D01*
X004690Y023996D02*
X004650Y023996D01*
X004650Y024155D02*
X004690Y024155D01*
X005079Y022728D02*
X005393Y022728D01*
X005602Y016864D02*
X005111Y016864D01*
X005110Y016705D02*
X005603Y016705D01*
X006099Y012743D02*
X006348Y012743D01*
X006369Y011158D02*
X006371Y011158D01*
M02*
