G75*
%MOIN*%
%OFA0B0*%
%FSLAX24Y24*%
%IPPOS*%
%LPD*%
%AMOC8*
5,1,8,0,0,1.08239X$1,22.5*
%
%ADD10R,0.0404X0.0326*%
%ADD11R,0.0326X0.0404*%
%ADD12C,0.0207*%
%ADD13R,0.0250X0.0350*%
%ADD14C,0.0030*%
%ADD15R,0.0168X0.0267*%
%ADD16R,0.0168X0.0255*%
%ADD17C,0.0010*%
%ADD18R,0.0837X0.0286*%
%ADD19C,0.0790*%
%ADD20C,0.0038*%
%ADD21R,0.0150X0.0310*%
%ADD22R,0.0390X0.0250*%
%ADD23R,0.0148X0.0290*%
%ADD24OC8,0.0530*%
%ADD25OC8,0.0650*%
%ADD26R,0.0306X0.0404*%
%ADD27OC8,0.0404*%
D10*
X002390Y006056D03*
X002390Y006567D03*
X000990Y006962D03*
X000990Y007474D03*
X000990Y008362D03*
X000990Y008874D03*
X001070Y012462D03*
X001070Y012974D03*
X001110Y013742D03*
X001110Y014254D03*
X001080Y015822D03*
X001080Y016334D03*
X001090Y017022D03*
X001090Y017534D03*
X001090Y018222D03*
X001090Y018734D03*
X001090Y019539D03*
X001090Y020051D03*
X001090Y021162D03*
X001090Y021674D03*
X001090Y023162D03*
X001090Y023674D03*
X001090Y024482D03*
X001090Y024994D03*
X003710Y021674D03*
X003710Y021162D03*
X008230Y011274D03*
X008230Y010762D03*
X008230Y010074D03*
X008230Y009562D03*
X008230Y008734D03*
X008230Y008222D03*
X008230Y007534D03*
X008230Y007022D03*
X008230Y006274D03*
X008230Y005762D03*
X005910Y006122D03*
X005910Y006634D03*
D11*
X005966Y005558D03*
X005454Y005558D03*
X003566Y005541D03*
X003054Y005541D03*
X005394Y023718D03*
X005906Y023718D03*
X006574Y023718D03*
X007086Y023718D03*
D12*
X006616Y016944D03*
X006616Y016629D03*
X006616Y016314D03*
X006616Y015999D03*
X006616Y015684D03*
X006616Y015369D03*
X006616Y015054D03*
X006616Y014739D03*
X006616Y014424D03*
X006616Y014109D03*
X006616Y013794D03*
X006616Y013479D03*
X006616Y013164D03*
X006301Y013164D03*
X006301Y013479D03*
X006301Y013794D03*
X006301Y014109D03*
X006301Y014424D03*
X006301Y014739D03*
X006301Y015054D03*
X006301Y015369D03*
X006301Y015684D03*
X006301Y015999D03*
X006301Y016314D03*
X006301Y016629D03*
X006301Y016944D03*
X005986Y016944D03*
X005986Y016629D03*
X005986Y016314D03*
X005986Y015999D03*
X005986Y015684D03*
X005986Y015369D03*
X005986Y015054D03*
X005986Y014739D03*
X005986Y014424D03*
X005986Y014109D03*
X005986Y013794D03*
X005986Y013479D03*
X005986Y013164D03*
X005671Y013164D03*
X005671Y013479D03*
X005671Y013794D03*
X005671Y014109D03*
X005671Y014424D03*
X005671Y014739D03*
X005671Y015054D03*
X005671Y015369D03*
X005671Y015684D03*
X005671Y015999D03*
X005671Y016314D03*
X005671Y016629D03*
X005671Y016944D03*
X005356Y016944D03*
X005356Y016629D03*
X005356Y016314D03*
X005356Y015999D03*
X005356Y015684D03*
X005356Y015369D03*
X005356Y015054D03*
X005356Y014739D03*
X005356Y014424D03*
X005356Y014109D03*
X005356Y013794D03*
X005356Y013479D03*
X005356Y013164D03*
X005041Y013164D03*
X005041Y013479D03*
X005041Y013794D03*
X005041Y014109D03*
X005041Y014424D03*
X005041Y014739D03*
X005041Y015054D03*
X005041Y015369D03*
X005041Y015684D03*
X005041Y015999D03*
X005041Y016314D03*
X005041Y016629D03*
X005041Y016944D03*
X004727Y016944D03*
X004727Y016629D03*
X004727Y016314D03*
X004727Y015999D03*
X004727Y015684D03*
X004727Y015369D03*
X004727Y015054D03*
X004727Y014739D03*
X004727Y014424D03*
X004727Y014109D03*
X004727Y013794D03*
X004727Y013479D03*
X004727Y013164D03*
X004412Y013164D03*
X004412Y013479D03*
X004412Y013794D03*
X004412Y014109D03*
X004412Y014424D03*
X004412Y014739D03*
X004412Y015054D03*
X004412Y015369D03*
X004412Y015684D03*
X004412Y015999D03*
X004412Y016314D03*
X004412Y016629D03*
X004412Y016944D03*
X004097Y016944D03*
X004097Y016629D03*
X004097Y016314D03*
X004097Y015999D03*
X004097Y015684D03*
X004097Y015369D03*
X004097Y015054D03*
X004097Y014739D03*
X004097Y014424D03*
X004097Y014109D03*
X004097Y013794D03*
X004097Y013479D03*
X004097Y013164D03*
X003782Y013164D03*
X003782Y013479D03*
X003782Y013794D03*
X003782Y014109D03*
X003782Y014424D03*
X003782Y014739D03*
X003782Y015054D03*
X003782Y015369D03*
X003782Y015684D03*
X003782Y015999D03*
X003782Y016314D03*
X003782Y016629D03*
X003782Y016944D03*
X003467Y016944D03*
X003467Y016629D03*
X003467Y016314D03*
X003467Y015999D03*
X003467Y015684D03*
X003467Y015369D03*
X003467Y015054D03*
X003467Y014739D03*
X003467Y014424D03*
X003467Y014109D03*
X003467Y013794D03*
X003467Y013479D03*
X003467Y013164D03*
X003152Y013164D03*
X003152Y013479D03*
X003152Y013794D03*
X003152Y014109D03*
X003152Y014424D03*
X003152Y014739D03*
X003152Y015054D03*
X003152Y015369D03*
X003152Y015684D03*
X003152Y015999D03*
X003152Y016314D03*
X003152Y016629D03*
X003152Y016944D03*
X002837Y016944D03*
X002837Y016629D03*
X002837Y016314D03*
X002837Y015999D03*
X002837Y015684D03*
X002837Y015369D03*
X002837Y015054D03*
X002837Y014739D03*
X002837Y014424D03*
X002837Y014109D03*
X002837Y013794D03*
X002837Y013479D03*
X002837Y013164D03*
D13*
X006195Y022678D03*
X006195Y023278D03*
X006520Y023278D03*
X006820Y023278D03*
X007145Y023278D03*
X007145Y022678D03*
X006820Y022678D03*
X006520Y022678D03*
D14*
X006509Y020658D02*
X006509Y019978D01*
X006419Y019978D01*
X006419Y020658D01*
X006509Y020658D01*
X006509Y020007D02*
X006419Y020007D01*
X006419Y020036D02*
X006509Y020036D01*
X006509Y020065D02*
X006419Y020065D01*
X006419Y020094D02*
X006509Y020094D01*
X006509Y020123D02*
X006419Y020123D01*
X006419Y020152D02*
X006509Y020152D01*
X006509Y020181D02*
X006419Y020181D01*
X006419Y020210D02*
X006509Y020210D01*
X006509Y020239D02*
X006419Y020239D01*
X006419Y020268D02*
X006509Y020268D01*
X006509Y020297D02*
X006419Y020297D01*
X006419Y020326D02*
X006509Y020326D01*
X006509Y020355D02*
X006419Y020355D01*
X006419Y020384D02*
X006509Y020384D01*
X006509Y020413D02*
X006419Y020413D01*
X006419Y020442D02*
X006509Y020442D01*
X006509Y020471D02*
X006419Y020471D01*
X006419Y020500D02*
X006509Y020500D01*
X006509Y020529D02*
X006419Y020529D01*
X006419Y020558D02*
X006509Y020558D01*
X006509Y020587D02*
X006419Y020587D01*
X006419Y020616D02*
X006509Y020616D01*
X006509Y020645D02*
X006419Y020645D01*
X006351Y020658D02*
X006351Y019978D01*
X006261Y019978D01*
X006261Y020658D01*
X006351Y020658D01*
X006351Y020007D02*
X006261Y020007D01*
X006261Y020036D02*
X006351Y020036D01*
X006351Y020065D02*
X006261Y020065D01*
X006261Y020094D02*
X006351Y020094D01*
X006351Y020123D02*
X006261Y020123D01*
X006261Y020152D02*
X006351Y020152D01*
X006351Y020181D02*
X006261Y020181D01*
X006261Y020210D02*
X006351Y020210D01*
X006351Y020239D02*
X006261Y020239D01*
X006261Y020268D02*
X006351Y020268D01*
X006351Y020297D02*
X006261Y020297D01*
X006261Y020326D02*
X006351Y020326D01*
X006351Y020355D02*
X006261Y020355D01*
X006261Y020384D02*
X006351Y020384D01*
X006351Y020413D02*
X006261Y020413D01*
X006261Y020442D02*
X006351Y020442D01*
X006351Y020471D02*
X006261Y020471D01*
X006261Y020500D02*
X006351Y020500D01*
X006351Y020529D02*
X006261Y020529D01*
X006261Y020558D02*
X006351Y020558D01*
X006351Y020587D02*
X006261Y020587D01*
X006261Y020616D02*
X006351Y020616D01*
X006351Y020645D02*
X006261Y020645D01*
X006194Y020658D02*
X006194Y019978D01*
X006104Y019978D01*
X006104Y020658D01*
X006194Y020658D01*
X006194Y020007D02*
X006104Y020007D01*
X006104Y020036D02*
X006194Y020036D01*
X006194Y020065D02*
X006104Y020065D01*
X006104Y020094D02*
X006194Y020094D01*
X006194Y020123D02*
X006104Y020123D01*
X006104Y020152D02*
X006194Y020152D01*
X006194Y020181D02*
X006104Y020181D01*
X006104Y020210D02*
X006194Y020210D01*
X006194Y020239D02*
X006104Y020239D01*
X006104Y020268D02*
X006194Y020268D01*
X006194Y020297D02*
X006104Y020297D01*
X006104Y020326D02*
X006194Y020326D01*
X006194Y020355D02*
X006104Y020355D01*
X006104Y020384D02*
X006194Y020384D01*
X006194Y020413D02*
X006104Y020413D01*
X006104Y020442D02*
X006194Y020442D01*
X006194Y020471D02*
X006104Y020471D01*
X006104Y020500D02*
X006194Y020500D01*
X006194Y020529D02*
X006104Y020529D01*
X006104Y020558D02*
X006194Y020558D01*
X006194Y020587D02*
X006104Y020587D01*
X006104Y020616D02*
X006194Y020616D01*
X006194Y020645D02*
X006104Y020645D01*
X006036Y020658D02*
X006036Y019978D01*
X005946Y019978D01*
X005946Y020658D01*
X006036Y020658D01*
X006036Y020007D02*
X005946Y020007D01*
X005946Y020036D02*
X006036Y020036D01*
X006036Y020065D02*
X005946Y020065D01*
X005946Y020094D02*
X006036Y020094D01*
X006036Y020123D02*
X005946Y020123D01*
X005946Y020152D02*
X006036Y020152D01*
X006036Y020181D02*
X005946Y020181D01*
X005946Y020210D02*
X006036Y020210D01*
X006036Y020239D02*
X005946Y020239D01*
X005946Y020268D02*
X006036Y020268D01*
X006036Y020297D02*
X005946Y020297D01*
X005946Y020326D02*
X006036Y020326D01*
X006036Y020355D02*
X005946Y020355D01*
X005946Y020384D02*
X006036Y020384D01*
X006036Y020413D02*
X005946Y020413D01*
X005946Y020442D02*
X006036Y020442D01*
X006036Y020471D02*
X005946Y020471D01*
X005946Y020500D02*
X006036Y020500D01*
X006036Y020529D02*
X005946Y020529D01*
X005946Y020558D02*
X006036Y020558D01*
X006036Y020587D02*
X005946Y020587D01*
X005946Y020616D02*
X006036Y020616D01*
X006036Y020645D02*
X005946Y020645D01*
X005879Y020658D02*
X005879Y019978D01*
X005789Y019978D01*
X005789Y020658D01*
X005879Y020658D01*
X005879Y020007D02*
X005789Y020007D01*
X005789Y020036D02*
X005879Y020036D01*
X005879Y020065D02*
X005789Y020065D01*
X005789Y020094D02*
X005879Y020094D01*
X005879Y020123D02*
X005789Y020123D01*
X005789Y020152D02*
X005879Y020152D01*
X005879Y020181D02*
X005789Y020181D01*
X005789Y020210D02*
X005879Y020210D01*
X005879Y020239D02*
X005789Y020239D01*
X005789Y020268D02*
X005879Y020268D01*
X005879Y020297D02*
X005789Y020297D01*
X005789Y020326D02*
X005879Y020326D01*
X005879Y020355D02*
X005789Y020355D01*
X005789Y020384D02*
X005879Y020384D01*
X005879Y020413D02*
X005789Y020413D01*
X005789Y020442D02*
X005879Y020442D01*
X005879Y020471D02*
X005789Y020471D01*
X005789Y020500D02*
X005879Y020500D01*
X005879Y020529D02*
X005789Y020529D01*
X005789Y020558D02*
X005879Y020558D01*
X005879Y020587D02*
X005789Y020587D01*
X005789Y020616D02*
X005879Y020616D01*
X005879Y020645D02*
X005789Y020645D01*
X005721Y020658D02*
X005721Y019978D01*
X005631Y019978D01*
X005631Y020658D01*
X005721Y020658D01*
X005721Y020007D02*
X005631Y020007D01*
X005631Y020036D02*
X005721Y020036D01*
X005721Y020065D02*
X005631Y020065D01*
X005631Y020094D02*
X005721Y020094D01*
X005721Y020123D02*
X005631Y020123D01*
X005631Y020152D02*
X005721Y020152D01*
X005721Y020181D02*
X005631Y020181D01*
X005631Y020210D02*
X005721Y020210D01*
X005721Y020239D02*
X005631Y020239D01*
X005631Y020268D02*
X005721Y020268D01*
X005721Y020297D02*
X005631Y020297D01*
X005631Y020326D02*
X005721Y020326D01*
X005721Y020355D02*
X005631Y020355D01*
X005631Y020384D02*
X005721Y020384D01*
X005721Y020413D02*
X005631Y020413D01*
X005631Y020442D02*
X005721Y020442D01*
X005721Y020471D02*
X005631Y020471D01*
X005631Y020500D02*
X005721Y020500D01*
X005721Y020529D02*
X005631Y020529D01*
X005631Y020558D02*
X005721Y020558D01*
X005721Y020587D02*
X005631Y020587D01*
X005631Y020616D02*
X005721Y020616D01*
X005721Y020645D02*
X005631Y020645D01*
X005564Y020658D02*
X005564Y019978D01*
X005474Y019978D01*
X005474Y020658D01*
X005564Y020658D01*
X005564Y020007D02*
X005474Y020007D01*
X005474Y020036D02*
X005564Y020036D01*
X005564Y020065D02*
X005474Y020065D01*
X005474Y020094D02*
X005564Y020094D01*
X005564Y020123D02*
X005474Y020123D01*
X005474Y020152D02*
X005564Y020152D01*
X005564Y020181D02*
X005474Y020181D01*
X005474Y020210D02*
X005564Y020210D01*
X005564Y020239D02*
X005474Y020239D01*
X005474Y020268D02*
X005564Y020268D01*
X005564Y020297D02*
X005474Y020297D01*
X005474Y020326D02*
X005564Y020326D01*
X005564Y020355D02*
X005474Y020355D01*
X005474Y020384D02*
X005564Y020384D01*
X005564Y020413D02*
X005474Y020413D01*
X005474Y020442D02*
X005564Y020442D01*
X005564Y020471D02*
X005474Y020471D01*
X005474Y020500D02*
X005564Y020500D01*
X005564Y020529D02*
X005474Y020529D01*
X005474Y020558D02*
X005564Y020558D01*
X005564Y020587D02*
X005474Y020587D01*
X005474Y020616D02*
X005564Y020616D01*
X005564Y020645D02*
X005474Y020645D01*
X005406Y020658D02*
X005406Y019978D01*
X005316Y019978D01*
X005316Y020658D01*
X005406Y020658D01*
X005406Y020007D02*
X005316Y020007D01*
X005316Y020036D02*
X005406Y020036D01*
X005406Y020065D02*
X005316Y020065D01*
X005316Y020094D02*
X005406Y020094D01*
X005406Y020123D02*
X005316Y020123D01*
X005316Y020152D02*
X005406Y020152D01*
X005406Y020181D02*
X005316Y020181D01*
X005316Y020210D02*
X005406Y020210D01*
X005406Y020239D02*
X005316Y020239D01*
X005316Y020268D02*
X005406Y020268D01*
X005406Y020297D02*
X005316Y020297D01*
X005316Y020326D02*
X005406Y020326D01*
X005406Y020355D02*
X005316Y020355D01*
X005316Y020384D02*
X005406Y020384D01*
X005406Y020413D02*
X005316Y020413D01*
X005316Y020442D02*
X005406Y020442D01*
X005406Y020471D02*
X005316Y020471D01*
X005316Y020500D02*
X005406Y020500D01*
X005406Y020529D02*
X005316Y020529D01*
X005316Y020558D02*
X005406Y020558D01*
X005406Y020587D02*
X005316Y020587D01*
X005316Y020616D02*
X005406Y020616D01*
X005406Y020645D02*
X005316Y020645D01*
X005249Y020658D02*
X005249Y019978D01*
X005159Y019978D01*
X005159Y020658D01*
X005249Y020658D01*
X005249Y020007D02*
X005159Y020007D01*
X005159Y020036D02*
X005249Y020036D01*
X005249Y020065D02*
X005159Y020065D01*
X005159Y020094D02*
X005249Y020094D01*
X005249Y020123D02*
X005159Y020123D01*
X005159Y020152D02*
X005249Y020152D01*
X005249Y020181D02*
X005159Y020181D01*
X005159Y020210D02*
X005249Y020210D01*
X005249Y020239D02*
X005159Y020239D01*
X005159Y020268D02*
X005249Y020268D01*
X005249Y020297D02*
X005159Y020297D01*
X005159Y020326D02*
X005249Y020326D01*
X005249Y020355D02*
X005159Y020355D01*
X005159Y020384D02*
X005249Y020384D01*
X005249Y020413D02*
X005159Y020413D01*
X005159Y020442D02*
X005249Y020442D01*
X005249Y020471D02*
X005159Y020471D01*
X005159Y020500D02*
X005249Y020500D01*
X005249Y020529D02*
X005159Y020529D01*
X005159Y020558D02*
X005249Y020558D01*
X005249Y020587D02*
X005159Y020587D01*
X005159Y020616D02*
X005249Y020616D01*
X005249Y020645D02*
X005159Y020645D01*
X005091Y020658D02*
X005091Y019978D01*
X005001Y019978D01*
X005001Y020658D01*
X005091Y020658D01*
X005091Y020007D02*
X005001Y020007D01*
X005001Y020036D02*
X005091Y020036D01*
X005091Y020065D02*
X005001Y020065D01*
X005001Y020094D02*
X005091Y020094D01*
X005091Y020123D02*
X005001Y020123D01*
X005001Y020152D02*
X005091Y020152D01*
X005091Y020181D02*
X005001Y020181D01*
X005001Y020210D02*
X005091Y020210D01*
X005091Y020239D02*
X005001Y020239D01*
X005001Y020268D02*
X005091Y020268D01*
X005091Y020297D02*
X005001Y020297D01*
X005001Y020326D02*
X005091Y020326D01*
X005091Y020355D02*
X005001Y020355D01*
X005001Y020384D02*
X005091Y020384D01*
X005091Y020413D02*
X005001Y020413D01*
X005001Y020442D02*
X005091Y020442D01*
X005091Y020471D02*
X005001Y020471D01*
X005001Y020500D02*
X005091Y020500D01*
X005091Y020529D02*
X005001Y020529D01*
X005001Y020558D02*
X005091Y020558D01*
X005091Y020587D02*
X005001Y020587D01*
X005001Y020616D02*
X005091Y020616D01*
X005091Y020645D02*
X005001Y020645D01*
X004934Y020658D02*
X004934Y019978D01*
X004844Y019978D01*
X004844Y020658D01*
X004934Y020658D01*
X004934Y020007D02*
X004844Y020007D01*
X004844Y020036D02*
X004934Y020036D01*
X004934Y020065D02*
X004844Y020065D01*
X004844Y020094D02*
X004934Y020094D01*
X004934Y020123D02*
X004844Y020123D01*
X004844Y020152D02*
X004934Y020152D01*
X004934Y020181D02*
X004844Y020181D01*
X004844Y020210D02*
X004934Y020210D01*
X004934Y020239D02*
X004844Y020239D01*
X004844Y020268D02*
X004934Y020268D01*
X004934Y020297D02*
X004844Y020297D01*
X004844Y020326D02*
X004934Y020326D01*
X004934Y020355D02*
X004844Y020355D01*
X004844Y020384D02*
X004934Y020384D01*
X004934Y020413D02*
X004844Y020413D01*
X004844Y020442D02*
X004934Y020442D01*
X004934Y020471D02*
X004844Y020471D01*
X004844Y020500D02*
X004934Y020500D01*
X004934Y020529D02*
X004844Y020529D01*
X004844Y020558D02*
X004934Y020558D01*
X004934Y020587D02*
X004844Y020587D01*
X004844Y020616D02*
X004934Y020616D01*
X004934Y020645D02*
X004844Y020645D01*
X004776Y020658D02*
X004776Y019978D01*
X004686Y019978D01*
X004686Y020658D01*
X004776Y020658D01*
X004776Y020007D02*
X004686Y020007D01*
X004686Y020036D02*
X004776Y020036D01*
X004776Y020065D02*
X004686Y020065D01*
X004686Y020094D02*
X004776Y020094D01*
X004776Y020123D02*
X004686Y020123D01*
X004686Y020152D02*
X004776Y020152D01*
X004776Y020181D02*
X004686Y020181D01*
X004686Y020210D02*
X004776Y020210D01*
X004776Y020239D02*
X004686Y020239D01*
X004686Y020268D02*
X004776Y020268D01*
X004776Y020297D02*
X004686Y020297D01*
X004686Y020326D02*
X004776Y020326D01*
X004776Y020355D02*
X004686Y020355D01*
X004686Y020384D02*
X004776Y020384D01*
X004776Y020413D02*
X004686Y020413D01*
X004686Y020442D02*
X004776Y020442D01*
X004776Y020471D02*
X004686Y020471D01*
X004686Y020500D02*
X004776Y020500D01*
X004776Y020529D02*
X004686Y020529D01*
X004686Y020558D02*
X004776Y020558D01*
X004776Y020587D02*
X004686Y020587D01*
X004686Y020616D02*
X004776Y020616D01*
X004776Y020645D02*
X004686Y020645D01*
X004619Y020658D02*
X004619Y019978D01*
X004529Y019978D01*
X004529Y020658D01*
X004619Y020658D01*
X004619Y020007D02*
X004529Y020007D01*
X004529Y020036D02*
X004619Y020036D01*
X004619Y020065D02*
X004529Y020065D01*
X004529Y020094D02*
X004619Y020094D01*
X004619Y020123D02*
X004529Y020123D01*
X004529Y020152D02*
X004619Y020152D01*
X004619Y020181D02*
X004529Y020181D01*
X004529Y020210D02*
X004619Y020210D01*
X004619Y020239D02*
X004529Y020239D01*
X004529Y020268D02*
X004619Y020268D01*
X004619Y020297D02*
X004529Y020297D01*
X004529Y020326D02*
X004619Y020326D01*
X004619Y020355D02*
X004529Y020355D01*
X004529Y020384D02*
X004619Y020384D01*
X004619Y020413D02*
X004529Y020413D01*
X004529Y020442D02*
X004619Y020442D01*
X004619Y020471D02*
X004529Y020471D01*
X004529Y020500D02*
X004619Y020500D01*
X004619Y020529D02*
X004529Y020529D01*
X004529Y020558D02*
X004619Y020558D01*
X004619Y020587D02*
X004529Y020587D01*
X004529Y020616D02*
X004619Y020616D01*
X004619Y020645D02*
X004529Y020645D01*
X004461Y020658D02*
X004461Y019978D01*
X004371Y019978D01*
X004371Y020658D01*
X004461Y020658D01*
X004461Y020007D02*
X004371Y020007D01*
X004371Y020036D02*
X004461Y020036D01*
X004461Y020065D02*
X004371Y020065D01*
X004371Y020094D02*
X004461Y020094D01*
X004461Y020123D02*
X004371Y020123D01*
X004371Y020152D02*
X004461Y020152D01*
X004461Y020181D02*
X004371Y020181D01*
X004371Y020210D02*
X004461Y020210D01*
X004461Y020239D02*
X004371Y020239D01*
X004371Y020268D02*
X004461Y020268D01*
X004461Y020297D02*
X004371Y020297D01*
X004371Y020326D02*
X004461Y020326D01*
X004461Y020355D02*
X004371Y020355D01*
X004371Y020384D02*
X004461Y020384D01*
X004461Y020413D02*
X004371Y020413D01*
X004371Y020442D02*
X004461Y020442D01*
X004461Y020471D02*
X004371Y020471D01*
X004371Y020500D02*
X004461Y020500D01*
X004461Y020529D02*
X004371Y020529D01*
X004371Y020558D02*
X004461Y020558D01*
X004461Y020587D02*
X004371Y020587D01*
X004371Y020616D02*
X004461Y020616D01*
X004461Y020645D02*
X004371Y020645D01*
X004304Y020658D02*
X004304Y019978D01*
X004214Y019978D01*
X004214Y020658D01*
X004304Y020658D01*
X004304Y020007D02*
X004214Y020007D01*
X004214Y020036D02*
X004304Y020036D01*
X004304Y020065D02*
X004214Y020065D01*
X004214Y020094D02*
X004304Y020094D01*
X004304Y020123D02*
X004214Y020123D01*
X004214Y020152D02*
X004304Y020152D01*
X004304Y020181D02*
X004214Y020181D01*
X004214Y020210D02*
X004304Y020210D01*
X004304Y020239D02*
X004214Y020239D01*
X004214Y020268D02*
X004304Y020268D01*
X004304Y020297D02*
X004214Y020297D01*
X004214Y020326D02*
X004304Y020326D01*
X004304Y020355D02*
X004214Y020355D01*
X004214Y020384D02*
X004304Y020384D01*
X004304Y020413D02*
X004214Y020413D01*
X004214Y020442D02*
X004304Y020442D01*
X004304Y020471D02*
X004214Y020471D01*
X004214Y020500D02*
X004304Y020500D01*
X004304Y020529D02*
X004214Y020529D01*
X004214Y020558D02*
X004304Y020558D01*
X004304Y020587D02*
X004214Y020587D01*
X004214Y020616D02*
X004304Y020616D01*
X004304Y020645D02*
X004214Y020645D01*
X004146Y020658D02*
X004146Y019978D01*
X004056Y019978D01*
X004056Y020658D01*
X004146Y020658D01*
X004146Y020007D02*
X004056Y020007D01*
X004056Y020036D02*
X004146Y020036D01*
X004146Y020065D02*
X004056Y020065D01*
X004056Y020094D02*
X004146Y020094D01*
X004146Y020123D02*
X004056Y020123D01*
X004056Y020152D02*
X004146Y020152D01*
X004146Y020181D02*
X004056Y020181D01*
X004056Y020210D02*
X004146Y020210D01*
X004146Y020239D02*
X004056Y020239D01*
X004056Y020268D02*
X004146Y020268D01*
X004146Y020297D02*
X004056Y020297D01*
X004056Y020326D02*
X004146Y020326D01*
X004146Y020355D02*
X004056Y020355D01*
X004056Y020384D02*
X004146Y020384D01*
X004146Y020413D02*
X004056Y020413D01*
X004056Y020442D02*
X004146Y020442D01*
X004146Y020471D02*
X004056Y020471D01*
X004056Y020500D02*
X004146Y020500D01*
X004146Y020529D02*
X004056Y020529D01*
X004056Y020558D02*
X004146Y020558D01*
X004146Y020587D02*
X004056Y020587D01*
X004056Y020616D02*
X004146Y020616D01*
X004146Y020645D02*
X004056Y020645D01*
X003989Y020658D02*
X003989Y019978D01*
X003899Y019978D01*
X003899Y020658D01*
X003989Y020658D01*
X003989Y020007D02*
X003899Y020007D01*
X003899Y020036D02*
X003989Y020036D01*
X003989Y020065D02*
X003899Y020065D01*
X003899Y020094D02*
X003989Y020094D01*
X003989Y020123D02*
X003899Y020123D01*
X003899Y020152D02*
X003989Y020152D01*
X003989Y020181D02*
X003899Y020181D01*
X003899Y020210D02*
X003989Y020210D01*
X003989Y020239D02*
X003899Y020239D01*
X003899Y020268D02*
X003989Y020268D01*
X003989Y020297D02*
X003899Y020297D01*
X003899Y020326D02*
X003989Y020326D01*
X003989Y020355D02*
X003899Y020355D01*
X003899Y020384D02*
X003989Y020384D01*
X003989Y020413D02*
X003899Y020413D01*
X003899Y020442D02*
X003989Y020442D01*
X003989Y020471D02*
X003899Y020471D01*
X003899Y020500D02*
X003989Y020500D01*
X003989Y020529D02*
X003899Y020529D01*
X003899Y020558D02*
X003989Y020558D01*
X003989Y020587D02*
X003899Y020587D01*
X003899Y020616D02*
X003989Y020616D01*
X003989Y020645D02*
X003899Y020645D01*
X003831Y020658D02*
X003831Y019978D01*
X003741Y019978D01*
X003741Y020658D01*
X003831Y020658D01*
X003831Y020007D02*
X003741Y020007D01*
X003741Y020036D02*
X003831Y020036D01*
X003831Y020065D02*
X003741Y020065D01*
X003741Y020094D02*
X003831Y020094D01*
X003831Y020123D02*
X003741Y020123D01*
X003741Y020152D02*
X003831Y020152D01*
X003831Y020181D02*
X003741Y020181D01*
X003741Y020210D02*
X003831Y020210D01*
X003831Y020239D02*
X003741Y020239D01*
X003741Y020268D02*
X003831Y020268D01*
X003831Y020297D02*
X003741Y020297D01*
X003741Y020326D02*
X003831Y020326D01*
X003831Y020355D02*
X003741Y020355D01*
X003741Y020384D02*
X003831Y020384D01*
X003831Y020413D02*
X003741Y020413D01*
X003741Y020442D02*
X003831Y020442D01*
X003831Y020471D02*
X003741Y020471D01*
X003741Y020500D02*
X003831Y020500D01*
X003831Y020529D02*
X003741Y020529D01*
X003741Y020558D02*
X003831Y020558D01*
X003831Y020587D02*
X003741Y020587D01*
X003741Y020616D02*
X003831Y020616D01*
X003831Y020645D02*
X003741Y020645D01*
X003674Y020658D02*
X003674Y019978D01*
X003584Y019978D01*
X003584Y020658D01*
X003674Y020658D01*
X003674Y020007D02*
X003584Y020007D01*
X003584Y020036D02*
X003674Y020036D01*
X003674Y020065D02*
X003584Y020065D01*
X003584Y020094D02*
X003674Y020094D01*
X003674Y020123D02*
X003584Y020123D01*
X003584Y020152D02*
X003674Y020152D01*
X003674Y020181D02*
X003584Y020181D01*
X003584Y020210D02*
X003674Y020210D01*
X003674Y020239D02*
X003584Y020239D01*
X003584Y020268D02*
X003674Y020268D01*
X003674Y020297D02*
X003584Y020297D01*
X003584Y020326D02*
X003674Y020326D01*
X003674Y020355D02*
X003584Y020355D01*
X003584Y020384D02*
X003674Y020384D01*
X003674Y020413D02*
X003584Y020413D01*
X003584Y020442D02*
X003674Y020442D01*
X003674Y020471D02*
X003584Y020471D01*
X003584Y020500D02*
X003674Y020500D01*
X003674Y020529D02*
X003584Y020529D01*
X003584Y020558D02*
X003674Y020558D01*
X003674Y020587D02*
X003584Y020587D01*
X003584Y020616D02*
X003674Y020616D01*
X003674Y020645D02*
X003584Y020645D01*
X003516Y020658D02*
X003516Y019978D01*
X003426Y019978D01*
X003426Y020658D01*
X003516Y020658D01*
X003516Y020007D02*
X003426Y020007D01*
X003426Y020036D02*
X003516Y020036D01*
X003516Y020065D02*
X003426Y020065D01*
X003426Y020094D02*
X003516Y020094D01*
X003516Y020123D02*
X003426Y020123D01*
X003426Y020152D02*
X003516Y020152D01*
X003516Y020181D02*
X003426Y020181D01*
X003426Y020210D02*
X003516Y020210D01*
X003516Y020239D02*
X003426Y020239D01*
X003426Y020268D02*
X003516Y020268D01*
X003516Y020297D02*
X003426Y020297D01*
X003426Y020326D02*
X003516Y020326D01*
X003516Y020355D02*
X003426Y020355D01*
X003426Y020384D02*
X003516Y020384D01*
X003516Y020413D02*
X003426Y020413D01*
X003426Y020442D02*
X003516Y020442D01*
X003516Y020471D02*
X003426Y020471D01*
X003426Y020500D02*
X003516Y020500D01*
X003516Y020529D02*
X003426Y020529D01*
X003426Y020558D02*
X003516Y020558D01*
X003516Y020587D02*
X003426Y020587D01*
X003426Y020616D02*
X003516Y020616D01*
X003516Y020645D02*
X003426Y020645D01*
X003359Y020658D02*
X003359Y019978D01*
X003269Y019978D01*
X003269Y020658D01*
X003359Y020658D01*
X003359Y020007D02*
X003269Y020007D01*
X003269Y020036D02*
X003359Y020036D01*
X003359Y020065D02*
X003269Y020065D01*
X003269Y020094D02*
X003359Y020094D01*
X003359Y020123D02*
X003269Y020123D01*
X003269Y020152D02*
X003359Y020152D01*
X003359Y020181D02*
X003269Y020181D01*
X003269Y020210D02*
X003359Y020210D01*
X003359Y020239D02*
X003269Y020239D01*
X003269Y020268D02*
X003359Y020268D01*
X003359Y020297D02*
X003269Y020297D01*
X003269Y020326D02*
X003359Y020326D01*
X003359Y020355D02*
X003269Y020355D01*
X003269Y020384D02*
X003359Y020384D01*
X003359Y020413D02*
X003269Y020413D01*
X003269Y020442D02*
X003359Y020442D01*
X003359Y020471D02*
X003269Y020471D01*
X003269Y020500D02*
X003359Y020500D01*
X003359Y020529D02*
X003269Y020529D01*
X003269Y020558D02*
X003359Y020558D01*
X003359Y020587D02*
X003269Y020587D01*
X003269Y020616D02*
X003359Y020616D01*
X003359Y020645D02*
X003269Y020645D01*
X003201Y020658D02*
X003201Y019978D01*
X003111Y019978D01*
X003111Y020658D01*
X003201Y020658D01*
X003201Y020007D02*
X003111Y020007D01*
X003111Y020036D02*
X003201Y020036D01*
X003201Y020065D02*
X003111Y020065D01*
X003111Y020094D02*
X003201Y020094D01*
X003201Y020123D02*
X003111Y020123D01*
X003111Y020152D02*
X003201Y020152D01*
X003201Y020181D02*
X003111Y020181D01*
X003111Y020210D02*
X003201Y020210D01*
X003201Y020239D02*
X003111Y020239D01*
X003111Y020268D02*
X003201Y020268D01*
X003201Y020297D02*
X003111Y020297D01*
X003111Y020326D02*
X003201Y020326D01*
X003201Y020355D02*
X003111Y020355D01*
X003111Y020384D02*
X003201Y020384D01*
X003201Y020413D02*
X003111Y020413D01*
X003111Y020442D02*
X003201Y020442D01*
X003201Y020471D02*
X003111Y020471D01*
X003111Y020500D02*
X003201Y020500D01*
X003201Y020529D02*
X003111Y020529D01*
X003111Y020558D02*
X003201Y020558D01*
X003201Y020587D02*
X003111Y020587D01*
X003111Y020616D02*
X003201Y020616D01*
X003201Y020645D02*
X003111Y020645D01*
X003044Y020658D02*
X003044Y019978D01*
X002954Y019978D01*
X002954Y020658D01*
X003044Y020658D01*
X003044Y020007D02*
X002954Y020007D01*
X002954Y020036D02*
X003044Y020036D01*
X003044Y020065D02*
X002954Y020065D01*
X002954Y020094D02*
X003044Y020094D01*
X003044Y020123D02*
X002954Y020123D01*
X002954Y020152D02*
X003044Y020152D01*
X003044Y020181D02*
X002954Y020181D01*
X002954Y020210D02*
X003044Y020210D01*
X003044Y020239D02*
X002954Y020239D01*
X002954Y020268D02*
X003044Y020268D01*
X003044Y020297D02*
X002954Y020297D01*
X002954Y020326D02*
X003044Y020326D01*
X003044Y020355D02*
X002954Y020355D01*
X002954Y020384D02*
X003044Y020384D01*
X003044Y020413D02*
X002954Y020413D01*
X002954Y020442D02*
X003044Y020442D01*
X003044Y020471D02*
X002954Y020471D01*
X002954Y020500D02*
X003044Y020500D01*
X003044Y020529D02*
X002954Y020529D01*
X002954Y020558D02*
X003044Y020558D01*
X003044Y020587D02*
X002954Y020587D01*
X002954Y020616D02*
X003044Y020616D01*
X003044Y020645D02*
X002954Y020645D01*
X002886Y020658D02*
X002886Y019978D01*
X002796Y019978D01*
X002796Y020658D01*
X002886Y020658D01*
X002886Y020007D02*
X002796Y020007D01*
X002796Y020036D02*
X002886Y020036D01*
X002886Y020065D02*
X002796Y020065D01*
X002796Y020094D02*
X002886Y020094D01*
X002886Y020123D02*
X002796Y020123D01*
X002796Y020152D02*
X002886Y020152D01*
X002886Y020181D02*
X002796Y020181D01*
X002796Y020210D02*
X002886Y020210D01*
X002886Y020239D02*
X002796Y020239D01*
X002796Y020268D02*
X002886Y020268D01*
X002886Y020297D02*
X002796Y020297D01*
X002796Y020326D02*
X002886Y020326D01*
X002886Y020355D02*
X002796Y020355D01*
X002796Y020384D02*
X002886Y020384D01*
X002886Y020413D02*
X002796Y020413D01*
X002796Y020442D02*
X002886Y020442D01*
X002886Y020471D02*
X002796Y020471D01*
X002796Y020500D02*
X002886Y020500D01*
X002886Y020529D02*
X002796Y020529D01*
X002796Y020558D02*
X002886Y020558D01*
X002886Y020587D02*
X002796Y020587D01*
X002796Y020616D02*
X002886Y020616D01*
X002886Y020645D02*
X002796Y020645D01*
X002729Y020658D02*
X002729Y019978D01*
X002639Y019978D01*
X002639Y020658D01*
X002729Y020658D01*
X002729Y020007D02*
X002639Y020007D01*
X002639Y020036D02*
X002729Y020036D01*
X002729Y020065D02*
X002639Y020065D01*
X002639Y020094D02*
X002729Y020094D01*
X002729Y020123D02*
X002639Y020123D01*
X002639Y020152D02*
X002729Y020152D01*
X002729Y020181D02*
X002639Y020181D01*
X002639Y020210D02*
X002729Y020210D01*
X002729Y020239D02*
X002639Y020239D01*
X002639Y020268D02*
X002729Y020268D01*
X002729Y020297D02*
X002639Y020297D01*
X002639Y020326D02*
X002729Y020326D01*
X002729Y020355D02*
X002639Y020355D01*
X002639Y020384D02*
X002729Y020384D01*
X002729Y020413D02*
X002639Y020413D01*
X002639Y020442D02*
X002729Y020442D01*
X002729Y020471D02*
X002639Y020471D01*
X002639Y020500D02*
X002729Y020500D01*
X002729Y020529D02*
X002639Y020529D01*
X002639Y020558D02*
X002729Y020558D01*
X002729Y020587D02*
X002639Y020587D01*
X002639Y020616D02*
X002729Y020616D01*
X002729Y020645D02*
X002639Y020645D01*
X002729Y018398D02*
X002729Y017718D01*
X002639Y017718D01*
X002639Y018398D01*
X002729Y018398D01*
X002729Y017747D02*
X002639Y017747D01*
X002639Y017776D02*
X002729Y017776D01*
X002729Y017805D02*
X002639Y017805D01*
X002639Y017834D02*
X002729Y017834D01*
X002729Y017863D02*
X002639Y017863D01*
X002639Y017892D02*
X002729Y017892D01*
X002729Y017921D02*
X002639Y017921D01*
X002639Y017950D02*
X002729Y017950D01*
X002729Y017979D02*
X002639Y017979D01*
X002639Y018008D02*
X002729Y018008D01*
X002729Y018037D02*
X002639Y018037D01*
X002639Y018066D02*
X002729Y018066D01*
X002729Y018095D02*
X002639Y018095D01*
X002639Y018124D02*
X002729Y018124D01*
X002729Y018153D02*
X002639Y018153D01*
X002639Y018182D02*
X002729Y018182D01*
X002729Y018211D02*
X002639Y018211D01*
X002639Y018240D02*
X002729Y018240D01*
X002729Y018269D02*
X002639Y018269D01*
X002639Y018298D02*
X002729Y018298D01*
X002729Y018327D02*
X002639Y018327D01*
X002639Y018356D02*
X002729Y018356D01*
X002729Y018385D02*
X002639Y018385D01*
X002886Y018398D02*
X002886Y017718D01*
X002796Y017718D01*
X002796Y018398D01*
X002886Y018398D01*
X002886Y017747D02*
X002796Y017747D01*
X002796Y017776D02*
X002886Y017776D01*
X002886Y017805D02*
X002796Y017805D01*
X002796Y017834D02*
X002886Y017834D01*
X002886Y017863D02*
X002796Y017863D01*
X002796Y017892D02*
X002886Y017892D01*
X002886Y017921D02*
X002796Y017921D01*
X002796Y017950D02*
X002886Y017950D01*
X002886Y017979D02*
X002796Y017979D01*
X002796Y018008D02*
X002886Y018008D01*
X002886Y018037D02*
X002796Y018037D01*
X002796Y018066D02*
X002886Y018066D01*
X002886Y018095D02*
X002796Y018095D01*
X002796Y018124D02*
X002886Y018124D01*
X002886Y018153D02*
X002796Y018153D01*
X002796Y018182D02*
X002886Y018182D01*
X002886Y018211D02*
X002796Y018211D01*
X002796Y018240D02*
X002886Y018240D01*
X002886Y018269D02*
X002796Y018269D01*
X002796Y018298D02*
X002886Y018298D01*
X002886Y018327D02*
X002796Y018327D01*
X002796Y018356D02*
X002886Y018356D01*
X002886Y018385D02*
X002796Y018385D01*
X003044Y018398D02*
X003044Y017718D01*
X002954Y017718D01*
X002954Y018398D01*
X003044Y018398D01*
X003044Y017747D02*
X002954Y017747D01*
X002954Y017776D02*
X003044Y017776D01*
X003044Y017805D02*
X002954Y017805D01*
X002954Y017834D02*
X003044Y017834D01*
X003044Y017863D02*
X002954Y017863D01*
X002954Y017892D02*
X003044Y017892D01*
X003044Y017921D02*
X002954Y017921D01*
X002954Y017950D02*
X003044Y017950D01*
X003044Y017979D02*
X002954Y017979D01*
X002954Y018008D02*
X003044Y018008D01*
X003044Y018037D02*
X002954Y018037D01*
X002954Y018066D02*
X003044Y018066D01*
X003044Y018095D02*
X002954Y018095D01*
X002954Y018124D02*
X003044Y018124D01*
X003044Y018153D02*
X002954Y018153D01*
X002954Y018182D02*
X003044Y018182D01*
X003044Y018211D02*
X002954Y018211D01*
X002954Y018240D02*
X003044Y018240D01*
X003044Y018269D02*
X002954Y018269D01*
X002954Y018298D02*
X003044Y018298D01*
X003044Y018327D02*
X002954Y018327D01*
X002954Y018356D02*
X003044Y018356D01*
X003044Y018385D02*
X002954Y018385D01*
X003201Y018398D02*
X003201Y017718D01*
X003111Y017718D01*
X003111Y018398D01*
X003201Y018398D01*
X003201Y017747D02*
X003111Y017747D01*
X003111Y017776D02*
X003201Y017776D01*
X003201Y017805D02*
X003111Y017805D01*
X003111Y017834D02*
X003201Y017834D01*
X003201Y017863D02*
X003111Y017863D01*
X003111Y017892D02*
X003201Y017892D01*
X003201Y017921D02*
X003111Y017921D01*
X003111Y017950D02*
X003201Y017950D01*
X003201Y017979D02*
X003111Y017979D01*
X003111Y018008D02*
X003201Y018008D01*
X003201Y018037D02*
X003111Y018037D01*
X003111Y018066D02*
X003201Y018066D01*
X003201Y018095D02*
X003111Y018095D01*
X003111Y018124D02*
X003201Y018124D01*
X003201Y018153D02*
X003111Y018153D01*
X003111Y018182D02*
X003201Y018182D01*
X003201Y018211D02*
X003111Y018211D01*
X003111Y018240D02*
X003201Y018240D01*
X003201Y018269D02*
X003111Y018269D01*
X003111Y018298D02*
X003201Y018298D01*
X003201Y018327D02*
X003111Y018327D01*
X003111Y018356D02*
X003201Y018356D01*
X003201Y018385D02*
X003111Y018385D01*
X003359Y018398D02*
X003359Y017718D01*
X003269Y017718D01*
X003269Y018398D01*
X003359Y018398D01*
X003359Y017747D02*
X003269Y017747D01*
X003269Y017776D02*
X003359Y017776D01*
X003359Y017805D02*
X003269Y017805D01*
X003269Y017834D02*
X003359Y017834D01*
X003359Y017863D02*
X003269Y017863D01*
X003269Y017892D02*
X003359Y017892D01*
X003359Y017921D02*
X003269Y017921D01*
X003269Y017950D02*
X003359Y017950D01*
X003359Y017979D02*
X003269Y017979D01*
X003269Y018008D02*
X003359Y018008D01*
X003359Y018037D02*
X003269Y018037D01*
X003269Y018066D02*
X003359Y018066D01*
X003359Y018095D02*
X003269Y018095D01*
X003269Y018124D02*
X003359Y018124D01*
X003359Y018153D02*
X003269Y018153D01*
X003269Y018182D02*
X003359Y018182D01*
X003359Y018211D02*
X003269Y018211D01*
X003269Y018240D02*
X003359Y018240D01*
X003359Y018269D02*
X003269Y018269D01*
X003269Y018298D02*
X003359Y018298D01*
X003359Y018327D02*
X003269Y018327D01*
X003269Y018356D02*
X003359Y018356D01*
X003359Y018385D02*
X003269Y018385D01*
X003516Y018398D02*
X003516Y017718D01*
X003426Y017718D01*
X003426Y018398D01*
X003516Y018398D01*
X003516Y017747D02*
X003426Y017747D01*
X003426Y017776D02*
X003516Y017776D01*
X003516Y017805D02*
X003426Y017805D01*
X003426Y017834D02*
X003516Y017834D01*
X003516Y017863D02*
X003426Y017863D01*
X003426Y017892D02*
X003516Y017892D01*
X003516Y017921D02*
X003426Y017921D01*
X003426Y017950D02*
X003516Y017950D01*
X003516Y017979D02*
X003426Y017979D01*
X003426Y018008D02*
X003516Y018008D01*
X003516Y018037D02*
X003426Y018037D01*
X003426Y018066D02*
X003516Y018066D01*
X003516Y018095D02*
X003426Y018095D01*
X003426Y018124D02*
X003516Y018124D01*
X003516Y018153D02*
X003426Y018153D01*
X003426Y018182D02*
X003516Y018182D01*
X003516Y018211D02*
X003426Y018211D01*
X003426Y018240D02*
X003516Y018240D01*
X003516Y018269D02*
X003426Y018269D01*
X003426Y018298D02*
X003516Y018298D01*
X003516Y018327D02*
X003426Y018327D01*
X003426Y018356D02*
X003516Y018356D01*
X003516Y018385D02*
X003426Y018385D01*
X003674Y018398D02*
X003674Y017718D01*
X003584Y017718D01*
X003584Y018398D01*
X003674Y018398D01*
X003674Y017747D02*
X003584Y017747D01*
X003584Y017776D02*
X003674Y017776D01*
X003674Y017805D02*
X003584Y017805D01*
X003584Y017834D02*
X003674Y017834D01*
X003674Y017863D02*
X003584Y017863D01*
X003584Y017892D02*
X003674Y017892D01*
X003674Y017921D02*
X003584Y017921D01*
X003584Y017950D02*
X003674Y017950D01*
X003674Y017979D02*
X003584Y017979D01*
X003584Y018008D02*
X003674Y018008D01*
X003674Y018037D02*
X003584Y018037D01*
X003584Y018066D02*
X003674Y018066D01*
X003674Y018095D02*
X003584Y018095D01*
X003584Y018124D02*
X003674Y018124D01*
X003674Y018153D02*
X003584Y018153D01*
X003584Y018182D02*
X003674Y018182D01*
X003674Y018211D02*
X003584Y018211D01*
X003584Y018240D02*
X003674Y018240D01*
X003674Y018269D02*
X003584Y018269D01*
X003584Y018298D02*
X003674Y018298D01*
X003674Y018327D02*
X003584Y018327D01*
X003584Y018356D02*
X003674Y018356D01*
X003674Y018385D02*
X003584Y018385D01*
X003831Y018398D02*
X003831Y017718D01*
X003741Y017718D01*
X003741Y018398D01*
X003831Y018398D01*
X003831Y017747D02*
X003741Y017747D01*
X003741Y017776D02*
X003831Y017776D01*
X003831Y017805D02*
X003741Y017805D01*
X003741Y017834D02*
X003831Y017834D01*
X003831Y017863D02*
X003741Y017863D01*
X003741Y017892D02*
X003831Y017892D01*
X003831Y017921D02*
X003741Y017921D01*
X003741Y017950D02*
X003831Y017950D01*
X003831Y017979D02*
X003741Y017979D01*
X003741Y018008D02*
X003831Y018008D01*
X003831Y018037D02*
X003741Y018037D01*
X003741Y018066D02*
X003831Y018066D01*
X003831Y018095D02*
X003741Y018095D01*
X003741Y018124D02*
X003831Y018124D01*
X003831Y018153D02*
X003741Y018153D01*
X003741Y018182D02*
X003831Y018182D01*
X003831Y018211D02*
X003741Y018211D01*
X003741Y018240D02*
X003831Y018240D01*
X003831Y018269D02*
X003741Y018269D01*
X003741Y018298D02*
X003831Y018298D01*
X003831Y018327D02*
X003741Y018327D01*
X003741Y018356D02*
X003831Y018356D01*
X003831Y018385D02*
X003741Y018385D01*
X003989Y018398D02*
X003989Y017718D01*
X003899Y017718D01*
X003899Y018398D01*
X003989Y018398D01*
X003989Y017747D02*
X003899Y017747D01*
X003899Y017776D02*
X003989Y017776D01*
X003989Y017805D02*
X003899Y017805D01*
X003899Y017834D02*
X003989Y017834D01*
X003989Y017863D02*
X003899Y017863D01*
X003899Y017892D02*
X003989Y017892D01*
X003989Y017921D02*
X003899Y017921D01*
X003899Y017950D02*
X003989Y017950D01*
X003989Y017979D02*
X003899Y017979D01*
X003899Y018008D02*
X003989Y018008D01*
X003989Y018037D02*
X003899Y018037D01*
X003899Y018066D02*
X003989Y018066D01*
X003989Y018095D02*
X003899Y018095D01*
X003899Y018124D02*
X003989Y018124D01*
X003989Y018153D02*
X003899Y018153D01*
X003899Y018182D02*
X003989Y018182D01*
X003989Y018211D02*
X003899Y018211D01*
X003899Y018240D02*
X003989Y018240D01*
X003989Y018269D02*
X003899Y018269D01*
X003899Y018298D02*
X003989Y018298D01*
X003989Y018327D02*
X003899Y018327D01*
X003899Y018356D02*
X003989Y018356D01*
X003989Y018385D02*
X003899Y018385D01*
X004146Y018398D02*
X004146Y017718D01*
X004056Y017718D01*
X004056Y018398D01*
X004146Y018398D01*
X004146Y017747D02*
X004056Y017747D01*
X004056Y017776D02*
X004146Y017776D01*
X004146Y017805D02*
X004056Y017805D01*
X004056Y017834D02*
X004146Y017834D01*
X004146Y017863D02*
X004056Y017863D01*
X004056Y017892D02*
X004146Y017892D01*
X004146Y017921D02*
X004056Y017921D01*
X004056Y017950D02*
X004146Y017950D01*
X004146Y017979D02*
X004056Y017979D01*
X004056Y018008D02*
X004146Y018008D01*
X004146Y018037D02*
X004056Y018037D01*
X004056Y018066D02*
X004146Y018066D01*
X004146Y018095D02*
X004056Y018095D01*
X004056Y018124D02*
X004146Y018124D01*
X004146Y018153D02*
X004056Y018153D01*
X004056Y018182D02*
X004146Y018182D01*
X004146Y018211D02*
X004056Y018211D01*
X004056Y018240D02*
X004146Y018240D01*
X004146Y018269D02*
X004056Y018269D01*
X004056Y018298D02*
X004146Y018298D01*
X004146Y018327D02*
X004056Y018327D01*
X004056Y018356D02*
X004146Y018356D01*
X004146Y018385D02*
X004056Y018385D01*
X004304Y018398D02*
X004304Y017718D01*
X004214Y017718D01*
X004214Y018398D01*
X004304Y018398D01*
X004304Y017747D02*
X004214Y017747D01*
X004214Y017776D02*
X004304Y017776D01*
X004304Y017805D02*
X004214Y017805D01*
X004214Y017834D02*
X004304Y017834D01*
X004304Y017863D02*
X004214Y017863D01*
X004214Y017892D02*
X004304Y017892D01*
X004304Y017921D02*
X004214Y017921D01*
X004214Y017950D02*
X004304Y017950D01*
X004304Y017979D02*
X004214Y017979D01*
X004214Y018008D02*
X004304Y018008D01*
X004304Y018037D02*
X004214Y018037D01*
X004214Y018066D02*
X004304Y018066D01*
X004304Y018095D02*
X004214Y018095D01*
X004214Y018124D02*
X004304Y018124D01*
X004304Y018153D02*
X004214Y018153D01*
X004214Y018182D02*
X004304Y018182D01*
X004304Y018211D02*
X004214Y018211D01*
X004214Y018240D02*
X004304Y018240D01*
X004304Y018269D02*
X004214Y018269D01*
X004214Y018298D02*
X004304Y018298D01*
X004304Y018327D02*
X004214Y018327D01*
X004214Y018356D02*
X004304Y018356D01*
X004304Y018385D02*
X004214Y018385D01*
X004461Y018398D02*
X004461Y017718D01*
X004371Y017718D01*
X004371Y018398D01*
X004461Y018398D01*
X004461Y017747D02*
X004371Y017747D01*
X004371Y017776D02*
X004461Y017776D01*
X004461Y017805D02*
X004371Y017805D01*
X004371Y017834D02*
X004461Y017834D01*
X004461Y017863D02*
X004371Y017863D01*
X004371Y017892D02*
X004461Y017892D01*
X004461Y017921D02*
X004371Y017921D01*
X004371Y017950D02*
X004461Y017950D01*
X004461Y017979D02*
X004371Y017979D01*
X004371Y018008D02*
X004461Y018008D01*
X004461Y018037D02*
X004371Y018037D01*
X004371Y018066D02*
X004461Y018066D01*
X004461Y018095D02*
X004371Y018095D01*
X004371Y018124D02*
X004461Y018124D01*
X004461Y018153D02*
X004371Y018153D01*
X004371Y018182D02*
X004461Y018182D01*
X004461Y018211D02*
X004371Y018211D01*
X004371Y018240D02*
X004461Y018240D01*
X004461Y018269D02*
X004371Y018269D01*
X004371Y018298D02*
X004461Y018298D01*
X004461Y018327D02*
X004371Y018327D01*
X004371Y018356D02*
X004461Y018356D01*
X004461Y018385D02*
X004371Y018385D01*
X004619Y018398D02*
X004619Y017718D01*
X004529Y017718D01*
X004529Y018398D01*
X004619Y018398D01*
X004619Y017747D02*
X004529Y017747D01*
X004529Y017776D02*
X004619Y017776D01*
X004619Y017805D02*
X004529Y017805D01*
X004529Y017834D02*
X004619Y017834D01*
X004619Y017863D02*
X004529Y017863D01*
X004529Y017892D02*
X004619Y017892D01*
X004619Y017921D02*
X004529Y017921D01*
X004529Y017950D02*
X004619Y017950D01*
X004619Y017979D02*
X004529Y017979D01*
X004529Y018008D02*
X004619Y018008D01*
X004619Y018037D02*
X004529Y018037D01*
X004529Y018066D02*
X004619Y018066D01*
X004619Y018095D02*
X004529Y018095D01*
X004529Y018124D02*
X004619Y018124D01*
X004619Y018153D02*
X004529Y018153D01*
X004529Y018182D02*
X004619Y018182D01*
X004619Y018211D02*
X004529Y018211D01*
X004529Y018240D02*
X004619Y018240D01*
X004619Y018269D02*
X004529Y018269D01*
X004529Y018298D02*
X004619Y018298D01*
X004619Y018327D02*
X004529Y018327D01*
X004529Y018356D02*
X004619Y018356D01*
X004619Y018385D02*
X004529Y018385D01*
X004776Y018398D02*
X004776Y017718D01*
X004686Y017718D01*
X004686Y018398D01*
X004776Y018398D01*
X004776Y017747D02*
X004686Y017747D01*
X004686Y017776D02*
X004776Y017776D01*
X004776Y017805D02*
X004686Y017805D01*
X004686Y017834D02*
X004776Y017834D01*
X004776Y017863D02*
X004686Y017863D01*
X004686Y017892D02*
X004776Y017892D01*
X004776Y017921D02*
X004686Y017921D01*
X004686Y017950D02*
X004776Y017950D01*
X004776Y017979D02*
X004686Y017979D01*
X004686Y018008D02*
X004776Y018008D01*
X004776Y018037D02*
X004686Y018037D01*
X004686Y018066D02*
X004776Y018066D01*
X004776Y018095D02*
X004686Y018095D01*
X004686Y018124D02*
X004776Y018124D01*
X004776Y018153D02*
X004686Y018153D01*
X004686Y018182D02*
X004776Y018182D01*
X004776Y018211D02*
X004686Y018211D01*
X004686Y018240D02*
X004776Y018240D01*
X004776Y018269D02*
X004686Y018269D01*
X004686Y018298D02*
X004776Y018298D01*
X004776Y018327D02*
X004686Y018327D01*
X004686Y018356D02*
X004776Y018356D01*
X004776Y018385D02*
X004686Y018385D01*
X004934Y018398D02*
X004934Y017718D01*
X004844Y017718D01*
X004844Y018398D01*
X004934Y018398D01*
X004934Y017747D02*
X004844Y017747D01*
X004844Y017776D02*
X004934Y017776D01*
X004934Y017805D02*
X004844Y017805D01*
X004844Y017834D02*
X004934Y017834D01*
X004934Y017863D02*
X004844Y017863D01*
X004844Y017892D02*
X004934Y017892D01*
X004934Y017921D02*
X004844Y017921D01*
X004844Y017950D02*
X004934Y017950D01*
X004934Y017979D02*
X004844Y017979D01*
X004844Y018008D02*
X004934Y018008D01*
X004934Y018037D02*
X004844Y018037D01*
X004844Y018066D02*
X004934Y018066D01*
X004934Y018095D02*
X004844Y018095D01*
X004844Y018124D02*
X004934Y018124D01*
X004934Y018153D02*
X004844Y018153D01*
X004844Y018182D02*
X004934Y018182D01*
X004934Y018211D02*
X004844Y018211D01*
X004844Y018240D02*
X004934Y018240D01*
X004934Y018269D02*
X004844Y018269D01*
X004844Y018298D02*
X004934Y018298D01*
X004934Y018327D02*
X004844Y018327D01*
X004844Y018356D02*
X004934Y018356D01*
X004934Y018385D02*
X004844Y018385D01*
X005091Y018398D02*
X005091Y017718D01*
X005001Y017718D01*
X005001Y018398D01*
X005091Y018398D01*
X005091Y017747D02*
X005001Y017747D01*
X005001Y017776D02*
X005091Y017776D01*
X005091Y017805D02*
X005001Y017805D01*
X005001Y017834D02*
X005091Y017834D01*
X005091Y017863D02*
X005001Y017863D01*
X005001Y017892D02*
X005091Y017892D01*
X005091Y017921D02*
X005001Y017921D01*
X005001Y017950D02*
X005091Y017950D01*
X005091Y017979D02*
X005001Y017979D01*
X005001Y018008D02*
X005091Y018008D01*
X005091Y018037D02*
X005001Y018037D01*
X005001Y018066D02*
X005091Y018066D01*
X005091Y018095D02*
X005001Y018095D01*
X005001Y018124D02*
X005091Y018124D01*
X005091Y018153D02*
X005001Y018153D01*
X005001Y018182D02*
X005091Y018182D01*
X005091Y018211D02*
X005001Y018211D01*
X005001Y018240D02*
X005091Y018240D01*
X005091Y018269D02*
X005001Y018269D01*
X005001Y018298D02*
X005091Y018298D01*
X005091Y018327D02*
X005001Y018327D01*
X005001Y018356D02*
X005091Y018356D01*
X005091Y018385D02*
X005001Y018385D01*
X005249Y018398D02*
X005249Y017718D01*
X005159Y017718D01*
X005159Y018398D01*
X005249Y018398D01*
X005249Y017747D02*
X005159Y017747D01*
X005159Y017776D02*
X005249Y017776D01*
X005249Y017805D02*
X005159Y017805D01*
X005159Y017834D02*
X005249Y017834D01*
X005249Y017863D02*
X005159Y017863D01*
X005159Y017892D02*
X005249Y017892D01*
X005249Y017921D02*
X005159Y017921D01*
X005159Y017950D02*
X005249Y017950D01*
X005249Y017979D02*
X005159Y017979D01*
X005159Y018008D02*
X005249Y018008D01*
X005249Y018037D02*
X005159Y018037D01*
X005159Y018066D02*
X005249Y018066D01*
X005249Y018095D02*
X005159Y018095D01*
X005159Y018124D02*
X005249Y018124D01*
X005249Y018153D02*
X005159Y018153D01*
X005159Y018182D02*
X005249Y018182D01*
X005249Y018211D02*
X005159Y018211D01*
X005159Y018240D02*
X005249Y018240D01*
X005249Y018269D02*
X005159Y018269D01*
X005159Y018298D02*
X005249Y018298D01*
X005249Y018327D02*
X005159Y018327D01*
X005159Y018356D02*
X005249Y018356D01*
X005249Y018385D02*
X005159Y018385D01*
X005406Y018398D02*
X005406Y017718D01*
X005316Y017718D01*
X005316Y018398D01*
X005406Y018398D01*
X005406Y017747D02*
X005316Y017747D01*
X005316Y017776D02*
X005406Y017776D01*
X005406Y017805D02*
X005316Y017805D01*
X005316Y017834D02*
X005406Y017834D01*
X005406Y017863D02*
X005316Y017863D01*
X005316Y017892D02*
X005406Y017892D01*
X005406Y017921D02*
X005316Y017921D01*
X005316Y017950D02*
X005406Y017950D01*
X005406Y017979D02*
X005316Y017979D01*
X005316Y018008D02*
X005406Y018008D01*
X005406Y018037D02*
X005316Y018037D01*
X005316Y018066D02*
X005406Y018066D01*
X005406Y018095D02*
X005316Y018095D01*
X005316Y018124D02*
X005406Y018124D01*
X005406Y018153D02*
X005316Y018153D01*
X005316Y018182D02*
X005406Y018182D01*
X005406Y018211D02*
X005316Y018211D01*
X005316Y018240D02*
X005406Y018240D01*
X005406Y018269D02*
X005316Y018269D01*
X005316Y018298D02*
X005406Y018298D01*
X005406Y018327D02*
X005316Y018327D01*
X005316Y018356D02*
X005406Y018356D01*
X005406Y018385D02*
X005316Y018385D01*
X005564Y018398D02*
X005564Y017718D01*
X005474Y017718D01*
X005474Y018398D01*
X005564Y018398D01*
X005564Y017747D02*
X005474Y017747D01*
X005474Y017776D02*
X005564Y017776D01*
X005564Y017805D02*
X005474Y017805D01*
X005474Y017834D02*
X005564Y017834D01*
X005564Y017863D02*
X005474Y017863D01*
X005474Y017892D02*
X005564Y017892D01*
X005564Y017921D02*
X005474Y017921D01*
X005474Y017950D02*
X005564Y017950D01*
X005564Y017979D02*
X005474Y017979D01*
X005474Y018008D02*
X005564Y018008D01*
X005564Y018037D02*
X005474Y018037D01*
X005474Y018066D02*
X005564Y018066D01*
X005564Y018095D02*
X005474Y018095D01*
X005474Y018124D02*
X005564Y018124D01*
X005564Y018153D02*
X005474Y018153D01*
X005474Y018182D02*
X005564Y018182D01*
X005564Y018211D02*
X005474Y018211D01*
X005474Y018240D02*
X005564Y018240D01*
X005564Y018269D02*
X005474Y018269D01*
X005474Y018298D02*
X005564Y018298D01*
X005564Y018327D02*
X005474Y018327D01*
X005474Y018356D02*
X005564Y018356D01*
X005564Y018385D02*
X005474Y018385D01*
X005721Y018398D02*
X005721Y017718D01*
X005631Y017718D01*
X005631Y018398D01*
X005721Y018398D01*
X005721Y017747D02*
X005631Y017747D01*
X005631Y017776D02*
X005721Y017776D01*
X005721Y017805D02*
X005631Y017805D01*
X005631Y017834D02*
X005721Y017834D01*
X005721Y017863D02*
X005631Y017863D01*
X005631Y017892D02*
X005721Y017892D01*
X005721Y017921D02*
X005631Y017921D01*
X005631Y017950D02*
X005721Y017950D01*
X005721Y017979D02*
X005631Y017979D01*
X005631Y018008D02*
X005721Y018008D01*
X005721Y018037D02*
X005631Y018037D01*
X005631Y018066D02*
X005721Y018066D01*
X005721Y018095D02*
X005631Y018095D01*
X005631Y018124D02*
X005721Y018124D01*
X005721Y018153D02*
X005631Y018153D01*
X005631Y018182D02*
X005721Y018182D01*
X005721Y018211D02*
X005631Y018211D01*
X005631Y018240D02*
X005721Y018240D01*
X005721Y018269D02*
X005631Y018269D01*
X005631Y018298D02*
X005721Y018298D01*
X005721Y018327D02*
X005631Y018327D01*
X005631Y018356D02*
X005721Y018356D01*
X005721Y018385D02*
X005631Y018385D01*
X005879Y018398D02*
X005879Y017718D01*
X005789Y017718D01*
X005789Y018398D01*
X005879Y018398D01*
X005879Y017747D02*
X005789Y017747D01*
X005789Y017776D02*
X005879Y017776D01*
X005879Y017805D02*
X005789Y017805D01*
X005789Y017834D02*
X005879Y017834D01*
X005879Y017863D02*
X005789Y017863D01*
X005789Y017892D02*
X005879Y017892D01*
X005879Y017921D02*
X005789Y017921D01*
X005789Y017950D02*
X005879Y017950D01*
X005879Y017979D02*
X005789Y017979D01*
X005789Y018008D02*
X005879Y018008D01*
X005879Y018037D02*
X005789Y018037D01*
X005789Y018066D02*
X005879Y018066D01*
X005879Y018095D02*
X005789Y018095D01*
X005789Y018124D02*
X005879Y018124D01*
X005879Y018153D02*
X005789Y018153D01*
X005789Y018182D02*
X005879Y018182D01*
X005879Y018211D02*
X005789Y018211D01*
X005789Y018240D02*
X005879Y018240D01*
X005879Y018269D02*
X005789Y018269D01*
X005789Y018298D02*
X005879Y018298D01*
X005879Y018327D02*
X005789Y018327D01*
X005789Y018356D02*
X005879Y018356D01*
X005879Y018385D02*
X005789Y018385D01*
X006036Y018398D02*
X006036Y017718D01*
X005946Y017718D01*
X005946Y018398D01*
X006036Y018398D01*
X006036Y017747D02*
X005946Y017747D01*
X005946Y017776D02*
X006036Y017776D01*
X006036Y017805D02*
X005946Y017805D01*
X005946Y017834D02*
X006036Y017834D01*
X006036Y017863D02*
X005946Y017863D01*
X005946Y017892D02*
X006036Y017892D01*
X006036Y017921D02*
X005946Y017921D01*
X005946Y017950D02*
X006036Y017950D01*
X006036Y017979D02*
X005946Y017979D01*
X005946Y018008D02*
X006036Y018008D01*
X006036Y018037D02*
X005946Y018037D01*
X005946Y018066D02*
X006036Y018066D01*
X006036Y018095D02*
X005946Y018095D01*
X005946Y018124D02*
X006036Y018124D01*
X006036Y018153D02*
X005946Y018153D01*
X005946Y018182D02*
X006036Y018182D01*
X006036Y018211D02*
X005946Y018211D01*
X005946Y018240D02*
X006036Y018240D01*
X006036Y018269D02*
X005946Y018269D01*
X005946Y018298D02*
X006036Y018298D01*
X006036Y018327D02*
X005946Y018327D01*
X005946Y018356D02*
X006036Y018356D01*
X006036Y018385D02*
X005946Y018385D01*
X006194Y018398D02*
X006194Y017718D01*
X006104Y017718D01*
X006104Y018398D01*
X006194Y018398D01*
X006194Y017747D02*
X006104Y017747D01*
X006104Y017776D02*
X006194Y017776D01*
X006194Y017805D02*
X006104Y017805D01*
X006104Y017834D02*
X006194Y017834D01*
X006194Y017863D02*
X006104Y017863D01*
X006104Y017892D02*
X006194Y017892D01*
X006194Y017921D02*
X006104Y017921D01*
X006104Y017950D02*
X006194Y017950D01*
X006194Y017979D02*
X006104Y017979D01*
X006104Y018008D02*
X006194Y018008D01*
X006194Y018037D02*
X006104Y018037D01*
X006104Y018066D02*
X006194Y018066D01*
X006194Y018095D02*
X006104Y018095D01*
X006104Y018124D02*
X006194Y018124D01*
X006194Y018153D02*
X006104Y018153D01*
X006104Y018182D02*
X006194Y018182D01*
X006194Y018211D02*
X006104Y018211D01*
X006104Y018240D02*
X006194Y018240D01*
X006194Y018269D02*
X006104Y018269D01*
X006104Y018298D02*
X006194Y018298D01*
X006194Y018327D02*
X006104Y018327D01*
X006104Y018356D02*
X006194Y018356D01*
X006194Y018385D02*
X006104Y018385D01*
X006351Y018398D02*
X006351Y017718D01*
X006261Y017718D01*
X006261Y018398D01*
X006351Y018398D01*
X006351Y017747D02*
X006261Y017747D01*
X006261Y017776D02*
X006351Y017776D01*
X006351Y017805D02*
X006261Y017805D01*
X006261Y017834D02*
X006351Y017834D01*
X006351Y017863D02*
X006261Y017863D01*
X006261Y017892D02*
X006351Y017892D01*
X006351Y017921D02*
X006261Y017921D01*
X006261Y017950D02*
X006351Y017950D01*
X006351Y017979D02*
X006261Y017979D01*
X006261Y018008D02*
X006351Y018008D01*
X006351Y018037D02*
X006261Y018037D01*
X006261Y018066D02*
X006351Y018066D01*
X006351Y018095D02*
X006261Y018095D01*
X006261Y018124D02*
X006351Y018124D01*
X006351Y018153D02*
X006261Y018153D01*
X006261Y018182D02*
X006351Y018182D01*
X006351Y018211D02*
X006261Y018211D01*
X006261Y018240D02*
X006351Y018240D01*
X006351Y018269D02*
X006261Y018269D01*
X006261Y018298D02*
X006351Y018298D01*
X006351Y018327D02*
X006261Y018327D01*
X006261Y018356D02*
X006351Y018356D01*
X006351Y018385D02*
X006261Y018385D01*
X006509Y018398D02*
X006509Y017718D01*
X006419Y017718D01*
X006419Y018398D01*
X006509Y018398D01*
X006509Y017747D02*
X006419Y017747D01*
X006419Y017776D02*
X006509Y017776D01*
X006509Y017805D02*
X006419Y017805D01*
X006419Y017834D02*
X006509Y017834D01*
X006509Y017863D02*
X006419Y017863D01*
X006419Y017892D02*
X006509Y017892D01*
X006509Y017921D02*
X006419Y017921D01*
X006419Y017950D02*
X006509Y017950D01*
X006509Y017979D02*
X006419Y017979D01*
X006419Y018008D02*
X006509Y018008D01*
X006509Y018037D02*
X006419Y018037D01*
X006419Y018066D02*
X006509Y018066D01*
X006509Y018095D02*
X006419Y018095D01*
X006419Y018124D02*
X006509Y018124D01*
X006509Y018153D02*
X006419Y018153D01*
X006419Y018182D02*
X006509Y018182D01*
X006509Y018211D02*
X006419Y018211D01*
X006419Y018240D02*
X006509Y018240D01*
X006509Y018269D02*
X006419Y018269D01*
X006419Y018298D02*
X006509Y018298D01*
X006509Y018327D02*
X006419Y018327D01*
X006419Y018356D02*
X006509Y018356D01*
X006509Y018385D02*
X006419Y018385D01*
X006666Y018398D02*
X006666Y017718D01*
X006576Y017718D01*
X006576Y018398D01*
X006666Y018398D01*
X006666Y017747D02*
X006576Y017747D01*
X006576Y017776D02*
X006666Y017776D01*
X006666Y017805D02*
X006576Y017805D01*
X006576Y017834D02*
X006666Y017834D01*
X006666Y017863D02*
X006576Y017863D01*
X006576Y017892D02*
X006666Y017892D01*
X006666Y017921D02*
X006576Y017921D01*
X006576Y017950D02*
X006666Y017950D01*
X006666Y017979D02*
X006576Y017979D01*
X006576Y018008D02*
X006666Y018008D01*
X006666Y018037D02*
X006576Y018037D01*
X006576Y018066D02*
X006666Y018066D01*
X006666Y018095D02*
X006576Y018095D01*
X006576Y018124D02*
X006666Y018124D01*
X006666Y018153D02*
X006576Y018153D01*
X006576Y018182D02*
X006666Y018182D01*
X006666Y018211D02*
X006576Y018211D01*
X006576Y018240D02*
X006666Y018240D01*
X006666Y018269D02*
X006576Y018269D01*
X006576Y018298D02*
X006666Y018298D01*
X006666Y018327D02*
X006576Y018327D01*
X006576Y018356D02*
X006666Y018356D01*
X006666Y018385D02*
X006576Y018385D01*
X006824Y018398D02*
X006824Y017718D01*
X006734Y017718D01*
X006734Y018398D01*
X006824Y018398D01*
X006824Y017747D02*
X006734Y017747D01*
X006734Y017776D02*
X006824Y017776D01*
X006824Y017805D02*
X006734Y017805D01*
X006734Y017834D02*
X006824Y017834D01*
X006824Y017863D02*
X006734Y017863D01*
X006734Y017892D02*
X006824Y017892D01*
X006824Y017921D02*
X006734Y017921D01*
X006734Y017950D02*
X006824Y017950D01*
X006824Y017979D02*
X006734Y017979D01*
X006734Y018008D02*
X006824Y018008D01*
X006824Y018037D02*
X006734Y018037D01*
X006734Y018066D02*
X006824Y018066D01*
X006824Y018095D02*
X006734Y018095D01*
X006734Y018124D02*
X006824Y018124D01*
X006824Y018153D02*
X006734Y018153D01*
X006734Y018182D02*
X006824Y018182D01*
X006824Y018211D02*
X006734Y018211D01*
X006734Y018240D02*
X006824Y018240D01*
X006824Y018269D02*
X006734Y018269D01*
X006734Y018298D02*
X006824Y018298D01*
X006824Y018327D02*
X006734Y018327D01*
X006734Y018356D02*
X006824Y018356D01*
X006824Y018385D02*
X006734Y018385D01*
X006981Y018398D02*
X006981Y017718D01*
X006891Y017718D01*
X006891Y018398D01*
X006981Y018398D01*
X006981Y017747D02*
X006891Y017747D01*
X006891Y017776D02*
X006981Y017776D01*
X006981Y017805D02*
X006891Y017805D01*
X006891Y017834D02*
X006981Y017834D01*
X006981Y017863D02*
X006891Y017863D01*
X006891Y017892D02*
X006981Y017892D01*
X006981Y017921D02*
X006891Y017921D01*
X006891Y017950D02*
X006981Y017950D01*
X006981Y017979D02*
X006891Y017979D01*
X006891Y018008D02*
X006981Y018008D01*
X006981Y018037D02*
X006891Y018037D01*
X006891Y018066D02*
X006981Y018066D01*
X006981Y018095D02*
X006891Y018095D01*
X006891Y018124D02*
X006981Y018124D01*
X006981Y018153D02*
X006891Y018153D01*
X006891Y018182D02*
X006981Y018182D01*
X006981Y018211D02*
X006891Y018211D01*
X006891Y018240D02*
X006981Y018240D01*
X006981Y018269D02*
X006891Y018269D01*
X006891Y018298D02*
X006981Y018298D01*
X006981Y018327D02*
X006891Y018327D01*
X006891Y018356D02*
X006981Y018356D01*
X006981Y018385D02*
X006891Y018385D01*
X006981Y019978D02*
X006981Y020658D01*
X006981Y019978D02*
X006891Y019978D01*
X006891Y020658D01*
X006981Y020658D01*
X006981Y020007D02*
X006891Y020007D01*
X006891Y020036D02*
X006981Y020036D01*
X006981Y020065D02*
X006891Y020065D01*
X006891Y020094D02*
X006981Y020094D01*
X006981Y020123D02*
X006891Y020123D01*
X006891Y020152D02*
X006981Y020152D01*
X006981Y020181D02*
X006891Y020181D01*
X006891Y020210D02*
X006981Y020210D01*
X006981Y020239D02*
X006891Y020239D01*
X006891Y020268D02*
X006981Y020268D01*
X006981Y020297D02*
X006891Y020297D01*
X006891Y020326D02*
X006981Y020326D01*
X006981Y020355D02*
X006891Y020355D01*
X006891Y020384D02*
X006981Y020384D01*
X006981Y020413D02*
X006891Y020413D01*
X006891Y020442D02*
X006981Y020442D01*
X006981Y020471D02*
X006891Y020471D01*
X006891Y020500D02*
X006981Y020500D01*
X006981Y020529D02*
X006891Y020529D01*
X006891Y020558D02*
X006981Y020558D01*
X006981Y020587D02*
X006891Y020587D01*
X006891Y020616D02*
X006981Y020616D01*
X006981Y020645D02*
X006891Y020645D01*
X006824Y020658D02*
X006824Y019978D01*
X006734Y019978D01*
X006734Y020658D01*
X006824Y020658D01*
X006824Y020007D02*
X006734Y020007D01*
X006734Y020036D02*
X006824Y020036D01*
X006824Y020065D02*
X006734Y020065D01*
X006734Y020094D02*
X006824Y020094D01*
X006824Y020123D02*
X006734Y020123D01*
X006734Y020152D02*
X006824Y020152D01*
X006824Y020181D02*
X006734Y020181D01*
X006734Y020210D02*
X006824Y020210D01*
X006824Y020239D02*
X006734Y020239D01*
X006734Y020268D02*
X006824Y020268D01*
X006824Y020297D02*
X006734Y020297D01*
X006734Y020326D02*
X006824Y020326D01*
X006824Y020355D02*
X006734Y020355D01*
X006734Y020384D02*
X006824Y020384D01*
X006824Y020413D02*
X006734Y020413D01*
X006734Y020442D02*
X006824Y020442D01*
X006824Y020471D02*
X006734Y020471D01*
X006734Y020500D02*
X006824Y020500D01*
X006824Y020529D02*
X006734Y020529D01*
X006734Y020558D02*
X006824Y020558D01*
X006824Y020587D02*
X006734Y020587D01*
X006734Y020616D02*
X006824Y020616D01*
X006824Y020645D02*
X006734Y020645D01*
X006666Y020658D02*
X006666Y019978D01*
X006576Y019978D01*
X006576Y020658D01*
X006666Y020658D01*
X006666Y020007D02*
X006576Y020007D01*
X006576Y020036D02*
X006666Y020036D01*
X006666Y020065D02*
X006576Y020065D01*
X006576Y020094D02*
X006666Y020094D01*
X006666Y020123D02*
X006576Y020123D01*
X006576Y020152D02*
X006666Y020152D01*
X006666Y020181D02*
X006576Y020181D01*
X006576Y020210D02*
X006666Y020210D01*
X006666Y020239D02*
X006576Y020239D01*
X006576Y020268D02*
X006666Y020268D01*
X006666Y020297D02*
X006576Y020297D01*
X006576Y020326D02*
X006666Y020326D01*
X006666Y020355D02*
X006576Y020355D01*
X006576Y020384D02*
X006666Y020384D01*
X006666Y020413D02*
X006576Y020413D01*
X006576Y020442D02*
X006666Y020442D01*
X006666Y020471D02*
X006576Y020471D01*
X006576Y020500D02*
X006666Y020500D01*
X006666Y020529D02*
X006576Y020529D01*
X006576Y020558D02*
X006666Y020558D01*
X006666Y020587D02*
X006576Y020587D01*
X006576Y020616D02*
X006666Y020616D01*
X006666Y020645D02*
X006576Y020645D01*
X006479Y012036D02*
X006479Y011356D01*
X006479Y012036D02*
X006569Y012036D01*
X006569Y011356D01*
X006479Y011356D01*
X006479Y011385D02*
X006569Y011385D01*
X006569Y011414D02*
X006479Y011414D01*
X006479Y011443D02*
X006569Y011443D01*
X006569Y011472D02*
X006479Y011472D01*
X006479Y011501D02*
X006569Y011501D01*
X006569Y011530D02*
X006479Y011530D01*
X006479Y011559D02*
X006569Y011559D01*
X006569Y011588D02*
X006479Y011588D01*
X006479Y011617D02*
X006569Y011617D01*
X006569Y011646D02*
X006479Y011646D01*
X006479Y011675D02*
X006569Y011675D01*
X006569Y011704D02*
X006479Y011704D01*
X006479Y011733D02*
X006569Y011733D01*
X006569Y011762D02*
X006479Y011762D01*
X006479Y011791D02*
X006569Y011791D01*
X006569Y011820D02*
X006479Y011820D01*
X006479Y011849D02*
X006569Y011849D01*
X006569Y011878D02*
X006479Y011878D01*
X006479Y011907D02*
X006569Y011907D01*
X006569Y011936D02*
X006479Y011936D01*
X006479Y011965D02*
X006569Y011965D01*
X006569Y011994D02*
X006479Y011994D01*
X006479Y012023D02*
X006569Y012023D01*
X006636Y012036D02*
X006636Y011356D01*
X006636Y012036D02*
X006726Y012036D01*
X006726Y011356D01*
X006636Y011356D01*
X006636Y011385D02*
X006726Y011385D01*
X006726Y011414D02*
X006636Y011414D01*
X006636Y011443D02*
X006726Y011443D01*
X006726Y011472D02*
X006636Y011472D01*
X006636Y011501D02*
X006726Y011501D01*
X006726Y011530D02*
X006636Y011530D01*
X006636Y011559D02*
X006726Y011559D01*
X006726Y011588D02*
X006636Y011588D01*
X006636Y011617D02*
X006726Y011617D01*
X006726Y011646D02*
X006636Y011646D01*
X006636Y011675D02*
X006726Y011675D01*
X006726Y011704D02*
X006636Y011704D01*
X006636Y011733D02*
X006726Y011733D01*
X006726Y011762D02*
X006636Y011762D01*
X006636Y011791D02*
X006726Y011791D01*
X006726Y011820D02*
X006636Y011820D01*
X006636Y011849D02*
X006726Y011849D01*
X006726Y011878D02*
X006636Y011878D01*
X006636Y011907D02*
X006726Y011907D01*
X006726Y011936D02*
X006636Y011936D01*
X006636Y011965D02*
X006726Y011965D01*
X006726Y011994D02*
X006636Y011994D01*
X006636Y012023D02*
X006726Y012023D01*
X006794Y012036D02*
X006794Y011356D01*
X006794Y012036D02*
X006884Y012036D01*
X006884Y011356D01*
X006794Y011356D01*
X006794Y011385D02*
X006884Y011385D01*
X006884Y011414D02*
X006794Y011414D01*
X006794Y011443D02*
X006884Y011443D01*
X006884Y011472D02*
X006794Y011472D01*
X006794Y011501D02*
X006884Y011501D01*
X006884Y011530D02*
X006794Y011530D01*
X006794Y011559D02*
X006884Y011559D01*
X006884Y011588D02*
X006794Y011588D01*
X006794Y011617D02*
X006884Y011617D01*
X006884Y011646D02*
X006794Y011646D01*
X006794Y011675D02*
X006884Y011675D01*
X006884Y011704D02*
X006794Y011704D01*
X006794Y011733D02*
X006884Y011733D01*
X006884Y011762D02*
X006794Y011762D01*
X006794Y011791D02*
X006884Y011791D01*
X006884Y011820D02*
X006794Y011820D01*
X006794Y011849D02*
X006884Y011849D01*
X006884Y011878D02*
X006794Y011878D01*
X006794Y011907D02*
X006884Y011907D01*
X006884Y011936D02*
X006794Y011936D01*
X006794Y011965D02*
X006884Y011965D01*
X006884Y011994D02*
X006794Y011994D01*
X006794Y012023D02*
X006884Y012023D01*
X006951Y012036D02*
X006951Y011356D01*
X006951Y012036D02*
X007041Y012036D01*
X007041Y011356D01*
X006951Y011356D01*
X006951Y011385D02*
X007041Y011385D01*
X007041Y011414D02*
X006951Y011414D01*
X006951Y011443D02*
X007041Y011443D01*
X007041Y011472D02*
X006951Y011472D01*
X006951Y011501D02*
X007041Y011501D01*
X007041Y011530D02*
X006951Y011530D01*
X006951Y011559D02*
X007041Y011559D01*
X007041Y011588D02*
X006951Y011588D01*
X006951Y011617D02*
X007041Y011617D01*
X007041Y011646D02*
X006951Y011646D01*
X006951Y011675D02*
X007041Y011675D01*
X007041Y011704D02*
X006951Y011704D01*
X006951Y011733D02*
X007041Y011733D01*
X007041Y011762D02*
X006951Y011762D01*
X006951Y011791D02*
X007041Y011791D01*
X007041Y011820D02*
X006951Y011820D01*
X006951Y011849D02*
X007041Y011849D01*
X007041Y011878D02*
X006951Y011878D01*
X006951Y011907D02*
X007041Y011907D01*
X007041Y011936D02*
X006951Y011936D01*
X006951Y011965D02*
X007041Y011965D01*
X007041Y011994D02*
X006951Y011994D01*
X006951Y012023D02*
X007041Y012023D01*
X006321Y012036D02*
X006321Y011356D01*
X006321Y012036D02*
X006411Y012036D01*
X006411Y011356D01*
X006321Y011356D01*
X006321Y011385D02*
X006411Y011385D01*
X006411Y011414D02*
X006321Y011414D01*
X006321Y011443D02*
X006411Y011443D01*
X006411Y011472D02*
X006321Y011472D01*
X006321Y011501D02*
X006411Y011501D01*
X006411Y011530D02*
X006321Y011530D01*
X006321Y011559D02*
X006411Y011559D01*
X006411Y011588D02*
X006321Y011588D01*
X006321Y011617D02*
X006411Y011617D01*
X006411Y011646D02*
X006321Y011646D01*
X006321Y011675D02*
X006411Y011675D01*
X006411Y011704D02*
X006321Y011704D01*
X006321Y011733D02*
X006411Y011733D01*
X006411Y011762D02*
X006321Y011762D01*
X006321Y011791D02*
X006411Y011791D01*
X006411Y011820D02*
X006321Y011820D01*
X006321Y011849D02*
X006411Y011849D01*
X006411Y011878D02*
X006321Y011878D01*
X006321Y011907D02*
X006411Y011907D01*
X006411Y011936D02*
X006321Y011936D01*
X006321Y011965D02*
X006411Y011965D01*
X006411Y011994D02*
X006321Y011994D01*
X006321Y012023D02*
X006411Y012023D01*
X006164Y012036D02*
X006164Y011356D01*
X006164Y012036D02*
X006254Y012036D01*
X006254Y011356D01*
X006164Y011356D01*
X006164Y011385D02*
X006254Y011385D01*
X006254Y011414D02*
X006164Y011414D01*
X006164Y011443D02*
X006254Y011443D01*
X006254Y011472D02*
X006164Y011472D01*
X006164Y011501D02*
X006254Y011501D01*
X006254Y011530D02*
X006164Y011530D01*
X006164Y011559D02*
X006254Y011559D01*
X006254Y011588D02*
X006164Y011588D01*
X006164Y011617D02*
X006254Y011617D01*
X006254Y011646D02*
X006164Y011646D01*
X006164Y011675D02*
X006254Y011675D01*
X006254Y011704D02*
X006164Y011704D01*
X006164Y011733D02*
X006254Y011733D01*
X006254Y011762D02*
X006164Y011762D01*
X006164Y011791D02*
X006254Y011791D01*
X006254Y011820D02*
X006164Y011820D01*
X006164Y011849D02*
X006254Y011849D01*
X006254Y011878D02*
X006164Y011878D01*
X006164Y011907D02*
X006254Y011907D01*
X006254Y011936D02*
X006164Y011936D01*
X006164Y011965D02*
X006254Y011965D01*
X006254Y011994D02*
X006164Y011994D01*
X006164Y012023D02*
X006254Y012023D01*
X006006Y012036D02*
X006006Y011356D01*
X006006Y012036D02*
X006096Y012036D01*
X006096Y011356D01*
X006006Y011356D01*
X006006Y011385D02*
X006096Y011385D01*
X006096Y011414D02*
X006006Y011414D01*
X006006Y011443D02*
X006096Y011443D01*
X006096Y011472D02*
X006006Y011472D01*
X006006Y011501D02*
X006096Y011501D01*
X006096Y011530D02*
X006006Y011530D01*
X006006Y011559D02*
X006096Y011559D01*
X006096Y011588D02*
X006006Y011588D01*
X006006Y011617D02*
X006096Y011617D01*
X006096Y011646D02*
X006006Y011646D01*
X006006Y011675D02*
X006096Y011675D01*
X006096Y011704D02*
X006006Y011704D01*
X006006Y011733D02*
X006096Y011733D01*
X006096Y011762D02*
X006006Y011762D01*
X006006Y011791D02*
X006096Y011791D01*
X006096Y011820D02*
X006006Y011820D01*
X006006Y011849D02*
X006096Y011849D01*
X006096Y011878D02*
X006006Y011878D01*
X006006Y011907D02*
X006096Y011907D01*
X006096Y011936D02*
X006006Y011936D01*
X006006Y011965D02*
X006096Y011965D01*
X006096Y011994D02*
X006006Y011994D01*
X006006Y012023D02*
X006096Y012023D01*
X005849Y012036D02*
X005849Y011356D01*
X005849Y012036D02*
X005939Y012036D01*
X005939Y011356D01*
X005849Y011356D01*
X005849Y011385D02*
X005939Y011385D01*
X005939Y011414D02*
X005849Y011414D01*
X005849Y011443D02*
X005939Y011443D01*
X005939Y011472D02*
X005849Y011472D01*
X005849Y011501D02*
X005939Y011501D01*
X005939Y011530D02*
X005849Y011530D01*
X005849Y011559D02*
X005939Y011559D01*
X005939Y011588D02*
X005849Y011588D01*
X005849Y011617D02*
X005939Y011617D01*
X005939Y011646D02*
X005849Y011646D01*
X005849Y011675D02*
X005939Y011675D01*
X005939Y011704D02*
X005849Y011704D01*
X005849Y011733D02*
X005939Y011733D01*
X005939Y011762D02*
X005849Y011762D01*
X005849Y011791D02*
X005939Y011791D01*
X005939Y011820D02*
X005849Y011820D01*
X005849Y011849D02*
X005939Y011849D01*
X005939Y011878D02*
X005849Y011878D01*
X005849Y011907D02*
X005939Y011907D01*
X005939Y011936D02*
X005849Y011936D01*
X005849Y011965D02*
X005939Y011965D01*
X005939Y011994D02*
X005849Y011994D01*
X005849Y012023D02*
X005939Y012023D01*
X005691Y012036D02*
X005691Y011356D01*
X005691Y012036D02*
X005781Y012036D01*
X005781Y011356D01*
X005691Y011356D01*
X005691Y011385D02*
X005781Y011385D01*
X005781Y011414D02*
X005691Y011414D01*
X005691Y011443D02*
X005781Y011443D01*
X005781Y011472D02*
X005691Y011472D01*
X005691Y011501D02*
X005781Y011501D01*
X005781Y011530D02*
X005691Y011530D01*
X005691Y011559D02*
X005781Y011559D01*
X005781Y011588D02*
X005691Y011588D01*
X005691Y011617D02*
X005781Y011617D01*
X005781Y011646D02*
X005691Y011646D01*
X005691Y011675D02*
X005781Y011675D01*
X005781Y011704D02*
X005691Y011704D01*
X005691Y011733D02*
X005781Y011733D01*
X005781Y011762D02*
X005691Y011762D01*
X005691Y011791D02*
X005781Y011791D01*
X005781Y011820D02*
X005691Y011820D01*
X005691Y011849D02*
X005781Y011849D01*
X005781Y011878D02*
X005691Y011878D01*
X005691Y011907D02*
X005781Y011907D01*
X005781Y011936D02*
X005691Y011936D01*
X005691Y011965D02*
X005781Y011965D01*
X005781Y011994D02*
X005691Y011994D01*
X005691Y012023D02*
X005781Y012023D01*
X005534Y012036D02*
X005534Y011356D01*
X005534Y012036D02*
X005624Y012036D01*
X005624Y011356D01*
X005534Y011356D01*
X005534Y011385D02*
X005624Y011385D01*
X005624Y011414D02*
X005534Y011414D01*
X005534Y011443D02*
X005624Y011443D01*
X005624Y011472D02*
X005534Y011472D01*
X005534Y011501D02*
X005624Y011501D01*
X005624Y011530D02*
X005534Y011530D01*
X005534Y011559D02*
X005624Y011559D01*
X005624Y011588D02*
X005534Y011588D01*
X005534Y011617D02*
X005624Y011617D01*
X005624Y011646D02*
X005534Y011646D01*
X005534Y011675D02*
X005624Y011675D01*
X005624Y011704D02*
X005534Y011704D01*
X005534Y011733D02*
X005624Y011733D01*
X005624Y011762D02*
X005534Y011762D01*
X005534Y011791D02*
X005624Y011791D01*
X005624Y011820D02*
X005534Y011820D01*
X005534Y011849D02*
X005624Y011849D01*
X005624Y011878D02*
X005534Y011878D01*
X005534Y011907D02*
X005624Y011907D01*
X005624Y011936D02*
X005534Y011936D01*
X005534Y011965D02*
X005624Y011965D01*
X005624Y011994D02*
X005534Y011994D01*
X005534Y012023D02*
X005624Y012023D01*
X005376Y012036D02*
X005376Y011356D01*
X005376Y012036D02*
X005466Y012036D01*
X005466Y011356D01*
X005376Y011356D01*
X005376Y011385D02*
X005466Y011385D01*
X005466Y011414D02*
X005376Y011414D01*
X005376Y011443D02*
X005466Y011443D01*
X005466Y011472D02*
X005376Y011472D01*
X005376Y011501D02*
X005466Y011501D01*
X005466Y011530D02*
X005376Y011530D01*
X005376Y011559D02*
X005466Y011559D01*
X005466Y011588D02*
X005376Y011588D01*
X005376Y011617D02*
X005466Y011617D01*
X005466Y011646D02*
X005376Y011646D01*
X005376Y011675D02*
X005466Y011675D01*
X005466Y011704D02*
X005376Y011704D01*
X005376Y011733D02*
X005466Y011733D01*
X005466Y011762D02*
X005376Y011762D01*
X005376Y011791D02*
X005466Y011791D01*
X005466Y011820D02*
X005376Y011820D01*
X005376Y011849D02*
X005466Y011849D01*
X005466Y011878D02*
X005376Y011878D01*
X005376Y011907D02*
X005466Y011907D01*
X005466Y011936D02*
X005376Y011936D01*
X005376Y011965D02*
X005466Y011965D01*
X005466Y011994D02*
X005376Y011994D01*
X005376Y012023D02*
X005466Y012023D01*
X005219Y012036D02*
X005219Y011356D01*
X005219Y012036D02*
X005309Y012036D01*
X005309Y011356D01*
X005219Y011356D01*
X005219Y011385D02*
X005309Y011385D01*
X005309Y011414D02*
X005219Y011414D01*
X005219Y011443D02*
X005309Y011443D01*
X005309Y011472D02*
X005219Y011472D01*
X005219Y011501D02*
X005309Y011501D01*
X005309Y011530D02*
X005219Y011530D01*
X005219Y011559D02*
X005309Y011559D01*
X005309Y011588D02*
X005219Y011588D01*
X005219Y011617D02*
X005309Y011617D01*
X005309Y011646D02*
X005219Y011646D01*
X005219Y011675D02*
X005309Y011675D01*
X005309Y011704D02*
X005219Y011704D01*
X005219Y011733D02*
X005309Y011733D01*
X005309Y011762D02*
X005219Y011762D01*
X005219Y011791D02*
X005309Y011791D01*
X005309Y011820D02*
X005219Y011820D01*
X005219Y011849D02*
X005309Y011849D01*
X005309Y011878D02*
X005219Y011878D01*
X005219Y011907D02*
X005309Y011907D01*
X005309Y011936D02*
X005219Y011936D01*
X005219Y011965D02*
X005309Y011965D01*
X005309Y011994D02*
X005219Y011994D01*
X005219Y012023D02*
X005309Y012023D01*
X005061Y012036D02*
X005061Y011356D01*
X005061Y012036D02*
X005151Y012036D01*
X005151Y011356D01*
X005061Y011356D01*
X005061Y011385D02*
X005151Y011385D01*
X005151Y011414D02*
X005061Y011414D01*
X005061Y011443D02*
X005151Y011443D01*
X005151Y011472D02*
X005061Y011472D01*
X005061Y011501D02*
X005151Y011501D01*
X005151Y011530D02*
X005061Y011530D01*
X005061Y011559D02*
X005151Y011559D01*
X005151Y011588D02*
X005061Y011588D01*
X005061Y011617D02*
X005151Y011617D01*
X005151Y011646D02*
X005061Y011646D01*
X005061Y011675D02*
X005151Y011675D01*
X005151Y011704D02*
X005061Y011704D01*
X005061Y011733D02*
X005151Y011733D01*
X005151Y011762D02*
X005061Y011762D01*
X005061Y011791D02*
X005151Y011791D01*
X005151Y011820D02*
X005061Y011820D01*
X005061Y011849D02*
X005151Y011849D01*
X005151Y011878D02*
X005061Y011878D01*
X005061Y011907D02*
X005151Y011907D01*
X005151Y011936D02*
X005061Y011936D01*
X005061Y011965D02*
X005151Y011965D01*
X005151Y011994D02*
X005061Y011994D01*
X005061Y012023D02*
X005151Y012023D01*
X004904Y012036D02*
X004904Y011356D01*
X004904Y012036D02*
X004994Y012036D01*
X004994Y011356D01*
X004904Y011356D01*
X004904Y011385D02*
X004994Y011385D01*
X004994Y011414D02*
X004904Y011414D01*
X004904Y011443D02*
X004994Y011443D01*
X004994Y011472D02*
X004904Y011472D01*
X004904Y011501D02*
X004994Y011501D01*
X004994Y011530D02*
X004904Y011530D01*
X004904Y011559D02*
X004994Y011559D01*
X004994Y011588D02*
X004904Y011588D01*
X004904Y011617D02*
X004994Y011617D01*
X004994Y011646D02*
X004904Y011646D01*
X004904Y011675D02*
X004994Y011675D01*
X004994Y011704D02*
X004904Y011704D01*
X004904Y011733D02*
X004994Y011733D01*
X004994Y011762D02*
X004904Y011762D01*
X004904Y011791D02*
X004994Y011791D01*
X004994Y011820D02*
X004904Y011820D01*
X004904Y011849D02*
X004994Y011849D01*
X004994Y011878D02*
X004904Y011878D01*
X004904Y011907D02*
X004994Y011907D01*
X004994Y011936D02*
X004904Y011936D01*
X004904Y011965D02*
X004994Y011965D01*
X004994Y011994D02*
X004904Y011994D01*
X004904Y012023D02*
X004994Y012023D01*
X004746Y012036D02*
X004746Y011356D01*
X004746Y012036D02*
X004836Y012036D01*
X004836Y011356D01*
X004746Y011356D01*
X004746Y011385D02*
X004836Y011385D01*
X004836Y011414D02*
X004746Y011414D01*
X004746Y011443D02*
X004836Y011443D01*
X004836Y011472D02*
X004746Y011472D01*
X004746Y011501D02*
X004836Y011501D01*
X004836Y011530D02*
X004746Y011530D01*
X004746Y011559D02*
X004836Y011559D01*
X004836Y011588D02*
X004746Y011588D01*
X004746Y011617D02*
X004836Y011617D01*
X004836Y011646D02*
X004746Y011646D01*
X004746Y011675D02*
X004836Y011675D01*
X004836Y011704D02*
X004746Y011704D01*
X004746Y011733D02*
X004836Y011733D01*
X004836Y011762D02*
X004746Y011762D01*
X004746Y011791D02*
X004836Y011791D01*
X004836Y011820D02*
X004746Y011820D01*
X004746Y011849D02*
X004836Y011849D01*
X004836Y011878D02*
X004746Y011878D01*
X004746Y011907D02*
X004836Y011907D01*
X004836Y011936D02*
X004746Y011936D01*
X004746Y011965D02*
X004836Y011965D01*
X004836Y011994D02*
X004746Y011994D01*
X004746Y012023D02*
X004836Y012023D01*
X004589Y012036D02*
X004589Y011356D01*
X004589Y012036D02*
X004679Y012036D01*
X004679Y011356D01*
X004589Y011356D01*
X004589Y011385D02*
X004679Y011385D01*
X004679Y011414D02*
X004589Y011414D01*
X004589Y011443D02*
X004679Y011443D01*
X004679Y011472D02*
X004589Y011472D01*
X004589Y011501D02*
X004679Y011501D01*
X004679Y011530D02*
X004589Y011530D01*
X004589Y011559D02*
X004679Y011559D01*
X004679Y011588D02*
X004589Y011588D01*
X004589Y011617D02*
X004679Y011617D01*
X004679Y011646D02*
X004589Y011646D01*
X004589Y011675D02*
X004679Y011675D01*
X004679Y011704D02*
X004589Y011704D01*
X004589Y011733D02*
X004679Y011733D01*
X004679Y011762D02*
X004589Y011762D01*
X004589Y011791D02*
X004679Y011791D01*
X004679Y011820D02*
X004589Y011820D01*
X004589Y011849D02*
X004679Y011849D01*
X004679Y011878D02*
X004589Y011878D01*
X004589Y011907D02*
X004679Y011907D01*
X004679Y011936D02*
X004589Y011936D01*
X004589Y011965D02*
X004679Y011965D01*
X004679Y011994D02*
X004589Y011994D01*
X004589Y012023D02*
X004679Y012023D01*
X004431Y012036D02*
X004431Y011356D01*
X004431Y012036D02*
X004521Y012036D01*
X004521Y011356D01*
X004431Y011356D01*
X004431Y011385D02*
X004521Y011385D01*
X004521Y011414D02*
X004431Y011414D01*
X004431Y011443D02*
X004521Y011443D01*
X004521Y011472D02*
X004431Y011472D01*
X004431Y011501D02*
X004521Y011501D01*
X004521Y011530D02*
X004431Y011530D01*
X004431Y011559D02*
X004521Y011559D01*
X004521Y011588D02*
X004431Y011588D01*
X004431Y011617D02*
X004521Y011617D01*
X004521Y011646D02*
X004431Y011646D01*
X004431Y011675D02*
X004521Y011675D01*
X004521Y011704D02*
X004431Y011704D01*
X004431Y011733D02*
X004521Y011733D01*
X004521Y011762D02*
X004431Y011762D01*
X004431Y011791D02*
X004521Y011791D01*
X004521Y011820D02*
X004431Y011820D01*
X004431Y011849D02*
X004521Y011849D01*
X004521Y011878D02*
X004431Y011878D01*
X004431Y011907D02*
X004521Y011907D01*
X004521Y011936D02*
X004431Y011936D01*
X004431Y011965D02*
X004521Y011965D01*
X004521Y011994D02*
X004431Y011994D01*
X004431Y012023D02*
X004521Y012023D01*
X004274Y012036D02*
X004274Y011356D01*
X004274Y012036D02*
X004364Y012036D01*
X004364Y011356D01*
X004274Y011356D01*
X004274Y011385D02*
X004364Y011385D01*
X004364Y011414D02*
X004274Y011414D01*
X004274Y011443D02*
X004364Y011443D01*
X004364Y011472D02*
X004274Y011472D01*
X004274Y011501D02*
X004364Y011501D01*
X004364Y011530D02*
X004274Y011530D01*
X004274Y011559D02*
X004364Y011559D01*
X004364Y011588D02*
X004274Y011588D01*
X004274Y011617D02*
X004364Y011617D01*
X004364Y011646D02*
X004274Y011646D01*
X004274Y011675D02*
X004364Y011675D01*
X004364Y011704D02*
X004274Y011704D01*
X004274Y011733D02*
X004364Y011733D01*
X004364Y011762D02*
X004274Y011762D01*
X004274Y011791D02*
X004364Y011791D01*
X004364Y011820D02*
X004274Y011820D01*
X004274Y011849D02*
X004364Y011849D01*
X004364Y011878D02*
X004274Y011878D01*
X004274Y011907D02*
X004364Y011907D01*
X004364Y011936D02*
X004274Y011936D01*
X004274Y011965D02*
X004364Y011965D01*
X004364Y011994D02*
X004274Y011994D01*
X004274Y012023D02*
X004364Y012023D01*
X004116Y012036D02*
X004116Y011356D01*
X004116Y012036D02*
X004206Y012036D01*
X004206Y011356D01*
X004116Y011356D01*
X004116Y011385D02*
X004206Y011385D01*
X004206Y011414D02*
X004116Y011414D01*
X004116Y011443D02*
X004206Y011443D01*
X004206Y011472D02*
X004116Y011472D01*
X004116Y011501D02*
X004206Y011501D01*
X004206Y011530D02*
X004116Y011530D01*
X004116Y011559D02*
X004206Y011559D01*
X004206Y011588D02*
X004116Y011588D01*
X004116Y011617D02*
X004206Y011617D01*
X004206Y011646D02*
X004116Y011646D01*
X004116Y011675D02*
X004206Y011675D01*
X004206Y011704D02*
X004116Y011704D01*
X004116Y011733D02*
X004206Y011733D01*
X004206Y011762D02*
X004116Y011762D01*
X004116Y011791D02*
X004206Y011791D01*
X004206Y011820D02*
X004116Y011820D01*
X004116Y011849D02*
X004206Y011849D01*
X004206Y011878D02*
X004116Y011878D01*
X004116Y011907D02*
X004206Y011907D01*
X004206Y011936D02*
X004116Y011936D01*
X004116Y011965D02*
X004206Y011965D01*
X004206Y011994D02*
X004116Y011994D01*
X004116Y012023D02*
X004206Y012023D01*
X003959Y012036D02*
X003959Y011356D01*
X003959Y012036D02*
X004049Y012036D01*
X004049Y011356D01*
X003959Y011356D01*
X003959Y011385D02*
X004049Y011385D01*
X004049Y011414D02*
X003959Y011414D01*
X003959Y011443D02*
X004049Y011443D01*
X004049Y011472D02*
X003959Y011472D01*
X003959Y011501D02*
X004049Y011501D01*
X004049Y011530D02*
X003959Y011530D01*
X003959Y011559D02*
X004049Y011559D01*
X004049Y011588D02*
X003959Y011588D01*
X003959Y011617D02*
X004049Y011617D01*
X004049Y011646D02*
X003959Y011646D01*
X003959Y011675D02*
X004049Y011675D01*
X004049Y011704D02*
X003959Y011704D01*
X003959Y011733D02*
X004049Y011733D01*
X004049Y011762D02*
X003959Y011762D01*
X003959Y011791D02*
X004049Y011791D01*
X004049Y011820D02*
X003959Y011820D01*
X003959Y011849D02*
X004049Y011849D01*
X004049Y011878D02*
X003959Y011878D01*
X003959Y011907D02*
X004049Y011907D01*
X004049Y011936D02*
X003959Y011936D01*
X003959Y011965D02*
X004049Y011965D01*
X004049Y011994D02*
X003959Y011994D01*
X003959Y012023D02*
X004049Y012023D01*
X003801Y012036D02*
X003801Y011356D01*
X003801Y012036D02*
X003891Y012036D01*
X003891Y011356D01*
X003801Y011356D01*
X003801Y011385D02*
X003891Y011385D01*
X003891Y011414D02*
X003801Y011414D01*
X003801Y011443D02*
X003891Y011443D01*
X003891Y011472D02*
X003801Y011472D01*
X003801Y011501D02*
X003891Y011501D01*
X003891Y011530D02*
X003801Y011530D01*
X003801Y011559D02*
X003891Y011559D01*
X003891Y011588D02*
X003801Y011588D01*
X003801Y011617D02*
X003891Y011617D01*
X003891Y011646D02*
X003801Y011646D01*
X003801Y011675D02*
X003891Y011675D01*
X003891Y011704D02*
X003801Y011704D01*
X003801Y011733D02*
X003891Y011733D01*
X003891Y011762D02*
X003801Y011762D01*
X003801Y011791D02*
X003891Y011791D01*
X003891Y011820D02*
X003801Y011820D01*
X003801Y011849D02*
X003891Y011849D01*
X003891Y011878D02*
X003801Y011878D01*
X003801Y011907D02*
X003891Y011907D01*
X003891Y011936D02*
X003801Y011936D01*
X003801Y011965D02*
X003891Y011965D01*
X003891Y011994D02*
X003801Y011994D01*
X003801Y012023D02*
X003891Y012023D01*
X003644Y012036D02*
X003644Y011356D01*
X003644Y012036D02*
X003734Y012036D01*
X003734Y011356D01*
X003644Y011356D01*
X003644Y011385D02*
X003734Y011385D01*
X003734Y011414D02*
X003644Y011414D01*
X003644Y011443D02*
X003734Y011443D01*
X003734Y011472D02*
X003644Y011472D01*
X003644Y011501D02*
X003734Y011501D01*
X003734Y011530D02*
X003644Y011530D01*
X003644Y011559D02*
X003734Y011559D01*
X003734Y011588D02*
X003644Y011588D01*
X003644Y011617D02*
X003734Y011617D01*
X003734Y011646D02*
X003644Y011646D01*
X003644Y011675D02*
X003734Y011675D01*
X003734Y011704D02*
X003644Y011704D01*
X003644Y011733D02*
X003734Y011733D01*
X003734Y011762D02*
X003644Y011762D01*
X003644Y011791D02*
X003734Y011791D01*
X003734Y011820D02*
X003644Y011820D01*
X003644Y011849D02*
X003734Y011849D01*
X003734Y011878D02*
X003644Y011878D01*
X003644Y011907D02*
X003734Y011907D01*
X003734Y011936D02*
X003644Y011936D01*
X003644Y011965D02*
X003734Y011965D01*
X003734Y011994D02*
X003644Y011994D01*
X003644Y012023D02*
X003734Y012023D01*
X003486Y012036D02*
X003486Y011356D01*
X003486Y012036D02*
X003576Y012036D01*
X003576Y011356D01*
X003486Y011356D01*
X003486Y011385D02*
X003576Y011385D01*
X003576Y011414D02*
X003486Y011414D01*
X003486Y011443D02*
X003576Y011443D01*
X003576Y011472D02*
X003486Y011472D01*
X003486Y011501D02*
X003576Y011501D01*
X003576Y011530D02*
X003486Y011530D01*
X003486Y011559D02*
X003576Y011559D01*
X003576Y011588D02*
X003486Y011588D01*
X003486Y011617D02*
X003576Y011617D01*
X003576Y011646D02*
X003486Y011646D01*
X003486Y011675D02*
X003576Y011675D01*
X003576Y011704D02*
X003486Y011704D01*
X003486Y011733D02*
X003576Y011733D01*
X003576Y011762D02*
X003486Y011762D01*
X003486Y011791D02*
X003576Y011791D01*
X003576Y011820D02*
X003486Y011820D01*
X003486Y011849D02*
X003576Y011849D01*
X003576Y011878D02*
X003486Y011878D01*
X003486Y011907D02*
X003576Y011907D01*
X003576Y011936D02*
X003486Y011936D01*
X003486Y011965D02*
X003576Y011965D01*
X003576Y011994D02*
X003486Y011994D01*
X003486Y012023D02*
X003576Y012023D01*
X003329Y012036D02*
X003329Y011356D01*
X003329Y012036D02*
X003419Y012036D01*
X003419Y011356D01*
X003329Y011356D01*
X003329Y011385D02*
X003419Y011385D01*
X003419Y011414D02*
X003329Y011414D01*
X003329Y011443D02*
X003419Y011443D01*
X003419Y011472D02*
X003329Y011472D01*
X003329Y011501D02*
X003419Y011501D01*
X003419Y011530D02*
X003329Y011530D01*
X003329Y011559D02*
X003419Y011559D01*
X003419Y011588D02*
X003329Y011588D01*
X003329Y011617D02*
X003419Y011617D01*
X003419Y011646D02*
X003329Y011646D01*
X003329Y011675D02*
X003419Y011675D01*
X003419Y011704D02*
X003329Y011704D01*
X003329Y011733D02*
X003419Y011733D01*
X003419Y011762D02*
X003329Y011762D01*
X003329Y011791D02*
X003419Y011791D01*
X003419Y011820D02*
X003329Y011820D01*
X003329Y011849D02*
X003419Y011849D01*
X003419Y011878D02*
X003329Y011878D01*
X003329Y011907D02*
X003419Y011907D01*
X003419Y011936D02*
X003329Y011936D01*
X003329Y011965D02*
X003419Y011965D01*
X003419Y011994D02*
X003329Y011994D01*
X003329Y012023D02*
X003419Y012023D01*
X003171Y012036D02*
X003171Y011356D01*
X003171Y012036D02*
X003261Y012036D01*
X003261Y011356D01*
X003171Y011356D01*
X003171Y011385D02*
X003261Y011385D01*
X003261Y011414D02*
X003171Y011414D01*
X003171Y011443D02*
X003261Y011443D01*
X003261Y011472D02*
X003171Y011472D01*
X003171Y011501D02*
X003261Y011501D01*
X003261Y011530D02*
X003171Y011530D01*
X003171Y011559D02*
X003261Y011559D01*
X003261Y011588D02*
X003171Y011588D01*
X003171Y011617D02*
X003261Y011617D01*
X003261Y011646D02*
X003171Y011646D01*
X003171Y011675D02*
X003261Y011675D01*
X003261Y011704D02*
X003171Y011704D01*
X003171Y011733D02*
X003261Y011733D01*
X003261Y011762D02*
X003171Y011762D01*
X003171Y011791D02*
X003261Y011791D01*
X003261Y011820D02*
X003171Y011820D01*
X003171Y011849D02*
X003261Y011849D01*
X003261Y011878D02*
X003171Y011878D01*
X003171Y011907D02*
X003261Y011907D01*
X003261Y011936D02*
X003171Y011936D01*
X003171Y011965D02*
X003261Y011965D01*
X003261Y011994D02*
X003171Y011994D01*
X003171Y012023D02*
X003261Y012023D01*
X003014Y012036D02*
X003014Y011356D01*
X003014Y012036D02*
X003104Y012036D01*
X003104Y011356D01*
X003014Y011356D01*
X003014Y011385D02*
X003104Y011385D01*
X003104Y011414D02*
X003014Y011414D01*
X003014Y011443D02*
X003104Y011443D01*
X003104Y011472D02*
X003014Y011472D01*
X003014Y011501D02*
X003104Y011501D01*
X003104Y011530D02*
X003014Y011530D01*
X003014Y011559D02*
X003104Y011559D01*
X003104Y011588D02*
X003014Y011588D01*
X003014Y011617D02*
X003104Y011617D01*
X003104Y011646D02*
X003014Y011646D01*
X003014Y011675D02*
X003104Y011675D01*
X003104Y011704D02*
X003014Y011704D01*
X003014Y011733D02*
X003104Y011733D01*
X003104Y011762D02*
X003014Y011762D01*
X003014Y011791D02*
X003104Y011791D01*
X003104Y011820D02*
X003014Y011820D01*
X003014Y011849D02*
X003104Y011849D01*
X003104Y011878D02*
X003014Y011878D01*
X003014Y011907D02*
X003104Y011907D01*
X003104Y011936D02*
X003014Y011936D01*
X003014Y011965D02*
X003104Y011965D01*
X003104Y011994D02*
X003014Y011994D01*
X003014Y012023D02*
X003104Y012023D01*
X002856Y012036D02*
X002856Y011356D01*
X002856Y012036D02*
X002946Y012036D01*
X002946Y011356D01*
X002856Y011356D01*
X002856Y011385D02*
X002946Y011385D01*
X002946Y011414D02*
X002856Y011414D01*
X002856Y011443D02*
X002946Y011443D01*
X002946Y011472D02*
X002856Y011472D01*
X002856Y011501D02*
X002946Y011501D01*
X002946Y011530D02*
X002856Y011530D01*
X002856Y011559D02*
X002946Y011559D01*
X002946Y011588D02*
X002856Y011588D01*
X002856Y011617D02*
X002946Y011617D01*
X002946Y011646D02*
X002856Y011646D01*
X002856Y011675D02*
X002946Y011675D01*
X002946Y011704D02*
X002856Y011704D01*
X002856Y011733D02*
X002946Y011733D01*
X002946Y011762D02*
X002856Y011762D01*
X002856Y011791D02*
X002946Y011791D01*
X002946Y011820D02*
X002856Y011820D01*
X002856Y011849D02*
X002946Y011849D01*
X002946Y011878D02*
X002856Y011878D01*
X002856Y011907D02*
X002946Y011907D01*
X002946Y011936D02*
X002856Y011936D01*
X002856Y011965D02*
X002946Y011965D01*
X002946Y011994D02*
X002856Y011994D01*
X002856Y012023D02*
X002946Y012023D01*
X002699Y012036D02*
X002699Y011356D01*
X002699Y012036D02*
X002789Y012036D01*
X002789Y011356D01*
X002699Y011356D01*
X002699Y011385D02*
X002789Y011385D01*
X002789Y011414D02*
X002699Y011414D01*
X002699Y011443D02*
X002789Y011443D01*
X002789Y011472D02*
X002699Y011472D01*
X002699Y011501D02*
X002789Y011501D01*
X002789Y011530D02*
X002699Y011530D01*
X002699Y011559D02*
X002789Y011559D01*
X002789Y011588D02*
X002699Y011588D01*
X002699Y011617D02*
X002789Y011617D01*
X002789Y011646D02*
X002699Y011646D01*
X002699Y011675D02*
X002789Y011675D01*
X002789Y011704D02*
X002699Y011704D01*
X002699Y011733D02*
X002789Y011733D01*
X002789Y011762D02*
X002699Y011762D01*
X002699Y011791D02*
X002789Y011791D01*
X002789Y011820D02*
X002699Y011820D01*
X002699Y011849D02*
X002789Y011849D01*
X002789Y011878D02*
X002699Y011878D01*
X002699Y011907D02*
X002789Y011907D01*
X002789Y011936D02*
X002699Y011936D01*
X002699Y011965D02*
X002789Y011965D01*
X002789Y011994D02*
X002699Y011994D01*
X002699Y012023D02*
X002789Y012023D01*
X002699Y009776D02*
X002699Y009096D01*
X002699Y009776D02*
X002789Y009776D01*
X002789Y009096D01*
X002699Y009096D01*
X002699Y009125D02*
X002789Y009125D01*
X002789Y009154D02*
X002699Y009154D01*
X002699Y009183D02*
X002789Y009183D01*
X002789Y009212D02*
X002699Y009212D01*
X002699Y009241D02*
X002789Y009241D01*
X002789Y009270D02*
X002699Y009270D01*
X002699Y009299D02*
X002789Y009299D01*
X002789Y009328D02*
X002699Y009328D01*
X002699Y009357D02*
X002789Y009357D01*
X002789Y009386D02*
X002699Y009386D01*
X002699Y009415D02*
X002789Y009415D01*
X002789Y009444D02*
X002699Y009444D01*
X002699Y009473D02*
X002789Y009473D01*
X002789Y009502D02*
X002699Y009502D01*
X002699Y009531D02*
X002789Y009531D01*
X002789Y009560D02*
X002699Y009560D01*
X002699Y009589D02*
X002789Y009589D01*
X002789Y009618D02*
X002699Y009618D01*
X002699Y009647D02*
X002789Y009647D01*
X002789Y009676D02*
X002699Y009676D01*
X002699Y009705D02*
X002789Y009705D01*
X002789Y009734D02*
X002699Y009734D01*
X002699Y009763D02*
X002789Y009763D01*
X002856Y009776D02*
X002856Y009096D01*
X002856Y009776D02*
X002946Y009776D01*
X002946Y009096D01*
X002856Y009096D01*
X002856Y009125D02*
X002946Y009125D01*
X002946Y009154D02*
X002856Y009154D01*
X002856Y009183D02*
X002946Y009183D01*
X002946Y009212D02*
X002856Y009212D01*
X002856Y009241D02*
X002946Y009241D01*
X002946Y009270D02*
X002856Y009270D01*
X002856Y009299D02*
X002946Y009299D01*
X002946Y009328D02*
X002856Y009328D01*
X002856Y009357D02*
X002946Y009357D01*
X002946Y009386D02*
X002856Y009386D01*
X002856Y009415D02*
X002946Y009415D01*
X002946Y009444D02*
X002856Y009444D01*
X002856Y009473D02*
X002946Y009473D01*
X002946Y009502D02*
X002856Y009502D01*
X002856Y009531D02*
X002946Y009531D01*
X002946Y009560D02*
X002856Y009560D01*
X002856Y009589D02*
X002946Y009589D01*
X002946Y009618D02*
X002856Y009618D01*
X002856Y009647D02*
X002946Y009647D01*
X002946Y009676D02*
X002856Y009676D01*
X002856Y009705D02*
X002946Y009705D01*
X002946Y009734D02*
X002856Y009734D01*
X002856Y009763D02*
X002946Y009763D01*
X003014Y009776D02*
X003014Y009096D01*
X003014Y009776D02*
X003104Y009776D01*
X003104Y009096D01*
X003014Y009096D01*
X003014Y009125D02*
X003104Y009125D01*
X003104Y009154D02*
X003014Y009154D01*
X003014Y009183D02*
X003104Y009183D01*
X003104Y009212D02*
X003014Y009212D01*
X003014Y009241D02*
X003104Y009241D01*
X003104Y009270D02*
X003014Y009270D01*
X003014Y009299D02*
X003104Y009299D01*
X003104Y009328D02*
X003014Y009328D01*
X003014Y009357D02*
X003104Y009357D01*
X003104Y009386D02*
X003014Y009386D01*
X003014Y009415D02*
X003104Y009415D01*
X003104Y009444D02*
X003014Y009444D01*
X003014Y009473D02*
X003104Y009473D01*
X003104Y009502D02*
X003014Y009502D01*
X003014Y009531D02*
X003104Y009531D01*
X003104Y009560D02*
X003014Y009560D01*
X003014Y009589D02*
X003104Y009589D01*
X003104Y009618D02*
X003014Y009618D01*
X003014Y009647D02*
X003104Y009647D01*
X003104Y009676D02*
X003014Y009676D01*
X003014Y009705D02*
X003104Y009705D01*
X003104Y009734D02*
X003014Y009734D01*
X003014Y009763D02*
X003104Y009763D01*
X003171Y009776D02*
X003171Y009096D01*
X003171Y009776D02*
X003261Y009776D01*
X003261Y009096D01*
X003171Y009096D01*
X003171Y009125D02*
X003261Y009125D01*
X003261Y009154D02*
X003171Y009154D01*
X003171Y009183D02*
X003261Y009183D01*
X003261Y009212D02*
X003171Y009212D01*
X003171Y009241D02*
X003261Y009241D01*
X003261Y009270D02*
X003171Y009270D01*
X003171Y009299D02*
X003261Y009299D01*
X003261Y009328D02*
X003171Y009328D01*
X003171Y009357D02*
X003261Y009357D01*
X003261Y009386D02*
X003171Y009386D01*
X003171Y009415D02*
X003261Y009415D01*
X003261Y009444D02*
X003171Y009444D01*
X003171Y009473D02*
X003261Y009473D01*
X003261Y009502D02*
X003171Y009502D01*
X003171Y009531D02*
X003261Y009531D01*
X003261Y009560D02*
X003171Y009560D01*
X003171Y009589D02*
X003261Y009589D01*
X003261Y009618D02*
X003171Y009618D01*
X003171Y009647D02*
X003261Y009647D01*
X003261Y009676D02*
X003171Y009676D01*
X003171Y009705D02*
X003261Y009705D01*
X003261Y009734D02*
X003171Y009734D01*
X003171Y009763D02*
X003261Y009763D01*
X003329Y009776D02*
X003329Y009096D01*
X003329Y009776D02*
X003419Y009776D01*
X003419Y009096D01*
X003329Y009096D01*
X003329Y009125D02*
X003419Y009125D01*
X003419Y009154D02*
X003329Y009154D01*
X003329Y009183D02*
X003419Y009183D01*
X003419Y009212D02*
X003329Y009212D01*
X003329Y009241D02*
X003419Y009241D01*
X003419Y009270D02*
X003329Y009270D01*
X003329Y009299D02*
X003419Y009299D01*
X003419Y009328D02*
X003329Y009328D01*
X003329Y009357D02*
X003419Y009357D01*
X003419Y009386D02*
X003329Y009386D01*
X003329Y009415D02*
X003419Y009415D01*
X003419Y009444D02*
X003329Y009444D01*
X003329Y009473D02*
X003419Y009473D01*
X003419Y009502D02*
X003329Y009502D01*
X003329Y009531D02*
X003419Y009531D01*
X003419Y009560D02*
X003329Y009560D01*
X003329Y009589D02*
X003419Y009589D01*
X003419Y009618D02*
X003329Y009618D01*
X003329Y009647D02*
X003419Y009647D01*
X003419Y009676D02*
X003329Y009676D01*
X003329Y009705D02*
X003419Y009705D01*
X003419Y009734D02*
X003329Y009734D01*
X003329Y009763D02*
X003419Y009763D01*
X003486Y009776D02*
X003486Y009096D01*
X003486Y009776D02*
X003576Y009776D01*
X003576Y009096D01*
X003486Y009096D01*
X003486Y009125D02*
X003576Y009125D01*
X003576Y009154D02*
X003486Y009154D01*
X003486Y009183D02*
X003576Y009183D01*
X003576Y009212D02*
X003486Y009212D01*
X003486Y009241D02*
X003576Y009241D01*
X003576Y009270D02*
X003486Y009270D01*
X003486Y009299D02*
X003576Y009299D01*
X003576Y009328D02*
X003486Y009328D01*
X003486Y009357D02*
X003576Y009357D01*
X003576Y009386D02*
X003486Y009386D01*
X003486Y009415D02*
X003576Y009415D01*
X003576Y009444D02*
X003486Y009444D01*
X003486Y009473D02*
X003576Y009473D01*
X003576Y009502D02*
X003486Y009502D01*
X003486Y009531D02*
X003576Y009531D01*
X003576Y009560D02*
X003486Y009560D01*
X003486Y009589D02*
X003576Y009589D01*
X003576Y009618D02*
X003486Y009618D01*
X003486Y009647D02*
X003576Y009647D01*
X003576Y009676D02*
X003486Y009676D01*
X003486Y009705D02*
X003576Y009705D01*
X003576Y009734D02*
X003486Y009734D01*
X003486Y009763D02*
X003576Y009763D01*
X003644Y009776D02*
X003644Y009096D01*
X003644Y009776D02*
X003734Y009776D01*
X003734Y009096D01*
X003644Y009096D01*
X003644Y009125D02*
X003734Y009125D01*
X003734Y009154D02*
X003644Y009154D01*
X003644Y009183D02*
X003734Y009183D01*
X003734Y009212D02*
X003644Y009212D01*
X003644Y009241D02*
X003734Y009241D01*
X003734Y009270D02*
X003644Y009270D01*
X003644Y009299D02*
X003734Y009299D01*
X003734Y009328D02*
X003644Y009328D01*
X003644Y009357D02*
X003734Y009357D01*
X003734Y009386D02*
X003644Y009386D01*
X003644Y009415D02*
X003734Y009415D01*
X003734Y009444D02*
X003644Y009444D01*
X003644Y009473D02*
X003734Y009473D01*
X003734Y009502D02*
X003644Y009502D01*
X003644Y009531D02*
X003734Y009531D01*
X003734Y009560D02*
X003644Y009560D01*
X003644Y009589D02*
X003734Y009589D01*
X003734Y009618D02*
X003644Y009618D01*
X003644Y009647D02*
X003734Y009647D01*
X003734Y009676D02*
X003644Y009676D01*
X003644Y009705D02*
X003734Y009705D01*
X003734Y009734D02*
X003644Y009734D01*
X003644Y009763D02*
X003734Y009763D01*
X003801Y009776D02*
X003801Y009096D01*
X003801Y009776D02*
X003891Y009776D01*
X003891Y009096D01*
X003801Y009096D01*
X003801Y009125D02*
X003891Y009125D01*
X003891Y009154D02*
X003801Y009154D01*
X003801Y009183D02*
X003891Y009183D01*
X003891Y009212D02*
X003801Y009212D01*
X003801Y009241D02*
X003891Y009241D01*
X003891Y009270D02*
X003801Y009270D01*
X003801Y009299D02*
X003891Y009299D01*
X003891Y009328D02*
X003801Y009328D01*
X003801Y009357D02*
X003891Y009357D01*
X003891Y009386D02*
X003801Y009386D01*
X003801Y009415D02*
X003891Y009415D01*
X003891Y009444D02*
X003801Y009444D01*
X003801Y009473D02*
X003891Y009473D01*
X003891Y009502D02*
X003801Y009502D01*
X003801Y009531D02*
X003891Y009531D01*
X003891Y009560D02*
X003801Y009560D01*
X003801Y009589D02*
X003891Y009589D01*
X003891Y009618D02*
X003801Y009618D01*
X003801Y009647D02*
X003891Y009647D01*
X003891Y009676D02*
X003801Y009676D01*
X003801Y009705D02*
X003891Y009705D01*
X003891Y009734D02*
X003801Y009734D01*
X003801Y009763D02*
X003891Y009763D01*
X003959Y009776D02*
X003959Y009096D01*
X003959Y009776D02*
X004049Y009776D01*
X004049Y009096D01*
X003959Y009096D01*
X003959Y009125D02*
X004049Y009125D01*
X004049Y009154D02*
X003959Y009154D01*
X003959Y009183D02*
X004049Y009183D01*
X004049Y009212D02*
X003959Y009212D01*
X003959Y009241D02*
X004049Y009241D01*
X004049Y009270D02*
X003959Y009270D01*
X003959Y009299D02*
X004049Y009299D01*
X004049Y009328D02*
X003959Y009328D01*
X003959Y009357D02*
X004049Y009357D01*
X004049Y009386D02*
X003959Y009386D01*
X003959Y009415D02*
X004049Y009415D01*
X004049Y009444D02*
X003959Y009444D01*
X003959Y009473D02*
X004049Y009473D01*
X004049Y009502D02*
X003959Y009502D01*
X003959Y009531D02*
X004049Y009531D01*
X004049Y009560D02*
X003959Y009560D01*
X003959Y009589D02*
X004049Y009589D01*
X004049Y009618D02*
X003959Y009618D01*
X003959Y009647D02*
X004049Y009647D01*
X004049Y009676D02*
X003959Y009676D01*
X003959Y009705D02*
X004049Y009705D01*
X004049Y009734D02*
X003959Y009734D01*
X003959Y009763D02*
X004049Y009763D01*
X004116Y009776D02*
X004116Y009096D01*
X004116Y009776D02*
X004206Y009776D01*
X004206Y009096D01*
X004116Y009096D01*
X004116Y009125D02*
X004206Y009125D01*
X004206Y009154D02*
X004116Y009154D01*
X004116Y009183D02*
X004206Y009183D01*
X004206Y009212D02*
X004116Y009212D01*
X004116Y009241D02*
X004206Y009241D01*
X004206Y009270D02*
X004116Y009270D01*
X004116Y009299D02*
X004206Y009299D01*
X004206Y009328D02*
X004116Y009328D01*
X004116Y009357D02*
X004206Y009357D01*
X004206Y009386D02*
X004116Y009386D01*
X004116Y009415D02*
X004206Y009415D01*
X004206Y009444D02*
X004116Y009444D01*
X004116Y009473D02*
X004206Y009473D01*
X004206Y009502D02*
X004116Y009502D01*
X004116Y009531D02*
X004206Y009531D01*
X004206Y009560D02*
X004116Y009560D01*
X004116Y009589D02*
X004206Y009589D01*
X004206Y009618D02*
X004116Y009618D01*
X004116Y009647D02*
X004206Y009647D01*
X004206Y009676D02*
X004116Y009676D01*
X004116Y009705D02*
X004206Y009705D01*
X004206Y009734D02*
X004116Y009734D01*
X004116Y009763D02*
X004206Y009763D01*
X004274Y009776D02*
X004274Y009096D01*
X004274Y009776D02*
X004364Y009776D01*
X004364Y009096D01*
X004274Y009096D01*
X004274Y009125D02*
X004364Y009125D01*
X004364Y009154D02*
X004274Y009154D01*
X004274Y009183D02*
X004364Y009183D01*
X004364Y009212D02*
X004274Y009212D01*
X004274Y009241D02*
X004364Y009241D01*
X004364Y009270D02*
X004274Y009270D01*
X004274Y009299D02*
X004364Y009299D01*
X004364Y009328D02*
X004274Y009328D01*
X004274Y009357D02*
X004364Y009357D01*
X004364Y009386D02*
X004274Y009386D01*
X004274Y009415D02*
X004364Y009415D01*
X004364Y009444D02*
X004274Y009444D01*
X004274Y009473D02*
X004364Y009473D01*
X004364Y009502D02*
X004274Y009502D01*
X004274Y009531D02*
X004364Y009531D01*
X004364Y009560D02*
X004274Y009560D01*
X004274Y009589D02*
X004364Y009589D01*
X004364Y009618D02*
X004274Y009618D01*
X004274Y009647D02*
X004364Y009647D01*
X004364Y009676D02*
X004274Y009676D01*
X004274Y009705D02*
X004364Y009705D01*
X004364Y009734D02*
X004274Y009734D01*
X004274Y009763D02*
X004364Y009763D01*
X004431Y009776D02*
X004431Y009096D01*
X004431Y009776D02*
X004521Y009776D01*
X004521Y009096D01*
X004431Y009096D01*
X004431Y009125D02*
X004521Y009125D01*
X004521Y009154D02*
X004431Y009154D01*
X004431Y009183D02*
X004521Y009183D01*
X004521Y009212D02*
X004431Y009212D01*
X004431Y009241D02*
X004521Y009241D01*
X004521Y009270D02*
X004431Y009270D01*
X004431Y009299D02*
X004521Y009299D01*
X004521Y009328D02*
X004431Y009328D01*
X004431Y009357D02*
X004521Y009357D01*
X004521Y009386D02*
X004431Y009386D01*
X004431Y009415D02*
X004521Y009415D01*
X004521Y009444D02*
X004431Y009444D01*
X004431Y009473D02*
X004521Y009473D01*
X004521Y009502D02*
X004431Y009502D01*
X004431Y009531D02*
X004521Y009531D01*
X004521Y009560D02*
X004431Y009560D01*
X004431Y009589D02*
X004521Y009589D01*
X004521Y009618D02*
X004431Y009618D01*
X004431Y009647D02*
X004521Y009647D01*
X004521Y009676D02*
X004431Y009676D01*
X004431Y009705D02*
X004521Y009705D01*
X004521Y009734D02*
X004431Y009734D01*
X004431Y009763D02*
X004521Y009763D01*
X004589Y009776D02*
X004589Y009096D01*
X004589Y009776D02*
X004679Y009776D01*
X004679Y009096D01*
X004589Y009096D01*
X004589Y009125D02*
X004679Y009125D01*
X004679Y009154D02*
X004589Y009154D01*
X004589Y009183D02*
X004679Y009183D01*
X004679Y009212D02*
X004589Y009212D01*
X004589Y009241D02*
X004679Y009241D01*
X004679Y009270D02*
X004589Y009270D01*
X004589Y009299D02*
X004679Y009299D01*
X004679Y009328D02*
X004589Y009328D01*
X004589Y009357D02*
X004679Y009357D01*
X004679Y009386D02*
X004589Y009386D01*
X004589Y009415D02*
X004679Y009415D01*
X004679Y009444D02*
X004589Y009444D01*
X004589Y009473D02*
X004679Y009473D01*
X004679Y009502D02*
X004589Y009502D01*
X004589Y009531D02*
X004679Y009531D01*
X004679Y009560D02*
X004589Y009560D01*
X004589Y009589D02*
X004679Y009589D01*
X004679Y009618D02*
X004589Y009618D01*
X004589Y009647D02*
X004679Y009647D01*
X004679Y009676D02*
X004589Y009676D01*
X004589Y009705D02*
X004679Y009705D01*
X004679Y009734D02*
X004589Y009734D01*
X004589Y009763D02*
X004679Y009763D01*
X004746Y009776D02*
X004746Y009096D01*
X004746Y009776D02*
X004836Y009776D01*
X004836Y009096D01*
X004746Y009096D01*
X004746Y009125D02*
X004836Y009125D01*
X004836Y009154D02*
X004746Y009154D01*
X004746Y009183D02*
X004836Y009183D01*
X004836Y009212D02*
X004746Y009212D01*
X004746Y009241D02*
X004836Y009241D01*
X004836Y009270D02*
X004746Y009270D01*
X004746Y009299D02*
X004836Y009299D01*
X004836Y009328D02*
X004746Y009328D01*
X004746Y009357D02*
X004836Y009357D01*
X004836Y009386D02*
X004746Y009386D01*
X004746Y009415D02*
X004836Y009415D01*
X004836Y009444D02*
X004746Y009444D01*
X004746Y009473D02*
X004836Y009473D01*
X004836Y009502D02*
X004746Y009502D01*
X004746Y009531D02*
X004836Y009531D01*
X004836Y009560D02*
X004746Y009560D01*
X004746Y009589D02*
X004836Y009589D01*
X004836Y009618D02*
X004746Y009618D01*
X004746Y009647D02*
X004836Y009647D01*
X004836Y009676D02*
X004746Y009676D01*
X004746Y009705D02*
X004836Y009705D01*
X004836Y009734D02*
X004746Y009734D01*
X004746Y009763D02*
X004836Y009763D01*
X004904Y009776D02*
X004904Y009096D01*
X004904Y009776D02*
X004994Y009776D01*
X004994Y009096D01*
X004904Y009096D01*
X004904Y009125D02*
X004994Y009125D01*
X004994Y009154D02*
X004904Y009154D01*
X004904Y009183D02*
X004994Y009183D01*
X004994Y009212D02*
X004904Y009212D01*
X004904Y009241D02*
X004994Y009241D01*
X004994Y009270D02*
X004904Y009270D01*
X004904Y009299D02*
X004994Y009299D01*
X004994Y009328D02*
X004904Y009328D01*
X004904Y009357D02*
X004994Y009357D01*
X004994Y009386D02*
X004904Y009386D01*
X004904Y009415D02*
X004994Y009415D01*
X004994Y009444D02*
X004904Y009444D01*
X004904Y009473D02*
X004994Y009473D01*
X004994Y009502D02*
X004904Y009502D01*
X004904Y009531D02*
X004994Y009531D01*
X004994Y009560D02*
X004904Y009560D01*
X004904Y009589D02*
X004994Y009589D01*
X004994Y009618D02*
X004904Y009618D01*
X004904Y009647D02*
X004994Y009647D01*
X004994Y009676D02*
X004904Y009676D01*
X004904Y009705D02*
X004994Y009705D01*
X004994Y009734D02*
X004904Y009734D01*
X004904Y009763D02*
X004994Y009763D01*
X005061Y009776D02*
X005061Y009096D01*
X005061Y009776D02*
X005151Y009776D01*
X005151Y009096D01*
X005061Y009096D01*
X005061Y009125D02*
X005151Y009125D01*
X005151Y009154D02*
X005061Y009154D01*
X005061Y009183D02*
X005151Y009183D01*
X005151Y009212D02*
X005061Y009212D01*
X005061Y009241D02*
X005151Y009241D01*
X005151Y009270D02*
X005061Y009270D01*
X005061Y009299D02*
X005151Y009299D01*
X005151Y009328D02*
X005061Y009328D01*
X005061Y009357D02*
X005151Y009357D01*
X005151Y009386D02*
X005061Y009386D01*
X005061Y009415D02*
X005151Y009415D01*
X005151Y009444D02*
X005061Y009444D01*
X005061Y009473D02*
X005151Y009473D01*
X005151Y009502D02*
X005061Y009502D01*
X005061Y009531D02*
X005151Y009531D01*
X005151Y009560D02*
X005061Y009560D01*
X005061Y009589D02*
X005151Y009589D01*
X005151Y009618D02*
X005061Y009618D01*
X005061Y009647D02*
X005151Y009647D01*
X005151Y009676D02*
X005061Y009676D01*
X005061Y009705D02*
X005151Y009705D01*
X005151Y009734D02*
X005061Y009734D01*
X005061Y009763D02*
X005151Y009763D01*
X005219Y009776D02*
X005219Y009096D01*
X005219Y009776D02*
X005309Y009776D01*
X005309Y009096D01*
X005219Y009096D01*
X005219Y009125D02*
X005309Y009125D01*
X005309Y009154D02*
X005219Y009154D01*
X005219Y009183D02*
X005309Y009183D01*
X005309Y009212D02*
X005219Y009212D01*
X005219Y009241D02*
X005309Y009241D01*
X005309Y009270D02*
X005219Y009270D01*
X005219Y009299D02*
X005309Y009299D01*
X005309Y009328D02*
X005219Y009328D01*
X005219Y009357D02*
X005309Y009357D01*
X005309Y009386D02*
X005219Y009386D01*
X005219Y009415D02*
X005309Y009415D01*
X005309Y009444D02*
X005219Y009444D01*
X005219Y009473D02*
X005309Y009473D01*
X005309Y009502D02*
X005219Y009502D01*
X005219Y009531D02*
X005309Y009531D01*
X005309Y009560D02*
X005219Y009560D01*
X005219Y009589D02*
X005309Y009589D01*
X005309Y009618D02*
X005219Y009618D01*
X005219Y009647D02*
X005309Y009647D01*
X005309Y009676D02*
X005219Y009676D01*
X005219Y009705D02*
X005309Y009705D01*
X005309Y009734D02*
X005219Y009734D01*
X005219Y009763D02*
X005309Y009763D01*
X005376Y009776D02*
X005376Y009096D01*
X005376Y009776D02*
X005466Y009776D01*
X005466Y009096D01*
X005376Y009096D01*
X005376Y009125D02*
X005466Y009125D01*
X005466Y009154D02*
X005376Y009154D01*
X005376Y009183D02*
X005466Y009183D01*
X005466Y009212D02*
X005376Y009212D01*
X005376Y009241D02*
X005466Y009241D01*
X005466Y009270D02*
X005376Y009270D01*
X005376Y009299D02*
X005466Y009299D01*
X005466Y009328D02*
X005376Y009328D01*
X005376Y009357D02*
X005466Y009357D01*
X005466Y009386D02*
X005376Y009386D01*
X005376Y009415D02*
X005466Y009415D01*
X005466Y009444D02*
X005376Y009444D01*
X005376Y009473D02*
X005466Y009473D01*
X005466Y009502D02*
X005376Y009502D01*
X005376Y009531D02*
X005466Y009531D01*
X005466Y009560D02*
X005376Y009560D01*
X005376Y009589D02*
X005466Y009589D01*
X005466Y009618D02*
X005376Y009618D01*
X005376Y009647D02*
X005466Y009647D01*
X005466Y009676D02*
X005376Y009676D01*
X005376Y009705D02*
X005466Y009705D01*
X005466Y009734D02*
X005376Y009734D01*
X005376Y009763D02*
X005466Y009763D01*
X005534Y009776D02*
X005534Y009096D01*
X005534Y009776D02*
X005624Y009776D01*
X005624Y009096D01*
X005534Y009096D01*
X005534Y009125D02*
X005624Y009125D01*
X005624Y009154D02*
X005534Y009154D01*
X005534Y009183D02*
X005624Y009183D01*
X005624Y009212D02*
X005534Y009212D01*
X005534Y009241D02*
X005624Y009241D01*
X005624Y009270D02*
X005534Y009270D01*
X005534Y009299D02*
X005624Y009299D01*
X005624Y009328D02*
X005534Y009328D01*
X005534Y009357D02*
X005624Y009357D01*
X005624Y009386D02*
X005534Y009386D01*
X005534Y009415D02*
X005624Y009415D01*
X005624Y009444D02*
X005534Y009444D01*
X005534Y009473D02*
X005624Y009473D01*
X005624Y009502D02*
X005534Y009502D01*
X005534Y009531D02*
X005624Y009531D01*
X005624Y009560D02*
X005534Y009560D01*
X005534Y009589D02*
X005624Y009589D01*
X005624Y009618D02*
X005534Y009618D01*
X005534Y009647D02*
X005624Y009647D01*
X005624Y009676D02*
X005534Y009676D01*
X005534Y009705D02*
X005624Y009705D01*
X005624Y009734D02*
X005534Y009734D01*
X005534Y009763D02*
X005624Y009763D01*
X005691Y009776D02*
X005691Y009096D01*
X005691Y009776D02*
X005781Y009776D01*
X005781Y009096D01*
X005691Y009096D01*
X005691Y009125D02*
X005781Y009125D01*
X005781Y009154D02*
X005691Y009154D01*
X005691Y009183D02*
X005781Y009183D01*
X005781Y009212D02*
X005691Y009212D01*
X005691Y009241D02*
X005781Y009241D01*
X005781Y009270D02*
X005691Y009270D01*
X005691Y009299D02*
X005781Y009299D01*
X005781Y009328D02*
X005691Y009328D01*
X005691Y009357D02*
X005781Y009357D01*
X005781Y009386D02*
X005691Y009386D01*
X005691Y009415D02*
X005781Y009415D01*
X005781Y009444D02*
X005691Y009444D01*
X005691Y009473D02*
X005781Y009473D01*
X005781Y009502D02*
X005691Y009502D01*
X005691Y009531D02*
X005781Y009531D01*
X005781Y009560D02*
X005691Y009560D01*
X005691Y009589D02*
X005781Y009589D01*
X005781Y009618D02*
X005691Y009618D01*
X005691Y009647D02*
X005781Y009647D01*
X005781Y009676D02*
X005691Y009676D01*
X005691Y009705D02*
X005781Y009705D01*
X005781Y009734D02*
X005691Y009734D01*
X005691Y009763D02*
X005781Y009763D01*
X005849Y009776D02*
X005849Y009096D01*
X005849Y009776D02*
X005939Y009776D01*
X005939Y009096D01*
X005849Y009096D01*
X005849Y009125D02*
X005939Y009125D01*
X005939Y009154D02*
X005849Y009154D01*
X005849Y009183D02*
X005939Y009183D01*
X005939Y009212D02*
X005849Y009212D01*
X005849Y009241D02*
X005939Y009241D01*
X005939Y009270D02*
X005849Y009270D01*
X005849Y009299D02*
X005939Y009299D01*
X005939Y009328D02*
X005849Y009328D01*
X005849Y009357D02*
X005939Y009357D01*
X005939Y009386D02*
X005849Y009386D01*
X005849Y009415D02*
X005939Y009415D01*
X005939Y009444D02*
X005849Y009444D01*
X005849Y009473D02*
X005939Y009473D01*
X005939Y009502D02*
X005849Y009502D01*
X005849Y009531D02*
X005939Y009531D01*
X005939Y009560D02*
X005849Y009560D01*
X005849Y009589D02*
X005939Y009589D01*
X005939Y009618D02*
X005849Y009618D01*
X005849Y009647D02*
X005939Y009647D01*
X005939Y009676D02*
X005849Y009676D01*
X005849Y009705D02*
X005939Y009705D01*
X005939Y009734D02*
X005849Y009734D01*
X005849Y009763D02*
X005939Y009763D01*
X006006Y009776D02*
X006006Y009096D01*
X006006Y009776D02*
X006096Y009776D01*
X006096Y009096D01*
X006006Y009096D01*
X006006Y009125D02*
X006096Y009125D01*
X006096Y009154D02*
X006006Y009154D01*
X006006Y009183D02*
X006096Y009183D01*
X006096Y009212D02*
X006006Y009212D01*
X006006Y009241D02*
X006096Y009241D01*
X006096Y009270D02*
X006006Y009270D01*
X006006Y009299D02*
X006096Y009299D01*
X006096Y009328D02*
X006006Y009328D01*
X006006Y009357D02*
X006096Y009357D01*
X006096Y009386D02*
X006006Y009386D01*
X006006Y009415D02*
X006096Y009415D01*
X006096Y009444D02*
X006006Y009444D01*
X006006Y009473D02*
X006096Y009473D01*
X006096Y009502D02*
X006006Y009502D01*
X006006Y009531D02*
X006096Y009531D01*
X006096Y009560D02*
X006006Y009560D01*
X006006Y009589D02*
X006096Y009589D01*
X006096Y009618D02*
X006006Y009618D01*
X006006Y009647D02*
X006096Y009647D01*
X006096Y009676D02*
X006006Y009676D01*
X006006Y009705D02*
X006096Y009705D01*
X006096Y009734D02*
X006006Y009734D01*
X006006Y009763D02*
X006096Y009763D01*
X006164Y009776D02*
X006164Y009096D01*
X006164Y009776D02*
X006254Y009776D01*
X006254Y009096D01*
X006164Y009096D01*
X006164Y009125D02*
X006254Y009125D01*
X006254Y009154D02*
X006164Y009154D01*
X006164Y009183D02*
X006254Y009183D01*
X006254Y009212D02*
X006164Y009212D01*
X006164Y009241D02*
X006254Y009241D01*
X006254Y009270D02*
X006164Y009270D01*
X006164Y009299D02*
X006254Y009299D01*
X006254Y009328D02*
X006164Y009328D01*
X006164Y009357D02*
X006254Y009357D01*
X006254Y009386D02*
X006164Y009386D01*
X006164Y009415D02*
X006254Y009415D01*
X006254Y009444D02*
X006164Y009444D01*
X006164Y009473D02*
X006254Y009473D01*
X006254Y009502D02*
X006164Y009502D01*
X006164Y009531D02*
X006254Y009531D01*
X006254Y009560D02*
X006164Y009560D01*
X006164Y009589D02*
X006254Y009589D01*
X006254Y009618D02*
X006164Y009618D01*
X006164Y009647D02*
X006254Y009647D01*
X006254Y009676D02*
X006164Y009676D01*
X006164Y009705D02*
X006254Y009705D01*
X006254Y009734D02*
X006164Y009734D01*
X006164Y009763D02*
X006254Y009763D01*
X006321Y009776D02*
X006321Y009096D01*
X006321Y009776D02*
X006411Y009776D01*
X006411Y009096D01*
X006321Y009096D01*
X006321Y009125D02*
X006411Y009125D01*
X006411Y009154D02*
X006321Y009154D01*
X006321Y009183D02*
X006411Y009183D01*
X006411Y009212D02*
X006321Y009212D01*
X006321Y009241D02*
X006411Y009241D01*
X006411Y009270D02*
X006321Y009270D01*
X006321Y009299D02*
X006411Y009299D01*
X006411Y009328D02*
X006321Y009328D01*
X006321Y009357D02*
X006411Y009357D01*
X006411Y009386D02*
X006321Y009386D01*
X006321Y009415D02*
X006411Y009415D01*
X006411Y009444D02*
X006321Y009444D01*
X006321Y009473D02*
X006411Y009473D01*
X006411Y009502D02*
X006321Y009502D01*
X006321Y009531D02*
X006411Y009531D01*
X006411Y009560D02*
X006321Y009560D01*
X006321Y009589D02*
X006411Y009589D01*
X006411Y009618D02*
X006321Y009618D01*
X006321Y009647D02*
X006411Y009647D01*
X006411Y009676D02*
X006321Y009676D01*
X006321Y009705D02*
X006411Y009705D01*
X006411Y009734D02*
X006321Y009734D01*
X006321Y009763D02*
X006411Y009763D01*
X006479Y009776D02*
X006479Y009096D01*
X006479Y009776D02*
X006569Y009776D01*
X006569Y009096D01*
X006479Y009096D01*
X006479Y009125D02*
X006569Y009125D01*
X006569Y009154D02*
X006479Y009154D01*
X006479Y009183D02*
X006569Y009183D01*
X006569Y009212D02*
X006479Y009212D01*
X006479Y009241D02*
X006569Y009241D01*
X006569Y009270D02*
X006479Y009270D01*
X006479Y009299D02*
X006569Y009299D01*
X006569Y009328D02*
X006479Y009328D01*
X006479Y009357D02*
X006569Y009357D01*
X006569Y009386D02*
X006479Y009386D01*
X006479Y009415D02*
X006569Y009415D01*
X006569Y009444D02*
X006479Y009444D01*
X006479Y009473D02*
X006569Y009473D01*
X006569Y009502D02*
X006479Y009502D01*
X006479Y009531D02*
X006569Y009531D01*
X006569Y009560D02*
X006479Y009560D01*
X006479Y009589D02*
X006569Y009589D01*
X006569Y009618D02*
X006479Y009618D01*
X006479Y009647D02*
X006569Y009647D01*
X006569Y009676D02*
X006479Y009676D01*
X006479Y009705D02*
X006569Y009705D01*
X006569Y009734D02*
X006479Y009734D01*
X006479Y009763D02*
X006569Y009763D01*
X006636Y009776D02*
X006636Y009096D01*
X006636Y009776D02*
X006726Y009776D01*
X006726Y009096D01*
X006636Y009096D01*
X006636Y009125D02*
X006726Y009125D01*
X006726Y009154D02*
X006636Y009154D01*
X006636Y009183D02*
X006726Y009183D01*
X006726Y009212D02*
X006636Y009212D01*
X006636Y009241D02*
X006726Y009241D01*
X006726Y009270D02*
X006636Y009270D01*
X006636Y009299D02*
X006726Y009299D01*
X006726Y009328D02*
X006636Y009328D01*
X006636Y009357D02*
X006726Y009357D01*
X006726Y009386D02*
X006636Y009386D01*
X006636Y009415D02*
X006726Y009415D01*
X006726Y009444D02*
X006636Y009444D01*
X006636Y009473D02*
X006726Y009473D01*
X006726Y009502D02*
X006636Y009502D01*
X006636Y009531D02*
X006726Y009531D01*
X006726Y009560D02*
X006636Y009560D01*
X006636Y009589D02*
X006726Y009589D01*
X006726Y009618D02*
X006636Y009618D01*
X006636Y009647D02*
X006726Y009647D01*
X006726Y009676D02*
X006636Y009676D01*
X006636Y009705D02*
X006726Y009705D01*
X006726Y009734D02*
X006636Y009734D01*
X006636Y009763D02*
X006726Y009763D01*
X006794Y009776D02*
X006794Y009096D01*
X006794Y009776D02*
X006884Y009776D01*
X006884Y009096D01*
X006794Y009096D01*
X006794Y009125D02*
X006884Y009125D01*
X006884Y009154D02*
X006794Y009154D01*
X006794Y009183D02*
X006884Y009183D01*
X006884Y009212D02*
X006794Y009212D01*
X006794Y009241D02*
X006884Y009241D01*
X006884Y009270D02*
X006794Y009270D01*
X006794Y009299D02*
X006884Y009299D01*
X006884Y009328D02*
X006794Y009328D01*
X006794Y009357D02*
X006884Y009357D01*
X006884Y009386D02*
X006794Y009386D01*
X006794Y009415D02*
X006884Y009415D01*
X006884Y009444D02*
X006794Y009444D01*
X006794Y009473D02*
X006884Y009473D01*
X006884Y009502D02*
X006794Y009502D01*
X006794Y009531D02*
X006884Y009531D01*
X006884Y009560D02*
X006794Y009560D01*
X006794Y009589D02*
X006884Y009589D01*
X006884Y009618D02*
X006794Y009618D01*
X006794Y009647D02*
X006884Y009647D01*
X006884Y009676D02*
X006794Y009676D01*
X006794Y009705D02*
X006884Y009705D01*
X006884Y009734D02*
X006794Y009734D01*
X006794Y009763D02*
X006884Y009763D01*
X006951Y009776D02*
X006951Y009096D01*
X006951Y009776D02*
X007041Y009776D01*
X007041Y009096D01*
X006951Y009096D01*
X006951Y009125D02*
X007041Y009125D01*
X007041Y009154D02*
X006951Y009154D01*
X006951Y009183D02*
X007041Y009183D01*
X007041Y009212D02*
X006951Y009212D01*
X006951Y009241D02*
X007041Y009241D01*
X007041Y009270D02*
X006951Y009270D01*
X006951Y009299D02*
X007041Y009299D01*
X007041Y009328D02*
X006951Y009328D01*
X006951Y009357D02*
X007041Y009357D01*
X007041Y009386D02*
X006951Y009386D01*
X006951Y009415D02*
X007041Y009415D01*
X007041Y009444D02*
X006951Y009444D01*
X006951Y009473D02*
X007041Y009473D01*
X007041Y009502D02*
X006951Y009502D01*
X006951Y009531D02*
X007041Y009531D01*
X007041Y009560D02*
X006951Y009560D01*
X006951Y009589D02*
X007041Y009589D01*
X007041Y009618D02*
X006951Y009618D01*
X006951Y009647D02*
X007041Y009647D01*
X007041Y009676D02*
X006951Y009676D01*
X006951Y009705D02*
X007041Y009705D01*
X007041Y009734D02*
X006951Y009734D01*
X006951Y009763D02*
X007041Y009763D01*
D15*
X003506Y006391D03*
D16*
X003506Y006106D03*
X003309Y006106D03*
X003309Y006397D03*
X003112Y006397D03*
X003112Y006106D03*
D17*
X003026Y006110D02*
X003199Y006110D01*
X003199Y006118D02*
X003026Y006118D01*
X003026Y006127D02*
X003199Y006127D01*
X003199Y006135D02*
X003026Y006135D01*
X003026Y006144D02*
X003199Y006144D01*
X003199Y006152D02*
X003026Y006152D01*
X003026Y006161D02*
X003199Y006161D01*
X003199Y006169D02*
X003026Y006169D01*
X003026Y006178D02*
X003199Y006178D01*
X003199Y006186D02*
X003026Y006186D01*
X003026Y006195D02*
X003199Y006195D01*
X003199Y006203D02*
X003026Y006203D01*
X003026Y006212D02*
X003199Y006212D01*
X003199Y006220D02*
X003026Y006220D01*
X003026Y006229D02*
X003199Y006229D01*
X003199Y006236D02*
X003199Y005976D01*
X003026Y005976D01*
X003026Y006236D01*
X003199Y006236D01*
X003223Y006236D02*
X003223Y005976D01*
X003396Y005976D01*
X003396Y006236D01*
X003223Y006236D01*
X003223Y006229D02*
X003396Y006229D01*
X003396Y006220D02*
X003223Y006220D01*
X003223Y006212D02*
X003396Y006212D01*
X003396Y006203D02*
X003223Y006203D01*
X003223Y006195D02*
X003396Y006195D01*
X003396Y006186D02*
X003223Y006186D01*
X003223Y006178D02*
X003396Y006178D01*
X003396Y006169D02*
X003223Y006169D01*
X003223Y006161D02*
X003396Y006161D01*
X003396Y006152D02*
X003223Y006152D01*
X003223Y006144D02*
X003396Y006144D01*
X003396Y006135D02*
X003223Y006135D01*
X003223Y006127D02*
X003396Y006127D01*
X003396Y006118D02*
X003223Y006118D01*
X003223Y006110D02*
X003396Y006110D01*
X003396Y006101D02*
X003223Y006101D01*
X003223Y006093D02*
X003396Y006093D01*
X003396Y006084D02*
X003223Y006084D01*
X003223Y006076D02*
X003396Y006076D01*
X003396Y006067D02*
X003223Y006067D01*
X003223Y006059D02*
X003396Y006059D01*
X003396Y006050D02*
X003223Y006050D01*
X003223Y006042D02*
X003396Y006042D01*
X003396Y006033D02*
X003223Y006033D01*
X003223Y006025D02*
X003396Y006025D01*
X003396Y006016D02*
X003223Y006016D01*
X003223Y006008D02*
X003396Y006008D01*
X003396Y005999D02*
X003223Y005999D01*
X003223Y005991D02*
X003396Y005991D01*
X003396Y005982D02*
X003223Y005982D01*
X003199Y005982D02*
X003026Y005982D01*
X003026Y005991D02*
X003199Y005991D01*
X003199Y005999D02*
X003026Y005999D01*
X003026Y006008D02*
X003199Y006008D01*
X003199Y006016D02*
X003026Y006016D01*
X003026Y006025D02*
X003199Y006025D01*
X003199Y006033D02*
X003026Y006033D01*
X003026Y006042D02*
X003199Y006042D01*
X003199Y006050D02*
X003026Y006050D01*
X003026Y006059D02*
X003199Y006059D01*
X003199Y006067D02*
X003026Y006067D01*
X003026Y006076D02*
X003199Y006076D01*
X003199Y006084D02*
X003026Y006084D01*
X003026Y006093D02*
X003199Y006093D01*
X003199Y006101D02*
X003026Y006101D01*
X003026Y006267D02*
X003199Y006267D01*
X003199Y006527D01*
X003026Y006527D01*
X003026Y006267D01*
X003026Y006271D02*
X003199Y006271D01*
X003199Y006280D02*
X003026Y006280D01*
X003026Y006288D02*
X003199Y006288D01*
X003199Y006297D02*
X003026Y006297D01*
X003026Y006305D02*
X003199Y006305D01*
X003199Y006314D02*
X003026Y006314D01*
X003026Y006322D02*
X003199Y006322D01*
X003199Y006331D02*
X003026Y006331D01*
X003026Y006339D02*
X003199Y006339D01*
X003199Y006348D02*
X003026Y006348D01*
X003026Y006356D02*
X003199Y006356D01*
X003199Y006365D02*
X003026Y006365D01*
X003026Y006373D02*
X003199Y006373D01*
X003199Y006382D02*
X003026Y006382D01*
X003026Y006390D02*
X003199Y006390D01*
X003199Y006399D02*
X003026Y006399D01*
X003026Y006407D02*
X003199Y006407D01*
X003199Y006416D02*
X003026Y006416D01*
X003026Y006424D02*
X003199Y006424D01*
X003199Y006433D02*
X003026Y006433D01*
X003026Y006441D02*
X003199Y006441D01*
X003199Y006450D02*
X003026Y006450D01*
X003026Y006458D02*
X003199Y006458D01*
X003199Y006467D02*
X003026Y006467D01*
X003026Y006475D02*
X003199Y006475D01*
X003199Y006484D02*
X003026Y006484D01*
X003026Y006492D02*
X003199Y006492D01*
X003199Y006501D02*
X003026Y006501D01*
X003026Y006509D02*
X003199Y006509D01*
X003199Y006518D02*
X003026Y006518D01*
X003026Y006526D02*
X003199Y006526D01*
X003223Y006526D02*
X003396Y006526D01*
X003396Y006527D02*
X003396Y006267D01*
X003223Y006267D01*
X003223Y006527D01*
X003396Y006527D01*
X003396Y006518D02*
X003223Y006518D01*
X003223Y006509D02*
X003396Y006509D01*
X003396Y006501D02*
X003223Y006501D01*
X003223Y006492D02*
X003396Y006492D01*
X003396Y006484D02*
X003223Y006484D01*
X003223Y006475D02*
X003396Y006475D01*
X003396Y006467D02*
X003223Y006467D01*
X003223Y006458D02*
X003396Y006458D01*
X003396Y006450D02*
X003223Y006450D01*
X003223Y006441D02*
X003396Y006441D01*
X003396Y006433D02*
X003223Y006433D01*
X003223Y006424D02*
X003396Y006424D01*
X003396Y006416D02*
X003223Y006416D01*
X003223Y006407D02*
X003396Y006407D01*
X003396Y006399D02*
X003223Y006399D01*
X003223Y006390D02*
X003396Y006390D01*
X003396Y006382D02*
X003223Y006382D01*
X003223Y006373D02*
X003396Y006373D01*
X003396Y006365D02*
X003223Y006365D01*
X003223Y006356D02*
X003396Y006356D01*
X003396Y006348D02*
X003223Y006348D01*
X003223Y006339D02*
X003396Y006339D01*
X003396Y006331D02*
X003223Y006331D01*
X003223Y006322D02*
X003396Y006322D01*
X003396Y006314D02*
X003223Y006314D01*
X003223Y006305D02*
X003396Y006305D01*
X003396Y006297D02*
X003223Y006297D01*
X003223Y006288D02*
X003396Y006288D01*
X003396Y006280D02*
X003223Y006280D01*
X003223Y006271D02*
X003396Y006271D01*
X003419Y006271D02*
X003593Y006271D01*
X003593Y006267D02*
X003593Y006527D01*
X003419Y006527D01*
X003419Y006267D01*
X003593Y006267D01*
X003593Y006280D02*
X003419Y006280D01*
X003419Y006288D02*
X003593Y006288D01*
X003593Y006297D02*
X003419Y006297D01*
X003419Y006305D02*
X003593Y006305D01*
X003593Y006314D02*
X003419Y006314D01*
X003419Y006322D02*
X003593Y006322D01*
X003593Y006331D02*
X003419Y006331D01*
X003419Y006339D02*
X003593Y006339D01*
X003593Y006348D02*
X003419Y006348D01*
X003419Y006356D02*
X003593Y006356D01*
X003593Y006365D02*
X003419Y006365D01*
X003419Y006373D02*
X003593Y006373D01*
X003593Y006382D02*
X003419Y006382D01*
X003419Y006390D02*
X003593Y006390D01*
X003593Y006399D02*
X003419Y006399D01*
X003419Y006407D02*
X003593Y006407D01*
X003593Y006416D02*
X003419Y006416D01*
X003419Y006424D02*
X003593Y006424D01*
X003593Y006433D02*
X003419Y006433D01*
X003419Y006441D02*
X003593Y006441D01*
X003593Y006450D02*
X003419Y006450D01*
X003419Y006458D02*
X003593Y006458D01*
X003593Y006467D02*
X003419Y006467D01*
X003419Y006475D02*
X003593Y006475D01*
X003593Y006484D02*
X003419Y006484D01*
X003419Y006492D02*
X003593Y006492D01*
X003593Y006501D02*
X003419Y006501D01*
X003419Y006509D02*
X003593Y006509D01*
X003593Y006518D02*
X003419Y006518D01*
X003419Y006526D02*
X003593Y006526D01*
X003593Y006236D02*
X003593Y005976D01*
X003419Y005976D01*
X003419Y006236D01*
X003593Y006236D01*
X003593Y006229D02*
X003419Y006229D01*
X003419Y006220D02*
X003593Y006220D01*
X003593Y006212D02*
X003419Y006212D01*
X003419Y006203D02*
X003593Y006203D01*
X003593Y006195D02*
X003419Y006195D01*
X003419Y006186D02*
X003593Y006186D01*
X003593Y006178D02*
X003419Y006178D01*
X003419Y006169D02*
X003593Y006169D01*
X003593Y006161D02*
X003419Y006161D01*
X003419Y006152D02*
X003593Y006152D01*
X003593Y006144D02*
X003419Y006144D01*
X003419Y006135D02*
X003593Y006135D01*
X003593Y006127D02*
X003419Y006127D01*
X003419Y006118D02*
X003593Y006118D01*
X003593Y006110D02*
X003419Y006110D01*
X003419Y006101D02*
X003593Y006101D01*
X003593Y006093D02*
X003419Y006093D01*
X003419Y006084D02*
X003593Y006084D01*
X003593Y006076D02*
X003419Y006076D01*
X003419Y006067D02*
X003593Y006067D01*
X003593Y006059D02*
X003419Y006059D01*
X003419Y006050D02*
X003593Y006050D01*
X003593Y006042D02*
X003419Y006042D01*
X003419Y006033D02*
X003593Y006033D01*
X003593Y006025D02*
X003419Y006025D01*
X003419Y006016D02*
X003593Y006016D01*
X003593Y006008D02*
X003419Y006008D01*
X003419Y005999D02*
X003593Y005999D01*
X003593Y005991D02*
X003419Y005991D01*
X003419Y005982D02*
X003593Y005982D01*
D18*
X004360Y005957D03*
X004360Y006705D03*
D19*
X003670Y023668D03*
X003670Y024668D03*
X002670Y024768D03*
X002670Y023768D03*
X004670Y023768D03*
X004670Y024768D03*
D20*
X004769Y022721D02*
X004769Y022379D01*
X004655Y022379D01*
X004655Y022721D01*
X004769Y022721D01*
X004769Y022416D02*
X004655Y022416D01*
X004655Y022453D02*
X004769Y022453D01*
X004769Y022490D02*
X004655Y022490D01*
X004655Y022527D02*
X004769Y022527D01*
X004769Y022564D02*
X004655Y022564D01*
X004655Y022601D02*
X004769Y022601D01*
X004769Y022638D02*
X004655Y022638D01*
X004655Y022675D02*
X004769Y022675D01*
X004769Y022712D02*
X004655Y022712D01*
X004572Y022721D02*
X004572Y022379D01*
X004458Y022379D01*
X004458Y022721D01*
X004572Y022721D01*
X004572Y022416D02*
X004458Y022416D01*
X004458Y022453D02*
X004572Y022453D01*
X004572Y022490D02*
X004458Y022490D01*
X004458Y022527D02*
X004572Y022527D01*
X004572Y022564D02*
X004458Y022564D01*
X004458Y022601D02*
X004572Y022601D01*
X004572Y022638D02*
X004458Y022638D01*
X004458Y022675D02*
X004572Y022675D01*
X004572Y022712D02*
X004458Y022712D01*
X004416Y022224D02*
X004074Y022224D01*
X004074Y022338D01*
X004416Y022338D01*
X004416Y022224D01*
X004416Y022261D02*
X004074Y022261D01*
X004074Y022298D02*
X004416Y022298D01*
X004416Y022335D02*
X004074Y022335D01*
X004074Y022027D02*
X004416Y022027D01*
X004074Y022027D02*
X004074Y022141D01*
X004416Y022141D01*
X004416Y022027D01*
X004416Y022064D02*
X004074Y022064D01*
X004074Y022101D02*
X004416Y022101D01*
X004416Y022138D02*
X004074Y022138D01*
X004074Y021830D02*
X004416Y021830D01*
X004074Y021830D02*
X004074Y021944D01*
X004416Y021944D01*
X004416Y021830D01*
X004416Y021867D02*
X004074Y021867D01*
X004074Y021904D02*
X004416Y021904D01*
X004416Y021941D02*
X004074Y021941D01*
X004074Y021633D02*
X004416Y021633D01*
X004074Y021633D02*
X004074Y021747D01*
X004416Y021747D01*
X004416Y021633D01*
X004416Y021670D02*
X004074Y021670D01*
X004074Y021707D02*
X004416Y021707D01*
X004416Y021744D02*
X004074Y021744D01*
X004572Y021591D02*
X004572Y021249D01*
X004458Y021249D01*
X004458Y021591D01*
X004572Y021591D01*
X004572Y021286D02*
X004458Y021286D01*
X004458Y021323D02*
X004572Y021323D01*
X004572Y021360D02*
X004458Y021360D01*
X004458Y021397D02*
X004572Y021397D01*
X004572Y021434D02*
X004458Y021434D01*
X004458Y021471D02*
X004572Y021471D01*
X004572Y021508D02*
X004458Y021508D01*
X004458Y021545D02*
X004572Y021545D01*
X004572Y021582D02*
X004458Y021582D01*
X004769Y021591D02*
X004769Y021249D01*
X004655Y021249D01*
X004655Y021591D01*
X004769Y021591D01*
X004769Y021286D02*
X004655Y021286D01*
X004655Y021323D02*
X004769Y021323D01*
X004769Y021360D02*
X004655Y021360D01*
X004655Y021397D02*
X004769Y021397D01*
X004769Y021434D02*
X004655Y021434D01*
X004655Y021471D02*
X004769Y021471D01*
X004769Y021508D02*
X004655Y021508D01*
X004655Y021545D02*
X004769Y021545D01*
X004769Y021582D02*
X004655Y021582D01*
X004965Y021591D02*
X004965Y021249D01*
X004851Y021249D01*
X004851Y021591D01*
X004965Y021591D01*
X004965Y021286D02*
X004851Y021286D01*
X004851Y021323D02*
X004965Y021323D01*
X004965Y021360D02*
X004851Y021360D01*
X004851Y021397D02*
X004965Y021397D01*
X004965Y021434D02*
X004851Y021434D01*
X004851Y021471D02*
X004965Y021471D01*
X004965Y021508D02*
X004851Y021508D01*
X004851Y021545D02*
X004965Y021545D01*
X004965Y021582D02*
X004851Y021582D01*
X005162Y021591D02*
X005162Y021249D01*
X005048Y021249D01*
X005048Y021591D01*
X005162Y021591D01*
X005162Y021286D02*
X005048Y021286D01*
X005048Y021323D02*
X005162Y021323D01*
X005162Y021360D02*
X005048Y021360D01*
X005048Y021397D02*
X005162Y021397D01*
X005162Y021434D02*
X005048Y021434D01*
X005048Y021471D02*
X005162Y021471D01*
X005162Y021508D02*
X005048Y021508D01*
X005048Y021545D02*
X005162Y021545D01*
X005162Y021582D02*
X005048Y021582D01*
X005204Y021633D02*
X005546Y021633D01*
X005204Y021633D02*
X005204Y021747D01*
X005546Y021747D01*
X005546Y021633D01*
X005546Y021670D02*
X005204Y021670D01*
X005204Y021707D02*
X005546Y021707D01*
X005546Y021744D02*
X005204Y021744D01*
X005204Y021830D02*
X005546Y021830D01*
X005204Y021830D02*
X005204Y021944D01*
X005546Y021944D01*
X005546Y021830D01*
X005546Y021867D02*
X005204Y021867D01*
X005204Y021904D02*
X005546Y021904D01*
X005546Y021941D02*
X005204Y021941D01*
X005204Y022027D02*
X005546Y022027D01*
X005204Y022027D02*
X005204Y022141D01*
X005546Y022141D01*
X005546Y022027D01*
X005546Y022064D02*
X005204Y022064D01*
X005204Y022101D02*
X005546Y022101D01*
X005546Y022138D02*
X005204Y022138D01*
X005204Y022224D02*
X005546Y022224D01*
X005204Y022224D02*
X005204Y022338D01*
X005546Y022338D01*
X005546Y022224D01*
X005546Y022261D02*
X005204Y022261D01*
X005204Y022298D02*
X005546Y022298D01*
X005546Y022335D02*
X005204Y022335D01*
X005162Y022379D02*
X005162Y022721D01*
X005162Y022379D02*
X005048Y022379D01*
X005048Y022721D01*
X005162Y022721D01*
X005162Y022416D02*
X005048Y022416D01*
X005048Y022453D02*
X005162Y022453D01*
X005162Y022490D02*
X005048Y022490D01*
X005048Y022527D02*
X005162Y022527D01*
X005162Y022564D02*
X005048Y022564D01*
X005048Y022601D02*
X005162Y022601D01*
X005162Y022638D02*
X005048Y022638D01*
X005048Y022675D02*
X005162Y022675D01*
X005162Y022712D02*
X005048Y022712D01*
X004965Y022721D02*
X004965Y022379D01*
X004851Y022379D01*
X004851Y022721D01*
X004965Y022721D01*
X004965Y022416D02*
X004851Y022416D01*
X004851Y022453D02*
X004965Y022453D01*
X004965Y022490D02*
X004851Y022490D01*
X004851Y022527D02*
X004965Y022527D01*
X004965Y022564D02*
X004851Y022564D01*
X004851Y022601D02*
X004965Y022601D01*
X004965Y022638D02*
X004851Y022638D01*
X004851Y022675D02*
X004965Y022675D01*
X004965Y022712D02*
X004851Y022712D01*
D21*
X005190Y006681D03*
X005190Y006071D03*
X005390Y006071D03*
X005390Y006681D03*
D22*
X005290Y006376D03*
D23*
X003331Y021239D03*
X003134Y021239D03*
X002937Y021239D03*
X002740Y021239D03*
X002740Y021751D03*
X002937Y021751D03*
X003134Y021751D03*
X003331Y021751D03*
X003331Y022420D03*
X003331Y022932D03*
X003134Y022932D03*
X003134Y022420D03*
X002937Y022420D03*
X002937Y022932D03*
X002740Y022932D03*
X002740Y022420D03*
X006515Y022154D03*
X006515Y021642D03*
X006712Y021642D03*
X006712Y022154D03*
X006908Y022154D03*
X006908Y021642D03*
X007105Y021642D03*
X007105Y022154D03*
D24*
X001727Y005869D03*
X001727Y006869D03*
X001727Y007869D03*
X001727Y008869D03*
X001727Y009869D03*
X001727Y010869D03*
X001727Y011869D03*
X001727Y012869D03*
X001727Y013869D03*
X001727Y014869D03*
X001727Y015869D03*
X001727Y016869D03*
X001727Y017869D03*
X001727Y018869D03*
X001727Y019869D03*
X001727Y020869D03*
X001727Y021869D03*
X001727Y022869D03*
X001727Y023869D03*
X001727Y024869D03*
X007727Y024869D03*
X007727Y023869D03*
X007727Y022869D03*
X007727Y021869D03*
X007727Y020869D03*
X007727Y019869D03*
X007727Y018869D03*
X007727Y017869D03*
X007727Y016869D03*
X007727Y015869D03*
X007727Y014869D03*
X007727Y013869D03*
X007727Y012869D03*
X007727Y011869D03*
X007727Y010869D03*
X007727Y009869D03*
X007727Y008869D03*
X007727Y007869D03*
X007727Y006869D03*
X007727Y005869D03*
D25*
X006805Y007389D03*
X006805Y008389D03*
X005805Y008389D03*
X005805Y007389D03*
X004805Y007389D03*
X004805Y008389D03*
X003805Y008389D03*
X003805Y007389D03*
X002805Y007389D03*
X002805Y008389D03*
X005750Y024438D03*
X005750Y025438D03*
X006750Y025438D03*
X006750Y024438D03*
D26*
X006425Y006451D03*
X006425Y005624D03*
X007075Y005624D03*
X007075Y006451D03*
D27*
X004450Y005546D03*
X001202Y006291D03*
X000970Y009506D03*
X001090Y014778D03*
M02*
