G75*
%MOIN*%
%OFA0B0*%
%FSLAX24Y24*%
%IPPOS*%
%LPD*%
%AMOC8*
5,1,8,0,0,1.08239X$1,22.5*
%
%ADD10OC8,0.0480*%
%ADD11OC8,0.0531*%
%ADD12C,0.0060*%
%ADD13C,0.0179*%
%ADD14C,0.0200*%
%ADD15OC8,0.0354*%
D10*
X001010Y001000D03*
X001010Y002000D03*
X001010Y003000D03*
X001010Y004000D03*
X001010Y005000D03*
X001010Y006000D03*
X001010Y007000D03*
X001010Y008000D03*
X001010Y009000D03*
X001010Y010000D03*
X001010Y011000D03*
X001010Y012000D03*
X001010Y013000D03*
X001010Y014000D03*
X001010Y015000D03*
X001010Y016000D03*
X001010Y017000D03*
X001010Y018000D03*
X001010Y019000D03*
X001010Y020000D03*
X002191Y020000D03*
X002191Y019000D03*
X002191Y018000D03*
X002191Y017000D03*
X002191Y016000D03*
X002191Y015000D03*
X002191Y014000D03*
X002191Y013000D03*
X002191Y012000D03*
X002191Y011000D03*
X002191Y010000D03*
X002191Y009000D03*
X002191Y008000D03*
X002191Y007000D03*
X002191Y006000D03*
X002191Y005000D03*
X002191Y004000D03*
X002191Y003000D03*
X002191Y002000D03*
X002191Y001000D03*
X007010Y001000D03*
X007010Y002000D03*
X007010Y003000D03*
X007010Y004000D03*
X007010Y005000D03*
X007010Y006000D03*
X007010Y007000D03*
X007010Y008000D03*
X007010Y009000D03*
X007010Y010000D03*
X007010Y011000D03*
X007010Y012000D03*
X007010Y013000D03*
X007010Y014000D03*
X007010Y015000D03*
X007010Y016000D03*
X007010Y017000D03*
X007010Y018000D03*
X007010Y019000D03*
X007010Y020000D03*
X008191Y020000D03*
X008191Y019000D03*
X008191Y018000D03*
X008191Y017000D03*
X008191Y016000D03*
X008191Y015000D03*
X008191Y014000D03*
X008191Y013000D03*
X008191Y012000D03*
X008191Y011000D03*
X008191Y010000D03*
X008191Y009000D03*
X008191Y008000D03*
X008191Y007000D03*
X008191Y006000D03*
X008191Y005000D03*
X008191Y004000D03*
X008191Y003000D03*
X008191Y002000D03*
X008191Y001000D03*
D11*
X009116Y005510D03*
X009116Y006510D03*
X009116Y007510D03*
X009116Y008510D03*
X009116Y016510D03*
X009116Y017510D03*
X009116Y018510D03*
X009116Y019510D03*
D12*
X009116Y018510D02*
X009061Y018460D01*
X008701Y018460D01*
X008701Y009040D01*
X008281Y008620D01*
X007381Y008620D01*
X007021Y008980D01*
X007010Y009000D01*
X007021Y008500D02*
X009061Y008500D01*
X009116Y008510D01*
X009116Y007510D02*
X009061Y007480D01*
X004201Y007480D01*
X003181Y006460D01*
X003361Y006940D02*
X004081Y007660D01*
X007861Y007660D01*
X008161Y007960D01*
X008191Y008000D01*
X008191Y009000D02*
X008161Y009040D01*
X007561Y009640D01*
X001381Y009640D01*
X001021Y010000D01*
X001010Y010000D01*
X000961Y010480D02*
X001381Y010900D01*
X001381Y013660D01*
X000841Y013660D01*
X000421Y014080D01*
X000421Y017380D01*
X001141Y017380D01*
X002161Y016360D01*
X002161Y016000D01*
X002191Y016000D01*
X002521Y015700D02*
X002821Y016000D01*
X007010Y016000D01*
X006961Y016960D02*
X007010Y017000D01*
X006961Y016960D02*
X003961Y016960D01*
X003181Y016180D01*
X003361Y017800D02*
X003541Y017980D01*
X006961Y017980D01*
X007010Y018000D01*
X007381Y018640D02*
X001381Y018640D01*
X001021Y019000D01*
X001010Y019000D01*
X000961Y018460D02*
X007621Y018460D01*
X008161Y019000D01*
X008191Y019000D01*
X008521Y019660D02*
X001321Y019660D01*
X001021Y019960D01*
X001010Y020000D01*
X000961Y018460D02*
X000541Y018040D01*
X001010Y018000D02*
X001021Y017980D01*
X001621Y017380D01*
X007561Y017380D01*
X007801Y017620D02*
X008161Y017980D01*
X008191Y018000D01*
X007801Y017620D02*
X001681Y017620D01*
X001561Y017740D01*
X001010Y017000D02*
X000961Y016960D01*
X000961Y016360D01*
X000901Y016360D01*
X000541Y016000D01*
X000541Y014380D01*
X007801Y014380D01*
X008161Y014020D01*
X008191Y014000D01*
X007681Y014500D02*
X008161Y014980D01*
X008191Y015000D01*
X007681Y014500D02*
X000661Y014500D01*
X000661Y015160D01*
X000841Y015340D01*
X000961Y015340D01*
X000961Y016000D01*
X001010Y016000D01*
X001501Y015520D02*
X001021Y015040D01*
X001010Y015000D01*
X001441Y014680D02*
X001741Y014980D01*
X002161Y014980D01*
X002191Y015000D01*
X002191Y014000D02*
X002221Y013960D01*
X004141Y013960D01*
X004381Y013720D01*
X004921Y012700D02*
X006721Y012700D01*
X007010Y013000D02*
X003181Y013000D01*
X002221Y012040D01*
X002191Y012000D01*
X002221Y013000D02*
X002191Y013000D01*
X002221Y013000D02*
X002581Y013360D01*
X007141Y013360D01*
X007381Y013120D01*
X007381Y012040D01*
X007021Y012040D01*
X007010Y012000D01*
X006541Y013540D02*
X006961Y013960D01*
X007010Y014000D01*
X006541Y013540D02*
X001561Y013540D01*
X001561Y011620D01*
X002161Y011020D01*
X002191Y011000D01*
X002221Y010000D02*
X002191Y010000D01*
X002221Y010000D02*
X004921Y012700D01*
X006481Y009460D02*
X003181Y009460D01*
X003181Y007000D01*
X002221Y006040D01*
X002191Y006000D01*
X001010Y006000D02*
X000961Y006040D01*
X000961Y006640D01*
X000901Y006640D01*
X000661Y006880D01*
X000661Y010480D01*
X000961Y010480D01*
X000541Y010540D02*
X000961Y010960D01*
X001010Y011000D01*
X000541Y010540D02*
X000541Y005620D01*
X007801Y005620D01*
X008161Y005980D01*
X008191Y006000D01*
X008041Y005500D02*
X009061Y005500D01*
X009116Y005510D01*
X009061Y006460D02*
X009116Y006510D01*
X009061Y006460D02*
X007441Y006460D01*
X007021Y006040D01*
X007010Y006000D01*
X007381Y006640D02*
X007021Y007000D01*
X007010Y007000D01*
X007381Y006640D02*
X008401Y006640D01*
X008041Y005500D02*
X006181Y003640D01*
X001621Y003640D01*
X001021Y003040D01*
X001010Y003000D01*
X006601Y008080D02*
X007021Y008500D01*
X008191Y011000D02*
X008221Y011020D01*
X008221Y011620D01*
X008281Y011620D01*
X008521Y011860D01*
X008521Y019660D01*
X008191Y016000D02*
X008161Y016000D01*
X007681Y015520D01*
X001501Y015520D01*
D13*
X001441Y014680D03*
X002521Y015700D03*
X003181Y016180D03*
X003361Y017800D03*
X001561Y017740D03*
X000541Y018040D03*
X004381Y013720D03*
X006481Y009460D03*
X006601Y008080D03*
X008401Y006640D03*
X006721Y012700D03*
X007561Y017380D03*
X007381Y018640D03*
X003361Y006940D03*
X003181Y006460D03*
D14*
X004081Y004900D02*
X003361Y004180D01*
X002371Y004180D01*
X002191Y004000D01*
D15*
X004081Y004900D03*
M02*
