%
M48
M72
T01C0.0079
T02C0.0236
T03C0.0320
T04C0.0354
%
T01
X3181Y6460
X3361Y6940
X6481Y9460
X6601Y8080
X8401Y6640
X6721Y12700
X7561Y17380
X7381Y18640
X4381Y13720
X3181Y16180
X2521Y15700
X1561Y17740
X541Y18040
X1441Y14680
X3361Y17800
T02
X4081Y4900
T03
X1010Y1000
X1010Y2000
X1010Y3000
X1010Y4000
X1010Y5000
X1010Y6000
X1010Y7000
X1010Y8000
X1010Y9000
X1010Y10000
X1010Y11000
X1010Y12000
X1010Y13000
X1010Y14000
X1010Y15000
X1010Y16000
X1010Y17000
X1010Y18000
X1010Y19000
X1010Y20000
X2191Y20000
X2191Y19000
X2191Y18000
X2191Y17000
X2191Y16000
X2191Y15000
X2191Y14000
X2191Y13000
X2191Y12000
X2191Y11000
X2191Y10000
X2191Y9000
X2191Y8000
X2191Y7000
X2191Y6000
X2191Y5000
X2191Y4000
X2191Y3000
X2191Y2000
X2191Y1000
X7010Y1000
X7010Y2000
X7010Y3000
X7010Y4000
X7010Y5000
X7010Y6000
X7010Y7000
X7010Y8000
X7010Y9000
X7010Y10000
X7010Y11000
X7010Y12000
X7010Y13000
X7010Y14000
X7010Y15000
X7010Y16000
X7010Y17000
X7010Y18000
X7010Y19000
X7010Y20000
X8191Y20000
X8191Y19000
X8191Y18000
X8191Y17000
X8191Y16000
X8191Y15000
X8191Y14000
X8191Y13000
X8191Y12000
X8191Y11000
X8191Y10000
X8191Y9000
X8191Y8000
X8191Y7000
X8191Y6000
X8191Y5000
X8191Y4000
X8191Y3000
X8191Y2000
X8191Y1000
T04
X9116Y5510
X9116Y6510
X9116Y7510
X9116Y8510
X9116Y16510
X9116Y17510
X9116Y18510
X9116Y19510
M30
