G75*
%MOIN*%
%OFA0B0*%
%FSLAX24Y24*%
%IPPOS*%
%LPD*%
%AMOC8*
5,1,8,0,0,1.08239X$1,22.5*
%
%ADD10OC8,0.0530*%
%ADD11OC8,0.0581*%
%ADD12OC8,0.0404*%
D10*
X001010Y001000D03*
X001010Y002000D03*
X001010Y003000D03*
X001010Y004000D03*
X001010Y005000D03*
X001010Y006000D03*
X001010Y007000D03*
X001010Y008000D03*
X001010Y009000D03*
X001010Y010000D03*
X001010Y011000D03*
X001010Y012000D03*
X001010Y013000D03*
X001010Y014000D03*
X001010Y015000D03*
X001010Y016000D03*
X001010Y017000D03*
X001010Y018000D03*
X001010Y019000D03*
X001010Y020000D03*
X002191Y020000D03*
X002191Y019000D03*
X002191Y018000D03*
X002191Y017000D03*
X002191Y016000D03*
X002191Y015000D03*
X002191Y014000D03*
X002191Y013000D03*
X002191Y012000D03*
X002191Y011000D03*
X002191Y010000D03*
X002191Y009000D03*
X002191Y008000D03*
X002191Y007000D03*
X002191Y006000D03*
X002191Y005000D03*
X002191Y004000D03*
X002191Y003000D03*
X002191Y002000D03*
X002191Y001000D03*
X007010Y001000D03*
X007010Y002000D03*
X007010Y003000D03*
X007010Y004000D03*
X007010Y005000D03*
X007010Y006000D03*
X007010Y007000D03*
X007010Y008000D03*
X007010Y009000D03*
X007010Y010000D03*
X007010Y011000D03*
X007010Y012000D03*
X007010Y013000D03*
X007010Y014000D03*
X007010Y015000D03*
X007010Y016000D03*
X007010Y017000D03*
X007010Y018000D03*
X007010Y019000D03*
X007010Y020000D03*
X008191Y020000D03*
X008191Y019000D03*
X008191Y018000D03*
X008191Y017000D03*
X008191Y016000D03*
X008191Y015000D03*
X008191Y014000D03*
X008191Y013000D03*
X008191Y012000D03*
X008191Y011000D03*
X008191Y010000D03*
X008191Y009000D03*
X008191Y008000D03*
X008191Y007000D03*
X008191Y006000D03*
X008191Y005000D03*
X008191Y004000D03*
X008191Y003000D03*
X008191Y002000D03*
X008191Y001000D03*
D11*
X009116Y005510D03*
X009116Y006510D03*
X009116Y007510D03*
X009116Y008510D03*
X009116Y016510D03*
X009116Y017510D03*
X009116Y018510D03*
X009116Y019510D03*
D12*
X004081Y004900D03*
M02*
