G75*
%MOIN*%
%OFA0B0*%
%FSLAX24Y24*%
%IPPOS*%
%LPD*%
%AMOC8*
5,1,8,0,0,1.08239X$1,22.5*
%
%ADD10OC8,0.0480*%
%ADD11R,0.0354X0.0276*%
%ADD12R,0.0276X0.0354*%
%ADD13R,0.0268X0.0079*%
%ADD14R,0.0079X0.0268*%
%ADD15C,0.0157*%
%ADD16OC8,0.0531*%
%ADD17R,0.0256X0.0087*%
%ADD18R,0.0217X0.0087*%
%ADD19R,0.0087X0.0217*%
%ADD20C,0.0026*%
%ADD21R,0.1181X0.0394*%
%ADD22C,0.0018*%
%ADD23R,0.0118X0.0217*%
%ADD24R,0.0118X0.0205*%
%ADD25R,0.0787X0.0236*%
%ADD26C,0.0740*%
%ADD27R,0.0070X0.0660*%
%ADD28R,0.0354X0.0256*%
%ADD29R,0.0197X0.0354*%
%ADD30OC8,0.0200*%
%ADD31C,0.0160*%
%ADD32OC8,0.0354*%
%ADD33C,0.0140*%
%ADD34OC8,0.0297*%
%ADD35C,0.0100*%
%ADD36OC8,0.0179*%
%ADD37C,0.0120*%
%ADD38OC8,0.0413*%
%ADD39C,0.0095*%
%ADD40C,0.0060*%
%ADD41C,0.0240*%
%ADD42C,0.0090*%
%ADD43C,0.0080*%
D10*
X001800Y001692D03*
X001800Y002692D03*
X001800Y003692D03*
X001800Y004692D03*
X001800Y005692D03*
X001800Y006692D03*
X001800Y007692D03*
X001800Y008692D03*
X001800Y009692D03*
X001800Y010692D03*
X001800Y011692D03*
X001800Y012692D03*
X001800Y013692D03*
X001800Y014692D03*
X001800Y015692D03*
X001800Y016692D03*
X001800Y017692D03*
X001800Y018692D03*
X001800Y019692D03*
X001800Y020692D03*
X007800Y020692D03*
X007800Y019692D03*
X007800Y018692D03*
X007800Y017692D03*
X007800Y016692D03*
X007800Y015692D03*
X007800Y014692D03*
X007800Y013692D03*
X007800Y012692D03*
X007800Y011692D03*
X007800Y010692D03*
X007800Y009692D03*
X007800Y008692D03*
X007800Y007692D03*
X007800Y006692D03*
X007800Y005692D03*
X007800Y004692D03*
X007800Y003692D03*
X007800Y002692D03*
X007800Y001692D03*
D11*
X008430Y001616D03*
X008430Y002128D03*
X006240Y003436D03*
X006240Y003948D03*
X005680Y003948D03*
X005680Y003436D03*
X005120Y003436D03*
X005120Y003948D03*
X002483Y005336D03*
X002483Y005848D03*
X001250Y008036D03*
X001250Y008548D03*
X001250Y009636D03*
X001250Y010148D03*
X001250Y011204D03*
X001250Y011716D03*
X001250Y012947D03*
X001250Y013459D03*
X001250Y014134D03*
X001250Y014646D03*
X001250Y016836D03*
X001250Y017348D03*
X001230Y018536D03*
X001230Y019048D03*
X001050Y020216D03*
X001050Y020728D03*
X002530Y002148D03*
X002530Y001636D03*
D12*
X003194Y001122D03*
X003706Y001122D03*
X006494Y017592D03*
X006494Y018072D03*
X007006Y018072D03*
X007006Y017592D03*
X003636Y018872D03*
X003124Y018872D03*
X002926Y018192D03*
X002414Y018192D03*
D13*
X002737Y007407D03*
X002737Y007250D03*
X002737Y007092D03*
X002737Y006935D03*
X002737Y006777D03*
X003434Y006777D03*
X003434Y006935D03*
X003434Y007092D03*
X003434Y007250D03*
X003434Y007407D03*
X003902Y006307D03*
X003902Y006150D03*
X003902Y005992D03*
X003902Y005835D03*
X003902Y005677D03*
X004598Y005677D03*
X004598Y005835D03*
X004598Y005992D03*
X004598Y006150D03*
X004598Y006307D03*
D14*
X004348Y006341D03*
X004152Y006341D03*
X004152Y005644D03*
X004348Y005644D03*
X003184Y006744D03*
X002987Y006744D03*
X002987Y007441D03*
X003184Y007441D03*
D15*
X003292Y008351D03*
X003292Y008666D03*
X002977Y008666D03*
X002977Y008351D03*
X003607Y008351D03*
X003607Y008666D03*
X003922Y008666D03*
X003922Y008351D03*
X004237Y008351D03*
X004237Y008666D03*
X004552Y008666D03*
X004867Y008666D03*
X004867Y008351D03*
X004552Y008351D03*
X005181Y008351D03*
X005181Y008666D03*
X005181Y008981D03*
X005181Y009296D03*
X004867Y009296D03*
X004867Y008981D03*
X004552Y008981D03*
X004552Y009296D03*
X004552Y009611D03*
X004867Y009611D03*
X004867Y009926D03*
X004552Y009926D03*
X004552Y010241D03*
X004867Y010241D03*
X004867Y010556D03*
X004867Y010871D03*
X004552Y010871D03*
X004552Y010556D03*
X004237Y010556D03*
X004237Y010871D03*
X004237Y011186D03*
X004237Y011501D03*
X004552Y011501D03*
X004867Y011501D03*
X004867Y011186D03*
X004552Y011186D03*
X005181Y011186D03*
X005181Y011501D03*
X005181Y011816D03*
X005181Y012131D03*
X004867Y012131D03*
X004867Y011816D03*
X004552Y011816D03*
X004552Y012131D03*
X004237Y012131D03*
X004237Y011816D03*
X003922Y011816D03*
X003922Y012131D03*
X003607Y012131D03*
X003607Y011816D03*
X003607Y011501D03*
X003607Y011186D03*
X003922Y011186D03*
X003922Y011501D03*
X003922Y010871D03*
X003922Y010556D03*
X003922Y010241D03*
X004237Y010241D03*
X004237Y009926D03*
X004237Y009611D03*
X004237Y009296D03*
X004237Y008981D03*
X003922Y008981D03*
X003922Y009296D03*
X003922Y009611D03*
X003922Y009926D03*
X003607Y009926D03*
X003607Y009611D03*
X003607Y009296D03*
X003607Y008981D03*
X003292Y008981D03*
X003292Y009296D03*
X002977Y009296D03*
X002977Y008981D03*
X002977Y009611D03*
X003292Y009611D03*
X003292Y009926D03*
X002977Y009926D03*
X002977Y010241D03*
X003292Y010241D03*
X003292Y010556D03*
X003292Y010871D03*
X002977Y010871D03*
X002977Y010556D03*
X003607Y010556D03*
X003607Y010871D03*
X003292Y011186D03*
X003292Y011501D03*
X002977Y011501D03*
X002977Y011186D03*
X002977Y011816D03*
X002977Y012131D03*
X003292Y012131D03*
X003292Y011816D03*
X003607Y010241D03*
X005181Y010241D03*
X005181Y010556D03*
X005181Y010871D03*
X005496Y010871D03*
X005496Y010556D03*
X005496Y010241D03*
X005496Y009926D03*
X005496Y009611D03*
X005181Y009611D03*
X005181Y009926D03*
X005496Y009296D03*
X005496Y008981D03*
X005496Y008666D03*
X005496Y008351D03*
X005811Y008351D03*
X005811Y008666D03*
X005811Y008981D03*
X005811Y009296D03*
X005811Y009611D03*
X005811Y009926D03*
X005811Y010241D03*
X005811Y010556D03*
X005811Y010871D03*
X005811Y011186D03*
X005811Y011501D03*
X005496Y011501D03*
X005496Y011186D03*
X005496Y011816D03*
X005496Y012131D03*
X005811Y012131D03*
X005811Y011816D03*
X006126Y011816D03*
X006126Y012131D03*
X006441Y012131D03*
X006441Y011816D03*
X006756Y011816D03*
X006756Y012131D03*
X006756Y011501D03*
X006441Y011501D03*
X006441Y011186D03*
X006756Y011186D03*
X006756Y010871D03*
X006441Y010871D03*
X006441Y010556D03*
X006441Y010241D03*
X006756Y010241D03*
X006756Y010556D03*
X006126Y010556D03*
X006126Y010871D03*
X006126Y011186D03*
X006126Y011501D03*
X006126Y010241D03*
X006126Y009926D03*
X006126Y009611D03*
X006126Y009296D03*
X006126Y008981D03*
X006126Y008666D03*
X006126Y008351D03*
X006441Y008351D03*
X006441Y008666D03*
X006756Y008666D03*
X006756Y008351D03*
X006756Y008981D03*
X006441Y008981D03*
X006441Y009296D03*
X006756Y009296D03*
X006756Y009611D03*
X006441Y009611D03*
X006441Y009926D03*
X006756Y009926D03*
D16*
X008725Y010202D03*
X008725Y009202D03*
X008725Y008202D03*
X008725Y007202D03*
X008725Y006202D03*
X008725Y005202D03*
X008725Y004202D03*
X008725Y003202D03*
X008725Y011202D03*
X008725Y012202D03*
X008725Y013202D03*
X008725Y014202D03*
X008725Y015202D03*
X008725Y016202D03*
X008725Y017202D03*
X008725Y018202D03*
X008725Y019202D03*
X008725Y020202D03*
D17*
X006225Y001948D03*
D18*
X006206Y001790D03*
X006206Y001633D03*
X006206Y001475D03*
X006816Y001475D03*
X006816Y001633D03*
X006816Y001790D03*
X006816Y001948D03*
D19*
X006747Y002174D03*
X006589Y002174D03*
X006432Y002174D03*
X006274Y002174D03*
X006274Y001249D03*
X006432Y001249D03*
X006589Y001249D03*
X006747Y001249D03*
D20*
X004581Y004132D02*
X004269Y004132D01*
X004581Y004132D02*
X004581Y004056D01*
X004269Y004056D01*
X004269Y004132D01*
X004269Y004081D02*
X004581Y004081D01*
X004581Y004106D02*
X004269Y004106D01*
X004269Y004131D02*
X004581Y004131D01*
X004581Y004329D02*
X004269Y004329D01*
X004581Y004329D02*
X004581Y004253D01*
X004269Y004253D01*
X004269Y004329D01*
X004269Y004278D02*
X004581Y004278D01*
X004581Y004303D02*
X004269Y004303D01*
X004269Y004328D02*
X004581Y004328D01*
X004292Y004503D02*
X004292Y004815D01*
X004292Y004503D02*
X004216Y004503D01*
X004216Y004815D01*
X004292Y004815D01*
X004292Y004528D02*
X004216Y004528D01*
X004216Y004553D02*
X004292Y004553D01*
X004292Y004578D02*
X004216Y004578D01*
X004216Y004603D02*
X004292Y004603D01*
X004292Y004628D02*
X004216Y004628D01*
X004216Y004653D02*
X004292Y004653D01*
X004292Y004678D02*
X004216Y004678D01*
X004216Y004703D02*
X004292Y004703D01*
X004292Y004728D02*
X004216Y004728D01*
X004216Y004753D02*
X004292Y004753D01*
X004292Y004778D02*
X004216Y004778D01*
X004216Y004803D02*
X004292Y004803D01*
X004095Y004815D02*
X004095Y004503D01*
X004019Y004503D01*
X004019Y004815D01*
X004095Y004815D01*
X004095Y004528D02*
X004019Y004528D01*
X004019Y004553D02*
X004095Y004553D01*
X004095Y004578D02*
X004019Y004578D01*
X004019Y004603D02*
X004095Y004603D01*
X004095Y004628D02*
X004019Y004628D01*
X004019Y004653D02*
X004095Y004653D01*
X004095Y004678D02*
X004019Y004678D01*
X004019Y004703D02*
X004095Y004703D01*
X004095Y004728D02*
X004019Y004728D01*
X004019Y004753D02*
X004095Y004753D01*
X004095Y004778D02*
X004019Y004778D01*
X004019Y004803D02*
X004095Y004803D01*
X003898Y004815D02*
X003898Y004503D01*
X003822Y004503D01*
X003822Y004815D01*
X003898Y004815D01*
X003898Y004528D02*
X003822Y004528D01*
X003822Y004553D02*
X003898Y004553D01*
X003898Y004578D02*
X003822Y004578D01*
X003822Y004603D02*
X003898Y004603D01*
X003898Y004628D02*
X003822Y004628D01*
X003822Y004653D02*
X003898Y004653D01*
X003898Y004678D02*
X003822Y004678D01*
X003822Y004703D02*
X003898Y004703D01*
X003898Y004728D02*
X003822Y004728D01*
X003822Y004753D02*
X003898Y004753D01*
X003898Y004778D02*
X003822Y004778D01*
X003822Y004803D02*
X003898Y004803D01*
X003701Y004815D02*
X003701Y004503D01*
X003625Y004503D01*
X003625Y004815D01*
X003701Y004815D01*
X003701Y004528D02*
X003625Y004528D01*
X003625Y004553D02*
X003701Y004553D01*
X003701Y004578D02*
X003625Y004578D01*
X003625Y004603D02*
X003701Y004603D01*
X003701Y004628D02*
X003625Y004628D01*
X003625Y004653D02*
X003701Y004653D01*
X003701Y004678D02*
X003625Y004678D01*
X003625Y004703D02*
X003701Y004703D01*
X003701Y004728D02*
X003625Y004728D01*
X003625Y004753D02*
X003701Y004753D01*
X003701Y004778D02*
X003625Y004778D01*
X003625Y004803D02*
X003701Y004803D01*
X003504Y004815D02*
X003504Y004503D01*
X003428Y004503D01*
X003428Y004815D01*
X003504Y004815D01*
X003504Y004528D02*
X003428Y004528D01*
X003428Y004553D02*
X003504Y004553D01*
X003504Y004578D02*
X003428Y004578D01*
X003428Y004603D02*
X003504Y004603D01*
X003504Y004628D02*
X003428Y004628D01*
X003428Y004653D02*
X003504Y004653D01*
X003504Y004678D02*
X003428Y004678D01*
X003428Y004703D02*
X003504Y004703D01*
X003504Y004728D02*
X003428Y004728D01*
X003428Y004753D02*
X003504Y004753D01*
X003504Y004778D02*
X003428Y004778D01*
X003428Y004803D02*
X003504Y004803D01*
X003308Y004815D02*
X003308Y004503D01*
X003232Y004503D01*
X003232Y004815D01*
X003308Y004815D01*
X003308Y004528D02*
X003232Y004528D01*
X003232Y004553D02*
X003308Y004553D01*
X003308Y004578D02*
X003232Y004578D01*
X003232Y004603D02*
X003308Y004603D01*
X003308Y004628D02*
X003232Y004628D01*
X003232Y004653D02*
X003308Y004653D01*
X003308Y004678D02*
X003232Y004678D01*
X003232Y004703D02*
X003308Y004703D01*
X003308Y004728D02*
X003232Y004728D01*
X003232Y004753D02*
X003308Y004753D01*
X003308Y004778D02*
X003232Y004778D01*
X003232Y004803D02*
X003308Y004803D01*
X003111Y004815D02*
X003111Y004503D01*
X003035Y004503D01*
X003035Y004815D01*
X003111Y004815D01*
X003111Y004528D02*
X003035Y004528D01*
X003035Y004553D02*
X003111Y004553D01*
X003111Y004578D02*
X003035Y004578D01*
X003035Y004603D02*
X003111Y004603D01*
X003111Y004628D02*
X003035Y004628D01*
X003035Y004653D02*
X003111Y004653D01*
X003111Y004678D02*
X003035Y004678D01*
X003035Y004703D02*
X003111Y004703D01*
X003111Y004728D02*
X003035Y004728D01*
X003035Y004753D02*
X003111Y004753D01*
X003111Y004778D02*
X003035Y004778D01*
X003035Y004803D02*
X003111Y004803D01*
X002914Y004815D02*
X002914Y004503D01*
X002838Y004503D01*
X002838Y004815D01*
X002914Y004815D01*
X002914Y004528D02*
X002838Y004528D01*
X002838Y004553D02*
X002914Y004553D01*
X002914Y004578D02*
X002838Y004578D01*
X002838Y004603D02*
X002914Y004603D01*
X002914Y004628D02*
X002838Y004628D01*
X002838Y004653D02*
X002914Y004653D01*
X002914Y004678D02*
X002838Y004678D01*
X002838Y004703D02*
X002914Y004703D01*
X002914Y004728D02*
X002838Y004728D01*
X002838Y004753D02*
X002914Y004753D01*
X002914Y004778D02*
X002838Y004778D01*
X002838Y004803D02*
X002914Y004803D01*
X002861Y004329D02*
X002549Y004329D01*
X002861Y004329D02*
X002861Y004253D01*
X002549Y004253D01*
X002549Y004329D01*
X002549Y004278D02*
X002861Y004278D01*
X002861Y004303D02*
X002549Y004303D01*
X002549Y004328D02*
X002861Y004328D01*
X002861Y004132D02*
X002549Y004132D01*
X002861Y004132D02*
X002861Y004056D01*
X002549Y004056D01*
X002549Y004132D01*
X002549Y004081D02*
X002861Y004081D01*
X002861Y004106D02*
X002549Y004106D01*
X002549Y004131D02*
X002861Y004131D01*
X002914Y003882D02*
X002914Y003570D01*
X002838Y003570D01*
X002838Y003882D01*
X002914Y003882D01*
X002914Y003595D02*
X002838Y003595D01*
X002838Y003620D02*
X002914Y003620D01*
X002914Y003645D02*
X002838Y003645D01*
X002838Y003670D02*
X002914Y003670D01*
X002914Y003695D02*
X002838Y003695D01*
X002838Y003720D02*
X002914Y003720D01*
X002914Y003745D02*
X002838Y003745D01*
X002838Y003770D02*
X002914Y003770D01*
X002914Y003795D02*
X002838Y003795D01*
X002838Y003820D02*
X002914Y003820D01*
X002914Y003845D02*
X002838Y003845D01*
X002838Y003870D02*
X002914Y003870D01*
X003111Y003882D02*
X003111Y003570D01*
X003035Y003570D01*
X003035Y003882D01*
X003111Y003882D01*
X003111Y003595D02*
X003035Y003595D01*
X003035Y003620D02*
X003111Y003620D01*
X003111Y003645D02*
X003035Y003645D01*
X003035Y003670D02*
X003111Y003670D01*
X003111Y003695D02*
X003035Y003695D01*
X003035Y003720D02*
X003111Y003720D01*
X003111Y003745D02*
X003035Y003745D01*
X003035Y003770D02*
X003111Y003770D01*
X003111Y003795D02*
X003035Y003795D01*
X003035Y003820D02*
X003111Y003820D01*
X003111Y003845D02*
X003035Y003845D01*
X003035Y003870D02*
X003111Y003870D01*
X003308Y003882D02*
X003308Y003570D01*
X003232Y003570D01*
X003232Y003882D01*
X003308Y003882D01*
X003308Y003595D02*
X003232Y003595D01*
X003232Y003620D02*
X003308Y003620D01*
X003308Y003645D02*
X003232Y003645D01*
X003232Y003670D02*
X003308Y003670D01*
X003308Y003695D02*
X003232Y003695D01*
X003232Y003720D02*
X003308Y003720D01*
X003308Y003745D02*
X003232Y003745D01*
X003232Y003770D02*
X003308Y003770D01*
X003308Y003795D02*
X003232Y003795D01*
X003232Y003820D02*
X003308Y003820D01*
X003308Y003845D02*
X003232Y003845D01*
X003232Y003870D02*
X003308Y003870D01*
X003504Y003882D02*
X003504Y003570D01*
X003428Y003570D01*
X003428Y003882D01*
X003504Y003882D01*
X003504Y003595D02*
X003428Y003595D01*
X003428Y003620D02*
X003504Y003620D01*
X003504Y003645D02*
X003428Y003645D01*
X003428Y003670D02*
X003504Y003670D01*
X003504Y003695D02*
X003428Y003695D01*
X003428Y003720D02*
X003504Y003720D01*
X003504Y003745D02*
X003428Y003745D01*
X003428Y003770D02*
X003504Y003770D01*
X003504Y003795D02*
X003428Y003795D01*
X003428Y003820D02*
X003504Y003820D01*
X003504Y003845D02*
X003428Y003845D01*
X003428Y003870D02*
X003504Y003870D01*
X003701Y003882D02*
X003701Y003570D01*
X003625Y003570D01*
X003625Y003882D01*
X003701Y003882D01*
X003701Y003595D02*
X003625Y003595D01*
X003625Y003620D02*
X003701Y003620D01*
X003701Y003645D02*
X003625Y003645D01*
X003625Y003670D02*
X003701Y003670D01*
X003701Y003695D02*
X003625Y003695D01*
X003625Y003720D02*
X003701Y003720D01*
X003701Y003745D02*
X003625Y003745D01*
X003625Y003770D02*
X003701Y003770D01*
X003701Y003795D02*
X003625Y003795D01*
X003625Y003820D02*
X003701Y003820D01*
X003701Y003845D02*
X003625Y003845D01*
X003625Y003870D02*
X003701Y003870D01*
X003898Y003882D02*
X003898Y003570D01*
X003822Y003570D01*
X003822Y003882D01*
X003898Y003882D01*
X003898Y003595D02*
X003822Y003595D01*
X003822Y003620D02*
X003898Y003620D01*
X003898Y003645D02*
X003822Y003645D01*
X003822Y003670D02*
X003898Y003670D01*
X003898Y003695D02*
X003822Y003695D01*
X003822Y003720D02*
X003898Y003720D01*
X003898Y003745D02*
X003822Y003745D01*
X003822Y003770D02*
X003898Y003770D01*
X003898Y003795D02*
X003822Y003795D01*
X003822Y003820D02*
X003898Y003820D01*
X003898Y003845D02*
X003822Y003845D01*
X003822Y003870D02*
X003898Y003870D01*
X004095Y003882D02*
X004095Y003570D01*
X004019Y003570D01*
X004019Y003882D01*
X004095Y003882D01*
X004095Y003595D02*
X004019Y003595D01*
X004019Y003620D02*
X004095Y003620D01*
X004095Y003645D02*
X004019Y003645D01*
X004019Y003670D02*
X004095Y003670D01*
X004095Y003695D02*
X004019Y003695D01*
X004019Y003720D02*
X004095Y003720D01*
X004095Y003745D02*
X004019Y003745D01*
X004019Y003770D02*
X004095Y003770D01*
X004095Y003795D02*
X004019Y003795D01*
X004019Y003820D02*
X004095Y003820D01*
X004095Y003845D02*
X004019Y003845D01*
X004019Y003870D02*
X004095Y003870D01*
X004292Y003882D02*
X004292Y003570D01*
X004216Y003570D01*
X004216Y003882D01*
X004292Y003882D01*
X004292Y003595D02*
X004216Y003595D01*
X004216Y003620D02*
X004292Y003620D01*
X004292Y003645D02*
X004216Y003645D01*
X004216Y003670D02*
X004292Y003670D01*
X004292Y003695D02*
X004216Y003695D01*
X004216Y003720D02*
X004292Y003720D01*
X004292Y003745D02*
X004216Y003745D01*
X004216Y003770D02*
X004292Y003770D01*
X004292Y003795D02*
X004216Y003795D01*
X004216Y003820D02*
X004292Y003820D01*
X004292Y003845D02*
X004216Y003845D01*
X004216Y003870D02*
X004292Y003870D01*
X004693Y017475D02*
X004693Y017779D01*
X004693Y017475D02*
X004617Y017475D01*
X004617Y017779D01*
X004693Y017779D01*
X004693Y017500D02*
X004617Y017500D01*
X004617Y017525D02*
X004693Y017525D01*
X004693Y017550D02*
X004617Y017550D01*
X004617Y017575D02*
X004693Y017575D01*
X004693Y017600D02*
X004617Y017600D01*
X004617Y017625D02*
X004693Y017625D01*
X004693Y017650D02*
X004617Y017650D01*
X004617Y017675D02*
X004693Y017675D01*
X004693Y017700D02*
X004617Y017700D01*
X004617Y017725D02*
X004693Y017725D01*
X004693Y017750D02*
X004617Y017750D01*
X004617Y017775D02*
X004693Y017775D01*
X004890Y017779D02*
X004890Y017475D01*
X004814Y017475D01*
X004814Y017779D01*
X004890Y017779D01*
X004890Y017500D02*
X004814Y017500D01*
X004814Y017525D02*
X004890Y017525D01*
X004890Y017550D02*
X004814Y017550D01*
X004814Y017575D02*
X004890Y017575D01*
X004890Y017600D02*
X004814Y017600D01*
X004814Y017625D02*
X004890Y017625D01*
X004890Y017650D02*
X004814Y017650D01*
X004814Y017675D02*
X004890Y017675D01*
X004890Y017700D02*
X004814Y017700D01*
X004814Y017725D02*
X004890Y017725D01*
X004890Y017750D02*
X004814Y017750D01*
X004814Y017775D02*
X004890Y017775D01*
X005086Y017779D02*
X005086Y017475D01*
X005010Y017475D01*
X005010Y017779D01*
X005086Y017779D01*
X005086Y017500D02*
X005010Y017500D01*
X005010Y017525D02*
X005086Y017525D01*
X005086Y017550D02*
X005010Y017550D01*
X005010Y017575D02*
X005086Y017575D01*
X005086Y017600D02*
X005010Y017600D01*
X005010Y017625D02*
X005086Y017625D01*
X005086Y017650D02*
X005010Y017650D01*
X005010Y017675D02*
X005086Y017675D01*
X005086Y017700D02*
X005010Y017700D01*
X005010Y017725D02*
X005086Y017725D01*
X005086Y017750D02*
X005010Y017750D01*
X005010Y017775D02*
X005086Y017775D01*
X005283Y017779D02*
X005283Y017475D01*
X005207Y017475D01*
X005207Y017779D01*
X005283Y017779D01*
X005283Y017500D02*
X005207Y017500D01*
X005207Y017525D02*
X005283Y017525D01*
X005283Y017550D02*
X005207Y017550D01*
X005207Y017575D02*
X005283Y017575D01*
X005283Y017600D02*
X005207Y017600D01*
X005207Y017625D02*
X005283Y017625D01*
X005283Y017650D02*
X005207Y017650D01*
X005207Y017675D02*
X005283Y017675D01*
X005283Y017700D02*
X005207Y017700D01*
X005207Y017725D02*
X005283Y017725D01*
X005283Y017750D02*
X005207Y017750D01*
X005207Y017775D02*
X005283Y017775D01*
X005363Y017859D02*
X005667Y017859D01*
X005363Y017859D02*
X005363Y017935D01*
X005667Y017935D01*
X005667Y017859D01*
X005667Y017884D02*
X005363Y017884D01*
X005363Y017909D02*
X005667Y017909D01*
X005667Y017934D02*
X005363Y017934D01*
X005363Y018056D02*
X005667Y018056D01*
X005363Y018056D02*
X005363Y018132D01*
X005667Y018132D01*
X005667Y018056D01*
X005667Y018081D02*
X005363Y018081D01*
X005363Y018106D02*
X005667Y018106D01*
X005667Y018131D02*
X005363Y018131D01*
X005363Y018253D02*
X005667Y018253D01*
X005363Y018253D02*
X005363Y018329D01*
X005667Y018329D01*
X005667Y018253D01*
X005667Y018278D02*
X005363Y018278D01*
X005363Y018303D02*
X005667Y018303D01*
X005667Y018328D02*
X005363Y018328D01*
X005363Y018449D02*
X005667Y018449D01*
X005363Y018449D02*
X005363Y018525D01*
X005667Y018525D01*
X005667Y018449D01*
X005667Y018474D02*
X005363Y018474D01*
X005363Y018499D02*
X005667Y018499D01*
X005667Y018524D02*
X005363Y018524D01*
X005283Y018605D02*
X005283Y018909D01*
X005283Y018605D02*
X005207Y018605D01*
X005207Y018909D01*
X005283Y018909D01*
X005283Y018630D02*
X005207Y018630D01*
X005207Y018655D02*
X005283Y018655D01*
X005283Y018680D02*
X005207Y018680D01*
X005207Y018705D02*
X005283Y018705D01*
X005283Y018730D02*
X005207Y018730D01*
X005207Y018755D02*
X005283Y018755D01*
X005283Y018780D02*
X005207Y018780D01*
X005207Y018805D02*
X005283Y018805D01*
X005283Y018830D02*
X005207Y018830D01*
X005207Y018855D02*
X005283Y018855D01*
X005283Y018880D02*
X005207Y018880D01*
X005207Y018905D02*
X005283Y018905D01*
X005086Y018909D02*
X005086Y018605D01*
X005010Y018605D01*
X005010Y018909D01*
X005086Y018909D01*
X005086Y018630D02*
X005010Y018630D01*
X005010Y018655D02*
X005086Y018655D01*
X005086Y018680D02*
X005010Y018680D01*
X005010Y018705D02*
X005086Y018705D01*
X005086Y018730D02*
X005010Y018730D01*
X005010Y018755D02*
X005086Y018755D01*
X005086Y018780D02*
X005010Y018780D01*
X005010Y018805D02*
X005086Y018805D01*
X005086Y018830D02*
X005010Y018830D01*
X005010Y018855D02*
X005086Y018855D01*
X005086Y018880D02*
X005010Y018880D01*
X005010Y018905D02*
X005086Y018905D01*
X004890Y018909D02*
X004890Y018605D01*
X004814Y018605D01*
X004814Y018909D01*
X004890Y018909D01*
X004890Y018630D02*
X004814Y018630D01*
X004814Y018655D02*
X004890Y018655D01*
X004890Y018680D02*
X004814Y018680D01*
X004814Y018705D02*
X004890Y018705D01*
X004890Y018730D02*
X004814Y018730D01*
X004814Y018755D02*
X004890Y018755D01*
X004890Y018780D02*
X004814Y018780D01*
X004814Y018805D02*
X004890Y018805D01*
X004890Y018830D02*
X004814Y018830D01*
X004814Y018855D02*
X004890Y018855D01*
X004890Y018880D02*
X004814Y018880D01*
X004814Y018905D02*
X004890Y018905D01*
X004693Y018909D02*
X004693Y018605D01*
X004617Y018605D01*
X004617Y018909D01*
X004693Y018909D01*
X004693Y018630D02*
X004617Y018630D01*
X004617Y018655D02*
X004693Y018655D01*
X004693Y018680D02*
X004617Y018680D01*
X004617Y018705D02*
X004693Y018705D01*
X004693Y018730D02*
X004617Y018730D01*
X004617Y018755D02*
X004693Y018755D01*
X004693Y018780D02*
X004617Y018780D01*
X004617Y018805D02*
X004693Y018805D01*
X004693Y018830D02*
X004617Y018830D01*
X004617Y018855D02*
X004693Y018855D01*
X004693Y018880D02*
X004617Y018880D01*
X004617Y018905D02*
X004693Y018905D01*
X004537Y018449D02*
X004233Y018449D01*
X004233Y018525D01*
X004537Y018525D01*
X004537Y018449D01*
X004537Y018474D02*
X004233Y018474D01*
X004233Y018499D02*
X004537Y018499D01*
X004537Y018524D02*
X004233Y018524D01*
X004233Y018253D02*
X004537Y018253D01*
X004233Y018253D02*
X004233Y018329D01*
X004537Y018329D01*
X004537Y018253D01*
X004537Y018278D02*
X004233Y018278D01*
X004233Y018303D02*
X004537Y018303D01*
X004537Y018328D02*
X004233Y018328D01*
X004233Y018056D02*
X004537Y018056D01*
X004233Y018056D02*
X004233Y018132D01*
X004537Y018132D01*
X004537Y018056D01*
X004537Y018081D02*
X004233Y018081D01*
X004233Y018106D02*
X004537Y018106D01*
X004537Y018131D02*
X004233Y018131D01*
X004233Y017859D02*
X004537Y017859D01*
X004233Y017859D02*
X004233Y017935D01*
X004537Y017935D01*
X004537Y017859D01*
X004537Y017884D02*
X004233Y017884D01*
X004233Y017909D02*
X004537Y017909D01*
X004537Y017934D02*
X004233Y017934D01*
D21*
X003565Y004192D03*
D22*
X003637Y013225D02*
X003637Y013867D01*
X003637Y013225D02*
X003585Y013225D01*
X003585Y013867D01*
X003637Y013867D01*
X003637Y013242D02*
X003585Y013242D01*
X003585Y013259D02*
X003637Y013259D01*
X003637Y013276D02*
X003585Y013276D01*
X003585Y013293D02*
X003637Y013293D01*
X003637Y013310D02*
X003585Y013310D01*
X003585Y013327D02*
X003637Y013327D01*
X003637Y013344D02*
X003585Y013344D01*
X003585Y013361D02*
X003637Y013361D01*
X003637Y013378D02*
X003585Y013378D01*
X003585Y013395D02*
X003637Y013395D01*
X003637Y013412D02*
X003585Y013412D01*
X003585Y013429D02*
X003637Y013429D01*
X003637Y013446D02*
X003585Y013446D01*
X003585Y013463D02*
X003637Y013463D01*
X003637Y013480D02*
X003585Y013480D01*
X003585Y013497D02*
X003637Y013497D01*
X003637Y013514D02*
X003585Y013514D01*
X003585Y013531D02*
X003637Y013531D01*
X003637Y013548D02*
X003585Y013548D01*
X003585Y013565D02*
X003637Y013565D01*
X003637Y013582D02*
X003585Y013582D01*
X003585Y013599D02*
X003637Y013599D01*
X003637Y013616D02*
X003585Y013616D01*
X003585Y013633D02*
X003637Y013633D01*
X003637Y013650D02*
X003585Y013650D01*
X003585Y013667D02*
X003637Y013667D01*
X003637Y013684D02*
X003585Y013684D01*
X003585Y013701D02*
X003637Y013701D01*
X003637Y013718D02*
X003585Y013718D01*
X003585Y013735D02*
X003637Y013735D01*
X003637Y013752D02*
X003585Y013752D01*
X003585Y013769D02*
X003637Y013769D01*
X003637Y013786D02*
X003585Y013786D01*
X003585Y013803D02*
X003637Y013803D01*
X003637Y013820D02*
X003585Y013820D01*
X003585Y013837D02*
X003637Y013837D01*
X003637Y013854D02*
X003585Y013854D01*
X003480Y013867D02*
X003480Y013225D01*
X003428Y013225D01*
X003428Y013867D01*
X003480Y013867D01*
X003480Y013242D02*
X003428Y013242D01*
X003428Y013259D02*
X003480Y013259D01*
X003480Y013276D02*
X003428Y013276D01*
X003428Y013293D02*
X003480Y013293D01*
X003480Y013310D02*
X003428Y013310D01*
X003428Y013327D02*
X003480Y013327D01*
X003480Y013344D02*
X003428Y013344D01*
X003428Y013361D02*
X003480Y013361D01*
X003480Y013378D02*
X003428Y013378D01*
X003428Y013395D02*
X003480Y013395D01*
X003480Y013412D02*
X003428Y013412D01*
X003428Y013429D02*
X003480Y013429D01*
X003480Y013446D02*
X003428Y013446D01*
X003428Y013463D02*
X003480Y013463D01*
X003480Y013480D02*
X003428Y013480D01*
X003428Y013497D02*
X003480Y013497D01*
X003480Y013514D02*
X003428Y013514D01*
X003428Y013531D02*
X003480Y013531D01*
X003480Y013548D02*
X003428Y013548D01*
X003428Y013565D02*
X003480Y013565D01*
X003480Y013582D02*
X003428Y013582D01*
X003428Y013599D02*
X003480Y013599D01*
X003480Y013616D02*
X003428Y013616D01*
X003428Y013633D02*
X003480Y013633D01*
X003480Y013650D02*
X003428Y013650D01*
X003428Y013667D02*
X003480Y013667D01*
X003480Y013684D02*
X003428Y013684D01*
X003428Y013701D02*
X003480Y013701D01*
X003480Y013718D02*
X003428Y013718D01*
X003428Y013735D02*
X003480Y013735D01*
X003480Y013752D02*
X003428Y013752D01*
X003428Y013769D02*
X003480Y013769D01*
X003480Y013786D02*
X003428Y013786D01*
X003428Y013803D02*
X003480Y013803D01*
X003480Y013820D02*
X003428Y013820D01*
X003428Y013837D02*
X003480Y013837D01*
X003480Y013854D02*
X003428Y013854D01*
X003322Y013867D02*
X003322Y013225D01*
X003270Y013225D01*
X003270Y013867D01*
X003322Y013867D01*
X003322Y013242D02*
X003270Y013242D01*
X003270Y013259D02*
X003322Y013259D01*
X003322Y013276D02*
X003270Y013276D01*
X003270Y013293D02*
X003322Y013293D01*
X003322Y013310D02*
X003270Y013310D01*
X003270Y013327D02*
X003322Y013327D01*
X003322Y013344D02*
X003270Y013344D01*
X003270Y013361D02*
X003322Y013361D01*
X003322Y013378D02*
X003270Y013378D01*
X003270Y013395D02*
X003322Y013395D01*
X003322Y013412D02*
X003270Y013412D01*
X003270Y013429D02*
X003322Y013429D01*
X003322Y013446D02*
X003270Y013446D01*
X003270Y013463D02*
X003322Y013463D01*
X003322Y013480D02*
X003270Y013480D01*
X003270Y013497D02*
X003322Y013497D01*
X003322Y013514D02*
X003270Y013514D01*
X003270Y013531D02*
X003322Y013531D01*
X003322Y013548D02*
X003270Y013548D01*
X003270Y013565D02*
X003322Y013565D01*
X003322Y013582D02*
X003270Y013582D01*
X003270Y013599D02*
X003322Y013599D01*
X003322Y013616D02*
X003270Y013616D01*
X003270Y013633D02*
X003322Y013633D01*
X003322Y013650D02*
X003270Y013650D01*
X003270Y013667D02*
X003322Y013667D01*
X003322Y013684D02*
X003270Y013684D01*
X003270Y013701D02*
X003322Y013701D01*
X003322Y013718D02*
X003270Y013718D01*
X003270Y013735D02*
X003322Y013735D01*
X003322Y013752D02*
X003270Y013752D01*
X003270Y013769D02*
X003322Y013769D01*
X003322Y013786D02*
X003270Y013786D01*
X003270Y013803D02*
X003322Y013803D01*
X003322Y013820D02*
X003270Y013820D01*
X003270Y013837D02*
X003322Y013837D01*
X003322Y013854D02*
X003270Y013854D01*
X003165Y013867D02*
X003165Y013225D01*
X003113Y013225D01*
X003113Y013867D01*
X003165Y013867D01*
X003165Y013242D02*
X003113Y013242D01*
X003113Y013259D02*
X003165Y013259D01*
X003165Y013276D02*
X003113Y013276D01*
X003113Y013293D02*
X003165Y013293D01*
X003165Y013310D02*
X003113Y013310D01*
X003113Y013327D02*
X003165Y013327D01*
X003165Y013344D02*
X003113Y013344D01*
X003113Y013361D02*
X003165Y013361D01*
X003165Y013378D02*
X003113Y013378D01*
X003113Y013395D02*
X003165Y013395D01*
X003165Y013412D02*
X003113Y013412D01*
X003113Y013429D02*
X003165Y013429D01*
X003165Y013446D02*
X003113Y013446D01*
X003113Y013463D02*
X003165Y013463D01*
X003165Y013480D02*
X003113Y013480D01*
X003113Y013497D02*
X003165Y013497D01*
X003165Y013514D02*
X003113Y013514D01*
X003113Y013531D02*
X003165Y013531D01*
X003165Y013548D02*
X003113Y013548D01*
X003113Y013565D02*
X003165Y013565D01*
X003165Y013582D02*
X003113Y013582D01*
X003113Y013599D02*
X003165Y013599D01*
X003165Y013616D02*
X003113Y013616D01*
X003113Y013633D02*
X003165Y013633D01*
X003165Y013650D02*
X003113Y013650D01*
X003113Y013667D02*
X003165Y013667D01*
X003165Y013684D02*
X003113Y013684D01*
X003113Y013701D02*
X003165Y013701D01*
X003165Y013718D02*
X003113Y013718D01*
X003113Y013735D02*
X003165Y013735D01*
X003165Y013752D02*
X003113Y013752D01*
X003113Y013769D02*
X003165Y013769D01*
X003165Y013786D02*
X003113Y013786D01*
X003113Y013803D02*
X003165Y013803D01*
X003165Y013820D02*
X003113Y013820D01*
X003113Y013837D02*
X003165Y013837D01*
X003165Y013854D02*
X003113Y013854D01*
X003007Y013867D02*
X003007Y013225D01*
X002955Y013225D01*
X002955Y013867D01*
X003007Y013867D01*
X003007Y013242D02*
X002955Y013242D01*
X002955Y013259D02*
X003007Y013259D01*
X003007Y013276D02*
X002955Y013276D01*
X002955Y013293D02*
X003007Y013293D01*
X003007Y013310D02*
X002955Y013310D01*
X002955Y013327D02*
X003007Y013327D01*
X003007Y013344D02*
X002955Y013344D01*
X002955Y013361D02*
X003007Y013361D01*
X003007Y013378D02*
X002955Y013378D01*
X002955Y013395D02*
X003007Y013395D01*
X003007Y013412D02*
X002955Y013412D01*
X002955Y013429D02*
X003007Y013429D01*
X003007Y013446D02*
X002955Y013446D01*
X002955Y013463D02*
X003007Y013463D01*
X003007Y013480D02*
X002955Y013480D01*
X002955Y013497D02*
X003007Y013497D01*
X003007Y013514D02*
X002955Y013514D01*
X002955Y013531D02*
X003007Y013531D01*
X003007Y013548D02*
X002955Y013548D01*
X002955Y013565D02*
X003007Y013565D01*
X003007Y013582D02*
X002955Y013582D01*
X002955Y013599D02*
X003007Y013599D01*
X003007Y013616D02*
X002955Y013616D01*
X002955Y013633D02*
X003007Y013633D01*
X003007Y013650D02*
X002955Y013650D01*
X002955Y013667D02*
X003007Y013667D01*
X003007Y013684D02*
X002955Y013684D01*
X002955Y013701D02*
X003007Y013701D01*
X003007Y013718D02*
X002955Y013718D01*
X002955Y013735D02*
X003007Y013735D01*
X003007Y013752D02*
X002955Y013752D01*
X002955Y013769D02*
X003007Y013769D01*
X003007Y013786D02*
X002955Y013786D01*
X002955Y013803D02*
X003007Y013803D01*
X003007Y013820D02*
X002955Y013820D01*
X002955Y013837D02*
X003007Y013837D01*
X003007Y013854D02*
X002955Y013854D01*
X002850Y013867D02*
X002850Y013225D01*
X002798Y013225D01*
X002798Y013867D01*
X002850Y013867D01*
X002850Y013242D02*
X002798Y013242D01*
X002798Y013259D02*
X002850Y013259D01*
X002850Y013276D02*
X002798Y013276D01*
X002798Y013293D02*
X002850Y013293D01*
X002850Y013310D02*
X002798Y013310D01*
X002798Y013327D02*
X002850Y013327D01*
X002850Y013344D02*
X002798Y013344D01*
X002798Y013361D02*
X002850Y013361D01*
X002850Y013378D02*
X002798Y013378D01*
X002798Y013395D02*
X002850Y013395D01*
X002850Y013412D02*
X002798Y013412D01*
X002798Y013429D02*
X002850Y013429D01*
X002850Y013446D02*
X002798Y013446D01*
X002798Y013463D02*
X002850Y013463D01*
X002850Y013480D02*
X002798Y013480D01*
X002798Y013497D02*
X002850Y013497D01*
X002850Y013514D02*
X002798Y013514D01*
X002798Y013531D02*
X002850Y013531D01*
X002850Y013548D02*
X002798Y013548D01*
X002798Y013565D02*
X002850Y013565D01*
X002850Y013582D02*
X002798Y013582D01*
X002798Y013599D02*
X002850Y013599D01*
X002850Y013616D02*
X002798Y013616D01*
X002798Y013633D02*
X002850Y013633D01*
X002850Y013650D02*
X002798Y013650D01*
X002798Y013667D02*
X002850Y013667D01*
X002850Y013684D02*
X002798Y013684D01*
X002798Y013701D02*
X002850Y013701D01*
X002850Y013718D02*
X002798Y013718D01*
X002798Y013735D02*
X002850Y013735D01*
X002850Y013752D02*
X002798Y013752D01*
X002798Y013769D02*
X002850Y013769D01*
X002850Y013786D02*
X002798Y013786D01*
X002798Y013803D02*
X002850Y013803D01*
X002850Y013820D02*
X002798Y013820D01*
X002798Y013837D02*
X002850Y013837D01*
X002850Y013854D02*
X002798Y013854D01*
X003795Y013867D02*
X003795Y013225D01*
X003743Y013225D01*
X003743Y013867D01*
X003795Y013867D01*
X003795Y013242D02*
X003743Y013242D01*
X003743Y013259D02*
X003795Y013259D01*
X003795Y013276D02*
X003743Y013276D01*
X003743Y013293D02*
X003795Y013293D01*
X003795Y013310D02*
X003743Y013310D01*
X003743Y013327D02*
X003795Y013327D01*
X003795Y013344D02*
X003743Y013344D01*
X003743Y013361D02*
X003795Y013361D01*
X003795Y013378D02*
X003743Y013378D01*
X003743Y013395D02*
X003795Y013395D01*
X003795Y013412D02*
X003743Y013412D01*
X003743Y013429D02*
X003795Y013429D01*
X003795Y013446D02*
X003743Y013446D01*
X003743Y013463D02*
X003795Y013463D01*
X003795Y013480D02*
X003743Y013480D01*
X003743Y013497D02*
X003795Y013497D01*
X003795Y013514D02*
X003743Y013514D01*
X003743Y013531D02*
X003795Y013531D01*
X003795Y013548D02*
X003743Y013548D01*
X003743Y013565D02*
X003795Y013565D01*
X003795Y013582D02*
X003743Y013582D01*
X003743Y013599D02*
X003795Y013599D01*
X003795Y013616D02*
X003743Y013616D01*
X003743Y013633D02*
X003795Y013633D01*
X003795Y013650D02*
X003743Y013650D01*
X003743Y013667D02*
X003795Y013667D01*
X003795Y013684D02*
X003743Y013684D01*
X003743Y013701D02*
X003795Y013701D01*
X003795Y013718D02*
X003743Y013718D01*
X003743Y013735D02*
X003795Y013735D01*
X003795Y013752D02*
X003743Y013752D01*
X003743Y013769D02*
X003795Y013769D01*
X003795Y013786D02*
X003743Y013786D01*
X003743Y013803D02*
X003795Y013803D01*
X003795Y013820D02*
X003743Y013820D01*
X003743Y013837D02*
X003795Y013837D01*
X003795Y013854D02*
X003743Y013854D01*
X003952Y013867D02*
X003952Y013225D01*
X003900Y013225D01*
X003900Y013867D01*
X003952Y013867D01*
X003952Y013242D02*
X003900Y013242D01*
X003900Y013259D02*
X003952Y013259D01*
X003952Y013276D02*
X003900Y013276D01*
X003900Y013293D02*
X003952Y013293D01*
X003952Y013310D02*
X003900Y013310D01*
X003900Y013327D02*
X003952Y013327D01*
X003952Y013344D02*
X003900Y013344D01*
X003900Y013361D02*
X003952Y013361D01*
X003952Y013378D02*
X003900Y013378D01*
X003900Y013395D02*
X003952Y013395D01*
X003952Y013412D02*
X003900Y013412D01*
X003900Y013429D02*
X003952Y013429D01*
X003952Y013446D02*
X003900Y013446D01*
X003900Y013463D02*
X003952Y013463D01*
X003952Y013480D02*
X003900Y013480D01*
X003900Y013497D02*
X003952Y013497D01*
X003952Y013514D02*
X003900Y013514D01*
X003900Y013531D02*
X003952Y013531D01*
X003952Y013548D02*
X003900Y013548D01*
X003900Y013565D02*
X003952Y013565D01*
X003952Y013582D02*
X003900Y013582D01*
X003900Y013599D02*
X003952Y013599D01*
X003952Y013616D02*
X003900Y013616D01*
X003900Y013633D02*
X003952Y013633D01*
X003952Y013650D02*
X003900Y013650D01*
X003900Y013667D02*
X003952Y013667D01*
X003952Y013684D02*
X003900Y013684D01*
X003900Y013701D02*
X003952Y013701D01*
X003952Y013718D02*
X003900Y013718D01*
X003900Y013735D02*
X003952Y013735D01*
X003952Y013752D02*
X003900Y013752D01*
X003900Y013769D02*
X003952Y013769D01*
X003952Y013786D02*
X003900Y013786D01*
X003900Y013803D02*
X003952Y013803D01*
X003952Y013820D02*
X003900Y013820D01*
X003900Y013837D02*
X003952Y013837D01*
X003952Y013854D02*
X003900Y013854D01*
X004110Y013867D02*
X004110Y013225D01*
X004058Y013225D01*
X004058Y013867D01*
X004110Y013867D01*
X004110Y013242D02*
X004058Y013242D01*
X004058Y013259D02*
X004110Y013259D01*
X004110Y013276D02*
X004058Y013276D01*
X004058Y013293D02*
X004110Y013293D01*
X004110Y013310D02*
X004058Y013310D01*
X004058Y013327D02*
X004110Y013327D01*
X004110Y013344D02*
X004058Y013344D01*
X004058Y013361D02*
X004110Y013361D01*
X004110Y013378D02*
X004058Y013378D01*
X004058Y013395D02*
X004110Y013395D01*
X004110Y013412D02*
X004058Y013412D01*
X004058Y013429D02*
X004110Y013429D01*
X004110Y013446D02*
X004058Y013446D01*
X004058Y013463D02*
X004110Y013463D01*
X004110Y013480D02*
X004058Y013480D01*
X004058Y013497D02*
X004110Y013497D01*
X004110Y013514D02*
X004058Y013514D01*
X004058Y013531D02*
X004110Y013531D01*
X004110Y013548D02*
X004058Y013548D01*
X004058Y013565D02*
X004110Y013565D01*
X004110Y013582D02*
X004058Y013582D01*
X004058Y013599D02*
X004110Y013599D01*
X004110Y013616D02*
X004058Y013616D01*
X004058Y013633D02*
X004110Y013633D01*
X004110Y013650D02*
X004058Y013650D01*
X004058Y013667D02*
X004110Y013667D01*
X004110Y013684D02*
X004058Y013684D01*
X004058Y013701D02*
X004110Y013701D01*
X004110Y013718D02*
X004058Y013718D01*
X004058Y013735D02*
X004110Y013735D01*
X004110Y013752D02*
X004058Y013752D01*
X004058Y013769D02*
X004110Y013769D01*
X004110Y013786D02*
X004058Y013786D01*
X004058Y013803D02*
X004110Y013803D01*
X004110Y013820D02*
X004058Y013820D01*
X004058Y013837D02*
X004110Y013837D01*
X004110Y013854D02*
X004058Y013854D01*
X004267Y013867D02*
X004267Y013225D01*
X004215Y013225D01*
X004215Y013867D01*
X004267Y013867D01*
X004267Y013242D02*
X004215Y013242D01*
X004215Y013259D02*
X004267Y013259D01*
X004267Y013276D02*
X004215Y013276D01*
X004215Y013293D02*
X004267Y013293D01*
X004267Y013310D02*
X004215Y013310D01*
X004215Y013327D02*
X004267Y013327D01*
X004267Y013344D02*
X004215Y013344D01*
X004215Y013361D02*
X004267Y013361D01*
X004267Y013378D02*
X004215Y013378D01*
X004215Y013395D02*
X004267Y013395D01*
X004267Y013412D02*
X004215Y013412D01*
X004215Y013429D02*
X004267Y013429D01*
X004267Y013446D02*
X004215Y013446D01*
X004215Y013463D02*
X004267Y013463D01*
X004267Y013480D02*
X004215Y013480D01*
X004215Y013497D02*
X004267Y013497D01*
X004267Y013514D02*
X004215Y013514D01*
X004215Y013531D02*
X004267Y013531D01*
X004267Y013548D02*
X004215Y013548D01*
X004215Y013565D02*
X004267Y013565D01*
X004267Y013582D02*
X004215Y013582D01*
X004215Y013599D02*
X004267Y013599D01*
X004267Y013616D02*
X004215Y013616D01*
X004215Y013633D02*
X004267Y013633D01*
X004267Y013650D02*
X004215Y013650D01*
X004215Y013667D02*
X004267Y013667D01*
X004267Y013684D02*
X004215Y013684D01*
X004215Y013701D02*
X004267Y013701D01*
X004267Y013718D02*
X004215Y013718D01*
X004215Y013735D02*
X004267Y013735D01*
X004267Y013752D02*
X004215Y013752D01*
X004215Y013769D02*
X004267Y013769D01*
X004267Y013786D02*
X004215Y013786D01*
X004215Y013803D02*
X004267Y013803D01*
X004267Y013820D02*
X004215Y013820D01*
X004215Y013837D02*
X004267Y013837D01*
X004267Y013854D02*
X004215Y013854D01*
X004425Y013867D02*
X004425Y013225D01*
X004373Y013225D01*
X004373Y013867D01*
X004425Y013867D01*
X004425Y013242D02*
X004373Y013242D01*
X004373Y013259D02*
X004425Y013259D01*
X004425Y013276D02*
X004373Y013276D01*
X004373Y013293D02*
X004425Y013293D01*
X004425Y013310D02*
X004373Y013310D01*
X004373Y013327D02*
X004425Y013327D01*
X004425Y013344D02*
X004373Y013344D01*
X004373Y013361D02*
X004425Y013361D01*
X004425Y013378D02*
X004373Y013378D01*
X004373Y013395D02*
X004425Y013395D01*
X004425Y013412D02*
X004373Y013412D01*
X004373Y013429D02*
X004425Y013429D01*
X004425Y013446D02*
X004373Y013446D01*
X004373Y013463D02*
X004425Y013463D01*
X004425Y013480D02*
X004373Y013480D01*
X004373Y013497D02*
X004425Y013497D01*
X004425Y013514D02*
X004373Y013514D01*
X004373Y013531D02*
X004425Y013531D01*
X004425Y013548D02*
X004373Y013548D01*
X004373Y013565D02*
X004425Y013565D01*
X004425Y013582D02*
X004373Y013582D01*
X004373Y013599D02*
X004425Y013599D01*
X004425Y013616D02*
X004373Y013616D01*
X004373Y013633D02*
X004425Y013633D01*
X004425Y013650D02*
X004373Y013650D01*
X004373Y013667D02*
X004425Y013667D01*
X004425Y013684D02*
X004373Y013684D01*
X004373Y013701D02*
X004425Y013701D01*
X004425Y013718D02*
X004373Y013718D01*
X004373Y013735D02*
X004425Y013735D01*
X004425Y013752D02*
X004373Y013752D01*
X004373Y013769D02*
X004425Y013769D01*
X004425Y013786D02*
X004373Y013786D01*
X004373Y013803D02*
X004425Y013803D01*
X004425Y013820D02*
X004373Y013820D01*
X004373Y013837D02*
X004425Y013837D01*
X004425Y013854D02*
X004373Y013854D01*
X004582Y013867D02*
X004582Y013225D01*
X004530Y013225D01*
X004530Y013867D01*
X004582Y013867D01*
X004582Y013242D02*
X004530Y013242D01*
X004530Y013259D02*
X004582Y013259D01*
X004582Y013276D02*
X004530Y013276D01*
X004530Y013293D02*
X004582Y013293D01*
X004582Y013310D02*
X004530Y013310D01*
X004530Y013327D02*
X004582Y013327D01*
X004582Y013344D02*
X004530Y013344D01*
X004530Y013361D02*
X004582Y013361D01*
X004582Y013378D02*
X004530Y013378D01*
X004530Y013395D02*
X004582Y013395D01*
X004582Y013412D02*
X004530Y013412D01*
X004530Y013429D02*
X004582Y013429D01*
X004582Y013446D02*
X004530Y013446D01*
X004530Y013463D02*
X004582Y013463D01*
X004582Y013480D02*
X004530Y013480D01*
X004530Y013497D02*
X004582Y013497D01*
X004582Y013514D02*
X004530Y013514D01*
X004530Y013531D02*
X004582Y013531D01*
X004582Y013548D02*
X004530Y013548D01*
X004530Y013565D02*
X004582Y013565D01*
X004582Y013582D02*
X004530Y013582D01*
X004530Y013599D02*
X004582Y013599D01*
X004582Y013616D02*
X004530Y013616D01*
X004530Y013633D02*
X004582Y013633D01*
X004582Y013650D02*
X004530Y013650D01*
X004530Y013667D02*
X004582Y013667D01*
X004582Y013684D02*
X004530Y013684D01*
X004530Y013701D02*
X004582Y013701D01*
X004582Y013718D02*
X004530Y013718D01*
X004530Y013735D02*
X004582Y013735D01*
X004582Y013752D02*
X004530Y013752D01*
X004530Y013769D02*
X004582Y013769D01*
X004582Y013786D02*
X004530Y013786D01*
X004530Y013803D02*
X004582Y013803D01*
X004582Y013820D02*
X004530Y013820D01*
X004530Y013837D02*
X004582Y013837D01*
X004582Y013854D02*
X004530Y013854D01*
X004740Y013867D02*
X004740Y013225D01*
X004688Y013225D01*
X004688Y013867D01*
X004740Y013867D01*
X004740Y013242D02*
X004688Y013242D01*
X004688Y013259D02*
X004740Y013259D01*
X004740Y013276D02*
X004688Y013276D01*
X004688Y013293D02*
X004740Y013293D01*
X004740Y013310D02*
X004688Y013310D01*
X004688Y013327D02*
X004740Y013327D01*
X004740Y013344D02*
X004688Y013344D01*
X004688Y013361D02*
X004740Y013361D01*
X004740Y013378D02*
X004688Y013378D01*
X004688Y013395D02*
X004740Y013395D01*
X004740Y013412D02*
X004688Y013412D01*
X004688Y013429D02*
X004740Y013429D01*
X004740Y013446D02*
X004688Y013446D01*
X004688Y013463D02*
X004740Y013463D01*
X004740Y013480D02*
X004688Y013480D01*
X004688Y013497D02*
X004740Y013497D01*
X004740Y013514D02*
X004688Y013514D01*
X004688Y013531D02*
X004740Y013531D01*
X004740Y013548D02*
X004688Y013548D01*
X004688Y013565D02*
X004740Y013565D01*
X004740Y013582D02*
X004688Y013582D01*
X004688Y013599D02*
X004740Y013599D01*
X004740Y013616D02*
X004688Y013616D01*
X004688Y013633D02*
X004740Y013633D01*
X004740Y013650D02*
X004688Y013650D01*
X004688Y013667D02*
X004740Y013667D01*
X004740Y013684D02*
X004688Y013684D01*
X004688Y013701D02*
X004740Y013701D01*
X004740Y013718D02*
X004688Y013718D01*
X004688Y013735D02*
X004740Y013735D01*
X004740Y013752D02*
X004688Y013752D01*
X004688Y013769D02*
X004740Y013769D01*
X004740Y013786D02*
X004688Y013786D01*
X004688Y013803D02*
X004740Y013803D01*
X004740Y013820D02*
X004688Y013820D01*
X004688Y013837D02*
X004740Y013837D01*
X004740Y013854D02*
X004688Y013854D01*
X004897Y013867D02*
X004897Y013225D01*
X004845Y013225D01*
X004845Y013867D01*
X004897Y013867D01*
X004897Y013242D02*
X004845Y013242D01*
X004845Y013259D02*
X004897Y013259D01*
X004897Y013276D02*
X004845Y013276D01*
X004845Y013293D02*
X004897Y013293D01*
X004897Y013310D02*
X004845Y013310D01*
X004845Y013327D02*
X004897Y013327D01*
X004897Y013344D02*
X004845Y013344D01*
X004845Y013361D02*
X004897Y013361D01*
X004897Y013378D02*
X004845Y013378D01*
X004845Y013395D02*
X004897Y013395D01*
X004897Y013412D02*
X004845Y013412D01*
X004845Y013429D02*
X004897Y013429D01*
X004897Y013446D02*
X004845Y013446D01*
X004845Y013463D02*
X004897Y013463D01*
X004897Y013480D02*
X004845Y013480D01*
X004845Y013497D02*
X004897Y013497D01*
X004897Y013514D02*
X004845Y013514D01*
X004845Y013531D02*
X004897Y013531D01*
X004897Y013548D02*
X004845Y013548D01*
X004845Y013565D02*
X004897Y013565D01*
X004897Y013582D02*
X004845Y013582D01*
X004845Y013599D02*
X004897Y013599D01*
X004897Y013616D02*
X004845Y013616D01*
X004845Y013633D02*
X004897Y013633D01*
X004897Y013650D02*
X004845Y013650D01*
X004845Y013667D02*
X004897Y013667D01*
X004897Y013684D02*
X004845Y013684D01*
X004845Y013701D02*
X004897Y013701D01*
X004897Y013718D02*
X004845Y013718D01*
X004845Y013735D02*
X004897Y013735D01*
X004897Y013752D02*
X004845Y013752D01*
X004845Y013769D02*
X004897Y013769D01*
X004897Y013786D02*
X004845Y013786D01*
X004845Y013803D02*
X004897Y013803D01*
X004897Y013820D02*
X004845Y013820D01*
X004845Y013837D02*
X004897Y013837D01*
X004897Y013854D02*
X004845Y013854D01*
X005055Y013867D02*
X005055Y013225D01*
X005003Y013225D01*
X005003Y013867D01*
X005055Y013867D01*
X005055Y013242D02*
X005003Y013242D01*
X005003Y013259D02*
X005055Y013259D01*
X005055Y013276D02*
X005003Y013276D01*
X005003Y013293D02*
X005055Y013293D01*
X005055Y013310D02*
X005003Y013310D01*
X005003Y013327D02*
X005055Y013327D01*
X005055Y013344D02*
X005003Y013344D01*
X005003Y013361D02*
X005055Y013361D01*
X005055Y013378D02*
X005003Y013378D01*
X005003Y013395D02*
X005055Y013395D01*
X005055Y013412D02*
X005003Y013412D01*
X005003Y013429D02*
X005055Y013429D01*
X005055Y013446D02*
X005003Y013446D01*
X005003Y013463D02*
X005055Y013463D01*
X005055Y013480D02*
X005003Y013480D01*
X005003Y013497D02*
X005055Y013497D01*
X005055Y013514D02*
X005003Y013514D01*
X005003Y013531D02*
X005055Y013531D01*
X005055Y013548D02*
X005003Y013548D01*
X005003Y013565D02*
X005055Y013565D01*
X005055Y013582D02*
X005003Y013582D01*
X005003Y013599D02*
X005055Y013599D01*
X005055Y013616D02*
X005003Y013616D01*
X005003Y013633D02*
X005055Y013633D01*
X005055Y013650D02*
X005003Y013650D01*
X005003Y013667D02*
X005055Y013667D01*
X005055Y013684D02*
X005003Y013684D01*
X005003Y013701D02*
X005055Y013701D01*
X005055Y013718D02*
X005003Y013718D01*
X005003Y013735D02*
X005055Y013735D01*
X005055Y013752D02*
X005003Y013752D01*
X005003Y013769D02*
X005055Y013769D01*
X005055Y013786D02*
X005003Y013786D01*
X005003Y013803D02*
X005055Y013803D01*
X005055Y013820D02*
X005003Y013820D01*
X005003Y013837D02*
X005055Y013837D01*
X005055Y013854D02*
X005003Y013854D01*
X005212Y013867D02*
X005212Y013225D01*
X005160Y013225D01*
X005160Y013867D01*
X005212Y013867D01*
X005212Y013242D02*
X005160Y013242D01*
X005160Y013259D02*
X005212Y013259D01*
X005212Y013276D02*
X005160Y013276D01*
X005160Y013293D02*
X005212Y013293D01*
X005212Y013310D02*
X005160Y013310D01*
X005160Y013327D02*
X005212Y013327D01*
X005212Y013344D02*
X005160Y013344D01*
X005160Y013361D02*
X005212Y013361D01*
X005212Y013378D02*
X005160Y013378D01*
X005160Y013395D02*
X005212Y013395D01*
X005212Y013412D02*
X005160Y013412D01*
X005160Y013429D02*
X005212Y013429D01*
X005212Y013446D02*
X005160Y013446D01*
X005160Y013463D02*
X005212Y013463D01*
X005212Y013480D02*
X005160Y013480D01*
X005160Y013497D02*
X005212Y013497D01*
X005212Y013514D02*
X005160Y013514D01*
X005160Y013531D02*
X005212Y013531D01*
X005212Y013548D02*
X005160Y013548D01*
X005160Y013565D02*
X005212Y013565D01*
X005212Y013582D02*
X005160Y013582D01*
X005160Y013599D02*
X005212Y013599D01*
X005212Y013616D02*
X005160Y013616D01*
X005160Y013633D02*
X005212Y013633D01*
X005212Y013650D02*
X005160Y013650D01*
X005160Y013667D02*
X005212Y013667D01*
X005212Y013684D02*
X005160Y013684D01*
X005160Y013701D02*
X005212Y013701D01*
X005212Y013718D02*
X005160Y013718D01*
X005160Y013735D02*
X005212Y013735D01*
X005212Y013752D02*
X005160Y013752D01*
X005160Y013769D02*
X005212Y013769D01*
X005212Y013786D02*
X005160Y013786D01*
X005160Y013803D02*
X005212Y013803D01*
X005212Y013820D02*
X005160Y013820D01*
X005160Y013837D02*
X005212Y013837D01*
X005212Y013854D02*
X005160Y013854D01*
X005370Y013867D02*
X005370Y013225D01*
X005318Y013225D01*
X005318Y013867D01*
X005370Y013867D01*
X005370Y013242D02*
X005318Y013242D01*
X005318Y013259D02*
X005370Y013259D01*
X005370Y013276D02*
X005318Y013276D01*
X005318Y013293D02*
X005370Y013293D01*
X005370Y013310D02*
X005318Y013310D01*
X005318Y013327D02*
X005370Y013327D01*
X005370Y013344D02*
X005318Y013344D01*
X005318Y013361D02*
X005370Y013361D01*
X005370Y013378D02*
X005318Y013378D01*
X005318Y013395D02*
X005370Y013395D01*
X005370Y013412D02*
X005318Y013412D01*
X005318Y013429D02*
X005370Y013429D01*
X005370Y013446D02*
X005318Y013446D01*
X005318Y013463D02*
X005370Y013463D01*
X005370Y013480D02*
X005318Y013480D01*
X005318Y013497D02*
X005370Y013497D01*
X005370Y013514D02*
X005318Y013514D01*
X005318Y013531D02*
X005370Y013531D01*
X005370Y013548D02*
X005318Y013548D01*
X005318Y013565D02*
X005370Y013565D01*
X005370Y013582D02*
X005318Y013582D01*
X005318Y013599D02*
X005370Y013599D01*
X005370Y013616D02*
X005318Y013616D01*
X005318Y013633D02*
X005370Y013633D01*
X005370Y013650D02*
X005318Y013650D01*
X005318Y013667D02*
X005370Y013667D01*
X005370Y013684D02*
X005318Y013684D01*
X005318Y013701D02*
X005370Y013701D01*
X005370Y013718D02*
X005318Y013718D01*
X005318Y013735D02*
X005370Y013735D01*
X005370Y013752D02*
X005318Y013752D01*
X005318Y013769D02*
X005370Y013769D01*
X005370Y013786D02*
X005318Y013786D01*
X005318Y013803D02*
X005370Y013803D01*
X005370Y013820D02*
X005318Y013820D01*
X005318Y013837D02*
X005370Y013837D01*
X005370Y013854D02*
X005318Y013854D01*
X005527Y013867D02*
X005527Y013225D01*
X005475Y013225D01*
X005475Y013867D01*
X005527Y013867D01*
X005527Y013242D02*
X005475Y013242D01*
X005475Y013259D02*
X005527Y013259D01*
X005527Y013276D02*
X005475Y013276D01*
X005475Y013293D02*
X005527Y013293D01*
X005527Y013310D02*
X005475Y013310D01*
X005475Y013327D02*
X005527Y013327D01*
X005527Y013344D02*
X005475Y013344D01*
X005475Y013361D02*
X005527Y013361D01*
X005527Y013378D02*
X005475Y013378D01*
X005475Y013395D02*
X005527Y013395D01*
X005527Y013412D02*
X005475Y013412D01*
X005475Y013429D02*
X005527Y013429D01*
X005527Y013446D02*
X005475Y013446D01*
X005475Y013463D02*
X005527Y013463D01*
X005527Y013480D02*
X005475Y013480D01*
X005475Y013497D02*
X005527Y013497D01*
X005527Y013514D02*
X005475Y013514D01*
X005475Y013531D02*
X005527Y013531D01*
X005527Y013548D02*
X005475Y013548D01*
X005475Y013565D02*
X005527Y013565D01*
X005527Y013582D02*
X005475Y013582D01*
X005475Y013599D02*
X005527Y013599D01*
X005527Y013616D02*
X005475Y013616D01*
X005475Y013633D02*
X005527Y013633D01*
X005527Y013650D02*
X005475Y013650D01*
X005475Y013667D02*
X005527Y013667D01*
X005527Y013684D02*
X005475Y013684D01*
X005475Y013701D02*
X005527Y013701D01*
X005527Y013718D02*
X005475Y013718D01*
X005475Y013735D02*
X005527Y013735D01*
X005527Y013752D02*
X005475Y013752D01*
X005475Y013769D02*
X005527Y013769D01*
X005527Y013786D02*
X005475Y013786D01*
X005475Y013803D02*
X005527Y013803D01*
X005527Y013820D02*
X005475Y013820D01*
X005475Y013837D02*
X005527Y013837D01*
X005527Y013854D02*
X005475Y013854D01*
X005685Y013867D02*
X005685Y013225D01*
X005633Y013225D01*
X005633Y013867D01*
X005685Y013867D01*
X005685Y013242D02*
X005633Y013242D01*
X005633Y013259D02*
X005685Y013259D01*
X005685Y013276D02*
X005633Y013276D01*
X005633Y013293D02*
X005685Y013293D01*
X005685Y013310D02*
X005633Y013310D01*
X005633Y013327D02*
X005685Y013327D01*
X005685Y013344D02*
X005633Y013344D01*
X005633Y013361D02*
X005685Y013361D01*
X005685Y013378D02*
X005633Y013378D01*
X005633Y013395D02*
X005685Y013395D01*
X005685Y013412D02*
X005633Y013412D01*
X005633Y013429D02*
X005685Y013429D01*
X005685Y013446D02*
X005633Y013446D01*
X005633Y013463D02*
X005685Y013463D01*
X005685Y013480D02*
X005633Y013480D01*
X005633Y013497D02*
X005685Y013497D01*
X005685Y013514D02*
X005633Y013514D01*
X005633Y013531D02*
X005685Y013531D01*
X005685Y013548D02*
X005633Y013548D01*
X005633Y013565D02*
X005685Y013565D01*
X005685Y013582D02*
X005633Y013582D01*
X005633Y013599D02*
X005685Y013599D01*
X005685Y013616D02*
X005633Y013616D01*
X005633Y013633D02*
X005685Y013633D01*
X005685Y013650D02*
X005633Y013650D01*
X005633Y013667D02*
X005685Y013667D01*
X005685Y013684D02*
X005633Y013684D01*
X005633Y013701D02*
X005685Y013701D01*
X005685Y013718D02*
X005633Y013718D01*
X005633Y013735D02*
X005685Y013735D01*
X005685Y013752D02*
X005633Y013752D01*
X005633Y013769D02*
X005685Y013769D01*
X005685Y013786D02*
X005633Y013786D01*
X005633Y013803D02*
X005685Y013803D01*
X005685Y013820D02*
X005633Y013820D01*
X005633Y013837D02*
X005685Y013837D01*
X005685Y013854D02*
X005633Y013854D01*
X005842Y013867D02*
X005842Y013225D01*
X005790Y013225D01*
X005790Y013867D01*
X005842Y013867D01*
X005842Y013242D02*
X005790Y013242D01*
X005790Y013259D02*
X005842Y013259D01*
X005842Y013276D02*
X005790Y013276D01*
X005790Y013293D02*
X005842Y013293D01*
X005842Y013310D02*
X005790Y013310D01*
X005790Y013327D02*
X005842Y013327D01*
X005842Y013344D02*
X005790Y013344D01*
X005790Y013361D02*
X005842Y013361D01*
X005842Y013378D02*
X005790Y013378D01*
X005790Y013395D02*
X005842Y013395D01*
X005842Y013412D02*
X005790Y013412D01*
X005790Y013429D02*
X005842Y013429D01*
X005842Y013446D02*
X005790Y013446D01*
X005790Y013463D02*
X005842Y013463D01*
X005842Y013480D02*
X005790Y013480D01*
X005790Y013497D02*
X005842Y013497D01*
X005842Y013514D02*
X005790Y013514D01*
X005790Y013531D02*
X005842Y013531D01*
X005842Y013548D02*
X005790Y013548D01*
X005790Y013565D02*
X005842Y013565D01*
X005842Y013582D02*
X005790Y013582D01*
X005790Y013599D02*
X005842Y013599D01*
X005842Y013616D02*
X005790Y013616D01*
X005790Y013633D02*
X005842Y013633D01*
X005842Y013650D02*
X005790Y013650D01*
X005790Y013667D02*
X005842Y013667D01*
X005842Y013684D02*
X005790Y013684D01*
X005790Y013701D02*
X005842Y013701D01*
X005842Y013718D02*
X005790Y013718D01*
X005790Y013735D02*
X005842Y013735D01*
X005842Y013752D02*
X005790Y013752D01*
X005790Y013769D02*
X005842Y013769D01*
X005842Y013786D02*
X005790Y013786D01*
X005790Y013803D02*
X005842Y013803D01*
X005842Y013820D02*
X005790Y013820D01*
X005790Y013837D02*
X005842Y013837D01*
X005842Y013854D02*
X005790Y013854D01*
X006000Y013867D02*
X006000Y013225D01*
X005948Y013225D01*
X005948Y013867D01*
X006000Y013867D01*
X006000Y013242D02*
X005948Y013242D01*
X005948Y013259D02*
X006000Y013259D01*
X006000Y013276D02*
X005948Y013276D01*
X005948Y013293D02*
X006000Y013293D01*
X006000Y013310D02*
X005948Y013310D01*
X005948Y013327D02*
X006000Y013327D01*
X006000Y013344D02*
X005948Y013344D01*
X005948Y013361D02*
X006000Y013361D01*
X006000Y013378D02*
X005948Y013378D01*
X005948Y013395D02*
X006000Y013395D01*
X006000Y013412D02*
X005948Y013412D01*
X005948Y013429D02*
X006000Y013429D01*
X006000Y013446D02*
X005948Y013446D01*
X005948Y013463D02*
X006000Y013463D01*
X006000Y013480D02*
X005948Y013480D01*
X005948Y013497D02*
X006000Y013497D01*
X006000Y013514D02*
X005948Y013514D01*
X005948Y013531D02*
X006000Y013531D01*
X006000Y013548D02*
X005948Y013548D01*
X005948Y013565D02*
X006000Y013565D01*
X006000Y013582D02*
X005948Y013582D01*
X005948Y013599D02*
X006000Y013599D01*
X006000Y013616D02*
X005948Y013616D01*
X005948Y013633D02*
X006000Y013633D01*
X006000Y013650D02*
X005948Y013650D01*
X005948Y013667D02*
X006000Y013667D01*
X006000Y013684D02*
X005948Y013684D01*
X005948Y013701D02*
X006000Y013701D01*
X006000Y013718D02*
X005948Y013718D01*
X005948Y013735D02*
X006000Y013735D01*
X006000Y013752D02*
X005948Y013752D01*
X005948Y013769D02*
X006000Y013769D01*
X006000Y013786D02*
X005948Y013786D01*
X005948Y013803D02*
X006000Y013803D01*
X006000Y013820D02*
X005948Y013820D01*
X005948Y013837D02*
X006000Y013837D01*
X006000Y013854D02*
X005948Y013854D01*
X006157Y013867D02*
X006157Y013225D01*
X006105Y013225D01*
X006105Y013867D01*
X006157Y013867D01*
X006157Y013242D02*
X006105Y013242D01*
X006105Y013259D02*
X006157Y013259D01*
X006157Y013276D02*
X006105Y013276D01*
X006105Y013293D02*
X006157Y013293D01*
X006157Y013310D02*
X006105Y013310D01*
X006105Y013327D02*
X006157Y013327D01*
X006157Y013344D02*
X006105Y013344D01*
X006105Y013361D02*
X006157Y013361D01*
X006157Y013378D02*
X006105Y013378D01*
X006105Y013395D02*
X006157Y013395D01*
X006157Y013412D02*
X006105Y013412D01*
X006105Y013429D02*
X006157Y013429D01*
X006157Y013446D02*
X006105Y013446D01*
X006105Y013463D02*
X006157Y013463D01*
X006157Y013480D02*
X006105Y013480D01*
X006105Y013497D02*
X006157Y013497D01*
X006157Y013514D02*
X006105Y013514D01*
X006105Y013531D02*
X006157Y013531D01*
X006157Y013548D02*
X006105Y013548D01*
X006105Y013565D02*
X006157Y013565D01*
X006157Y013582D02*
X006105Y013582D01*
X006105Y013599D02*
X006157Y013599D01*
X006157Y013616D02*
X006105Y013616D01*
X006105Y013633D02*
X006157Y013633D01*
X006157Y013650D02*
X006105Y013650D01*
X006105Y013667D02*
X006157Y013667D01*
X006157Y013684D02*
X006105Y013684D01*
X006105Y013701D02*
X006157Y013701D01*
X006157Y013718D02*
X006105Y013718D01*
X006105Y013735D02*
X006157Y013735D01*
X006157Y013752D02*
X006105Y013752D01*
X006105Y013769D02*
X006157Y013769D01*
X006157Y013786D02*
X006105Y013786D01*
X006105Y013803D02*
X006157Y013803D01*
X006157Y013820D02*
X006105Y013820D01*
X006105Y013837D02*
X006157Y013837D01*
X006157Y013854D02*
X006105Y013854D01*
X006315Y013867D02*
X006315Y013225D01*
X006263Y013225D01*
X006263Y013867D01*
X006315Y013867D01*
X006315Y013242D02*
X006263Y013242D01*
X006263Y013259D02*
X006315Y013259D01*
X006315Y013276D02*
X006263Y013276D01*
X006263Y013293D02*
X006315Y013293D01*
X006315Y013310D02*
X006263Y013310D01*
X006263Y013327D02*
X006315Y013327D01*
X006315Y013344D02*
X006263Y013344D01*
X006263Y013361D02*
X006315Y013361D01*
X006315Y013378D02*
X006263Y013378D01*
X006263Y013395D02*
X006315Y013395D01*
X006315Y013412D02*
X006263Y013412D01*
X006263Y013429D02*
X006315Y013429D01*
X006315Y013446D02*
X006263Y013446D01*
X006263Y013463D02*
X006315Y013463D01*
X006315Y013480D02*
X006263Y013480D01*
X006263Y013497D02*
X006315Y013497D01*
X006315Y013514D02*
X006263Y013514D01*
X006263Y013531D02*
X006315Y013531D01*
X006315Y013548D02*
X006263Y013548D01*
X006263Y013565D02*
X006315Y013565D01*
X006315Y013582D02*
X006263Y013582D01*
X006263Y013599D02*
X006315Y013599D01*
X006315Y013616D02*
X006263Y013616D01*
X006263Y013633D02*
X006315Y013633D01*
X006315Y013650D02*
X006263Y013650D01*
X006263Y013667D02*
X006315Y013667D01*
X006315Y013684D02*
X006263Y013684D01*
X006263Y013701D02*
X006315Y013701D01*
X006315Y013718D02*
X006263Y013718D01*
X006263Y013735D02*
X006315Y013735D01*
X006315Y013752D02*
X006263Y013752D01*
X006263Y013769D02*
X006315Y013769D01*
X006315Y013786D02*
X006263Y013786D01*
X006263Y013803D02*
X006315Y013803D01*
X006315Y013820D02*
X006263Y013820D01*
X006263Y013837D02*
X006315Y013837D01*
X006315Y013854D02*
X006263Y013854D01*
X006472Y013867D02*
X006472Y013225D01*
X006420Y013225D01*
X006420Y013867D01*
X006472Y013867D01*
X006472Y013242D02*
X006420Y013242D01*
X006420Y013259D02*
X006472Y013259D01*
X006472Y013276D02*
X006420Y013276D01*
X006420Y013293D02*
X006472Y013293D01*
X006472Y013310D02*
X006420Y013310D01*
X006420Y013327D02*
X006472Y013327D01*
X006472Y013344D02*
X006420Y013344D01*
X006420Y013361D02*
X006472Y013361D01*
X006472Y013378D02*
X006420Y013378D01*
X006420Y013395D02*
X006472Y013395D01*
X006472Y013412D02*
X006420Y013412D01*
X006420Y013429D02*
X006472Y013429D01*
X006472Y013446D02*
X006420Y013446D01*
X006420Y013463D02*
X006472Y013463D01*
X006472Y013480D02*
X006420Y013480D01*
X006420Y013497D02*
X006472Y013497D01*
X006472Y013514D02*
X006420Y013514D01*
X006420Y013531D02*
X006472Y013531D01*
X006472Y013548D02*
X006420Y013548D01*
X006420Y013565D02*
X006472Y013565D01*
X006472Y013582D02*
X006420Y013582D01*
X006420Y013599D02*
X006472Y013599D01*
X006472Y013616D02*
X006420Y013616D01*
X006420Y013633D02*
X006472Y013633D01*
X006472Y013650D02*
X006420Y013650D01*
X006420Y013667D02*
X006472Y013667D01*
X006472Y013684D02*
X006420Y013684D01*
X006420Y013701D02*
X006472Y013701D01*
X006472Y013718D02*
X006420Y013718D01*
X006420Y013735D02*
X006472Y013735D01*
X006472Y013752D02*
X006420Y013752D01*
X006420Y013769D02*
X006472Y013769D01*
X006472Y013786D02*
X006420Y013786D01*
X006420Y013803D02*
X006472Y013803D01*
X006472Y013820D02*
X006420Y013820D01*
X006420Y013837D02*
X006472Y013837D01*
X006472Y013854D02*
X006420Y013854D01*
X006630Y013867D02*
X006630Y013225D01*
X006578Y013225D01*
X006578Y013867D01*
X006630Y013867D01*
X006630Y013242D02*
X006578Y013242D01*
X006578Y013259D02*
X006630Y013259D01*
X006630Y013276D02*
X006578Y013276D01*
X006578Y013293D02*
X006630Y013293D01*
X006630Y013310D02*
X006578Y013310D01*
X006578Y013327D02*
X006630Y013327D01*
X006630Y013344D02*
X006578Y013344D01*
X006578Y013361D02*
X006630Y013361D01*
X006630Y013378D02*
X006578Y013378D01*
X006578Y013395D02*
X006630Y013395D01*
X006630Y013412D02*
X006578Y013412D01*
X006578Y013429D02*
X006630Y013429D01*
X006630Y013446D02*
X006578Y013446D01*
X006578Y013463D02*
X006630Y013463D01*
X006630Y013480D02*
X006578Y013480D01*
X006578Y013497D02*
X006630Y013497D01*
X006630Y013514D02*
X006578Y013514D01*
X006578Y013531D02*
X006630Y013531D01*
X006630Y013548D02*
X006578Y013548D01*
X006578Y013565D02*
X006630Y013565D01*
X006630Y013582D02*
X006578Y013582D01*
X006578Y013599D02*
X006630Y013599D01*
X006630Y013616D02*
X006578Y013616D01*
X006578Y013633D02*
X006630Y013633D01*
X006630Y013650D02*
X006578Y013650D01*
X006578Y013667D02*
X006630Y013667D01*
X006630Y013684D02*
X006578Y013684D01*
X006578Y013701D02*
X006630Y013701D01*
X006630Y013718D02*
X006578Y013718D01*
X006578Y013735D02*
X006630Y013735D01*
X006630Y013752D02*
X006578Y013752D01*
X006578Y013769D02*
X006630Y013769D01*
X006630Y013786D02*
X006578Y013786D01*
X006578Y013803D02*
X006630Y013803D01*
X006630Y013820D02*
X006578Y013820D01*
X006578Y013837D02*
X006630Y013837D01*
X006630Y013854D02*
X006578Y013854D01*
X006787Y013867D02*
X006787Y013225D01*
X006735Y013225D01*
X006735Y013867D01*
X006787Y013867D01*
X006787Y013242D02*
X006735Y013242D01*
X006735Y013259D02*
X006787Y013259D01*
X006787Y013276D02*
X006735Y013276D01*
X006735Y013293D02*
X006787Y013293D01*
X006787Y013310D02*
X006735Y013310D01*
X006735Y013327D02*
X006787Y013327D01*
X006787Y013344D02*
X006735Y013344D01*
X006735Y013361D02*
X006787Y013361D01*
X006787Y013378D02*
X006735Y013378D01*
X006735Y013395D02*
X006787Y013395D01*
X006787Y013412D02*
X006735Y013412D01*
X006735Y013429D02*
X006787Y013429D01*
X006787Y013446D02*
X006735Y013446D01*
X006735Y013463D02*
X006787Y013463D01*
X006787Y013480D02*
X006735Y013480D01*
X006735Y013497D02*
X006787Y013497D01*
X006787Y013514D02*
X006735Y013514D01*
X006735Y013531D02*
X006787Y013531D01*
X006787Y013548D02*
X006735Y013548D01*
X006735Y013565D02*
X006787Y013565D01*
X006787Y013582D02*
X006735Y013582D01*
X006735Y013599D02*
X006787Y013599D01*
X006787Y013616D02*
X006735Y013616D01*
X006735Y013633D02*
X006787Y013633D01*
X006787Y013650D02*
X006735Y013650D01*
X006735Y013667D02*
X006787Y013667D01*
X006787Y013684D02*
X006735Y013684D01*
X006735Y013701D02*
X006787Y013701D01*
X006787Y013718D02*
X006735Y013718D01*
X006735Y013735D02*
X006787Y013735D01*
X006787Y013752D02*
X006735Y013752D01*
X006735Y013769D02*
X006787Y013769D01*
X006787Y013786D02*
X006735Y013786D01*
X006735Y013803D02*
X006787Y013803D01*
X006787Y013820D02*
X006735Y013820D01*
X006735Y013837D02*
X006787Y013837D01*
X006787Y013854D02*
X006735Y013854D01*
X006945Y013867D02*
X006945Y013225D01*
X006893Y013225D01*
X006893Y013867D01*
X006945Y013867D01*
X006945Y013242D02*
X006893Y013242D01*
X006893Y013259D02*
X006945Y013259D01*
X006945Y013276D02*
X006893Y013276D01*
X006893Y013293D02*
X006945Y013293D01*
X006945Y013310D02*
X006893Y013310D01*
X006893Y013327D02*
X006945Y013327D01*
X006945Y013344D02*
X006893Y013344D01*
X006893Y013361D02*
X006945Y013361D01*
X006945Y013378D02*
X006893Y013378D01*
X006893Y013395D02*
X006945Y013395D01*
X006945Y013412D02*
X006893Y013412D01*
X006893Y013429D02*
X006945Y013429D01*
X006945Y013446D02*
X006893Y013446D01*
X006893Y013463D02*
X006945Y013463D01*
X006945Y013480D02*
X006893Y013480D01*
X006893Y013497D02*
X006945Y013497D01*
X006945Y013514D02*
X006893Y013514D01*
X006893Y013531D02*
X006945Y013531D01*
X006945Y013548D02*
X006893Y013548D01*
X006893Y013565D02*
X006945Y013565D01*
X006945Y013582D02*
X006893Y013582D01*
X006893Y013599D02*
X006945Y013599D01*
X006945Y013616D02*
X006893Y013616D01*
X006893Y013633D02*
X006945Y013633D01*
X006945Y013650D02*
X006893Y013650D01*
X006893Y013667D02*
X006945Y013667D01*
X006945Y013684D02*
X006893Y013684D01*
X006893Y013701D02*
X006945Y013701D01*
X006945Y013718D02*
X006893Y013718D01*
X006893Y013735D02*
X006945Y013735D01*
X006945Y013752D02*
X006893Y013752D01*
X006893Y013769D02*
X006945Y013769D01*
X006945Y013786D02*
X006893Y013786D01*
X006893Y013803D02*
X006945Y013803D01*
X006945Y013820D02*
X006893Y013820D01*
X006893Y013837D02*
X006945Y013837D01*
X006945Y013854D02*
X006893Y013854D01*
X007102Y013867D02*
X007102Y013225D01*
X007050Y013225D01*
X007050Y013867D01*
X007102Y013867D01*
X007102Y013242D02*
X007050Y013242D01*
X007050Y013259D02*
X007102Y013259D01*
X007102Y013276D02*
X007050Y013276D01*
X007050Y013293D02*
X007102Y013293D01*
X007102Y013310D02*
X007050Y013310D01*
X007050Y013327D02*
X007102Y013327D01*
X007102Y013344D02*
X007050Y013344D01*
X007050Y013361D02*
X007102Y013361D01*
X007102Y013378D02*
X007050Y013378D01*
X007050Y013395D02*
X007102Y013395D01*
X007102Y013412D02*
X007050Y013412D01*
X007050Y013429D02*
X007102Y013429D01*
X007102Y013446D02*
X007050Y013446D01*
X007050Y013463D02*
X007102Y013463D01*
X007102Y013480D02*
X007050Y013480D01*
X007050Y013497D02*
X007102Y013497D01*
X007102Y013514D02*
X007050Y013514D01*
X007050Y013531D02*
X007102Y013531D01*
X007102Y013548D02*
X007050Y013548D01*
X007050Y013565D02*
X007102Y013565D01*
X007102Y013582D02*
X007050Y013582D01*
X007050Y013599D02*
X007102Y013599D01*
X007102Y013616D02*
X007050Y013616D01*
X007050Y013633D02*
X007102Y013633D01*
X007102Y013650D02*
X007050Y013650D01*
X007050Y013667D02*
X007102Y013667D01*
X007102Y013684D02*
X007050Y013684D01*
X007050Y013701D02*
X007102Y013701D01*
X007102Y013718D02*
X007050Y013718D01*
X007050Y013735D02*
X007102Y013735D01*
X007102Y013752D02*
X007050Y013752D01*
X007050Y013769D02*
X007102Y013769D01*
X007102Y013786D02*
X007050Y013786D01*
X007050Y013803D02*
X007102Y013803D01*
X007102Y013820D02*
X007050Y013820D01*
X007050Y013837D02*
X007102Y013837D01*
X007102Y013854D02*
X007050Y013854D01*
X007102Y015485D02*
X007102Y016127D01*
X007102Y015485D02*
X007050Y015485D01*
X007050Y016127D01*
X007102Y016127D01*
X007102Y015502D02*
X007050Y015502D01*
X007050Y015519D02*
X007102Y015519D01*
X007102Y015536D02*
X007050Y015536D01*
X007050Y015553D02*
X007102Y015553D01*
X007102Y015570D02*
X007050Y015570D01*
X007050Y015587D02*
X007102Y015587D01*
X007102Y015604D02*
X007050Y015604D01*
X007050Y015621D02*
X007102Y015621D01*
X007102Y015638D02*
X007050Y015638D01*
X007050Y015655D02*
X007102Y015655D01*
X007102Y015672D02*
X007050Y015672D01*
X007050Y015689D02*
X007102Y015689D01*
X007102Y015706D02*
X007050Y015706D01*
X007050Y015723D02*
X007102Y015723D01*
X007102Y015740D02*
X007050Y015740D01*
X007050Y015757D02*
X007102Y015757D01*
X007102Y015774D02*
X007050Y015774D01*
X007050Y015791D02*
X007102Y015791D01*
X007102Y015808D02*
X007050Y015808D01*
X007050Y015825D02*
X007102Y015825D01*
X007102Y015842D02*
X007050Y015842D01*
X007050Y015859D02*
X007102Y015859D01*
X007102Y015876D02*
X007050Y015876D01*
X007050Y015893D02*
X007102Y015893D01*
X007102Y015910D02*
X007050Y015910D01*
X007050Y015927D02*
X007102Y015927D01*
X007102Y015944D02*
X007050Y015944D01*
X007050Y015961D02*
X007102Y015961D01*
X007102Y015978D02*
X007050Y015978D01*
X007050Y015995D02*
X007102Y015995D01*
X007102Y016012D02*
X007050Y016012D01*
X007050Y016029D02*
X007102Y016029D01*
X007102Y016046D02*
X007050Y016046D01*
X007050Y016063D02*
X007102Y016063D01*
X007102Y016080D02*
X007050Y016080D01*
X007050Y016097D02*
X007102Y016097D01*
X007102Y016114D02*
X007050Y016114D01*
X006945Y016127D02*
X006945Y015485D01*
X006893Y015485D01*
X006893Y016127D01*
X006945Y016127D01*
X006945Y015502D02*
X006893Y015502D01*
X006893Y015519D02*
X006945Y015519D01*
X006945Y015536D02*
X006893Y015536D01*
X006893Y015553D02*
X006945Y015553D01*
X006945Y015570D02*
X006893Y015570D01*
X006893Y015587D02*
X006945Y015587D01*
X006945Y015604D02*
X006893Y015604D01*
X006893Y015621D02*
X006945Y015621D01*
X006945Y015638D02*
X006893Y015638D01*
X006893Y015655D02*
X006945Y015655D01*
X006945Y015672D02*
X006893Y015672D01*
X006893Y015689D02*
X006945Y015689D01*
X006945Y015706D02*
X006893Y015706D01*
X006893Y015723D02*
X006945Y015723D01*
X006945Y015740D02*
X006893Y015740D01*
X006893Y015757D02*
X006945Y015757D01*
X006945Y015774D02*
X006893Y015774D01*
X006893Y015791D02*
X006945Y015791D01*
X006945Y015808D02*
X006893Y015808D01*
X006893Y015825D02*
X006945Y015825D01*
X006945Y015842D02*
X006893Y015842D01*
X006893Y015859D02*
X006945Y015859D01*
X006945Y015876D02*
X006893Y015876D01*
X006893Y015893D02*
X006945Y015893D01*
X006945Y015910D02*
X006893Y015910D01*
X006893Y015927D02*
X006945Y015927D01*
X006945Y015944D02*
X006893Y015944D01*
X006893Y015961D02*
X006945Y015961D01*
X006945Y015978D02*
X006893Y015978D01*
X006893Y015995D02*
X006945Y015995D01*
X006945Y016012D02*
X006893Y016012D01*
X006893Y016029D02*
X006945Y016029D01*
X006945Y016046D02*
X006893Y016046D01*
X006893Y016063D02*
X006945Y016063D01*
X006945Y016080D02*
X006893Y016080D01*
X006893Y016097D02*
X006945Y016097D01*
X006945Y016114D02*
X006893Y016114D01*
X006787Y016127D02*
X006787Y015485D01*
X006735Y015485D01*
X006735Y016127D01*
X006787Y016127D01*
X006787Y015502D02*
X006735Y015502D01*
X006735Y015519D02*
X006787Y015519D01*
X006787Y015536D02*
X006735Y015536D01*
X006735Y015553D02*
X006787Y015553D01*
X006787Y015570D02*
X006735Y015570D01*
X006735Y015587D02*
X006787Y015587D01*
X006787Y015604D02*
X006735Y015604D01*
X006735Y015621D02*
X006787Y015621D01*
X006787Y015638D02*
X006735Y015638D01*
X006735Y015655D02*
X006787Y015655D01*
X006787Y015672D02*
X006735Y015672D01*
X006735Y015689D02*
X006787Y015689D01*
X006787Y015706D02*
X006735Y015706D01*
X006735Y015723D02*
X006787Y015723D01*
X006787Y015740D02*
X006735Y015740D01*
X006735Y015757D02*
X006787Y015757D01*
X006787Y015774D02*
X006735Y015774D01*
X006735Y015791D02*
X006787Y015791D01*
X006787Y015808D02*
X006735Y015808D01*
X006735Y015825D02*
X006787Y015825D01*
X006787Y015842D02*
X006735Y015842D01*
X006735Y015859D02*
X006787Y015859D01*
X006787Y015876D02*
X006735Y015876D01*
X006735Y015893D02*
X006787Y015893D01*
X006787Y015910D02*
X006735Y015910D01*
X006735Y015927D02*
X006787Y015927D01*
X006787Y015944D02*
X006735Y015944D01*
X006735Y015961D02*
X006787Y015961D01*
X006787Y015978D02*
X006735Y015978D01*
X006735Y015995D02*
X006787Y015995D01*
X006787Y016012D02*
X006735Y016012D01*
X006735Y016029D02*
X006787Y016029D01*
X006787Y016046D02*
X006735Y016046D01*
X006735Y016063D02*
X006787Y016063D01*
X006787Y016080D02*
X006735Y016080D01*
X006735Y016097D02*
X006787Y016097D01*
X006787Y016114D02*
X006735Y016114D01*
X006630Y016127D02*
X006630Y015485D01*
X006578Y015485D01*
X006578Y016127D01*
X006630Y016127D01*
X006630Y015502D02*
X006578Y015502D01*
X006578Y015519D02*
X006630Y015519D01*
X006630Y015536D02*
X006578Y015536D01*
X006578Y015553D02*
X006630Y015553D01*
X006630Y015570D02*
X006578Y015570D01*
X006578Y015587D02*
X006630Y015587D01*
X006630Y015604D02*
X006578Y015604D01*
X006578Y015621D02*
X006630Y015621D01*
X006630Y015638D02*
X006578Y015638D01*
X006578Y015655D02*
X006630Y015655D01*
X006630Y015672D02*
X006578Y015672D01*
X006578Y015689D02*
X006630Y015689D01*
X006630Y015706D02*
X006578Y015706D01*
X006578Y015723D02*
X006630Y015723D01*
X006630Y015740D02*
X006578Y015740D01*
X006578Y015757D02*
X006630Y015757D01*
X006630Y015774D02*
X006578Y015774D01*
X006578Y015791D02*
X006630Y015791D01*
X006630Y015808D02*
X006578Y015808D01*
X006578Y015825D02*
X006630Y015825D01*
X006630Y015842D02*
X006578Y015842D01*
X006578Y015859D02*
X006630Y015859D01*
X006630Y015876D02*
X006578Y015876D01*
X006578Y015893D02*
X006630Y015893D01*
X006630Y015910D02*
X006578Y015910D01*
X006578Y015927D02*
X006630Y015927D01*
X006630Y015944D02*
X006578Y015944D01*
X006578Y015961D02*
X006630Y015961D01*
X006630Y015978D02*
X006578Y015978D01*
X006578Y015995D02*
X006630Y015995D01*
X006630Y016012D02*
X006578Y016012D01*
X006578Y016029D02*
X006630Y016029D01*
X006630Y016046D02*
X006578Y016046D01*
X006578Y016063D02*
X006630Y016063D01*
X006630Y016080D02*
X006578Y016080D01*
X006578Y016097D02*
X006630Y016097D01*
X006630Y016114D02*
X006578Y016114D01*
X006472Y016127D02*
X006472Y015485D01*
X006420Y015485D01*
X006420Y016127D01*
X006472Y016127D01*
X006472Y015502D02*
X006420Y015502D01*
X006420Y015519D02*
X006472Y015519D01*
X006472Y015536D02*
X006420Y015536D01*
X006420Y015553D02*
X006472Y015553D01*
X006472Y015570D02*
X006420Y015570D01*
X006420Y015587D02*
X006472Y015587D01*
X006472Y015604D02*
X006420Y015604D01*
X006420Y015621D02*
X006472Y015621D01*
X006472Y015638D02*
X006420Y015638D01*
X006420Y015655D02*
X006472Y015655D01*
X006472Y015672D02*
X006420Y015672D01*
X006420Y015689D02*
X006472Y015689D01*
X006472Y015706D02*
X006420Y015706D01*
X006420Y015723D02*
X006472Y015723D01*
X006472Y015740D02*
X006420Y015740D01*
X006420Y015757D02*
X006472Y015757D01*
X006472Y015774D02*
X006420Y015774D01*
X006420Y015791D02*
X006472Y015791D01*
X006472Y015808D02*
X006420Y015808D01*
X006420Y015825D02*
X006472Y015825D01*
X006472Y015842D02*
X006420Y015842D01*
X006420Y015859D02*
X006472Y015859D01*
X006472Y015876D02*
X006420Y015876D01*
X006420Y015893D02*
X006472Y015893D01*
X006472Y015910D02*
X006420Y015910D01*
X006420Y015927D02*
X006472Y015927D01*
X006472Y015944D02*
X006420Y015944D01*
X006420Y015961D02*
X006472Y015961D01*
X006472Y015978D02*
X006420Y015978D01*
X006420Y015995D02*
X006472Y015995D01*
X006472Y016012D02*
X006420Y016012D01*
X006420Y016029D02*
X006472Y016029D01*
X006472Y016046D02*
X006420Y016046D01*
X006420Y016063D02*
X006472Y016063D01*
X006472Y016080D02*
X006420Y016080D01*
X006420Y016097D02*
X006472Y016097D01*
X006472Y016114D02*
X006420Y016114D01*
X006315Y016127D02*
X006315Y015485D01*
X006263Y015485D01*
X006263Y016127D01*
X006315Y016127D01*
X006315Y015502D02*
X006263Y015502D01*
X006263Y015519D02*
X006315Y015519D01*
X006315Y015536D02*
X006263Y015536D01*
X006263Y015553D02*
X006315Y015553D01*
X006315Y015570D02*
X006263Y015570D01*
X006263Y015587D02*
X006315Y015587D01*
X006315Y015604D02*
X006263Y015604D01*
X006263Y015621D02*
X006315Y015621D01*
X006315Y015638D02*
X006263Y015638D01*
X006263Y015655D02*
X006315Y015655D01*
X006315Y015672D02*
X006263Y015672D01*
X006263Y015689D02*
X006315Y015689D01*
X006315Y015706D02*
X006263Y015706D01*
X006263Y015723D02*
X006315Y015723D01*
X006315Y015740D02*
X006263Y015740D01*
X006263Y015757D02*
X006315Y015757D01*
X006315Y015774D02*
X006263Y015774D01*
X006263Y015791D02*
X006315Y015791D01*
X006315Y015808D02*
X006263Y015808D01*
X006263Y015825D02*
X006315Y015825D01*
X006315Y015842D02*
X006263Y015842D01*
X006263Y015859D02*
X006315Y015859D01*
X006315Y015876D02*
X006263Y015876D01*
X006263Y015893D02*
X006315Y015893D01*
X006315Y015910D02*
X006263Y015910D01*
X006263Y015927D02*
X006315Y015927D01*
X006315Y015944D02*
X006263Y015944D01*
X006263Y015961D02*
X006315Y015961D01*
X006315Y015978D02*
X006263Y015978D01*
X006263Y015995D02*
X006315Y015995D01*
X006315Y016012D02*
X006263Y016012D01*
X006263Y016029D02*
X006315Y016029D01*
X006315Y016046D02*
X006263Y016046D01*
X006263Y016063D02*
X006315Y016063D01*
X006315Y016080D02*
X006263Y016080D01*
X006263Y016097D02*
X006315Y016097D01*
X006315Y016114D02*
X006263Y016114D01*
X006157Y016127D02*
X006157Y015485D01*
X006105Y015485D01*
X006105Y016127D01*
X006157Y016127D01*
X006157Y015502D02*
X006105Y015502D01*
X006105Y015519D02*
X006157Y015519D01*
X006157Y015536D02*
X006105Y015536D01*
X006105Y015553D02*
X006157Y015553D01*
X006157Y015570D02*
X006105Y015570D01*
X006105Y015587D02*
X006157Y015587D01*
X006157Y015604D02*
X006105Y015604D01*
X006105Y015621D02*
X006157Y015621D01*
X006157Y015638D02*
X006105Y015638D01*
X006105Y015655D02*
X006157Y015655D01*
X006157Y015672D02*
X006105Y015672D01*
X006105Y015689D02*
X006157Y015689D01*
X006157Y015706D02*
X006105Y015706D01*
X006105Y015723D02*
X006157Y015723D01*
X006157Y015740D02*
X006105Y015740D01*
X006105Y015757D02*
X006157Y015757D01*
X006157Y015774D02*
X006105Y015774D01*
X006105Y015791D02*
X006157Y015791D01*
X006157Y015808D02*
X006105Y015808D01*
X006105Y015825D02*
X006157Y015825D01*
X006157Y015842D02*
X006105Y015842D01*
X006105Y015859D02*
X006157Y015859D01*
X006157Y015876D02*
X006105Y015876D01*
X006105Y015893D02*
X006157Y015893D01*
X006157Y015910D02*
X006105Y015910D01*
X006105Y015927D02*
X006157Y015927D01*
X006157Y015944D02*
X006105Y015944D01*
X006105Y015961D02*
X006157Y015961D01*
X006157Y015978D02*
X006105Y015978D01*
X006105Y015995D02*
X006157Y015995D01*
X006157Y016012D02*
X006105Y016012D01*
X006105Y016029D02*
X006157Y016029D01*
X006157Y016046D02*
X006105Y016046D01*
X006105Y016063D02*
X006157Y016063D01*
X006157Y016080D02*
X006105Y016080D01*
X006105Y016097D02*
X006157Y016097D01*
X006157Y016114D02*
X006105Y016114D01*
X006000Y016127D02*
X006000Y015485D01*
X005948Y015485D01*
X005948Y016127D01*
X006000Y016127D01*
X006000Y015502D02*
X005948Y015502D01*
X005948Y015519D02*
X006000Y015519D01*
X006000Y015536D02*
X005948Y015536D01*
X005948Y015553D02*
X006000Y015553D01*
X006000Y015570D02*
X005948Y015570D01*
X005948Y015587D02*
X006000Y015587D01*
X006000Y015604D02*
X005948Y015604D01*
X005948Y015621D02*
X006000Y015621D01*
X006000Y015638D02*
X005948Y015638D01*
X005948Y015655D02*
X006000Y015655D01*
X006000Y015672D02*
X005948Y015672D01*
X005948Y015689D02*
X006000Y015689D01*
X006000Y015706D02*
X005948Y015706D01*
X005948Y015723D02*
X006000Y015723D01*
X006000Y015740D02*
X005948Y015740D01*
X005948Y015757D02*
X006000Y015757D01*
X006000Y015774D02*
X005948Y015774D01*
X005948Y015791D02*
X006000Y015791D01*
X006000Y015808D02*
X005948Y015808D01*
X005948Y015825D02*
X006000Y015825D01*
X006000Y015842D02*
X005948Y015842D01*
X005948Y015859D02*
X006000Y015859D01*
X006000Y015876D02*
X005948Y015876D01*
X005948Y015893D02*
X006000Y015893D01*
X006000Y015910D02*
X005948Y015910D01*
X005948Y015927D02*
X006000Y015927D01*
X006000Y015944D02*
X005948Y015944D01*
X005948Y015961D02*
X006000Y015961D01*
X006000Y015978D02*
X005948Y015978D01*
X005948Y015995D02*
X006000Y015995D01*
X006000Y016012D02*
X005948Y016012D01*
X005948Y016029D02*
X006000Y016029D01*
X006000Y016046D02*
X005948Y016046D01*
X005948Y016063D02*
X006000Y016063D01*
X006000Y016080D02*
X005948Y016080D01*
X005948Y016097D02*
X006000Y016097D01*
X006000Y016114D02*
X005948Y016114D01*
X005842Y016127D02*
X005842Y015485D01*
X005790Y015485D01*
X005790Y016127D01*
X005842Y016127D01*
X005842Y015502D02*
X005790Y015502D01*
X005790Y015519D02*
X005842Y015519D01*
X005842Y015536D02*
X005790Y015536D01*
X005790Y015553D02*
X005842Y015553D01*
X005842Y015570D02*
X005790Y015570D01*
X005790Y015587D02*
X005842Y015587D01*
X005842Y015604D02*
X005790Y015604D01*
X005790Y015621D02*
X005842Y015621D01*
X005842Y015638D02*
X005790Y015638D01*
X005790Y015655D02*
X005842Y015655D01*
X005842Y015672D02*
X005790Y015672D01*
X005790Y015689D02*
X005842Y015689D01*
X005842Y015706D02*
X005790Y015706D01*
X005790Y015723D02*
X005842Y015723D01*
X005842Y015740D02*
X005790Y015740D01*
X005790Y015757D02*
X005842Y015757D01*
X005842Y015774D02*
X005790Y015774D01*
X005790Y015791D02*
X005842Y015791D01*
X005842Y015808D02*
X005790Y015808D01*
X005790Y015825D02*
X005842Y015825D01*
X005842Y015842D02*
X005790Y015842D01*
X005790Y015859D02*
X005842Y015859D01*
X005842Y015876D02*
X005790Y015876D01*
X005790Y015893D02*
X005842Y015893D01*
X005842Y015910D02*
X005790Y015910D01*
X005790Y015927D02*
X005842Y015927D01*
X005842Y015944D02*
X005790Y015944D01*
X005790Y015961D02*
X005842Y015961D01*
X005842Y015978D02*
X005790Y015978D01*
X005790Y015995D02*
X005842Y015995D01*
X005842Y016012D02*
X005790Y016012D01*
X005790Y016029D02*
X005842Y016029D01*
X005842Y016046D02*
X005790Y016046D01*
X005790Y016063D02*
X005842Y016063D01*
X005842Y016080D02*
X005790Y016080D01*
X005790Y016097D02*
X005842Y016097D01*
X005842Y016114D02*
X005790Y016114D01*
X005685Y016127D02*
X005685Y015485D01*
X005633Y015485D01*
X005633Y016127D01*
X005685Y016127D01*
X005685Y015502D02*
X005633Y015502D01*
X005633Y015519D02*
X005685Y015519D01*
X005685Y015536D02*
X005633Y015536D01*
X005633Y015553D02*
X005685Y015553D01*
X005685Y015570D02*
X005633Y015570D01*
X005633Y015587D02*
X005685Y015587D01*
X005685Y015604D02*
X005633Y015604D01*
X005633Y015621D02*
X005685Y015621D01*
X005685Y015638D02*
X005633Y015638D01*
X005633Y015655D02*
X005685Y015655D01*
X005685Y015672D02*
X005633Y015672D01*
X005633Y015689D02*
X005685Y015689D01*
X005685Y015706D02*
X005633Y015706D01*
X005633Y015723D02*
X005685Y015723D01*
X005685Y015740D02*
X005633Y015740D01*
X005633Y015757D02*
X005685Y015757D01*
X005685Y015774D02*
X005633Y015774D01*
X005633Y015791D02*
X005685Y015791D01*
X005685Y015808D02*
X005633Y015808D01*
X005633Y015825D02*
X005685Y015825D01*
X005685Y015842D02*
X005633Y015842D01*
X005633Y015859D02*
X005685Y015859D01*
X005685Y015876D02*
X005633Y015876D01*
X005633Y015893D02*
X005685Y015893D01*
X005685Y015910D02*
X005633Y015910D01*
X005633Y015927D02*
X005685Y015927D01*
X005685Y015944D02*
X005633Y015944D01*
X005633Y015961D02*
X005685Y015961D01*
X005685Y015978D02*
X005633Y015978D01*
X005633Y015995D02*
X005685Y015995D01*
X005685Y016012D02*
X005633Y016012D01*
X005633Y016029D02*
X005685Y016029D01*
X005685Y016046D02*
X005633Y016046D01*
X005633Y016063D02*
X005685Y016063D01*
X005685Y016080D02*
X005633Y016080D01*
X005633Y016097D02*
X005685Y016097D01*
X005685Y016114D02*
X005633Y016114D01*
X005527Y016127D02*
X005527Y015485D01*
X005475Y015485D01*
X005475Y016127D01*
X005527Y016127D01*
X005527Y015502D02*
X005475Y015502D01*
X005475Y015519D02*
X005527Y015519D01*
X005527Y015536D02*
X005475Y015536D01*
X005475Y015553D02*
X005527Y015553D01*
X005527Y015570D02*
X005475Y015570D01*
X005475Y015587D02*
X005527Y015587D01*
X005527Y015604D02*
X005475Y015604D01*
X005475Y015621D02*
X005527Y015621D01*
X005527Y015638D02*
X005475Y015638D01*
X005475Y015655D02*
X005527Y015655D01*
X005527Y015672D02*
X005475Y015672D01*
X005475Y015689D02*
X005527Y015689D01*
X005527Y015706D02*
X005475Y015706D01*
X005475Y015723D02*
X005527Y015723D01*
X005527Y015740D02*
X005475Y015740D01*
X005475Y015757D02*
X005527Y015757D01*
X005527Y015774D02*
X005475Y015774D01*
X005475Y015791D02*
X005527Y015791D01*
X005527Y015808D02*
X005475Y015808D01*
X005475Y015825D02*
X005527Y015825D01*
X005527Y015842D02*
X005475Y015842D01*
X005475Y015859D02*
X005527Y015859D01*
X005527Y015876D02*
X005475Y015876D01*
X005475Y015893D02*
X005527Y015893D01*
X005527Y015910D02*
X005475Y015910D01*
X005475Y015927D02*
X005527Y015927D01*
X005527Y015944D02*
X005475Y015944D01*
X005475Y015961D02*
X005527Y015961D01*
X005527Y015978D02*
X005475Y015978D01*
X005475Y015995D02*
X005527Y015995D01*
X005527Y016012D02*
X005475Y016012D01*
X005475Y016029D02*
X005527Y016029D01*
X005527Y016046D02*
X005475Y016046D01*
X005475Y016063D02*
X005527Y016063D01*
X005527Y016080D02*
X005475Y016080D01*
X005475Y016097D02*
X005527Y016097D01*
X005527Y016114D02*
X005475Y016114D01*
X005370Y016127D02*
X005370Y015485D01*
X005318Y015485D01*
X005318Y016127D01*
X005370Y016127D01*
X005370Y015502D02*
X005318Y015502D01*
X005318Y015519D02*
X005370Y015519D01*
X005370Y015536D02*
X005318Y015536D01*
X005318Y015553D02*
X005370Y015553D01*
X005370Y015570D02*
X005318Y015570D01*
X005318Y015587D02*
X005370Y015587D01*
X005370Y015604D02*
X005318Y015604D01*
X005318Y015621D02*
X005370Y015621D01*
X005370Y015638D02*
X005318Y015638D01*
X005318Y015655D02*
X005370Y015655D01*
X005370Y015672D02*
X005318Y015672D01*
X005318Y015689D02*
X005370Y015689D01*
X005370Y015706D02*
X005318Y015706D01*
X005318Y015723D02*
X005370Y015723D01*
X005370Y015740D02*
X005318Y015740D01*
X005318Y015757D02*
X005370Y015757D01*
X005370Y015774D02*
X005318Y015774D01*
X005318Y015791D02*
X005370Y015791D01*
X005370Y015808D02*
X005318Y015808D01*
X005318Y015825D02*
X005370Y015825D01*
X005370Y015842D02*
X005318Y015842D01*
X005318Y015859D02*
X005370Y015859D01*
X005370Y015876D02*
X005318Y015876D01*
X005318Y015893D02*
X005370Y015893D01*
X005370Y015910D02*
X005318Y015910D01*
X005318Y015927D02*
X005370Y015927D01*
X005370Y015944D02*
X005318Y015944D01*
X005318Y015961D02*
X005370Y015961D01*
X005370Y015978D02*
X005318Y015978D01*
X005318Y015995D02*
X005370Y015995D01*
X005370Y016012D02*
X005318Y016012D01*
X005318Y016029D02*
X005370Y016029D01*
X005370Y016046D02*
X005318Y016046D01*
X005318Y016063D02*
X005370Y016063D01*
X005370Y016080D02*
X005318Y016080D01*
X005318Y016097D02*
X005370Y016097D01*
X005370Y016114D02*
X005318Y016114D01*
X005212Y016127D02*
X005212Y015485D01*
X005160Y015485D01*
X005160Y016127D01*
X005212Y016127D01*
X005212Y015502D02*
X005160Y015502D01*
X005160Y015519D02*
X005212Y015519D01*
X005212Y015536D02*
X005160Y015536D01*
X005160Y015553D02*
X005212Y015553D01*
X005212Y015570D02*
X005160Y015570D01*
X005160Y015587D02*
X005212Y015587D01*
X005212Y015604D02*
X005160Y015604D01*
X005160Y015621D02*
X005212Y015621D01*
X005212Y015638D02*
X005160Y015638D01*
X005160Y015655D02*
X005212Y015655D01*
X005212Y015672D02*
X005160Y015672D01*
X005160Y015689D02*
X005212Y015689D01*
X005212Y015706D02*
X005160Y015706D01*
X005160Y015723D02*
X005212Y015723D01*
X005212Y015740D02*
X005160Y015740D01*
X005160Y015757D02*
X005212Y015757D01*
X005212Y015774D02*
X005160Y015774D01*
X005160Y015791D02*
X005212Y015791D01*
X005212Y015808D02*
X005160Y015808D01*
X005160Y015825D02*
X005212Y015825D01*
X005212Y015842D02*
X005160Y015842D01*
X005160Y015859D02*
X005212Y015859D01*
X005212Y015876D02*
X005160Y015876D01*
X005160Y015893D02*
X005212Y015893D01*
X005212Y015910D02*
X005160Y015910D01*
X005160Y015927D02*
X005212Y015927D01*
X005212Y015944D02*
X005160Y015944D01*
X005160Y015961D02*
X005212Y015961D01*
X005212Y015978D02*
X005160Y015978D01*
X005160Y015995D02*
X005212Y015995D01*
X005212Y016012D02*
X005160Y016012D01*
X005160Y016029D02*
X005212Y016029D01*
X005212Y016046D02*
X005160Y016046D01*
X005160Y016063D02*
X005212Y016063D01*
X005212Y016080D02*
X005160Y016080D01*
X005160Y016097D02*
X005212Y016097D01*
X005212Y016114D02*
X005160Y016114D01*
X005055Y016127D02*
X005055Y015485D01*
X005003Y015485D01*
X005003Y016127D01*
X005055Y016127D01*
X005055Y015502D02*
X005003Y015502D01*
X005003Y015519D02*
X005055Y015519D01*
X005055Y015536D02*
X005003Y015536D01*
X005003Y015553D02*
X005055Y015553D01*
X005055Y015570D02*
X005003Y015570D01*
X005003Y015587D02*
X005055Y015587D01*
X005055Y015604D02*
X005003Y015604D01*
X005003Y015621D02*
X005055Y015621D01*
X005055Y015638D02*
X005003Y015638D01*
X005003Y015655D02*
X005055Y015655D01*
X005055Y015672D02*
X005003Y015672D01*
X005003Y015689D02*
X005055Y015689D01*
X005055Y015706D02*
X005003Y015706D01*
X005003Y015723D02*
X005055Y015723D01*
X005055Y015740D02*
X005003Y015740D01*
X005003Y015757D02*
X005055Y015757D01*
X005055Y015774D02*
X005003Y015774D01*
X005003Y015791D02*
X005055Y015791D01*
X005055Y015808D02*
X005003Y015808D01*
X005003Y015825D02*
X005055Y015825D01*
X005055Y015842D02*
X005003Y015842D01*
X005003Y015859D02*
X005055Y015859D01*
X005055Y015876D02*
X005003Y015876D01*
X005003Y015893D02*
X005055Y015893D01*
X005055Y015910D02*
X005003Y015910D01*
X005003Y015927D02*
X005055Y015927D01*
X005055Y015944D02*
X005003Y015944D01*
X005003Y015961D02*
X005055Y015961D01*
X005055Y015978D02*
X005003Y015978D01*
X005003Y015995D02*
X005055Y015995D01*
X005055Y016012D02*
X005003Y016012D01*
X005003Y016029D02*
X005055Y016029D01*
X005055Y016046D02*
X005003Y016046D01*
X005003Y016063D02*
X005055Y016063D01*
X005055Y016080D02*
X005003Y016080D01*
X005003Y016097D02*
X005055Y016097D01*
X005055Y016114D02*
X005003Y016114D01*
X004897Y016127D02*
X004897Y015485D01*
X004845Y015485D01*
X004845Y016127D01*
X004897Y016127D01*
X004897Y015502D02*
X004845Y015502D01*
X004845Y015519D02*
X004897Y015519D01*
X004897Y015536D02*
X004845Y015536D01*
X004845Y015553D02*
X004897Y015553D01*
X004897Y015570D02*
X004845Y015570D01*
X004845Y015587D02*
X004897Y015587D01*
X004897Y015604D02*
X004845Y015604D01*
X004845Y015621D02*
X004897Y015621D01*
X004897Y015638D02*
X004845Y015638D01*
X004845Y015655D02*
X004897Y015655D01*
X004897Y015672D02*
X004845Y015672D01*
X004845Y015689D02*
X004897Y015689D01*
X004897Y015706D02*
X004845Y015706D01*
X004845Y015723D02*
X004897Y015723D01*
X004897Y015740D02*
X004845Y015740D01*
X004845Y015757D02*
X004897Y015757D01*
X004897Y015774D02*
X004845Y015774D01*
X004845Y015791D02*
X004897Y015791D01*
X004897Y015808D02*
X004845Y015808D01*
X004845Y015825D02*
X004897Y015825D01*
X004897Y015842D02*
X004845Y015842D01*
X004845Y015859D02*
X004897Y015859D01*
X004897Y015876D02*
X004845Y015876D01*
X004845Y015893D02*
X004897Y015893D01*
X004897Y015910D02*
X004845Y015910D01*
X004845Y015927D02*
X004897Y015927D01*
X004897Y015944D02*
X004845Y015944D01*
X004845Y015961D02*
X004897Y015961D01*
X004897Y015978D02*
X004845Y015978D01*
X004845Y015995D02*
X004897Y015995D01*
X004897Y016012D02*
X004845Y016012D01*
X004845Y016029D02*
X004897Y016029D01*
X004897Y016046D02*
X004845Y016046D01*
X004845Y016063D02*
X004897Y016063D01*
X004897Y016080D02*
X004845Y016080D01*
X004845Y016097D02*
X004897Y016097D01*
X004897Y016114D02*
X004845Y016114D01*
X004740Y016127D02*
X004740Y015485D01*
X004688Y015485D01*
X004688Y016127D01*
X004740Y016127D01*
X004740Y015502D02*
X004688Y015502D01*
X004688Y015519D02*
X004740Y015519D01*
X004740Y015536D02*
X004688Y015536D01*
X004688Y015553D02*
X004740Y015553D01*
X004740Y015570D02*
X004688Y015570D01*
X004688Y015587D02*
X004740Y015587D01*
X004740Y015604D02*
X004688Y015604D01*
X004688Y015621D02*
X004740Y015621D01*
X004740Y015638D02*
X004688Y015638D01*
X004688Y015655D02*
X004740Y015655D01*
X004740Y015672D02*
X004688Y015672D01*
X004688Y015689D02*
X004740Y015689D01*
X004740Y015706D02*
X004688Y015706D01*
X004688Y015723D02*
X004740Y015723D01*
X004740Y015740D02*
X004688Y015740D01*
X004688Y015757D02*
X004740Y015757D01*
X004740Y015774D02*
X004688Y015774D01*
X004688Y015791D02*
X004740Y015791D01*
X004740Y015808D02*
X004688Y015808D01*
X004688Y015825D02*
X004740Y015825D01*
X004740Y015842D02*
X004688Y015842D01*
X004688Y015859D02*
X004740Y015859D01*
X004740Y015876D02*
X004688Y015876D01*
X004688Y015893D02*
X004740Y015893D01*
X004740Y015910D02*
X004688Y015910D01*
X004688Y015927D02*
X004740Y015927D01*
X004740Y015944D02*
X004688Y015944D01*
X004688Y015961D02*
X004740Y015961D01*
X004740Y015978D02*
X004688Y015978D01*
X004688Y015995D02*
X004740Y015995D01*
X004740Y016012D02*
X004688Y016012D01*
X004688Y016029D02*
X004740Y016029D01*
X004740Y016046D02*
X004688Y016046D01*
X004688Y016063D02*
X004740Y016063D01*
X004740Y016080D02*
X004688Y016080D01*
X004688Y016097D02*
X004740Y016097D01*
X004740Y016114D02*
X004688Y016114D01*
X004582Y016127D02*
X004582Y015485D01*
X004530Y015485D01*
X004530Y016127D01*
X004582Y016127D01*
X004582Y015502D02*
X004530Y015502D01*
X004530Y015519D02*
X004582Y015519D01*
X004582Y015536D02*
X004530Y015536D01*
X004530Y015553D02*
X004582Y015553D01*
X004582Y015570D02*
X004530Y015570D01*
X004530Y015587D02*
X004582Y015587D01*
X004582Y015604D02*
X004530Y015604D01*
X004530Y015621D02*
X004582Y015621D01*
X004582Y015638D02*
X004530Y015638D01*
X004530Y015655D02*
X004582Y015655D01*
X004582Y015672D02*
X004530Y015672D01*
X004530Y015689D02*
X004582Y015689D01*
X004582Y015706D02*
X004530Y015706D01*
X004530Y015723D02*
X004582Y015723D01*
X004582Y015740D02*
X004530Y015740D01*
X004530Y015757D02*
X004582Y015757D01*
X004582Y015774D02*
X004530Y015774D01*
X004530Y015791D02*
X004582Y015791D01*
X004582Y015808D02*
X004530Y015808D01*
X004530Y015825D02*
X004582Y015825D01*
X004582Y015842D02*
X004530Y015842D01*
X004530Y015859D02*
X004582Y015859D01*
X004582Y015876D02*
X004530Y015876D01*
X004530Y015893D02*
X004582Y015893D01*
X004582Y015910D02*
X004530Y015910D01*
X004530Y015927D02*
X004582Y015927D01*
X004582Y015944D02*
X004530Y015944D01*
X004530Y015961D02*
X004582Y015961D01*
X004582Y015978D02*
X004530Y015978D01*
X004530Y015995D02*
X004582Y015995D01*
X004582Y016012D02*
X004530Y016012D01*
X004530Y016029D02*
X004582Y016029D01*
X004582Y016046D02*
X004530Y016046D01*
X004530Y016063D02*
X004582Y016063D01*
X004582Y016080D02*
X004530Y016080D01*
X004530Y016097D02*
X004582Y016097D01*
X004582Y016114D02*
X004530Y016114D01*
X004425Y016127D02*
X004425Y015485D01*
X004373Y015485D01*
X004373Y016127D01*
X004425Y016127D01*
X004425Y015502D02*
X004373Y015502D01*
X004373Y015519D02*
X004425Y015519D01*
X004425Y015536D02*
X004373Y015536D01*
X004373Y015553D02*
X004425Y015553D01*
X004425Y015570D02*
X004373Y015570D01*
X004373Y015587D02*
X004425Y015587D01*
X004425Y015604D02*
X004373Y015604D01*
X004373Y015621D02*
X004425Y015621D01*
X004425Y015638D02*
X004373Y015638D01*
X004373Y015655D02*
X004425Y015655D01*
X004425Y015672D02*
X004373Y015672D01*
X004373Y015689D02*
X004425Y015689D01*
X004425Y015706D02*
X004373Y015706D01*
X004373Y015723D02*
X004425Y015723D01*
X004425Y015740D02*
X004373Y015740D01*
X004373Y015757D02*
X004425Y015757D01*
X004425Y015774D02*
X004373Y015774D01*
X004373Y015791D02*
X004425Y015791D01*
X004425Y015808D02*
X004373Y015808D01*
X004373Y015825D02*
X004425Y015825D01*
X004425Y015842D02*
X004373Y015842D01*
X004373Y015859D02*
X004425Y015859D01*
X004425Y015876D02*
X004373Y015876D01*
X004373Y015893D02*
X004425Y015893D01*
X004425Y015910D02*
X004373Y015910D01*
X004373Y015927D02*
X004425Y015927D01*
X004425Y015944D02*
X004373Y015944D01*
X004373Y015961D02*
X004425Y015961D01*
X004425Y015978D02*
X004373Y015978D01*
X004373Y015995D02*
X004425Y015995D01*
X004425Y016012D02*
X004373Y016012D01*
X004373Y016029D02*
X004425Y016029D01*
X004425Y016046D02*
X004373Y016046D01*
X004373Y016063D02*
X004425Y016063D01*
X004425Y016080D02*
X004373Y016080D01*
X004373Y016097D02*
X004425Y016097D01*
X004425Y016114D02*
X004373Y016114D01*
X004267Y016127D02*
X004267Y015485D01*
X004215Y015485D01*
X004215Y016127D01*
X004267Y016127D01*
X004267Y015502D02*
X004215Y015502D01*
X004215Y015519D02*
X004267Y015519D01*
X004267Y015536D02*
X004215Y015536D01*
X004215Y015553D02*
X004267Y015553D01*
X004267Y015570D02*
X004215Y015570D01*
X004215Y015587D02*
X004267Y015587D01*
X004267Y015604D02*
X004215Y015604D01*
X004215Y015621D02*
X004267Y015621D01*
X004267Y015638D02*
X004215Y015638D01*
X004215Y015655D02*
X004267Y015655D01*
X004267Y015672D02*
X004215Y015672D01*
X004215Y015689D02*
X004267Y015689D01*
X004267Y015706D02*
X004215Y015706D01*
X004215Y015723D02*
X004267Y015723D01*
X004267Y015740D02*
X004215Y015740D01*
X004215Y015757D02*
X004267Y015757D01*
X004267Y015774D02*
X004215Y015774D01*
X004215Y015791D02*
X004267Y015791D01*
X004267Y015808D02*
X004215Y015808D01*
X004215Y015825D02*
X004267Y015825D01*
X004267Y015842D02*
X004215Y015842D01*
X004215Y015859D02*
X004267Y015859D01*
X004267Y015876D02*
X004215Y015876D01*
X004215Y015893D02*
X004267Y015893D01*
X004267Y015910D02*
X004215Y015910D01*
X004215Y015927D02*
X004267Y015927D01*
X004267Y015944D02*
X004215Y015944D01*
X004215Y015961D02*
X004267Y015961D01*
X004267Y015978D02*
X004215Y015978D01*
X004215Y015995D02*
X004267Y015995D01*
X004267Y016012D02*
X004215Y016012D01*
X004215Y016029D02*
X004267Y016029D01*
X004267Y016046D02*
X004215Y016046D01*
X004215Y016063D02*
X004267Y016063D01*
X004267Y016080D02*
X004215Y016080D01*
X004215Y016097D02*
X004267Y016097D01*
X004267Y016114D02*
X004215Y016114D01*
X004110Y016127D02*
X004110Y015485D01*
X004058Y015485D01*
X004058Y016127D01*
X004110Y016127D01*
X004110Y015502D02*
X004058Y015502D01*
X004058Y015519D02*
X004110Y015519D01*
X004110Y015536D02*
X004058Y015536D01*
X004058Y015553D02*
X004110Y015553D01*
X004110Y015570D02*
X004058Y015570D01*
X004058Y015587D02*
X004110Y015587D01*
X004110Y015604D02*
X004058Y015604D01*
X004058Y015621D02*
X004110Y015621D01*
X004110Y015638D02*
X004058Y015638D01*
X004058Y015655D02*
X004110Y015655D01*
X004110Y015672D02*
X004058Y015672D01*
X004058Y015689D02*
X004110Y015689D01*
X004110Y015706D02*
X004058Y015706D01*
X004058Y015723D02*
X004110Y015723D01*
X004110Y015740D02*
X004058Y015740D01*
X004058Y015757D02*
X004110Y015757D01*
X004110Y015774D02*
X004058Y015774D01*
X004058Y015791D02*
X004110Y015791D01*
X004110Y015808D02*
X004058Y015808D01*
X004058Y015825D02*
X004110Y015825D01*
X004110Y015842D02*
X004058Y015842D01*
X004058Y015859D02*
X004110Y015859D01*
X004110Y015876D02*
X004058Y015876D01*
X004058Y015893D02*
X004110Y015893D01*
X004110Y015910D02*
X004058Y015910D01*
X004058Y015927D02*
X004110Y015927D01*
X004110Y015944D02*
X004058Y015944D01*
X004058Y015961D02*
X004110Y015961D01*
X004110Y015978D02*
X004058Y015978D01*
X004058Y015995D02*
X004110Y015995D01*
X004110Y016012D02*
X004058Y016012D01*
X004058Y016029D02*
X004110Y016029D01*
X004110Y016046D02*
X004058Y016046D01*
X004058Y016063D02*
X004110Y016063D01*
X004110Y016080D02*
X004058Y016080D01*
X004058Y016097D02*
X004110Y016097D01*
X004110Y016114D02*
X004058Y016114D01*
X003952Y016127D02*
X003952Y015485D01*
X003900Y015485D01*
X003900Y016127D01*
X003952Y016127D01*
X003952Y015502D02*
X003900Y015502D01*
X003900Y015519D02*
X003952Y015519D01*
X003952Y015536D02*
X003900Y015536D01*
X003900Y015553D02*
X003952Y015553D01*
X003952Y015570D02*
X003900Y015570D01*
X003900Y015587D02*
X003952Y015587D01*
X003952Y015604D02*
X003900Y015604D01*
X003900Y015621D02*
X003952Y015621D01*
X003952Y015638D02*
X003900Y015638D01*
X003900Y015655D02*
X003952Y015655D01*
X003952Y015672D02*
X003900Y015672D01*
X003900Y015689D02*
X003952Y015689D01*
X003952Y015706D02*
X003900Y015706D01*
X003900Y015723D02*
X003952Y015723D01*
X003952Y015740D02*
X003900Y015740D01*
X003900Y015757D02*
X003952Y015757D01*
X003952Y015774D02*
X003900Y015774D01*
X003900Y015791D02*
X003952Y015791D01*
X003952Y015808D02*
X003900Y015808D01*
X003900Y015825D02*
X003952Y015825D01*
X003952Y015842D02*
X003900Y015842D01*
X003900Y015859D02*
X003952Y015859D01*
X003952Y015876D02*
X003900Y015876D01*
X003900Y015893D02*
X003952Y015893D01*
X003952Y015910D02*
X003900Y015910D01*
X003900Y015927D02*
X003952Y015927D01*
X003952Y015944D02*
X003900Y015944D01*
X003900Y015961D02*
X003952Y015961D01*
X003952Y015978D02*
X003900Y015978D01*
X003900Y015995D02*
X003952Y015995D01*
X003952Y016012D02*
X003900Y016012D01*
X003900Y016029D02*
X003952Y016029D01*
X003952Y016046D02*
X003900Y016046D01*
X003900Y016063D02*
X003952Y016063D01*
X003952Y016080D02*
X003900Y016080D01*
X003900Y016097D02*
X003952Y016097D01*
X003952Y016114D02*
X003900Y016114D01*
X003795Y016127D02*
X003795Y015485D01*
X003743Y015485D01*
X003743Y016127D01*
X003795Y016127D01*
X003795Y015502D02*
X003743Y015502D01*
X003743Y015519D02*
X003795Y015519D01*
X003795Y015536D02*
X003743Y015536D01*
X003743Y015553D02*
X003795Y015553D01*
X003795Y015570D02*
X003743Y015570D01*
X003743Y015587D02*
X003795Y015587D01*
X003795Y015604D02*
X003743Y015604D01*
X003743Y015621D02*
X003795Y015621D01*
X003795Y015638D02*
X003743Y015638D01*
X003743Y015655D02*
X003795Y015655D01*
X003795Y015672D02*
X003743Y015672D01*
X003743Y015689D02*
X003795Y015689D01*
X003795Y015706D02*
X003743Y015706D01*
X003743Y015723D02*
X003795Y015723D01*
X003795Y015740D02*
X003743Y015740D01*
X003743Y015757D02*
X003795Y015757D01*
X003795Y015774D02*
X003743Y015774D01*
X003743Y015791D02*
X003795Y015791D01*
X003795Y015808D02*
X003743Y015808D01*
X003743Y015825D02*
X003795Y015825D01*
X003795Y015842D02*
X003743Y015842D01*
X003743Y015859D02*
X003795Y015859D01*
X003795Y015876D02*
X003743Y015876D01*
X003743Y015893D02*
X003795Y015893D01*
X003795Y015910D02*
X003743Y015910D01*
X003743Y015927D02*
X003795Y015927D01*
X003795Y015944D02*
X003743Y015944D01*
X003743Y015961D02*
X003795Y015961D01*
X003795Y015978D02*
X003743Y015978D01*
X003743Y015995D02*
X003795Y015995D01*
X003795Y016012D02*
X003743Y016012D01*
X003743Y016029D02*
X003795Y016029D01*
X003795Y016046D02*
X003743Y016046D01*
X003743Y016063D02*
X003795Y016063D01*
X003795Y016080D02*
X003743Y016080D01*
X003743Y016097D02*
X003795Y016097D01*
X003795Y016114D02*
X003743Y016114D01*
X003637Y016127D02*
X003637Y015485D01*
X003585Y015485D01*
X003585Y016127D01*
X003637Y016127D01*
X003637Y015502D02*
X003585Y015502D01*
X003585Y015519D02*
X003637Y015519D01*
X003637Y015536D02*
X003585Y015536D01*
X003585Y015553D02*
X003637Y015553D01*
X003637Y015570D02*
X003585Y015570D01*
X003585Y015587D02*
X003637Y015587D01*
X003637Y015604D02*
X003585Y015604D01*
X003585Y015621D02*
X003637Y015621D01*
X003637Y015638D02*
X003585Y015638D01*
X003585Y015655D02*
X003637Y015655D01*
X003637Y015672D02*
X003585Y015672D01*
X003585Y015689D02*
X003637Y015689D01*
X003637Y015706D02*
X003585Y015706D01*
X003585Y015723D02*
X003637Y015723D01*
X003637Y015740D02*
X003585Y015740D01*
X003585Y015757D02*
X003637Y015757D01*
X003637Y015774D02*
X003585Y015774D01*
X003585Y015791D02*
X003637Y015791D01*
X003637Y015808D02*
X003585Y015808D01*
X003585Y015825D02*
X003637Y015825D01*
X003637Y015842D02*
X003585Y015842D01*
X003585Y015859D02*
X003637Y015859D01*
X003637Y015876D02*
X003585Y015876D01*
X003585Y015893D02*
X003637Y015893D01*
X003637Y015910D02*
X003585Y015910D01*
X003585Y015927D02*
X003637Y015927D01*
X003637Y015944D02*
X003585Y015944D01*
X003585Y015961D02*
X003637Y015961D01*
X003637Y015978D02*
X003585Y015978D01*
X003585Y015995D02*
X003637Y015995D01*
X003637Y016012D02*
X003585Y016012D01*
X003585Y016029D02*
X003637Y016029D01*
X003637Y016046D02*
X003585Y016046D01*
X003585Y016063D02*
X003637Y016063D01*
X003637Y016080D02*
X003585Y016080D01*
X003585Y016097D02*
X003637Y016097D01*
X003637Y016114D02*
X003585Y016114D01*
X003480Y016127D02*
X003480Y015485D01*
X003428Y015485D01*
X003428Y016127D01*
X003480Y016127D01*
X003480Y015502D02*
X003428Y015502D01*
X003428Y015519D02*
X003480Y015519D01*
X003480Y015536D02*
X003428Y015536D01*
X003428Y015553D02*
X003480Y015553D01*
X003480Y015570D02*
X003428Y015570D01*
X003428Y015587D02*
X003480Y015587D01*
X003480Y015604D02*
X003428Y015604D01*
X003428Y015621D02*
X003480Y015621D01*
X003480Y015638D02*
X003428Y015638D01*
X003428Y015655D02*
X003480Y015655D01*
X003480Y015672D02*
X003428Y015672D01*
X003428Y015689D02*
X003480Y015689D01*
X003480Y015706D02*
X003428Y015706D01*
X003428Y015723D02*
X003480Y015723D01*
X003480Y015740D02*
X003428Y015740D01*
X003428Y015757D02*
X003480Y015757D01*
X003480Y015774D02*
X003428Y015774D01*
X003428Y015791D02*
X003480Y015791D01*
X003480Y015808D02*
X003428Y015808D01*
X003428Y015825D02*
X003480Y015825D01*
X003480Y015842D02*
X003428Y015842D01*
X003428Y015859D02*
X003480Y015859D01*
X003480Y015876D02*
X003428Y015876D01*
X003428Y015893D02*
X003480Y015893D01*
X003480Y015910D02*
X003428Y015910D01*
X003428Y015927D02*
X003480Y015927D01*
X003480Y015944D02*
X003428Y015944D01*
X003428Y015961D02*
X003480Y015961D01*
X003480Y015978D02*
X003428Y015978D01*
X003428Y015995D02*
X003480Y015995D01*
X003480Y016012D02*
X003428Y016012D01*
X003428Y016029D02*
X003480Y016029D01*
X003480Y016046D02*
X003428Y016046D01*
X003428Y016063D02*
X003480Y016063D01*
X003480Y016080D02*
X003428Y016080D01*
X003428Y016097D02*
X003480Y016097D01*
X003480Y016114D02*
X003428Y016114D01*
X003322Y016127D02*
X003322Y015485D01*
X003270Y015485D01*
X003270Y016127D01*
X003322Y016127D01*
X003322Y015502D02*
X003270Y015502D01*
X003270Y015519D02*
X003322Y015519D01*
X003322Y015536D02*
X003270Y015536D01*
X003270Y015553D02*
X003322Y015553D01*
X003322Y015570D02*
X003270Y015570D01*
X003270Y015587D02*
X003322Y015587D01*
X003322Y015604D02*
X003270Y015604D01*
X003270Y015621D02*
X003322Y015621D01*
X003322Y015638D02*
X003270Y015638D01*
X003270Y015655D02*
X003322Y015655D01*
X003322Y015672D02*
X003270Y015672D01*
X003270Y015689D02*
X003322Y015689D01*
X003322Y015706D02*
X003270Y015706D01*
X003270Y015723D02*
X003322Y015723D01*
X003322Y015740D02*
X003270Y015740D01*
X003270Y015757D02*
X003322Y015757D01*
X003322Y015774D02*
X003270Y015774D01*
X003270Y015791D02*
X003322Y015791D01*
X003322Y015808D02*
X003270Y015808D01*
X003270Y015825D02*
X003322Y015825D01*
X003322Y015842D02*
X003270Y015842D01*
X003270Y015859D02*
X003322Y015859D01*
X003322Y015876D02*
X003270Y015876D01*
X003270Y015893D02*
X003322Y015893D01*
X003322Y015910D02*
X003270Y015910D01*
X003270Y015927D02*
X003322Y015927D01*
X003322Y015944D02*
X003270Y015944D01*
X003270Y015961D02*
X003322Y015961D01*
X003322Y015978D02*
X003270Y015978D01*
X003270Y015995D02*
X003322Y015995D01*
X003322Y016012D02*
X003270Y016012D01*
X003270Y016029D02*
X003322Y016029D01*
X003322Y016046D02*
X003270Y016046D01*
X003270Y016063D02*
X003322Y016063D01*
X003322Y016080D02*
X003270Y016080D01*
X003270Y016097D02*
X003322Y016097D01*
X003322Y016114D02*
X003270Y016114D01*
X003165Y016127D02*
X003165Y015485D01*
X003113Y015485D01*
X003113Y016127D01*
X003165Y016127D01*
X003165Y015502D02*
X003113Y015502D01*
X003113Y015519D02*
X003165Y015519D01*
X003165Y015536D02*
X003113Y015536D01*
X003113Y015553D02*
X003165Y015553D01*
X003165Y015570D02*
X003113Y015570D01*
X003113Y015587D02*
X003165Y015587D01*
X003165Y015604D02*
X003113Y015604D01*
X003113Y015621D02*
X003165Y015621D01*
X003165Y015638D02*
X003113Y015638D01*
X003113Y015655D02*
X003165Y015655D01*
X003165Y015672D02*
X003113Y015672D01*
X003113Y015689D02*
X003165Y015689D01*
X003165Y015706D02*
X003113Y015706D01*
X003113Y015723D02*
X003165Y015723D01*
X003165Y015740D02*
X003113Y015740D01*
X003113Y015757D02*
X003165Y015757D01*
X003165Y015774D02*
X003113Y015774D01*
X003113Y015791D02*
X003165Y015791D01*
X003165Y015808D02*
X003113Y015808D01*
X003113Y015825D02*
X003165Y015825D01*
X003165Y015842D02*
X003113Y015842D01*
X003113Y015859D02*
X003165Y015859D01*
X003165Y015876D02*
X003113Y015876D01*
X003113Y015893D02*
X003165Y015893D01*
X003165Y015910D02*
X003113Y015910D01*
X003113Y015927D02*
X003165Y015927D01*
X003165Y015944D02*
X003113Y015944D01*
X003113Y015961D02*
X003165Y015961D01*
X003165Y015978D02*
X003113Y015978D01*
X003113Y015995D02*
X003165Y015995D01*
X003165Y016012D02*
X003113Y016012D01*
X003113Y016029D02*
X003165Y016029D01*
X003165Y016046D02*
X003113Y016046D01*
X003113Y016063D02*
X003165Y016063D01*
X003165Y016080D02*
X003113Y016080D01*
X003113Y016097D02*
X003165Y016097D01*
X003165Y016114D02*
X003113Y016114D01*
X003007Y016127D02*
X003007Y015485D01*
X002955Y015485D01*
X002955Y016127D01*
X003007Y016127D01*
X003007Y015502D02*
X002955Y015502D01*
X002955Y015519D02*
X003007Y015519D01*
X003007Y015536D02*
X002955Y015536D01*
X002955Y015553D02*
X003007Y015553D01*
X003007Y015570D02*
X002955Y015570D01*
X002955Y015587D02*
X003007Y015587D01*
X003007Y015604D02*
X002955Y015604D01*
X002955Y015621D02*
X003007Y015621D01*
X003007Y015638D02*
X002955Y015638D01*
X002955Y015655D02*
X003007Y015655D01*
X003007Y015672D02*
X002955Y015672D01*
X002955Y015689D02*
X003007Y015689D01*
X003007Y015706D02*
X002955Y015706D01*
X002955Y015723D02*
X003007Y015723D01*
X003007Y015740D02*
X002955Y015740D01*
X002955Y015757D02*
X003007Y015757D01*
X003007Y015774D02*
X002955Y015774D01*
X002955Y015791D02*
X003007Y015791D01*
X003007Y015808D02*
X002955Y015808D01*
X002955Y015825D02*
X003007Y015825D01*
X003007Y015842D02*
X002955Y015842D01*
X002955Y015859D02*
X003007Y015859D01*
X003007Y015876D02*
X002955Y015876D01*
X002955Y015893D02*
X003007Y015893D01*
X003007Y015910D02*
X002955Y015910D01*
X002955Y015927D02*
X003007Y015927D01*
X003007Y015944D02*
X002955Y015944D01*
X002955Y015961D02*
X003007Y015961D01*
X003007Y015978D02*
X002955Y015978D01*
X002955Y015995D02*
X003007Y015995D01*
X003007Y016012D02*
X002955Y016012D01*
X002955Y016029D02*
X003007Y016029D01*
X003007Y016046D02*
X002955Y016046D01*
X002955Y016063D02*
X003007Y016063D01*
X003007Y016080D02*
X002955Y016080D01*
X002955Y016097D02*
X003007Y016097D01*
X003007Y016114D02*
X002955Y016114D01*
X002850Y016127D02*
X002850Y015485D01*
X002798Y015485D01*
X002798Y016127D01*
X002850Y016127D01*
X002850Y015502D02*
X002798Y015502D01*
X002798Y015519D02*
X002850Y015519D01*
X002850Y015536D02*
X002798Y015536D01*
X002798Y015553D02*
X002850Y015553D01*
X002850Y015570D02*
X002798Y015570D01*
X002798Y015587D02*
X002850Y015587D01*
X002850Y015604D02*
X002798Y015604D01*
X002798Y015621D02*
X002850Y015621D01*
X002850Y015638D02*
X002798Y015638D01*
X002798Y015655D02*
X002850Y015655D01*
X002850Y015672D02*
X002798Y015672D01*
X002798Y015689D02*
X002850Y015689D01*
X002850Y015706D02*
X002798Y015706D01*
X002798Y015723D02*
X002850Y015723D01*
X002850Y015740D02*
X002798Y015740D01*
X002798Y015757D02*
X002850Y015757D01*
X002850Y015774D02*
X002798Y015774D01*
X002798Y015791D02*
X002850Y015791D01*
X002850Y015808D02*
X002798Y015808D01*
X002798Y015825D02*
X002850Y015825D01*
X002850Y015842D02*
X002798Y015842D01*
X002798Y015859D02*
X002850Y015859D01*
X002850Y015876D02*
X002798Y015876D01*
X002798Y015893D02*
X002850Y015893D01*
X002850Y015910D02*
X002798Y015910D01*
X002798Y015927D02*
X002850Y015927D01*
X002850Y015944D02*
X002798Y015944D01*
X002798Y015961D02*
X002850Y015961D01*
X002850Y015978D02*
X002798Y015978D01*
X002798Y015995D02*
X002850Y015995D01*
X002850Y016012D02*
X002798Y016012D01*
X002798Y016029D02*
X002850Y016029D01*
X002850Y016046D02*
X002798Y016046D01*
X002798Y016063D02*
X002850Y016063D01*
X002850Y016080D02*
X002798Y016080D01*
X002798Y016097D02*
X002850Y016097D01*
X002850Y016114D02*
X002798Y016114D01*
D23*
X003646Y001972D03*
D24*
X003449Y001978D03*
X003252Y001978D03*
X003252Y001686D03*
X003449Y001686D03*
X003646Y001686D03*
D25*
X004500Y001538D03*
X004500Y002286D03*
D26*
X003950Y019642D03*
X003950Y020642D03*
X002950Y020742D03*
X002950Y019742D03*
X004950Y019742D03*
X004950Y020742D03*
D27*
X005301Y007242D03*
X005459Y007242D03*
X005616Y007242D03*
X005774Y007242D03*
X005931Y007242D03*
X006089Y007242D03*
X006246Y007242D03*
X006404Y007242D03*
X006561Y007242D03*
X006719Y007242D03*
X006719Y005022D03*
X006561Y005022D03*
X006404Y005022D03*
X006246Y005022D03*
X006089Y005022D03*
X005931Y005022D03*
X005774Y005022D03*
X005616Y005022D03*
X005459Y005022D03*
X005301Y005022D03*
D28*
X003363Y017067D03*
X003363Y017717D03*
X002537Y017717D03*
X002537Y017067D03*
D29*
X005858Y020058D03*
X006173Y020058D03*
X006487Y020058D03*
X006802Y020058D03*
X006727Y019406D03*
X006413Y019406D03*
X006098Y019406D03*
X006098Y018698D03*
X006413Y018698D03*
X006727Y018698D03*
X007042Y018698D03*
X007042Y019406D03*
X006802Y020766D03*
X006487Y020766D03*
X006173Y020766D03*
X005858Y020766D03*
D30*
X003870Y007272D03*
X004950Y006372D03*
D31*
X004417Y003726D02*
X004254Y003726D01*
X004057Y003726D01*
X003860Y003726D01*
X003663Y003726D01*
X003466Y003726D01*
X003270Y003726D01*
X003073Y003726D01*
X002876Y003726D01*
X002705Y004291D02*
X002202Y004291D01*
X001800Y004692D01*
X002064Y004956D01*
X002483Y005336D01*
X001290Y007512D02*
X001250Y007652D01*
X001250Y008036D01*
X001250Y008548D02*
X001250Y008917D01*
X001550Y009157D01*
X001250Y009397D01*
X001250Y009636D01*
X001250Y010148D02*
X001250Y010612D01*
X001290Y010632D01*
X001250Y014646D02*
X001250Y015112D01*
X001310Y015132D01*
X001230Y016452D02*
X001250Y016472D01*
X001250Y016836D01*
X004417Y003726D02*
X004650Y003492D01*
X004425Y003717D01*
X004650Y003492D02*
X004706Y003436D01*
X005120Y003436D01*
X004650Y003492D02*
X004590Y003432D01*
X003890Y001972D02*
X003930Y001932D01*
X003194Y001132D02*
X003194Y001122D01*
X003194Y001132D02*
X002550Y001132D01*
X003104Y001686D01*
X002530Y001686D02*
X002530Y001636D01*
X002530Y001132D01*
X002550Y001132D01*
X008430Y001132D02*
X008430Y001616D01*
D32*
X008430Y001132D03*
X008430Y002592D03*
X002550Y001132D03*
X001550Y009157D03*
X002550Y018792D03*
X004170Y018792D03*
D33*
X003890Y001972D02*
X003646Y001972D01*
X003252Y001686D02*
X003104Y001686D01*
D34*
X003930Y001932D03*
X004650Y003492D03*
X005730Y002892D03*
X006210Y002832D03*
X006570Y002612D03*
X006690Y003432D03*
X006690Y003912D03*
X007250Y004992D03*
X005010Y007272D03*
X002490Y006312D03*
X001290Y007512D03*
X002430Y004692D03*
X001290Y010632D03*
X001230Y012312D03*
X002910Y014892D03*
X003990Y014532D03*
X002910Y016672D03*
X003990Y018192D03*
X003450Y018432D03*
X001230Y017952D03*
X001230Y016452D03*
X001310Y015132D03*
X001050Y019812D03*
X006070Y018292D03*
X007170Y020412D03*
D35*
X003926Y015806D02*
X003926Y014949D01*
X003750Y014712D01*
X003990Y014532D02*
X003990Y014472D01*
X004170Y014292D01*
X005224Y014292D01*
X005344Y014172D01*
X005344Y013546D01*
X002981Y014964D02*
X002910Y014892D01*
X002824Y014978D01*
X002824Y015806D01*
X002981Y015806D02*
X002981Y014964D01*
X002737Y007250D02*
X002430Y007252D01*
X003434Y007250D02*
X003847Y007250D01*
X003902Y006150D02*
X003627Y006150D01*
X003610Y006132D01*
X002876Y004659D02*
X002463Y004659D01*
X002430Y004692D01*
X006210Y002832D02*
X006210Y002592D01*
X006432Y002370D01*
X006589Y002453D02*
X006570Y002612D01*
X006274Y002174D02*
X006096Y002352D01*
X006090Y002352D01*
X006432Y001249D02*
X006432Y001014D01*
X007039Y005003D02*
X007250Y004992D01*
X007039Y005003D02*
X006719Y005022D01*
D36*
X006990Y004452D03*
X007230Y004632D03*
X006750Y004332D03*
X006390Y004452D03*
X005670Y004332D03*
X005070Y004332D03*
X004890Y005052D03*
X004830Y005412D03*
X004590Y005052D03*
X004290Y005052D03*
X003990Y005052D03*
X003690Y005052D03*
X003450Y005052D03*
X003530Y005712D03*
X003610Y006132D03*
X003770Y006792D03*
X004250Y006012D03*
X005780Y006552D03*
X006090Y006612D03*
X006405Y006552D03*
X006686Y006672D03*
X006870Y007812D03*
X006914Y008194D03*
X006914Y008509D03*
X006599Y008509D03*
X006284Y008509D03*
X005969Y008509D03*
X005654Y008509D03*
X005339Y009139D03*
X005339Y009454D03*
X005024Y010083D03*
X004709Y010398D03*
X004394Y010713D03*
X004394Y011028D03*
X004079Y011028D03*
X004079Y011343D03*
X003764Y011658D03*
X003764Y011973D03*
X003449Y011973D03*
X003134Y011973D03*
X002819Y011973D03*
X003449Y011343D03*
X002680Y011186D03*
X002819Y010398D03*
X003134Y010083D03*
X003449Y010398D03*
X003764Y010398D03*
X004079Y010398D03*
X003764Y009769D03*
X003764Y009454D03*
X003449Y009454D03*
X004079Y009454D03*
X004394Y009769D03*
X004394Y008824D03*
X004394Y008509D03*
X004079Y008509D03*
X003764Y008509D03*
X003134Y008509D03*
X002819Y008509D03*
X002490Y009506D03*
X002430Y007252D03*
X002230Y007092D03*
X002370Y006732D03*
X001830Y004212D03*
X002190Y003432D03*
X003450Y001432D03*
X005024Y008509D03*
X004709Y008824D03*
X005969Y009769D03*
X006284Y010083D03*
X005969Y010398D03*
X005969Y010713D03*
X006284Y011028D03*
X006599Y011028D03*
X006599Y011343D03*
X006284Y011343D03*
X006284Y011973D03*
X006599Y011973D03*
X006680Y012442D03*
X006276Y012719D03*
X005969Y011973D03*
X005654Y011973D03*
X005654Y011658D03*
X005654Y011028D03*
X005024Y011343D03*
X004709Y011343D03*
X005024Y011658D03*
X005024Y011973D03*
X004709Y011973D03*
X004394Y011973D03*
X004079Y011973D03*
X004079Y012918D03*
X003990Y014092D03*
X003685Y014092D03*
X003370Y014092D03*
X003056Y014092D03*
X003750Y014712D03*
X004473Y014092D03*
X004788Y014092D03*
X005103Y014092D03*
X005730Y014092D03*
X006048Y014092D03*
X006363Y014092D03*
X006655Y014092D03*
X005910Y015312D03*
X005640Y015192D03*
X005370Y015192D03*
X005100Y015182D03*
X004940Y016292D03*
X004650Y016292D03*
X003930Y016472D03*
X003610Y016472D03*
X002898Y017328D03*
X004710Y018432D03*
X004950Y018192D03*
X005190Y018372D03*
X005670Y018972D03*
X005770Y018732D03*
X005850Y019452D03*
X006570Y019032D03*
X006870Y019032D03*
X007350Y018072D03*
X007350Y017472D03*
X006030Y017592D03*
X005890Y017892D03*
X005490Y017472D03*
X004830Y019212D03*
X004650Y020232D03*
X006570Y020412D03*
X008370Y015732D03*
X008730Y013692D03*
X007710Y010272D03*
X002730Y013032D03*
X002070Y014172D03*
D37*
X001250Y012947D02*
X001250Y012332D01*
X001230Y012312D01*
X001250Y012292D01*
X001250Y011716D01*
X002819Y011973D02*
X002977Y012131D01*
X003607Y011501D02*
X003449Y011343D01*
X003922Y011186D02*
X004079Y011028D01*
X004237Y011186D02*
X004394Y011028D01*
X004709Y011343D02*
X004552Y011501D01*
X004709Y011343D02*
X004867Y011501D01*
X005024Y011658D02*
X005181Y011816D01*
X005181Y011501D02*
X005024Y011343D01*
X005181Y011186D01*
X004867Y010871D02*
X004867Y010556D01*
X005181Y010241D01*
X005024Y010083D02*
X004867Y010241D01*
X004709Y010398D02*
X004867Y010556D01*
X004709Y010398D02*
X004552Y010241D01*
X004867Y009926D01*
X005339Y009454D02*
X005496Y009296D01*
X005339Y009139D02*
X005496Y008981D01*
X005181Y008981D02*
X004867Y008981D01*
X004709Y008824D01*
X004552Y008981D01*
X004394Y008824D02*
X004552Y008666D01*
X003922Y009296D02*
X004079Y009454D01*
X003922Y009611D02*
X003764Y009454D01*
X003607Y009611D02*
X003449Y009454D01*
X003607Y009296D01*
X002819Y008509D02*
X002977Y008351D01*
X003870Y007272D02*
X003847Y007250D01*
X002490Y006312D02*
X002483Y006305D01*
X002483Y005848D01*
X004425Y004094D02*
X004425Y003717D01*
X005680Y003436D02*
X006240Y003436D01*
X006690Y003432D01*
X006690Y003912D02*
X006694Y003968D01*
X006240Y003948D01*
X005730Y002892D02*
X005730Y002712D01*
X006090Y002352D01*
X005430Y001152D02*
X005610Y001012D01*
X006390Y001012D01*
X006432Y001014D01*
X004500Y001538D02*
X004474Y001512D01*
X003870Y001512D01*
X003696Y001686D01*
X003646Y001686D01*
X003750Y001583D01*
X003750Y001272D01*
X003660Y001182D01*
X003646Y001182D01*
X003706Y001122D01*
X003450Y001432D02*
X003449Y001453D01*
X003449Y001686D01*
X003449Y001978D02*
X003449Y002171D01*
X003570Y002292D01*
X004494Y002292D01*
X004500Y002286D01*
X003252Y002010D02*
X003030Y002232D01*
X002614Y002232D01*
X002530Y002148D01*
X003252Y002010D02*
X003252Y001978D01*
X006914Y008194D02*
X006756Y008351D01*
X006126Y009611D02*
X005969Y009769D01*
X006126Y009926D01*
X006284Y010083D02*
X006441Y009926D01*
X006126Y010241D02*
X005969Y010398D01*
X006126Y010556D01*
X005969Y010713D02*
X006126Y010871D01*
X005811Y011186D02*
X005654Y011028D01*
X005654Y011658D02*
X005496Y011816D01*
X006756Y012131D02*
X006756Y012362D01*
X006680Y012442D01*
X003764Y010398D02*
X003607Y010556D01*
X003449Y010398D02*
X003607Y010241D01*
X003449Y010398D02*
X003292Y010556D01*
X002910Y016672D02*
X003335Y016997D01*
X003363Y017067D01*
X003363Y017717D01*
X003155Y017647D01*
X002970Y017832D01*
X002970Y018176D01*
X002926Y018192D01*
X002550Y018268D02*
X002414Y018192D01*
X002537Y018130D01*
X002537Y017717D01*
X002550Y018268D02*
X002550Y018792D01*
X003124Y018818D02*
X003450Y018432D01*
X003716Y018792D02*
X003636Y018872D01*
X003716Y018792D02*
X004170Y018792D01*
X004088Y018291D02*
X003990Y018192D01*
X004088Y018291D02*
X004385Y018291D01*
X005515Y018291D02*
X006068Y018291D01*
X006070Y018292D01*
X006098Y018320D01*
X006098Y018698D01*
X006413Y018698D01*
X007157Y020412D02*
X006802Y020766D01*
X006487Y020766D01*
X007157Y020412D02*
X007170Y020412D01*
X003124Y018947D02*
X003124Y018872D01*
X003124Y018818D01*
X001230Y018536D02*
X001230Y017952D01*
X001250Y017932D01*
X001250Y017348D01*
X001050Y019812D02*
X001050Y020216D01*
D38*
X002850Y002532D03*
X005250Y001752D03*
X005430Y001152D03*
D39*
X004847Y006150D02*
X004598Y006150D01*
X004847Y006150D02*
X004950Y006252D01*
X004950Y006372D01*
X005250Y006372D01*
X005459Y006581D01*
X005459Y007242D01*
X005301Y007242D02*
X005301Y007401D01*
X005190Y007512D01*
X005070Y007512D01*
X005010Y007452D01*
X005010Y007272D01*
D40*
X004710Y007392D02*
X005490Y008172D01*
X005490Y008345D01*
X005496Y008351D01*
X005654Y008509D02*
X005496Y008666D01*
X005811Y008666D02*
X005969Y008509D01*
X006126Y008666D02*
X006284Y008509D01*
X006441Y008666D02*
X006599Y008509D01*
X006756Y008666D02*
X006914Y008509D01*
X006441Y008351D02*
X006441Y008001D01*
X006561Y007881D01*
X006561Y007242D01*
X006404Y007242D02*
X006404Y006814D01*
X006441Y006776D01*
X006522Y006776D01*
X006686Y006672D01*
X006690Y006372D02*
X006990Y006672D01*
X006990Y007092D01*
X007350Y007452D01*
X007350Y007932D01*
X007590Y008172D01*
X008070Y008172D01*
X008190Y008292D01*
X008190Y008412D01*
X008310Y008532D01*
X008310Y009312D01*
X008670Y009672D01*
X008670Y010147D01*
X008725Y010202D01*
X008725Y009202D02*
X008670Y009147D01*
X008670Y008712D01*
X008310Y008352D01*
X008310Y008232D01*
X008130Y008052D01*
X007650Y008052D01*
X007470Y007872D01*
X007470Y007392D01*
X007110Y007032D01*
X007110Y006612D01*
X006750Y006252D01*
X006270Y006252D01*
X005616Y005598D01*
X005616Y005022D01*
X005459Y005022D02*
X005459Y005621D01*
X006210Y006372D01*
X006690Y006372D01*
X006810Y006132D02*
X007230Y006552D01*
X007230Y006972D01*
X007530Y007272D01*
X008190Y007272D01*
X008670Y007752D01*
X008670Y008147D01*
X008725Y008202D01*
X008715Y007212D02*
X008725Y007202D01*
X008675Y007152D01*
X007590Y007152D01*
X007350Y006912D01*
X007350Y006492D01*
X006870Y006012D01*
X006390Y006012D01*
X005931Y005553D01*
X005931Y005022D01*
X005774Y005022D02*
X005774Y005576D01*
X006330Y006132D01*
X006810Y006132D01*
X006930Y005892D02*
X007470Y006432D01*
X007470Y006852D01*
X007650Y007032D01*
X008010Y007032D01*
X008190Y006852D01*
X008190Y006737D01*
X008725Y006202D01*
X008430Y005952D02*
X008190Y006192D01*
X008130Y006252D01*
X008070Y006312D01*
X007530Y006312D01*
X006990Y005772D01*
X006510Y005772D01*
X006246Y005508D01*
X006246Y005022D01*
X006089Y005022D02*
X006089Y005531D01*
X006450Y005892D01*
X006930Y005892D01*
X007050Y005652D02*
X006570Y005652D01*
X006404Y005486D01*
X006404Y005022D01*
X006561Y005022D02*
X006561Y005463D01*
X006630Y005532D01*
X007110Y005532D01*
X007650Y006072D01*
X007950Y006072D01*
X008190Y005832D01*
X008190Y005532D01*
X008130Y005472D01*
X008130Y004932D01*
X008190Y004872D01*
X008190Y003972D01*
X008310Y003852D01*
X008310Y003535D01*
X008725Y003202D01*
X008725Y004202D02*
X008310Y004535D01*
X008310Y004932D01*
X008250Y004992D01*
X008250Y005412D01*
X008310Y005472D01*
X008310Y005892D01*
X008010Y006192D01*
X007590Y006192D01*
X007050Y005652D01*
X007770Y005172D02*
X007470Y004872D01*
X007470Y004332D01*
X007410Y004272D01*
X007410Y003252D01*
X007170Y003012D01*
X007170Y001752D01*
X007051Y001633D01*
X006816Y001633D01*
X006816Y001790D02*
X006968Y001790D01*
X007050Y001872D01*
X007050Y003072D01*
X007290Y003312D01*
X007290Y004392D01*
X007230Y004452D01*
X007230Y004632D01*
X006990Y004452D02*
X007170Y004272D01*
X007170Y003372D01*
X006930Y003132D01*
X006930Y002052D01*
X006826Y001948D01*
X006816Y001948D01*
X006747Y002174D02*
X006747Y002289D01*
X006810Y002352D01*
X006810Y003192D01*
X007050Y003432D01*
X007050Y004032D01*
X006750Y004332D01*
X006390Y004452D02*
X006330Y004512D01*
X005490Y004512D01*
X005410Y004432D01*
X005410Y002792D01*
X006030Y002172D01*
X006030Y002052D01*
X006134Y001948D01*
X006225Y001948D01*
X006206Y001790D02*
X005992Y001790D01*
X005910Y001872D01*
X005910Y002112D01*
X005130Y002892D01*
X003510Y002892D01*
X003210Y003192D01*
X002430Y003192D01*
X002190Y003432D01*
X002070Y003072D02*
X001800Y003342D01*
X001800Y003692D01*
X001470Y004032D02*
X002643Y004032D01*
X002705Y004094D01*
X003073Y004659D02*
X003073Y005009D01*
X002850Y005232D01*
X002850Y005486D01*
X002741Y005595D01*
X002268Y005595D01*
X002189Y005674D01*
X002189Y005989D01*
X002032Y006146D01*
X001756Y006146D01*
X001410Y006492D01*
X001410Y006912D01*
X001590Y007092D01*
X001890Y007092D01*
X002070Y006912D01*
X002490Y006912D01*
X002513Y006935D01*
X002737Y006935D01*
X002737Y007092D02*
X002610Y007092D01*
X002550Y007062D01*
X002330Y007062D01*
X002230Y007092D01*
X002385Y006777D02*
X002370Y006732D01*
X002385Y006777D02*
X002737Y006777D01*
X002807Y006552D02*
X002987Y006372D01*
X002987Y006329D01*
X002970Y006312D01*
X002970Y005352D01*
X003270Y005053D01*
X003270Y004659D01*
X003466Y004659D02*
X003466Y005036D01*
X003450Y005052D01*
X003090Y005412D01*
X003090Y006192D01*
X003450Y006552D01*
X003450Y006761D01*
X003434Y006777D01*
X003434Y006935D02*
X003727Y006935D01*
X003770Y006792D01*
X003810Y007032D02*
X004050Y007032D01*
X004110Y006972D01*
X004110Y006852D01*
X003690Y006432D01*
X003570Y006432D01*
X003210Y006072D01*
X003210Y005592D01*
X003690Y005112D01*
X003690Y005052D01*
X003663Y005025D01*
X003663Y004659D01*
X003860Y004659D02*
X003860Y004922D01*
X003990Y005052D01*
X003810Y005232D01*
X003750Y005232D01*
X003330Y005652D01*
X003330Y005832D01*
X003390Y005892D01*
X003635Y005892D01*
X003693Y005835D01*
X003902Y005835D01*
X003902Y005992D02*
X004110Y005992D01*
X004230Y005992D01*
X004250Y006012D01*
X004110Y005992D02*
X004270Y005832D01*
X004350Y005832D01*
X004348Y005831D01*
X004348Y005644D01*
X004350Y005642D01*
X004350Y005832D02*
X004598Y005835D01*
X004601Y005832D01*
X004830Y005832D01*
X004890Y005772D01*
X004890Y005532D01*
X004830Y005472D01*
X004830Y005412D01*
X005130Y005292D02*
X004890Y005052D01*
X004425Y004587D01*
X004425Y004291D01*
X004254Y004659D02*
X004254Y004716D01*
X004590Y005052D01*
X004598Y005061D01*
X004598Y005677D01*
X004598Y005992D02*
X005030Y005992D01*
X005130Y005892D01*
X005130Y005292D01*
X004598Y006307D02*
X004598Y006441D01*
X004710Y006552D01*
X004710Y007392D01*
X004590Y007452D02*
X005190Y008052D01*
X005190Y008343D01*
X005181Y008351D01*
X005024Y008509D02*
X004867Y008666D01*
X004867Y008351D02*
X004867Y007909D01*
X004830Y007872D01*
X004680Y007722D01*
X004470Y007512D01*
X004470Y006852D01*
X004152Y006534D01*
X004152Y006341D01*
X003902Y006307D02*
X003902Y006464D01*
X004350Y006912D01*
X004350Y007572D01*
X004552Y007774D01*
X004552Y008351D01*
X004394Y008509D02*
X004237Y008666D01*
X004079Y008509D02*
X003922Y008666D01*
X003764Y008509D02*
X003607Y008666D01*
X003607Y008351D02*
X003607Y008089D01*
X003390Y007872D01*
X003210Y007872D01*
X002987Y007649D01*
X002987Y007441D01*
X003184Y007441D02*
X003184Y007606D01*
X003330Y007752D01*
X003570Y007752D01*
X003922Y008104D01*
X003922Y008351D01*
X004237Y008351D02*
X004237Y007939D01*
X003705Y007407D01*
X003434Y007407D01*
X003434Y007092D02*
X003750Y007092D01*
X003810Y007032D01*
X003434Y006935D02*
X003127Y006935D01*
X003184Y006878D01*
X003184Y006744D01*
X002987Y006744D02*
X002987Y006372D01*
X002807Y006552D02*
X002130Y006552D01*
X002063Y006619D01*
X001873Y006619D01*
X001800Y006692D01*
X001890Y007092D02*
X002550Y007752D01*
X002550Y008712D01*
X002670Y008832D01*
X002670Y009972D01*
X001950Y010692D01*
X001800Y010692D01*
X001282Y011172D02*
X001250Y011204D01*
X001282Y011172D02*
X002648Y011172D01*
X002680Y011186D01*
X002977Y011816D02*
X003134Y011973D01*
X003292Y011816D02*
X003449Y011973D01*
X003607Y011816D02*
X003764Y011973D01*
X003922Y011816D02*
X004079Y011973D01*
X004237Y011816D02*
X004394Y011973D01*
X004552Y011816D02*
X004709Y011973D01*
X004867Y011816D02*
X005024Y011973D01*
X004867Y012131D02*
X004867Y012492D01*
X004871Y012497D01*
X004871Y013546D01*
X004714Y013546D02*
X004714Y014018D01*
X004788Y014092D01*
X005029Y014018D02*
X005103Y014092D01*
X005029Y014018D02*
X005029Y013546D01*
X005186Y013546D02*
X005186Y012437D01*
X005181Y012432D01*
X005181Y012603D01*
X005181Y012432D02*
X005181Y012131D01*
X005496Y012131D02*
X005496Y012682D01*
X005501Y012687D01*
X005501Y013546D01*
X005659Y013546D02*
X005659Y014021D01*
X005730Y014092D01*
X005974Y014018D02*
X005974Y013546D01*
X006131Y013546D02*
X006131Y013073D01*
X005850Y012792D01*
X005850Y012649D01*
X006126Y012372D01*
X006126Y012131D01*
X005969Y011973D02*
X006126Y011816D01*
X006284Y011973D02*
X006441Y011816D01*
X006599Y011973D02*
X006756Y011816D01*
X006441Y012131D02*
X006441Y012372D01*
X006321Y012492D01*
X006210Y012492D01*
X005970Y012732D01*
X006270Y013032D01*
X006330Y013032D01*
X006446Y013148D01*
X006446Y013546D01*
X006289Y013546D02*
X006289Y014018D01*
X006363Y014092D01*
X006655Y014092D02*
X006761Y013986D01*
X006761Y013546D01*
X006604Y013546D02*
X006604Y013047D01*
X006276Y012719D01*
X005816Y012998D02*
X005730Y012912D01*
X005730Y012514D01*
X005811Y012432D01*
X005811Y012131D01*
X005654Y011973D02*
X005811Y011816D01*
X006126Y011501D02*
X006284Y011343D01*
X006441Y011186D02*
X006599Y011028D01*
X006756Y011186D02*
X007110Y011506D01*
X007110Y013152D01*
X007076Y013186D01*
X007076Y013546D01*
X006919Y013546D02*
X006919Y013164D01*
X006990Y013092D01*
X006990Y011734D01*
X006756Y011501D01*
X006835Y011501D01*
X006824Y011186D02*
X006756Y011186D01*
X006599Y011343D02*
X006441Y011501D01*
X006126Y011186D02*
X006284Y011028D01*
X007230Y011112D02*
X007470Y010872D01*
X007470Y010512D01*
X007710Y010272D01*
X007800Y010692D02*
X007800Y010842D01*
X007350Y011232D01*
X007350Y014052D01*
X007290Y014112D01*
X007170Y014112D01*
X006810Y014472D01*
X005430Y014472D01*
X005310Y014592D01*
X004470Y014592D01*
X004399Y014663D01*
X004399Y015806D01*
X004556Y015806D02*
X004556Y014806D01*
X004650Y014712D01*
X005370Y014712D01*
X005490Y014592D01*
X006870Y014592D01*
X007230Y014232D01*
X007350Y014232D01*
X007470Y014112D01*
X007470Y013022D01*
X007800Y012692D01*
X008010Y012372D02*
X008190Y012552D01*
X008190Y012852D01*
X008010Y013032D01*
X008010Y013392D01*
X008190Y013572D01*
X008190Y013812D01*
X007950Y014052D01*
X007890Y014052D01*
X007470Y014472D01*
X007350Y014472D01*
X006990Y014832D01*
X005610Y014832D01*
X005490Y014952D01*
X004950Y014952D01*
X004871Y015031D01*
X004871Y015806D01*
X004714Y015806D02*
X004714Y014948D01*
X004830Y014832D01*
X005430Y014832D01*
X005550Y014712D01*
X006930Y014712D01*
X007290Y014352D01*
X007410Y014352D01*
X007590Y014172D01*
X007590Y013902D01*
X007800Y013692D01*
X008130Y013332D02*
X008130Y013092D01*
X008310Y012912D01*
X008310Y012492D01*
X008130Y012312D01*
X008130Y011797D01*
X008725Y011202D01*
X008010Y011902D02*
X007800Y011692D01*
X008010Y011902D02*
X008010Y012372D01*
X008725Y012202D02*
X008725Y012677D01*
X008310Y013092D01*
X008310Y013332D01*
X008430Y013452D01*
X008430Y013932D01*
X008310Y014052D01*
X008310Y014892D01*
X007950Y015252D01*
X007530Y015252D01*
X007350Y015432D01*
X007350Y016152D01*
X007230Y016272D01*
X006810Y016272D01*
X006761Y016223D01*
X006761Y015806D01*
X006604Y015806D02*
X006604Y016246D01*
X006750Y016392D01*
X007350Y016392D01*
X007800Y015942D01*
X007800Y015692D01*
X007890Y015132D02*
X007350Y015132D01*
X007076Y015406D01*
X007076Y015806D01*
X006919Y015806D02*
X006919Y015144D01*
X006990Y015072D01*
X007020Y015042D01*
X007370Y014692D01*
X007800Y014692D01*
X008190Y014832D02*
X007890Y015132D01*
X008190Y014832D02*
X008190Y014412D01*
X008130Y014352D01*
X008130Y014052D01*
X008310Y013872D01*
X008310Y013512D01*
X008130Y013332D01*
X008725Y013202D02*
X008725Y013687D01*
X008730Y013692D01*
X007230Y013992D02*
X007110Y013992D01*
X006750Y014352D01*
X005370Y014352D01*
X005250Y014472D01*
X004410Y014472D01*
X004241Y014641D01*
X004241Y015806D01*
X004084Y015806D02*
X004084Y016212D01*
X004024Y016272D01*
X003450Y016272D01*
X003330Y016392D01*
X003330Y016572D01*
X003390Y016632D01*
X003510Y016632D01*
X003810Y016932D01*
X003810Y017712D01*
X003210Y018312D01*
X003210Y018432D01*
X003150Y018492D01*
X002910Y018492D01*
X002850Y018552D01*
X002850Y018912D01*
X002670Y019092D01*
X002190Y019092D01*
X001800Y019482D01*
X001800Y019692D01*
X001590Y020112D02*
X002580Y020112D01*
X002950Y019742D01*
X003360Y020232D02*
X003950Y019642D01*
X003360Y020232D02*
X001590Y020232D01*
X001350Y020472D01*
X001350Y020592D01*
X001214Y020728D01*
X001050Y020728D01*
X001590Y020112D02*
X001350Y019872D01*
X001350Y019632D01*
X001230Y019512D01*
X001230Y019048D01*
X001800Y018692D02*
X001800Y018282D01*
X002130Y017952D01*
X002130Y017052D01*
X002250Y016932D01*
X002250Y016572D01*
X002490Y016332D01*
X003030Y016332D01*
X003139Y016223D01*
X003139Y015806D01*
X003296Y015806D02*
X003300Y015772D01*
X003300Y015252D01*
X003210Y015162D01*
X003210Y014772D01*
X003090Y014652D01*
X002490Y014652D01*
X002430Y014712D01*
X002430Y014952D01*
X002310Y015072D01*
X002310Y015972D01*
X002130Y016152D01*
X002130Y016872D01*
X001800Y017202D01*
X001800Y017692D01*
X001800Y017682D01*
X002537Y017067D02*
X002568Y016997D01*
X002898Y017328D01*
X001800Y016692D02*
X001800Y016302D01*
X002190Y015912D01*
X002190Y015012D01*
X002310Y014892D01*
X002310Y014652D01*
X002430Y014532D01*
X003150Y014532D01*
X003330Y014712D01*
X003330Y015072D01*
X003450Y015192D01*
X003450Y015802D01*
X003454Y015806D01*
X003611Y015806D02*
X003611Y015174D01*
X003450Y015012D01*
X003450Y014652D01*
X003360Y014562D01*
X003210Y014412D01*
X002370Y014412D01*
X002190Y014592D01*
X002190Y014832D01*
X001800Y015222D01*
X001800Y015692D01*
X001800Y014692D02*
X001910Y014692D01*
X002310Y014292D01*
X003270Y014292D01*
X003570Y014592D01*
X003570Y014952D01*
X003750Y015132D01*
X003750Y015372D01*
X003769Y015391D01*
X003769Y015806D01*
X004650Y016292D02*
X004880Y016472D01*
X005190Y016472D01*
X005501Y016141D01*
X005501Y015806D01*
X005344Y015806D02*
X005344Y015398D01*
X005370Y015372D01*
X005460Y015372D01*
X005640Y015192D01*
X005730Y015372D02*
X005850Y015372D01*
X005910Y015312D01*
X005730Y015372D02*
X005659Y015443D01*
X005659Y015806D01*
X005816Y015806D02*
X005816Y016358D01*
X006570Y017112D01*
X007290Y017112D01*
X007470Y017292D01*
X007950Y017292D01*
X008190Y017532D01*
X008190Y017832D01*
X007950Y018072D01*
X007950Y018542D01*
X007800Y018692D01*
X008190Y019302D02*
X008190Y018012D01*
X008310Y017892D01*
X008310Y017472D01*
X008010Y017172D01*
X007530Y017172D01*
X007350Y016992D01*
X006630Y016992D01*
X005974Y016336D01*
X005974Y015806D01*
X006131Y015806D02*
X006131Y016313D01*
X006690Y016872D01*
X007410Y016872D01*
X007590Y017052D01*
X008070Y017052D01*
X008430Y017412D01*
X008430Y017952D01*
X008310Y018072D01*
X008310Y019932D01*
X007800Y020442D01*
X007800Y020692D01*
X007800Y019692D02*
X008190Y019302D01*
X007800Y016692D02*
X006690Y016692D01*
X006289Y016291D01*
X006289Y015806D01*
X006446Y015806D02*
X006446Y016268D01*
X006690Y016512D01*
X007470Y016512D01*
X007650Y016332D01*
X007770Y016332D01*
X008370Y015732D01*
X007230Y013992D02*
X007230Y011112D01*
X005816Y012998D02*
X005816Y013546D01*
X005974Y014018D02*
X006048Y014092D01*
X005370Y015192D02*
X005186Y015376D01*
X005186Y015806D01*
X005029Y015806D02*
X005029Y015253D01*
X005100Y015182D01*
X004473Y014092D02*
X004399Y014018D01*
X004399Y013546D01*
X004556Y013546D02*
X004556Y012497D01*
X004552Y012492D01*
X004552Y012682D01*
X004552Y012492D02*
X004552Y012131D01*
X004237Y012131D02*
X004237Y012682D01*
X004290Y012735D01*
X004290Y013032D01*
X004241Y013081D01*
X004241Y013546D01*
X004084Y013546D02*
X004084Y012923D01*
X004079Y012918D01*
X003922Y012682D02*
X003769Y012835D01*
X003769Y013546D01*
X003926Y013546D02*
X003926Y014029D01*
X003990Y014092D01*
X003685Y014092D02*
X003611Y014018D01*
X003611Y013546D01*
X003454Y013546D02*
X003454Y012835D01*
X003607Y012682D01*
X003607Y012131D01*
X003922Y012131D02*
X003922Y012682D01*
X003292Y012682D02*
X003292Y012131D01*
X003292Y012682D02*
X003256Y012718D01*
X003213Y012761D01*
X003139Y012835D01*
X003139Y013546D01*
X003296Y013546D02*
X003296Y014018D01*
X003370Y014092D01*
X003056Y014092D02*
X002981Y014018D01*
X002981Y013546D01*
X002610Y013152D02*
X001770Y013152D01*
X001470Y013452D01*
X001257Y013452D01*
X001250Y013459D01*
X001250Y014134D02*
X001288Y014172D01*
X002070Y014172D01*
X002610Y013152D02*
X002730Y013032D01*
X003764Y011658D02*
X003922Y011501D01*
X004079Y011343D02*
X004237Y011501D01*
X004394Y010713D02*
X004552Y010556D01*
X004237Y010556D02*
X004079Y010398D01*
X003922Y009926D02*
X003764Y009769D01*
X003292Y010241D02*
X003134Y010083D01*
X002977Y010241D02*
X002819Y010398D01*
X002490Y009506D02*
X002250Y009229D01*
X002250Y007632D01*
X001867Y007249D01*
X001530Y007249D01*
X001290Y007009D01*
X001290Y004212D01*
X001470Y004032D01*
X001590Y004212D02*
X001410Y004392D01*
X001410Y005302D01*
X001800Y005692D01*
X002737Y007092D02*
X002970Y007092D01*
X003127Y006935D01*
X002737Y007407D02*
X002737Y007639D01*
X003292Y008194D01*
X003292Y008351D01*
X003134Y008509D02*
X003292Y008666D01*
X004394Y009769D02*
X004552Y009926D01*
X005811Y008351D02*
X005811Y008031D01*
X005931Y007911D01*
X005931Y007242D01*
X005774Y007242D02*
X005774Y006808D01*
X005790Y006792D01*
X005910Y006792D01*
X006090Y006612D01*
X006090Y006792D02*
X006165Y006792D01*
X006405Y006552D01*
X006090Y006792D02*
X006090Y007241D01*
X006089Y007242D01*
X006246Y007242D02*
X006246Y007896D01*
X006126Y008016D01*
X006126Y008351D01*
X006870Y007812D02*
X006870Y007393D01*
X006719Y007242D01*
X005780Y006552D02*
X005616Y006716D01*
X005616Y007242D01*
X004590Y007452D02*
X004590Y006792D01*
X004348Y006551D01*
X004348Y006341D01*
X003902Y005677D02*
X003545Y005677D01*
X003530Y005712D01*
X004152Y005644D02*
X004152Y005191D01*
X004290Y005052D01*
X004057Y004819D01*
X004057Y004659D01*
X005070Y004332D02*
X005070Y003998D01*
X005120Y003948D01*
X005680Y003948D02*
X005680Y004322D01*
X005670Y004332D01*
X005070Y002772D02*
X005790Y002052D01*
X005790Y001752D01*
X005909Y001633D01*
X006206Y001633D01*
X006206Y001475D02*
X005827Y001475D01*
X005670Y001632D01*
X005670Y001992D01*
X005010Y002652D01*
X003390Y002652D01*
X003090Y002952D01*
X002490Y002952D01*
X002230Y002692D01*
X001800Y002692D01*
X002070Y003072D02*
X003150Y003072D01*
X003450Y002772D01*
X005070Y002772D01*
X004950Y002532D02*
X005550Y001932D01*
X005550Y001572D01*
X005910Y001212D01*
X006238Y001212D01*
X006274Y001249D01*
X006589Y001249D02*
X006589Y001073D01*
X006690Y000972D01*
X007470Y000972D01*
X007800Y001302D01*
X007800Y001692D01*
X007410Y001872D02*
X007410Y001332D01*
X007230Y001152D01*
X006810Y001152D01*
X006747Y001215D01*
X006747Y001249D01*
X006816Y001475D02*
X007133Y001475D01*
X007290Y001632D01*
X007290Y002772D01*
X007710Y003192D01*
X007770Y003252D01*
X007800Y003282D01*
X007800Y003692D01*
X007800Y002692D02*
X007800Y002262D01*
X007410Y001872D01*
X004950Y002532D02*
X003330Y002532D01*
X003030Y002832D01*
X002550Y002832D01*
X001800Y002082D01*
X001800Y001692D01*
X001830Y004212D02*
X001590Y004212D01*
X007770Y005172D02*
X007770Y005662D01*
X007800Y005692D01*
X008430Y005472D02*
X008430Y005952D01*
X008430Y005472D02*
X008646Y005256D01*
X008725Y005202D01*
X004867Y012492D02*
X004867Y012682D01*
D41*
X002850Y002532D02*
X002670Y002232D01*
X002614Y002232D01*
X004500Y001538D02*
X005096Y001538D01*
X005250Y001752D01*
X008430Y002128D02*
X008430Y002592D01*
D42*
X006589Y002453D02*
X006589Y002174D01*
X006432Y002174D02*
X006432Y002370D01*
D43*
X005181Y009926D02*
X005496Y010241D01*
X003930Y016472D02*
X004230Y016772D01*
X004230Y017772D01*
X004355Y017897D01*
X004385Y017897D01*
X004655Y017897D02*
X004655Y017627D01*
X004852Y017627D02*
X004852Y016971D01*
X005010Y016812D01*
X005970Y016812D01*
X006450Y017292D01*
X006690Y017292D01*
X006750Y017352D01*
X006750Y018312D01*
X006690Y018372D01*
X006690Y018660D01*
X006727Y018698D01*
X006727Y018890D01*
X006870Y019032D01*
X006727Y019190D02*
X006570Y019032D01*
X006727Y019190D02*
X006727Y019406D01*
X006487Y020058D01*
X006570Y020412D02*
X006690Y020412D01*
X006810Y020292D01*
X006810Y020065D01*
X006802Y020058D01*
X007042Y019406D01*
X007410Y019065D02*
X007410Y020232D01*
X007470Y020292D01*
X007470Y020532D01*
X007410Y020592D01*
X007410Y020832D01*
X007650Y021072D01*
X008130Y021072D01*
X008725Y020477D01*
X008725Y020202D01*
X007410Y019065D02*
X007042Y018698D01*
X007800Y017940D01*
X007800Y017692D01*
X007350Y017472D02*
X007230Y017592D01*
X007006Y017592D01*
X007006Y018072D02*
X007350Y018072D01*
X006494Y018072D02*
X006030Y017608D01*
X006030Y017592D01*
X005790Y017412D02*
X005790Y017792D01*
X005890Y017892D01*
X005515Y017897D02*
X005490Y017872D01*
X005490Y017472D01*
X005610Y017232D02*
X005310Y017232D01*
X005245Y017297D01*
X005245Y017627D01*
X005048Y017627D02*
X005048Y017854D01*
X004950Y017952D01*
X004950Y018192D01*
X005048Y018394D02*
X005190Y018372D01*
X005048Y018394D02*
X005048Y018757D01*
X005048Y019071D01*
X005430Y019452D01*
X005430Y020532D01*
X005610Y020712D01*
X005803Y020712D01*
X005858Y020766D01*
X006150Y020744D02*
X006150Y020472D01*
X006090Y020412D01*
X005730Y020412D01*
X005610Y020292D01*
X005610Y019812D01*
X005850Y019572D01*
X005850Y019452D01*
X005903Y019212D02*
X005730Y019212D01*
X005670Y019272D01*
X005550Y019272D01*
X005245Y018967D01*
X005245Y018757D01*
X005430Y018732D02*
X005430Y018552D01*
X005495Y018487D01*
X005515Y018487D01*
X005545Y018487D01*
X005430Y018732D02*
X005670Y018972D01*
X005770Y018732D02*
X006030Y019092D01*
X006270Y019092D01*
X006413Y019235D01*
X006413Y019406D01*
X006173Y020058D01*
X005858Y020058D02*
X006098Y019406D01*
X005903Y019212D01*
X004852Y019191D02*
X004852Y018757D01*
X004655Y018757D02*
X004655Y018967D01*
X004470Y019152D01*
X004470Y020052D01*
X004650Y020232D01*
X004830Y019212D02*
X004852Y019191D01*
X004380Y018492D02*
X003870Y018492D01*
X003690Y018312D01*
X003690Y018072D01*
X003990Y017772D01*
X003990Y016852D01*
X003610Y016472D01*
X004655Y017897D02*
X004710Y017952D01*
X004710Y018432D01*
X004385Y018487D02*
X004380Y018492D01*
X005048Y017627D02*
X005048Y017074D01*
X005130Y016992D01*
X005910Y016992D01*
X006374Y017456D01*
X006494Y017456D01*
X006494Y017592D01*
X005790Y017412D02*
X005610Y017232D01*
X006150Y020744D02*
X006173Y020766D01*
M02*
