%TF.GenerationSoftware,KiCad,Pcbnew,9.0.7*%
%TF.CreationDate,2026-08-08T12:28:46+02:00*%
%TF.ProjectId,eclaireXLv1sub,65636c61-6972-4655-984c-76317375622e,rev?*%
%TF.SameCoordinates,Original*%
%TF.FileFunction,Soldermask,Top*%
%TF.FilePolarity,Negative*%
%FSLAX46Y46*%
G04 Gerber Fmt 4.6, Leading zero omitted, Abs format (unit mm)*
G04 Created by KiCad (PCBNEW 9.0.7) date 2026-08-08 12:28:46*
%MOMM*%
%LPD*%
G01*
G04 APERTURE LIST*
G04 Aperture macros list*
%AMRoundRect*
0 Rectangle with rounded corners*
0 $1 Rounding radius*
0 $2 $3 $4 $5 $6 $7 $8 $9 X,Y pos of 4 corners*
0 Add a 4 corners polygon primitive as box body*
4,1,4,$2,$3,$4,$5,$6,$7,$8,$9,$2,$3,0*
0 Add four circle primitives for the rounded corners*
1,1,$1+$1,$2,$3*
1,1,$1+$1,$4,$5*
1,1,$1+$1,$6,$7*
1,1,$1+$1,$8,$9*
0 Add four rect primitives between the rounded corners*
20,1,$1+$1,$2,$3,$4,$5,0*
20,1,$1+$1,$4,$5,$6,$7,0*
20,1,$1+$1,$6,$7,$8,$9,0*
20,1,$1+$1,$8,$9,$2,$3,0*%
%AMFreePoly0*
4,1,25,0.343787,0.767996,0.355910,0.757642,0.757642,0.355910,0.786149,0.299962,0.787400,0.284068,0.787400,-0.284068,0.767996,-0.343787,0.757642,-0.355910,0.355910,-0.757642,0.299962,-0.786149,0.284068,-0.787400,-0.284068,-0.787400,-0.343787,-0.767996,-0.355910,-0.757642,-0.757642,-0.355910,-0.786149,-0.299962,-0.787400,-0.284068,-0.787400,0.284068,-0.767996,0.343787,-0.757642,0.355910,
-0.355910,0.757642,-0.299962,0.786149,-0.284068,0.787400,0.284068,0.787400,0.343787,0.767996,0.343787,0.767996,$1*%
%AMFreePoly1*
4,1,25,0.618907,1.432196,0.631030,1.421842,1.421842,0.631030,1.450349,0.575082,1.451600,0.559188,1.451600,-0.559188,1.432196,-0.618907,1.421842,-0.631030,0.631030,-1.421842,0.575082,-1.450349,0.559188,-1.451600,-0.559188,-1.451600,-0.618907,-1.432196,-0.631030,-1.421842,-1.421842,-0.631030,-1.450349,-0.575082,-1.451600,-0.559188,-1.451600,0.559188,-1.432196,0.618907,-1.421842,0.631030,
-0.631030,1.421842,-0.575082,1.450349,-0.559188,1.451600,0.559188,1.451600,0.618907,1.432196,0.618907,1.432196,$1*%
G04 Aperture macros list end*
%ADD10FreePoly0,180.000000*%
%ADD11FreePoly1,0.000000*%
%ADD12C,1.850000*%
%ADD13C,2.978200*%
%ADD14RoundRect,0.101600X-0.800000X-0.901500X0.800000X-0.901500X0.800000X0.901500X-0.800000X0.901500X0*%
%ADD15C,1.553200*%
%ADD16C,6.045200*%
%ADD17FreePoly0,0.000000*%
%ADD18C,1.574800*%
%ADD19C,3.505200*%
%ADD20C,2.540000*%
G04 APERTURE END LIST*
D10*
%TO.C,PBI_PORT0*%
X214884000Y-104178100D03*
X214884000Y-106718100D03*
X212344000Y-104178100D03*
X212344000Y-106718100D03*
X209804000Y-104178100D03*
X209804000Y-106718100D03*
X207264000Y-104178100D03*
X207264000Y-106718100D03*
X204724000Y-104178100D03*
X204724000Y-106718100D03*
X202184000Y-104178100D03*
X202184000Y-106718100D03*
X199644000Y-104178100D03*
X199644000Y-106718100D03*
X197104000Y-104178100D03*
X197104000Y-106718100D03*
X194564000Y-104178100D03*
X194564000Y-106718100D03*
X192024000Y-104178100D03*
X192024000Y-106718100D03*
X189484000Y-104178100D03*
X189484000Y-106718100D03*
X186944000Y-104178100D03*
X186944000Y-106718100D03*
X184404000Y-104178100D03*
X184404000Y-106718100D03*
X181864000Y-104178100D03*
X181864000Y-106718100D03*
X179324000Y-104178100D03*
X179324000Y-106718100D03*
X176784000Y-104178100D03*
X176784000Y-106718100D03*
X174244000Y-104178100D03*
X174244000Y-106718100D03*
X171704000Y-104178100D03*
X171704000Y-106718100D03*
X169164000Y-104178100D03*
X169164000Y-106718100D03*
X166624000Y-104178100D03*
X166624000Y-106718100D03*
X164084000Y-104178100D03*
X164084000Y-106718100D03*
X161544000Y-104178100D03*
X161544000Y-106718100D03*
X159004000Y-104178100D03*
X159004000Y-106718100D03*
X156464000Y-104178100D03*
X156464000Y-106718100D03*
X153924000Y-104178100D03*
X153924000Y-106718100D03*
%TD*%
D11*
%TO.C,U$6*%
X86817200Y-117919500D03*
X90777200Y-117919500D03*
%TD*%
D12*
%TO.C,SW1*%
X93700600Y-86474300D03*
X98780600Y-86474300D03*
D13*
X96240600Y-99174300D03*
X96240600Y-102984300D03*
X96240600Y-106794300D03*
%TD*%
D14*
%TO.C,PF1*%
X86868400Y-109562900D03*
X89712400Y-109562900D03*
%TD*%
D15*
%TO.C,CARTRIDGE_PORT0*%
X202158600Y-86931500D03*
X199618600Y-86931500D03*
X197078600Y-86931500D03*
X194538600Y-86931500D03*
X191998600Y-86931500D03*
X189458600Y-86931500D03*
X186918600Y-86931500D03*
X184378600Y-86931500D03*
X181838600Y-86931500D03*
X179298600Y-86931500D03*
X176758600Y-86931500D03*
X174218600Y-86931500D03*
X171678600Y-86931500D03*
X169138600Y-86931500D03*
X166598600Y-86931500D03*
X202158600Y-92011500D03*
X199618600Y-92011500D03*
X197078600Y-92011500D03*
X194538600Y-92011500D03*
X191998600Y-92011500D03*
X189458600Y-92011500D03*
X186918600Y-92011500D03*
X184378600Y-92011500D03*
X181838600Y-92011500D03*
X179298600Y-92011500D03*
X176758600Y-92011500D03*
X174218600Y-92011500D03*
X171678600Y-92011500D03*
X169138600Y-92011500D03*
X166598600Y-92011500D03*
%TD*%
D16*
%TO.C,H3*%
X161519800Y-97259900D03*
%TD*%
D17*
%TO.C,PBI_CART_INT0*%
X153670000Y-119900700D03*
X153670000Y-117360700D03*
X156210000Y-119900700D03*
X156210000Y-117360700D03*
X158750000Y-119900700D03*
X158750000Y-117360700D03*
X161290000Y-119900700D03*
X161290000Y-117360700D03*
X163830000Y-119900700D03*
X163830000Y-117360700D03*
X166370000Y-119900700D03*
X166370000Y-117360700D03*
X168910000Y-119900700D03*
X168910000Y-117360700D03*
X171450000Y-119900700D03*
X171450000Y-117360700D03*
X173990000Y-119900700D03*
X173990000Y-117360700D03*
X176530000Y-119900700D03*
X176530000Y-117360700D03*
X179070000Y-119900700D03*
X179070000Y-117360700D03*
X181610000Y-119900700D03*
X181610000Y-117360700D03*
X184150000Y-119900700D03*
X184150000Y-117360700D03*
X186690000Y-119900700D03*
X186690000Y-117360700D03*
X189230000Y-119900700D03*
X189230000Y-117360700D03*
X191770000Y-119900700D03*
X191770000Y-117360700D03*
X194310000Y-119900700D03*
X194310000Y-117360700D03*
X196850000Y-119900700D03*
X196850000Y-117360700D03*
X199390000Y-119900700D03*
X199390000Y-117360700D03*
X201930000Y-119900700D03*
X201930000Y-117360700D03*
%TD*%
D16*
%TO.C,H2*%
X214858600Y-118023300D03*
%TD*%
D18*
%TO.C,POWER_IN0*%
X85712621Y-96827341D03*
X85712621Y-98808541D03*
X83212621Y-96827341D03*
D19*
X78442821Y-94109541D03*
X90482421Y-94109541D03*
D18*
X83212621Y-98808541D03*
%TD*%
D17*
%TO.C,SIO_INT0*%
X129819400Y-119900700D03*
X129819400Y-117360700D03*
X132359400Y-119900700D03*
X132359400Y-117360700D03*
X134899400Y-119900700D03*
X134899400Y-117360700D03*
X137439400Y-119900700D03*
X137439400Y-117360700D03*
X139979400Y-119900700D03*
X139979400Y-117360700D03*
%TD*%
D20*
%TO.C,SIO_PORT0*%
X143840200Y-89293700D03*
X104470200Y-89293700D03*
D15*
X134823200Y-100088700D03*
X133045200Y-97009200D03*
X131267200Y-100088700D03*
X129489200Y-97009200D03*
X127711200Y-100088700D03*
X125933200Y-97009200D03*
X124155200Y-100088700D03*
X122377200Y-97009200D03*
X120599200Y-100088700D03*
X118821200Y-97009200D03*
X117043200Y-100088700D03*
X115265200Y-97009200D03*
X113487200Y-100088700D03*
%TD*%
D16*
%TO.C,H1*%
X115011200Y-108269700D03*
%TD*%
M02*
