M48
; DRILL file {KiCad 9.0.7} date 2026-08-08T12:28:41+0200
; FORMAT={-:-/ absolute / metric / decimal}
; #@! TF.CreationDate,2026-08-08T12:28:41+02:00
; #@! TF.GenerationSoftware,Kicad,Pcbnew,9.0.7
; #@! TF.FileFunction,Plated,1,4,PTH
FMAT,2
METRIC
; #@! TA.AperFunction,Plated,PTH,ViaDrill
T1C0.305
; #@! TA.AperFunction,Plated,PTH,ViaDrill
T2C0.508
; #@! TA.AperFunction,Plated,PTH,ViaDrill
T3C0.600
; #@! TA.AperFunction,Plated,PTH,ComponentDrill
T4C0.900
; #@! TA.AperFunction,Plated,PTH,ComponentDrill
T5C0.914
; #@! TA.AperFunction,Plated,PTH,ComponentDrill
T6C1.800
; #@! TA.AperFunction,Plated,PTH,ComponentDrill
T7C1.850
; #@! TA.AperFunction,Plated,PTH,ComponentDrill
T8C2.286
; #@! TA.AperFunction,Plated,PTH,ComponentDrill
T9C3.200
; #@! TA.AperFunction,Plated,PTH,ComponentDrill
T10C3.600
%
G90
G05
T1
X133.629Y-105.397
X159.283Y-92.215
X169.672Y-101.587
X172.707Y-110.325
X173.025Y-97.625
X173.342Y-114.77
X173.977Y-113.182
X174.612Y-116.04
X175.882Y-101.117
X177.47Y-114.452
X178.105Y-109.69
X178.117Y-107.582
X180.01Y-112.865
X180.01Y-114.77
X180.327Y-105.88
X180.645Y-109.69
X181.597Y-122.39
X182.232Y-114.77
X182.232Y-121.755
X182.867Y-109.055
X183.185Y-103.022
X184.429Y-110.35
X184.455Y-96.672
X185.407Y-96.672
X186.36Y-115.405
X186.995Y-103.022
X186.995Y-118.58
X187.007Y-90.17
X187.312Y-114.135
X187.63Y-95.72
X187.63Y-121.755
X190.17Y-110.325
X195.567Y-122.072
X196.837Y-96.99
X196.837Y-98.26
X196.837Y-101.117
X196.837Y-108.42
X197.472Y-111.595
X197.472Y-112.865
X197.79Y-112.23
X199.06Y-113.5
X199.53Y-121.12
X200.012Y-110.96
X200.012Y-114.452
X200.647Y-101.752
X203.683Y-118.554
X203.683Y-122.707
X205.092Y-101.752
X206.68Y-101.752
X208.001Y-114.338
X209.22Y-109.69
X212.077Y-102.387
T2
X148.107Y-105.981
X148.158Y-102.171
T3
X150.851Y-106.693
X159.131Y-101.536
X161.569Y-109.182
X179.349Y-100.165
X191.897Y-100.292
X212.776Y-101.028
T4
X113.487Y-100.089
X115.265Y-97.009
X117.043Y-100.089
X118.821Y-97.009
X120.599Y-100.089
X122.377Y-97.009
X124.155Y-100.089
X125.933Y-97.009
X127.711Y-100.089
X129.489Y-97.009
X131.267Y-100.089
X133.045Y-97.009
X134.823Y-100.089
X166.599Y-86.931
X166.599Y-92.011
X169.139Y-86.931
X169.139Y-92.011
X171.679Y-86.931
X171.679Y-92.011
X174.219Y-86.931
X174.219Y-92.011
X176.759Y-86.931
X176.759Y-92.011
X179.299Y-86.931
X179.299Y-92.011
X181.839Y-86.931
X181.839Y-92.011
X184.379Y-86.931
X184.379Y-92.011
X186.919Y-86.931
X186.919Y-92.011
X189.459Y-86.931
X189.459Y-92.011
X191.999Y-86.931
X191.999Y-92.011
X194.539Y-86.931
X194.539Y-92.011
X197.079Y-86.931
X197.079Y-92.011
X199.619Y-86.931
X199.619Y-92.011
X202.159Y-86.931
X202.159Y-92.011
T5
X83.213Y-96.827
X83.213Y-98.809
X85.713Y-96.827
X85.713Y-98.809
X129.819Y-117.361
X129.819Y-119.901
X132.359Y-117.361
X132.359Y-119.901
X134.899Y-117.361
X134.899Y-119.901
X137.439Y-117.361
X137.439Y-119.901
X139.979Y-117.361
X139.979Y-119.901
X153.67Y-117.361
X153.67Y-119.901
X153.924Y-104.178
X153.924Y-106.718
X156.21Y-117.361
X156.21Y-119.901
X156.464Y-104.178
X156.464Y-106.718
X158.75Y-117.361
X158.75Y-119.901
X159.004Y-104.178
X159.004Y-106.718
X161.29Y-117.361
X161.29Y-119.901
X161.544Y-104.178
X161.544Y-106.718
X163.83Y-117.361
X163.83Y-119.901
X164.084Y-104.178
X164.084Y-106.718
X166.37Y-117.361
X166.37Y-119.901
X166.624Y-104.178
X166.624Y-106.718
X168.91Y-117.361
X168.91Y-119.901
X169.164Y-104.178
X169.164Y-106.718
X171.45Y-117.361
X171.45Y-119.901
X171.704Y-104.178
X171.704Y-106.718
X173.99Y-117.361
X173.99Y-119.901
X174.244Y-104.178
X174.244Y-106.718
X176.53Y-117.361
X176.53Y-119.901
X176.784Y-104.178
X176.784Y-106.718
X179.07Y-117.361
X179.07Y-119.901
X179.324Y-104.178
X179.324Y-106.718
X181.61Y-117.361
X181.61Y-119.901
X181.864Y-104.178
X181.864Y-106.718
X184.15Y-117.361
X184.15Y-119.901
X184.404Y-104.178
X184.404Y-106.718
X186.69Y-117.361
X186.69Y-119.901
X186.944Y-104.178
X186.944Y-106.718
X189.23Y-117.361
X189.23Y-119.901
X189.484Y-104.178
X189.484Y-106.718
X191.77Y-117.361
X191.77Y-119.901
X192.024Y-104.178
X192.024Y-106.718
X194.31Y-117.361
X194.31Y-119.901
X194.564Y-104.178
X194.564Y-106.718
X196.85Y-117.361
X196.85Y-119.901
X197.104Y-104.178
X197.104Y-106.718
X199.39Y-117.361
X199.39Y-119.901
X199.644Y-104.178
X199.644Y-106.718
X201.93Y-117.361
X201.93Y-119.901
X202.184Y-104.178
X202.184Y-106.718
X204.724Y-104.178
X204.724Y-106.718
X207.264Y-104.178
X207.264Y-106.718
X209.804Y-104.178
X209.804Y-106.718
X212.344Y-104.178
X212.344Y-106.718
X214.884Y-104.178
X214.884Y-106.718
T6
X86.817Y-117.919
X90.777Y-117.919
T7
X96.241Y-99.174
X96.241Y-102.984
X96.241Y-106.794
T8
X78.443Y-94.11
X90.482Y-94.11
T9
X161.52Y-97.26
T10
X115.011Y-108.27
X214.859Y-118.023
M30
