%TF.GenerationSoftware,KiCad,Pcbnew,9.0.7*%
%TF.CreationDate,2026-08-08T12:28:45+02:00*%
%TF.ProjectId,eclaireXLv1sub,65636c61-6972-4655-984c-76317375622e,rev?*%
%TF.SameCoordinates,Original*%
%TF.FileFunction,Legend,Top*%
%TF.FilePolarity,Positive*%
%FSLAX46Y46*%
G04 Gerber Fmt 4.6, Leading zero omitted, Abs format (unit mm)*
G04 Created by KiCad (PCBNEW 9.0.7) date 2026-08-08 12:28:45*
%MOMM*%
%LPD*%
G01*
G04 APERTURE LIST*
%ADD10C,0.381000*%
%ADD11C,0.266700*%
%ADD12C,0.182880*%
%ADD13C,0.240030*%
%ADD14C,0.127000*%
%ADD15C,0.140208*%
%ADD16C,0.175260*%
%ADD17C,0.198120*%
%ADD18C,0.050800*%
%ADD19C,0.406400*%
%ADD20C,0.152400*%
%ADD21C,0.203200*%
G04 APERTURE END LIST*
D10*
X90690866Y-123394132D02*
X92335819Y-123394132D01*
D11*
X94489893Y-120824768D02*
X94489893Y-119313468D01*
X94489893Y-119313468D02*
X94993660Y-120392968D01*
X94993660Y-120392968D02*
X95497426Y-119313468D01*
X95497426Y-119313468D02*
X95497426Y-120824768D01*
X96864793Y-120824768D02*
X96864793Y-120033135D01*
X96864793Y-120033135D02*
X96792826Y-119889202D01*
X96792826Y-119889202D02*
X96648893Y-119817235D01*
X96648893Y-119817235D02*
X96361026Y-119817235D01*
X96361026Y-119817235D02*
X96217093Y-119889202D01*
X96864793Y-120752802D02*
X96720860Y-120824768D01*
X96720860Y-120824768D02*
X96361026Y-120824768D01*
X96361026Y-120824768D02*
X96217093Y-120752802D01*
X96217093Y-120752802D02*
X96145126Y-120608868D01*
X96145126Y-120608868D02*
X96145126Y-120464935D01*
X96145126Y-120464935D02*
X96217093Y-120321002D01*
X96217093Y-120321002D02*
X96361026Y-120249035D01*
X96361026Y-120249035D02*
X96720860Y-120249035D01*
X96720860Y-120249035D02*
X96864793Y-120177068D01*
X97584460Y-120824768D02*
X97584460Y-119817235D01*
X97584460Y-120105102D02*
X97656427Y-119961168D01*
X97656427Y-119961168D02*
X97728393Y-119889202D01*
X97728393Y-119889202D02*
X97872327Y-119817235D01*
X97872327Y-119817235D02*
X98016260Y-119817235D01*
X98520027Y-120824768D02*
X98520027Y-119313468D01*
X98663960Y-120249035D02*
X99095760Y-120824768D01*
X99095760Y-119817235D02*
X98520027Y-120392968D01*
X100750994Y-119313468D02*
X101110827Y-120824768D01*
X101110827Y-120824768D02*
X101398694Y-119745268D01*
X101398694Y-119745268D02*
X101686560Y-120824768D01*
X101686560Y-120824768D02*
X102046394Y-119313468D01*
X103269827Y-120824768D02*
X103269827Y-120033135D01*
X103269827Y-120033135D02*
X103197860Y-119889202D01*
X103197860Y-119889202D02*
X103053927Y-119817235D01*
X103053927Y-119817235D02*
X102766060Y-119817235D01*
X102766060Y-119817235D02*
X102622127Y-119889202D01*
X103269827Y-120752802D02*
X103125894Y-120824768D01*
X103125894Y-120824768D02*
X102766060Y-120824768D01*
X102766060Y-120824768D02*
X102622127Y-120752802D01*
X102622127Y-120752802D02*
X102550160Y-120608868D01*
X102550160Y-120608868D02*
X102550160Y-120464935D01*
X102550160Y-120464935D02*
X102622127Y-120321002D01*
X102622127Y-120321002D02*
X102766060Y-120249035D01*
X102766060Y-120249035D02*
X103125894Y-120249035D01*
X103125894Y-120249035D02*
X103269827Y-120177068D01*
X103773594Y-119817235D02*
X104349327Y-119817235D01*
X103989494Y-119313468D02*
X103989494Y-120608868D01*
X103989494Y-120608868D02*
X104061461Y-120752802D01*
X104061461Y-120752802D02*
X104205394Y-120824768D01*
X104205394Y-120824768D02*
X104349327Y-120824768D01*
X104781127Y-120752802D02*
X104925061Y-120824768D01*
X104925061Y-120824768D02*
X105212927Y-120824768D01*
X105212927Y-120824768D02*
X105356861Y-120752802D01*
X105356861Y-120752802D02*
X105428827Y-120608868D01*
X105428827Y-120608868D02*
X105428827Y-120536902D01*
X105428827Y-120536902D02*
X105356861Y-120392968D01*
X105356861Y-120392968D02*
X105212927Y-120321002D01*
X105212927Y-120321002D02*
X104997027Y-120321002D01*
X104997027Y-120321002D02*
X104853094Y-120249035D01*
X104853094Y-120249035D02*
X104781127Y-120105102D01*
X104781127Y-120105102D02*
X104781127Y-120033135D01*
X104781127Y-120033135D02*
X104853094Y-119889202D01*
X104853094Y-119889202D02*
X104997027Y-119817235D01*
X104997027Y-119817235D02*
X105212927Y-119817235D01*
X105212927Y-119817235D02*
X105356861Y-119889202D01*
X106292427Y-120824768D02*
X106148494Y-120752802D01*
X106148494Y-120752802D02*
X106076527Y-120680835D01*
X106076527Y-120680835D02*
X106004560Y-120536902D01*
X106004560Y-120536902D02*
X106004560Y-120105102D01*
X106004560Y-120105102D02*
X106076527Y-119961168D01*
X106076527Y-119961168D02*
X106148494Y-119889202D01*
X106148494Y-119889202D02*
X106292427Y-119817235D01*
X106292427Y-119817235D02*
X106508327Y-119817235D01*
X106508327Y-119817235D02*
X106652260Y-119889202D01*
X106652260Y-119889202D02*
X106724227Y-119961168D01*
X106724227Y-119961168D02*
X106796194Y-120105102D01*
X106796194Y-120105102D02*
X106796194Y-120536902D01*
X106796194Y-120536902D02*
X106724227Y-120680835D01*
X106724227Y-120680835D02*
X106652260Y-120752802D01*
X106652260Y-120752802D02*
X106508327Y-120824768D01*
X106508327Y-120824768D02*
X106292427Y-120824768D01*
X107443894Y-119817235D02*
X107443894Y-120824768D01*
X107443894Y-119961168D02*
X107515861Y-119889202D01*
X107515861Y-119889202D02*
X107659794Y-119817235D01*
X107659794Y-119817235D02*
X107875694Y-119817235D01*
X107875694Y-119817235D02*
X108019627Y-119889202D01*
X108019627Y-119889202D02*
X108091594Y-120033135D01*
X108091594Y-120033135D02*
X108091594Y-120824768D01*
X111186161Y-120824768D02*
X111114195Y-120824768D01*
X111114195Y-120824768D02*
X110970261Y-120752802D01*
X110970261Y-120752802D02*
X110754361Y-120536902D01*
X110754361Y-120536902D02*
X110394528Y-120105102D01*
X110394528Y-120105102D02*
X110250595Y-119889202D01*
X110250595Y-119889202D02*
X110178628Y-119673302D01*
X110178628Y-119673302D02*
X110178628Y-119529368D01*
X110178628Y-119529368D02*
X110250595Y-119385435D01*
X110250595Y-119385435D02*
X110394528Y-119313468D01*
X110394528Y-119313468D02*
X110466495Y-119313468D01*
X110466495Y-119313468D02*
X110610428Y-119385435D01*
X110610428Y-119385435D02*
X110682395Y-119529368D01*
X110682395Y-119529368D02*
X110682395Y-119601335D01*
X110682395Y-119601335D02*
X110610428Y-119745268D01*
X110610428Y-119745268D02*
X110538461Y-119817235D01*
X110538461Y-119817235D02*
X110106661Y-120105102D01*
X110106661Y-120105102D02*
X110034695Y-120177068D01*
X110034695Y-120177068D02*
X109962728Y-120321002D01*
X109962728Y-120321002D02*
X109962728Y-120536902D01*
X109962728Y-120536902D02*
X110034695Y-120680835D01*
X110034695Y-120680835D02*
X110106661Y-120752802D01*
X110106661Y-120752802D02*
X110250595Y-120824768D01*
X110250595Y-120824768D02*
X110466495Y-120824768D01*
X110466495Y-120824768D02*
X110610428Y-120752802D01*
X110610428Y-120752802D02*
X110682395Y-120680835D01*
X110682395Y-120680835D02*
X110898295Y-120392968D01*
X110898295Y-120392968D02*
X110970261Y-120177068D01*
X110970261Y-120177068D02*
X110970261Y-120033135D01*
X94489893Y-123257876D02*
X94489893Y-121746576D01*
X94489893Y-121746576D02*
X95065626Y-121746576D01*
X95065626Y-121746576D02*
X95209560Y-121818543D01*
X95209560Y-121818543D02*
X95281526Y-121890510D01*
X95281526Y-121890510D02*
X95353493Y-122034443D01*
X95353493Y-122034443D02*
X95353493Y-122250343D01*
X95353493Y-122250343D02*
X95281526Y-122394276D01*
X95281526Y-122394276D02*
X95209560Y-122466243D01*
X95209560Y-122466243D02*
X95065626Y-122538210D01*
X95065626Y-122538210D02*
X94489893Y-122538210D01*
X96648893Y-123257876D02*
X96648893Y-122466243D01*
X96648893Y-122466243D02*
X96576926Y-122322310D01*
X96576926Y-122322310D02*
X96432993Y-122250343D01*
X96432993Y-122250343D02*
X96145126Y-122250343D01*
X96145126Y-122250343D02*
X96001193Y-122322310D01*
X96648893Y-123185910D02*
X96504960Y-123257876D01*
X96504960Y-123257876D02*
X96145126Y-123257876D01*
X96145126Y-123257876D02*
X96001193Y-123185910D01*
X96001193Y-123185910D02*
X95929226Y-123041976D01*
X95929226Y-123041976D02*
X95929226Y-122898043D01*
X95929226Y-122898043D02*
X96001193Y-122754110D01*
X96001193Y-122754110D02*
X96145126Y-122682143D01*
X96145126Y-122682143D02*
X96504960Y-122682143D01*
X96504960Y-122682143D02*
X96648893Y-122610176D01*
X97368560Y-122250343D02*
X97368560Y-123257876D01*
X97368560Y-122394276D02*
X97440527Y-122322310D01*
X97440527Y-122322310D02*
X97584460Y-122250343D01*
X97584460Y-122250343D02*
X97800360Y-122250343D01*
X97800360Y-122250343D02*
X97944293Y-122322310D01*
X97944293Y-122322310D02*
X98016260Y-122466243D01*
X98016260Y-122466243D02*
X98016260Y-123257876D01*
X98951827Y-123257876D02*
X98807894Y-123185910D01*
X98807894Y-123185910D02*
X98735927Y-123113943D01*
X98735927Y-123113943D02*
X98663960Y-122970010D01*
X98663960Y-122970010D02*
X98663960Y-122538210D01*
X98663960Y-122538210D02*
X98735927Y-122394276D01*
X98735927Y-122394276D02*
X98807894Y-122322310D01*
X98807894Y-122322310D02*
X98951827Y-122250343D01*
X98951827Y-122250343D02*
X99167727Y-122250343D01*
X99167727Y-122250343D02*
X99311660Y-122322310D01*
X99311660Y-122322310D02*
X99383627Y-122394276D01*
X99383627Y-122394276D02*
X99455594Y-122538210D01*
X99455594Y-122538210D02*
X99455594Y-122970010D01*
X99455594Y-122970010D02*
X99383627Y-123113943D01*
X99383627Y-123113943D02*
X99311660Y-123185910D01*
X99311660Y-123185910D02*
X99167727Y-123257876D01*
X99167727Y-123257876D02*
X98951827Y-123257876D01*
X100031327Y-123185910D02*
X100175261Y-123257876D01*
X100175261Y-123257876D02*
X100463127Y-123257876D01*
X100463127Y-123257876D02*
X100607061Y-123185910D01*
X100607061Y-123185910D02*
X100679027Y-123041976D01*
X100679027Y-123041976D02*
X100679027Y-122970010D01*
X100679027Y-122970010D02*
X100607061Y-122826076D01*
X100607061Y-122826076D02*
X100463127Y-122754110D01*
X100463127Y-122754110D02*
X100247227Y-122754110D01*
X100247227Y-122754110D02*
X100103294Y-122682143D01*
X100103294Y-122682143D02*
X100031327Y-122538210D01*
X100031327Y-122538210D02*
X100031327Y-122466243D01*
X100031327Y-122466243D02*
X100103294Y-122322310D01*
X100103294Y-122322310D02*
X100247227Y-122250343D01*
X100247227Y-122250343D02*
X100463127Y-122250343D01*
X100463127Y-122250343D02*
X100607061Y-122322310D01*
X102406227Y-123185910D02*
X102622127Y-123257876D01*
X102622127Y-123257876D02*
X102981961Y-123257876D01*
X102981961Y-123257876D02*
X103125894Y-123185910D01*
X103125894Y-123185910D02*
X103197861Y-123113943D01*
X103197861Y-123113943D02*
X103269827Y-122970010D01*
X103269827Y-122970010D02*
X103269827Y-122826076D01*
X103269827Y-122826076D02*
X103197861Y-122682143D01*
X103197861Y-122682143D02*
X103125894Y-122610176D01*
X103125894Y-122610176D02*
X102981961Y-122538210D01*
X102981961Y-122538210D02*
X102694094Y-122466243D01*
X102694094Y-122466243D02*
X102550161Y-122394276D01*
X102550161Y-122394276D02*
X102478194Y-122322310D01*
X102478194Y-122322310D02*
X102406227Y-122178376D01*
X102406227Y-122178376D02*
X102406227Y-122034443D01*
X102406227Y-122034443D02*
X102478194Y-121890510D01*
X102478194Y-121890510D02*
X102550161Y-121818543D01*
X102550161Y-121818543D02*
X102694094Y-121746576D01*
X102694094Y-121746576D02*
X103053927Y-121746576D01*
X103053927Y-121746576D02*
X103269827Y-121818543D01*
X104565227Y-123257876D02*
X104565227Y-122466243D01*
X104565227Y-122466243D02*
X104493260Y-122322310D01*
X104493260Y-122322310D02*
X104349327Y-122250343D01*
X104349327Y-122250343D02*
X104061460Y-122250343D01*
X104061460Y-122250343D02*
X103917527Y-122322310D01*
X104565227Y-123185910D02*
X104421294Y-123257876D01*
X104421294Y-123257876D02*
X104061460Y-123257876D01*
X104061460Y-123257876D02*
X103917527Y-123185910D01*
X103917527Y-123185910D02*
X103845560Y-123041976D01*
X103845560Y-123041976D02*
X103845560Y-122898043D01*
X103845560Y-122898043D02*
X103917527Y-122754110D01*
X103917527Y-122754110D02*
X104061460Y-122682143D01*
X104061460Y-122682143D02*
X104421294Y-122682143D01*
X104421294Y-122682143D02*
X104565227Y-122610176D01*
X105284894Y-122250343D02*
X105284894Y-123257876D01*
X105284894Y-122394276D02*
X105356861Y-122322310D01*
X105356861Y-122322310D02*
X105500794Y-122250343D01*
X105500794Y-122250343D02*
X105716694Y-122250343D01*
X105716694Y-122250343D02*
X105860627Y-122322310D01*
X105860627Y-122322310D02*
X105932594Y-122466243D01*
X105932594Y-122466243D02*
X105932594Y-123257876D01*
X106436361Y-122250343D02*
X107012094Y-122250343D01*
X106652261Y-121746576D02*
X106652261Y-123041976D01*
X106652261Y-123041976D02*
X106724228Y-123185910D01*
X106724228Y-123185910D02*
X106868161Y-123257876D01*
X106868161Y-123257876D02*
X107012094Y-123257876D01*
X107731761Y-123257876D02*
X107587828Y-123185910D01*
X107587828Y-123185910D02*
X107515861Y-123113943D01*
X107515861Y-123113943D02*
X107443894Y-122970010D01*
X107443894Y-122970010D02*
X107443894Y-122538210D01*
X107443894Y-122538210D02*
X107515861Y-122394276D01*
X107515861Y-122394276D02*
X107587828Y-122322310D01*
X107587828Y-122322310D02*
X107731761Y-122250343D01*
X107731761Y-122250343D02*
X107947661Y-122250343D01*
X107947661Y-122250343D02*
X108091594Y-122322310D01*
X108091594Y-122322310D02*
X108163561Y-122394276D01*
X108163561Y-122394276D02*
X108235528Y-122538210D01*
X108235528Y-122538210D02*
X108235528Y-122970010D01*
X108235528Y-122970010D02*
X108163561Y-123113943D01*
X108163561Y-123113943D02*
X108091594Y-123185910D01*
X108091594Y-123185910D02*
X107947661Y-123257876D01*
X107947661Y-123257876D02*
X107731761Y-123257876D01*
X108811261Y-123185910D02*
X108955195Y-123257876D01*
X108955195Y-123257876D02*
X109243061Y-123257876D01*
X109243061Y-123257876D02*
X109386995Y-123185910D01*
X109386995Y-123185910D02*
X109458961Y-123041976D01*
X109458961Y-123041976D02*
X109458961Y-122970010D01*
X109458961Y-122970010D02*
X109386995Y-122826076D01*
X109386995Y-122826076D02*
X109243061Y-122754110D01*
X109243061Y-122754110D02*
X109027161Y-122754110D01*
X109027161Y-122754110D02*
X108883228Y-122682143D01*
X108883228Y-122682143D02*
X108811261Y-122538210D01*
X108811261Y-122538210D02*
X108811261Y-122466243D01*
X108811261Y-122466243D02*
X108883228Y-122322310D01*
X108883228Y-122322310D02*
X109027161Y-122250343D01*
X109027161Y-122250343D02*
X109243061Y-122250343D01*
X109243061Y-122250343D02*
X109386995Y-122322310D01*
D12*
X77413240Y-112518542D02*
X78179595Y-112518542D01*
X77796417Y-113859662D02*
X77796417Y-112518542D01*
X78882086Y-112518542D02*
X79137538Y-112518542D01*
X79137538Y-112518542D02*
X79265263Y-112582405D01*
X79265263Y-112582405D02*
X79392989Y-112710131D01*
X79392989Y-112710131D02*
X79456852Y-112965582D01*
X79456852Y-112965582D02*
X79456852Y-113412622D01*
X79456852Y-113412622D02*
X79392989Y-113668074D01*
X79392989Y-113668074D02*
X79265263Y-113795800D01*
X79265263Y-113795800D02*
X79137538Y-113859662D01*
X79137538Y-113859662D02*
X78882086Y-113859662D01*
X78882086Y-113859662D02*
X78754361Y-113795800D01*
X78754361Y-113795800D02*
X78626635Y-113668074D01*
X78626635Y-113668074D02*
X78562772Y-113412622D01*
X78562772Y-113412622D02*
X78562772Y-112965582D01*
X78562772Y-112965582D02*
X78626635Y-112710131D01*
X78626635Y-112710131D02*
X78754361Y-112582405D01*
X78754361Y-112582405D02*
X78882086Y-112518542D01*
X81053424Y-113859662D02*
X81053424Y-112518542D01*
X81053424Y-112518542D02*
X81500464Y-113476485D01*
X81500464Y-113476485D02*
X81947504Y-112518542D01*
X81947504Y-112518542D02*
X81947504Y-113859662D01*
X82522270Y-113476485D02*
X83160899Y-113476485D01*
X82394544Y-113859662D02*
X82841584Y-112518542D01*
X82841584Y-112518542D02*
X83288624Y-113859662D01*
X83735664Y-113859662D02*
X83735664Y-112518542D01*
X84374293Y-113859662D02*
X84374293Y-112518542D01*
X84374293Y-112518542D02*
X85140647Y-113859662D01*
X85140647Y-113859662D02*
X85140647Y-112518542D01*
X87248122Y-113157171D02*
X87439710Y-113221034D01*
X87439710Y-113221034D02*
X87503573Y-113284897D01*
X87503573Y-113284897D02*
X87567436Y-113412622D01*
X87567436Y-113412622D02*
X87567436Y-113604211D01*
X87567436Y-113604211D02*
X87503573Y-113731937D01*
X87503573Y-113731937D02*
X87439710Y-113795800D01*
X87439710Y-113795800D02*
X87311985Y-113859662D01*
X87311985Y-113859662D02*
X86801082Y-113859662D01*
X86801082Y-113859662D02*
X86801082Y-112518542D01*
X86801082Y-112518542D02*
X87248122Y-112518542D01*
X87248122Y-112518542D02*
X87375848Y-112582405D01*
X87375848Y-112582405D02*
X87439710Y-112646268D01*
X87439710Y-112646268D02*
X87503573Y-112773994D01*
X87503573Y-112773994D02*
X87503573Y-112901720D01*
X87503573Y-112901720D02*
X87439710Y-113029445D01*
X87439710Y-113029445D02*
X87375848Y-113093308D01*
X87375848Y-113093308D02*
X87248122Y-113157171D01*
X87248122Y-113157171D02*
X86801082Y-113157171D01*
X88908556Y-113859662D02*
X88461516Y-113221034D01*
X88142202Y-113859662D02*
X88142202Y-112518542D01*
X88142202Y-112518542D02*
X88653105Y-112518542D01*
X88653105Y-112518542D02*
X88780830Y-112582405D01*
X88780830Y-112582405D02*
X88844693Y-112646268D01*
X88844693Y-112646268D02*
X88908556Y-112773994D01*
X88908556Y-112773994D02*
X88908556Y-112965582D01*
X88908556Y-112965582D02*
X88844693Y-113093308D01*
X88844693Y-113093308D02*
X88780830Y-113157171D01*
X88780830Y-113157171D02*
X88653105Y-113221034D01*
X88653105Y-113221034D02*
X88142202Y-113221034D01*
X89483322Y-113859662D02*
X89483322Y-112518542D01*
X89483322Y-112518542D02*
X89802636Y-112518542D01*
X89802636Y-112518542D02*
X89994225Y-112582405D01*
X89994225Y-112582405D02*
X90121950Y-112710131D01*
X90121950Y-112710131D02*
X90185813Y-112837857D01*
X90185813Y-112837857D02*
X90249676Y-113093308D01*
X90249676Y-113093308D02*
X90249676Y-113284897D01*
X90249676Y-113284897D02*
X90185813Y-113540348D01*
X90185813Y-113540348D02*
X90121950Y-113668074D01*
X90121950Y-113668074D02*
X89994225Y-113795800D01*
X89994225Y-113795800D02*
X89802636Y-113859662D01*
X89802636Y-113859662D02*
X89483322Y-113859662D01*
D10*
X86400804Y-123394132D02*
X88045757Y-123394132D01*
X87223280Y-124216608D02*
X87223280Y-122571656D01*
D11*
X95065626Y-115571202D02*
X94921693Y-115643168D01*
X94921693Y-115643168D02*
X94633826Y-115643168D01*
X94633826Y-115643168D02*
X94489893Y-115571202D01*
X94489893Y-115571202D02*
X94417926Y-115427268D01*
X94417926Y-115427268D02*
X94417926Y-114851535D01*
X94417926Y-114851535D02*
X94489893Y-114707602D01*
X94489893Y-114707602D02*
X94633826Y-114635635D01*
X94633826Y-114635635D02*
X94921693Y-114635635D01*
X94921693Y-114635635D02*
X95065626Y-114707602D01*
X95065626Y-114707602D02*
X95137593Y-114851535D01*
X95137593Y-114851535D02*
X95137593Y-114995468D01*
X95137593Y-114995468D02*
X94417926Y-115139402D01*
X94921693Y-114059902D02*
X94705793Y-114275802D01*
X96432993Y-115571202D02*
X96289060Y-115643168D01*
X96289060Y-115643168D02*
X96001193Y-115643168D01*
X96001193Y-115643168D02*
X95857260Y-115571202D01*
X95857260Y-115571202D02*
X95785293Y-115499235D01*
X95785293Y-115499235D02*
X95713326Y-115355302D01*
X95713326Y-115355302D02*
X95713326Y-114923502D01*
X95713326Y-114923502D02*
X95785293Y-114779568D01*
X95785293Y-114779568D02*
X95857260Y-114707602D01*
X95857260Y-114707602D02*
X96001193Y-114635635D01*
X96001193Y-114635635D02*
X96289060Y-114635635D01*
X96289060Y-114635635D02*
X96432993Y-114707602D01*
X97296593Y-115643168D02*
X97152660Y-115571202D01*
X97152660Y-115571202D02*
X97080693Y-115427268D01*
X97080693Y-115427268D02*
X97080693Y-114131868D01*
X98520026Y-115643168D02*
X98520026Y-114851535D01*
X98520026Y-114851535D02*
X98448059Y-114707602D01*
X98448059Y-114707602D02*
X98304126Y-114635635D01*
X98304126Y-114635635D02*
X98016259Y-114635635D01*
X98016259Y-114635635D02*
X97872326Y-114707602D01*
X98520026Y-115571202D02*
X98376093Y-115643168D01*
X98376093Y-115643168D02*
X98016259Y-115643168D01*
X98016259Y-115643168D02*
X97872326Y-115571202D01*
X97872326Y-115571202D02*
X97800359Y-115427268D01*
X97800359Y-115427268D02*
X97800359Y-115283335D01*
X97800359Y-115283335D02*
X97872326Y-115139402D01*
X97872326Y-115139402D02*
X98016259Y-115067435D01*
X98016259Y-115067435D02*
X98376093Y-115067435D01*
X98376093Y-115067435D02*
X98520026Y-114995468D01*
X99239693Y-115643168D02*
X99239693Y-114635635D01*
X99239693Y-114131868D02*
X99167726Y-114203835D01*
X99167726Y-114203835D02*
X99239693Y-114275802D01*
X99239693Y-114275802D02*
X99311660Y-114203835D01*
X99311660Y-114203835D02*
X99239693Y-114131868D01*
X99239693Y-114131868D02*
X99239693Y-114275802D01*
X99959360Y-115643168D02*
X99959360Y-114635635D01*
X99959360Y-114923502D02*
X100031327Y-114779568D01*
X100031327Y-114779568D02*
X100103293Y-114707602D01*
X100103293Y-114707602D02*
X100247227Y-114635635D01*
X100247227Y-114635635D02*
X100391160Y-114635635D01*
X101470660Y-115571202D02*
X101326727Y-115643168D01*
X101326727Y-115643168D02*
X101038860Y-115643168D01*
X101038860Y-115643168D02*
X100894927Y-115571202D01*
X100894927Y-115571202D02*
X100822960Y-115427268D01*
X100822960Y-115427268D02*
X100822960Y-114851535D01*
X100822960Y-114851535D02*
X100894927Y-114707602D01*
X100894927Y-114707602D02*
X101038860Y-114635635D01*
X101038860Y-114635635D02*
X101326727Y-114635635D01*
X101326727Y-114635635D02*
X101470660Y-114707602D01*
X101470660Y-114707602D02*
X101542627Y-114851535D01*
X101542627Y-114851535D02*
X101542627Y-114995468D01*
X101542627Y-114995468D02*
X100822960Y-115139402D01*
X103197861Y-114131868D02*
X104205394Y-115643168D01*
X104205394Y-114131868D02*
X103197861Y-115643168D01*
X105500794Y-115643168D02*
X104781127Y-115643168D01*
X104781127Y-115643168D02*
X104781127Y-114131868D01*
X94489893Y-118076276D02*
X94489893Y-116564976D01*
X95209560Y-117068743D02*
X95209560Y-118076276D01*
X95209560Y-117212676D02*
X95281527Y-117140710D01*
X95281527Y-117140710D02*
X95425460Y-117068743D01*
X95425460Y-117068743D02*
X95641360Y-117068743D01*
X95641360Y-117068743D02*
X95785293Y-117140710D01*
X95785293Y-117140710D02*
X95857260Y-117284643D01*
X95857260Y-117284643D02*
X95857260Y-118076276D01*
X96361027Y-117068743D02*
X96936760Y-117068743D01*
X96576927Y-116564976D02*
X96576927Y-117860376D01*
X96576927Y-117860376D02*
X96648894Y-118004310D01*
X96648894Y-118004310D02*
X96792827Y-118076276D01*
X96792827Y-118076276D02*
X96936760Y-118076276D01*
X98016260Y-118004310D02*
X97872327Y-118076276D01*
X97872327Y-118076276D02*
X97584460Y-118076276D01*
X97584460Y-118076276D02*
X97440527Y-118004310D01*
X97440527Y-118004310D02*
X97368560Y-117860376D01*
X97368560Y-117860376D02*
X97368560Y-117284643D01*
X97368560Y-117284643D02*
X97440527Y-117140710D01*
X97440527Y-117140710D02*
X97584460Y-117068743D01*
X97584460Y-117068743D02*
X97872327Y-117068743D01*
X97872327Y-117068743D02*
X98016260Y-117140710D01*
X98016260Y-117140710D02*
X98088227Y-117284643D01*
X98088227Y-117284643D02*
X98088227Y-117428576D01*
X98088227Y-117428576D02*
X97368560Y-117572510D01*
X98735927Y-118076276D02*
X98735927Y-117068743D01*
X98735927Y-117356610D02*
X98807894Y-117212676D01*
X98807894Y-117212676D02*
X98879860Y-117140710D01*
X98879860Y-117140710D02*
X99023794Y-117068743D01*
X99023794Y-117068743D02*
X99167727Y-117068743D01*
X99455594Y-117068743D02*
X100031327Y-117068743D01*
X99671494Y-118076276D02*
X99671494Y-116780876D01*
X99671494Y-116780876D02*
X99743461Y-116636943D01*
X99743461Y-116636943D02*
X99887394Y-116564976D01*
X99887394Y-116564976D02*
X100031327Y-116564976D01*
X101182794Y-118076276D02*
X101182794Y-117284643D01*
X101182794Y-117284643D02*
X101110827Y-117140710D01*
X101110827Y-117140710D02*
X100966894Y-117068743D01*
X100966894Y-117068743D02*
X100679027Y-117068743D01*
X100679027Y-117068743D02*
X100535094Y-117140710D01*
X101182794Y-118004310D02*
X101038861Y-118076276D01*
X101038861Y-118076276D02*
X100679027Y-118076276D01*
X100679027Y-118076276D02*
X100535094Y-118004310D01*
X100535094Y-118004310D02*
X100463127Y-117860376D01*
X100463127Y-117860376D02*
X100463127Y-117716443D01*
X100463127Y-117716443D02*
X100535094Y-117572510D01*
X100535094Y-117572510D02*
X100679027Y-117500543D01*
X100679027Y-117500543D02*
X101038861Y-117500543D01*
X101038861Y-117500543D02*
X101182794Y-117428576D01*
X102550161Y-118004310D02*
X102406228Y-118076276D01*
X102406228Y-118076276D02*
X102118361Y-118076276D01*
X102118361Y-118076276D02*
X101974428Y-118004310D01*
X101974428Y-118004310D02*
X101902461Y-117932343D01*
X101902461Y-117932343D02*
X101830494Y-117788410D01*
X101830494Y-117788410D02*
X101830494Y-117356610D01*
X101830494Y-117356610D02*
X101902461Y-117212676D01*
X101902461Y-117212676D02*
X101974428Y-117140710D01*
X101974428Y-117140710D02*
X102118361Y-117068743D01*
X102118361Y-117068743D02*
X102406228Y-117068743D01*
X102406228Y-117068743D02*
X102550161Y-117140710D01*
X103773594Y-118004310D02*
X103629661Y-118076276D01*
X103629661Y-118076276D02*
X103341794Y-118076276D01*
X103341794Y-118076276D02*
X103197861Y-118004310D01*
X103197861Y-118004310D02*
X103125894Y-117860376D01*
X103125894Y-117860376D02*
X103125894Y-117284643D01*
X103125894Y-117284643D02*
X103197861Y-117140710D01*
X103197861Y-117140710D02*
X103341794Y-117068743D01*
X103341794Y-117068743D02*
X103629661Y-117068743D01*
X103629661Y-117068743D02*
X103773594Y-117140710D01*
X103773594Y-117140710D02*
X103845561Y-117284643D01*
X103845561Y-117284643D02*
X103845561Y-117428576D01*
X103845561Y-117428576D02*
X103125894Y-117572510D01*
X106148495Y-117284643D02*
X106364395Y-117356610D01*
X106364395Y-117356610D02*
X106436361Y-117428576D01*
X106436361Y-117428576D02*
X106508328Y-117572510D01*
X106508328Y-117572510D02*
X106508328Y-117788410D01*
X106508328Y-117788410D02*
X106436361Y-117932343D01*
X106436361Y-117932343D02*
X106364395Y-118004310D01*
X106364395Y-118004310D02*
X106220461Y-118076276D01*
X106220461Y-118076276D02*
X105644728Y-118076276D01*
X105644728Y-118076276D02*
X105644728Y-116564976D01*
X105644728Y-116564976D02*
X106148495Y-116564976D01*
X106148495Y-116564976D02*
X106292428Y-116636943D01*
X106292428Y-116636943D02*
X106364395Y-116708910D01*
X106364395Y-116708910D02*
X106436361Y-116852843D01*
X106436361Y-116852843D02*
X106436361Y-116996776D01*
X106436361Y-116996776D02*
X106364395Y-117140710D01*
X106364395Y-117140710D02*
X106292428Y-117212676D01*
X106292428Y-117212676D02*
X106148495Y-117284643D01*
X106148495Y-117284643D02*
X105644728Y-117284643D01*
X108019628Y-118076276D02*
X107515861Y-117356610D01*
X107156028Y-118076276D02*
X107156028Y-116564976D01*
X107156028Y-116564976D02*
X107731761Y-116564976D01*
X107731761Y-116564976D02*
X107875695Y-116636943D01*
X107875695Y-116636943D02*
X107947661Y-116708910D01*
X107947661Y-116708910D02*
X108019628Y-116852843D01*
X108019628Y-116852843D02*
X108019628Y-117068743D01*
X108019628Y-117068743D02*
X107947661Y-117212676D01*
X107947661Y-117212676D02*
X107875695Y-117284643D01*
X107875695Y-117284643D02*
X107731761Y-117356610D01*
X107731761Y-117356610D02*
X107156028Y-117356610D01*
X108667328Y-118076276D02*
X108667328Y-116564976D01*
X108667328Y-116564976D02*
X109027161Y-116564976D01*
X109027161Y-116564976D02*
X109243061Y-116636943D01*
X109243061Y-116636943D02*
X109386995Y-116780876D01*
X109386995Y-116780876D02*
X109458961Y-116924810D01*
X109458961Y-116924810D02*
X109530928Y-117212676D01*
X109530928Y-117212676D02*
X109530928Y-117428576D01*
X109530928Y-117428576D02*
X109458961Y-117716443D01*
X109458961Y-117716443D02*
X109386995Y-117860376D01*
X109386995Y-117860376D02*
X109243061Y-118004310D01*
X109243061Y-118004310D02*
X109027161Y-118076276D01*
X109027161Y-118076276D02*
X108667328Y-118076276D01*
D13*
X208321497Y-99961660D02*
X208321497Y-98423690D01*
X208321497Y-98423690D02*
X208907390Y-98423690D01*
X208907390Y-98423690D02*
X209053864Y-98496927D01*
X209053864Y-98496927D02*
X209127100Y-98570164D01*
X209127100Y-98570164D02*
X209200337Y-98716637D01*
X209200337Y-98716637D02*
X209200337Y-98936347D01*
X209200337Y-98936347D02*
X209127100Y-99082820D01*
X209127100Y-99082820D02*
X209053864Y-99156057D01*
X209053864Y-99156057D02*
X208907390Y-99229294D01*
X208907390Y-99229294D02*
X208321497Y-99229294D01*
X210372124Y-99156057D02*
X210591834Y-99229294D01*
X210591834Y-99229294D02*
X210665070Y-99302530D01*
X210665070Y-99302530D02*
X210738307Y-99449004D01*
X210738307Y-99449004D02*
X210738307Y-99668714D01*
X210738307Y-99668714D02*
X210665070Y-99815187D01*
X210665070Y-99815187D02*
X210591834Y-99888424D01*
X210591834Y-99888424D02*
X210445360Y-99961660D01*
X210445360Y-99961660D02*
X209859467Y-99961660D01*
X209859467Y-99961660D02*
X209859467Y-98423690D01*
X209859467Y-98423690D02*
X210372124Y-98423690D01*
X210372124Y-98423690D02*
X210518597Y-98496927D01*
X210518597Y-98496927D02*
X210591834Y-98570164D01*
X210591834Y-98570164D02*
X210665070Y-98716637D01*
X210665070Y-98716637D02*
X210665070Y-98863110D01*
X210665070Y-98863110D02*
X210591834Y-99009584D01*
X210591834Y-99009584D02*
X210518597Y-99082820D01*
X210518597Y-99082820D02*
X210372124Y-99156057D01*
X210372124Y-99156057D02*
X209859467Y-99156057D01*
X211397437Y-99961660D02*
X211397437Y-98423690D01*
X211763621Y-100108134D02*
X212935407Y-100108134D01*
X213301591Y-99961660D02*
X213301591Y-98423690D01*
X213301591Y-98423690D02*
X213887484Y-98423690D01*
X213887484Y-98423690D02*
X214033958Y-98496927D01*
X214033958Y-98496927D02*
X214107194Y-98570164D01*
X214107194Y-98570164D02*
X214180431Y-98716637D01*
X214180431Y-98716637D02*
X214180431Y-98936347D01*
X214180431Y-98936347D02*
X214107194Y-99082820D01*
X214107194Y-99082820D02*
X214033958Y-99156057D01*
X214033958Y-99156057D02*
X213887484Y-99229294D01*
X213887484Y-99229294D02*
X213301591Y-99229294D01*
X215132508Y-98423690D02*
X215425454Y-98423690D01*
X215425454Y-98423690D02*
X215571928Y-98496927D01*
X215571928Y-98496927D02*
X215718401Y-98643400D01*
X215718401Y-98643400D02*
X215791638Y-98936347D01*
X215791638Y-98936347D02*
X215791638Y-99449004D01*
X215791638Y-99449004D02*
X215718401Y-99741950D01*
X215718401Y-99741950D02*
X215571928Y-99888424D01*
X215571928Y-99888424D02*
X215425454Y-99961660D01*
X215425454Y-99961660D02*
X215132508Y-99961660D01*
X215132508Y-99961660D02*
X214986034Y-99888424D01*
X214986034Y-99888424D02*
X214839561Y-99741950D01*
X214839561Y-99741950D02*
X214766324Y-99449004D01*
X214766324Y-99449004D02*
X214766324Y-98936347D01*
X214766324Y-98936347D02*
X214839561Y-98643400D01*
X214839561Y-98643400D02*
X214986034Y-98496927D01*
X214986034Y-98496927D02*
X215132508Y-98423690D01*
X217329608Y-99961660D02*
X216816951Y-99229294D01*
X216450768Y-99961660D02*
X216450768Y-98423690D01*
X216450768Y-98423690D02*
X217036661Y-98423690D01*
X217036661Y-98423690D02*
X217183135Y-98496927D01*
X217183135Y-98496927D02*
X217256371Y-98570164D01*
X217256371Y-98570164D02*
X217329608Y-98716637D01*
X217329608Y-98716637D02*
X217329608Y-98936347D01*
X217329608Y-98936347D02*
X217256371Y-99082820D01*
X217256371Y-99082820D02*
X217183135Y-99156057D01*
X217183135Y-99156057D02*
X217036661Y-99229294D01*
X217036661Y-99229294D02*
X216450768Y-99229294D01*
X217769028Y-98423690D02*
X218647868Y-98423690D01*
X218208448Y-99961660D02*
X218208448Y-98423690D01*
X219453472Y-98423690D02*
X219599945Y-98423690D01*
X219599945Y-98423690D02*
X219746418Y-98496927D01*
X219746418Y-98496927D02*
X219819655Y-98570164D01*
X219819655Y-98570164D02*
X219892892Y-98716637D01*
X219892892Y-98716637D02*
X219966128Y-99009584D01*
X219966128Y-99009584D02*
X219966128Y-99375767D01*
X219966128Y-99375767D02*
X219892892Y-99668714D01*
X219892892Y-99668714D02*
X219819655Y-99815187D01*
X219819655Y-99815187D02*
X219746418Y-99888424D01*
X219746418Y-99888424D02*
X219599945Y-99961660D01*
X219599945Y-99961660D02*
X219453472Y-99961660D01*
X219453472Y-99961660D02*
X219306998Y-99888424D01*
X219306998Y-99888424D02*
X219233762Y-99815187D01*
X219233762Y-99815187D02*
X219160525Y-99668714D01*
X219160525Y-99668714D02*
X219087288Y-99375767D01*
X219087288Y-99375767D02*
X219087288Y-99009584D01*
X219087288Y-99009584D02*
X219160525Y-98716637D01*
X219160525Y-98716637D02*
X219233762Y-98570164D01*
X219233762Y-98570164D02*
X219306998Y-98496927D01*
X219306998Y-98496927D02*
X219453472Y-98423690D01*
D14*
X184520019Y-102673585D02*
X185064305Y-102673585D01*
X185064305Y-102673585D02*
X185118733Y-102129299D01*
X185118733Y-102129299D02*
X185064305Y-102183728D01*
X185064305Y-102183728D02*
X184955448Y-102238156D01*
X184955448Y-102238156D02*
X184683305Y-102238156D01*
X184683305Y-102238156D02*
X184574448Y-102183728D01*
X184574448Y-102183728D02*
X184520019Y-102129299D01*
X184520019Y-102129299D02*
X184465590Y-102020442D01*
X184465590Y-102020442D02*
X184465590Y-101748299D01*
X184465590Y-101748299D02*
X184520019Y-101639442D01*
X184520019Y-101639442D02*
X184574448Y-101585014D01*
X184574448Y-101585014D02*
X184683305Y-101530585D01*
X184683305Y-101530585D02*
X184955448Y-101530585D01*
X184955448Y-101530585D02*
X185064305Y-101585014D01*
X185064305Y-101585014D02*
X185118733Y-101639442D01*
X183758019Y-102673585D02*
X183649162Y-102673585D01*
X183649162Y-102673585D02*
X183540305Y-102619156D01*
X183540305Y-102619156D02*
X183485877Y-102564728D01*
X183485877Y-102564728D02*
X183431448Y-102455871D01*
X183431448Y-102455871D02*
X183377019Y-102238156D01*
X183377019Y-102238156D02*
X183377019Y-101966014D01*
X183377019Y-101966014D02*
X183431448Y-101748299D01*
X183431448Y-101748299D02*
X183485877Y-101639442D01*
X183485877Y-101639442D02*
X183540305Y-101585014D01*
X183540305Y-101585014D02*
X183649162Y-101530585D01*
X183649162Y-101530585D02*
X183758019Y-101530585D01*
X183758019Y-101530585D02*
X183866877Y-101585014D01*
X183866877Y-101585014D02*
X183921305Y-101639442D01*
X183921305Y-101639442D02*
X183975734Y-101748299D01*
X183975734Y-101748299D02*
X184030162Y-101966014D01*
X184030162Y-101966014D02*
X184030162Y-102238156D01*
X184030162Y-102238156D02*
X183975734Y-102455871D01*
X183975734Y-102455871D02*
X183921305Y-102564728D01*
X183921305Y-102564728D02*
X183866877Y-102619156D01*
X183866877Y-102619156D02*
X183758019Y-102673585D01*
X216469590Y-103689585D02*
X217122733Y-103689585D01*
X216796162Y-103689585D02*
X216796162Y-104832585D01*
X216796162Y-104832585D02*
X216905019Y-104669299D01*
X216905019Y-104669299D02*
X217013876Y-104560442D01*
X217013876Y-104560442D02*
X217122733Y-104506014D01*
X217122733Y-107263728D02*
X217068305Y-107318156D01*
X217068305Y-107318156D02*
X216959448Y-107372585D01*
X216959448Y-107372585D02*
X216687305Y-107372585D01*
X216687305Y-107372585D02*
X216578448Y-107318156D01*
X216578448Y-107318156D02*
X216524019Y-107263728D01*
X216524019Y-107263728D02*
X216469590Y-107154871D01*
X216469590Y-107154871D02*
X216469590Y-107046014D01*
X216469590Y-107046014D02*
X216524019Y-106882728D01*
X216524019Y-106882728D02*
X217177162Y-106229585D01*
X217177162Y-106229585D02*
X216469590Y-106229585D01*
D15*
X86244203Y-107827911D02*
X86244203Y-106952119D01*
X86244203Y-106952119D02*
X86577838Y-106952119D01*
X86577838Y-106952119D02*
X86661247Y-106993823D01*
X86661247Y-106993823D02*
X86702952Y-107035528D01*
X86702952Y-107035528D02*
X86744656Y-107118936D01*
X86744656Y-107118936D02*
X86744656Y-107244050D01*
X86744656Y-107244050D02*
X86702952Y-107327458D01*
X86702952Y-107327458D02*
X86661247Y-107369163D01*
X86661247Y-107369163D02*
X86577838Y-107410867D01*
X86577838Y-107410867D02*
X86244203Y-107410867D01*
X87411926Y-107369163D02*
X87119995Y-107369163D01*
X87119995Y-107827911D02*
X87119995Y-106952119D01*
X87119995Y-106952119D02*
X87537039Y-106952119D01*
X88329423Y-107827911D02*
X87828970Y-107827911D01*
X88079196Y-107827911D02*
X88079196Y-106952119D01*
X88079196Y-106952119D02*
X87995788Y-107077232D01*
X87995788Y-107077232D02*
X87912379Y-107160641D01*
X87912379Y-107160641D02*
X87828970Y-107202345D01*
D16*
X173843198Y-95946200D02*
X173766877Y-96022521D01*
X173766877Y-96022521D02*
X173537914Y-96098841D01*
X173537914Y-96098841D02*
X173385272Y-96098841D01*
X173385272Y-96098841D02*
X173156309Y-96022521D01*
X173156309Y-96022521D02*
X173003667Y-95869879D01*
X173003667Y-95869879D02*
X172927346Y-95717237D01*
X172927346Y-95717237D02*
X172851025Y-95411953D01*
X172851025Y-95411953D02*
X172851025Y-95182990D01*
X172851025Y-95182990D02*
X172927346Y-94877706D01*
X172927346Y-94877706D02*
X173003667Y-94725064D01*
X173003667Y-94725064D02*
X173156309Y-94572422D01*
X173156309Y-94572422D02*
X173385272Y-94496101D01*
X173385272Y-94496101D02*
X173537914Y-94496101D01*
X173537914Y-94496101D02*
X173766877Y-94572422D01*
X173766877Y-94572422D02*
X173843198Y-94648743D01*
X174453765Y-95640916D02*
X175216975Y-95640916D01*
X174301123Y-96098841D02*
X174835370Y-94496101D01*
X174835370Y-94496101D02*
X175369617Y-96098841D01*
X176819715Y-96098841D02*
X176285468Y-95335632D01*
X175903863Y-96098841D02*
X175903863Y-94496101D01*
X175903863Y-94496101D02*
X176514431Y-94496101D01*
X176514431Y-94496101D02*
X176667073Y-94572422D01*
X176667073Y-94572422D02*
X176743394Y-94648743D01*
X176743394Y-94648743D02*
X176819715Y-94801385D01*
X176819715Y-94801385D02*
X176819715Y-95030348D01*
X176819715Y-95030348D02*
X176743394Y-95182990D01*
X176743394Y-95182990D02*
X176667073Y-95259311D01*
X176667073Y-95259311D02*
X176514431Y-95335632D01*
X176514431Y-95335632D02*
X175903863Y-95335632D01*
X177277640Y-94496101D02*
X178193492Y-94496101D01*
X177735566Y-96098841D02*
X177735566Y-94496101D01*
X179643590Y-96098841D02*
X179109343Y-95335632D01*
X178727738Y-96098841D02*
X178727738Y-94496101D01*
X178727738Y-94496101D02*
X179338306Y-94496101D01*
X179338306Y-94496101D02*
X179490948Y-94572422D01*
X179490948Y-94572422D02*
X179567269Y-94648743D01*
X179567269Y-94648743D02*
X179643590Y-94801385D01*
X179643590Y-94801385D02*
X179643590Y-95030348D01*
X179643590Y-95030348D02*
X179567269Y-95182990D01*
X179567269Y-95182990D02*
X179490948Y-95259311D01*
X179490948Y-95259311D02*
X179338306Y-95335632D01*
X179338306Y-95335632D02*
X178727738Y-95335632D01*
X180330478Y-96098841D02*
X180330478Y-94496101D01*
X181093688Y-96098841D02*
X181093688Y-94496101D01*
X181093688Y-94496101D02*
X181475293Y-94496101D01*
X181475293Y-94496101D02*
X181704256Y-94572422D01*
X181704256Y-94572422D02*
X181856898Y-94725064D01*
X181856898Y-94725064D02*
X181933219Y-94877706D01*
X181933219Y-94877706D02*
X182009540Y-95182990D01*
X182009540Y-95182990D02*
X182009540Y-95411953D01*
X182009540Y-95411953D02*
X181933219Y-95717237D01*
X181933219Y-95717237D02*
X181856898Y-95869879D01*
X181856898Y-95869879D02*
X181704256Y-96022521D01*
X181704256Y-96022521D02*
X181475293Y-96098841D01*
X181475293Y-96098841D02*
X181093688Y-96098841D01*
X183535959Y-94572422D02*
X183383317Y-94496101D01*
X183383317Y-94496101D02*
X183154354Y-94496101D01*
X183154354Y-94496101D02*
X182925391Y-94572422D01*
X182925391Y-94572422D02*
X182772749Y-94725064D01*
X182772749Y-94725064D02*
X182696428Y-94877706D01*
X182696428Y-94877706D02*
X182620107Y-95182990D01*
X182620107Y-95182990D02*
X182620107Y-95411953D01*
X182620107Y-95411953D02*
X182696428Y-95717237D01*
X182696428Y-95717237D02*
X182772749Y-95869879D01*
X182772749Y-95869879D02*
X182925391Y-96022521D01*
X182925391Y-96022521D02*
X183154354Y-96098841D01*
X183154354Y-96098841D02*
X183306996Y-96098841D01*
X183306996Y-96098841D02*
X183535959Y-96022521D01*
X183535959Y-96022521D02*
X183612280Y-95946200D01*
X183612280Y-95946200D02*
X183612280Y-95411953D01*
X183612280Y-95411953D02*
X183306996Y-95411953D01*
X184299168Y-95259311D02*
X184833415Y-95259311D01*
X185062378Y-96098841D02*
X184299168Y-96098841D01*
X184299168Y-96098841D02*
X184299168Y-94496101D01*
X184299168Y-94496101D02*
X185062378Y-94496101D01*
X185367662Y-96251483D02*
X186588797Y-96251483D01*
X186970401Y-96098841D02*
X186970401Y-94496101D01*
X186970401Y-94496101D02*
X187580969Y-94496101D01*
X187580969Y-94496101D02*
X187733611Y-94572422D01*
X187733611Y-94572422D02*
X187809932Y-94648743D01*
X187809932Y-94648743D02*
X187886253Y-94801385D01*
X187886253Y-94801385D02*
X187886253Y-95030348D01*
X187886253Y-95030348D02*
X187809932Y-95182990D01*
X187809932Y-95182990D02*
X187733611Y-95259311D01*
X187733611Y-95259311D02*
X187580969Y-95335632D01*
X187580969Y-95335632D02*
X186970401Y-95335632D01*
X188878425Y-94496101D02*
X189183709Y-94496101D01*
X189183709Y-94496101D02*
X189336351Y-94572422D01*
X189336351Y-94572422D02*
X189488993Y-94725064D01*
X189488993Y-94725064D02*
X189565314Y-95030348D01*
X189565314Y-95030348D02*
X189565314Y-95564595D01*
X189565314Y-95564595D02*
X189488993Y-95869879D01*
X189488993Y-95869879D02*
X189336351Y-96022521D01*
X189336351Y-96022521D02*
X189183709Y-96098841D01*
X189183709Y-96098841D02*
X188878425Y-96098841D01*
X188878425Y-96098841D02*
X188725783Y-96022521D01*
X188725783Y-96022521D02*
X188573141Y-95869879D01*
X188573141Y-95869879D02*
X188496820Y-95564595D01*
X188496820Y-95564595D02*
X188496820Y-95030348D01*
X188496820Y-95030348D02*
X188573141Y-94725064D01*
X188573141Y-94725064D02*
X188725783Y-94572422D01*
X188725783Y-94572422D02*
X188878425Y-94496101D01*
X191168054Y-96098841D02*
X190633807Y-95335632D01*
X190252202Y-96098841D02*
X190252202Y-94496101D01*
X190252202Y-94496101D02*
X190862770Y-94496101D01*
X190862770Y-94496101D02*
X191015412Y-94572422D01*
X191015412Y-94572422D02*
X191091733Y-94648743D01*
X191091733Y-94648743D02*
X191168054Y-94801385D01*
X191168054Y-94801385D02*
X191168054Y-95030348D01*
X191168054Y-95030348D02*
X191091733Y-95182990D01*
X191091733Y-95182990D02*
X191015412Y-95259311D01*
X191015412Y-95259311D02*
X190862770Y-95335632D01*
X190862770Y-95335632D02*
X190252202Y-95335632D01*
X191625979Y-94496101D02*
X192541831Y-94496101D01*
X192083905Y-96098841D02*
X192083905Y-94496101D01*
X193381361Y-94496101D02*
X193534003Y-94496101D01*
X193534003Y-94496101D02*
X193686645Y-94572422D01*
X193686645Y-94572422D02*
X193762966Y-94648743D01*
X193762966Y-94648743D02*
X193839287Y-94801385D01*
X193839287Y-94801385D02*
X193915608Y-95106669D01*
X193915608Y-95106669D02*
X193915608Y-95488274D01*
X193915608Y-95488274D02*
X193839287Y-95793558D01*
X193839287Y-95793558D02*
X193762966Y-95946200D01*
X193762966Y-95946200D02*
X193686645Y-96022521D01*
X193686645Y-96022521D02*
X193534003Y-96098841D01*
X193534003Y-96098841D02*
X193381361Y-96098841D01*
X193381361Y-96098841D02*
X193228719Y-96022521D01*
X193228719Y-96022521D02*
X193152398Y-95946200D01*
X193152398Y-95946200D02*
X193076077Y-95793558D01*
X193076077Y-95793558D02*
X192999756Y-95488274D01*
X192999756Y-95488274D02*
X192999756Y-95106669D01*
X192999756Y-95106669D02*
X193076077Y-94801385D01*
X193076077Y-94801385D02*
X193152398Y-94648743D01*
X193152398Y-94648743D02*
X193228719Y-94572422D01*
X193228719Y-94572422D02*
X193381361Y-94496101D01*
D17*
X163552490Y-92410798D02*
X163741902Y-92473935D01*
X163741902Y-92473935D02*
X164057587Y-92473935D01*
X164057587Y-92473935D02*
X164183862Y-92410798D01*
X164183862Y-92410798D02*
X164246999Y-92347660D01*
X164246999Y-92347660D02*
X164310136Y-92221386D01*
X164310136Y-92221386D02*
X164310136Y-92095112D01*
X164310136Y-92095112D02*
X164246999Y-91968838D01*
X164246999Y-91968838D02*
X164183862Y-91905700D01*
X164183862Y-91905700D02*
X164057587Y-91842563D01*
X164057587Y-91842563D02*
X163805039Y-91779426D01*
X163805039Y-91779426D02*
X163678764Y-91716289D01*
X163678764Y-91716289D02*
X163615627Y-91653152D01*
X163615627Y-91653152D02*
X163552490Y-91526878D01*
X163552490Y-91526878D02*
X163552490Y-91400603D01*
X163552490Y-91400603D02*
X163615627Y-91274329D01*
X163615627Y-91274329D02*
X163678764Y-91211192D01*
X163678764Y-91211192D02*
X163805039Y-91148055D01*
X163805039Y-91148055D02*
X164120724Y-91148055D01*
X164120724Y-91148055D02*
X164310136Y-91211192D01*
X163548136Y-87393935D02*
X162790490Y-87393935D01*
X163169313Y-87393935D02*
X163169313Y-86068055D01*
X163169313Y-86068055D02*
X163043039Y-86257466D01*
X163043039Y-86257466D02*
X162916764Y-86383740D01*
X162916764Y-86383740D02*
X162790490Y-86446878D01*
X164747742Y-86068055D02*
X164116370Y-86068055D01*
X164116370Y-86068055D02*
X164053233Y-86699426D01*
X164053233Y-86699426D02*
X164116370Y-86636289D01*
X164116370Y-86636289D02*
X164242645Y-86573152D01*
X164242645Y-86573152D02*
X164558330Y-86573152D01*
X164558330Y-86573152D02*
X164684605Y-86636289D01*
X164684605Y-86636289D02*
X164747742Y-86699426D01*
X164747742Y-86699426D02*
X164810879Y-86825700D01*
X164810879Y-86825700D02*
X164810879Y-87141386D01*
X164810879Y-87141386D02*
X164747742Y-87267660D01*
X164747742Y-87267660D02*
X164684605Y-87330798D01*
X164684605Y-87330798D02*
X164558330Y-87393935D01*
X164558330Y-87393935D02*
X164242645Y-87393935D01*
X164242645Y-87393935D02*
X164116370Y-87330798D01*
X164116370Y-87330798D02*
X164053233Y-87267660D01*
X204827490Y-92095112D02*
X205458862Y-92095112D01*
X204701216Y-92473935D02*
X205143176Y-91148055D01*
X205143176Y-91148055D02*
X205585136Y-92473935D01*
X205839136Y-87393935D02*
X205081490Y-87393935D01*
X205460313Y-87393935D02*
X205460313Y-86068055D01*
X205460313Y-86068055D02*
X205334039Y-86257466D01*
X205334039Y-86257466D02*
X205207764Y-86383740D01*
X205207764Y-86383740D02*
X205081490Y-86446878D01*
D13*
X149200459Y-112981704D02*
X149200459Y-111443734D01*
X149200459Y-111443734D02*
X149786352Y-111443734D01*
X149786352Y-111443734D02*
X149932826Y-111516971D01*
X149932826Y-111516971D02*
X150006062Y-111590208D01*
X150006062Y-111590208D02*
X150079299Y-111736681D01*
X150079299Y-111736681D02*
X150079299Y-111956391D01*
X150079299Y-111956391D02*
X150006062Y-112102864D01*
X150006062Y-112102864D02*
X149932826Y-112176101D01*
X149932826Y-112176101D02*
X149786352Y-112249338D01*
X149786352Y-112249338D02*
X149200459Y-112249338D01*
X151251086Y-112176101D02*
X151470796Y-112249338D01*
X151470796Y-112249338D02*
X151544032Y-112322574D01*
X151544032Y-112322574D02*
X151617269Y-112469048D01*
X151617269Y-112469048D02*
X151617269Y-112688758D01*
X151617269Y-112688758D02*
X151544032Y-112835231D01*
X151544032Y-112835231D02*
X151470796Y-112908468D01*
X151470796Y-112908468D02*
X151324322Y-112981704D01*
X151324322Y-112981704D02*
X150738429Y-112981704D01*
X150738429Y-112981704D02*
X150738429Y-111443734D01*
X150738429Y-111443734D02*
X151251086Y-111443734D01*
X151251086Y-111443734D02*
X151397559Y-111516971D01*
X151397559Y-111516971D02*
X151470796Y-111590208D01*
X151470796Y-111590208D02*
X151544032Y-111736681D01*
X151544032Y-111736681D02*
X151544032Y-111883154D01*
X151544032Y-111883154D02*
X151470796Y-112029628D01*
X151470796Y-112029628D02*
X151397559Y-112102864D01*
X151397559Y-112102864D02*
X151251086Y-112176101D01*
X151251086Y-112176101D02*
X150738429Y-112176101D01*
X152276399Y-112981704D02*
X152276399Y-111443734D01*
X152642583Y-113128178D02*
X153814369Y-113128178D01*
X155059393Y-112835231D02*
X154986156Y-112908468D01*
X154986156Y-112908468D02*
X154766446Y-112981704D01*
X154766446Y-112981704D02*
X154619973Y-112981704D01*
X154619973Y-112981704D02*
X154400263Y-112908468D01*
X154400263Y-112908468D02*
X154253790Y-112761994D01*
X154253790Y-112761994D02*
X154180553Y-112615521D01*
X154180553Y-112615521D02*
X154107316Y-112322574D01*
X154107316Y-112322574D02*
X154107316Y-112102864D01*
X154107316Y-112102864D02*
X154180553Y-111809918D01*
X154180553Y-111809918D02*
X154253790Y-111663444D01*
X154253790Y-111663444D02*
X154400263Y-111516971D01*
X154400263Y-111516971D02*
X154619973Y-111443734D01*
X154619973Y-111443734D02*
X154766446Y-111443734D01*
X154766446Y-111443734D02*
X154986156Y-111516971D01*
X154986156Y-111516971D02*
X155059393Y-111590208D01*
X155645286Y-112542284D02*
X156377653Y-112542284D01*
X155498813Y-112981704D02*
X156011470Y-111443734D01*
X156011470Y-111443734D02*
X156524126Y-112981704D01*
X157915623Y-112981704D02*
X157402966Y-112249338D01*
X157036783Y-112981704D02*
X157036783Y-111443734D01*
X157036783Y-111443734D02*
X157622676Y-111443734D01*
X157622676Y-111443734D02*
X157769150Y-111516971D01*
X157769150Y-111516971D02*
X157842386Y-111590208D01*
X157842386Y-111590208D02*
X157915623Y-111736681D01*
X157915623Y-111736681D02*
X157915623Y-111956391D01*
X157915623Y-111956391D02*
X157842386Y-112102864D01*
X157842386Y-112102864D02*
X157769150Y-112176101D01*
X157769150Y-112176101D02*
X157622676Y-112249338D01*
X157622676Y-112249338D02*
X157036783Y-112249338D01*
X158355043Y-111443734D02*
X159233883Y-111443734D01*
X158794463Y-112981704D02*
X158794463Y-111443734D01*
X159380357Y-113128178D02*
X160552143Y-113128178D01*
X160918327Y-112981704D02*
X160918327Y-111443734D01*
X161650694Y-112981704D02*
X161650694Y-111443734D01*
X161650694Y-111443734D02*
X162529534Y-112981704D01*
X162529534Y-112981704D02*
X162529534Y-111443734D01*
X163042191Y-111443734D02*
X163921031Y-111443734D01*
X163481611Y-112981704D02*
X163481611Y-111443734D01*
X164726635Y-111443734D02*
X164873108Y-111443734D01*
X164873108Y-111443734D02*
X165019581Y-111516971D01*
X165019581Y-111516971D02*
X165092818Y-111590208D01*
X165092818Y-111590208D02*
X165166055Y-111736681D01*
X165166055Y-111736681D02*
X165239291Y-112029628D01*
X165239291Y-112029628D02*
X165239291Y-112395811D01*
X165239291Y-112395811D02*
X165166055Y-112688758D01*
X165166055Y-112688758D02*
X165092818Y-112835231D01*
X165092818Y-112835231D02*
X165019581Y-112908468D01*
X165019581Y-112908468D02*
X164873108Y-112981704D01*
X164873108Y-112981704D02*
X164726635Y-112981704D01*
X164726635Y-112981704D02*
X164580161Y-112908468D01*
X164580161Y-112908468D02*
X164506925Y-112835231D01*
X164506925Y-112835231D02*
X164433688Y-112688758D01*
X164433688Y-112688758D02*
X164360451Y-112395811D01*
X164360451Y-112395811D02*
X164360451Y-112029628D01*
X164360451Y-112029628D02*
X164433688Y-111736681D01*
X164433688Y-111736681D02*
X164506925Y-111590208D01*
X164506925Y-111590208D02*
X164580161Y-111516971D01*
X164580161Y-111516971D02*
X164726635Y-111443734D01*
D14*
X177629552Y-121786214D02*
X177629552Y-122548214D01*
X177357409Y-121350786D02*
X177085266Y-122167214D01*
X177085266Y-122167214D02*
X177792837Y-122167214D01*
X178445980Y-121405214D02*
X178554837Y-121405214D01*
X178554837Y-121405214D02*
X178663694Y-121459643D01*
X178663694Y-121459643D02*
X178718123Y-121514071D01*
X178718123Y-121514071D02*
X178772551Y-121622928D01*
X178772551Y-121622928D02*
X178826980Y-121840643D01*
X178826980Y-121840643D02*
X178826980Y-122112786D01*
X178826980Y-122112786D02*
X178772551Y-122330500D01*
X178772551Y-122330500D02*
X178718123Y-122439357D01*
X178718123Y-122439357D02*
X178663694Y-122493786D01*
X178663694Y-122493786D02*
X178554837Y-122548214D01*
X178554837Y-122548214D02*
X178445980Y-122548214D01*
X178445980Y-122548214D02*
X178337123Y-122493786D01*
X178337123Y-122493786D02*
X178282694Y-122439357D01*
X178282694Y-122439357D02*
X178228265Y-122330500D01*
X178228265Y-122330500D02*
X178173837Y-122112786D01*
X178173837Y-122112786D02*
X178173837Y-121840643D01*
X178173837Y-121840643D02*
X178228265Y-121622928D01*
X178228265Y-121622928D02*
X178282694Y-121514071D01*
X178282694Y-121514071D02*
X178337123Y-121459643D01*
X178337123Y-121459643D02*
X178445980Y-121405214D01*
X151431266Y-116815071D02*
X151485694Y-116760643D01*
X151485694Y-116760643D02*
X151594552Y-116706214D01*
X151594552Y-116706214D02*
X151866694Y-116706214D01*
X151866694Y-116706214D02*
X151975552Y-116760643D01*
X151975552Y-116760643D02*
X152029980Y-116815071D01*
X152029980Y-116815071D02*
X152084409Y-116923928D01*
X152084409Y-116923928D02*
X152084409Y-117032786D01*
X152084409Y-117032786D02*
X152029980Y-117196071D01*
X152029980Y-117196071D02*
X151376837Y-117849214D01*
X151376837Y-117849214D02*
X152084409Y-117849214D01*
X152084409Y-120389214D02*
X151431266Y-120389214D01*
X151757837Y-120389214D02*
X151757837Y-119246214D01*
X151757837Y-119246214D02*
X151648980Y-119409500D01*
X151648980Y-119409500D02*
X151540123Y-119518357D01*
X151540123Y-119518357D02*
X151431266Y-119572786D01*
D16*
X78980369Y-104176041D02*
X78980369Y-102573301D01*
X78980369Y-102573301D02*
X79590937Y-102573301D01*
X79590937Y-102573301D02*
X79743579Y-102649622D01*
X79743579Y-102649622D02*
X79819900Y-102725943D01*
X79819900Y-102725943D02*
X79896221Y-102878585D01*
X79896221Y-102878585D02*
X79896221Y-103107548D01*
X79896221Y-103107548D02*
X79819900Y-103260190D01*
X79819900Y-103260190D02*
X79743579Y-103336511D01*
X79743579Y-103336511D02*
X79590937Y-103412832D01*
X79590937Y-103412832D02*
X78980369Y-103412832D01*
X80888393Y-102573301D02*
X81193677Y-102573301D01*
X81193677Y-102573301D02*
X81346319Y-102649622D01*
X81346319Y-102649622D02*
X81498961Y-102802264D01*
X81498961Y-102802264D02*
X81575282Y-103107548D01*
X81575282Y-103107548D02*
X81575282Y-103641795D01*
X81575282Y-103641795D02*
X81498961Y-103947079D01*
X81498961Y-103947079D02*
X81346319Y-104099721D01*
X81346319Y-104099721D02*
X81193677Y-104176041D01*
X81193677Y-104176041D02*
X80888393Y-104176041D01*
X80888393Y-104176041D02*
X80735751Y-104099721D01*
X80735751Y-104099721D02*
X80583109Y-103947079D01*
X80583109Y-103947079D02*
X80506788Y-103641795D01*
X80506788Y-103641795D02*
X80506788Y-103107548D01*
X80506788Y-103107548D02*
X80583109Y-102802264D01*
X80583109Y-102802264D02*
X80735751Y-102649622D01*
X80735751Y-102649622D02*
X80888393Y-102573301D01*
X82109528Y-102573301D02*
X82491133Y-104176041D01*
X82491133Y-104176041D02*
X82796417Y-103031227D01*
X82796417Y-103031227D02*
X83101701Y-104176041D01*
X83101701Y-104176041D02*
X83483306Y-102573301D01*
X84093873Y-103336511D02*
X84628120Y-103336511D01*
X84857083Y-104176041D02*
X84093873Y-104176041D01*
X84093873Y-104176041D02*
X84093873Y-102573301D01*
X84093873Y-102573301D02*
X84857083Y-102573301D01*
X86459823Y-104176041D02*
X85925576Y-103412832D01*
X85543971Y-104176041D02*
X85543971Y-102573301D01*
X85543971Y-102573301D02*
X86154539Y-102573301D01*
X86154539Y-102573301D02*
X86307181Y-102649622D01*
X86307181Y-102649622D02*
X86383502Y-102725943D01*
X86383502Y-102725943D02*
X86459823Y-102878585D01*
X86459823Y-102878585D02*
X86459823Y-103107548D01*
X86459823Y-103107548D02*
X86383502Y-103260190D01*
X86383502Y-103260190D02*
X86307181Y-103336511D01*
X86307181Y-103336511D02*
X86154539Y-103412832D01*
X86154539Y-103412832D02*
X85543971Y-103412832D01*
X86765107Y-104328683D02*
X87986242Y-104328683D01*
X88367846Y-104176041D02*
X88367846Y-102573301D01*
X89131056Y-104176041D02*
X89131056Y-102573301D01*
X89131056Y-102573301D02*
X90046908Y-104176041D01*
X90046908Y-104176041D02*
X90046908Y-102573301D01*
X91115401Y-102573301D02*
X91268043Y-102573301D01*
X91268043Y-102573301D02*
X91420685Y-102649622D01*
X91420685Y-102649622D02*
X91497006Y-102725943D01*
X91497006Y-102725943D02*
X91573327Y-102878585D01*
X91573327Y-102878585D02*
X91649648Y-103183869D01*
X91649648Y-103183869D02*
X91649648Y-103565474D01*
X91649648Y-103565474D02*
X91573327Y-103870758D01*
X91573327Y-103870758D02*
X91497006Y-104023400D01*
X91497006Y-104023400D02*
X91420685Y-104099721D01*
X91420685Y-104099721D02*
X91268043Y-104176041D01*
X91268043Y-104176041D02*
X91115401Y-104176041D01*
X91115401Y-104176041D02*
X90962759Y-104099721D01*
X90962759Y-104099721D02*
X90886438Y-104023400D01*
X90886438Y-104023400D02*
X90810117Y-103870758D01*
X90810117Y-103870758D02*
X90733796Y-103565474D01*
X90733796Y-103565474D02*
X90733796Y-103183869D01*
X90733796Y-103183869D02*
X90810117Y-102878585D01*
X90810117Y-102878585D02*
X90886438Y-102725943D01*
X90886438Y-102725943D02*
X90962759Y-102649622D01*
X90962759Y-102649622D02*
X91115401Y-102573301D01*
D13*
X125538241Y-112908468D02*
X125757951Y-112981704D01*
X125757951Y-112981704D02*
X126124135Y-112981704D01*
X126124135Y-112981704D02*
X126270608Y-112908468D01*
X126270608Y-112908468D02*
X126343845Y-112835231D01*
X126343845Y-112835231D02*
X126417081Y-112688758D01*
X126417081Y-112688758D02*
X126417081Y-112542284D01*
X126417081Y-112542284D02*
X126343845Y-112395811D01*
X126343845Y-112395811D02*
X126270608Y-112322574D01*
X126270608Y-112322574D02*
X126124135Y-112249338D01*
X126124135Y-112249338D02*
X125831188Y-112176101D01*
X125831188Y-112176101D02*
X125684715Y-112102864D01*
X125684715Y-112102864D02*
X125611478Y-112029628D01*
X125611478Y-112029628D02*
X125538241Y-111883154D01*
X125538241Y-111883154D02*
X125538241Y-111736681D01*
X125538241Y-111736681D02*
X125611478Y-111590208D01*
X125611478Y-111590208D02*
X125684715Y-111516971D01*
X125684715Y-111516971D02*
X125831188Y-111443734D01*
X125831188Y-111443734D02*
X126197371Y-111443734D01*
X126197371Y-111443734D02*
X126417081Y-111516971D01*
X127076211Y-112981704D02*
X127076211Y-111443734D01*
X128101525Y-111443734D02*
X128394471Y-111443734D01*
X128394471Y-111443734D02*
X128540945Y-111516971D01*
X128540945Y-111516971D02*
X128687418Y-111663444D01*
X128687418Y-111663444D02*
X128760655Y-111956391D01*
X128760655Y-111956391D02*
X128760655Y-112469048D01*
X128760655Y-112469048D02*
X128687418Y-112761994D01*
X128687418Y-112761994D02*
X128540945Y-112908468D01*
X128540945Y-112908468D02*
X128394471Y-112981704D01*
X128394471Y-112981704D02*
X128101525Y-112981704D01*
X128101525Y-112981704D02*
X127955051Y-112908468D01*
X127955051Y-112908468D02*
X127808578Y-112761994D01*
X127808578Y-112761994D02*
X127735341Y-112469048D01*
X127735341Y-112469048D02*
X127735341Y-111956391D01*
X127735341Y-111956391D02*
X127808578Y-111663444D01*
X127808578Y-111663444D02*
X127955051Y-111516971D01*
X127955051Y-111516971D02*
X128101525Y-111443734D01*
X129053602Y-113128178D02*
X130225388Y-113128178D01*
X130591572Y-112981704D02*
X130591572Y-111443734D01*
X131323939Y-112981704D02*
X131323939Y-111443734D01*
X131323939Y-111443734D02*
X132202779Y-112981704D01*
X132202779Y-112981704D02*
X132202779Y-111443734D01*
X132715436Y-111443734D02*
X133594276Y-111443734D01*
X133154856Y-112981704D02*
X133154856Y-111443734D01*
X134399880Y-111443734D02*
X134546353Y-111443734D01*
X134546353Y-111443734D02*
X134692826Y-111516971D01*
X134692826Y-111516971D02*
X134766063Y-111590208D01*
X134766063Y-111590208D02*
X134839300Y-111736681D01*
X134839300Y-111736681D02*
X134912536Y-112029628D01*
X134912536Y-112029628D02*
X134912536Y-112395811D01*
X134912536Y-112395811D02*
X134839300Y-112688758D01*
X134839300Y-112688758D02*
X134766063Y-112835231D01*
X134766063Y-112835231D02*
X134692826Y-112908468D01*
X134692826Y-112908468D02*
X134546353Y-112981704D01*
X134546353Y-112981704D02*
X134399880Y-112981704D01*
X134399880Y-112981704D02*
X134253406Y-112908468D01*
X134253406Y-112908468D02*
X134180170Y-112835231D01*
X134180170Y-112835231D02*
X134106933Y-112688758D01*
X134106933Y-112688758D02*
X134033696Y-112395811D01*
X134033696Y-112395811D02*
X134033696Y-112029628D01*
X134033696Y-112029628D02*
X134106933Y-111736681D01*
X134106933Y-111736681D02*
X134180170Y-111590208D01*
X134180170Y-111590208D02*
X134253406Y-111516971D01*
X134253406Y-111516971D02*
X134399880Y-111443734D01*
D14*
X127580666Y-116815071D02*
X127635094Y-116760643D01*
X127635094Y-116760643D02*
X127743952Y-116706214D01*
X127743952Y-116706214D02*
X128016094Y-116706214D01*
X128016094Y-116706214D02*
X128124952Y-116760643D01*
X128124952Y-116760643D02*
X128179380Y-116815071D01*
X128179380Y-116815071D02*
X128233809Y-116923928D01*
X128233809Y-116923928D02*
X128233809Y-117032786D01*
X128233809Y-117032786D02*
X128179380Y-117196071D01*
X128179380Y-117196071D02*
X127526237Y-117849214D01*
X127526237Y-117849214D02*
X128233809Y-117849214D01*
X134837809Y-122548214D02*
X134184666Y-122548214D01*
X134511237Y-122548214D02*
X134511237Y-121405214D01*
X134511237Y-121405214D02*
X134402380Y-121568500D01*
X134402380Y-121568500D02*
X134293523Y-121677357D01*
X134293523Y-121677357D02*
X134184666Y-121731786D01*
X135545380Y-121405214D02*
X135654237Y-121405214D01*
X135654237Y-121405214D02*
X135763094Y-121459643D01*
X135763094Y-121459643D02*
X135817523Y-121514071D01*
X135817523Y-121514071D02*
X135871951Y-121622928D01*
X135871951Y-121622928D02*
X135926380Y-121840643D01*
X135926380Y-121840643D02*
X135926380Y-122112786D01*
X135926380Y-122112786D02*
X135871951Y-122330500D01*
X135871951Y-122330500D02*
X135817523Y-122439357D01*
X135817523Y-122439357D02*
X135763094Y-122493786D01*
X135763094Y-122493786D02*
X135654237Y-122548214D01*
X135654237Y-122548214D02*
X135545380Y-122548214D01*
X135545380Y-122548214D02*
X135436523Y-122493786D01*
X135436523Y-122493786D02*
X135382094Y-122439357D01*
X135382094Y-122439357D02*
X135327665Y-122330500D01*
X135327665Y-122330500D02*
X135273237Y-122112786D01*
X135273237Y-122112786D02*
X135273237Y-121840643D01*
X135273237Y-121840643D02*
X135327665Y-121622928D01*
X135327665Y-121622928D02*
X135382094Y-121514071D01*
X135382094Y-121514071D02*
X135436523Y-121459643D01*
X135436523Y-121459643D02*
X135545380Y-121405214D01*
X128233809Y-120389214D02*
X127580666Y-120389214D01*
X127907237Y-120389214D02*
X127907237Y-119246214D01*
X127907237Y-119246214D02*
X127798380Y-119409500D01*
X127798380Y-119409500D02*
X127689523Y-119518357D01*
X127689523Y-119518357D02*
X127580666Y-119572786D01*
D16*
X117148825Y-104099721D02*
X117377788Y-104176041D01*
X117377788Y-104176041D02*
X117759393Y-104176041D01*
X117759393Y-104176041D02*
X117912035Y-104099721D01*
X117912035Y-104099721D02*
X117988356Y-104023400D01*
X117988356Y-104023400D02*
X118064677Y-103870758D01*
X118064677Y-103870758D02*
X118064677Y-103718116D01*
X118064677Y-103718116D02*
X117988356Y-103565474D01*
X117988356Y-103565474D02*
X117912035Y-103489153D01*
X117912035Y-103489153D02*
X117759393Y-103412832D01*
X117759393Y-103412832D02*
X117454109Y-103336511D01*
X117454109Y-103336511D02*
X117301467Y-103260190D01*
X117301467Y-103260190D02*
X117225146Y-103183869D01*
X117225146Y-103183869D02*
X117148825Y-103031227D01*
X117148825Y-103031227D02*
X117148825Y-102878585D01*
X117148825Y-102878585D02*
X117225146Y-102725943D01*
X117225146Y-102725943D02*
X117301467Y-102649622D01*
X117301467Y-102649622D02*
X117454109Y-102573301D01*
X117454109Y-102573301D02*
X117835714Y-102573301D01*
X117835714Y-102573301D02*
X118064677Y-102649622D01*
X118751565Y-104176041D02*
X118751565Y-102573301D01*
X119820059Y-102573301D02*
X120125343Y-102573301D01*
X120125343Y-102573301D02*
X120277985Y-102649622D01*
X120277985Y-102649622D02*
X120430627Y-102802264D01*
X120430627Y-102802264D02*
X120506948Y-103107548D01*
X120506948Y-103107548D02*
X120506948Y-103641795D01*
X120506948Y-103641795D02*
X120430627Y-103947079D01*
X120430627Y-103947079D02*
X120277985Y-104099721D01*
X120277985Y-104099721D02*
X120125343Y-104176041D01*
X120125343Y-104176041D02*
X119820059Y-104176041D01*
X119820059Y-104176041D02*
X119667417Y-104099721D01*
X119667417Y-104099721D02*
X119514775Y-103947079D01*
X119514775Y-103947079D02*
X119438454Y-103641795D01*
X119438454Y-103641795D02*
X119438454Y-103107548D01*
X119438454Y-103107548D02*
X119514775Y-102802264D01*
X119514775Y-102802264D02*
X119667417Y-102649622D01*
X119667417Y-102649622D02*
X119820059Y-102573301D01*
X120812232Y-104328683D02*
X122033367Y-104328683D01*
X122414971Y-104176041D02*
X122414971Y-102573301D01*
X122414971Y-102573301D02*
X123025539Y-102573301D01*
X123025539Y-102573301D02*
X123178181Y-102649622D01*
X123178181Y-102649622D02*
X123254502Y-102725943D01*
X123254502Y-102725943D02*
X123330823Y-102878585D01*
X123330823Y-102878585D02*
X123330823Y-103107548D01*
X123330823Y-103107548D02*
X123254502Y-103260190D01*
X123254502Y-103260190D02*
X123178181Y-103336511D01*
X123178181Y-103336511D02*
X123025539Y-103412832D01*
X123025539Y-103412832D02*
X122414971Y-103412832D01*
X124322995Y-102573301D02*
X124628279Y-102573301D01*
X124628279Y-102573301D02*
X124780921Y-102649622D01*
X124780921Y-102649622D02*
X124933563Y-102802264D01*
X124933563Y-102802264D02*
X125009884Y-103107548D01*
X125009884Y-103107548D02*
X125009884Y-103641795D01*
X125009884Y-103641795D02*
X124933563Y-103947079D01*
X124933563Y-103947079D02*
X124780921Y-104099721D01*
X124780921Y-104099721D02*
X124628279Y-104176041D01*
X124628279Y-104176041D02*
X124322995Y-104176041D01*
X124322995Y-104176041D02*
X124170353Y-104099721D01*
X124170353Y-104099721D02*
X124017711Y-103947079D01*
X124017711Y-103947079D02*
X123941390Y-103641795D01*
X123941390Y-103641795D02*
X123941390Y-103107548D01*
X123941390Y-103107548D02*
X124017711Y-102802264D01*
X124017711Y-102802264D02*
X124170353Y-102649622D01*
X124170353Y-102649622D02*
X124322995Y-102573301D01*
X126612624Y-104176041D02*
X126078377Y-103412832D01*
X125696772Y-104176041D02*
X125696772Y-102573301D01*
X125696772Y-102573301D02*
X126307340Y-102573301D01*
X126307340Y-102573301D02*
X126459982Y-102649622D01*
X126459982Y-102649622D02*
X126536303Y-102725943D01*
X126536303Y-102725943D02*
X126612624Y-102878585D01*
X126612624Y-102878585D02*
X126612624Y-103107548D01*
X126612624Y-103107548D02*
X126536303Y-103260190D01*
X126536303Y-103260190D02*
X126459982Y-103336511D01*
X126459982Y-103336511D02*
X126307340Y-103412832D01*
X126307340Y-103412832D02*
X125696772Y-103412832D01*
X127070549Y-102573301D02*
X127986401Y-102573301D01*
X127528475Y-104176041D02*
X127528475Y-102573301D01*
X128825931Y-102573301D02*
X128978573Y-102573301D01*
X128978573Y-102573301D02*
X129131215Y-102649622D01*
X129131215Y-102649622D02*
X129207536Y-102725943D01*
X129207536Y-102725943D02*
X129283857Y-102878585D01*
X129283857Y-102878585D02*
X129360178Y-103183869D01*
X129360178Y-103183869D02*
X129360178Y-103565474D01*
X129360178Y-103565474D02*
X129283857Y-103870758D01*
X129283857Y-103870758D02*
X129207536Y-104023400D01*
X129207536Y-104023400D02*
X129131215Y-104099721D01*
X129131215Y-104099721D02*
X128978573Y-104176041D01*
X128978573Y-104176041D02*
X128825931Y-104176041D01*
X128825931Y-104176041D02*
X128673289Y-104099721D01*
X128673289Y-104099721D02*
X128596968Y-104023400D01*
X128596968Y-104023400D02*
X128520647Y-103870758D01*
X128520647Y-103870758D02*
X128444326Y-103565474D01*
X128444326Y-103565474D02*
X128444326Y-103183869D01*
X128444326Y-103183869D02*
X128520647Y-102878585D01*
X128520647Y-102878585D02*
X128596968Y-102725943D01*
X128596968Y-102725943D02*
X128673289Y-102649622D01*
X128673289Y-102649622D02*
X128825931Y-102573301D01*
D14*
%TO.C,PBI_PORT0*%
X148844000Y-101003100D02*
X148844000Y-109893100D01*
X148844000Y-101003100D02*
X153543000Y-101003100D01*
D18*
X149860000Y-102019100D02*
X149860000Y-108877100D01*
X149860000Y-108877100D02*
X218948000Y-108877100D01*
D14*
X150114000Y-102273100D02*
X150114000Y-108623100D01*
X150114000Y-102273100D02*
X154432000Y-102273100D01*
X150114000Y-109893100D02*
X148844000Y-109893100D01*
X150114000Y-109893100D02*
X150114000Y-110147100D01*
X150114000Y-110147100D02*
X151384000Y-110147100D01*
X151384000Y-109893100D02*
X151384000Y-110147100D01*
X153924000Y-101511100D02*
X153543000Y-101003100D01*
X153924000Y-101511100D02*
X154432000Y-101511100D01*
X154432000Y-101511100D02*
X155956000Y-101511100D01*
D18*
X154432000Y-102019100D02*
X149860000Y-102019100D01*
D14*
X154432000Y-102019100D02*
X154432000Y-101511100D01*
X154432000Y-102273100D02*
X154432000Y-102019100D01*
X154432000Y-102273100D02*
X155956000Y-102273100D01*
X155956000Y-101511100D02*
X156464000Y-101511100D01*
X155956000Y-102019100D02*
X155956000Y-101511100D01*
D18*
X155956000Y-102019100D02*
X182372000Y-102019100D01*
D14*
X155956000Y-102273100D02*
X155956000Y-102019100D01*
X155956000Y-102273100D02*
X182372000Y-102273100D01*
X156845000Y-101003100D02*
X156464000Y-101511100D01*
X156845000Y-101003100D02*
X182372000Y-101003100D01*
X182372000Y-101003100D02*
X186436000Y-101003100D01*
X182372000Y-102019100D02*
X182372000Y-101003100D01*
X182372000Y-102273100D02*
X182372000Y-102019100D01*
X182372000Y-103035100D02*
X182372000Y-102273100D01*
X182372000Y-103035100D02*
X186436000Y-103035100D01*
X183769000Y-109893100D02*
X151384000Y-109893100D01*
X183769000Y-110147100D02*
X183769000Y-109893100D01*
X183769000Y-110147100D02*
X185039000Y-110147100D01*
X185039000Y-110147100D02*
X185039000Y-109893100D01*
X186436000Y-102019100D02*
X186436000Y-101003100D01*
X186436000Y-102273100D02*
X186436000Y-102019100D01*
X186436000Y-102273100D02*
X186436000Y-103035100D01*
X186436000Y-102273100D02*
X210312000Y-102273100D01*
X209423000Y-101003100D02*
X186436000Y-101003100D01*
X209804000Y-101511100D02*
X209423000Y-101003100D01*
X209804000Y-101511100D02*
X210312000Y-101511100D01*
X210312000Y-101511100D02*
X211836000Y-101511100D01*
D18*
X210312000Y-102019100D02*
X186436000Y-102019100D01*
D14*
X210312000Y-102019100D02*
X210312000Y-101511100D01*
X210312000Y-102273100D02*
X210312000Y-102019100D01*
X210312000Y-102273100D02*
X211836000Y-102273100D01*
X211836000Y-101511100D02*
X212344000Y-101511100D01*
X211836000Y-102019100D02*
X211836000Y-101511100D01*
X211836000Y-102273100D02*
X211836000Y-102019100D01*
X211836000Y-102273100D02*
X218694000Y-102273100D01*
X212725000Y-101003100D02*
X212344000Y-101511100D01*
X214122000Y-101003100D02*
X212725000Y-101003100D01*
X214122000Y-101003100D02*
X214122000Y-101130100D01*
X215646000Y-101130100D02*
X214122000Y-101130100D01*
X215646000Y-101130100D02*
X215646000Y-101003100D01*
X217424000Y-109893100D02*
X185039000Y-109893100D01*
X217424000Y-110147100D02*
X217424000Y-109893100D01*
X217424000Y-110147100D02*
X218694000Y-110147100D01*
X218694000Y-108623100D02*
X150114000Y-108623100D01*
X218694000Y-108623100D02*
X218694000Y-102273100D01*
X218694000Y-110147100D02*
X218694000Y-109893100D01*
D18*
X218948000Y-102019100D02*
X211836000Y-102019100D01*
X218948000Y-108877100D02*
X218948000Y-102019100D01*
D14*
X219964000Y-101003100D02*
X215646000Y-101003100D01*
X219964000Y-109893100D02*
X218694000Y-109893100D01*
X219964000Y-109893100D02*
X219964000Y-101003100D01*
D19*
%TO.C,U$6*%
X84277200Y-115379500D02*
X93167200Y-115379500D01*
X84277200Y-120459500D02*
X84277200Y-115379500D01*
X93167200Y-115379500D02*
X93167200Y-120459500D01*
X93167200Y-120459500D02*
X84277200Y-120459500D01*
D14*
%TO.C,SW1*%
X92810600Y-85174300D02*
X92810600Y-98174300D01*
X92810600Y-85174300D02*
X99670600Y-85174300D01*
X92810600Y-98174300D02*
X99670600Y-98174300D01*
X99670600Y-98174300D02*
X99670600Y-85174300D01*
%TO.C,CARTRIDGE_PORT0*%
X161829800Y-85026500D02*
X206927500Y-85026500D01*
X161829800Y-93916500D02*
X161829800Y-85026500D01*
X206927500Y-85026500D02*
X206927500Y-93916500D01*
X206927500Y-93916500D02*
X161829800Y-93916500D01*
D20*
%TO.C,H3*%
X163219800Y-97259900D02*
G75*
G02*
X159819800Y-97259900I-1700000J0D01*
G01*
X159819800Y-97259900D02*
G75*
G02*
X163219800Y-97259900I1700000J0D01*
G01*
X164948800Y-97259900D02*
G75*
G02*
X158090800Y-97259900I-3429000J0D01*
G01*
X158090800Y-97259900D02*
G75*
G02*
X164948800Y-97259900I3429000J0D01*
G01*
D14*
%TO.C,PBI_CART_INT0*%
X148590000Y-114185700D02*
X148590000Y-123075700D01*
X148590000Y-114185700D02*
X149860000Y-114185700D01*
X148590000Y-123075700D02*
X152908000Y-123075700D01*
D18*
X149606000Y-115201700D02*
X149606000Y-122059700D01*
X149606000Y-122059700D02*
X156718000Y-122059700D01*
D14*
X149860000Y-113931700D02*
X149860000Y-114185700D01*
X149860000Y-115455700D02*
X149860000Y-121805700D01*
X149860000Y-115455700D02*
X205740000Y-115455700D01*
X151130000Y-113931700D02*
X149860000Y-113931700D01*
X151130000Y-113931700D02*
X151130000Y-114185700D01*
X151130000Y-114185700D02*
X177165000Y-114185700D01*
X152908000Y-122948700D02*
X152908000Y-123075700D01*
X152908000Y-122948700D02*
X154432000Y-122948700D01*
X154432000Y-123075700D02*
X154432000Y-122948700D01*
X154432000Y-123075700D02*
X155829000Y-123075700D01*
X155829000Y-123075700D02*
X156210000Y-122567700D01*
X156718000Y-121805700D02*
X149860000Y-121805700D01*
X156718000Y-121805700D02*
X156718000Y-122059700D01*
X156718000Y-122059700D02*
X156718000Y-122567700D01*
X156718000Y-122567700D02*
X156210000Y-122567700D01*
X158242000Y-121805700D02*
X156718000Y-121805700D01*
X158242000Y-121805700D02*
X158242000Y-122059700D01*
X158242000Y-122059700D02*
X158242000Y-122567700D01*
D18*
X158242000Y-122059700D02*
X175768000Y-122059700D01*
D14*
X158242000Y-122567700D02*
X156718000Y-122567700D01*
X158750000Y-122567700D02*
X158242000Y-122567700D01*
X158750000Y-122567700D02*
X159131000Y-123075700D01*
X159131000Y-123075700D02*
X175768000Y-123075700D01*
X175768000Y-121805700D02*
X158242000Y-121805700D01*
X175768000Y-121805700D02*
X175768000Y-121043700D01*
X175768000Y-121805700D02*
X175768000Y-122059700D01*
X175768000Y-122059700D02*
X175768000Y-123075700D01*
X177165000Y-113931700D02*
X177165000Y-114185700D01*
X178435000Y-113931700D02*
X177165000Y-113931700D01*
X178435000Y-113931700D02*
X178435000Y-114185700D01*
X178435000Y-114185700D02*
X204470000Y-114185700D01*
X179832000Y-121043700D02*
X175768000Y-121043700D01*
X179832000Y-121043700D02*
X179832000Y-121805700D01*
X179832000Y-121805700D02*
X179832000Y-122059700D01*
X179832000Y-122059700D02*
X179832000Y-123075700D01*
X179832000Y-123075700D02*
X175768000Y-123075700D01*
X199009000Y-123075700D02*
X179832000Y-123075700D01*
X199009000Y-123075700D02*
X199390000Y-122567700D01*
X199898000Y-121805700D02*
X179832000Y-121805700D01*
X199898000Y-121805700D02*
X199898000Y-122059700D01*
D18*
X199898000Y-122059700D02*
X179832000Y-122059700D01*
D14*
X199898000Y-122059700D02*
X199898000Y-122567700D01*
X199898000Y-122567700D02*
X199390000Y-122567700D01*
X201422000Y-121805700D02*
X199898000Y-121805700D01*
X201422000Y-121805700D02*
X201422000Y-122059700D01*
X201422000Y-122059700D02*
X201422000Y-122567700D01*
D18*
X201422000Y-122059700D02*
X205994000Y-122059700D01*
D14*
X201422000Y-122567700D02*
X199898000Y-122567700D01*
X201930000Y-122567700D02*
X201422000Y-122567700D01*
X201930000Y-122567700D02*
X202311000Y-123075700D01*
X204470000Y-114185700D02*
X204470000Y-113931700D01*
X205740000Y-113931700D02*
X204470000Y-113931700D01*
X205740000Y-114185700D02*
X205740000Y-113931700D01*
X205740000Y-114185700D02*
X207010000Y-114185700D01*
X205740000Y-121805700D02*
X201422000Y-121805700D01*
X205740000Y-121805700D02*
X205740000Y-115455700D01*
D18*
X205994000Y-115201700D02*
X149606000Y-115201700D01*
X205994000Y-122059700D02*
X205994000Y-115201700D01*
D14*
X207010000Y-123075700D02*
X202311000Y-123075700D01*
X207010000Y-123075700D02*
X207010000Y-114185700D01*
D21*
%TO.C,H2*%
X216758600Y-118023300D02*
G75*
G02*
X212958600Y-118023300I-1900000J0D01*
G01*
X212958600Y-118023300D02*
G75*
G02*
X216758600Y-118023300I1900000J0D01*
G01*
D20*
X218287600Y-118023300D02*
G75*
G02*
X211429600Y-118023300I-3429000J0D01*
G01*
X211429600Y-118023300D02*
G75*
G02*
X218287600Y-118023300I3429000J0D01*
G01*
D14*
%TO.C,POWER_IN0*%
X78442821Y-100033141D02*
X78442821Y-84386741D01*
X79382621Y-91747341D02*
X80017621Y-85397341D01*
X80017621Y-85397341D02*
X83192621Y-85397341D01*
X83192621Y-85397341D02*
X83827621Y-91747341D01*
X85732621Y-85397341D02*
X85097621Y-91747341D01*
X88907621Y-85397341D02*
X85732621Y-85397341D01*
X89542621Y-91747341D02*
X88907621Y-85397341D01*
X90477021Y-84341341D02*
X78462821Y-84341341D01*
X90477021Y-100063941D02*
X78462821Y-100063941D01*
X90482421Y-100058541D02*
X90482421Y-84361341D01*
%TO.C,SIO_INT0*%
X124739400Y-114185700D02*
X124739400Y-123075700D01*
X124739400Y-114185700D02*
X126009400Y-114185700D01*
D18*
X125755400Y-115201700D02*
X125755400Y-122059700D01*
X125755400Y-122059700D02*
X132867400Y-122059700D01*
D14*
X126009400Y-113931700D02*
X126009400Y-114185700D01*
X126009400Y-115455700D02*
X126009400Y-121805700D01*
X126009400Y-115455700D02*
X143789400Y-115455700D01*
X127279400Y-113931700D02*
X126009400Y-113931700D01*
X127279400Y-113931700D02*
X127279400Y-114185700D01*
X127279400Y-114185700D02*
X134264400Y-114185700D01*
X129184400Y-123075700D02*
X124739400Y-123075700D01*
X129184400Y-123075700D02*
X129184400Y-122948700D01*
X130454400Y-122948700D02*
X129184400Y-122948700D01*
X130454400Y-122948700D02*
X130454400Y-123075700D01*
X132867400Y-121805700D02*
X126009400Y-121805700D01*
X132867400Y-121805700D02*
X132867400Y-121043700D01*
X132867400Y-121805700D02*
X132867400Y-122059700D01*
X132867400Y-122059700D02*
X132867400Y-123075700D01*
X132867400Y-123075700D02*
X130454400Y-123075700D01*
X134264400Y-113931700D02*
X134264400Y-114185700D01*
X135534400Y-113931700D02*
X134264400Y-113931700D01*
X135534400Y-113931700D02*
X135534400Y-114185700D01*
X135534400Y-114185700D02*
X142519400Y-114185700D01*
X136931400Y-121043700D02*
X132867400Y-121043700D01*
X136931400Y-121043700D02*
X136931400Y-121805700D01*
X136931400Y-121805700D02*
X136931400Y-122059700D01*
X136931400Y-122059700D02*
X136931400Y-123075700D01*
X136931400Y-123075700D02*
X132867400Y-123075700D01*
X137058400Y-123075700D02*
X136931400Y-123075700D01*
X137058400Y-123075700D02*
X137439400Y-122567700D01*
X137947400Y-121805700D02*
X136931400Y-121805700D01*
X137947400Y-121805700D02*
X137947400Y-122059700D01*
D18*
X137947400Y-122059700D02*
X136931400Y-122059700D01*
D14*
X137947400Y-122059700D02*
X137947400Y-122567700D01*
X137947400Y-122567700D02*
X137439400Y-122567700D01*
X139471400Y-121805700D02*
X137947400Y-121805700D01*
X139471400Y-121805700D02*
X139471400Y-122059700D01*
X139471400Y-122059700D02*
X139471400Y-122567700D01*
D18*
X139471400Y-122059700D02*
X144043400Y-122059700D01*
D14*
X139471400Y-122567700D02*
X137947400Y-122567700D01*
X139979400Y-122567700D02*
X139471400Y-122567700D01*
X139979400Y-122567700D02*
X140360400Y-123075700D01*
X142519400Y-114185700D02*
X142519400Y-113931700D01*
X143789400Y-113931700D02*
X142519400Y-113931700D01*
X143789400Y-114185700D02*
X143789400Y-113931700D01*
X143789400Y-114185700D02*
X145059400Y-114185700D01*
X143789400Y-121805700D02*
X139471400Y-121805700D01*
X143789400Y-121805700D02*
X143789400Y-115455700D01*
D18*
X144043400Y-115201700D02*
X125755400Y-115201700D01*
X144043400Y-122059700D02*
X144043400Y-115201700D01*
D14*
X145059400Y-123075700D02*
X140360400Y-123075700D01*
X145059400Y-123075700D02*
X145059400Y-114185700D01*
D20*
%TO.C,SIO_PORT0*%
X100533200Y-86753700D02*
X100533200Y-93103700D01*
D14*
X100533200Y-93103700D02*
X100533200Y-101485700D01*
X100533200Y-101485700D02*
X113233200Y-101485700D01*
D20*
X104470200Y-93103700D02*
X100533200Y-93103700D01*
X108280200Y-77863700D02*
X140030200Y-77863700D01*
X108280200Y-85483700D02*
X101803200Y-85483700D01*
X108280200Y-85483700D02*
X108280200Y-77863700D01*
X108280200Y-85483700D02*
X108280200Y-92341700D01*
X108280200Y-100215700D02*
X108280200Y-96913700D01*
X108381800Y-93103700D02*
X104470200Y-93103700D01*
X110820200Y-94881700D02*
X137490200Y-94881700D01*
X113233200Y-100977700D02*
X113233200Y-101485700D01*
X113233200Y-101485700D02*
X109550200Y-101485700D01*
X113741200Y-100977700D02*
X113741200Y-101485700D01*
X115011200Y-97929700D02*
X115011200Y-101485700D01*
X115011200Y-101485700D02*
X113741200Y-101485700D01*
X115519200Y-97929700D02*
X115519200Y-101485700D01*
X116789200Y-100977700D02*
X116789200Y-101485700D01*
X116789200Y-101485700D02*
X115519200Y-101485700D01*
X117297200Y-100977700D02*
X117297200Y-101485700D01*
X118567200Y-97929700D02*
X118567200Y-101485700D01*
X118567200Y-101485700D02*
X117297200Y-101485700D01*
X119075200Y-97929700D02*
X119075200Y-101485700D01*
X120345200Y-100977700D02*
X120345200Y-101485700D01*
X120345200Y-101485700D02*
X119075200Y-101485700D01*
X120853200Y-100977700D02*
X120853200Y-101485700D01*
X122123200Y-97929700D02*
X122123200Y-101485700D01*
X122123200Y-101485700D02*
X120853200Y-101485700D01*
X122631200Y-97929700D02*
X122631200Y-101485700D01*
X123901200Y-100977700D02*
X123901200Y-101485700D01*
X123901200Y-101485700D02*
X122631200Y-101485700D01*
X124409200Y-100977700D02*
X124409200Y-101485700D01*
X125679200Y-97929700D02*
X125679200Y-101485700D01*
X125679200Y-101485700D02*
X124409200Y-101485700D01*
X126187200Y-97929700D02*
X126187200Y-101485700D01*
X127457200Y-100977700D02*
X127457200Y-101485700D01*
X127457200Y-101485700D02*
X126187200Y-101485700D01*
X127965200Y-100977700D02*
X127965200Y-101485700D01*
X129235200Y-97929700D02*
X129235200Y-101485700D01*
X129235200Y-101485700D02*
X127965200Y-101485700D01*
X129743200Y-97929700D02*
X129743200Y-101485700D01*
X131013200Y-100977700D02*
X131013200Y-101485700D01*
X131013200Y-101485700D02*
X129743200Y-101485700D01*
X131521200Y-100977700D02*
X131521200Y-101485700D01*
X132791200Y-97929700D02*
X132791200Y-101485700D01*
X132791200Y-101485700D02*
X131521200Y-101485700D01*
X133299200Y-97929700D02*
X133299200Y-101485700D01*
X134569200Y-101485700D02*
X133299200Y-101485700D01*
X134569200Y-101485700D02*
X134569200Y-100977700D01*
X135077200Y-101485700D02*
X135077200Y-100977700D01*
X138760200Y-101485700D02*
X135077200Y-101485700D01*
X140030200Y-77863700D02*
X140030200Y-85483700D01*
X140030200Y-85483700D02*
X140030200Y-92341700D01*
X140030200Y-85483700D02*
X146507200Y-85483700D01*
X140030200Y-100215700D02*
X140030200Y-96913700D01*
X143840200Y-93103700D02*
X139928600Y-93103700D01*
X147777200Y-86753700D02*
X147777200Y-93103700D01*
X147777200Y-93103700D02*
X143840200Y-93103700D01*
D14*
X147777200Y-93103700D02*
X147777200Y-101485700D01*
X147777200Y-101485700D02*
X135077200Y-101485700D01*
D20*
X100533200Y-86753700D02*
G75*
G02*
X101803200Y-85483700I1270000J0D01*
G01*
X104470200Y-93103700D02*
G75*
G02*
X108280200Y-96913700I0J-3810000D01*
G01*
X109550200Y-101485700D02*
G75*
G02*
X108280200Y-100215700I0J1270000D01*
G01*
X110820200Y-94881700D02*
G75*
G02*
X108280200Y-92341700I0J2540000D01*
G01*
X140030200Y-92341700D02*
G75*
G02*
X137490200Y-94881700I-2540001J1D01*
G01*
X140030200Y-96913700D02*
G75*
G02*
X143840200Y-93103700I3809999J1D01*
G01*
X140030200Y-100215700D02*
G75*
G02*
X138760200Y-101485700I-1269999J-1D01*
G01*
X146507200Y-85483700D02*
G75*
G02*
X147777200Y-86753700I1J-1269999D01*
G01*
D21*
%TO.C,H1*%
X116911200Y-108269700D02*
G75*
G02*
X113111200Y-108269700I-1900000J0D01*
G01*
X113111200Y-108269700D02*
G75*
G02*
X116911200Y-108269700I1900000J0D01*
G01*
D20*
X118440200Y-108269700D02*
G75*
G02*
X111582200Y-108269700I-3429000J0D01*
G01*
X111582200Y-108269700D02*
G75*
G02*
X118440200Y-108269700I3429000J0D01*
G01*
%TD*%
M02*
