%TF.GenerationSoftware,KiCad,Pcbnew,9.0.7*%
%TF.CreationDate,2026-08-08T12:28:45+02:00*%
%TF.ProjectId,eclaireXLv1sub,65636c61-6972-4655-984c-76317375622e,rev?*%
%TF.SameCoordinates,Original*%
%TF.FileFunction,Copper,L1,Top*%
%TF.FilePolarity,Positive*%
%FSLAX46Y46*%
G04 Gerber Fmt 4.6, Leading zero omitted, Abs format (unit mm)*
G04 Created by KiCad (PCBNEW 9.0.7) date 2026-08-08 12:28:45*
%MOMM*%
%LPD*%
G01*
G04 APERTURE LIST*
G04 Aperture macros list*
%AMOutline5P*
0 Free polygon, 5 corners , with rotation*
0 The origin of the aperture is its center*
0 number of corners: always 5*
0 $1 to $10 corner X, Y*
0 $11 Rotation angle, in degrees counterclockwise*
0 create outline with 5 corners*
4,1,5,$1,$2,$3,$4,$5,$6,$7,$8,$9,$10,$1,$2,$11*%
%AMOutline6P*
0 Free polygon, 6 corners , with rotation*
0 The origin of the aperture is its center*
0 number of corners: always 6*
0 $1 to $12 corner X, Y*
0 $13 Rotation angle, in degrees counterclockwise*
0 create outline with 6 corners*
4,1,6,$1,$2,$3,$4,$5,$6,$7,$8,$9,$10,$11,$12,$1,$2,$13*%
%AMOutline7P*
0 Free polygon, 7 corners , with rotation*
0 The origin of the aperture is its center*
0 number of corners: always 7*
0 $1 to $14 corner X, Y*
0 $15 Rotation angle, in degrees counterclockwise*
0 create outline with 7 corners*
4,1,7,$1,$2,$3,$4,$5,$6,$7,$8,$9,$10,$11,$12,$13,$14,$1,$2,$15*%
%AMOutline8P*
0 Free polygon, 8 corners , with rotation*
0 The origin of the aperture is its center*
0 number of corners: always 8*
0 $1 to $16 corner X, Y*
0 $17 Rotation angle, in degrees counterclockwise*
0 create outline with 8 corners*
4,1,8,$1,$2,$3,$4,$5,$6,$7,$8,$9,$10,$11,$12,$13,$14,$15,$16,$1,$2,$17*%
G04 Aperture macros list end*
%TA.AperFunction,ComponentPad*%
%ADD10Outline8P,-0.685800X0.284068X-0.284068X0.685800X0.284068X0.685800X0.685800X0.284068X0.685800X-0.284068X0.284068X-0.685800X-0.284068X-0.685800X-0.685800X-0.284068X180.000000*%
%TD*%
%TA.AperFunction,ComponentPad*%
%ADD11Outline8P,-1.350000X0.559188X-0.559188X1.350000X0.559188X1.350000X1.350000X0.559188X1.350000X-0.559188X0.559188X-1.350000X-0.559188X-1.350000X-1.350000X-0.559188X0.000000*%
%TD*%
%TA.AperFunction,ComponentPad*%
%ADD12C,2.775000*%
%TD*%
%TA.AperFunction,SMDPad,CuDef*%
%ADD13R,1.600000X1.803000*%
%TD*%
%TA.AperFunction,ComponentPad*%
%ADD14C,1.350000*%
%TD*%
%TA.AperFunction,ComponentPad*%
%ADD15C,5.842000*%
%TD*%
%TA.AperFunction,ComponentPad*%
%ADD16Outline8P,-0.685800X0.284068X-0.284068X0.685800X0.284068X0.685800X0.685800X0.284068X0.685800X-0.284068X0.284068X-0.685800X-0.284068X-0.685800X-0.685800X-0.284068X0.000000*%
%TD*%
%TA.AperFunction,ComponentPad*%
%ADD17C,1.371600*%
%TD*%
%TA.AperFunction,ComponentPad*%
%ADD18C,3.302000*%
%TD*%
%TA.AperFunction,ViaPad*%
%ADD19C,0.900000*%
%TD*%
%TA.AperFunction,ViaPad*%
%ADD20C,0.762000*%
%TD*%
%TA.AperFunction,ViaPad*%
%ADD21C,0.508000*%
%TD*%
%TA.AperFunction,Conductor*%
%ADD22C,0.812800*%
%TD*%
%TA.AperFunction,Conductor*%
%ADD23C,0.406400*%
%TD*%
%TA.AperFunction,Conductor*%
%ADD24C,0.304800*%
%TD*%
%TA.AperFunction,Conductor*%
%ADD25C,1.016000*%
%TD*%
%TA.AperFunction,Conductor*%
%ADD26C,0.609600*%
%TD*%
G04 APERTURE END LIST*
D10*
%TO.P,PBI_PORT0,1*%
%TO.N,GND*%
X214884000Y-104178100D03*
%TO.P,PBI_PORT0,2*%
%TO.N,EXTSEL_N*%
X214884000Y-106718100D03*
%TO.P,PBI_PORT0,3*%
%TO.N,A0*%
X212344000Y-104178100D03*
%TO.P,PBI_PORT0,4*%
%TO.N,A1*%
X212344000Y-106718100D03*
%TO.P,PBI_PORT0,5*%
%TO.N,A2*%
X209804000Y-104178100D03*
%TO.P,PBI_PORT0,6*%
%TO.N,A3*%
X209804000Y-106718100D03*
%TO.P,PBI_PORT0,7*%
%TO.N,A4*%
X207264000Y-104178100D03*
%TO.P,PBI_PORT0,8*%
%TO.N,A5*%
X207264000Y-106718100D03*
%TO.P,PBI_PORT0,9*%
%TO.N,A6*%
X204724000Y-104178100D03*
%TO.P,PBI_PORT0,10*%
%TO.N,GND*%
X204724000Y-106718100D03*
%TO.P,PBI_PORT0,11*%
%TO.N,A7*%
X202184000Y-104178100D03*
%TO.P,PBI_PORT0,12*%
%TO.N,A8*%
X202184000Y-106718100D03*
%TO.P,PBI_PORT0,13*%
%TO.N,A9*%
X199644000Y-104178100D03*
%TO.P,PBI_PORT0,14*%
%TO.N,A10*%
X199644000Y-106718100D03*
%TO.P,PBI_PORT0,15*%
%TO.N,A11*%
X197104000Y-104178100D03*
%TO.P,PBI_PORT0,16*%
%TO.N,A12*%
X197104000Y-106718100D03*
%TO.P,PBI_PORT0,17*%
%TO.N,A13*%
X194564000Y-104178100D03*
%TO.P,PBI_PORT0,18*%
%TO.N,A14*%
X194564000Y-106718100D03*
%TO.P,PBI_PORT0,19*%
%TO.N,GND*%
X192024000Y-104178100D03*
%TO.P,PBI_PORT0,20*%
%TO.N,A15*%
X192024000Y-106718100D03*
%TO.P,PBI_PORT0,21*%
%TO.N,D0*%
X189484000Y-104178100D03*
%TO.P,PBI_PORT0,22*%
%TO.N,D1*%
X189484000Y-106718100D03*
%TO.P,PBI_PORT0,23*%
%TO.N,D2*%
X186944000Y-104178100D03*
%TO.P,PBI_PORT0,24*%
%TO.N,D3*%
X186944000Y-106718100D03*
%TO.P,PBI_PORT0,25*%
%TO.N,D4*%
X184404000Y-104178100D03*
%TO.P,PBI_PORT0,26*%
%TO.N,D5*%
X184404000Y-106718100D03*
%TO.P,PBI_PORT0,27*%
%TO.N,D6*%
X181864000Y-104178100D03*
%TO.P,PBI_PORT0,28*%
%TO.N,D7*%
X181864000Y-106718100D03*
%TO.P,PBI_PORT0,29*%
%TO.N,GND*%
X179324000Y-104178100D03*
%TO.P,PBI_PORT0,30*%
X179324000Y-106718100D03*
%TO.P,PBI_PORT0,31*%
%TO.N,PHI2*%
X176784000Y-104178100D03*
%TO.P,PBI_PORT0,32*%
%TO.N,GND*%
X176784000Y-106718100D03*
%TO.P,PBI_PORT0,33*%
%TO.N,N/C*%
X174244000Y-104178100D03*
%TO.P,PBI_PORT0,34*%
%TO.N,RST_N*%
X174244000Y-106718100D03*
%TO.P,PBI_PORT0,35*%
%TO.N,IRQ_N*%
X171704000Y-104178100D03*
%TO.P,PBI_PORT0,36*%
%TO.N,RDY_N*%
X171704000Y-106718100D03*
%TO.P,PBI_PORT0,37*%
%TO.N,N/C*%
X169164000Y-104178100D03*
%TO.P,PBI_PORT0,38*%
%TO.N,CASINH_N*%
X169164000Y-106718100D03*
%TO.P,PBI_PORT0,39*%
%TO.N,N/C*%
X166624000Y-104178100D03*
%TO.P,PBI_PORT0,40*%
%TO.N,REF_N*%
X166624000Y-106718100D03*
%TO.P,PBI_PORT0,41*%
%TO.N,CAS_N*%
X164084000Y-104178100D03*
%TO.P,PBI_PORT0,42*%
%TO.N,GND*%
X164084000Y-106718100D03*
%TO.P,PBI_PORT0,43*%
%TO.N,MPD_N*%
X161544000Y-104178100D03*
%TO.P,PBI_PORT0,44*%
%TO.N,RAS_N*%
X161544000Y-106718100D03*
%TO.P,PBI_PORT0,45*%
%TO.N,GND*%
X159004000Y-104178100D03*
%TO.P,PBI_PORT0,46*%
%TO.N,RW_N*%
X159004000Y-106718100D03*
%TO.P,PBI_PORT0,47*%
%TO.N,5VOUT*%
X156464000Y-104178100D03*
%TO.P,PBI_PORT0,48*%
X156464000Y-106718100D03*
%TO.P,PBI_PORT0,49*%
%TO.N,MIC*%
X153924000Y-104178100D03*
%TO.P,PBI_PORT0,50*%
%TO.N,GND*%
X153924000Y-106718100D03*
%TD*%
D11*
%TO.P,U$6,+*%
%TO.N,5VMAIN*%
X86817200Y-117919500D03*
%TO.P,U$6,-*%
%TO.N,GND*%
X90777200Y-117919500D03*
%TD*%
D12*
%TO.P,SW1,P$1*%
%TO.N,N/C*%
X96240600Y-99174300D03*
%TO.P,SW1,P$2*%
%TO.N,5V0*%
X96240600Y-102984300D03*
%TO.P,SW1,P$3*%
%TO.N,5VMAIN*%
X96240600Y-106794300D03*
%TD*%
D13*
%TO.P,PF1,1*%
%TO.N,5VMAIN*%
X86868400Y-109562900D03*
%TO.P,PF1,2*%
%TO.N,5VOUT*%
X89712400Y-109562900D03*
%TD*%
D14*
%TO.P,CARTRIDGE_PORT0,1*%
%TO.N,S4_N*%
X202158600Y-86931500D03*
%TO.P,CARTRIDGE_PORT0,2*%
%TO.N,A3*%
X199618600Y-86931500D03*
%TO.P,CARTRIDGE_PORT0,3*%
%TO.N,A2*%
X197078600Y-86931500D03*
%TO.P,CARTRIDGE_PORT0,4*%
%TO.N,A1*%
X194538600Y-86931500D03*
%TO.P,CARTRIDGE_PORT0,5*%
%TO.N,A0*%
X191998600Y-86931500D03*
%TO.P,CARTRIDGE_PORT0,6*%
%TO.N,D4*%
X189458600Y-86931500D03*
%TO.P,CARTRIDGE_PORT0,7*%
%TO.N,D5*%
X186918600Y-86931500D03*
%TO.P,CARTRIDGE_PORT0,8*%
%TO.N,D2*%
X184378600Y-86931500D03*
%TO.P,CARTRIDGE_PORT0,9*%
%TO.N,D1*%
X181838600Y-86931500D03*
%TO.P,CARTRIDGE_PORT0,10*%
%TO.N,D0*%
X179298600Y-86931500D03*
%TO.P,CARTRIDGE_PORT0,11*%
%TO.N,D6*%
X176758600Y-86931500D03*
%TO.P,CARTRIDGE_PORT0,12*%
%TO.N,S5_N*%
X174218600Y-86931500D03*
%TO.P,CARTRIDGE_PORT0,13*%
%TO.N,5VOUT*%
X171678600Y-86931500D03*
%TO.P,CARTRIDGE_PORT0,14*%
%TO.N,RD5*%
X169138600Y-86931500D03*
%TO.P,CARTRIDGE_PORT0,15*%
%TO.N,CCTL_N*%
X166598600Y-86931500D03*
%TO.P,CARTRIDGE_PORT0,A*%
%TO.N,RD4*%
X202158600Y-92011500D03*
%TO.P,CARTRIDGE_PORT0,B*%
%TO.N,GND*%
X199618600Y-92011500D03*
%TO.P,CARTRIDGE_PORT0,C*%
%TO.N,A4*%
X197078600Y-92011500D03*
%TO.P,CARTRIDGE_PORT0,D*%
%TO.N,A5*%
X194538600Y-92011500D03*
%TO.P,CARTRIDGE_PORT0,E*%
%TO.N,A6*%
X191998600Y-92011500D03*
%TO.P,CARTRIDGE_PORT0,F*%
%TO.N,A7*%
X189458600Y-92011500D03*
%TO.P,CARTRIDGE_PORT0,H*%
%TO.N,A8*%
X186918600Y-92011500D03*
%TO.P,CARTRIDGE_PORT0,J*%
%TO.N,A9*%
X184378600Y-92011500D03*
%TO.P,CARTRIDGE_PORT0,K*%
%TO.N,A12*%
X181838600Y-92011500D03*
%TO.P,CARTRIDGE_PORT0,L*%
%TO.N,D3*%
X179298600Y-92011500D03*
%TO.P,CARTRIDGE_PORT0,M*%
%TO.N,D7*%
X176758600Y-92011500D03*
%TO.P,CARTRIDGE_PORT0,N*%
%TO.N,A11*%
X174218600Y-92011500D03*
%TO.P,CARTRIDGE_PORT0,P*%
%TO.N,A10*%
X171678600Y-92011500D03*
%TO.P,CARTRIDGE_PORT0,R*%
%TO.N,RW_N*%
X169138600Y-92011500D03*
%TO.P,CARTRIDGE_PORT0,S*%
%TO.N,PHI2*%
X166598600Y-92011500D03*
%TD*%
D15*
%TO.P,H3,B3\u002C2*%
%TO.N,GND*%
X161519800Y-97259900D03*
%TD*%
D16*
%TO.P,PBI_CART_INT0,1*%
%TO.N,CCTL_N*%
X153670000Y-119900700D03*
%TO.P,PBI_CART_INT0,2*%
%TO.N,PHI2*%
X153670000Y-117360700D03*
%TO.P,PBI_CART_INT0,3*%
%TO.N,RD5*%
X156210000Y-119900700D03*
%TO.P,PBI_CART_INT0,4*%
%TO.N,RW_N*%
X156210000Y-117360700D03*
%TO.P,PBI_CART_INT0,5*%
%TO.N,A10*%
X158750000Y-119900700D03*
%TO.P,PBI_CART_INT0,6*%
%TO.N,A11*%
X158750000Y-117360700D03*
%TO.P,PBI_CART_INT0,7*%
%TO.N,S5_N*%
X161290000Y-119900700D03*
%TO.P,PBI_CART_INT0,8*%
%TO.N,D7*%
X161290000Y-117360700D03*
%TO.P,PBI_CART_INT0,9*%
%TO.N,D6*%
X163830000Y-119900700D03*
%TO.P,PBI_CART_INT0,10*%
%TO.N,D3*%
X163830000Y-117360700D03*
%TO.P,PBI_CART_INT0,11*%
%TO.N,N/C*%
X166370000Y-119900700D03*
%TO.P,PBI_CART_INT0,12*%
X166370000Y-117360700D03*
%TO.P,PBI_CART_INT0,13*%
%TO.N,D0*%
X168910000Y-119900700D03*
%TO.P,PBI_CART_INT0,14*%
%TO.N,A12*%
X168910000Y-117360700D03*
%TO.P,PBI_CART_INT0,15*%
%TO.N,D1*%
X171450000Y-119900700D03*
%TO.P,PBI_CART_INT0,16*%
%TO.N,A9*%
X171450000Y-117360700D03*
%TO.P,PBI_CART_INT0,17*%
%TO.N,D2*%
X173990000Y-119900700D03*
%TO.P,PBI_CART_INT0,18*%
%TO.N,A8*%
X173990000Y-117360700D03*
%TO.P,PBI_CART_INT0,19*%
%TO.N,D5*%
X176530000Y-119900700D03*
%TO.P,PBI_CART_INT0,20*%
%TO.N,A7*%
X176530000Y-117360700D03*
%TO.P,PBI_CART_INT0,21*%
%TO.N,D4*%
X179070000Y-119900700D03*
%TO.P,PBI_CART_INT0,22*%
%TO.N,A6*%
X179070000Y-117360700D03*
%TO.P,PBI_CART_INT0,23*%
%TO.N,A0*%
X181610000Y-119900700D03*
%TO.P,PBI_CART_INT0,24*%
%TO.N,A5*%
X181610000Y-117360700D03*
%TO.P,PBI_CART_INT0,25*%
%TO.N,A1*%
X184150000Y-119900700D03*
%TO.P,PBI_CART_INT0,26*%
%TO.N,A4*%
X184150000Y-117360700D03*
%TO.P,PBI_CART_INT0,27*%
%TO.N,A2*%
X186690000Y-119900700D03*
%TO.P,PBI_CART_INT0,28*%
%TO.N,A3*%
X186690000Y-117360700D03*
%TO.P,PBI_CART_INT0,29*%
%TO.N,MIC*%
X189230000Y-119900700D03*
%TO.P,PBI_CART_INT0,30*%
X189230000Y-117360700D03*
%TO.P,PBI_CART_INT0,31*%
%TO.N,RD4*%
X191770000Y-119900700D03*
%TO.P,PBI_CART_INT0,32*%
%TO.N,S4_N*%
X191770000Y-117360700D03*
%TO.P,PBI_CART_INT0,33*%
%TO.N,EXTSEL_N*%
X194310000Y-119900700D03*
%TO.P,PBI_CART_INT0,34*%
%TO.N,A13*%
X194310000Y-117360700D03*
%TO.P,PBI_CART_INT0,35*%
%TO.N,A14*%
X196850000Y-119900700D03*
%TO.P,PBI_CART_INT0,36*%
%TO.N,A15*%
X196850000Y-117360700D03*
%TO.P,PBI_CART_INT0,37*%
%TO.N,MPD_N*%
X199390000Y-119900700D03*
%TO.P,PBI_CART_INT0,38*%
%TO.N,REF_N*%
X199390000Y-117360700D03*
%TO.P,PBI_CART_INT0,39*%
%TO.N,IRQ_N*%
X201930000Y-119900700D03*
%TO.P,PBI_CART_INT0,40*%
%TO.N,RST_N*%
X201930000Y-117360700D03*
%TD*%
D15*
%TO.P,H2,B3\u002C6*%
%TO.N,GND*%
X214858600Y-118023300D03*
%TD*%
D17*
%TO.P,POWER_IN0,D+*%
%TO.N,N/C*%
X85712621Y-96827341D03*
%TO.P,POWER_IN0,D-*%
X85712621Y-98808541D03*
%TO.P,POWER_IN0,GND*%
%TO.N,GND*%
X83212621Y-96827341D03*
D18*
%TO.P,POWER_IN0,P$1*%
%TO.N,N/C*%
X78442821Y-94109541D03*
%TO.P,POWER_IN0,P$2*%
X90482421Y-94109541D03*
D17*
%TO.P,POWER_IN0,VBUS*%
%TO.N,5V0*%
X83212621Y-98808541D03*
%TD*%
D16*
%TO.P,SIO_INT0,1*%
%TO.N,SIO_CLOCKOUT*%
X129819400Y-119900700D03*
%TO.P,SIO_INT0,2*%
%TO.N,COMMAND*%
X129819400Y-117360700D03*
%TO.P,SIO_INT0,3*%
%TO.N,SIO_IN*%
X132359400Y-119900700D03*
%TO.P,SIO_INT0,4*%
%TO.N,PROCEED*%
X132359400Y-117360700D03*
%TO.P,SIO_INT0,5*%
%TO.N,SIO_IRQ*%
X134899400Y-119900700D03*
%TO.P,SIO_INT0,6*%
%TO.N,SIO_CLOCKIN*%
X134899400Y-117360700D03*
%TO.P,SIO_INT0,7*%
%TO.N,SIO_OUT*%
X137439400Y-119900700D03*
%TO.P,SIO_INT0,8*%
%TO.N,MOTOR*%
X137439400Y-117360700D03*
%TO.P,SIO_INT0,9*%
%TO.N,MIC*%
X139979400Y-119900700D03*
%TO.P,SIO_INT0,10*%
%TO.N,MOTOR*%
X139979400Y-117360700D03*
%TD*%
D14*
%TO.P,SIO_PORT0,1*%
%TO.N,SIO_CLOCKIN*%
X134823200Y-100088700D03*
%TO.P,SIO_PORT0,2*%
%TO.N,SIO_CLOCKOUT*%
X133045200Y-97009200D03*
%TO.P,SIO_PORT0,3*%
%TO.N,SIO_IN*%
X131267200Y-100088700D03*
%TO.P,SIO_PORT0,4*%
%TO.N,GND*%
X129489200Y-97009200D03*
%TO.P,SIO_PORT0,5*%
%TO.N,SIO_OUT*%
X127711200Y-100088700D03*
%TO.P,SIO_PORT0,6*%
%TO.N,GND*%
X125933200Y-97009200D03*
%TO.P,SIO_PORT0,7*%
%TO.N,COMMAND*%
X124155200Y-100088700D03*
%TO.P,SIO_PORT0,8*%
%TO.N,MOTOR*%
X122377200Y-97009200D03*
%TO.P,SIO_PORT0,9*%
%TO.N,PROCEED*%
X120599200Y-100088700D03*
%TO.P,SIO_PORT0,10*%
%TO.N,5VOUT*%
X118821200Y-97009200D03*
%TO.P,SIO_PORT0,11*%
%TO.N,MIC*%
X117043200Y-100088700D03*
%TO.P,SIO_PORT0,12*%
%TO.N,N/C*%
X115265200Y-97009200D03*
%TO.P,SIO_PORT0,13*%
%TO.N,SIO_IRQ*%
X113487200Y-100088700D03*
%TD*%
D15*
%TO.P,H1,B3\u002C6*%
%TO.N,GND*%
X115011200Y-108269700D03*
%TD*%
D19*
%TO.N,GND*%
X191897000Y-100291900D03*
X179349400Y-100164900D03*
X212775800Y-101028500D03*
X150850600Y-106692700D03*
X159131000Y-101536500D03*
X161569400Y-109181900D03*
D20*
%TO.N,5VOUT*%
X148158200Y-102171500D03*
X148107400Y-105981500D03*
D21*
%TO.N,SIO_IN*%
X133629400Y-105397300D03*
%TO.N,MIC*%
X187629800Y-121754900D03*
%TO.N,RST_N*%
X200012300Y-114452400D03*
X174612300Y-116039900D03*
%TO.N,REF_N*%
X178117500Y-107581700D03*
X197472300Y-112864900D03*
X180009800Y-112864900D03*
%TO.N,A15*%
X196837300Y-108419900D03*
%TO.N,A4*%
X206679800Y-101752400D03*
X184429400Y-110350300D03*
%TO.N,A5*%
X182232300Y-114769900D03*
X190169800Y-110324900D03*
X205092300Y-101752400D03*
X187312300Y-114134900D03*
%TO.N,A6*%
X180009800Y-114769900D03*
X199059800Y-113499900D03*
%TO.N,A7*%
X196837300Y-96989900D03*
X197789800Y-112229900D03*
X177469800Y-114452400D03*
%TO.N,A8*%
X173977300Y-113182400D03*
X186994800Y-103022400D03*
X200012300Y-110959900D03*
%TO.N,A9*%
X173342300Y-114769900D03*
X184454800Y-96672400D03*
X197472300Y-111594900D03*
X196837300Y-98259900D03*
%TO.N,A12*%
X172707300Y-110324900D03*
X173024800Y-97624900D03*
%TO.N,D3*%
X187629800Y-95719900D03*
X186359800Y-115404900D03*
%TO.N,D7*%
X180327300Y-105879900D03*
%TO.N,A11*%
X196837300Y-101117400D03*
%TO.N,PHI2*%
X175882300Y-101117400D03*
X159283400Y-92214700D03*
%TO.N,IRQ_N*%
X208000600Y-114338100D03*
X212077300Y-102387400D03*
%TO.N,MPD_N*%
X195567300Y-122072400D03*
%TO.N,A2*%
X203682600Y-118554500D03*
%TO.N,A1*%
X199529700Y-121119900D03*
X209219800Y-109689900D03*
%TO.N,A0*%
X203682600Y-122707400D03*
X181597300Y-122389900D03*
%TO.N,D4*%
X185407300Y-96672400D03*
X180644800Y-109689900D03*
X182867300Y-109054900D03*
%TO.N,D5*%
X178104800Y-109689900D03*
%TO.N,D2*%
X183184800Y-103022400D03*
%TO.N,D1*%
X186994800Y-118579900D03*
%TO.N,D0*%
X187007500Y-90170000D03*
%TO.N,D6*%
X182232300Y-121754900D03*
%TO.N,A10*%
X200647300Y-101752400D03*
X169672000Y-101587300D03*
%TD*%
D22*
%TO.N,GND*%
X165760400Y-108394500D02*
X175514000Y-108394500D01*
X208534000Y-101028500D02*
X212775800Y-101028500D01*
X176784000Y-107124500D02*
X176784000Y-106718100D01*
D23*
X214884000Y-104178100D02*
X213614000Y-105448100D01*
X159004000Y-104178100D02*
X159131000Y-104178100D01*
D22*
X175514000Y-108394500D02*
X176784000Y-107124500D01*
D24*
X179374800Y-104292400D02*
X179324000Y-104178100D01*
D22*
X191770000Y-100164900D02*
X191897000Y-100291900D01*
D25*
X164033200Y-106718100D02*
X161569400Y-109181900D01*
D22*
X208534000Y-101028500D02*
X199618600Y-92113100D01*
D25*
X153924000Y-106718100D02*
X150850600Y-106718100D01*
D23*
X204724000Y-106311700D02*
X204724000Y-106718100D01*
X213614000Y-105448100D02*
X205587600Y-105448100D01*
D26*
X164084000Y-106718100D02*
X164033200Y-106718100D01*
D23*
X205587600Y-105448100D02*
X204724000Y-106311700D01*
D22*
X164084000Y-106718100D02*
X165760400Y-108394500D01*
X179349400Y-100164900D02*
X191770000Y-100164900D01*
D23*
X150850600Y-106718100D02*
X150850600Y-106768900D01*
D25*
X159131000Y-104178100D02*
X159131000Y-101536500D01*
D26*
X199618600Y-92113100D02*
X199618600Y-92011500D01*
%TO.N,5VOUT*%
X149123400Y-109689900D02*
X148107400Y-108673900D01*
D25*
X99441000Y-107505500D02*
X99441000Y-99987100D01*
D26*
X148107400Y-108673900D02*
X148107400Y-105981500D01*
X156464000Y-104178100D02*
X156464000Y-108750100D01*
X171678600Y-87515700D02*
X171678600Y-86931500D01*
X118821200Y-94195900D02*
X118821200Y-97009200D01*
D25*
X106705400Y-93433900D02*
X117881400Y-93433900D01*
D26*
X165125400Y-89014300D02*
X170180000Y-89014300D01*
D25*
X99441000Y-99987100D02*
X106705400Y-93433900D01*
X118821200Y-94373700D02*
X118821200Y-97009200D01*
D26*
X148158200Y-88353900D02*
X146481800Y-86677500D01*
X118821200Y-94195900D02*
X126339600Y-86677500D01*
X155524200Y-109689900D02*
X149123400Y-109689900D01*
X146481800Y-86677500D02*
X162788600Y-86677500D01*
X156464000Y-104178100D02*
X156464000Y-106718100D01*
X156464000Y-108750100D02*
X155524200Y-109689900D01*
X162788600Y-86677500D02*
X165125400Y-89014300D01*
X148158200Y-102171500D02*
X148158200Y-88353900D01*
D25*
X117881400Y-93433900D02*
X118821200Y-94373700D01*
D26*
X126339600Y-86677500D02*
X146481800Y-86677500D01*
D25*
X89712400Y-109562900D02*
X98094800Y-109562900D01*
X98094800Y-109562900D02*
X99441000Y-107505500D01*
D26*
X170180000Y-89014300D02*
X171678600Y-87515700D01*
D23*
%TO.N,COMMAND*%
X129819400Y-117360700D02*
X124155200Y-111696500D01*
X124155200Y-111696500D02*
X124155200Y-100088700D01*
%TO.N,SIO_CLOCKOUT*%
X130987800Y-104203500D02*
X133045200Y-102146100D01*
X133045200Y-102146100D02*
X133045200Y-97009200D01*
X129819400Y-119900700D02*
X130987800Y-118732300D01*
X130987800Y-118732300D02*
X130987800Y-104203500D01*
%TO.N,SIO_IN*%
X133629400Y-118630700D02*
X133629400Y-105397300D01*
X132359400Y-119900700D02*
X133629400Y-118630700D01*
%TO.N,SIO_CLOCKIN*%
X134899400Y-117360700D02*
X134823200Y-117284500D01*
X134823200Y-117284500D02*
X134823200Y-100088700D01*
%TO.N,SIO_IRQ*%
X132486400Y-122313700D02*
X120624600Y-122313700D01*
X120624600Y-122313700D02*
X109016800Y-110705900D01*
X109016800Y-110705900D02*
X109016800Y-104559100D01*
X134899400Y-119900700D02*
X132486400Y-122313700D01*
X109016800Y-104559100D02*
X113487200Y-100088700D01*
%TO.N,MIC*%
X140665200Y-94551500D02*
X122047000Y-94551500D01*
X120675400Y-95923100D02*
X120675400Y-97599500D01*
X117449600Y-99682300D02*
X117043200Y-100088700D01*
X120675400Y-97599500D02*
X118592600Y-99682300D01*
D24*
X164719000Y-118808500D02*
X142748000Y-118808500D01*
D23*
X118592600Y-99682300D02*
X117449600Y-99682300D01*
X141909800Y-103974900D02*
X141909800Y-95796100D01*
X139979400Y-119900700D02*
X141909800Y-117970300D01*
D24*
X153657300Y-103974900D02*
X153924000Y-104178100D01*
X165481000Y-121119900D02*
X165150800Y-120789700D01*
D23*
X141909800Y-95796100D02*
X140665200Y-94551500D01*
D24*
X142748000Y-118808500D02*
X141909800Y-117970300D01*
X165150800Y-119240300D02*
X164719000Y-118808500D01*
X165481000Y-121119900D02*
X182549800Y-121119900D01*
D23*
X141909800Y-117970300D02*
X141909800Y-103974900D01*
D24*
X165150800Y-120789700D02*
X165150800Y-119240300D01*
X183184800Y-121754900D02*
X187629800Y-121754900D01*
X182549800Y-121119900D02*
X183184800Y-121754900D01*
D23*
X122047000Y-94551500D02*
X120675400Y-95923100D01*
D24*
X141909800Y-103974900D02*
X153657300Y-103974900D01*
%TO.N,RST_N*%
X187502800Y-116039900D02*
X174612300Y-116039900D01*
X200012300Y-114452400D02*
X189217300Y-114452400D01*
X189217300Y-114452400D02*
X187502800Y-116039900D01*
%TO.N,REF_N*%
X177558700Y-105435400D02*
X178054000Y-105930700D01*
X167627300Y-105435400D02*
X166674800Y-106514900D01*
X166674800Y-106514900D02*
X166624000Y-106718100D01*
X178054000Y-107518200D02*
X178117500Y-107581700D01*
X197472300Y-112864900D02*
X180009800Y-112864900D01*
X177558700Y-105435400D02*
X167627300Y-105435400D01*
X178054000Y-105930700D02*
X178054000Y-107518200D01*
%TO.N,A15*%
X192074800Y-106514900D02*
X193116200Y-105473500D01*
X198526400Y-107403900D02*
X197510400Y-108419900D01*
X198526400Y-105473500D02*
X198526400Y-107403900D01*
X197510400Y-108419900D02*
X196837300Y-108419900D01*
X193116200Y-105473500D02*
X198526400Y-105473500D01*
X192074800Y-106514900D02*
X192024000Y-106718100D01*
%TO.N,S4_N*%
X192074800Y-117309900D02*
X193027300Y-116357400D01*
X192074800Y-117309900D02*
X191770000Y-117360700D01*
X205917800Y-111518700D02*
X217855800Y-111518700D01*
X217855800Y-111518700D02*
X219278200Y-110096300D01*
X219278200Y-104051100D02*
X202158600Y-86931500D01*
X201079100Y-116357400D02*
X205917800Y-111518700D01*
X193027300Y-116357400D02*
X201079100Y-116357400D01*
X219278200Y-110096300D02*
X219278200Y-104051100D01*
X202234800Y-87147400D02*
X202158600Y-86931500D01*
%TO.N,A3*%
X186994800Y-117309900D02*
X186690000Y-117360700D01*
X201282300Y-115087400D02*
X189217300Y-115087400D01*
X209537300Y-106832400D02*
X201282300Y-115087400D01*
X189217300Y-115087400D02*
X186994800Y-117309900D01*
X209537300Y-106832400D02*
X209804000Y-106718100D01*
%TO.N,A4*%
X206997300Y-103911400D02*
X207264000Y-104178100D01*
X203428600Y-108013500D02*
X203428600Y-103593900D01*
X206387700Y-103060500D02*
X206997300Y-103670100D01*
X202412600Y-109054900D02*
X203276200Y-108191300D01*
X203428600Y-103593900D02*
X203962000Y-103060500D01*
X185724800Y-109054900D02*
X184429400Y-110350300D01*
X203276200Y-108165900D02*
X203428600Y-108013500D01*
X206997300Y-103670100D02*
X206997300Y-103911400D01*
X197154800Y-92227400D02*
X197078600Y-92011500D01*
X206679800Y-101752400D02*
X197154800Y-92227400D01*
X202412600Y-109054900D02*
X185724800Y-109054900D01*
X203276200Y-108191300D02*
X203276200Y-108165900D01*
X203962000Y-103060500D02*
X206387700Y-103060500D01*
%TO.N,A5*%
X194614800Y-92227400D02*
X194538600Y-92011500D01*
X206997300Y-106832400D02*
X204139800Y-109689900D01*
X187312300Y-114134900D02*
X182867300Y-114134900D01*
X204139800Y-101752400D02*
X194614800Y-92227400D01*
X204139800Y-109689900D02*
X190804800Y-109689900D01*
X205092300Y-101752400D02*
X204139800Y-101752400D01*
X190804800Y-109689900D02*
X190169800Y-110324900D01*
X182867300Y-114134900D02*
X182232300Y-114769900D01*
X206997300Y-106832400D02*
X207264000Y-106718100D01*
%TO.N,A6*%
X181279800Y-113499900D02*
X180009800Y-114769900D01*
X199059800Y-113499900D02*
X181279800Y-113499900D01*
%TO.N,A7*%
X188620400Y-85788500D02*
X188163200Y-86245700D01*
X197789800Y-112229900D02*
X179692300Y-112229900D01*
X193370200Y-86448900D02*
X192709800Y-85788500D01*
X192709800Y-85788500D02*
X188620400Y-85788500D01*
X196837300Y-96989900D02*
X193370200Y-93522800D01*
X188163200Y-90716100D02*
X189458600Y-92011500D01*
X188163200Y-86245700D02*
X188163200Y-90716100D01*
X193370200Y-93522800D02*
X193370200Y-86448900D01*
X179692300Y-112229900D02*
X177469800Y-114452400D01*
%TO.N,A8*%
X200012300Y-110959900D02*
X176199800Y-110959900D01*
X200964800Y-103517700D02*
X200964800Y-105829100D01*
X176199800Y-110959900D02*
X173977300Y-113182400D01*
X187083700Y-102933500D02*
X200380600Y-102933500D01*
X186994800Y-103022400D02*
X187083700Y-102933500D01*
X200380600Y-102933500D02*
X200964800Y-103517700D01*
X200964800Y-105829100D02*
X201853800Y-106718100D01*
X201853800Y-106718100D02*
X202184000Y-106718100D01*
%TO.N,A9*%
X176517300Y-111594900D02*
X173342300Y-114769900D01*
X196837300Y-98259900D02*
X186042300Y-98259900D01*
X186042300Y-98259900D02*
X184454800Y-96672400D01*
X197472300Y-111594900D02*
X176517300Y-111594900D01*
%TO.N,A12*%
X173558200Y-90462100D02*
X180289200Y-90462100D01*
X182549800Y-110324900D02*
X184454800Y-108419900D01*
X180289200Y-90462100D02*
X181838600Y-92011500D01*
X173024800Y-90995500D02*
X173558200Y-90462100D01*
X195249800Y-108419900D02*
X196837300Y-106832400D01*
X172707300Y-110324900D02*
X182549800Y-110324900D01*
X184454800Y-108419900D02*
X195249800Y-108419900D01*
X196837300Y-106832400D02*
X197104000Y-106718100D01*
X173024800Y-97624900D02*
X173024800Y-90995500D01*
%TO.N,D3*%
X179374800Y-92227400D02*
X179298600Y-92011500D01*
X187629800Y-95719900D02*
X182867300Y-95719900D01*
X165785800Y-115404900D02*
X163830000Y-117360700D01*
X186359800Y-115404900D02*
X165785800Y-115404900D01*
X182867300Y-95719900D02*
X179374800Y-92227400D01*
%TO.N,D7*%
X179857400Y-108521500D02*
X181660800Y-106718100D01*
X161417000Y-116573300D02*
X168656000Y-109334300D01*
X161417000Y-117233700D02*
X161290000Y-117360700D01*
X161417000Y-116573300D02*
X161417000Y-117233700D01*
X177952400Y-108521500D02*
X179857400Y-108521500D01*
X180327300Y-105879900D02*
X181165500Y-106718100D01*
X168656000Y-109334300D02*
X177139600Y-109334300D01*
X181165500Y-106718100D02*
X181864000Y-106718100D01*
X177139600Y-109334300D02*
X177952400Y-108521500D01*
%TO.N,A11*%
X174294800Y-92227400D02*
X180962300Y-98894900D01*
X174294800Y-92227400D02*
X174218600Y-92011500D01*
X194614800Y-98894900D02*
X196837300Y-101117400D01*
X180962300Y-98894900D02*
X194614800Y-98894900D01*
%TO.N,RW_N*%
X169138600Y-91249500D02*
X169138600Y-92011500D01*
X158737300Y-106514900D02*
X157784800Y-106514900D01*
X168249600Y-90360500D02*
X169138600Y-91249500D01*
X157581600Y-103085900D02*
X157530800Y-103085900D01*
X157530800Y-103085900D02*
X155829000Y-101384100D01*
X164287200Y-90360500D02*
X168249600Y-90360500D01*
X157784800Y-106514900D02*
X157784800Y-103289100D01*
X155829000Y-93103700D02*
X158572200Y-90360500D01*
X157784800Y-103289100D02*
X157581600Y-103085900D01*
X163779200Y-90360500D02*
X164287200Y-90360500D01*
X155829000Y-101384100D02*
X155829000Y-93103700D01*
X158737300Y-106514900D02*
X159004000Y-106718100D01*
X158572200Y-90360500D02*
X163779200Y-90360500D01*
%TO.N,PHI2*%
X166395400Y-92214700D02*
X166598600Y-92011500D01*
X175564800Y-101117400D02*
X166674800Y-92227400D01*
X175882300Y-101117400D02*
X175564800Y-101117400D01*
X159283400Y-92214700D02*
X166395400Y-92214700D01*
X166674800Y-92227400D02*
X166598600Y-92011500D01*
%TO.N,IRQ_N*%
X202234800Y-119849900D02*
X201930000Y-119900700D01*
X203784200Y-119849900D02*
X208026000Y-115608100D01*
X171754800Y-103974900D02*
X171704000Y-104178100D01*
X208026000Y-115608100D02*
X208026000Y-114363500D01*
X212077300Y-102387400D02*
X173342300Y-102387400D01*
X202234800Y-119849900D02*
X203784200Y-119849900D01*
X173342300Y-102387400D02*
X171754800Y-103974900D01*
X208026000Y-114363500D02*
X208000600Y-114338100D01*
%TO.N,MPD_N*%
X200736200Y-121272300D02*
X200736200Y-120662700D01*
X199669400Y-120180100D02*
X199390000Y-119900700D01*
X195884800Y-121754900D02*
X200253600Y-121754900D01*
X200253600Y-121754900D02*
X200736200Y-121272300D01*
X200736200Y-120662700D02*
X200253600Y-120180100D01*
X195884800Y-121754900D02*
X195567300Y-122072400D01*
X200253600Y-120180100D02*
X199669400Y-120180100D01*
%TO.N,A2*%
X186994800Y-119849900D02*
X186690000Y-119900700D01*
X188264800Y-118579900D02*
X186994800Y-119849900D01*
X203682600Y-118554500D02*
X188264800Y-118579900D01*
%TO.N,A1*%
X217068400Y-108597700D02*
X216712800Y-108953300D01*
X202844400Y-89268300D02*
X217068400Y-103492300D01*
X213817200Y-108953300D02*
X212344000Y-107480100D01*
X212394800Y-106514900D02*
X212344000Y-106718100D01*
X212344000Y-107480100D02*
X212344000Y-106718100D01*
X184454800Y-120167400D02*
X184150000Y-119900700D01*
X194538600Y-87071200D02*
X194538600Y-86931500D01*
X212077300Y-106832400D02*
X212344000Y-106718100D01*
X185407300Y-121119900D02*
X184454800Y-120167400D01*
X194538600Y-87071200D02*
X196735700Y-89268300D01*
X216712800Y-108953300D02*
X213817200Y-108953300D01*
X217068400Y-103492300D02*
X217068400Y-108597700D01*
X212077300Y-106832400D02*
X209219800Y-109689900D01*
X196735700Y-89268300D02*
X202844400Y-89268300D01*
X199529700Y-121119900D02*
X185407300Y-121119900D01*
%TO.N,A0*%
X181914800Y-122707400D02*
X203682600Y-122707400D01*
X181597300Y-122389900D02*
X181914800Y-122707400D01*
%TO.N,D4*%
X182867300Y-109054900D02*
X181279800Y-109054900D01*
X181279800Y-109054900D02*
X180644800Y-109689900D01*
X185407300Y-96672400D02*
X189801500Y-96672400D01*
X190754000Y-95719900D02*
X190754000Y-88226900D01*
X190754000Y-88226900D02*
X189458600Y-86931500D01*
X189801500Y-96672400D02*
X190754000Y-95719900D01*
%TO.N,D5*%
X184404000Y-106718100D02*
X183007000Y-108115100D01*
X178104800Y-109639100D02*
X178104800Y-109689900D01*
X180213000Y-109207300D02*
X178536600Y-109207300D01*
X183007000Y-108115100D02*
X181305200Y-108115100D01*
X181305200Y-108115100D02*
X180213000Y-109207300D01*
X178536600Y-109207300D02*
X178104800Y-109639100D01*
%TO.N,D2*%
X186677300Y-103974900D02*
X186944000Y-104178100D01*
X185724800Y-103022400D02*
X183184800Y-103022400D01*
X186677300Y-103974900D02*
X185724800Y-103022400D01*
%TO.N,D1*%
X173024800Y-118579900D02*
X171754800Y-119849900D01*
X173024800Y-118579900D02*
X186994800Y-118579900D01*
X171754800Y-119849900D02*
X171450000Y-119900700D01*
%TO.N,D0*%
X182537100Y-90170000D02*
X179298600Y-86931500D01*
X187007500Y-90170000D02*
X182537100Y-90170000D01*
%TO.N,D6*%
X163728400Y-120002300D02*
X163830000Y-119900700D01*
X164592000Y-121754900D02*
X163728400Y-120891300D01*
X163728400Y-120891300D02*
X163728400Y-120002300D01*
X182232300Y-121754900D02*
X164592000Y-121754900D01*
%TO.N,A10*%
X169837100Y-101752400D02*
X169672000Y-101587300D01*
X200647300Y-101752400D02*
X169837100Y-101752400D01*
D26*
%TO.N,5VMAIN*%
X86982300Y-109689900D02*
X86868400Y-109562900D01*
D25*
X87426800Y-106794300D02*
X86563200Y-107657900D01*
X86982300Y-109689900D02*
X86982300Y-117754400D01*
X96240600Y-106794300D02*
X87426800Y-106794300D01*
D26*
X86982300Y-109372400D02*
X86868400Y-109562900D01*
D25*
X86563200Y-107657900D02*
X86563200Y-109257700D01*
D26*
X87020400Y-109410900D02*
X86868400Y-109562900D01*
D25*
X86563200Y-109257700D02*
X86868400Y-109562900D01*
X86982300Y-117754400D02*
X86817200Y-117919500D01*
%TO.N,5V0*%
X96113600Y-103111300D02*
X96240600Y-102984300D01*
X83212621Y-98808541D02*
X83212621Y-100929122D01*
X85394800Y-103111300D02*
X96113600Y-103111300D01*
X83212621Y-100929122D02*
X85394800Y-103111300D01*
%TD*%
M02*
